G04*
G04 #@! TF.GenerationSoftware,Altium Limited,Altium Designer,25.4.2 (15)*
G04*
G04 Layer_Color=8388736*
%FSLAX44Y44*%
%MOMM*%
G71*
G04*
G04 #@! TF.SameCoordinates,F65AA522-A63D-4A45-9B44-1D57BAFE5AFF*
G04*
G04*
G04 #@! TF.FilePolarity,Negative*
G04*
G01*
G75*
%ADD37R,1.9040X1.7040*%
%ADD38R,1.5540X1.5540*%
%ADD39R,1.7040X1.9040*%
%ADD40R,1.5540X1.5540*%
G04:AMPARAMS|DCode=41|XSize=2.374mm|YSize=1.004mm|CornerRadius=0.277mm|HoleSize=0mm|Usage=FLASHONLY|Rotation=270.000|XOffset=0mm|YOffset=0mm|HoleType=Round|Shape=RoundedRectangle|*
%AMROUNDEDRECTD41*
21,1,2.3740,0.4500,0,0,270.0*
21,1,1.8200,1.0040,0,0,270.0*
1,1,0.5540,-0.2250,-0.9100*
1,1,0.5540,-0.2250,0.9100*
1,1,0.5540,0.2250,0.9100*
1,1,0.5540,0.2250,-0.9100*
%
%ADD41ROUNDEDRECTD41*%
G04:AMPARAMS|DCode=42|XSize=2.244mm|YSize=1.334mm|CornerRadius=0.3182mm|HoleSize=0mm|Usage=FLASHONLY|Rotation=270.000|XOffset=0mm|YOffset=0mm|HoleType=Round|Shape=RoundedRectangle|*
%AMROUNDEDRECTD42*
21,1,2.2440,0.6975,0,0,270.0*
21,1,1.6075,1.3340,0,0,270.0*
1,1,0.6365,-0.3488,-0.8038*
1,1,0.6365,-0.3488,0.8038*
1,1,0.6365,0.3488,0.8038*
1,1,0.6365,0.3488,-0.8038*
%
%ADD42ROUNDEDRECTD42*%
%ADD43R,1.8040X1.4040*%
%ADD44R,2.4040X5.9040*%
%ADD45R,2.3852X0.9374*%
%ADD46R,1.2770X0.4250*%
%ADD47R,1.2770X0.7170*%
%ADD48R,1.6040X1.8740*%
%ADD49R,1.8740X1.6040*%
%ADD50R,1.9540X2.6040*%
G04:AMPARAMS|DCode=51|XSize=1.264mm|YSize=1.764mm|CornerRadius=0.417mm|HoleSize=0mm|Usage=FLASHONLY|Rotation=0.000|XOffset=0mm|YOffset=0mm|HoleType=Round|Shape=RoundedRectangle|*
%AMROUNDEDRECTD51*
21,1,1.2640,0.9300,0,0,0.0*
21,1,0.4300,1.7640,0,0,0.0*
1,1,0.8340,0.2150,-0.4650*
1,1,0.8340,-0.2150,-0.4650*
1,1,0.8340,-0.2150,0.4650*
1,1,0.8340,0.2150,0.4650*
%
%ADD51ROUNDEDRECTD51*%
G04:AMPARAMS|DCode=52|XSize=2.374mm|YSize=1.004mm|CornerRadius=0.277mm|HoleSize=0mm|Usage=FLASHONLY|Rotation=180.000|XOffset=0mm|YOffset=0mm|HoleType=Round|Shape=RoundedRectangle|*
%AMROUNDEDRECTD52*
21,1,2.3740,0.4500,0,0,180.0*
21,1,1.8200,1.0040,0,0,180.0*
1,1,0.5540,-0.9100,0.2250*
1,1,0.5540,0.9100,0.2250*
1,1,0.5540,0.9100,-0.2250*
1,1,0.5540,-0.9100,-0.2250*
%
%ADD52ROUNDEDRECTD52*%
G04:AMPARAMS|DCode=53|XSize=1.704mm|YSize=2.204mm|CornerRadius=0.397mm|HoleSize=0mm|Usage=FLASHONLY|Rotation=0.000|XOffset=0mm|YOffset=0mm|HoleType=Round|Shape=RoundedRectangle|*
%AMROUNDEDRECTD53*
21,1,1.7040,1.4100,0,0,0.0*
21,1,0.9100,2.2040,0,0,0.0*
1,1,0.7940,0.4550,-0.7050*
1,1,0.7940,-0.4550,-0.7050*
1,1,0.7940,-0.4550,0.7050*
1,1,0.7940,0.4550,0.7050*
%
%ADD53ROUNDEDRECTD53*%
%ADD54R,1.9440X1.9440*%
%ADD55C,1.9440*%
%ADD56R,2.8040X2.8040*%
%ADD57C,2.8040*%
%ADD58C,3.3040*%
%ADD59C,2.0540*%
%ADD60R,2.0540X2.0540*%
%ADD61R,2.8040X2.8040*%
%ADD62R,1.7740X1.7740*%
%ADD63C,1.7740*%
%ADD64C,1.7540*%
%ADD65R,1.7540X1.7540*%
%ADD66C,0.8540*%
%ADD67C,5.4040*%
%ADD68C,4.1540*%
%ADD69C,2.2040*%
%ADD70R,1.9020X1.9020*%
%ADD71C,1.9020*%
%ADD72O,1.9270X1.1270*%
%ADD73O,2.3270X1.1270*%
%ADD74R,1.7248X1.7248*%
%ADD75C,1.7248*%
%ADD76R,1.7740X1.7740*%
%ADD77R,1.9790X1.9790*%
%ADD78C,1.9790*%
%ADD79C,1.2040*%
%ADD80C,1.4040*%
%ADD81C,1.1040*%
%ADD82C,1.1310*%
%ADD83C,1.6740*%
D37*
X1023620Y440690D02*
D03*
Y459690D02*
D03*
X654050Y612140D02*
D03*
Y631140D02*
D03*
Y589890D02*
D03*
Y570890D02*
D03*
X218440Y523900D02*
D03*
Y542900D02*
D03*
X83820Y415900D02*
D03*
Y396900D02*
D03*
X256540Y306680D02*
D03*
Y287680D02*
D03*
X229870Y306680D02*
D03*
Y287680D02*
D03*
D38*
X999490Y437830D02*
D03*
Y461330D02*
D03*
X430530Y202880D02*
D03*
Y226380D02*
D03*
Y356550D02*
D03*
Y380050D02*
D03*
X544830Y357820D02*
D03*
Y381320D02*
D03*
X481330Y357820D02*
D03*
Y381320D02*
D03*
X595630Y357820D02*
D03*
Y381320D02*
D03*
X657860Y357820D02*
D03*
Y381320D02*
D03*
X482600Y202880D02*
D03*
Y226380D02*
D03*
X546100Y202880D02*
D03*
Y226380D02*
D03*
X596900D02*
D03*
Y202880D02*
D03*
X708660Y357820D02*
D03*
Y381320D02*
D03*
X709930Y226380D02*
D03*
Y202880D02*
D03*
X657860Y226380D02*
D03*
Y202880D02*
D03*
X358140Y810260D02*
D03*
Y833760D02*
D03*
X132080Y96200D02*
D03*
Y119700D02*
D03*
X219710Y751520D02*
D03*
Y775020D02*
D03*
X605790Y461330D02*
D03*
Y437830D02*
D03*
X845820Y461330D02*
D03*
Y437830D02*
D03*
X657860Y461330D02*
D03*
Y437830D02*
D03*
X764540Y461330D02*
D03*
Y437830D02*
D03*
X713740Y461330D02*
D03*
Y437830D02*
D03*
X948690Y461330D02*
D03*
Y437830D02*
D03*
X975360Y461330D02*
D03*
Y437830D02*
D03*
X909320Y461330D02*
D03*
Y437830D02*
D03*
X132080Y775650D02*
D03*
Y799150D02*
D03*
X219710Y799780D02*
D03*
X993140Y359090D02*
D03*
Y382590D02*
D03*
X335280Y833760D02*
D03*
Y810260D02*
D03*
X336550Y741040D02*
D03*
Y764540D02*
D03*
X359410Y741040D02*
D03*
Y764540D02*
D03*
X219710Y823280D02*
D03*
X933450Y382590D02*
D03*
Y359090D02*
D03*
X883920Y382590D02*
D03*
Y359090D02*
D03*
X980440Y225430D02*
D03*
Y201930D02*
D03*
X934720Y202880D02*
D03*
Y226380D02*
D03*
X883920Y202880D02*
D03*
Y226380D02*
D03*
X821690Y382270D02*
D03*
Y358770D02*
D03*
X770890Y382270D02*
D03*
Y358770D02*
D03*
X821690Y226380D02*
D03*
Y202880D02*
D03*
X770890Y226380D02*
D03*
Y202880D02*
D03*
X243840Y520380D02*
D03*
Y543880D02*
D03*
D39*
X911860Y629920D02*
D03*
X930860D02*
D03*
X337210Y854710D02*
D03*
X356210D02*
D03*
X268630Y836930D02*
D03*
X287630D02*
D03*
X930250Y660400D02*
D03*
X911250D02*
D03*
X560120Y741680D02*
D03*
X579120D02*
D03*
X578460Y783590D02*
D03*
X559460D02*
D03*
X262230Y680720D02*
D03*
X243230D02*
D03*
X930860Y605790D02*
D03*
X911860D02*
D03*
X930860Y580390D02*
D03*
X911860D02*
D03*
X282600Y570230D02*
D03*
X301600D02*
D03*
X62890Y542290D02*
D03*
X81890D02*
D03*
X337770Y363220D02*
D03*
X318770D02*
D03*
X337770Y336550D02*
D03*
X318770D02*
D03*
X186030Y431800D02*
D03*
X167030D02*
D03*
D40*
X516890Y699770D02*
D03*
X493390D02*
D03*
X517210Y734060D02*
D03*
X493710D02*
D03*
X580710Y654050D02*
D03*
X557210D02*
D03*
X580710Y675640D02*
D03*
X557210D02*
D03*
X580390Y697230D02*
D03*
X556890D02*
D03*
X580390Y762000D02*
D03*
X556890D02*
D03*
X144150Y678180D02*
D03*
X120650D02*
D03*
X120330Y571500D02*
D03*
X143830D02*
D03*
X120650Y656590D02*
D03*
X144150D02*
D03*
X120330Y593090D02*
D03*
X143830D02*
D03*
X120650Y635000D02*
D03*
X144150D02*
D03*
X120330Y614680D02*
D03*
X143830D02*
D03*
X317180Y387350D02*
D03*
X340680D02*
D03*
X187010Y410210D02*
D03*
X163510D02*
D03*
X187010Y389890D02*
D03*
X163510D02*
D03*
X187010Y473710D02*
D03*
X163510D02*
D03*
Y453390D02*
D03*
X187010D02*
D03*
X379410Y271780D02*
D03*
X402910D02*
D03*
D41*
X303530Y649590D02*
D03*
X290830D02*
D03*
X278130D02*
D03*
X265430D02*
D03*
X252730D02*
D03*
X240030D02*
D03*
X227330D02*
D03*
X214630D02*
D03*
Y600090D02*
D03*
X227330D02*
D03*
X240030D02*
D03*
X252730D02*
D03*
X265430D02*
D03*
X278130D02*
D03*
X290830D02*
D03*
X303530D02*
D03*
D42*
X339230Y298820D02*
D03*
X316230D02*
D03*
X293230D02*
D03*
D43*
X170180Y787400D02*
D03*
X192180Y796900D02*
D03*
Y777900D02*
D03*
X109650Y414630D02*
D03*
Y395630D02*
D03*
X131650Y405130D02*
D03*
D44*
X695960Y648210D02*
D03*
Y553210D02*
D03*
D45*
X252222Y781050D02*
D03*
Y793750D02*
D03*
Y768350D02*
D03*
Y806450D02*
D03*
X301498D02*
D03*
Y793750D02*
D03*
Y781050D02*
D03*
Y768350D02*
D03*
D46*
X71080Y624800D02*
D03*
Y619800D02*
D03*
Y614800D02*
D03*
Y629800D02*
D03*
Y634800D02*
D03*
Y609800D02*
D03*
Y604800D02*
D03*
Y639800D02*
D03*
D47*
Y646300D02*
D03*
Y598300D02*
D03*
Y590300D02*
D03*
Y654300D02*
D03*
D48*
X62230Y519430D02*
D03*
X79430D02*
D03*
D49*
X191770Y543270D02*
D03*
Y526070D02*
D03*
D50*
X189230Y289560D02*
D03*
Y330560D02*
D03*
D51*
X403450Y297180D02*
D03*
X383950D02*
D03*
D52*
X111060Y435610D02*
D03*
Y448310D02*
D03*
Y461010D02*
D03*
Y473710D02*
D03*
X61660D02*
D03*
Y461010D02*
D03*
Y448310D02*
D03*
Y435610D02*
D03*
D53*
X190660Y497840D02*
D03*
X162560D02*
D03*
D54*
X766620Y816610D02*
D03*
D55*
Y791210D02*
D03*
Y664210D02*
D03*
Y638810D02*
D03*
Y765810D02*
D03*
Y740410D02*
D03*
Y689610D02*
D03*
Y715010D02*
D03*
Y613410D02*
D03*
Y588010D02*
D03*
Y562610D02*
D03*
Y537210D02*
D03*
Y511810D02*
D03*
Y486410D02*
D03*
X845820D02*
D03*
Y511810D02*
D03*
Y537210D02*
D03*
Y562610D02*
D03*
Y588010D02*
D03*
Y613410D02*
D03*
Y638810D02*
D03*
Y664210D02*
D03*
Y689610D02*
D03*
Y715010D02*
D03*
Y740410D02*
D03*
Y765810D02*
D03*
Y791210D02*
D03*
Y816610D02*
D03*
D56*
X530860Y81280D02*
D03*
X765810D02*
D03*
D57*
X480060D02*
D03*
X429260D02*
D03*
X715010D02*
D03*
X664210D02*
D03*
X613410D02*
D03*
X848360D02*
D03*
X899160D02*
D03*
X949960D02*
D03*
X1000760D02*
D03*
X105410Y328930D02*
D03*
X57150Y812800D02*
D03*
D58*
X378460Y81280D02*
D03*
D59*
X1024890Y501650D02*
D03*
Y527050D02*
D03*
Y552450D02*
D03*
Y577850D02*
D03*
Y603250D02*
D03*
D60*
Y628650D02*
D03*
D61*
X105410Y278130D02*
D03*
X57150Y762000D02*
D03*
D62*
X416553Y663920D02*
D03*
D63*
Y638520D02*
D03*
X391153Y663920D02*
D03*
Y638520D02*
D03*
X406400Y800100D02*
D03*
X431800D02*
D03*
X406400Y774700D02*
D03*
D64*
X544830Y328930D02*
D03*
X570230D02*
D03*
X595630D02*
D03*
X621030D02*
D03*
Y252730D02*
D03*
X570230D02*
D03*
X455930D02*
D03*
X506730D02*
D03*
Y328930D02*
D03*
X481330D02*
D03*
X455930D02*
D03*
X430530D02*
D03*
X657860D02*
D03*
X683260D02*
D03*
X708660D02*
D03*
X734060D02*
D03*
Y252730D02*
D03*
X683260D02*
D03*
X770890Y328930D02*
D03*
X796290D02*
D03*
X821690D02*
D03*
X847090D02*
D03*
Y252730D02*
D03*
X796290D02*
D03*
X882650Y328930D02*
D03*
X908050D02*
D03*
X933450D02*
D03*
X958850D02*
D03*
Y252730D02*
D03*
X908050D02*
D03*
D65*
X595630D02*
D03*
X544830D02*
D03*
X430530D02*
D03*
X481330D02*
D03*
X708660D02*
D03*
X657860D02*
D03*
X821690D02*
D03*
X770890D02*
D03*
X933450D02*
D03*
X882650D02*
D03*
D66*
X50038Y71120D02*
D03*
X85852Y86360D02*
D03*
X79502Y71120D02*
D03*
X49784Y101092D02*
D03*
X64770Y65278D02*
D03*
Y107696D02*
D03*
X79756Y101092D02*
D03*
X43688Y86360D02*
D03*
D67*
X64770D02*
D03*
D68*
X995680Y828040D02*
D03*
X1021080Y207010D02*
D03*
X29210Y701040D02*
D03*
X506730Y513080D02*
D03*
D69*
X173990Y47590D02*
D03*
Y122590D02*
D03*
D70*
X514870Y856890D02*
D03*
D71*
X579870D02*
D03*
X516370Y811890D02*
D03*
X579870D02*
D03*
D72*
X65330Y579100D02*
D03*
Y665500D02*
D03*
D73*
X25330Y579100D02*
D03*
Y665500D02*
D03*
D74*
X993140Y254000D02*
D03*
D75*
X1018540D02*
D03*
Y330200D02*
D03*
X993140D02*
D03*
D76*
X431800Y774700D02*
D03*
D77*
X341630Y427990D02*
D03*
D78*
X316630D02*
D03*
D79*
X601980Y685800D02*
D03*
X617220D02*
D03*
X368300Y853440D02*
D03*
X397510Y833120D02*
D03*
X604520Y518160D02*
D03*
X595630Y533400D02*
D03*
X614680D02*
D03*
X632460Y532130D02*
D03*
X641350Y516890D02*
D03*
X622300D02*
D03*
X234950Y326390D02*
D03*
X254000D02*
D03*
X245110Y341630D02*
D03*
X313690Y500380D02*
D03*
Y519430D02*
D03*
X298450Y510540D02*
D03*
X281940Y501650D02*
D03*
Y482600D02*
D03*
X297180Y491490D02*
D03*
X109220Y763270D02*
D03*
X96520D02*
D03*
X83820D02*
D03*
X109220Y787400D02*
D03*
X96520D02*
D03*
X83820D02*
D03*
X109220Y811530D02*
D03*
X96520D02*
D03*
X83820D02*
D03*
X153670Y787400D02*
D03*
X505460Y782320D02*
D03*
X135890Y420370D02*
D03*
Y497840D02*
D03*
X52070Y530860D02*
D03*
D80*
X889000Y576580D02*
D03*
X974090Y596900D02*
D03*
D81*
X899160Y501650D02*
D03*
X930910Y527050D02*
D03*
X412750Y721360D02*
D03*
X389890D02*
D03*
X396240Y601980D02*
D03*
X412750D02*
D03*
X819150Y662940D02*
D03*
X50800Y590550D02*
D03*
Y654050D02*
D03*
D82*
X517161Y687845D02*
D03*
X517210Y734060D02*
D03*
X493390Y699770D02*
D03*
X493710Y734060D02*
D03*
X429260Y698500D02*
D03*
X453390Y722630D02*
D03*
D83*
X595630Y389890D02*
D03*
X430530Y388620D02*
D03*
X883920Y389890D02*
D03*
X993140D02*
D03*
X933450D02*
D03*
X821690Y388620D02*
D03*
X770890D02*
D03*
X544830Y389890D02*
D03*
X481330Y388620D02*
D03*
X708660D02*
D03*
X657860D02*
D03*
X184150Y685800D02*
D03*
X167640D02*
D03*
X199390D02*
D03*
X598170Y741680D02*
D03*
X109220Y515620D02*
D03*
X359410Y363220D02*
D03*
X265430Y619760D02*
D03*
X261620Y519430D02*
D03*
X359410Y388620D02*
D03*
X260350Y389890D02*
D03*
X335280Y800100D02*
D03*
X336550Y773430D02*
D03*
M02*
