G04*
G04 #@! TF.GenerationSoftware,Altium Limited,Altium Designer,25.4.2 (15)*
G04*
G04 Layer_Color=2752767*
%FSLAX44Y44*%
%MOMM*%
G71*
G04*
G04 #@! TF.SameCoordinates,F65AA522-A63D-4A45-9B44-1D57BAFE5AFF*
G04*
G04*
G04 #@! TF.FilePolarity,Positive*
G04*
G01*
G75*
%ADD17C,0.1270*%
%ADD141C,0.1016*%
%ADD147C,0.1693*%
D17*
X761540Y811530D02*
X764080Y816610D01*
X761540Y821690D01*
X766620Y819150D01*
X771700Y821690D01*
X769160Y816610D01*
X771700Y811530D01*
X766620Y814070D01*
X761540Y811530D01*
Y786130D02*
X764080Y791210D01*
X761540Y796290D01*
X766620Y793750D01*
X771700Y796290D01*
X769160Y791210D01*
X771700Y786130D01*
X766620Y788670D01*
X761540Y786130D01*
Y659130D02*
X764080Y664210D01*
X761540Y669290D01*
X766620Y666750D01*
X771700Y669290D01*
X769160Y664210D01*
X771700Y659130D01*
X766620Y661670D01*
X761540Y659130D01*
Y633730D02*
X764080Y638810D01*
X761540Y643890D01*
X766620Y641350D01*
X771700Y643890D01*
X769160Y638810D01*
X771700Y633730D01*
X766620Y636270D01*
X761540Y633730D01*
Y760730D02*
X764080Y765810D01*
X761540Y770890D01*
X766620Y768350D01*
X771700Y770890D01*
X769160Y765810D01*
X771700Y760730D01*
X766620Y763270D01*
X761540Y760730D01*
Y735330D02*
X764080Y740410D01*
X761540Y745490D01*
X766620Y742950D01*
X771700Y745490D01*
X769160Y740410D01*
X771700Y735330D01*
X766620Y737870D01*
X761540Y735330D01*
Y684530D02*
X764080Y689610D01*
X761540Y694690D01*
X766620Y692150D01*
X771700Y694690D01*
X769160Y689610D01*
X771700Y684530D01*
X766620Y687070D01*
X761540Y684530D01*
Y709930D02*
X764080Y715010D01*
X761540Y720090D01*
X766620Y717550D01*
X771700Y720090D01*
X769160Y715010D01*
X771700Y709930D01*
X766620Y712470D01*
X761540Y709930D01*
Y608330D02*
X764080Y613410D01*
X761540Y618490D01*
X766620Y615950D01*
X771700Y618490D01*
X769160Y613410D01*
X771700Y608330D01*
X766620Y610870D01*
X761540Y608330D01*
Y582930D02*
X764080Y588010D01*
X761540Y593090D01*
X766620Y590550D01*
X771700Y593090D01*
X769160Y588010D01*
X771700Y582930D01*
X766620Y585470D01*
X761540Y582930D01*
Y557530D02*
X764080Y562610D01*
X761540Y567690D01*
X766620Y565150D01*
X771700Y567690D01*
X769160Y562610D01*
X771700Y557530D01*
X766620Y560070D01*
X761540Y557530D01*
Y532130D02*
X764080Y537210D01*
X761540Y542290D01*
X766620Y539750D01*
X771700Y542290D01*
X769160Y537210D01*
X771700Y532130D01*
X766620Y534670D01*
X761540Y532130D01*
Y506730D02*
X764080Y511810D01*
X761540Y516890D01*
X766620Y514350D01*
X771700Y516890D01*
X769160Y511810D01*
X771700Y506730D01*
X766620Y509270D01*
X761540Y506730D01*
Y481330D02*
X764080Y486410D01*
X761540Y491490D01*
X766620Y488950D01*
X771700Y491490D01*
X769160Y486410D01*
X771700Y481330D01*
X766620Y483870D01*
X761540Y481330D01*
X840740D02*
X843280Y486410D01*
X840740Y491490D01*
X845820Y488950D01*
X850900Y491490D01*
X848360Y486410D01*
X850900Y481330D01*
X845820Y483870D01*
X840740Y481330D01*
Y506730D02*
X843280Y511810D01*
X840740Y516890D01*
X845820Y514350D01*
X850900Y516890D01*
X848360Y511810D01*
X850900Y506730D01*
X845820Y509270D01*
X840740Y506730D01*
Y532130D02*
X843280Y537210D01*
X840740Y542290D01*
X845820Y539750D01*
X850900Y542290D01*
X848360Y537210D01*
X850900Y532130D01*
X845820Y534670D01*
X840740Y532130D01*
Y557530D02*
X843280Y562610D01*
X840740Y567690D01*
X845820Y565150D01*
X850900Y567690D01*
X848360Y562610D01*
X850900Y557530D01*
X845820Y560070D01*
X840740Y557530D01*
Y582930D02*
X843280Y588010D01*
X840740Y593090D01*
X845820Y590550D01*
X850900Y593090D01*
X848360Y588010D01*
X850900Y582930D01*
X845820Y585470D01*
X840740Y582930D01*
Y608330D02*
X843280Y613410D01*
X840740Y618490D01*
X845820Y615950D01*
X850900Y618490D01*
X848360Y613410D01*
X850900Y608330D01*
X845820Y610870D01*
X840740Y608330D01*
Y633730D02*
X843280Y638810D01*
X840740Y643890D01*
X845820Y641350D01*
X850900Y643890D01*
X848360Y638810D01*
X850900Y633730D01*
X845820Y636270D01*
X840740Y633730D01*
Y659130D02*
X843280Y664210D01*
X840740Y669290D01*
X845820Y666750D01*
X850900Y669290D01*
X848360Y664210D01*
X850900Y659130D01*
X845820Y661670D01*
X840740Y659130D01*
Y684530D02*
X843280Y689610D01*
X840740Y694690D01*
X845820Y692150D01*
X850900Y694690D01*
X848360Y689610D01*
X850900Y684530D01*
X845820Y687070D01*
X840740Y684530D01*
Y709930D02*
X843280Y715010D01*
X840740Y720090D01*
X845820Y717550D01*
X850900Y720090D01*
X848360Y715010D01*
X850900Y709930D01*
X845820Y712470D01*
X840740Y709930D01*
Y735330D02*
X843280Y740410D01*
X840740Y745490D01*
X845820Y742950D01*
X850900Y745490D01*
X848360Y740410D01*
X850900Y735330D01*
X845820Y737870D01*
X840740Y735330D01*
Y760730D02*
X843280Y765810D01*
X840740Y770890D01*
X845820Y768350D01*
X850900Y770890D01*
X848360Y765810D01*
X850900Y760730D01*
X845820Y763270D01*
X840740Y760730D01*
Y786130D02*
X843280Y791210D01*
X840740Y796290D01*
X845820Y793750D01*
X850900Y796290D01*
X848360Y791210D01*
X850900Y786130D01*
X845820Y788670D01*
X840740Y786130D01*
Y811530D02*
X843280Y816610D01*
X840740Y821690D01*
X845820Y819150D01*
X850900Y821690D01*
X848360Y816610D01*
X850900Y811530D01*
X845820Y814070D01*
X840740Y811530D01*
X525780Y76200D02*
Y86360D01*
X535940D01*
Y76200D01*
X525780D01*
X474980D02*
Y86360D01*
X485140D01*
Y76200D01*
X474980D01*
X424180D02*
Y86360D01*
X434340D01*
Y76200D01*
X424180D01*
X373380D02*
Y86360D01*
X383540D01*
Y76200D01*
X373380D01*
X760730D02*
Y86360D01*
X770890D01*
Y76200D01*
X760730D01*
X709930D02*
Y86360D01*
X720090D01*
Y76200D01*
X709930D01*
X659130D02*
Y86360D01*
X669290D01*
Y76200D01*
X659130D01*
X608330D02*
Y86360D01*
X618490D01*
Y76200D01*
X608330D01*
X843280D02*
Y86360D01*
X853440D01*
Y76200D01*
X843280D01*
X894080D02*
Y86360D01*
X904240D01*
Y76200D01*
X894080D01*
X944880D02*
Y86360D01*
X955040D01*
Y76200D01*
X944880D01*
X995680D02*
Y86360D01*
X1005840D01*
Y76200D01*
X995680D01*
X1022350Y499110D02*
Y496570D01*
X1027430D01*
Y499110D01*
X1029970D01*
Y504190D01*
X1027430D01*
Y506730D01*
X1022350D01*
Y504190D01*
X1019810D01*
Y499110D01*
X1022350D01*
Y524510D02*
Y521970D01*
X1027430D01*
Y524510D01*
X1029970D01*
Y529590D01*
X1027430D01*
Y532130D01*
X1022350D01*
Y529590D01*
X1019810D01*
Y524510D01*
X1022350D01*
Y549910D02*
Y547370D01*
X1027430D01*
Y549910D01*
X1029970D01*
Y554990D01*
X1027430D01*
Y557530D01*
X1022350D01*
Y554990D01*
X1019810D01*
Y549910D01*
X1022350D01*
Y575310D02*
Y572770D01*
X1027430D01*
Y575310D01*
X1029970D01*
Y580390D01*
X1027430D01*
Y582930D01*
X1022350D01*
Y580390D01*
X1019810D01*
Y575310D01*
X1022350D01*
Y600710D02*
Y598170D01*
X1027430D01*
Y600710D01*
X1029970D01*
Y605790D01*
X1027430D01*
Y608330D01*
X1022350D01*
Y605790D01*
X1019810D01*
Y600710D01*
X1022350D01*
Y626110D02*
Y623570D01*
X1027430D01*
Y626110D01*
X1029970D01*
Y631190D01*
X1027430D01*
Y633730D01*
X1022350D01*
Y631190D01*
X1019810D01*
Y626110D01*
X1022350D01*
X100330Y323850D02*
Y334010D01*
X110490D01*
Y323850D01*
X100330D01*
Y273050D02*
Y283210D01*
X110490D01*
Y273050D01*
X100330D01*
X539750Y323850D02*
X542290Y328930D01*
X539750Y334010D01*
X544830Y331470D01*
X549910Y334010D01*
X547370Y328930D01*
X549910Y323850D01*
X544830Y326390D01*
X539750Y323850D01*
X565150D02*
X567690Y328930D01*
X565150Y334010D01*
X570230Y331470D01*
X575310Y334010D01*
X572770Y328930D01*
X575310Y323850D01*
X570230Y326390D01*
X565150Y323850D01*
X590550D02*
X593090Y328930D01*
X590550Y334010D01*
X595630Y331470D01*
X600710Y334010D01*
X598170Y328930D01*
X600710Y323850D01*
X595630Y326390D01*
X590550Y323850D01*
X615950D02*
X618490Y328930D01*
X615950Y334010D01*
X621030Y331470D01*
X626110Y334010D01*
X623570Y328930D01*
X626110Y323850D01*
X621030Y326390D01*
X615950Y323850D01*
Y247650D02*
X618490Y252730D01*
X615950Y257810D01*
X621030Y255270D01*
X626110Y257810D01*
X623570Y252730D01*
X626110Y247650D01*
X621030Y250190D01*
X615950Y247650D01*
X590550D02*
X593090Y252730D01*
X590550Y257810D01*
X595630Y255270D01*
X600710Y257810D01*
X598170Y252730D01*
X600710Y247650D01*
X595630Y250190D01*
X590550Y247650D01*
X565150D02*
X567690Y252730D01*
X565150Y257810D01*
X570230Y255270D01*
X575310Y257810D01*
X572770Y252730D01*
X575310Y247650D01*
X570230Y250190D01*
X565150Y247650D01*
X539750D02*
X542290Y252730D01*
X539750Y257810D01*
X544830Y255270D01*
X549910Y257810D01*
X547370Y252730D01*
X549910Y247650D01*
X544830Y250190D01*
X539750Y247650D01*
X425450D02*
X427990Y252730D01*
X425450Y257810D01*
X430530Y255270D01*
X435610Y257810D01*
X433070Y252730D01*
X435610Y247650D01*
X430530Y250190D01*
X425450Y247650D01*
X450850D02*
X453390Y252730D01*
X450850Y257810D01*
X455930Y255270D01*
X461010Y257810D01*
X458470Y252730D01*
X461010Y247650D01*
X455930Y250190D01*
X450850Y247650D01*
X476250D02*
X478790Y252730D01*
X476250Y257810D01*
X481330Y255270D01*
X486410Y257810D01*
X483870Y252730D01*
X486410Y247650D01*
X481330Y250190D01*
X476250Y247650D01*
X501650D02*
X504190Y252730D01*
X501650Y257810D01*
X506730Y255270D01*
X511810Y257810D01*
X509270Y252730D01*
X511810Y247650D01*
X506730Y250190D01*
X501650Y247650D01*
Y323850D02*
X504190Y328930D01*
X501650Y334010D01*
X506730Y331470D01*
X511810Y334010D01*
X509270Y328930D01*
X511810Y323850D01*
X506730Y326390D01*
X501650Y323850D01*
X476250D02*
X478790Y328930D01*
X476250Y334010D01*
X481330Y331470D01*
X486410Y334010D01*
X483870Y328930D01*
X486410Y323850D01*
X481330Y326390D01*
X476250Y323850D01*
X450850D02*
X453390Y328930D01*
X450850Y334010D01*
X455930Y331470D01*
X461010Y334010D01*
X458470Y328930D01*
X461010Y323850D01*
X455930Y326390D01*
X450850Y323850D01*
X425450D02*
X427990Y328930D01*
X425450Y334010D01*
X430530Y331470D01*
X435610Y334010D01*
X433070Y328930D01*
X435610Y323850D01*
X430530Y326390D01*
X425450Y323850D01*
X652780D02*
X655320Y328930D01*
X652780Y334010D01*
X657860Y331470D01*
X662940Y334010D01*
X660400Y328930D01*
X662940Y323850D01*
X657860Y326390D01*
X652780Y323850D01*
X678180D02*
X680720Y328930D01*
X678180Y334010D01*
X683260Y331470D01*
X688340Y334010D01*
X685800Y328930D01*
X688340Y323850D01*
X683260Y326390D01*
X678180Y323850D01*
X703580D02*
X706120Y328930D01*
X703580Y334010D01*
X708660Y331470D01*
X713740Y334010D01*
X711200Y328930D01*
X713740Y323850D01*
X708660Y326390D01*
X703580Y323850D01*
X728980D02*
X731520Y328930D01*
X728980Y334010D01*
X734060Y331470D01*
X739140Y334010D01*
X736600Y328930D01*
X739140Y323850D01*
X734060Y326390D01*
X728980Y323850D01*
Y247650D02*
X731520Y252730D01*
X728980Y257810D01*
X734060Y255270D01*
X739140Y257810D01*
X736600Y252730D01*
X739140Y247650D01*
X734060Y250190D01*
X728980Y247650D01*
X703580D02*
X706120Y252730D01*
X703580Y257810D01*
X708660Y255270D01*
X713740Y257810D01*
X711200Y252730D01*
X713740Y247650D01*
X708660Y250190D01*
X703580Y247650D01*
X678180D02*
X680720Y252730D01*
X678180Y257810D01*
X683260Y255270D01*
X688340Y257810D01*
X685800Y252730D01*
X688340Y247650D01*
X683260Y250190D01*
X678180Y247650D01*
X652780D02*
X655320Y252730D01*
X652780Y257810D01*
X657860Y255270D01*
X662940Y257810D01*
X660400Y252730D01*
X662940Y247650D01*
X657860Y250190D01*
X652780Y247650D01*
X44958Y66040D02*
X47498D01*
X50038Y68580D01*
X52578Y66040D01*
X55118D01*
Y68580D01*
X52578Y71120D01*
X55118Y73660D01*
Y76200D01*
X52578D01*
X50038Y73660D01*
X47498Y76200D01*
X44958D01*
Y73660D01*
X47498Y71120D01*
X44958Y68580D01*
Y66040D01*
X46990Y68072D02*
X48514D01*
X50038Y69596D01*
X51562Y68072D01*
X53086D01*
Y69596D01*
X51562Y71120D01*
X53086Y72644D01*
Y74168D01*
X51562D01*
X50038Y72644D01*
X48514Y74168D01*
X46990D01*
Y72644D01*
X48514Y71120D01*
X46990Y69596D01*
Y68072D01*
X80772Y81280D02*
X83312D01*
X85852Y83820D01*
X88392Y81280D01*
X90932D01*
Y83820D01*
X88392Y86360D01*
X90932Y88900D01*
Y91440D01*
X88392D01*
X85852Y88900D01*
X83312Y91440D01*
X80772D01*
Y88900D01*
X83312Y86360D01*
X80772Y83820D01*
Y81280D01*
X82804Y83312D02*
X84328D01*
X85852Y84836D01*
X87376Y83312D01*
X88900D01*
Y84836D01*
X87376Y86360D01*
X88900Y87884D01*
Y89408D01*
X87376D01*
X85852Y87884D01*
X84328Y89408D01*
X82804D01*
Y87884D01*
X84328Y86360D01*
X82804Y84836D01*
Y83312D01*
X74422Y66040D02*
X76962D01*
X79502Y68580D01*
X82042Y66040D01*
X84582D01*
Y68580D01*
X82042Y71120D01*
X84582Y73660D01*
Y76200D01*
X82042D01*
X79502Y73660D01*
X76962Y76200D01*
X74422D01*
Y73660D01*
X76962Y71120D01*
X74422Y68580D01*
Y66040D01*
X76454Y68072D02*
X77978D01*
X79502Y69596D01*
X81026Y68072D01*
X82550D01*
Y69596D01*
X81026Y71120D01*
X82550Y72644D01*
Y74168D01*
X81026D01*
X79502Y72644D01*
X77978Y74168D01*
X76454D01*
Y72644D01*
X77978Y71120D01*
X76454Y69596D01*
Y68072D01*
X44704Y96012D02*
X47244D01*
X49784Y98552D01*
X52324Y96012D01*
X54864D01*
Y98552D01*
X52324Y101092D01*
X54864Y103632D01*
Y106172D01*
X52324D01*
X49784Y103632D01*
X47244Y106172D01*
X44704D01*
Y103632D01*
X47244Y101092D01*
X44704Y98552D01*
Y96012D01*
X46736Y98044D02*
X48260D01*
X49784Y99568D01*
X51308Y98044D01*
X52832D01*
Y99568D01*
X51308Y101092D01*
X52832Y102616D01*
Y104140D01*
X51308D01*
X49784Y102616D01*
X48260Y104140D01*
X46736D01*
Y102616D01*
X48260Y101092D01*
X46736Y99568D01*
Y98044D01*
X59690Y60198D02*
X62230D01*
X64770Y62738D01*
X67310Y60198D01*
X69850D01*
Y62738D01*
X67310Y65278D01*
X69850Y67818D01*
Y70358D01*
X67310D01*
X64770Y67818D01*
X62230Y70358D01*
X59690D01*
Y67818D01*
X62230Y65278D01*
X59690Y62738D01*
Y60198D01*
X61722Y62230D02*
X63246D01*
X64770Y63754D01*
X66294Y62230D01*
X67818D01*
Y63754D01*
X66294Y65278D01*
X67818Y66802D01*
Y68326D01*
X66294D01*
X64770Y66802D01*
X63246Y68326D01*
X61722D01*
Y66802D01*
X63246Y65278D01*
X61722Y63754D01*
Y62230D01*
X59690Y102616D02*
X62230D01*
X64770Y105156D01*
X67310Y102616D01*
X69850D01*
Y105156D01*
X67310Y107696D01*
X69850Y110236D01*
Y112776D01*
X67310D01*
X64770Y110236D01*
X62230Y112776D01*
X59690D01*
Y110236D01*
X62230Y107696D01*
X59690Y105156D01*
Y102616D01*
X61722Y104648D02*
X63246D01*
X64770Y106172D01*
X66294Y104648D01*
X67818D01*
Y106172D01*
X66294Y107696D01*
X67818Y109220D01*
Y110744D01*
X66294D01*
X64770Y109220D01*
X63246Y110744D01*
X61722D01*
Y109220D01*
X63246Y107696D01*
X61722Y106172D01*
Y104648D01*
X64770Y86360D02*
Y94824D01*
X69002Y99056D01*
X73234Y94824D01*
Y86360D01*
Y92708D01*
X64770D01*
X74676Y96012D02*
X77216D01*
X79756Y98552D01*
X82296Y96012D01*
X84836D01*
Y98552D01*
X82296Y101092D01*
X84836Y103632D01*
Y106172D01*
X82296D01*
X79756Y103632D01*
X77216Y106172D01*
X74676D01*
Y103632D01*
X77216Y101092D01*
X74676Y98552D01*
Y96012D01*
X76708Y98044D02*
X78232D01*
X79756Y99568D01*
X81280Y98044D01*
X82804D01*
Y99568D01*
X81280Y101092D01*
X82804Y102616D01*
Y104140D01*
X81280D01*
X79756Y102616D01*
X78232Y104140D01*
X76708D01*
Y102616D01*
X78232Y101092D01*
X76708Y99568D01*
Y98044D01*
X38608Y81280D02*
X41148D01*
X43688Y83820D01*
X46228Y81280D01*
X48768D01*
Y83820D01*
X46228Y86360D01*
X48768Y88900D01*
Y91440D01*
X46228D01*
X43688Y88900D01*
X41148Y91440D01*
X38608D01*
Y88900D01*
X41148Y86360D01*
X38608Y83820D01*
Y81280D01*
X40640Y83312D02*
X42164D01*
X43688Y84836D01*
X45212Y83312D01*
X46736D01*
Y84836D01*
X45212Y86360D01*
X46736Y87884D01*
Y89408D01*
X45212D01*
X43688Y87884D01*
X42164Y89408D01*
X40640D01*
Y87884D01*
X42164Y86360D01*
X40640Y84836D01*
Y83312D01*
X993140Y825500D02*
Y822960D01*
X998220D01*
Y825500D01*
X1000760D01*
Y830580D01*
X998220D01*
Y833120D01*
X993140D01*
Y830580D01*
X990600D01*
Y825500D01*
X993140D01*
X994156Y826516D02*
Y824992D01*
X997204D01*
Y826516D01*
X998728D01*
Y829564D01*
X997204D01*
Y831088D01*
X994156D01*
Y829564D01*
X992632D01*
Y826516D01*
X994156D01*
X168910Y42510D02*
X171450Y47590D01*
X168910Y52670D01*
X173990Y50130D01*
X179070Y52670D01*
X176530Y47590D01*
X179070Y42510D01*
X173990Y45050D01*
X168910Y42510D01*
Y117510D02*
X171450Y122590D01*
X168910Y127670D01*
X173990Y125130D01*
X179070Y127670D01*
X176530Y122590D01*
X179070Y117510D01*
X173990Y120050D01*
X168910Y117510D01*
X1018540Y204470D02*
Y201930D01*
X1023620D01*
Y204470D01*
X1026160D01*
Y209550D01*
X1023620D01*
Y212090D01*
X1018540D01*
Y209550D01*
X1016000D01*
Y204470D01*
X1018540D01*
X1019556Y205486D02*
Y203962D01*
X1022604D01*
Y205486D01*
X1024128D01*
Y208534D01*
X1022604D01*
Y210058D01*
X1019556D01*
Y208534D01*
X1018032D01*
Y205486D01*
X1019556D01*
X26670Y698500D02*
Y695960D01*
X31750D01*
Y698500D01*
X34290D01*
Y703580D01*
X31750D01*
Y706120D01*
X26670D01*
Y703580D01*
X24130D01*
Y698500D01*
X26670D01*
X27686Y699516D02*
Y697992D01*
X30734D01*
Y699516D01*
X32258D01*
Y702564D01*
X30734D01*
Y704088D01*
X27686D01*
Y702564D01*
X26162D01*
Y699516D01*
X27686D01*
X504190Y510540D02*
Y508000D01*
X509270D01*
Y510540D01*
X511810D01*
Y515620D01*
X509270D01*
Y518160D01*
X504190D01*
Y515620D01*
X501650D01*
Y510540D01*
X504190D01*
X505206Y511556D02*
Y510032D01*
X508254D01*
Y511556D01*
X509778D01*
Y514604D01*
X508254D01*
Y516128D01*
X505206D01*
Y514604D01*
X503682D01*
Y511556D01*
X505206D01*
X52070Y756920D02*
Y767080D01*
X62230D01*
Y756920D01*
X52070D01*
Y807720D02*
Y817880D01*
X62230D01*
Y807720D01*
X52070D01*
X514870Y851810D02*
X509790Y861970D01*
X519950D01*
X514870Y851810D01*
X579870D02*
X574790Y861970D01*
X584950D01*
X579870Y851810D01*
X516370Y806810D02*
X511290Y816970D01*
X521450D01*
X516370Y806810D01*
X579870D02*
X574790Y816970D01*
X584950D01*
X579870Y806810D01*
X20250Y574020D02*
Y584180D01*
X30410D01*
Y574020D01*
X20250D01*
X22282Y576052D02*
Y582148D01*
X28378D01*
Y576052D01*
X22282D01*
X20250Y660420D02*
Y670580D01*
X30410D01*
Y660420D01*
X20250D01*
X22282Y662452D02*
Y668548D01*
X28378D01*
Y662452D01*
X22282D01*
X765810Y323850D02*
X768350Y328930D01*
X765810Y334010D01*
X770890Y331470D01*
X775970Y334010D01*
X773430Y328930D01*
X775970Y323850D01*
X770890Y326390D01*
X765810Y323850D01*
X791210D02*
X793750Y328930D01*
X791210Y334010D01*
X796290Y331470D01*
X801370Y334010D01*
X798830Y328930D01*
X801370Y323850D01*
X796290Y326390D01*
X791210Y323850D01*
X816610D02*
X819150Y328930D01*
X816610Y334010D01*
X821690Y331470D01*
X826770Y334010D01*
X824230Y328930D01*
X826770Y323850D01*
X821690Y326390D01*
X816610Y323850D01*
X842010D02*
X844550Y328930D01*
X842010Y334010D01*
X847090Y331470D01*
X852170Y334010D01*
X849630Y328930D01*
X852170Y323850D01*
X847090Y326390D01*
X842010Y323850D01*
Y247650D02*
X844550Y252730D01*
X842010Y257810D01*
X847090Y255270D01*
X852170Y257810D01*
X849630Y252730D01*
X852170Y247650D01*
X847090Y250190D01*
X842010Y247650D01*
X816610D02*
X819150Y252730D01*
X816610Y257810D01*
X821690Y255270D01*
X826770Y257810D01*
X824230Y252730D01*
X826770Y247650D01*
X821690Y250190D01*
X816610Y247650D01*
X791210D02*
X793750Y252730D01*
X791210Y257810D01*
X796290Y255270D01*
X801370Y257810D01*
X798830Y252730D01*
X801370Y247650D01*
X796290Y250190D01*
X791210Y247650D01*
X765810D02*
X768350Y252730D01*
X765810Y257810D01*
X770890Y255270D01*
X775970Y257810D01*
X773430Y252730D01*
X775970Y247650D01*
X770890Y250190D01*
X765810Y247650D01*
X877570Y323850D02*
X880110Y328930D01*
X877570Y334010D01*
X882650Y331470D01*
X887730Y334010D01*
X885190Y328930D01*
X887730Y323850D01*
X882650Y326390D01*
X877570Y323850D01*
X902970D02*
X905510Y328930D01*
X902970Y334010D01*
X908050Y331470D01*
X913130Y334010D01*
X910590Y328930D01*
X913130Y323850D01*
X908050Y326390D01*
X902970Y323850D01*
X928370D02*
X930910Y328930D01*
X928370Y334010D01*
X933450Y331470D01*
X938530Y334010D01*
X935990Y328930D01*
X938530Y323850D01*
X933450Y326390D01*
X928370Y323850D01*
X953770D02*
X956310Y328930D01*
X953770Y334010D01*
X958850Y331470D01*
X963930Y334010D01*
X961390Y328930D01*
X963930Y323850D01*
X958850Y326390D01*
X953770Y323850D01*
Y247650D02*
X956310Y252730D01*
X953770Y257810D01*
X958850Y255270D01*
X963930Y257810D01*
X961390Y252730D01*
X963930Y247650D01*
X958850Y250190D01*
X953770Y247650D01*
X928370D02*
X930910Y252730D01*
X928370Y257810D01*
X933450Y255270D01*
X938530Y257810D01*
X935990Y252730D01*
X938530Y247650D01*
X933450Y250190D01*
X928370Y247650D01*
X902970D02*
X905510Y252730D01*
X902970Y257810D01*
X908050Y255270D01*
X913130Y257810D01*
X910590Y252730D01*
X913130Y247650D01*
X908050Y250190D01*
X902970Y247650D01*
X877570D02*
X880110Y252730D01*
X877570Y257810D01*
X882650Y255270D01*
X887730Y257810D01*
X885190Y252730D01*
X887730Y247650D01*
X882650Y250190D01*
X877570Y247650D01*
X993140Y248920D02*
X995680Y251460D01*
X998220D01*
X995680Y254000D01*
X998220Y256540D01*
X995680D01*
X993140Y259080D01*
X990600Y256540D01*
X988060D01*
X990600Y254000D01*
X988060Y251460D01*
X990600D01*
X993140Y248920D01*
X1018540D02*
X1021080Y251460D01*
X1023620D01*
X1021080Y254000D01*
X1023620Y256540D01*
X1021080D01*
X1018540Y259080D01*
X1016000Y256540D01*
X1013460D01*
X1016000Y254000D01*
X1013460Y251460D01*
X1016000D01*
X1018540Y248920D01*
Y325120D02*
X1021080Y327660D01*
X1023620D01*
X1021080Y330200D01*
X1023620Y332740D01*
X1021080D01*
X1018540Y335280D01*
X1016000Y332740D01*
X1013460D01*
X1016000Y330200D01*
X1013460Y327660D01*
X1016000D01*
X1018540Y325120D01*
X993140D02*
X995680Y327660D01*
X998220D01*
X995680Y330200D01*
X998220Y332740D01*
X995680D01*
X993140Y335280D01*
X990600Y332740D01*
X988060D01*
X990600Y330200D01*
X988060Y327660D01*
X990600D01*
X993140Y325120D01*
X336550Y427990D02*
X341630Y433070D01*
X346710Y427990D01*
X341630Y422910D01*
X336550Y427990D01*
X311550D02*
X316630Y433070D01*
X321710Y427990D01*
X316630Y422910D01*
X311550Y427990D01*
X596900Y680720D02*
X599440Y685800D01*
X596900Y690880D01*
X601980Y688340D01*
X607060Y690880D01*
X604520Y685800D01*
X607060Y680720D01*
X601980Y683260D01*
X596900Y680720D01*
X598932Y682752D02*
X600456Y685800D01*
X598932Y688848D01*
X601980Y687324D01*
X605028Y688848D01*
X603504Y685800D01*
X605028Y682752D01*
X601980Y684276D01*
X598932Y682752D01*
X612140Y680720D02*
X614680Y685800D01*
X612140Y690880D01*
X617220Y688340D01*
X622300Y690880D01*
X619760Y685800D01*
X622300Y680720D01*
X617220Y683260D01*
X612140Y680720D01*
X614172Y682752D02*
X615696Y685800D01*
X614172Y688848D01*
X617220Y687324D01*
X620268Y688848D01*
X618744Y685800D01*
X620268Y682752D01*
X617220Y684276D01*
X614172Y682752D01*
X889000Y571500D02*
X891540Y574040D01*
X894080D01*
X891540Y576580D01*
X894080Y579120D01*
X891540D01*
X889000Y581660D01*
X886460Y579120D01*
X883920D01*
X886460Y576580D01*
X883920Y574040D01*
X886460D01*
X889000Y571500D01*
Y573532D02*
X890524Y575056D01*
X892048D01*
X890524Y576580D01*
X892048Y578104D01*
X890524D01*
X889000Y579628D01*
X887476Y578104D01*
X885952D01*
X887476Y576580D01*
X885952Y575056D01*
X887476D01*
X889000Y573532D01*
X974090Y591820D02*
X976630Y594360D01*
X979170D01*
X976630Y596900D01*
X979170Y599440D01*
X976630D01*
X974090Y601980D01*
X971550Y599440D01*
X969010D01*
X971550Y596900D01*
X969010Y594360D01*
X971550D01*
X974090Y591820D01*
Y593852D02*
X975614Y595376D01*
X977138D01*
X975614Y596900D01*
X977138Y598424D01*
X975614D01*
X974090Y599948D01*
X972566Y598424D01*
X971042D01*
X972566Y596900D01*
X971042Y595376D01*
X972566D01*
X974090Y593852D01*
X894080Y496570D02*
X896620Y501650D01*
X894080Y506730D01*
X899160Y504190D01*
X904240Y506730D01*
X901700Y501650D01*
X904240Y496570D01*
X899160Y499110D01*
X894080Y496570D01*
X896112Y498602D02*
X897636Y501650D01*
X896112Y504698D01*
X899160Y503174D01*
X902208Y504698D01*
X900684Y501650D01*
X902208Y498602D01*
X899160Y500126D01*
X896112Y498602D01*
X925830Y521970D02*
X928370Y527050D01*
X925830Y532130D01*
X930910Y529590D01*
X935990Y532130D01*
X933450Y527050D01*
X935990Y521970D01*
X930910Y524510D01*
X925830Y521970D01*
X927862Y524002D02*
X929386Y527050D01*
X927862Y530098D01*
X930910Y528574D01*
X933958Y530098D01*
X932434Y527050D01*
X933958Y524002D01*
X930910Y525526D01*
X927862Y524002D01*
X407670Y716280D02*
X410210Y721360D01*
X407670Y726440D01*
X412750Y723900D01*
X417830Y726440D01*
X415290Y721360D01*
X417830Y716280D01*
X412750Y718820D01*
X407670Y716280D01*
X409702Y718312D02*
X411226Y721360D01*
X409702Y724408D01*
X412750Y722884D01*
X415798Y724408D01*
X414274Y721360D01*
X415798Y718312D01*
X412750Y719836D01*
X409702Y718312D01*
X384810Y716280D02*
X387350Y721360D01*
X384810Y726440D01*
X389890Y723900D01*
X394970Y726440D01*
X392430Y721360D01*
X394970Y716280D01*
X389890Y718820D01*
X384810Y716280D01*
X386842Y718312D02*
X388366Y721360D01*
X386842Y724408D01*
X389890Y722884D01*
X392938Y724408D01*
X391414Y721360D01*
X392938Y718312D01*
X389890Y719836D01*
X386842Y718312D01*
X368300Y866136D02*
Y853440D01*
X374648D01*
X376764Y855556D01*
Y857672D01*
X374648Y859788D01*
X368300D01*
X374648D01*
X376764Y861904D01*
Y864020D01*
X374648Y866136D01*
X368300D01*
X397510Y845816D02*
Y833120D01*
X403858D01*
X405974Y835236D01*
Y837352D01*
X403858Y839468D01*
X397510D01*
X403858D01*
X405974Y841584D01*
Y843700D01*
X403858Y845816D01*
X397510D01*
X391160Y596900D02*
X393700Y601980D01*
X391160Y607060D01*
X396240Y604520D01*
X401320Y607060D01*
X398780Y601980D01*
X401320Y596900D01*
X396240Y599440D01*
X391160Y596900D01*
X393192Y598932D02*
X394716Y601980D01*
X393192Y605028D01*
X396240Y603504D01*
X399288Y605028D01*
X397764Y601980D01*
X399288Y598932D01*
X396240Y600456D01*
X393192Y598932D01*
X407670Y596900D02*
X410210Y601980D01*
X407670Y607060D01*
X412750Y604520D01*
X417830Y607060D01*
X415290Y601980D01*
X417830Y596900D01*
X412750Y599440D01*
X407670Y596900D01*
X409702Y598932D02*
X411226Y601980D01*
X409702Y605028D01*
X412750Y603504D01*
X415798Y605028D01*
X414274Y601980D01*
X415798Y598932D01*
X412750Y600456D01*
X409702Y598932D01*
X517161Y682765D02*
X512081Y692925D01*
X522241D01*
X517161Y682765D01*
Y684797D02*
X514113Y690893D01*
X520209D01*
X517161Y684797D01*
X517210Y728980D02*
X512130Y739140D01*
X522290D01*
X517210Y728980D01*
Y731012D02*
X514162Y737108D01*
X520258D01*
X517210Y731012D01*
X599440Y513080D02*
X601980Y518160D01*
X599440Y523240D01*
X604520Y520700D01*
X609600Y523240D01*
X607060Y518160D01*
X609600Y513080D01*
X604520Y515620D01*
X599440Y513080D01*
X601472Y515112D02*
X602996Y518160D01*
X601472Y521208D01*
X604520Y519684D01*
X607568Y521208D01*
X606044Y518160D01*
X607568Y515112D01*
X604520Y516636D01*
X601472Y515112D01*
X590550Y528320D02*
X593090Y533400D01*
X590550Y538480D01*
X595630Y535940D01*
X600710Y538480D01*
X598170Y533400D01*
X600710Y528320D01*
X595630Y530860D01*
X590550Y528320D01*
X592582Y530352D02*
X594106Y533400D01*
X592582Y536448D01*
X595630Y534924D01*
X598678Y536448D01*
X597154Y533400D01*
X598678Y530352D01*
X595630Y531876D01*
X592582Y530352D01*
X609600Y528320D02*
X612140Y533400D01*
X609600Y538480D01*
X614680Y535940D01*
X619760Y538480D01*
X617220Y533400D01*
X619760Y528320D01*
X614680Y530860D01*
X609600Y528320D01*
X611632Y530352D02*
X613156Y533400D01*
X611632Y536448D01*
X614680Y534924D01*
X617728Y536448D01*
X616204Y533400D01*
X617728Y530352D01*
X614680Y531876D01*
X611632Y530352D01*
X627380Y527050D02*
X629920Y532130D01*
X627380Y537210D01*
X632460Y534670D01*
X637540Y537210D01*
X635000Y532130D01*
X637540Y527050D01*
X632460Y529590D01*
X627380Y527050D01*
X629412Y529082D02*
X630936Y532130D01*
X629412Y535178D01*
X632460Y533654D01*
X635508Y535178D01*
X633984Y532130D01*
X635508Y529082D01*
X632460Y530606D01*
X629412Y529082D01*
X636270Y511810D02*
X638810Y516890D01*
X636270Y521970D01*
X641350Y519430D01*
X646430Y521970D01*
X643890Y516890D01*
X646430Y511810D01*
X641350Y514350D01*
X636270Y511810D01*
X638302Y513842D02*
X639826Y516890D01*
X638302Y519938D01*
X641350Y518414D01*
X644398Y519938D01*
X642874Y516890D01*
X644398Y513842D01*
X641350Y515366D01*
X638302Y513842D01*
X617220Y511810D02*
X619760Y516890D01*
X617220Y521970D01*
X622300Y519430D01*
X627380Y521970D01*
X624840Y516890D01*
X627380Y511810D01*
X622300Y514350D01*
X617220Y511810D01*
X619252Y513842D02*
X620776Y516890D01*
X619252Y519938D01*
X622300Y518414D01*
X625348Y519938D01*
X623824Y516890D01*
X625348Y513842D01*
X622300Y515366D01*
X619252Y513842D01*
X595630Y384810D02*
X598170Y387350D01*
X600710D01*
X598170Y389890D01*
X600710Y392430D01*
X598170D01*
X595630Y394970D01*
X593090Y392430D01*
X590550D01*
X593090Y389890D01*
X590550Y387350D01*
X593090D01*
X595630Y384810D01*
Y386842D02*
X597154Y388366D01*
X598678D01*
X597154Y389890D01*
X598678Y391414D01*
X597154D01*
X595630Y392938D01*
X594106Y391414D01*
X592582D01*
X594106Y389890D01*
X592582Y388366D01*
X594106D01*
X595630Y386842D01*
X430530Y383540D02*
X433070Y386080D01*
X435610D01*
X433070Y388620D01*
X435610Y391160D01*
X433070D01*
X430530Y393700D01*
X427990Y391160D01*
X425450D01*
X427990Y388620D01*
X425450Y386080D01*
X427990D01*
X430530Y383540D01*
Y385572D02*
X432054Y387096D01*
X433578D01*
X432054Y388620D01*
X433578Y390144D01*
X432054D01*
X430530Y391668D01*
X429006Y390144D01*
X427482D01*
X429006Y388620D01*
X427482Y387096D01*
X429006D01*
X430530Y385572D01*
X883920Y384810D02*
X886460Y387350D01*
X889000D01*
X886460Y389890D01*
X889000Y392430D01*
X886460D01*
X883920Y394970D01*
X881380Y392430D01*
X878840D01*
X881380Y389890D01*
X878840Y387350D01*
X881380D01*
X883920Y384810D01*
Y386842D02*
X885444Y388366D01*
X886968D01*
X885444Y389890D01*
X886968Y391414D01*
X885444D01*
X883920Y392938D01*
X882396Y391414D01*
X880872D01*
X882396Y389890D01*
X880872Y388366D01*
X882396D01*
X883920Y386842D01*
X993140Y384810D02*
X995680Y387350D01*
X998220D01*
X995680Y389890D01*
X998220Y392430D01*
X995680D01*
X993140Y394970D01*
X990600Y392430D01*
X988060D01*
X990600Y389890D01*
X988060Y387350D01*
X990600D01*
X993140Y384810D01*
Y386842D02*
X994664Y388366D01*
X996188D01*
X994664Y389890D01*
X996188Y391414D01*
X994664D01*
X993140Y392938D01*
X991616Y391414D01*
X990092D01*
X991616Y389890D01*
X990092Y388366D01*
X991616D01*
X993140Y386842D01*
X933450Y384810D02*
X935990Y387350D01*
X938530D01*
X935990Y389890D01*
X938530Y392430D01*
X935990D01*
X933450Y394970D01*
X930910Y392430D01*
X928370D01*
X930910Y389890D01*
X928370Y387350D01*
X930910D01*
X933450Y384810D01*
Y386842D02*
X934974Y388366D01*
X936498D01*
X934974Y389890D01*
X936498Y391414D01*
X934974D01*
X933450Y392938D01*
X931926Y391414D01*
X930402D01*
X931926Y389890D01*
X930402Y388366D01*
X931926D01*
X933450Y386842D01*
X821690Y383540D02*
X824230Y386080D01*
X826770D01*
X824230Y388620D01*
X826770Y391160D01*
X824230D01*
X821690Y393700D01*
X819150Y391160D01*
X816610D01*
X819150Y388620D01*
X816610Y386080D01*
X819150D01*
X821690Y383540D01*
Y385572D02*
X823214Y387096D01*
X824738D01*
X823214Y388620D01*
X824738Y390144D01*
X823214D01*
X821690Y391668D01*
X820166Y390144D01*
X818642D01*
X820166Y388620D01*
X818642Y387096D01*
X820166D01*
X821690Y385572D01*
X770890Y383540D02*
X773430Y386080D01*
X775970D01*
X773430Y388620D01*
X775970Y391160D01*
X773430D01*
X770890Y393700D01*
X768350Y391160D01*
X765810D01*
X768350Y388620D01*
X765810Y386080D01*
X768350D01*
X770890Y383540D01*
Y385572D02*
X772414Y387096D01*
X773938D01*
X772414Y388620D01*
X773938Y390144D01*
X772414D01*
X770890Y391668D01*
X769366Y390144D01*
X767842D01*
X769366Y388620D01*
X767842Y387096D01*
X769366D01*
X770890Y385572D01*
X544830Y384810D02*
X547370Y387350D01*
X549910D01*
X547370Y389890D01*
X549910Y392430D01*
X547370D01*
X544830Y394970D01*
X542290Y392430D01*
X539750D01*
X542290Y389890D01*
X539750Y387350D01*
X542290D01*
X544830Y384810D01*
Y386842D02*
X546354Y388366D01*
X547878D01*
X546354Y389890D01*
X547878Y391414D01*
X546354D01*
X544830Y392938D01*
X543306Y391414D01*
X541782D01*
X543306Y389890D01*
X541782Y388366D01*
X543306D01*
X544830Y386842D01*
X481330Y383540D02*
X483870Y386080D01*
X486410D01*
X483870Y388620D01*
X486410Y391160D01*
X483870D01*
X481330Y393700D01*
X478790Y391160D01*
X476250D01*
X478790Y388620D01*
X476250Y386080D01*
X478790D01*
X481330Y383540D01*
Y385572D02*
X482854Y387096D01*
X484378D01*
X482854Y388620D01*
X484378Y390144D01*
X482854D01*
X481330Y391668D01*
X479806Y390144D01*
X478282D01*
X479806Y388620D01*
X478282Y387096D01*
X479806D01*
X481330Y385572D01*
X708660Y383540D02*
X711200Y386080D01*
X713740D01*
X711200Y388620D01*
X713740Y391160D01*
X711200D01*
X708660Y393700D01*
X706120Y391160D01*
X703580D01*
X706120Y388620D01*
X703580Y386080D01*
X706120D01*
X708660Y383540D01*
Y385572D02*
X710184Y387096D01*
X711708D01*
X710184Y388620D01*
X711708Y390144D01*
X710184D01*
X708660Y391668D01*
X707136Y390144D01*
X705612D01*
X707136Y388620D01*
X705612Y387096D01*
X707136D01*
X708660Y385572D01*
X657860Y383540D02*
X660400Y386080D01*
X662940D01*
X660400Y388620D01*
X662940Y391160D01*
X660400D01*
X657860Y393700D01*
X655320Y391160D01*
X652780D01*
X655320Y388620D01*
X652780Y386080D01*
X655320D01*
X657860Y383540D01*
Y385572D02*
X659384Y387096D01*
X660908D01*
X659384Y388620D01*
X660908Y390144D01*
X659384D01*
X657860Y391668D01*
X656336Y390144D01*
X654812D01*
X656336Y388620D01*
X654812Y387096D01*
X656336D01*
X657860Y385572D01*
X229870Y321310D02*
X232410Y326390D01*
X229870Y331470D01*
X234950Y328930D01*
X240030Y331470D01*
X237490Y326390D01*
X240030Y321310D01*
X234950Y323850D01*
X229870Y321310D01*
X231902Y323342D02*
X233426Y326390D01*
X231902Y329438D01*
X234950Y327914D01*
X237998Y329438D01*
X236474Y326390D01*
X237998Y323342D01*
X234950Y324866D01*
X231902Y323342D01*
X248920Y321310D02*
X251460Y326390D01*
X248920Y331470D01*
X254000Y328930D01*
X259080Y331470D01*
X256540Y326390D01*
X259080Y321310D01*
X254000Y323850D01*
X248920Y321310D01*
X250952Y323342D02*
X252476Y326390D01*
X250952Y329438D01*
X254000Y327914D01*
X257048Y329438D01*
X255524Y326390D01*
X257048Y323342D01*
X254000Y324866D01*
X250952Y323342D01*
X240030Y336550D02*
X242570Y341630D01*
X240030Y346710D01*
X245110Y344170D01*
X250190Y346710D01*
X247650Y341630D01*
X250190Y336550D01*
X245110Y339090D01*
X240030Y336550D01*
X242062Y338582D02*
X243586Y341630D01*
X242062Y344678D01*
X245110Y343154D01*
X248158Y344678D01*
X246634Y341630D01*
X248158Y338582D01*
X245110Y340106D01*
X242062Y338582D01*
X308610Y495300D02*
X311150Y500380D01*
X308610Y505460D01*
X313690Y502920D01*
X318770Y505460D01*
X316230Y500380D01*
X318770Y495300D01*
X313690Y497840D01*
X308610Y495300D01*
X310642Y497332D02*
X312166Y500380D01*
X310642Y503428D01*
X313690Y501904D01*
X316738Y503428D01*
X315214Y500380D01*
X316738Y497332D01*
X313690Y498856D01*
X310642Y497332D01*
X308610Y514350D02*
X311150Y519430D01*
X308610Y524510D01*
X313690Y521970D01*
X318770Y524510D01*
X316230Y519430D01*
X318770Y514350D01*
X313690Y516890D01*
X308610Y514350D01*
X310642Y516382D02*
X312166Y519430D01*
X310642Y522478D01*
X313690Y520954D01*
X316738Y522478D01*
X315214Y519430D01*
X316738Y516382D01*
X313690Y517906D01*
X310642Y516382D01*
X293370Y505460D02*
X295910Y510540D01*
X293370Y515620D01*
X298450Y513080D01*
X303530Y515620D01*
X300990Y510540D01*
X303530Y505460D01*
X298450Y508000D01*
X293370Y505460D01*
X295402Y507492D02*
X296926Y510540D01*
X295402Y513588D01*
X298450Y512064D01*
X301498Y513588D01*
X299974Y510540D01*
X301498Y507492D01*
X298450Y509016D01*
X295402Y507492D01*
X276860Y496570D02*
X279400Y501650D01*
X276860Y506730D01*
X281940Y504190D01*
X287020Y506730D01*
X284480Y501650D01*
X287020Y496570D01*
X281940Y499110D01*
X276860Y496570D01*
X278892Y498602D02*
X280416Y501650D01*
X278892Y504698D01*
X281940Y503174D01*
X284988Y504698D01*
X283464Y501650D01*
X284988Y498602D01*
X281940Y500126D01*
X278892Y498602D01*
X276860Y477520D02*
X279400Y482600D01*
X276860Y487680D01*
X281940Y485140D01*
X287020Y487680D01*
X284480Y482600D01*
X287020Y477520D01*
X281940Y480060D01*
X276860Y477520D01*
X278892Y479552D02*
X280416Y482600D01*
X278892Y485648D01*
X281940Y484124D01*
X284988Y485648D01*
X283464Y482600D01*
X284988Y479552D01*
X281940Y481076D01*
X278892Y479552D01*
X292100Y486410D02*
X294640Y491490D01*
X292100Y496570D01*
X297180Y494030D01*
X302260Y496570D01*
X299720Y491490D01*
X302260Y486410D01*
X297180Y488950D01*
X292100Y486410D01*
X294132Y488442D02*
X295656Y491490D01*
X294132Y494538D01*
X297180Y493014D01*
X300228Y494538D01*
X298704Y491490D01*
X300228Y488442D01*
X297180Y489966D01*
X294132Y488442D01*
X104140Y758190D02*
X106680Y763270D01*
X104140Y768350D01*
X109220Y765810D01*
X114300Y768350D01*
X111760Y763270D01*
X114300Y758190D01*
X109220Y760730D01*
X104140Y758190D01*
X106172Y760222D02*
X107696Y763270D01*
X106172Y766318D01*
X109220Y764794D01*
X112268Y766318D01*
X110744Y763270D01*
X112268Y760222D01*
X109220Y761746D01*
X106172Y760222D01*
X91440Y758190D02*
X93980Y763270D01*
X91440Y768350D01*
X96520Y765810D01*
X101600Y768350D01*
X99060Y763270D01*
X101600Y758190D01*
X96520Y760730D01*
X91440Y758190D01*
X93472Y760222D02*
X94996Y763270D01*
X93472Y766318D01*
X96520Y764794D01*
X99568Y766318D01*
X98044Y763270D01*
X99568Y760222D01*
X96520Y761746D01*
X93472Y760222D01*
X78740Y758190D02*
X81280Y763270D01*
X78740Y768350D01*
X83820Y765810D01*
X88900Y768350D01*
X86360Y763270D01*
X88900Y758190D01*
X83820Y760730D01*
X78740Y758190D01*
X80772Y760222D02*
X82296Y763270D01*
X80772Y766318D01*
X83820Y764794D01*
X86868Y766318D01*
X85344Y763270D01*
X86868Y760222D01*
X83820Y761746D01*
X80772Y760222D01*
X104140Y782320D02*
X106680Y787400D01*
X104140Y792480D01*
X109220Y789940D01*
X114300Y792480D01*
X111760Y787400D01*
X114300Y782320D01*
X109220Y784860D01*
X104140Y782320D01*
X106172Y784352D02*
X107696Y787400D01*
X106172Y790448D01*
X109220Y788924D01*
X112268Y790448D01*
X110744Y787400D01*
X112268Y784352D01*
X109220Y785876D01*
X106172Y784352D01*
X91440Y782320D02*
X93980Y787400D01*
X91440Y792480D01*
X96520Y789940D01*
X101600Y792480D01*
X99060Y787400D01*
X101600Y782320D01*
X96520Y784860D01*
X91440Y782320D01*
X93472Y784352D02*
X94996Y787400D01*
X93472Y790448D01*
X96520Y788924D01*
X99568Y790448D01*
X98044Y787400D01*
X99568Y784352D01*
X96520Y785876D01*
X93472Y784352D01*
X78740Y782320D02*
X81280Y787400D01*
X78740Y792480D01*
X83820Y789940D01*
X88900Y792480D01*
X86360Y787400D01*
X88900Y782320D01*
X83820Y784860D01*
X78740Y782320D01*
X80772Y784352D02*
X82296Y787400D01*
X80772Y790448D01*
X83820Y788924D01*
X86868Y790448D01*
X85344Y787400D01*
X86868Y784352D01*
X83820Y785876D01*
X80772Y784352D01*
X104140Y806450D02*
X106680Y811530D01*
X104140Y816610D01*
X109220Y814070D01*
X114300Y816610D01*
X111760Y811530D01*
X114300Y806450D01*
X109220Y808990D01*
X104140Y806450D01*
X106172Y808482D02*
X107696Y811530D01*
X106172Y814578D01*
X109220Y813054D01*
X112268Y814578D01*
X110744Y811530D01*
X112268Y808482D01*
X109220Y810006D01*
X106172Y808482D01*
X91440Y806450D02*
X93980Y811530D01*
X91440Y816610D01*
X96520Y814070D01*
X101600Y816610D01*
X99060Y811530D01*
X101600Y806450D01*
X96520Y808990D01*
X91440Y806450D01*
X93472Y808482D02*
X94996Y811530D01*
X93472Y814578D01*
X96520Y813054D01*
X99568Y814578D01*
X98044Y811530D01*
X99568Y808482D01*
X96520Y810006D01*
X93472Y808482D01*
X78740Y806450D02*
X81280Y811530D01*
X78740Y816610D01*
X83820Y814070D01*
X88900Y816610D01*
X86360Y811530D01*
X88900Y806450D01*
X83820Y808990D01*
X78740Y806450D01*
X80772Y808482D02*
X82296Y811530D01*
X80772Y814578D01*
X83820Y813054D01*
X86868Y814578D01*
X85344Y811530D01*
X86868Y808482D01*
X83820Y810006D01*
X80772Y808482D01*
X493390Y694690D02*
X488310Y704850D01*
X498470D01*
X493390Y694690D01*
Y696722D02*
X490342Y702818D01*
X496438D01*
X493390Y696722D01*
X493710Y728980D02*
X488630Y739140D01*
X498790D01*
X493710Y728980D01*
Y731012D02*
X490662Y737108D01*
X496758D01*
X493710Y731012D01*
X184150Y680720D02*
X186690Y683260D01*
X189230D01*
X186690Y685800D01*
X189230Y688340D01*
X186690D01*
X184150Y690880D01*
X181610Y688340D01*
X179070D01*
X181610Y685800D01*
X179070Y683260D01*
X181610D01*
X184150Y680720D01*
Y682752D02*
X185674Y684276D01*
X187198D01*
X185674Y685800D01*
X187198Y687324D01*
X185674D01*
X184150Y688848D01*
X182626Y687324D01*
X181102D01*
X182626Y685800D01*
X181102Y684276D01*
X182626D01*
X184150Y682752D01*
X167640Y680720D02*
X170180Y683260D01*
X172720D01*
X170180Y685800D01*
X172720Y688340D01*
X170180D01*
X167640Y690880D01*
X165100Y688340D01*
X162560D01*
X165100Y685800D01*
X162560Y683260D01*
X165100D01*
X167640Y680720D01*
Y682752D02*
X169164Y684276D01*
X170688D01*
X169164Y685800D01*
X170688Y687324D01*
X169164D01*
X167640Y688848D01*
X166116Y687324D01*
X164592D01*
X166116Y685800D01*
X164592Y684276D01*
X166116D01*
X167640Y682752D01*
X199390Y680720D02*
X201930Y683260D01*
X204470D01*
X201930Y685800D01*
X204470Y688340D01*
X201930D01*
X199390Y690880D01*
X196850Y688340D01*
X194310D01*
X196850Y685800D01*
X194310Y683260D01*
X196850D01*
X199390Y680720D01*
Y682752D02*
X200914Y684276D01*
X202438D01*
X200914Y685800D01*
X202438Y687324D01*
X200914D01*
X199390Y688848D01*
X197866Y687324D01*
X196342D01*
X197866Y685800D01*
X196342Y684276D01*
X197866D01*
X199390Y682752D01*
X598170Y736600D02*
X600710Y739140D01*
X603250D01*
X600710Y741680D01*
X603250Y744220D01*
X600710D01*
X598170Y746760D01*
X595630Y744220D01*
X593090D01*
X595630Y741680D01*
X593090Y739140D01*
X595630D01*
X598170Y736600D01*
Y738632D02*
X599694Y740156D01*
X601218D01*
X599694Y741680D01*
X601218Y743204D01*
X599694D01*
X598170Y744728D01*
X596646Y743204D01*
X595122D01*
X596646Y741680D01*
X595122Y740156D01*
X596646D01*
X598170Y738632D01*
X148590Y782320D02*
X151130Y787400D01*
X148590Y792480D01*
X153670Y789940D01*
X158750Y792480D01*
X156210Y787400D01*
X158750Y782320D01*
X153670Y784860D01*
X148590Y782320D01*
X150622Y784352D02*
X152146Y787400D01*
X150622Y790448D01*
X153670Y788924D01*
X156718Y790448D01*
X155194Y787400D01*
X156718Y784352D01*
X153670Y785876D01*
X150622Y784352D01*
X109220Y510540D02*
X111760Y513080D01*
X114300D01*
X111760Y515620D01*
X114300Y518160D01*
X111760D01*
X109220Y520700D01*
X106680Y518160D01*
X104140D01*
X106680Y515620D01*
X104140Y513080D01*
X106680D01*
X109220Y510540D01*
Y512572D02*
X110744Y514096D01*
X112268D01*
X110744Y515620D01*
X112268Y517144D01*
X110744D01*
X109220Y518668D01*
X107696Y517144D01*
X106172D01*
X107696Y515620D01*
X106172Y514096D01*
X107696D01*
X109220Y512572D01*
X429260Y693420D02*
X424180Y703580D01*
X434340D01*
X429260Y693420D01*
Y695452D02*
X426212Y701548D01*
X432308D01*
X429260Y695452D01*
X819150Y657860D02*
X814070Y668020D01*
X824230D01*
X819150Y657860D01*
Y659892D02*
X816102Y665988D01*
X822198D01*
X819150Y659892D01*
X359410Y358140D02*
X361950Y360680D01*
X364490D01*
X361950Y363220D01*
X364490Y365760D01*
X361950D01*
X359410Y368300D01*
X356870Y365760D01*
X354330D01*
X356870Y363220D01*
X354330Y360680D01*
X356870D01*
X359410Y358140D01*
Y360172D02*
X360934Y361696D01*
X362458D01*
X360934Y363220D01*
X362458Y364744D01*
X360934D01*
X359410Y366268D01*
X357886Y364744D01*
X356362D01*
X357886Y363220D01*
X356362Y361696D01*
X357886D01*
X359410Y360172D01*
X453390Y717550D02*
X448310Y727710D01*
X458470D01*
X453390Y717550D01*
Y719582D02*
X450342Y725678D01*
X456438D01*
X453390Y719582D01*
X500380Y777240D02*
X502920Y782320D01*
X500380Y787400D01*
X505460Y784860D01*
X510540Y787400D01*
X508000Y782320D01*
X510540Y777240D01*
X505460Y779780D01*
X500380Y777240D01*
X502412Y779272D02*
X503936Y782320D01*
X502412Y785368D01*
X505460Y783844D01*
X508508Y785368D01*
X506984Y782320D01*
X508508Y779272D01*
X505460Y780796D01*
X502412Y779272D01*
X265430Y614680D02*
X267970Y617220D01*
X270510D01*
X267970Y619760D01*
X270510Y622300D01*
X267970D01*
X265430Y624840D01*
X262890Y622300D01*
X260350D01*
X262890Y619760D01*
X260350Y617220D01*
X262890D01*
X265430Y614680D01*
Y616712D02*
X266954Y618236D01*
X268478D01*
X266954Y619760D01*
X268478Y621284D01*
X266954D01*
X265430Y622808D01*
X263906Y621284D01*
X262382D01*
X263906Y619760D01*
X262382Y618236D01*
X263906D01*
X265430Y616712D01*
X135890Y415290D02*
X130810Y425450D01*
X140970D01*
X135890Y415290D01*
Y417322D02*
X132842Y423418D01*
X138938D01*
X135890Y417322D01*
Y492760D02*
X130810Y502920D01*
X140970D01*
X135890Y492760D01*
Y494792D02*
X132842Y500888D01*
X138938D01*
X135890Y494792D01*
X261620Y514350D02*
X264160Y516890D01*
X266700D01*
X264160Y519430D01*
X266700Y521970D01*
X264160D01*
X261620Y524510D01*
X259080Y521970D01*
X256540D01*
X259080Y519430D01*
X256540Y516890D01*
X259080D01*
X261620Y514350D01*
Y516382D02*
X263144Y517906D01*
X264668D01*
X263144Y519430D01*
X264668Y520954D01*
X263144D01*
X261620Y522478D01*
X260096Y520954D01*
X258572D01*
X260096Y519430D01*
X258572Y517906D01*
X260096D01*
X261620Y516382D01*
X359410Y383540D02*
X361950Y386080D01*
X364490D01*
X361950Y388620D01*
X364490Y391160D01*
X361950D01*
X359410Y393700D01*
X356870Y391160D01*
X354330D01*
X356870Y388620D01*
X354330Y386080D01*
X356870D01*
X359410Y383540D01*
Y385572D02*
X360934Y387096D01*
X362458D01*
X360934Y388620D01*
X362458Y390144D01*
X360934D01*
X359410Y391668D01*
X357886Y390144D01*
X356362D01*
X357886Y388620D01*
X356362Y387096D01*
X357886D01*
X359410Y385572D01*
X260350Y384810D02*
X262890Y387350D01*
X265430D01*
X262890Y389890D01*
X265430Y392430D01*
X262890D01*
X260350Y394970D01*
X257810Y392430D01*
X255270D01*
X257810Y389890D01*
X255270Y387350D01*
X257810D01*
X260350Y384810D01*
Y386842D02*
X261874Y388366D01*
X263398D01*
X261874Y389890D01*
X263398Y391414D01*
X261874D01*
X260350Y392938D01*
X258826Y391414D01*
X257302D01*
X258826Y389890D01*
X257302Y388366D01*
X258826D01*
X260350Y386842D01*
X335280Y795020D02*
X337820Y797560D01*
X340360D01*
X337820Y800100D01*
X340360Y802640D01*
X337820D01*
X335280Y805180D01*
X332740Y802640D01*
X330200D01*
X332740Y800100D01*
X330200Y797560D01*
X332740D01*
X335280Y795020D01*
Y797052D02*
X336804Y798576D01*
X338328D01*
X336804Y800100D01*
X338328Y801624D01*
X336804D01*
X335280Y803148D01*
X333756Y801624D01*
X332232D01*
X333756Y800100D01*
X332232Y798576D01*
X333756D01*
X335280Y797052D01*
X336550Y768350D02*
X339090Y770890D01*
X341630D01*
X339090Y773430D01*
X341630Y775970D01*
X339090D01*
X336550Y778510D01*
X334010Y775970D01*
X331470D01*
X334010Y773430D01*
X331470Y770890D01*
X334010D01*
X336550Y768350D01*
Y770382D02*
X338074Y771906D01*
X339598D01*
X338074Y773430D01*
X339598Y774954D01*
X338074D01*
X336550Y776478D01*
X335026Y774954D01*
X333502D01*
X335026Y773430D01*
X333502Y771906D01*
X335026D01*
X336550Y770382D01*
X52070Y525780D02*
X46990Y535940D01*
X57150D01*
X52070Y525780D01*
Y527812D02*
X49022Y533908D01*
X55118D01*
X52070Y527812D01*
X45720Y585470D02*
X48260Y590550D01*
X45720Y595630D01*
X50800Y593090D01*
X55880Y595630D01*
X53340Y590550D01*
X55880Y585470D01*
X50800Y588010D01*
X45720Y585470D01*
X47752Y587502D02*
X49276Y590550D01*
X47752Y593598D01*
X50800Y592074D01*
X53848Y593598D01*
X52324Y590550D01*
X53848Y587502D01*
X50800Y589026D01*
X47752Y587502D01*
X45720Y648970D02*
X48260Y654050D01*
X45720Y659130D01*
X50800Y656590D01*
X55880Y659130D01*
X53340Y654050D01*
X55880Y648970D01*
X50800Y651510D01*
X45720Y648970D01*
X47752Y651002D02*
X49276Y654050D01*
X47752Y657098D01*
X50800Y655574D01*
X53848Y657098D01*
X52324Y654050D01*
X53848Y651002D01*
X50800Y652526D01*
X47752Y651002D01*
D141*
X68378Y579100D02*
G03*
X68378Y579100I-3048J0D01*
G01*
Y665500D02*
G03*
X68378Y665500I-3048J0D01*
G01*
D147*
X421633Y663920D02*
G03*
X421633Y663920I-5080J0D01*
G01*
Y638520D02*
G03*
X421633Y638520I-5080J0D01*
G01*
X396233Y663920D02*
G03*
X396233Y663920I-5080J0D01*
G01*
Y638520D02*
G03*
X396233Y638520I-5080J0D01*
G01*
X70410Y579100D02*
G03*
X70410Y579100I-5080J0D01*
G01*
Y665500D02*
G03*
X70410Y665500I-5080J0D01*
G01*
X411480Y800100D02*
G03*
X411480Y800100I-5080J0D01*
G01*
X436880D02*
G03*
X436880Y800100I-5080J0D01*
G01*
X411480Y774700D02*
G03*
X411480Y774700I-5080J0D01*
G01*
X436880D02*
G03*
X436880Y774700I-5080J0D01*
G01*
M02*
