G04*
G04 #@! TF.GenerationSoftware,Altium Limited,Altium Designer,25.4.2 (15)*
G04*
G04 Layer_Color=32896*
%FSLAX44Y44*%
%MOMM*%
G71*
G04*
G04 #@! TF.SameCoordinates,F65AA522-A63D-4A45-9B44-1D57BAFE5AFF*
G04*
G04*
G04 #@! TF.FilePolarity,Positive*
G04*
G01*
G75*
%ADD13C,0.2540*%
G36*
X263918Y134858D02*
X263227D01*
Y135031D01*
X263918D01*
Y134858D01*
D02*
G37*
G36*
X262018D02*
X261845D01*
Y135031D01*
X262018D01*
Y134858D01*
D02*
G37*
G36*
X241984D02*
X241121D01*
Y135031D01*
X241984D01*
Y134858D01*
D02*
G37*
G36*
X234731Y129332D02*
X234558D01*
Y124323D01*
X234731D01*
Y119487D01*
X231795D01*
Y119660D01*
X231622D01*
Y125705D01*
X231795D01*
Y130368D01*
X231968D01*
Y131577D01*
X231277D01*
Y131404D01*
X231104D01*
Y130713D01*
X230931D01*
Y130022D01*
X230759D01*
Y128986D01*
X230586D01*
Y128123D01*
X230413D01*
Y127259D01*
X230240D01*
Y126396D01*
X230068D01*
Y125705D01*
X229895D01*
Y125014D01*
X229722D01*
Y124323D01*
X229550D01*
Y123460D01*
X229377D01*
Y122769D01*
X229204D01*
Y121905D01*
X229032D01*
Y121214D01*
X228859D01*
Y120351D01*
X228686D01*
Y119833D01*
X228514D01*
Y119660D01*
X228341D01*
Y119487D01*
X223850D01*
Y119660D01*
X223505D01*
Y134513D01*
X225750D01*
Y134340D01*
X226441D01*
Y131059D01*
Y130886D01*
Y127950D01*
X226268D01*
Y124323D01*
X226786D01*
Y124669D01*
X226959D01*
Y124841D01*
X227132D01*
Y125532D01*
X227304D01*
Y126396D01*
X227477D01*
Y127432D01*
X227650D01*
Y128295D01*
X227823D01*
Y129332D01*
X227995D01*
Y130195D01*
X228168D01*
Y130886D01*
X228341D01*
Y131577D01*
X228514D01*
Y132268D01*
X228686D01*
Y132958D01*
X228859D01*
Y133649D01*
X229032D01*
Y134513D01*
X234731D01*
Y129332D01*
D02*
G37*
G36*
X279461Y132268D02*
X279288D01*
Y121733D01*
X279116D01*
Y121214D01*
X278943D01*
Y121042D01*
X278770D01*
Y120869D01*
X278598D01*
Y120524D01*
X278425D01*
Y120351D01*
X278252D01*
Y120178D01*
X277907D01*
Y120006D01*
X277734D01*
Y119833D01*
X277389D01*
Y119660D01*
X277043D01*
Y119487D01*
X276352D01*
Y119315D01*
X275144D01*
Y119142D01*
X273416D01*
Y119315D01*
X272208D01*
Y119487D01*
X271689D01*
Y119660D01*
X271171D01*
Y119833D01*
X270826D01*
Y120006D01*
X270653D01*
Y120178D01*
X270480D01*
Y120351D01*
X270135D01*
Y120696D01*
X269962D01*
Y120869D01*
X269790D01*
Y121214D01*
X269617D01*
Y121560D01*
X269444D01*
Y122423D01*
X269272D01*
Y128468D01*
Y128641D01*
Y133649D01*
X269099D01*
Y134340D01*
X269272D01*
Y134513D01*
X273071D01*
Y134340D01*
X273244D01*
Y132268D01*
X273071D01*
Y128641D01*
X273244D01*
Y122078D01*
X273416D01*
Y121905D01*
X273589D01*
Y121733D01*
X274107D01*
Y121560D01*
X274625D01*
Y121733D01*
X275144D01*
Y121905D01*
X275316D01*
Y122423D01*
X275489D01*
Y134513D01*
X279461D01*
Y132268D01*
D02*
G37*
G36*
X255801Y134340D02*
X256837D01*
Y132958D01*
X256664D01*
Y132440D01*
X254246D01*
Y132268D01*
X253901D01*
Y119487D01*
X249929D01*
Y119660D01*
X249756D01*
Y120869D01*
X249929D01*
Y131749D01*
X249756D01*
Y132268D01*
X249583D01*
Y132440D01*
X248720D01*
Y132268D01*
X247511D01*
Y132440D01*
X247166D01*
Y132786D01*
X246993D01*
Y134340D01*
X247166D01*
Y134513D01*
X255801D01*
Y134340D01*
D02*
G37*
G36*
X264781Y134513D02*
X265818D01*
Y134340D01*
X266163D01*
Y134167D01*
X266508D01*
Y133995D01*
X266854D01*
Y133822D01*
X267026D01*
Y133649D01*
X267199D01*
Y133476D01*
X267372D01*
Y133131D01*
X267544D01*
Y132958D01*
X267717D01*
Y132613D01*
X267890D01*
Y129677D01*
X267717D01*
Y129332D01*
X267544D01*
Y128986D01*
X267372D01*
Y128641D01*
X267199D01*
Y128295D01*
X267026D01*
Y128123D01*
X266854D01*
Y127950D01*
X266681D01*
Y127777D01*
X266508D01*
Y127605D01*
X266336D01*
Y127432D01*
X266163D01*
Y127259D01*
X265818D01*
Y127086D01*
X265645D01*
Y126914D01*
X265472D01*
Y126741D01*
X265127D01*
Y126568D01*
X264954D01*
Y126396D01*
X264608D01*
Y126223D01*
X264436D01*
Y126050D01*
X264090D01*
Y125877D01*
X263918D01*
Y125705D01*
X263745D01*
Y125532D01*
X263400D01*
Y125359D01*
X263227D01*
Y125187D01*
X263054D01*
Y125014D01*
X262882D01*
Y124841D01*
X262709D01*
Y124669D01*
X262536D01*
Y124496D01*
X262363D01*
Y124323D01*
X262191D01*
Y124150D01*
X262018D01*
Y123805D01*
X261845D01*
Y123460D01*
X261673D01*
Y122251D01*
X261845D01*
Y121905D01*
X262191D01*
Y121733D01*
X262536D01*
Y121560D01*
X263227D01*
Y121733D01*
X263745D01*
Y121905D01*
X263918D01*
Y122251D01*
X264090D01*
Y125187D01*
X264436D01*
Y125359D01*
X267717D01*
Y125187D01*
X267890D01*
Y121214D01*
X267717D01*
Y121042D01*
X267544D01*
Y120696D01*
X267372D01*
Y120524D01*
X267199D01*
Y120351D01*
X267026D01*
Y120178D01*
X266681D01*
Y120006D01*
X266508D01*
Y119833D01*
X266163D01*
Y119660D01*
X265645D01*
Y119487D01*
X264781D01*
Y119315D01*
X263572D01*
Y119142D01*
X262191D01*
Y119315D01*
X260982D01*
Y119487D01*
X260291D01*
Y119660D01*
X259773D01*
Y119833D01*
X259427D01*
Y120006D01*
X259082D01*
Y120178D01*
X258909D01*
Y120351D01*
X258737D01*
Y120524D01*
X258564D01*
Y120696D01*
X258391D01*
Y121042D01*
X258218D01*
Y121387D01*
X258046D01*
Y121733D01*
X257873D01*
Y122769D01*
X257700D01*
Y124323D01*
X257873D01*
Y125014D01*
X258046D01*
Y125359D01*
X258218D01*
Y125705D01*
X258391D01*
Y125877D01*
X258564D01*
Y126050D01*
X258737D01*
Y126396D01*
X258909D01*
Y126568D01*
X259082D01*
Y126741D01*
X259255D01*
Y126914D01*
X259427D01*
Y127086D01*
X259600D01*
Y127259D01*
X259773D01*
Y127432D01*
X260118D01*
Y127605D01*
X260291D01*
Y127777D01*
X260464D01*
Y127950D01*
X260809D01*
Y128123D01*
X260982D01*
Y128295D01*
X261327D01*
Y128468D01*
X261500D01*
Y128641D01*
X261673D01*
Y128813D01*
X262018D01*
Y128986D01*
X262191D01*
Y129159D01*
X262536D01*
Y129332D01*
X262709D01*
Y129504D01*
X263054D01*
Y129677D01*
X263227D01*
Y129850D01*
X263400D01*
Y130195D01*
X263572D01*
Y130368D01*
X263745D01*
Y130540D01*
X263918D01*
Y130886D01*
X264090D01*
Y131749D01*
X263918D01*
Y132095D01*
X263745D01*
Y132268D01*
X263572D01*
Y132440D01*
X263227D01*
Y132613D01*
X262536D01*
Y132440D01*
X262191D01*
Y132268D01*
X262018D01*
Y132095D01*
X261845D01*
Y131922D01*
X261673D01*
Y129504D01*
X261500D01*
Y129332D01*
X260982D01*
Y129159D01*
X257873D01*
Y129332D01*
X257700D01*
Y132268D01*
X257873D01*
Y132786D01*
X258046D01*
Y133131D01*
X258218D01*
Y133304D01*
X258391D01*
Y133649D01*
X258564D01*
Y133822D01*
X258737D01*
Y133995D01*
X259082D01*
Y134167D01*
X259255D01*
Y134340D01*
X259773D01*
Y134513D01*
X260982D01*
Y134685D01*
X264781D01*
Y134513D01*
D02*
G37*
G36*
X242848D02*
X243539D01*
Y134340D01*
X244057D01*
Y134167D01*
X244402D01*
Y133995D01*
X244575D01*
Y133822D01*
X244748D01*
Y133649D01*
X244920D01*
Y133476D01*
X245093D01*
Y133304D01*
X245266D01*
Y133131D01*
X245438D01*
Y132786D01*
X245611D01*
Y132440D01*
X245784D01*
Y132095D01*
X245956D01*
Y131059D01*
X246129D01*
Y122942D01*
X245956D01*
Y122078D01*
X245784D01*
Y121560D01*
X245611D01*
Y121214D01*
X245438D01*
Y121042D01*
X245266D01*
Y120696D01*
X245093D01*
Y120524D01*
X244920D01*
Y120351D01*
X244748D01*
Y120178D01*
X244575D01*
Y120006D01*
X244230D01*
Y119833D01*
X243884D01*
Y119660D01*
X243366D01*
Y119487D01*
X242675D01*
Y119315D01*
X241812D01*
Y119142D01*
X240257D01*
Y119315D01*
X239048D01*
Y119487D01*
X238358D01*
Y119660D01*
X237840D01*
Y119833D01*
X237667D01*
Y120006D01*
X237321D01*
Y120178D01*
X237149D01*
Y120351D01*
X236976D01*
Y120524D01*
X236803D01*
Y120696D01*
X236630D01*
Y120869D01*
X236458D01*
Y121214D01*
X236285D01*
Y121560D01*
X236112D01*
Y122251D01*
X235940D01*
Y130540D01*
X236112D01*
Y132613D01*
X236285D01*
Y132958D01*
X236458D01*
Y133304D01*
X236630D01*
Y133476D01*
X236803D01*
Y133649D01*
X236976D01*
Y133822D01*
X237149D01*
Y133995D01*
X237494D01*
Y134167D01*
X237667D01*
Y134340D01*
X238185D01*
Y134513D01*
X239048D01*
Y134685D01*
X242848D01*
Y134513D01*
D02*
G37*
G36*
X239566Y117070D02*
X241466D01*
Y116897D01*
X241812D01*
Y113443D01*
X241466D01*
Y113270D01*
X240948D01*
Y113443D01*
X240603D01*
Y115861D01*
X240430D01*
Y116206D01*
X240085D01*
Y116379D01*
X239394D01*
Y116206D01*
X239221D01*
Y114997D01*
Y114824D01*
Y113443D01*
X238876D01*
Y113270D01*
X238358D01*
Y113443D01*
X238185D01*
Y116033D01*
X238012D01*
Y116379D01*
X237149D01*
Y116206D01*
X236803D01*
Y113961D01*
X236976D01*
Y113615D01*
X236803D01*
Y113443D01*
X236458D01*
Y113270D01*
X235594D01*
Y113961D01*
X235422D01*
Y114306D01*
X235594D01*
Y116379D01*
X235767D01*
Y116551D01*
X235940D01*
Y116724D01*
X236112D01*
Y116897D01*
X236285D01*
Y117070D01*
X236630D01*
Y117242D01*
X237667D01*
Y117070D01*
X238012D01*
Y116897D01*
X238703D01*
Y117070D01*
X239394D01*
Y117242D01*
X239566D01*
Y117070D01*
D02*
G37*
G36*
X276352D02*
X276698D01*
Y116897D01*
X277043D01*
Y116724D01*
X277216D01*
Y116551D01*
X277389D01*
Y116379D01*
X277561D01*
Y116206D01*
X277734D01*
Y115861D01*
X277561D01*
Y115688D01*
X277389D01*
Y115515D01*
X277216D01*
Y115343D01*
X277043D01*
Y115170D01*
X276698D01*
Y114997D01*
X276352D01*
Y114824D01*
X275662D01*
Y114652D01*
X275144D01*
Y113788D01*
X275316D01*
Y113615D01*
X275662D01*
Y113788D01*
X276007D01*
Y113961D01*
X276180D01*
Y114134D01*
X276352D01*
Y114306D01*
X276698D01*
Y114479D01*
X277389D01*
Y114652D01*
X277561D01*
Y114479D01*
X277734D01*
Y113961D01*
X277561D01*
Y113788D01*
X277389D01*
Y113615D01*
X277216D01*
Y113443D01*
X276870D01*
Y113270D01*
X276525D01*
Y113097D01*
X274971D01*
Y113270D01*
X274625D01*
Y113443D01*
X274453D01*
Y113615D01*
X274107D01*
Y113788D01*
X273935D01*
Y113961D01*
X273762D01*
Y114306D01*
X273589D01*
Y114652D01*
X273762D01*
Y114824D01*
X274107D01*
Y114997D01*
X274453D01*
Y115170D01*
X274625D01*
Y115343D01*
X274971D01*
Y115515D01*
X275489D01*
Y115688D01*
X276180D01*
Y115861D01*
X276352D01*
Y116206D01*
X276180D01*
Y116379D01*
X275316D01*
Y116206D01*
X275144D01*
Y116033D01*
X274798D01*
Y115861D01*
X273935D01*
Y116379D01*
X274107D01*
Y116551D01*
X274280D01*
Y116724D01*
X274453D01*
Y116897D01*
X274625D01*
Y117070D01*
X275144D01*
Y117242D01*
X276352D01*
Y117070D01*
D02*
G37*
G36*
X264954Y117242D02*
X265127D01*
Y117070D01*
X265299D01*
Y116897D01*
X265645D01*
Y116551D01*
X265127D01*
Y116379D01*
X264954D01*
Y113788D01*
X264781D01*
Y113615D01*
X264608D01*
Y113443D01*
X264436D01*
Y113270D01*
X263918D01*
Y113097D01*
X263400D01*
Y113270D01*
X263227D01*
Y113961D01*
X263400D01*
Y114134D01*
X263572D01*
Y114306D01*
X263745D01*
Y114479D01*
X263918D01*
Y114824D01*
X264090D01*
Y114997D01*
X263745D01*
Y115688D01*
X263918D01*
Y116033D01*
X263745D01*
Y116206D01*
X263572D01*
Y116379D01*
X263227D01*
Y117070D01*
X263400D01*
Y117242D01*
X263572D01*
Y117415D01*
X263745D01*
Y117588D01*
X263918D01*
Y117760D01*
X264090D01*
Y117933D01*
X264954D01*
Y117242D01*
D02*
G37*
G36*
X225578Y117070D02*
X226096D01*
Y116897D01*
X226268D01*
Y116724D01*
X226614D01*
Y116551D01*
X226786D01*
Y116206D01*
X226959D01*
Y115861D01*
X226786D01*
Y115688D01*
X226614D01*
Y115515D01*
X226441D01*
Y115343D01*
X226268D01*
Y115170D01*
X225923D01*
Y114997D01*
X225578D01*
Y114824D01*
X224887D01*
Y114652D01*
X224369D01*
Y113961D01*
X224196D01*
Y113788D01*
X224023D01*
Y113615D01*
X224541D01*
Y113788D01*
X225059D01*
Y113961D01*
X225405D01*
Y114134D01*
X225578D01*
Y114306D01*
X225923D01*
Y114479D01*
X226441D01*
Y114652D01*
X226786D01*
Y114479D01*
X226959D01*
Y113961D01*
X226786D01*
Y113615D01*
X226441D01*
Y113443D01*
X226268D01*
Y113270D01*
X225750D01*
Y113097D01*
X224196D01*
Y113270D01*
X223850D01*
Y113443D01*
X223505D01*
Y115170D01*
X224023D01*
Y115343D01*
X224196D01*
Y115515D01*
X224714D01*
Y115688D01*
X225405D01*
Y115861D01*
X225750D01*
Y116206D01*
X225578D01*
Y116379D01*
X224369D01*
Y116206D01*
X224196D01*
Y116033D01*
X223850D01*
Y115861D01*
X223678D01*
Y115688D01*
X223505D01*
Y116897D01*
X224023D01*
Y117070D01*
X224369D01*
Y117242D01*
X225578D01*
Y117070D01*
D02*
G37*
G36*
X253037D02*
X253556D01*
Y116897D01*
X253901D01*
Y116724D01*
X254074D01*
Y116551D01*
X254246D01*
Y116379D01*
X254419D01*
Y116206D01*
X254592D01*
Y115861D01*
X254764D01*
Y114306D01*
X254592D01*
Y113961D01*
X254419D01*
Y113788D01*
X254246D01*
Y113615D01*
X253901D01*
Y113443D01*
X253728D01*
Y113270D01*
X253383D01*
Y113097D01*
X252692D01*
Y112925D01*
X252519D01*
Y113097D01*
X251828D01*
Y113270D01*
X251483D01*
Y113443D01*
X251310D01*
Y113615D01*
X251138D01*
Y113788D01*
X250965D01*
Y113961D01*
X250792D01*
Y114306D01*
X250620D01*
Y115688D01*
Y115861D01*
Y116206D01*
X250792D01*
Y116379D01*
X250965D01*
Y116551D01*
X251138D01*
Y116724D01*
X251310D01*
Y116897D01*
X251656D01*
Y117070D01*
X252001D01*
Y117242D01*
X253037D01*
Y117070D01*
D02*
G37*
G36*
X286196Y134858D02*
X286024D01*
Y135031D01*
X286196D01*
Y134858D01*
D02*
G37*
G36*
X285160D02*
X284988D01*
Y135031D01*
X285160D01*
Y134858D01*
D02*
G37*
G36*
X324191Y134340D02*
X331963D01*
Y132268D01*
X331790D01*
Y133476D01*
X331618D01*
Y131404D01*
X331445D01*
Y129504D01*
Y129332D01*
Y129159D01*
X331618D01*
Y130368D01*
X331790D01*
Y131404D01*
X331963D01*
Y120178D01*
X331445D01*
Y120006D01*
X313484D01*
Y120178D01*
X313311D01*
Y120351D01*
X312966D01*
Y120696D01*
X312793D01*
Y120869D01*
X312620D01*
Y121905D01*
X312793D01*
Y122251D01*
X312966D01*
Y122423D01*
X313138D01*
Y122596D01*
X313311D01*
Y122769D01*
X313656D01*
Y122942D01*
X325228D01*
Y123114D01*
X325400D01*
Y123460D01*
X325573D01*
Y129504D01*
X325400D01*
Y129677D01*
X325055D01*
Y129850D01*
X320737D01*
Y134513D01*
X323846D01*
Y134340D01*
X324019D01*
Y134513D01*
X324191D01*
Y134340D01*
D02*
G37*
G36*
X331963Y131577D02*
X331790D01*
Y132095D01*
X331963D01*
Y131577D01*
D02*
G37*
G36*
X318665Y134340D02*
X319010D01*
Y133995D01*
X318838D01*
Y133822D01*
Y133649D01*
Y129677D01*
X318665D01*
Y129504D01*
X305712D01*
Y129677D01*
X305539D01*
Y134340D01*
X305712D01*
Y134513D01*
X318665D01*
Y134340D01*
D02*
G37*
G36*
X302258D02*
X302431D01*
Y119660D01*
X302258D01*
Y119487D01*
X298458D01*
Y119660D01*
X298286D01*
Y126396D01*
X298458D01*
Y126568D01*
X298286D01*
Y126741D01*
X296041D01*
Y119660D01*
X295868D01*
Y119487D01*
X292069D01*
Y122078D01*
X292241D01*
Y132958D01*
X292069D01*
Y134513D01*
X296041D01*
Y129159D01*
X296213D01*
Y128986D01*
X298286D01*
Y134513D01*
X302258D01*
Y134340D01*
D02*
G37*
G36*
X322982Y127605D02*
X323673D01*
Y127432D01*
X324019D01*
Y127259D01*
X324191D01*
Y127086D01*
X324364D01*
Y126914D01*
X324537D01*
Y126741D01*
X324710D01*
Y125877D01*
X324537D01*
Y125532D01*
X324364D01*
Y125359D01*
X324191D01*
Y125187D01*
X324019D01*
Y125014D01*
X323846D01*
Y124841D01*
X323501D01*
Y124669D01*
X311584D01*
Y124496D01*
X311411D01*
Y118279D01*
X311757D01*
Y118106D01*
X313311D01*
Y117933D01*
X313484D01*
Y118106D01*
X313656D01*
Y117933D01*
X316592D01*
Y118106D01*
X318147D01*
Y117933D01*
X318838D01*
Y113615D01*
X318665D01*
Y113443D01*
X305712D01*
Y113615D01*
X305539D01*
Y127432D01*
X305712D01*
Y127605D01*
X306230D01*
Y127777D01*
X308821D01*
Y127605D01*
X308993D01*
Y127777D01*
X309166D01*
Y127605D01*
X309339D01*
Y127777D01*
X322982D01*
Y127605D01*
D02*
G37*
G36*
X287751Y134513D02*
X288442D01*
Y134340D01*
X288960D01*
Y134167D01*
X289132D01*
Y133995D01*
X289478D01*
Y133822D01*
X289651D01*
Y133649D01*
X289823D01*
Y133476D01*
X289996D01*
Y133304D01*
X290169D01*
Y133131D01*
X290341D01*
Y132786D01*
X290514D01*
Y132440D01*
X290687D01*
Y131749D01*
X290860D01*
Y122596D01*
X290687D01*
Y121733D01*
X290514D01*
Y121387D01*
X290341D01*
Y121042D01*
X290169D01*
Y120869D01*
X289996D01*
Y120696D01*
X289823D01*
Y120351D01*
X289478D01*
Y120178D01*
X289305D01*
Y120006D01*
X289132D01*
Y119833D01*
X288787D01*
Y119660D01*
X288269D01*
Y119487D01*
X287578D01*
Y119315D01*
X286542D01*
Y119142D01*
X284815D01*
Y119315D01*
X283779D01*
Y119487D01*
X283088D01*
Y119660D01*
X282743D01*
Y119833D01*
X282397D01*
Y120006D01*
X282052D01*
Y120178D01*
X281879D01*
Y120351D01*
X281706D01*
Y120524D01*
X281534D01*
Y120696D01*
X281361D01*
Y121042D01*
X281188D01*
Y121214D01*
X281015D01*
Y121560D01*
X280843D01*
Y122078D01*
X280670D01*
Y131922D01*
X280843D01*
Y132440D01*
X281015D01*
Y132786D01*
X281188D01*
Y133131D01*
X281361D01*
Y133304D01*
X281534D01*
Y133476D01*
X281706D01*
Y133649D01*
X281879D01*
Y133822D01*
X282052D01*
Y133995D01*
X282224D01*
Y134167D01*
X282570D01*
Y134340D01*
X282915D01*
Y134513D01*
X283779D01*
Y134685D01*
X287751D01*
Y134513D01*
D02*
G37*
G36*
X331790Y117760D02*
X331963D01*
Y116033D01*
X331790D01*
Y117588D01*
X331618D01*
Y114479D01*
X331790D01*
Y114652D01*
X331963D01*
Y113615D01*
X331100D01*
Y113443D01*
X320737D01*
Y117933D01*
X331790D01*
Y117760D01*
D02*
G37*
G36*
X331963Y115688D02*
X331790D01*
Y115861D01*
X331963D01*
Y115688D01*
D02*
G37*
G36*
Y115343D02*
X331790D01*
Y115515D01*
X331963D01*
Y115343D01*
D02*
G37*
G36*
X290169Y116551D02*
X289996D01*
Y116206D01*
X289823D01*
Y115688D01*
X289651D01*
Y115170D01*
X289478D01*
Y114824D01*
X289305D01*
Y114652D01*
X289132D01*
Y114134D01*
X288960D01*
Y113961D01*
X288787D01*
Y113615D01*
X288614D01*
Y113443D01*
X288442D01*
Y113270D01*
X288787D01*
Y113097D01*
X288960D01*
Y112925D01*
X289132D01*
Y112752D01*
X289305D01*
Y112579D01*
X289478D01*
Y112234D01*
X289651D01*
Y111543D01*
X288960D01*
Y111716D01*
X288614D01*
Y111888D01*
X288442D01*
Y112061D01*
X288269D01*
Y112234D01*
X288096D01*
Y112407D01*
X287924D01*
Y112752D01*
X287751D01*
Y113097D01*
X287578D01*
Y113270D01*
X287405D01*
Y113788D01*
X287233D01*
Y114306D01*
X287060D01*
Y114479D01*
X286887D01*
Y114824D01*
X286715D01*
Y115170D01*
X286542D01*
Y115688D01*
X286369D01*
Y116033D01*
X286196D01*
Y116379D01*
X286024D01*
Y116724D01*
X285851D01*
Y116897D01*
X286024D01*
Y117070D01*
X286715D01*
Y116897D01*
X287233D01*
Y116724D01*
X287405D01*
Y115343D01*
Y115170D01*
Y114997D01*
X287578D01*
Y115170D01*
X287751D01*
Y115343D01*
X288442D01*
Y115170D01*
X288614D01*
Y115861D01*
X288787D01*
Y116724D01*
X288960D01*
Y116897D01*
X289132D01*
Y117070D01*
X290169D01*
Y116551D01*
D02*
G37*
G36*
X301049Y117070D02*
X301395D01*
Y116897D01*
X301740D01*
Y116724D01*
X301913D01*
Y116551D01*
X302085D01*
Y116379D01*
X302258D01*
Y116206D01*
X302431D01*
Y116033D01*
X302258D01*
Y115688D01*
X302085D01*
Y115515D01*
X301913D01*
Y115343D01*
X301740D01*
Y115170D01*
X301395D01*
Y114997D01*
X300876D01*
Y114824D01*
X300186D01*
Y114652D01*
X299840D01*
Y113788D01*
X300704D01*
Y113961D01*
X300876D01*
Y114134D01*
X301049D01*
Y114306D01*
X301395D01*
Y114479D01*
X302085D01*
Y114652D01*
X302258D01*
Y114479D01*
X302431D01*
Y113788D01*
X302258D01*
Y113615D01*
X301913D01*
Y113443D01*
X301567D01*
Y113270D01*
X301222D01*
Y113097D01*
X299495D01*
Y113270D01*
X299322D01*
Y113443D01*
X299149D01*
Y113615D01*
X298804D01*
Y113788D01*
X298631D01*
Y113961D01*
X298458D01*
Y114824D01*
X298804D01*
Y114997D01*
X299149D01*
Y115170D01*
X299322D01*
Y115343D01*
X299495D01*
Y115515D01*
X300013D01*
Y115688D01*
X300876D01*
Y115861D01*
X301049D01*
Y116379D01*
X300013D01*
Y116206D01*
X299667D01*
Y116033D01*
X299322D01*
Y115861D01*
X298631D01*
Y116379D01*
X298804D01*
Y116551D01*
X298977D01*
Y116724D01*
X299149D01*
Y116897D01*
X299322D01*
Y117070D01*
X299667D01*
Y117242D01*
X301049D01*
Y117070D01*
D02*
G37*
%LPC*%
G36*
X241294Y132613D02*
X240430D01*
Y132440D01*
X240257D01*
Y132268D01*
X240085D01*
Y132095D01*
X239912D01*
Y131749D01*
X239739D01*
Y128295D01*
Y128123D01*
Y122423D01*
X239912D01*
Y121905D01*
X240085D01*
Y121733D01*
X240603D01*
Y121560D01*
X241121D01*
Y121733D01*
X241812D01*
Y122078D01*
X241984D01*
Y132095D01*
X241812D01*
Y132268D01*
X241639D01*
Y132440D01*
X241294D01*
Y132613D01*
D02*
G37*
G36*
X224023Y113615D02*
X223850D01*
Y113443D01*
X224023D01*
Y113615D01*
D02*
G37*
G36*
X253383Y116379D02*
X252001D01*
Y116206D01*
X251828D01*
Y115688D01*
X253383D01*
Y116379D01*
D02*
G37*
G36*
X253037Y114997D02*
X250965D01*
Y114824D01*
X251138D01*
Y114652D01*
X251483D01*
Y114479D01*
X251656D01*
Y114306D01*
X251828D01*
Y114134D01*
X252174D01*
Y113961D01*
X252519D01*
Y113788D01*
X252865D01*
Y113961D01*
X253210D01*
Y114134D01*
X253383D01*
Y114479D01*
X253556D01*
Y114824D01*
X253037D01*
Y114997D01*
D02*
G37*
G36*
X331618Y128986D02*
X331445D01*
Y128813D01*
X331618D01*
Y128986D01*
D02*
G37*
G36*
Y124669D02*
X331445D01*
Y120696D01*
X331618D01*
Y120869D01*
X331790D01*
Y122942D01*
X331618D01*
Y124669D01*
D02*
G37*
G36*
X286024Y132613D02*
X285506D01*
Y132440D01*
X284988D01*
Y132268D01*
X284815D01*
Y131922D01*
X284642D01*
Y122078D01*
X284815D01*
Y121905D01*
X284988D01*
Y121733D01*
X285333D01*
Y121560D01*
X286024D01*
Y121733D01*
X286542D01*
Y121905D01*
X286715D01*
Y122078D01*
X286887D01*
Y128295D01*
Y128468D01*
Y131749D01*
X286715D01*
Y132095D01*
X286542D01*
Y132268D01*
X286369D01*
Y132440D01*
X286024D01*
Y132613D01*
D02*
G37*
G36*
X287405Y114997D02*
X287233D01*
Y114652D01*
X287405D01*
Y114997D01*
D02*
G37*
%LPD*%
D13*
X996953Y584196D02*
X999492Y586735D01*
X1004571D01*
X1007110Y584196D01*
Y581657D01*
X1004571Y579118D01*
X999492D01*
X996953Y576578D01*
Y574039D01*
X999492Y571500D01*
X1004571D01*
X1007110Y574039D01*
X981718Y584196D02*
X984257Y586735D01*
X989336D01*
X991875Y584196D01*
Y574039D01*
X989336Y571500D01*
X984257D01*
X981718Y574039D01*
X976640Y586735D02*
Y571500D01*
Y576578D01*
X966483Y586735D01*
X974101Y579118D01*
X966483Y571500D01*
X956326D02*
X961405Y576578D01*
Y581657D01*
X956326Y586735D01*
X948709D02*
Y571500D01*
X941091D01*
X938552Y574039D01*
Y584196D01*
X941091Y586735D01*
X948709D01*
X933474Y571500D02*
X928395D01*
X930935D01*
Y586735D01*
X933474Y584196D01*
X920778D02*
X918239Y586735D01*
X913160D01*
X910621Y584196D01*
Y581657D01*
X913160Y579118D01*
X915700D01*
X913160D01*
X910621Y576578D01*
Y574039D01*
X913160Y571500D01*
X918239D01*
X920778Y574039D01*
X905543Y571500D02*
X900464Y576578D01*
Y581657D01*
X905543Y586735D01*
X1004570Y492760D02*
Y507995D01*
X996953D01*
X994413Y505456D01*
Y500378D01*
X996953Y497838D01*
X1004570D01*
X999492D02*
X994413Y492760D01*
X979178Y505456D02*
X981717Y507995D01*
X986796D01*
X989335Y505456D01*
Y502917D01*
X986796Y500378D01*
X981717D01*
X979178Y497838D01*
Y495299D01*
X981717Y492760D01*
X986796D01*
X989335Y495299D01*
X974100Y507995D02*
X963943D01*
X969022D01*
Y492760D01*
X953786D02*
X958865Y497838D01*
Y502917D01*
X953786Y507995D01*
X946169D02*
Y492760D01*
X938551D01*
X936012Y495299D01*
Y505456D01*
X938551Y507995D01*
X946169D01*
X930934Y492760D02*
X925855D01*
X928395D01*
Y507995D01*
X930934Y505456D01*
X918238D02*
X915699Y507995D01*
X910620D01*
X908081Y505456D01*
Y495299D01*
X910620Y492760D01*
X915699D01*
X918238Y495299D01*
Y505456D01*
X903003Y492760D02*
X897924Y497838D01*
Y502917D01*
X903003Y507995D01*
X1004570Y520700D02*
Y535935D01*
X999492Y530857D01*
X994413Y535935D01*
Y520700D01*
X981717Y535935D02*
X986796D01*
X989335Y533396D01*
Y523239D01*
X986796Y520700D01*
X981717D01*
X979178Y523239D01*
Y533396D01*
X981717Y535935D01*
X963943Y533396D02*
X966482Y535935D01*
X971561D01*
X974100Y533396D01*
Y530857D01*
X971561Y528317D01*
X966482D01*
X963943Y525778D01*
Y523239D01*
X966482Y520700D01*
X971561D01*
X974100Y523239D01*
X958865Y535935D02*
X953786D01*
X956326D01*
Y520700D01*
X958865D01*
X953786D01*
X941090D02*
X946169Y525778D01*
Y530857D01*
X941090Y535935D01*
X933473D02*
Y520700D01*
X925855D01*
X923316Y523239D01*
Y533396D01*
X925855Y535935D01*
X933473D01*
X918238Y520700D02*
X913160D01*
X915699D01*
Y535935D01*
X918238Y533396D01*
X905542Y520700D02*
X900464D01*
X903003D01*
Y535935D01*
X905542Y533396D01*
X892846Y520700D02*
X887768Y525778D01*
Y530857D01*
X892846Y535935D01*
X1004570Y546100D02*
Y561335D01*
X999492Y556257D01*
X994413Y561335D01*
Y546100D01*
X989335Y561335D02*
X984257D01*
X986796D01*
Y546100D01*
X989335D01*
X984257D01*
X966482Y558796D02*
X969022Y561335D01*
X974100D01*
X976639Y558796D01*
Y556257D01*
X974100Y553717D01*
X969022D01*
X966482Y551178D01*
Y548639D01*
X969022Y546100D01*
X974100D01*
X976639Y548639D01*
X953786Y561335D02*
X958865D01*
X961404Y558796D01*
Y548639D01*
X958865Y546100D01*
X953786D01*
X951247Y548639D01*
Y558796D01*
X953786Y561335D01*
X941090Y546100D02*
X946169Y551178D01*
Y556257D01*
X941090Y561335D01*
X933473D02*
Y546100D01*
X925855D01*
X923316Y548639D01*
Y558796D01*
X925855Y561335D01*
X933473D01*
X918238Y546100D02*
X913160D01*
X915699D01*
Y561335D01*
X918238Y558796D01*
X895385Y546100D02*
X905542D01*
X895385Y556257D01*
Y558796D01*
X897924Y561335D01*
X903003D01*
X905542Y558796D01*
X890307Y546100D02*
X885229Y551178D01*
Y556257D01*
X890307Y561335D01*
X994413Y633726D02*
X996953Y636265D01*
X1002031D01*
X1004570Y633726D01*
Y623569D01*
X1002031Y621030D01*
X996953D01*
X994413Y623569D01*
Y628647D01*
X999492D01*
X989335Y621030D02*
Y636265D01*
X979178Y621030D01*
Y636265D01*
X974100D02*
Y621030D01*
X966482D01*
X963943Y623569D01*
Y633726D01*
X966482Y636265D01*
X974100D01*
X994413Y610865D02*
X1004570D01*
Y603247D01*
X999492Y605787D01*
X996953D01*
X994413Y603247D01*
Y598169D01*
X996953Y595630D01*
X1002031D01*
X1004570Y598169D01*
X989335Y610865D02*
Y600708D01*
X984257Y595630D01*
X979178Y600708D01*
Y610865D01*
M02*
