G04*
G04 #@! TF.GenerationSoftware,Altium Limited,Altium Designer,25.4.2 (15)*
G04*
G04 Layer_Color=128*
%FSLAX44Y44*%
%MOMM*%
G71*
G04*
G04 #@! TF.SameCoordinates,F65AA522-A63D-4A45-9B44-1D57BAFE5AFF*
G04*
G04*
G04 #@! TF.FilePolarity,Positive*
G04*
G01*
G75*
%ADD17C,0.1270*%
D17*
X762370Y816610D02*
X770870D01*
X766620Y812360D02*
Y820860D01*
X762370Y791210D02*
X770870D01*
X766620Y786960D02*
Y795460D01*
X762370Y664210D02*
X770870D01*
X766620Y659960D02*
Y668460D01*
X762370Y638810D02*
X770870D01*
X766620Y634560D02*
Y643060D01*
X762370Y765810D02*
X770870D01*
X766620Y761560D02*
Y770060D01*
X762370Y740410D02*
X770870D01*
X766620Y736160D02*
Y744660D01*
X762370Y689610D02*
X770870D01*
X766620Y685360D02*
Y693860D01*
X762370Y715010D02*
X770870D01*
X766620Y710760D02*
Y719260D01*
X762370Y613410D02*
X770870D01*
X766620Y609160D02*
Y617660D01*
X762370Y588010D02*
X770870D01*
X766620Y583760D02*
Y592260D01*
X762370Y562610D02*
X770870D01*
X766620Y558360D02*
Y566860D01*
X762370Y537210D02*
X770870D01*
X766620Y532960D02*
Y541460D01*
X762370Y511810D02*
X770870D01*
X766620Y507560D02*
Y516060D01*
X762370Y486410D02*
X770870D01*
X766620Y482160D02*
Y490660D01*
X841570Y486410D02*
X850070D01*
X845820Y482160D02*
Y490660D01*
X841570Y511810D02*
X850070D01*
X845820Y507560D02*
Y516060D01*
X841570Y537210D02*
X850070D01*
X845820Y532960D02*
Y541460D01*
X841570Y562610D02*
X850070D01*
X845820Y558360D02*
Y566860D01*
X841570Y588010D02*
X850070D01*
X845820Y583760D02*
Y592260D01*
X841570Y613410D02*
X850070D01*
X845820Y609160D02*
Y617660D01*
X841570Y638810D02*
X850070D01*
X845820Y634560D02*
Y643060D01*
X841570Y664210D02*
X850070D01*
X845820Y659960D02*
Y668460D01*
X841570Y689610D02*
X850070D01*
X845820Y685360D02*
Y693860D01*
X841570Y715010D02*
X850070D01*
X845820Y710760D02*
Y719260D01*
X841570Y740410D02*
X850070D01*
X845820Y736160D02*
Y744660D01*
X841570Y765810D02*
X850070D01*
X845820Y761560D02*
Y770060D01*
X841570Y791210D02*
X850070D01*
X845820Y786960D02*
Y795460D01*
X841570Y816610D02*
X850070D01*
X845820Y812360D02*
Y820860D01*
X522860Y81280D02*
X538860D01*
X530860Y73280D02*
Y89280D01*
X472060Y81280D02*
X488060D01*
X480060Y73280D02*
Y89280D01*
X421260Y81280D02*
X437260D01*
X429260Y73280D02*
Y89280D01*
X370460Y81280D02*
X386460D01*
X378460Y73280D02*
Y89280D01*
X757810Y81280D02*
X773810D01*
X765810Y73280D02*
Y89280D01*
X707010Y81280D02*
X723010D01*
X715010Y73280D02*
Y89280D01*
X656210Y81280D02*
X672210D01*
X664210Y73280D02*
Y89280D01*
X605410Y81280D02*
X621410D01*
X613410Y73280D02*
Y89280D01*
X840360Y81280D02*
X856360D01*
X848360Y73280D02*
Y89280D01*
X891160Y81280D02*
X907160D01*
X899160Y73280D02*
Y89280D01*
X941960Y81280D02*
X957960D01*
X949960Y73280D02*
Y89280D01*
X992760Y81280D02*
X1008760D01*
X1000760Y73280D02*
Y89280D01*
X1019390Y501650D02*
X1030390D01*
X1024890Y496150D02*
Y507150D01*
X1019390Y527050D02*
X1030390D01*
X1024890Y521550D02*
Y532550D01*
X1019390Y552450D02*
X1030390D01*
X1024890Y546950D02*
Y557950D01*
X1019390Y577850D02*
X1030390D01*
X1024890Y572350D02*
Y583350D01*
X1019390Y603250D02*
X1030390D01*
X1024890Y597750D02*
Y608750D01*
X1019390Y628650D02*
X1030390D01*
X1024890Y623150D02*
Y634150D01*
X97410Y328930D02*
X113410D01*
X105410Y320930D02*
Y336930D01*
X97410Y278130D02*
X113410D01*
X105410Y270130D02*
Y286130D01*
X411454Y663920D02*
X421654D01*
X416553Y658820D02*
Y669020D01*
X411454Y638520D02*
X421654D01*
X416553Y633420D02*
Y643620D01*
X386054Y663920D02*
X396254D01*
X391153Y658820D02*
Y669020D01*
X386054Y638520D02*
X396254D01*
X391153Y633420D02*
Y643620D01*
X540580Y328930D02*
X549080D01*
X544830Y324680D02*
Y333180D01*
X565980Y328930D02*
X574480D01*
X570230Y324680D02*
Y333180D01*
X591380Y328930D02*
X599880D01*
X595630Y324680D02*
Y333180D01*
X616780Y328930D02*
X625280D01*
X621030Y324680D02*
Y333180D01*
X616780Y252730D02*
X625280D01*
X621030Y248480D02*
Y256980D01*
X591380Y252730D02*
X599880D01*
X595630Y248480D02*
Y256980D01*
X565980Y252730D02*
X574480D01*
X570230Y248480D02*
Y256980D01*
X540580Y252730D02*
X549080D01*
X544830Y248480D02*
Y256980D01*
X426280Y252730D02*
X434780D01*
X430530Y248480D02*
Y256980D01*
X451680Y252730D02*
X460180D01*
X455930Y248480D02*
Y256980D01*
X477080Y252730D02*
X485580D01*
X481330Y248480D02*
Y256980D01*
X502480Y252730D02*
X510980D01*
X506730Y248480D02*
Y256980D01*
X502480Y328930D02*
X510980D01*
X506730Y324680D02*
Y333180D01*
X477080Y328930D02*
X485580D01*
X481330Y324680D02*
Y333180D01*
X451680Y328930D02*
X460180D01*
X455930Y324680D02*
Y333180D01*
X426280Y328930D02*
X434780D01*
X430530Y324680D02*
Y333180D01*
X653610Y328930D02*
X662110D01*
X657860Y324680D02*
Y333180D01*
X679010Y328930D02*
X687510D01*
X683260Y324680D02*
Y333180D01*
X704410Y328930D02*
X712910D01*
X708660Y324680D02*
Y333180D01*
X729810Y328930D02*
X738310D01*
X734060Y324680D02*
Y333180D01*
X729810Y252730D02*
X738310D01*
X734060Y248480D02*
Y256980D01*
X704410Y252730D02*
X712910D01*
X708660Y248480D02*
Y256980D01*
X679010Y252730D02*
X687510D01*
X683260Y248480D02*
Y256980D01*
X653610Y252730D02*
X662110D01*
X657860Y248480D02*
Y256980D01*
X48288Y71120D02*
X51788D01*
X50038Y69370D02*
Y72870D01*
X84102Y86360D02*
X87602D01*
X85852Y84610D02*
Y88110D01*
X77752Y71120D02*
X81252D01*
X79502Y69370D02*
Y72870D01*
X48034Y101092D02*
X51534D01*
X49784Y99342D02*
Y102842D01*
X63020Y65278D02*
X66520D01*
X64770Y63528D02*
Y67028D01*
X63020Y107696D02*
X66520D01*
X64770Y105946D02*
Y109446D01*
X46520Y86360D02*
X83020D01*
X64770Y68110D02*
Y104610D01*
X78006Y101092D02*
X81506D01*
X79756Y99342D02*
Y102842D01*
X41938Y86360D02*
X45438D01*
X43688Y84610D02*
Y88110D01*
X976930Y828040D02*
X1014430D01*
X995680Y809290D02*
Y846790D01*
X169740Y47590D02*
X178240D01*
X173990Y43340D02*
Y51840D01*
X169740Y122590D02*
X178240D01*
X173990Y118340D02*
Y126840D01*
X1002330Y207010D02*
X1039830D01*
X1021080Y188260D02*
Y225760D01*
X10460Y701040D02*
X47960D01*
X29210Y682290D02*
Y719790D01*
X487980Y513080D02*
X525480D01*
X506730Y494330D02*
Y531830D01*
X49150Y762000D02*
X65150D01*
X57150Y754000D02*
Y770000D01*
X49150Y812800D02*
X65150D01*
X57150Y804800D02*
Y820800D01*
X509920Y856890D02*
X519820D01*
X514870Y851940D02*
Y861840D01*
X574920Y856890D02*
X584820D01*
X579870Y851940D02*
Y861840D01*
X511420Y811890D02*
X521320D01*
X516370Y806940D02*
Y816840D01*
X574920Y811890D02*
X584820D01*
X579870Y806940D02*
Y816840D01*
X62330Y579100D02*
X68330D01*
X65330Y576100D02*
Y582100D01*
X62330Y665500D02*
X68330D01*
X65330Y662500D02*
Y668500D01*
X22330Y579100D02*
X28330D01*
X25330Y576100D02*
Y582100D01*
X22330Y665500D02*
X28330D01*
X25330Y662500D02*
Y668500D01*
X766640Y328930D02*
X775140D01*
X770890Y324680D02*
Y333180D01*
X792040Y328930D02*
X800540D01*
X796290Y324680D02*
Y333180D01*
X817440Y328930D02*
X825940D01*
X821690Y324680D02*
Y333180D01*
X842840Y328930D02*
X851340D01*
X847090Y324680D02*
Y333180D01*
X842840Y252730D02*
X851340D01*
X847090Y248480D02*
Y256980D01*
X817440Y252730D02*
X825940D01*
X821690Y248480D02*
Y256980D01*
X792040Y252730D02*
X800540D01*
X796290Y248480D02*
Y256980D01*
X766640Y252730D02*
X775140D01*
X770890Y248480D02*
Y256980D01*
X878400Y328930D02*
X886900D01*
X882650Y324680D02*
Y333180D01*
X903800Y328930D02*
X912300D01*
X908050Y324680D02*
Y333180D01*
X929200Y328930D02*
X937700D01*
X933450Y324680D02*
Y333180D01*
X954600Y328930D02*
X963100D01*
X958850Y324680D02*
Y333180D01*
X954600Y252730D02*
X963100D01*
X958850Y248480D02*
Y256980D01*
X929200Y252730D02*
X937700D01*
X933450Y248480D02*
Y256980D01*
X903800Y252730D02*
X912300D01*
X908050Y248480D02*
Y256980D01*
X878400Y252730D02*
X886900D01*
X882650Y248480D02*
Y256980D01*
X989076Y254000D02*
X997204D01*
X993140Y249936D02*
Y258064D01*
X1014476Y254000D02*
X1022604D01*
X1018540Y249936D02*
Y258064D01*
X1014476Y330200D02*
X1022604D01*
X1018540Y326136D02*
Y334264D01*
X989076Y330200D02*
X997204D01*
X993140Y326136D02*
Y334264D01*
X401300Y800100D02*
X411500D01*
X406400Y795000D02*
Y805200D01*
X426700Y800100D02*
X436900D01*
X431800Y795000D02*
Y805200D01*
X401300Y774700D02*
X411500D01*
X406400Y769600D02*
Y779800D01*
X426700Y774700D02*
X436900D01*
X431800Y769600D02*
Y779800D01*
X336380Y427990D02*
X346880D01*
X341630Y422740D02*
Y433240D01*
X311380Y427990D02*
X321880D01*
X316630Y422740D02*
Y433240D01*
X600425Y685800D02*
X603535D01*
X601980Y684245D02*
Y687355D01*
X615665Y685800D02*
X618775D01*
X617220Y684245D02*
Y687355D01*
X885945Y576580D02*
X892055D01*
X889000Y573525D02*
Y579635D01*
X971035Y596900D02*
X977145D01*
X974090Y593845D02*
Y599955D01*
X897605Y501650D02*
X900715D01*
X899160Y500095D02*
Y503205D01*
X929355Y527050D02*
X932465D01*
X930910Y525495D02*
Y528605D01*
X411195Y721360D02*
X414305D01*
X412750Y719805D02*
Y722915D01*
X388335Y721360D02*
X391445D01*
X389890Y719805D02*
Y722915D01*
X366045Y853440D02*
X370555D01*
X368300Y851184D02*
Y855695D01*
X395255Y833120D02*
X399766D01*
X397510Y830864D02*
Y835376D01*
X394685Y601980D02*
X397795D01*
X396240Y600425D02*
Y603535D01*
X411195Y601980D02*
X414305D01*
X412750Y600425D02*
Y603535D01*
X515106Y687845D02*
X519216D01*
X517161Y685790D02*
Y689900D01*
X515155Y734060D02*
X519265D01*
X517210Y732005D02*
Y736115D01*
X602965Y518160D02*
X606075D01*
X604520Y516605D02*
Y519715D01*
X594075Y533400D02*
X597185D01*
X595630Y531845D02*
Y534955D01*
X613125Y533400D02*
X616235D01*
X614680Y531845D02*
Y534955D01*
X630905Y532130D02*
X634015D01*
X632460Y530575D02*
Y533685D01*
X639795Y516890D02*
X642905D01*
X641350Y515335D02*
Y518445D01*
X620745Y516890D02*
X623855D01*
X622300Y515335D02*
Y518445D01*
X592575Y389890D02*
X598685D01*
X595630Y386835D02*
Y392945D01*
X427475Y388620D02*
X433585D01*
X430530Y385565D02*
Y391675D01*
X880865Y389890D02*
X886975D01*
X883920Y386835D02*
Y392945D01*
X990085Y389890D02*
X996195D01*
X993140Y386835D02*
Y392945D01*
X930395Y389890D02*
X936505D01*
X933450Y386835D02*
Y392945D01*
X818635Y388620D02*
X824745D01*
X821690Y385565D02*
Y391675D01*
X767835Y388620D02*
X773945D01*
X770890Y385565D02*
Y391675D01*
X541775Y389890D02*
X547885D01*
X544830Y386835D02*
Y392945D01*
X478275Y388620D02*
X484385D01*
X481330Y385565D02*
Y391675D01*
X705605Y388620D02*
X711715D01*
X708660Y385565D02*
Y391675D01*
X654805Y388620D02*
X660915D01*
X657860Y385565D02*
Y391675D01*
X233395Y326390D02*
X236505D01*
X234950Y324835D02*
Y327945D01*
X252445Y326390D02*
X255555D01*
X254000Y324835D02*
Y327945D01*
X243555Y341630D02*
X246665D01*
X245110Y340075D02*
Y343185D01*
X312135Y500380D02*
X315245D01*
X313690Y498825D02*
Y501935D01*
X312135Y519430D02*
X315245D01*
X313690Y517875D02*
Y520985D01*
X296895Y510540D02*
X300005D01*
X298450Y508985D02*
Y512095D01*
X280385Y501650D02*
X283495D01*
X281940Y500095D02*
Y503205D01*
X280385Y482600D02*
X283495D01*
X281940Y481045D02*
Y484155D01*
X295625Y491490D02*
X298735D01*
X297180Y489935D02*
Y493045D01*
X107665Y763270D02*
X110775D01*
X109220Y761715D02*
Y764825D01*
X94965Y763270D02*
X98075D01*
X96520Y761715D02*
Y764825D01*
X82265Y763270D02*
X85375D01*
X83820Y761715D02*
Y764825D01*
X107665Y787400D02*
X110775D01*
X109220Y785845D02*
Y788955D01*
X94965Y787400D02*
X98075D01*
X96520Y785845D02*
Y788955D01*
X82265Y787400D02*
X85375D01*
X83820Y785845D02*
Y788955D01*
X107665Y811530D02*
X110775D01*
X109220Y809975D02*
Y813085D01*
X94965Y811530D02*
X98075D01*
X96520Y809975D02*
Y813085D01*
X82265Y811530D02*
X85375D01*
X83820Y809975D02*
Y813085D01*
X491335Y699770D02*
X495445D01*
X493390Y697715D02*
Y701825D01*
X491655Y734060D02*
X495765D01*
X493710Y732005D02*
Y736115D01*
X181095Y685800D02*
X187205D01*
X184150Y682745D02*
Y688855D01*
X164585Y685800D02*
X170695D01*
X167640Y682745D02*
Y688855D01*
X196335Y685800D02*
X202445D01*
X199390Y682745D02*
Y688855D01*
X595115Y741680D02*
X601225D01*
X598170Y738625D02*
Y744735D01*
X152115Y787400D02*
X155225D01*
X153670Y785845D02*
Y788955D01*
X106165Y515620D02*
X112275D01*
X109220Y512565D02*
Y518675D01*
X427205Y698500D02*
X431315D01*
X429260Y696445D02*
Y700555D01*
X817095Y662940D02*
X821205D01*
X819150Y660885D02*
Y664995D01*
X356355Y363220D02*
X362465D01*
X359410Y360165D02*
Y366275D01*
X451335Y722630D02*
X455445D01*
X453390Y720575D02*
Y724685D01*
X503905Y782320D02*
X507015D01*
X505460Y780765D02*
Y783875D01*
X262375Y619760D02*
X268485D01*
X265430Y616705D02*
Y622815D01*
X133835Y420370D02*
X137945D01*
X135890Y418315D02*
Y422425D01*
X133835Y497840D02*
X137945D01*
X135890Y495785D02*
Y499895D01*
X258565Y519430D02*
X264675D01*
X261620Y516375D02*
Y522485D01*
X356355Y388620D02*
X362465D01*
X359410Y385565D02*
Y391675D01*
X257295Y389890D02*
X263405D01*
X260350Y386835D02*
Y392945D01*
X332225Y800100D02*
X338335D01*
X335280Y797045D02*
Y803155D01*
X333495Y773430D02*
X339605D01*
X336550Y770375D02*
Y776485D01*
X50015Y530860D02*
X54125D01*
X52070Y528805D02*
Y532915D01*
X49245Y590550D02*
X52355D01*
X50800Y588995D02*
Y592105D01*
X49245Y654050D02*
X52355D01*
X50800Y652495D02*
Y655605D01*
M02*
