G04*
G04 #@! TF.GenerationSoftware,Altium Limited,Altium Designer,25.4.2 (15)*
G04*
G04 Layer_Color=8421504*
%FSLAX44Y44*%
%MOMM*%
G71*
G04*
G04 #@! TF.SameCoordinates,F65AA522-A63D-4A45-9B44-1D57BAFE5AFF*
G04*
G04*
G04 #@! TF.FilePolarity,Positive*
G04*
G01*
G75*
%ADD20R,1.9000X1.7000*%
%ADD21R,1.5500X1.5500*%
%ADD22R,1.7000X1.9000*%
%ADD23R,1.5500X1.5500*%
G04:AMPARAMS|DCode=24|XSize=2.37mm|YSize=1mm|CornerRadius=0.275mm|HoleSize=0mm|Usage=FLASHONLY|Rotation=270.000|XOffset=0mm|YOffset=0mm|HoleType=Round|Shape=RoundedRectangle|*
%AMROUNDEDRECTD24*
21,1,2.3700,0.4500,0,0,270.0*
21,1,1.8200,1.0000,0,0,270.0*
1,1,0.5500,-0.2250,-0.9100*
1,1,0.5500,-0.2250,0.9100*
1,1,0.5500,0.2250,0.9100*
1,1,0.5500,0.2250,-0.9100*
%
%ADD24ROUNDEDRECTD24*%
G04:AMPARAMS|DCode=25|XSize=2.24mm|YSize=1.33mm|CornerRadius=0.3162mm|HoleSize=0mm|Usage=FLASHONLY|Rotation=270.000|XOffset=0mm|YOffset=0mm|HoleType=Round|Shape=RoundedRectangle|*
%AMROUNDEDRECTD25*
21,1,2.2400,0.6975,0,0,270.0*
21,1,1.6075,1.3300,0,0,270.0*
1,1,0.6325,-0.3488,-0.8038*
1,1,0.6325,-0.3488,0.8038*
1,1,0.6325,0.3488,0.8038*
1,1,0.6325,0.3488,-0.8038*
%
%ADD25ROUNDEDRECTD25*%
%ADD26R,1.8000X1.4000*%
%ADD27R,2.4000X5.9000*%
%ADD28R,2.3812X0.9334*%
%ADD29R,1.5500X0.6980*%
%ADD30R,1.5500X0.9900*%
%ADD31R,1.6000X1.8700*%
%ADD32R,1.8700X1.6000*%
%ADD33R,1.9500X2.6000*%
G04:AMPARAMS|DCode=34|XSize=1.26mm|YSize=1.76mm|CornerRadius=0.415mm|HoleSize=0mm|Usage=FLASHONLY|Rotation=0.000|XOffset=0mm|YOffset=0mm|HoleType=Round|Shape=RoundedRectangle|*
%AMROUNDEDRECTD34*
21,1,1.2600,0.9300,0,0,0.0*
21,1,0.4300,1.7600,0,0,0.0*
1,1,0.8300,0.2150,-0.4650*
1,1,0.8300,-0.2150,-0.4650*
1,1,0.8300,-0.2150,0.4650*
1,1,0.8300,0.2150,0.4650*
%
%ADD34ROUNDEDRECTD34*%
G04:AMPARAMS|DCode=35|XSize=2.37mm|YSize=1mm|CornerRadius=0.275mm|HoleSize=0mm|Usage=FLASHONLY|Rotation=180.000|XOffset=0mm|YOffset=0mm|HoleType=Round|Shape=RoundedRectangle|*
%AMROUNDEDRECTD35*
21,1,2.3700,0.4500,0,0,180.0*
21,1,1.8200,1.0000,0,0,180.0*
1,1,0.5500,-0.9100,0.2250*
1,1,0.5500,0.9100,0.2250*
1,1,0.5500,0.9100,-0.2250*
1,1,0.5500,-0.9100,-0.2250*
%
%ADD35ROUNDEDRECTD35*%
G04:AMPARAMS|DCode=36|XSize=1.7mm|YSize=2.2mm|CornerRadius=0.395mm|HoleSize=0mm|Usage=FLASHONLY|Rotation=0.000|XOffset=0mm|YOffset=0mm|HoleType=Round|Shape=RoundedRectangle|*
%AMROUNDEDRECTD36*
21,1,1.7000,1.4100,0,0,0.0*
21,1,0.9100,2.2000,0,0,0.0*
1,1,0.7900,0.4550,-0.7050*
1,1,0.7900,-0.4550,-0.7050*
1,1,0.7900,-0.4550,0.7050*
1,1,0.7900,0.4550,0.7050*
%
%ADD36ROUNDEDRECTD36*%
D20*
X1023620Y440690D02*
D03*
Y459690D02*
D03*
X654050Y612140D02*
D03*
Y631140D02*
D03*
Y589890D02*
D03*
Y570890D02*
D03*
X218440Y523900D02*
D03*
Y542900D02*
D03*
X83820Y415900D02*
D03*
Y396900D02*
D03*
X256540Y306680D02*
D03*
Y287680D02*
D03*
X229870Y306680D02*
D03*
Y287680D02*
D03*
D21*
X999490Y437830D02*
D03*
Y461330D02*
D03*
X430530Y202880D02*
D03*
Y226380D02*
D03*
Y356550D02*
D03*
Y380050D02*
D03*
X544830Y357820D02*
D03*
Y381320D02*
D03*
X481330Y357820D02*
D03*
Y381320D02*
D03*
X595630Y357820D02*
D03*
Y381320D02*
D03*
X657860Y357820D02*
D03*
Y381320D02*
D03*
X482600Y202880D02*
D03*
Y226380D02*
D03*
X546100Y202880D02*
D03*
Y226380D02*
D03*
X596900D02*
D03*
Y202880D02*
D03*
X708660Y357820D02*
D03*
Y381320D02*
D03*
X709930Y226380D02*
D03*
Y202880D02*
D03*
X657860Y226380D02*
D03*
Y202880D02*
D03*
X358140Y810260D02*
D03*
Y833760D02*
D03*
X132080Y96200D02*
D03*
Y119700D02*
D03*
X219710Y751520D02*
D03*
Y775020D02*
D03*
X605790Y461330D02*
D03*
Y437830D02*
D03*
X845820Y461330D02*
D03*
Y437830D02*
D03*
X657860Y461330D02*
D03*
Y437830D02*
D03*
X764540Y461330D02*
D03*
Y437830D02*
D03*
X713740Y461330D02*
D03*
Y437830D02*
D03*
X948690Y461330D02*
D03*
Y437830D02*
D03*
X975360Y461330D02*
D03*
Y437830D02*
D03*
X909320Y461330D02*
D03*
Y437830D02*
D03*
X132080Y775650D02*
D03*
Y799150D02*
D03*
X219710Y799780D02*
D03*
X993140Y359090D02*
D03*
Y382590D02*
D03*
X335280Y833760D02*
D03*
Y810260D02*
D03*
X336550Y741040D02*
D03*
Y764540D02*
D03*
X359410Y741040D02*
D03*
Y764540D02*
D03*
X219710Y823280D02*
D03*
X933450Y382590D02*
D03*
Y359090D02*
D03*
X883920Y382590D02*
D03*
Y359090D02*
D03*
X980440Y225430D02*
D03*
Y201930D02*
D03*
X934720Y202880D02*
D03*
Y226380D02*
D03*
X883920Y202880D02*
D03*
Y226380D02*
D03*
X821690Y382270D02*
D03*
Y358770D02*
D03*
X770890Y382270D02*
D03*
Y358770D02*
D03*
X821690Y226380D02*
D03*
Y202880D02*
D03*
X770890Y226380D02*
D03*
Y202880D02*
D03*
X243840Y520380D02*
D03*
Y543880D02*
D03*
D22*
X911860Y629920D02*
D03*
X930860D02*
D03*
X337210Y854710D02*
D03*
X356210D02*
D03*
X268630Y836930D02*
D03*
X287630D02*
D03*
X930250Y660400D02*
D03*
X911250D02*
D03*
X560120Y741680D02*
D03*
X579120D02*
D03*
X578460Y783590D02*
D03*
X559460D02*
D03*
X262230Y680720D02*
D03*
X243230D02*
D03*
X930860Y605790D02*
D03*
X911860D02*
D03*
X930860Y580390D02*
D03*
X911860D02*
D03*
X282600Y570230D02*
D03*
X301600D02*
D03*
X62890Y542290D02*
D03*
X81890D02*
D03*
X337770Y363220D02*
D03*
X318770D02*
D03*
X337770Y336550D02*
D03*
X318770D02*
D03*
X186030Y431800D02*
D03*
X167030D02*
D03*
D23*
X516890Y699770D02*
D03*
X493390D02*
D03*
X517210Y734060D02*
D03*
X493710D02*
D03*
X580710Y654050D02*
D03*
X557210D02*
D03*
X580710Y675640D02*
D03*
X557210D02*
D03*
X580390Y697230D02*
D03*
X556890D02*
D03*
X580390Y762000D02*
D03*
X556890D02*
D03*
X144150Y678180D02*
D03*
X120650D02*
D03*
X120330Y571500D02*
D03*
X143830D02*
D03*
X120650Y656590D02*
D03*
X144150D02*
D03*
X120330Y593090D02*
D03*
X143830D02*
D03*
X120650Y635000D02*
D03*
X144150D02*
D03*
X120330Y614680D02*
D03*
X143830D02*
D03*
X317180Y387350D02*
D03*
X340680D02*
D03*
X187010Y410210D02*
D03*
X163510D02*
D03*
X187010Y389890D02*
D03*
X163510D02*
D03*
X187010Y473710D02*
D03*
X163510D02*
D03*
Y453390D02*
D03*
X187010D02*
D03*
X379410Y271780D02*
D03*
X402910D02*
D03*
D24*
X303530Y649590D02*
D03*
X290830D02*
D03*
X278130D02*
D03*
X265430D02*
D03*
X252730D02*
D03*
X240030D02*
D03*
X227330D02*
D03*
X214630D02*
D03*
Y600090D02*
D03*
X227330D02*
D03*
X240030D02*
D03*
X252730D02*
D03*
X265430D02*
D03*
X278130D02*
D03*
X290830D02*
D03*
X303530D02*
D03*
D25*
X339230Y298820D02*
D03*
X316230D02*
D03*
X293230D02*
D03*
D26*
X170180Y787400D02*
D03*
X192180Y796900D02*
D03*
Y777900D02*
D03*
X109650Y414630D02*
D03*
Y395630D02*
D03*
X131650Y405130D02*
D03*
D27*
X695960Y648210D02*
D03*
Y553210D02*
D03*
D28*
X252222Y781050D02*
D03*
Y793750D02*
D03*
Y768350D02*
D03*
Y806450D02*
D03*
X301498D02*
D03*
Y793750D02*
D03*
Y781050D02*
D03*
Y768350D02*
D03*
D29*
X71080Y624800D02*
D03*
Y619800D02*
D03*
Y614800D02*
D03*
Y629800D02*
D03*
Y634800D02*
D03*
Y609800D02*
D03*
Y604800D02*
D03*
Y639800D02*
D03*
D30*
Y646300D02*
D03*
Y598300D02*
D03*
Y590300D02*
D03*
Y654300D02*
D03*
D31*
X62230Y519430D02*
D03*
X79430D02*
D03*
D32*
X191770Y543270D02*
D03*
Y526070D02*
D03*
D33*
X189230Y289560D02*
D03*
Y330560D02*
D03*
D34*
X403450Y297180D02*
D03*
X383950D02*
D03*
D35*
X111060Y435610D02*
D03*
Y448310D02*
D03*
Y461010D02*
D03*
Y473710D02*
D03*
X61660D02*
D03*
Y461010D02*
D03*
Y448310D02*
D03*
Y435610D02*
D03*
D36*
X190660Y497840D02*
D03*
X162560D02*
D03*
M02*
