G04*
G04 #@! TF.GenerationSoftware,Altium Limited,Altium Designer,25.4.2 (15)*
G04*
G04 Layer_Color=16711935*
%FSLAX44Y44*%
%MOMM*%
G71*
G04*
G04 #@! TF.SameCoordinates,F65AA522-A63D-4A45-9B44-1D57BAFE5AFF*
G04*
G04*
G04 #@! TF.FilePolarity,Negative*
G04*
G01*
G75*
%ADD54R,1.9440X1.9440*%
%ADD55C,1.9440*%
%ADD56R,2.8040X2.8040*%
%ADD57C,2.8040*%
%ADD58C,3.3040*%
%ADD59C,2.0540*%
%ADD60R,2.0540X2.0540*%
%ADD61R,2.8040X2.8040*%
%ADD62R,1.7740X1.7740*%
%ADD63C,1.7740*%
%ADD64C,1.7540*%
%ADD65R,1.7540X1.7540*%
%ADD66C,0.8540*%
%ADD67C,5.4040*%
%ADD68C,4.1540*%
%ADD69C,2.2040*%
%ADD70R,1.9020X1.9020*%
%ADD71C,1.9020*%
%ADD72O,1.9270X1.1270*%
%ADD73O,2.3270X1.1270*%
%ADD74R,1.7248X1.7248*%
%ADD75C,1.7248*%
%ADD76R,1.7740X1.7740*%
%ADD77R,1.9790X1.9790*%
%ADD78C,1.9790*%
%ADD79C,1.2040*%
%ADD80C,1.4040*%
%ADD81C,1.1040*%
%ADD82C,1.1310*%
%ADD83C,1.6740*%
D54*
X766620Y816610D02*
D03*
D55*
Y791210D02*
D03*
Y664210D02*
D03*
Y638810D02*
D03*
Y765810D02*
D03*
Y740410D02*
D03*
Y689610D02*
D03*
Y715010D02*
D03*
Y613410D02*
D03*
Y588010D02*
D03*
Y562610D02*
D03*
Y537210D02*
D03*
Y511810D02*
D03*
Y486410D02*
D03*
X845820D02*
D03*
Y511810D02*
D03*
Y537210D02*
D03*
Y562610D02*
D03*
Y588010D02*
D03*
Y613410D02*
D03*
Y638810D02*
D03*
Y664210D02*
D03*
Y689610D02*
D03*
Y715010D02*
D03*
Y740410D02*
D03*
Y765810D02*
D03*
Y791210D02*
D03*
Y816610D02*
D03*
D56*
X530860Y81280D02*
D03*
X765810D02*
D03*
D57*
X480060D02*
D03*
X429260D02*
D03*
X715010D02*
D03*
X664210D02*
D03*
X613410D02*
D03*
X848360D02*
D03*
X899160D02*
D03*
X949960D02*
D03*
X1000760D02*
D03*
X105410Y328930D02*
D03*
X57150Y812800D02*
D03*
D58*
X378460Y81280D02*
D03*
D59*
X1024890Y501650D02*
D03*
Y527050D02*
D03*
Y552450D02*
D03*
Y577850D02*
D03*
Y603250D02*
D03*
D60*
Y628650D02*
D03*
D61*
X105410Y278130D02*
D03*
X57150Y762000D02*
D03*
D62*
X416553Y663920D02*
D03*
D63*
Y638520D02*
D03*
X391153Y663920D02*
D03*
Y638520D02*
D03*
X406400Y800100D02*
D03*
X431800D02*
D03*
X406400Y774700D02*
D03*
D64*
X544830Y328930D02*
D03*
X570230D02*
D03*
X595630D02*
D03*
X621030D02*
D03*
Y252730D02*
D03*
X570230D02*
D03*
X455930D02*
D03*
X506730D02*
D03*
Y328930D02*
D03*
X481330D02*
D03*
X455930D02*
D03*
X430530D02*
D03*
X657860D02*
D03*
X683260D02*
D03*
X708660D02*
D03*
X734060D02*
D03*
Y252730D02*
D03*
X683260D02*
D03*
X770890Y328930D02*
D03*
X796290D02*
D03*
X821690D02*
D03*
X847090D02*
D03*
Y252730D02*
D03*
X796290D02*
D03*
X882650Y328930D02*
D03*
X908050D02*
D03*
X933450D02*
D03*
X958850D02*
D03*
Y252730D02*
D03*
X908050D02*
D03*
D65*
X595630D02*
D03*
X544830D02*
D03*
X430530D02*
D03*
X481330D02*
D03*
X708660D02*
D03*
X657860D02*
D03*
X821690D02*
D03*
X770890D02*
D03*
X933450D02*
D03*
X882650D02*
D03*
D66*
X50038Y71120D02*
D03*
X85852Y86360D02*
D03*
X79502Y71120D02*
D03*
X49784Y101092D02*
D03*
X64770Y65278D02*
D03*
Y107696D02*
D03*
X79756Y101092D02*
D03*
X43688Y86360D02*
D03*
D67*
X64770D02*
D03*
D68*
X995680Y828040D02*
D03*
X1021080Y207010D02*
D03*
X29210Y701040D02*
D03*
X506730Y513080D02*
D03*
D69*
X173990Y47590D02*
D03*
Y122590D02*
D03*
D70*
X514870Y856890D02*
D03*
D71*
X579870D02*
D03*
X516370Y811890D02*
D03*
X579870D02*
D03*
D72*
X65330Y579100D02*
D03*
Y665500D02*
D03*
D73*
X25330Y579100D02*
D03*
Y665500D02*
D03*
D74*
X993140Y254000D02*
D03*
D75*
X1018540D02*
D03*
Y330200D02*
D03*
X993140D02*
D03*
D76*
X431800Y774700D02*
D03*
D77*
X341630Y427990D02*
D03*
D78*
X316630D02*
D03*
D79*
X601980Y685800D02*
D03*
X617220D02*
D03*
X368300Y853440D02*
D03*
X397510Y833120D02*
D03*
X604520Y518160D02*
D03*
X595630Y533400D02*
D03*
X614680D02*
D03*
X632460Y532130D02*
D03*
X641350Y516890D02*
D03*
X622300D02*
D03*
X234950Y326390D02*
D03*
X254000D02*
D03*
X245110Y341630D02*
D03*
X313690Y500380D02*
D03*
Y519430D02*
D03*
X298450Y510540D02*
D03*
X281940Y501650D02*
D03*
Y482600D02*
D03*
X297180Y491490D02*
D03*
X109220Y763270D02*
D03*
X96520D02*
D03*
X83820D02*
D03*
X109220Y787400D02*
D03*
X96520D02*
D03*
X83820D02*
D03*
X109220Y811530D02*
D03*
X96520D02*
D03*
X83820D02*
D03*
X153670Y787400D02*
D03*
X505460Y782320D02*
D03*
X135890Y420370D02*
D03*
Y497840D02*
D03*
X52070Y530860D02*
D03*
D80*
X889000Y576580D02*
D03*
X974090Y596900D02*
D03*
D81*
X899160Y501650D02*
D03*
X930910Y527050D02*
D03*
X412750Y721360D02*
D03*
X389890D02*
D03*
X396240Y601980D02*
D03*
X412750D02*
D03*
X819150Y662940D02*
D03*
X50800Y590550D02*
D03*
Y654050D02*
D03*
D82*
X517161Y687845D02*
D03*
X517210Y734060D02*
D03*
X493390Y699770D02*
D03*
X493710Y734060D02*
D03*
X429260Y698500D02*
D03*
X453390Y722630D02*
D03*
D83*
X595630Y389890D02*
D03*
X430530Y388620D02*
D03*
X883920Y389890D02*
D03*
X993140D02*
D03*
X933450D02*
D03*
X821690Y388620D02*
D03*
X770890D02*
D03*
X544830Y389890D02*
D03*
X481330Y388620D02*
D03*
X708660D02*
D03*
X657860D02*
D03*
X184150Y685800D02*
D03*
X167640D02*
D03*
X199390D02*
D03*
X598170Y741680D02*
D03*
X109220Y515620D02*
D03*
X359410Y363220D02*
D03*
X265430Y619760D02*
D03*
X261620Y519430D02*
D03*
X359410Y388620D02*
D03*
X260350Y389890D02*
D03*
X335280Y800100D02*
D03*
X336550Y773430D02*
D03*
M02*
