M48
;Layer_Color=9474304
;FILE_FORMAT=4:4
METRIC,LZ
;TYPE=PLATED
T01F00S00C0.3110
T02F00S00C0.3500
T03F00S00C0.4110
T04F00S00C0.4511
T06F00S00C0.6110
T07F00S00C0.8128
T08F00S00C0.8500
T09F00S00C0.9900
T10F00S00C1.0200
T11F00S00C1.0500
T12F00S00C1.1000
T13F00S00C1.6000
T14F00S00C3.6500
;TYPE=NON_PLATED
T15F00S00C3.7500
%
T01
X0060452Y0051816
X006223Y0051689
X0064135
X0063246Y0053213
X0061468Y005334
X0059563
X0089916Y0050165
X0093091Y0052705
X0031369Y0051943
Y0050038
X0029845Y0051054
X0029718Y0049149
X0028194Y004826
Y0050165
X0024511Y0034163
X00254Y0032639
X0023495
X000508Y0059055
Y0065405
X0008382Y0076327
X0009652
X0010922
Y007874
X0009652
X0008382
Y0081153
X0009652
X0010922
X0015367Y007874
X0038989Y0072136
X0041275
Y0060198
X0039624
X0050546Y0078232
X0060198Y006858
X0061722
T02
X00050038Y0007112
X0006477Y00065278
X00079502Y0007112
X00085852Y0008636
X00079756Y00101092
X0006477Y00107696
X00049784Y00101092
X00043688Y0008636
T03
X0013589Y0042037
Y0049784
X0005207Y0053086
X0042926Y006985
X0045339Y0072263
X0049371Y0073406
X0051721
X00517161Y00687845
X0049339Y0069977
X0081915Y0066294
T04
X003683Y0085344
X0039751Y0083312
T06
X0099314Y0038989
X0093345
X0088392
X0082169Y0038862
X0077089
X0070866
X0065786
X0059563Y0038989
X0054483
X0048133Y0038862
X0043053
X0035941
Y0036322
X0026035Y0038989
X0026162Y0051943
X0010922Y0051562
X0016764Y006858
X0018415
X0019939
X0026543Y0061976
X0033655Y0077343
X0033528Y008001
X0059817Y0074168
X00889Y0057658
X0097409Y005969
T07
X0099314Y00254
X0101854
Y003302
X0099314
T08
X0017399Y0004759
Y0012259
X0095885Y0025273
Y0032893
X0093345
X0090805
X0088265
X0084709
X0082169
X0079629
X0077089
X0073406
X0070866
X0068326
X0065786
X0062103
X0059563
X0057023
X0054483
Y0025273
X0057023
X0059563
X0062103
X0065786
X0068326
X0070866
X0073406
X0077089
X0079629
X0082169
X0084709
X0088265
X0090805
X0093345
X0084582Y0048641
Y0051181
Y0053721
X0076662
Y0051181
Y0048641
X0050673Y0032893
X0048133
X0045593
X0043053
Y0025273
X0045593
X0048133
X0050673
X0076662Y0056261
Y0058801
Y0061341
Y0063881
Y0066421
Y0068961
Y0071501
Y0074041
Y0076581
Y0079121
Y0081661
X0084582
Y0079121
Y0076581
Y0074041
Y0071501
Y0068961
Y0066421
Y0063881
Y0061341
Y0058801
Y0056261
T09
X0051637Y0081189
X0051487Y0085689
X0057987
Y0081189
T10
X00391153Y0063852
X00416553
Y0066392
X00391153
X004064Y007747
Y008001
X004318
Y007747
T11
X0031663Y0042799
X0034163
T12
X0102489Y0050165
Y0052705
Y0055245
Y0057785
Y0060325
Y0062865
T13
X0037846Y0008128
X0042926
X0048006
X0053086
X0061341
X0066421
X0071501
X0076581
X0084836
X0089916
X0094996
X0100076
X0010541Y0027813
Y0032893
X0005715Y00762
Y008128
T14
X0006477Y0008636
T15
X0102108Y0020701
X0050673Y0051308
X0002921Y0070104
X0099568Y0082804
M30
