G04*
G04 #@! TF.GenerationSoftware,Altium Limited,Altium Designer,25.4.2 (15)*
G04*
G04 Layer_Physical_Order=1*
G04 Layer_Color=255*
%FSLAX44Y44*%
%MOMM*%
G71*
G04*
G04 #@! TF.SameCoordinates,F65AA522-A63D-4A45-9B44-1D57BAFE5AFF*
G04*
G04*
G04 #@! TF.FilePolarity,Positive*
G04*
G01*
G75*
%ADD10C,0.5400*%
%ADD12C,0.2000*%
%ADD15C,0.3000*%
%ADD84R,1.5000X1.3000*%
%ADD85R,1.1500X1.1500*%
%ADD86R,1.3000X1.5000*%
%ADD87R,1.1500X1.1500*%
G04:AMPARAMS|DCode=88|XSize=1.97mm|YSize=0.6mm|CornerRadius=0.075mm|HoleSize=0mm|Usage=FLASHONLY|Rotation=270.000|XOffset=0mm|YOffset=0mm|HoleType=Round|Shape=RoundedRectangle|*
%AMROUNDEDRECTD88*
21,1,1.9700,0.4500,0,0,270.0*
21,1,1.8200,0.6000,0,0,270.0*
1,1,0.1500,-0.2250,-0.9100*
1,1,0.1500,-0.2250,0.9100*
1,1,0.1500,0.2250,0.9100*
1,1,0.1500,0.2250,-0.9100*
%
%ADD88ROUNDEDRECTD88*%
G04:AMPARAMS|DCode=89|XSize=1.84mm|YSize=0.93mm|CornerRadius=0.1163mm|HoleSize=0mm|Usage=FLASHONLY|Rotation=270.000|XOffset=0mm|YOffset=0mm|HoleType=Round|Shape=RoundedRectangle|*
%AMROUNDEDRECTD89*
21,1,1.8400,0.6975,0,0,270.0*
21,1,1.6075,0.9300,0,0,270.0*
1,1,0.2325,-0.3488,-0.8038*
1,1,0.2325,-0.3488,0.8038*
1,1,0.2325,0.3488,0.8038*
1,1,0.2325,0.3488,-0.8038*
%
%ADD89ROUNDEDRECTD89*%
%ADD90R,1.4000X1.0000*%
%ADD91R,2.0000X5.5000*%
%ADD92R,1.9812X0.5334*%
%ADD93R,1.1500X0.2980*%
%ADD94R,1.1500X0.5900*%
%ADD95R,1.2000X1.4700*%
%ADD96R,1.4700X1.2000*%
%ADD97R,1.5500X2.2000*%
G04:AMPARAMS|DCode=98|XSize=0.86mm|YSize=1.36mm|CornerRadius=0.215mm|HoleSize=0mm|Usage=FLASHONLY|Rotation=0.000|XOffset=0mm|YOffset=0mm|HoleType=Round|Shape=RoundedRectangle|*
%AMROUNDEDRECTD98*
21,1,0.8600,0.9300,0,0,0.0*
21,1,0.4300,1.3600,0,0,0.0*
1,1,0.4300,0.2150,-0.4650*
1,1,0.4300,-0.2150,-0.4650*
1,1,0.4300,-0.2150,0.4650*
1,1,0.4300,0.2150,0.4650*
%
%ADD98ROUNDEDRECTD98*%
G04:AMPARAMS|DCode=99|XSize=1.97mm|YSize=0.6mm|CornerRadius=0.075mm|HoleSize=0mm|Usage=FLASHONLY|Rotation=180.000|XOffset=0mm|YOffset=0mm|HoleType=Round|Shape=RoundedRectangle|*
%AMROUNDEDRECTD99*
21,1,1.9700,0.4500,0,0,180.0*
21,1,1.8200,0.6000,0,0,180.0*
1,1,0.1500,-0.9100,0.2250*
1,1,0.1500,0.9100,0.2250*
1,1,0.1500,0.9100,-0.2250*
1,1,0.1500,-0.9100,-0.2250*
%
%ADD99ROUNDEDRECTD99*%
G04:AMPARAMS|DCode=100|XSize=1.3mm|YSize=1.8mm|CornerRadius=0.195mm|HoleSize=0mm|Usage=FLASHONLY|Rotation=0.000|XOffset=0mm|YOffset=0mm|HoleType=Round|Shape=RoundedRectangle|*
%AMROUNDEDRECTD100*
21,1,1.3000,1.4100,0,0,0.0*
21,1,0.9100,1.8000,0,0,0.0*
1,1,0.3900,0.4550,-0.7050*
1,1,0.3900,-0.4550,-0.7050*
1,1,0.3900,-0.4550,0.7050*
1,1,0.3900,0.4550,0.7050*
%
%ADD100ROUNDEDRECTD100*%
%ADD101C,2.0000*%
%ADD102C,1.0000*%
%ADD103C,1.5400*%
%ADD104C,0.4000*%
%ADD105C,0.5500*%
%ADD106C,0.7500*%
%ADD107C,0.7300*%
%ADD108C,0.7400*%
%ADD109C,0.2772*%
%ADD110R,1.5400X1.5400*%
%ADD111C,1.5400*%
%ADD112R,2.4000X2.4000*%
%ADD113C,2.4000*%
%ADD114C,2.9000*%
%ADD115C,1.6500*%
%ADD116R,1.6500X1.6500*%
%ADD117R,2.4000X2.4000*%
%ADD118R,1.3700X1.3700*%
%ADD119C,1.3700*%
%ADD120C,1.3500*%
%ADD121R,1.3500X1.3500*%
%ADD122C,0.4500*%
%ADD123C,5.0000*%
%ADD124C,3.7500*%
%ADD125C,1.8000*%
%ADD126R,1.4980X1.4980*%
%ADD127C,1.4980*%
%ADD128O,1.8000X1.0000*%
%ADD129O,2.2000X1.0000*%
%ADD130R,1.3208X1.3208*%
%ADD131C,1.3208*%
%ADD132R,1.3700X1.3700*%
%ADD133R,1.5750X1.5750*%
%ADD134C,1.5750*%
%ADD135C,0.8000*%
%ADD136C,1.0000*%
%ADD137C,0.7000*%
%ADD138C,0.7270*%
%ADD139C,1.2700*%
G36*
X1031726Y866991D02*
X1036058Y865676D01*
X1040051Y863542D01*
X1043550Y860670D01*
X1046422Y857171D01*
X1048556Y853178D01*
X1049870Y848846D01*
X1050287Y844619D01*
X1050231Y844340D01*
X1050231Y316171D01*
X1031240Y297180D01*
X424180D01*
X406400Y314960D01*
Y414020D01*
X431800Y439420D01*
Y607060D01*
X473710Y648970D01*
Y706571D01*
X485100D01*
Y691480D01*
X501680D01*
Y706571D01*
X508600D01*
Y691480D01*
X509818D01*
X509818Y691479D01*
X517161D01*
Y682845D01*
X513428D01*
X513663Y682610D01*
X515933Y681670D01*
X518389D01*
X519237Y682021D01*
X520370Y680326D01*
X445802Y605758D01*
X444644Y604025D01*
X444237Y601980D01*
X444237Y601980D01*
Y365433D01*
X440820Y362016D01*
X438820Y362190D01*
Y364840D01*
X422240D01*
Y348260D01*
X424117D01*
Y335655D01*
X423096Y334634D01*
X421873Y332516D01*
X421240Y330153D01*
Y327707D01*
X421873Y325344D01*
X423096Y323226D01*
X424826Y321496D01*
X426944Y320273D01*
X429307Y319640D01*
X431753D01*
X434116Y320273D01*
X436234Y321496D01*
X437964Y323226D01*
X439187Y325344D01*
X439820Y327707D01*
Y330153D01*
X439187Y332516D01*
X437964Y334634D01*
X436943Y335655D01*
Y348260D01*
X438820D01*
Y351207D01*
X442910D01*
X442910Y351207D01*
X444955Y351614D01*
X446688Y352772D01*
X453358Y359442D01*
X453358Y359442D01*
X454516Y361175D01*
X454923Y363220D01*
X454923Y363220D01*
Y599767D01*
X545773Y690617D01*
X548600D01*
Y688940D01*
X565180D01*
Y704571D01*
X565180Y705520D01*
X566745Y706571D01*
X570535D01*
X572100Y705520D01*
X572100Y704571D01*
Y688940D01*
X588680D01*
Y691887D01*
X632460D01*
X632460Y691887D01*
X633438Y692082D01*
X634423Y690239D01*
X623897Y679713D01*
X589000D01*
Y683930D01*
X572420D01*
Y667350D01*
X589000D01*
Y669027D01*
X625623D01*
X626339Y667851D01*
X626492Y667067D01*
X617547Y658123D01*
X589000D01*
Y662340D01*
X572420D01*
Y645760D01*
X589000D01*
Y647437D01*
X619760D01*
X619760Y647437D01*
X621805Y647844D01*
X623538Y649002D01*
X670233Y695697D01*
X752977D01*
X756662Y692012D01*
X756380Y690958D01*
Y688262D01*
X757078Y685658D01*
X758426Y683323D01*
X760332Y681416D01*
X762667Y680068D01*
X765272Y679370D01*
X767968D01*
X770573Y680068D01*
X772907Y681416D01*
X774814Y683323D01*
X776162Y685658D01*
X776860Y688262D01*
Y690958D01*
X776162Y693562D01*
X774814Y695898D01*
X772907Y697804D01*
X770573Y699152D01*
X767968Y699850D01*
X765272D01*
X764218Y699568D01*
X759607Y704179D01*
X759570Y704349D01*
X760003Y706210D01*
X760138Y706392D01*
X760835Y706526D01*
X762667Y705468D01*
X765272Y704770D01*
X767968D01*
X770573Y705468D01*
X772907Y706816D01*
X774814Y708723D01*
X776162Y711058D01*
X776860Y713662D01*
Y716358D01*
X776162Y718962D01*
X774814Y721298D01*
X772907Y723204D01*
X770573Y724552D01*
X767968Y725250D01*
X765272D01*
X762667Y724552D01*
X760332Y723204D01*
X758426Y721298D01*
X757078Y718962D01*
X756783Y717862D01*
X756710Y717813D01*
X664210D01*
X663232Y717618D01*
X662247Y719461D01*
X666423Y723637D01*
X755190D01*
X755190Y723637D01*
X757235Y724044D01*
X758968Y725202D01*
X764218Y730452D01*
X765272Y730170D01*
X767968D01*
X770573Y730868D01*
X772907Y732216D01*
X774814Y734122D01*
X776162Y736458D01*
X776860Y739062D01*
Y741758D01*
X776162Y744362D01*
X774814Y746697D01*
X772907Y748604D01*
X770573Y749952D01*
X767968Y750650D01*
X765272D01*
X762667Y749952D01*
X760332Y748604D01*
X758426Y746697D01*
X757078Y744362D01*
X756380Y741758D01*
Y739062D01*
X756662Y738008D01*
X752977Y734323D01*
X664210D01*
X664210Y734323D01*
X662166Y733916D01*
X660432Y732758D01*
X630247Y702573D01*
X590094D01*
X588973Y703694D01*
X589110Y705809D01*
X590245Y706571D01*
X621030D01*
X621030Y706571D01*
X622801Y706923D01*
X624303Y707927D01*
X654783Y738407D01*
X654783Y738407D01*
X655787Y739909D01*
X656139Y741680D01*
Y755003D01*
X662317Y761181D01*
X757468D01*
X758426Y759522D01*
X760332Y757616D01*
X762667Y756268D01*
X765272Y755570D01*
X767968D01*
X770573Y756268D01*
X772907Y757616D01*
X774814Y759522D01*
X776162Y761858D01*
X776860Y764462D01*
Y767158D01*
X776162Y769762D01*
X774814Y772097D01*
X772907Y774004D01*
X770573Y775352D01*
X767968Y776050D01*
X765272D01*
X762667Y775352D01*
X760332Y774004D01*
X758426Y772097D01*
X757468Y770439D01*
X660400D01*
X660400Y770439D01*
X658629Y770087D01*
X657127Y769083D01*
X657127Y769083D01*
X648237Y760193D01*
X647233Y758691D01*
X646881Y756920D01*
X646881Y756920D01*
Y743597D01*
X619113Y715829D01*
X473710D01*
Y718001D01*
X615950D01*
X615950Y718001D01*
X617721Y718353D01*
X619223Y719357D01*
X642083Y742217D01*
X642083Y742217D01*
X643087Y743719D01*
X643439Y745490D01*
Y776593D01*
X653427Y786581D01*
X757468D01*
X758426Y784922D01*
X760332Y783016D01*
X762667Y781668D01*
X765272Y780970D01*
X767968D01*
X770573Y781668D01*
X772907Y783016D01*
X774814Y784922D01*
X776162Y787258D01*
X776860Y789862D01*
Y792558D01*
X776162Y795163D01*
X774814Y797497D01*
X772907Y799404D01*
X770573Y800752D01*
X767968Y801450D01*
X765272D01*
X762667Y800752D01*
X760332Y799404D01*
X758426Y797497D01*
X757468Y795839D01*
X651510D01*
X651510Y795839D01*
X649739Y795487D01*
X648237Y794483D01*
X648237Y794483D01*
X635537Y781783D01*
X634533Y780281D01*
X634181Y778510D01*
X634181Y778510D01*
Y747407D01*
X614033Y727259D01*
X525500D01*
Y742350D01*
X508920D01*
Y727259D01*
X502000D01*
Y742350D01*
X485420D01*
Y727259D01*
X473710D01*
Y828491D01*
X486592D01*
X487357Y826643D01*
X486947Y826233D01*
X485943Y824731D01*
X485591Y822960D01*
X485591Y822960D01*
Y769620D01*
X485591Y769620D01*
X485943Y767849D01*
X486947Y766347D01*
X495837Y757457D01*
X495837Y757457D01*
X497339Y756453D01*
X499110Y756101D01*
X499110Y756101D01*
X548600D01*
Y753710D01*
X551056D01*
X551080Y751720D01*
X551080D01*
Y743397D01*
X550991Y742950D01*
X551080Y742503D01*
Y731640D01*
X568080D01*
X569160Y731640D01*
X571160Y731640D01*
X574120D01*
Y741680D01*
X584120D01*
Y731640D01*
X588160D01*
Y736337D01*
X590989D01*
X591056Y736221D01*
X592711Y734566D01*
X593170Y734302D01*
Y741680D01*
Y749059D01*
X592711Y748794D01*
X591056Y747139D01*
X590989Y747023D01*
X588160D01*
Y751710D01*
X588160Y751720D01*
X588184Y753710D01*
X588680D01*
Y770290D01*
X584509D01*
Y773550D01*
X587500D01*
Y793630D01*
X583989D01*
Y802686D01*
X586029Y803864D01*
X587896Y805731D01*
X589216Y808019D01*
X589734Y809951D01*
X756380Y809951D01*
Y806370D01*
X776860D01*
Y826491D01*
X776860Y826850D01*
X777727Y828491D01*
X788023D01*
X798011Y818503D01*
Y670070D01*
X796011Y669001D01*
X795795Y669146D01*
X793750Y669553D01*
X793750Y669553D01*
X775359D01*
X774814Y670498D01*
X772907Y672404D01*
X770573Y673752D01*
X767968Y674450D01*
X765272D01*
X762667Y673752D01*
X760332Y672404D01*
X758426Y670498D01*
X757078Y668163D01*
X756380Y665558D01*
Y662862D01*
X757078Y660257D01*
X758426Y657923D01*
X760332Y656016D01*
X762667Y654668D01*
X765272Y653970D01*
X767968D01*
X770573Y654668D01*
X772907Y656016D01*
X774814Y657923D01*
X775359Y658867D01*
X791537D01*
X797297Y653107D01*
Y624840D01*
X797297Y624840D01*
X797704Y622795D01*
X798862Y621062D01*
X810292Y609632D01*
X810292Y609632D01*
X812026Y608474D01*
X814070Y608067D01*
X814070Y608067D01*
X837081D01*
X837626Y607122D01*
X839532Y605216D01*
X841868Y603868D01*
X844472Y603170D01*
X847168D01*
X849772Y603868D01*
X852107Y605216D01*
X854014Y607122D01*
X854559Y608067D01*
X881380D01*
X881380Y608067D01*
X883425Y608474D01*
X885158Y609632D01*
X900103Y624577D01*
X902820D01*
Y619880D01*
X906517D01*
Y615830D01*
X902820D01*
Y595750D01*
X906517D01*
Y590430D01*
X902820D01*
Y581923D01*
X894321D01*
X893630Y582613D01*
X891910Y583606D01*
X889993Y584120D01*
X888007D01*
X886090Y583606D01*
X884370Y582613D01*
X882967Y581210D01*
X881974Y579490D01*
X881460Y577573D01*
Y575587D01*
X881974Y573670D01*
X882967Y571950D01*
X884370Y570546D01*
X885399Y569953D01*
X884863Y567953D01*
X854559D01*
X854014Y568898D01*
X852107Y570804D01*
X849772Y572152D01*
X847168Y572850D01*
X844472D01*
X841868Y572152D01*
X839532Y570804D01*
X837626Y568898D01*
X836278Y566562D01*
X835580Y563958D01*
Y561262D01*
X836278Y558657D01*
X837626Y556323D01*
X839532Y554416D01*
X841868Y553068D01*
X844472Y552370D01*
X847168D01*
X849772Y553068D01*
X852107Y554416D01*
X854014Y556323D01*
X854559Y557267D01*
X933777D01*
X970017Y521027D01*
Y469620D01*
X967070D01*
Y453040D01*
X983650D01*
Y469620D01*
X980703D01*
Y523240D01*
X980703Y523240D01*
X980296Y525285D01*
X979138Y527018D01*
X950736Y555420D01*
X951501Y557267D01*
X1009715D01*
X1014100Y552882D01*
Y551030D01*
X1014835Y548285D01*
X1016256Y545825D01*
X1018265Y543816D01*
X1020725Y542395D01*
X1023469Y541660D01*
X1026311D01*
X1029055Y542395D01*
X1031515Y543816D01*
X1033524Y545825D01*
X1034945Y548285D01*
X1035680Y551030D01*
Y553871D01*
X1034945Y556615D01*
X1033524Y559075D01*
X1031515Y561084D01*
X1029055Y562505D01*
X1026311Y563240D01*
X1023469D01*
X1020725Y562505D01*
X1020005Y562089D01*
X1015705Y566388D01*
X1013972Y567546D01*
X1011928Y567953D01*
X1011927Y567953D01*
X935990D01*
X935990Y567953D01*
X935990Y567953D01*
X893137D01*
X892601Y569953D01*
X893630Y570546D01*
X894321Y571237D01*
X902820D01*
Y570350D01*
X919820D01*
X920900Y570350D01*
X922900Y570350D01*
X925860D01*
Y580390D01*
Y590430D01*
X922900D01*
X921820Y590430D01*
X919820Y590430D01*
X917203D01*
Y594336D01*
X918617Y595750D01*
X920900Y595750D01*
X922900Y595750D01*
X925860D01*
Y605790D01*
Y615830D01*
X922900D01*
X921820Y615830D01*
X919820Y615830D01*
X917203D01*
Y618466D01*
X918617Y619880D01*
X920900Y619880D01*
X922900Y619880D01*
X925860D01*
Y629920D01*
Y639960D01*
X922900D01*
X921820Y639960D01*
X919820Y639960D01*
X902820D01*
Y635263D01*
X897890D01*
X897890Y635263D01*
X895845Y634856D01*
X894112Y633698D01*
X894112Y633698D01*
X879167Y618753D01*
X854559D01*
X854014Y619697D01*
X852107Y621604D01*
X849772Y622952D01*
X847168Y623650D01*
X844472D01*
X841868Y622952D01*
X839532Y621604D01*
X837626Y619697D01*
X837081Y618753D01*
X816283D01*
X807983Y627053D01*
Y655320D01*
X807983Y655320D01*
X807576Y657365D01*
X807269Y657824D01*
Y820420D01*
X807269Y820420D01*
X806917Y822191D01*
X805913Y823693D01*
X805913Y823693D01*
X794172Y835434D01*
X794785Y837650D01*
X795256Y837768D01*
X814521Y818503D01*
Y666853D01*
X814029Y666361D01*
X813110Y664141D01*
Y661739D01*
X814029Y659519D01*
X815729Y657820D01*
X817949Y656900D01*
X820351D01*
X822571Y657820D01*
X824270Y659519D01*
X825190Y661739D01*
Y664141D01*
X824270Y666361D01*
X823779Y666853D01*
Y820420D01*
X823427Y822191D01*
X822423Y823693D01*
X822423Y823693D01*
X799563Y846553D01*
X798061Y847557D01*
X796290Y847909D01*
X796290Y847909D01*
X587902D01*
X587074Y849909D01*
X587896Y850731D01*
X588565Y851890D01*
X571175D01*
X571844Y850731D01*
X572667Y849909D01*
X571838Y847909D01*
X524900D01*
Y851890D01*
X504840D01*
Y847909D01*
X473710D01*
Y867351D01*
X503019D01*
X504840Y865351D01*
Y861890D01*
X524900D01*
Y866920D01*
X526721Y867351D01*
X573929Y867351D01*
X574465Y865351D01*
X573712Y864916D01*
X571844Y863049D01*
X571175Y861890D01*
X588565D01*
X587896Y863049D01*
X586029Y864916D01*
X585275Y865351D01*
X585811Y867351D01*
X1027220Y867351D01*
X1027499Y867407D01*
X1031726Y866991D01*
D02*
G37*
G36*
X375920Y857322D02*
X373920Y856786D01*
X373533Y857456D01*
X372316Y858673D01*
X370824Y859534D01*
X369161Y859980D01*
X367439D01*
X367250Y859929D01*
X365250Y861460D01*
Y864750D01*
X348250D01*
X347170Y864750D01*
X345170Y864750D01*
X342210D01*
Y854710D01*
Y844670D01*
X345170D01*
X346250Y844670D01*
X348250Y844670D01*
X353511D01*
Y842050D01*
X349850D01*
Y839103D01*
X343570D01*
Y842050D01*
X326990D01*
Y839103D01*
X296670D01*
Y846970D01*
X279670D01*
X278590Y846970D01*
Y846970D01*
X277670D01*
Y846970D01*
X273630D01*
Y836930D01*
X268630D01*
Y831930D01*
X259590D01*
Y827353D01*
X228000D01*
Y831570D01*
X211420D01*
Y814990D01*
X228000D01*
Y816667D01*
X269247D01*
X271517Y814397D01*
Y766396D01*
X269670Y765631D01*
X264668Y770633D01*
Y773557D01*
X260077D01*
X259395Y773693D01*
X259395Y773693D01*
X252222D01*
X251540Y773557D01*
X239776D01*
Y763143D01*
X251540D01*
X252222Y763007D01*
X257182D01*
X273082Y747107D01*
X273082Y747107D01*
X282927Y737262D01*
X282927Y737262D01*
X284660Y736104D01*
X286705Y735697D01*
X328260D01*
Y732750D01*
X344840D01*
Y735697D01*
X351120D01*
Y732750D01*
X367700D01*
Y749330D01*
X351120D01*
Y746383D01*
X344840D01*
Y749330D01*
X328260D01*
Y746383D01*
X288918D01*
X282203Y753098D01*
Y816610D01*
X282203Y816610D01*
X282203Y816610D01*
Y818207D01*
X290886Y826890D01*
X296670D01*
Y828417D01*
X326990D01*
Y825470D01*
X343570D01*
Y828417D01*
X349850D01*
Y825470D01*
X363975D01*
X364804Y823470D01*
X359884Y818550D01*
X349850D01*
Y801970D01*
X354781D01*
Y795667D01*
X351143Y792029D01*
X342610D01*
X341781Y794029D01*
X342394Y794641D01*
X343564Y796669D01*
X344170Y798930D01*
Y801270D01*
X343570Y803510D01*
Y818550D01*
X326990D01*
Y815603D01*
X311900D01*
X309856Y815196D01*
X308122Y814038D01*
X308122Y814038D01*
X305877Y811793D01*
X301498D01*
X300816Y811657D01*
X289052D01*
Y801243D01*
X300816D01*
X301498Y801107D01*
X308671D01*
X308671Y801107D01*
X309353Y801243D01*
X313944D01*
Y804748D01*
X314113Y804917D01*
X325741D01*
X326831Y802917D01*
X326390Y801270D01*
Y798930D01*
X326996Y796669D01*
X328166Y794641D01*
X328779Y794029D01*
X327950Y792029D01*
X313944D01*
Y798957D01*
X289052D01*
Y788543D01*
X296869D01*
Y786257D01*
X289052D01*
Y775843D01*
X313944D01*
Y782771D01*
X330949D01*
X331485Y780771D01*
X331091Y780544D01*
X329436Y778889D01*
X328266Y776861D01*
X327660Y774600D01*
Y772260D01*
X327761Y771883D01*
X326226Y769883D01*
X314113D01*
X313944Y770052D01*
Y773557D01*
X309353D01*
X308671Y773693D01*
X308671Y773693D01*
X301498D01*
X300816Y773557D01*
X289052D01*
Y763143D01*
X300816D01*
X301498Y763007D01*
X305877D01*
X308122Y760762D01*
X308122Y760762D01*
X309856Y759604D01*
X311900Y759197D01*
X328260D01*
Y756250D01*
X344840D01*
Y770020D01*
X345440Y772260D01*
Y774600D01*
X344834Y776861D01*
X343664Y778889D01*
X342009Y780544D01*
X341615Y780771D01*
X342151Y782771D01*
X351143D01*
X354781Y779133D01*
Y772830D01*
X351120D01*
Y756250D01*
X367700D01*
Y772830D01*
X364039D01*
Y781050D01*
X363687Y782821D01*
X362683Y784323D01*
X362683Y784323D01*
X359606Y787400D01*
X362683Y790477D01*
X362683Y790477D01*
X363687Y791979D01*
X364039Y793750D01*
Y801970D01*
X366430D01*
Y812004D01*
X374072Y819646D01*
X375920Y818880D01*
X375920Y721360D01*
X38853D01*
X38100Y721672D01*
Y867351D01*
X375920Y867351D01*
Y857322D01*
D02*
G37*
G36*
Y849558D02*
X375920Y834586D01*
X368430Y827096D01*
X366430Y827925D01*
Y842050D01*
X362769D01*
Y844670D01*
X365250D01*
Y845420D01*
X367250Y846951D01*
X367439Y846900D01*
X369161D01*
X370824Y847346D01*
X372316Y848207D01*
X373533Y849424D01*
X373920Y850094D01*
X375920Y849558D01*
D02*
G37*
G36*
X756380Y826850D02*
X756380Y826491D01*
Y818189D01*
X587755Y818189D01*
X586029Y819916D01*
X583741Y821236D01*
X581190Y821920D01*
X578549D01*
X575999Y821236D01*
X573712Y819916D01*
X571844Y818049D01*
X570667Y816009D01*
X525574D01*
X524396Y818049D01*
X522529Y819916D01*
X520242Y821236D01*
X517691Y821920D01*
X515050D01*
X512499Y821236D01*
X510211Y819916D01*
X508344Y818049D01*
X507024Y815761D01*
X506340Y813211D01*
Y810570D01*
X507024Y808019D01*
X508344Y805731D01*
X510211Y803864D01*
X512499Y802543D01*
X515050Y801860D01*
X517691D01*
X520242Y802543D01*
X522529Y803864D01*
X524396Y805731D01*
X525574Y807771D01*
X570667D01*
X571844Y805731D01*
X573712Y803864D01*
X575751Y802686D01*
Y793630D01*
X570500D01*
X569420Y793630D01*
X567420Y793630D01*
X550420D01*
Y787584D01*
X509423D01*
X507984Y788414D01*
X506321Y788860D01*
X504599D01*
X502936Y788414D01*
X501444Y787553D01*
X500227Y786336D01*
X499366Y784844D01*
X498920Y783181D01*
Y781459D01*
X499366Y779796D01*
X500227Y778304D01*
X501444Y777087D01*
X502936Y776226D01*
X504599Y775780D01*
X506321D01*
X507984Y776226D01*
X509476Y777087D01*
X510693Y778304D01*
X510706Y778326D01*
X550420D01*
Y773550D01*
X567420D01*
X568500Y773550D01*
X570500Y773550D01*
X576271D01*
Y770290D01*
X572100D01*
Y753720D01*
X572100Y753710D01*
X572076Y751720D01*
X570080Y751720D01*
X568080Y751720D01*
X565204D01*
X565180Y753710D01*
X565180D01*
Y770290D01*
X548600D01*
Y765359D01*
X501027D01*
X494849Y771537D01*
Y821043D01*
X502297Y828491D01*
X755514D01*
X756380Y826850D01*
D02*
G37*
G36*
X548600Y705520D02*
X548600Y704571D01*
Y701303D01*
X543560D01*
X543560Y701303D01*
X541516Y700896D01*
X539782Y699738D01*
X539782Y699738D01*
X524680Y684636D01*
X522985Y685769D01*
X523336Y686617D01*
Y689073D01*
X523167Y689480D01*
X524504Y691480D01*
X525180D01*
Y706571D01*
X547035D01*
X548600Y705520D01*
D02*
G37*
G36*
X283706Y700462D02*
X274857Y691613D01*
X273853Y690111D01*
X273501Y688340D01*
X273501Y688340D01*
Y661914D01*
X271863Y661283D01*
X271303Y661362D01*
X270773Y661948D01*
Y670680D01*
X271270D01*
Y690760D01*
X254270D01*
X253190Y690760D01*
X251190Y690760D01*
X248230D01*
Y680720D01*
Y670680D01*
X251190D01*
X252270Y670680D01*
X254270Y670680D01*
X260087D01*
Y660451D01*
X258087Y660010D01*
X258050Y660017D01*
X257352Y661062D01*
X256264Y661789D01*
X254980Y662044D01*
X250480D01*
X249196Y661789D01*
X248108Y661062D01*
X247410Y660017D01*
X247159Y659974D01*
X245601D01*
X245350Y660017D01*
X244652Y661062D01*
X243564Y661789D01*
X242280Y662044D01*
X237780D01*
X236496Y661789D01*
X235408Y661062D01*
X234710Y660017D01*
X234459Y659974D01*
X232901D01*
X232650Y660017D01*
X231952Y661062D01*
X230864Y661789D01*
X229580Y662044D01*
X225080D01*
X223796Y661789D01*
X222708Y661062D01*
X222010Y660017D01*
X221759Y659974D01*
X220201D01*
X219950Y660017D01*
X219252Y661062D01*
X218164Y661789D01*
X216880Y662044D01*
X212380D01*
X211096Y661789D01*
X210008Y661062D01*
X209281Y659974D01*
X209025Y658690D01*
Y640490D01*
X209281Y639206D01*
X210008Y638118D01*
X211096Y637391D01*
X212380Y637136D01*
X216880D01*
X218164Y637391D01*
X219252Y638118D01*
X219950Y639163D01*
X220201Y639206D01*
X221759D01*
X222010Y639163D01*
X222708Y638118D01*
X223796Y637391D01*
X225080Y637136D01*
X229580D01*
X230864Y637391D01*
X231952Y638118D01*
X232650Y639163D01*
X232901Y639206D01*
X234459D01*
X234710Y639163D01*
X235408Y638118D01*
X236232Y637568D01*
X236616Y636522D01*
X236786Y635294D01*
X232290Y630797D01*
X152485D01*
X152440Y631022D01*
Y643290D01*
X137160D01*
Y648300D01*
X139150D01*
Y656590D01*
Y664880D01*
X137160D01*
Y669890D01*
X139150D01*
Y678180D01*
Y686470D01*
X137160D01*
Y702310D01*
X282941D01*
X283706Y700462D01*
D02*
G37*
G36*
X302604Y700310D02*
X287557Y685263D01*
X286553Y683761D01*
X286201Y681990D01*
X286201Y681990D01*
Y661051D01*
X285995Y660743D01*
X283736Y660571D01*
X282759Y661583D01*
Y686423D01*
X298646Y702310D01*
X301775D01*
X302604Y700310D01*
D02*
G37*
G36*
X322580Y441960D02*
X361950D01*
X391160Y412750D01*
Y306299D01*
X390373Y305789D01*
X389160Y305426D01*
X388950Y305566D01*
Y297180D01*
Y288794D01*
X389160Y288934D01*
X390373Y288571D01*
X391160Y288061D01*
Y251460D01*
X345440D01*
X333330Y263570D01*
X334095Y265418D01*
X371120D01*
Y263490D01*
X387700D01*
Y280070D01*
X371120D01*
Y278142D01*
X328930D01*
Y314960D01*
X322843Y321047D01*
Y325096D01*
X324257Y326510D01*
X327810Y326510D01*
X329810Y326510D01*
X332770D01*
Y336550D01*
Y346590D01*
X329810D01*
X328730Y346590D01*
X326730Y346590D01*
X324113D01*
Y351766D01*
X325527Y353180D01*
X327810Y353180D01*
X329810Y353180D01*
X332770D01*
Y363220D01*
Y373260D01*
X329810D01*
X328730Y373260D01*
X326730Y373260D01*
X323318D01*
Y379060D01*
X325470D01*
Y395640D01*
X322248D01*
Y419207D01*
X323025Y419656D01*
X324964Y421595D01*
X326335Y423970D01*
X327045Y426619D01*
Y429361D01*
X326335Y432010D01*
X324964Y434385D01*
X323025Y436324D01*
X320650Y437695D01*
X318001Y438405D01*
X315259D01*
X312610Y437695D01*
X310235Y436324D01*
X308296Y434385D01*
X306925Y432010D01*
X306215Y429361D01*
Y426619D01*
X306925Y423970D01*
X308296Y421595D01*
X310235Y419656D01*
X311562Y418890D01*
Y395640D01*
X308890D01*
Y379060D01*
X312632D01*
Y373260D01*
X309730D01*
Y353180D01*
X313427D01*
Y346590D01*
X309730D01*
Y336773D01*
X307882Y336008D01*
X288302Y355588D01*
Y438150D01*
X288302Y438150D01*
X287818Y440585D01*
X286439Y442649D01*
X286439Y442649D01*
X271199Y457889D01*
X269135Y459268D01*
X266700Y459752D01*
X266700Y459752D01*
X195300D01*
Y461680D01*
X178720D01*
Y445100D01*
X195300D01*
Y447028D01*
X264065D01*
X275578Y435515D01*
Y370925D01*
X273730Y370160D01*
X264105Y379785D01*
X264625Y382093D01*
X265809Y382776D01*
X267464Y384431D01*
X268634Y386459D01*
X269240Y388720D01*
Y391060D01*
X268634Y393321D01*
X267464Y395349D01*
X265809Y397004D01*
X263781Y398174D01*
X261520Y398780D01*
X259180D01*
X256919Y398174D01*
X254891Y397004D01*
X253236Y395349D01*
X253169Y395233D01*
X195300D01*
Y398180D01*
X178720D01*
Y392430D01*
X171800D01*
Y398180D01*
X168853D01*
Y401920D01*
X171800D01*
Y418500D01*
X170613D01*
Y421760D01*
X176070Y421760D01*
X178070Y421760D01*
X181030D01*
Y431800D01*
Y441840D01*
X178070D01*
X176990Y441840D01*
X174990Y441840D01*
X157990D01*
Y437143D01*
X152073D01*
X137128Y452088D01*
X135394Y453246D01*
X133350Y453653D01*
X133350Y453653D01*
X124226D01*
X123403Y455653D01*
X123418Y455667D01*
X137487D01*
X146082Y447072D01*
X146082Y447072D01*
X147815Y445914D01*
X149860Y445507D01*
X155220D01*
Y445100D01*
X171800D01*
Y461680D01*
X168853D01*
Y465420D01*
X171800D01*
Y482000D01*
X155220D01*
Y465420D01*
X158167D01*
Y461680D01*
X155220D01*
Y456193D01*
X152073D01*
X143478Y464788D01*
X141744Y465946D01*
X139700Y466353D01*
X139700Y466353D01*
X121921D01*
X121481Y468353D01*
X121487Y468390D01*
X121966Y468710D01*
X111060D01*
X100154D01*
X100633Y468390D01*
X100676Y468139D01*
Y466581D01*
X100633Y466330D01*
X99588Y465632D01*
X98861Y464544D01*
X98605Y463260D01*
Y458760D01*
X98861Y457476D01*
X99588Y456388D01*
X100633Y455690D01*
X100676Y455439D01*
Y453881D01*
X100633Y453630D01*
X99588Y452932D01*
X98861Y451844D01*
X98605Y450560D01*
Y446060D01*
X98861Y444776D01*
X99588Y443688D01*
X100633Y442990D01*
X100676Y442739D01*
Y441181D01*
X100633Y440930D01*
X99588Y440232D01*
X98861Y439144D01*
X98605Y437860D01*
Y433360D01*
X98861Y432076D01*
X99588Y430988D01*
X100676Y430261D01*
X101960Y430005D01*
X104307D01*
Y422170D01*
X100110D01*
Y407090D01*
X119190D01*
Y422170D01*
X114993D01*
Y430005D01*
X120160D01*
X121444Y430261D01*
X122532Y430988D01*
X123259Y432076D01*
X123514Y433360D01*
Y437860D01*
X123259Y439144D01*
X122532Y440232D01*
X122832Y442437D01*
X123418Y442967D01*
X131137D01*
X146082Y428022D01*
X146082Y428022D01*
X147816Y426864D01*
X149860Y426457D01*
X149860Y426457D01*
X157990D01*
Y421760D01*
X159927D01*
Y418500D01*
X155220D01*
Y401920D01*
X158167D01*
Y398180D01*
X155220D01*
Y392430D01*
X122406D01*
X119190Y395646D01*
Y403170D01*
X100110D01*
Y401608D01*
X95274D01*
X93860Y403022D01*
X93860Y405940D01*
X93860Y407940D01*
Y410900D01*
X83820D01*
X73780D01*
Y407940D01*
X73780Y406860D01*
X73780Y403964D01*
X71780Y403136D01*
X66303Y408613D01*
Y430005D01*
X70760D01*
X72044Y430261D01*
X73132Y430988D01*
X73859Y432076D01*
X74114Y433360D01*
Y437860D01*
X73859Y439144D01*
X73132Y440232D01*
X72087Y440930D01*
X72044Y441181D01*
Y442739D01*
X72087Y442990D01*
X73132Y443688D01*
X73859Y444776D01*
X74114Y446060D01*
Y450560D01*
X73859Y451844D01*
X73132Y452932D01*
X72087Y453630D01*
X72044Y453881D01*
Y455439D01*
X72087Y455690D01*
X73132Y456388D01*
X73859Y457476D01*
X74114Y458760D01*
Y463260D01*
X73859Y464544D01*
X73132Y465632D01*
X72087Y466330D01*
X72044Y466581D01*
Y468139D01*
X72087Y468390D01*
X73132Y469088D01*
X73859Y470176D01*
X74114Y471460D01*
Y475960D01*
X73859Y477244D01*
X73132Y478332D01*
X72044Y479059D01*
X70760Y479314D01*
X52560D01*
X51276Y479059D01*
X50188Y478332D01*
X49461Y477244D01*
X49205Y475960D01*
Y471460D01*
X49461Y470176D01*
X50188Y469088D01*
X51233Y468390D01*
X51276Y468139D01*
Y466581D01*
X51233Y466330D01*
X50188Y465632D01*
X49461Y464544D01*
X49205Y463260D01*
Y458760D01*
X49461Y457476D01*
X50188Y456388D01*
X51233Y455690D01*
X51276Y455439D01*
Y453881D01*
X51233Y453630D01*
X50188Y452932D01*
X49461Y451844D01*
X49205Y450560D01*
Y446060D01*
X49461Y444776D01*
X50188Y443688D01*
X51233Y442990D01*
X51276Y442739D01*
Y441181D01*
X51233Y440930D01*
X50188Y440232D01*
X49461Y439144D01*
X49205Y437860D01*
Y433360D01*
X49461Y432076D01*
X50188Y430988D01*
X51276Y430261D01*
X52560Y430005D01*
X55617D01*
Y406400D01*
X55617Y406400D01*
X56024Y404356D01*
X57182Y402622D01*
X65374Y394430D01*
X64546Y392430D01*
X43180D01*
Y486410D01*
X99060D01*
Y510780D01*
X99334Y510962D01*
X102004Y510338D01*
X102106Y510161D01*
X103761Y508506D01*
X104220Y508242D01*
Y515620D01*
Y523848D01*
X99060D01*
Y540201D01*
X103493D01*
X116897Y526797D01*
X116897Y526797D01*
X118399Y525793D01*
X120170Y525441D01*
X181880D01*
Y517530D01*
X185872D01*
Y509421D01*
X184358Y509119D01*
X182873Y508127D01*
X181881Y506642D01*
X181532Y504890D01*
Y490790D01*
X181881Y489038D01*
X182873Y487553D01*
X184358Y486561D01*
X186110Y486212D01*
X195210D01*
X196962Y486561D01*
X198447Y487553D01*
X199440Y489038D01*
X199788Y490790D01*
Y504890D01*
X199440Y506642D01*
X198447Y508127D01*
X196962Y509119D01*
X196558Y509200D01*
Y517530D01*
X201660D01*
Y532730D01*
X201660Y534610D01*
X201660Y536328D01*
X203074Y537742D01*
X206986D01*
X208400Y536328D01*
X208400Y533860D01*
X208400Y531860D01*
Y528900D01*
X218440D01*
X228480D01*
Y531860D01*
X228480Y532940D01*
X228480Y534940D01*
Y538047D01*
X235550D01*
Y535590D01*
X252130D01*
Y552170D01*
X235550D01*
Y548733D01*
X228480D01*
Y551940D01*
X208400D01*
Y548428D01*
X201660D01*
Y551810D01*
X181880D01*
X181880Y534730D01*
X179893Y534699D01*
X122087D01*
X108683Y548103D01*
X107181Y549107D01*
X105410Y549459D01*
X105410Y549459D01*
X99060D01*
Y553720D01*
X135890D01*
X137160Y554990D01*
Y563210D01*
X138830D01*
Y571500D01*
Y579790D01*
X137160D01*
Y584800D01*
X138830D01*
Y593090D01*
Y601380D01*
X137160D01*
Y606390D01*
X152120D01*
Y618658D01*
X152138Y618750D01*
X235622D01*
X237153Y619055D01*
X238452Y619923D01*
X251231Y632702D01*
X252099Y634000D01*
X252404Y635532D01*
Y637136D01*
X254980D01*
X256264Y637391D01*
X257352Y638118D01*
X258050Y639163D01*
X258301Y639206D01*
X259859D01*
X260110Y639163D01*
X260808Y638118D01*
X261896Y637391D01*
X263180Y637136D01*
X267680D01*
X268964Y637391D01*
X270052Y638118D01*
X270750Y639163D01*
X271001Y639206D01*
X272559D01*
X272810Y639163D01*
X273508Y638118D01*
X274596Y637391D01*
X275880Y637136D01*
X280380D01*
X281664Y637391D01*
X282752Y638118D01*
X283450Y639163D01*
X283701Y639206D01*
X285259D01*
X285510Y639163D01*
X286208Y638118D01*
X287296Y637391D01*
X288580Y637136D01*
X293080D01*
X294364Y637391D01*
X295452Y638118D01*
X296150Y639163D01*
X296401Y639206D01*
X297959D01*
X298210Y639163D01*
X298530Y638684D01*
Y649590D01*
Y660731D01*
X296436Y660571D01*
X295459Y661583D01*
Y680073D01*
X309257Y693871D01*
X322580D01*
Y441960D01*
D02*
G37*
G36*
X62725Y519925D02*
X62560Y519760D01*
X52070Y530250D01*
Y531470D01*
X62725Y542125D01*
Y519925D01*
D02*
G37*
G36*
X265430Y335280D02*
Y315720D01*
X261540D01*
Y306680D01*
X251540D01*
Y315720D01*
X246500D01*
Y312023D01*
X239910D01*
Y315720D01*
X234870D01*
Y306680D01*
X224870D01*
Y315720D01*
X222250D01*
Y335280D01*
X243840Y356870D01*
X265430Y335280D01*
D02*
G37*
G36*
X299720Y266700D02*
X172720D01*
Y302260D01*
X205740D01*
X212090Y295910D01*
X264160D01*
X276860Y308610D01*
X299720D01*
Y266700D01*
D02*
G37*
G36*
X208280Y78740D02*
X180340D01*
X147320Y111760D01*
X140370D01*
Y114700D01*
X132080D01*
X123790D01*
Y111760D01*
X118110D01*
X90170Y139700D01*
Y154940D01*
X208280D01*
Y78740D01*
D02*
G37*
G36*
X1050231Y255329D02*
Y76141D01*
X1018540Y44450D01*
X358140D01*
Y68632D01*
X367010D01*
X367598Y68044D01*
X370388Y66179D01*
X373490Y64895D01*
X376782Y64240D01*
X380138D01*
X383430Y64895D01*
X386531Y66179D01*
X389322Y68044D01*
X391696Y70418D01*
X393561Y73208D01*
X394845Y76310D01*
X395500Y79602D01*
Y82958D01*
X394845Y86250D01*
X393561Y89352D01*
X391696Y92142D01*
X389322Y94516D01*
X386531Y96381D01*
X383430Y97665D01*
X380138Y98320D01*
X376782D01*
X373490Y97665D01*
X370388Y96381D01*
X367598Y94516D01*
X367010Y93928D01*
X358140D01*
Y142240D01*
X416560Y200660D01*
Y276860D01*
X1028700D01*
X1050231Y255329D01*
D02*
G37*
G36*
X110490Y106680D02*
X146050D01*
X190500Y62230D01*
Y12700D01*
X19050D01*
Y129540D01*
X87630D01*
X110490Y106680D01*
D02*
G37*
%LPC*%
G36*
X997777Y849330D02*
X993583D01*
X989470Y848512D01*
X985595Y846907D01*
X982108Y844577D01*
X979143Y841612D01*
X976813Y838125D01*
X975208Y834250D01*
X974390Y830137D01*
Y825943D01*
X975208Y821830D01*
X976813Y817955D01*
X979143Y814468D01*
X982108Y811503D01*
X985595Y809173D01*
X989470Y807568D01*
X993583Y806750D01*
X997777D01*
X1001890Y807568D01*
X1005765Y809173D01*
X1009252Y811503D01*
X1012217Y814468D01*
X1014547Y817955D01*
X1016152Y821830D01*
X1016970Y825943D01*
Y830137D01*
X1016152Y834250D01*
X1014547Y838125D01*
X1012217Y841612D01*
X1009252Y844577D01*
X1005765Y846907D01*
X1001890Y848512D01*
X997777Y849330D01*
D02*
G37*
G36*
X847168Y826850D02*
X844472D01*
X841868Y826152D01*
X839532Y824804D01*
X837626Y822897D01*
X836278Y820563D01*
X835580Y817958D01*
Y815262D01*
X836278Y812657D01*
X837626Y810322D01*
X839532Y808416D01*
X841868Y807068D01*
X844472Y806370D01*
X847168D01*
X849772Y807068D01*
X852107Y808416D01*
X854014Y810322D01*
X855362Y812657D01*
X856060Y815262D01*
Y817958D01*
X855362Y820563D01*
X854014Y822897D01*
X852107Y824804D01*
X849772Y826152D01*
X847168Y826850D01*
D02*
G37*
G36*
Y801450D02*
X844472D01*
X841868Y800752D01*
X839532Y799404D01*
X837626Y797497D01*
X836278Y795163D01*
X835580Y792558D01*
Y789862D01*
X836278Y787258D01*
X837626Y784922D01*
X839532Y783016D01*
X841868Y781668D01*
X844472Y780970D01*
X847168D01*
X849772Y781668D01*
X852107Y783016D01*
X854014Y784922D01*
X855362Y787258D01*
X856060Y789862D01*
Y792558D01*
X855362Y795163D01*
X854014Y797497D01*
X852107Y799404D01*
X849772Y800752D01*
X847168Y801450D01*
D02*
G37*
G36*
Y776050D02*
X844472D01*
X841868Y775352D01*
X839532Y774004D01*
X837626Y772097D01*
X836278Y769762D01*
X835580Y767158D01*
Y764462D01*
X836278Y761858D01*
X837626Y759522D01*
X839532Y757616D01*
X841868Y756268D01*
X844472Y755570D01*
X847168D01*
X849772Y756268D01*
X852107Y757616D01*
X854014Y759522D01*
X855362Y761858D01*
X856060Y764462D01*
Y767158D01*
X855362Y769762D01*
X854014Y772097D01*
X852107Y774004D01*
X849772Y775352D01*
X847168Y776050D01*
D02*
G37*
G36*
X603170Y749059D02*
Y746680D01*
X605549D01*
X605284Y747139D01*
X603629Y748794D01*
X603170Y749059D01*
D02*
G37*
G36*
X605549Y736680D02*
X603170D01*
Y734302D01*
X603629Y734566D01*
X605284Y736221D01*
X605549Y736680D01*
D02*
G37*
G36*
X847168Y750650D02*
X844472D01*
X841868Y749952D01*
X839532Y748604D01*
X837626Y746697D01*
X836278Y744362D01*
X835580Y741758D01*
Y739062D01*
X836278Y736458D01*
X837626Y734122D01*
X839532Y732216D01*
X841868Y730868D01*
X844472Y730170D01*
X847168D01*
X849772Y730868D01*
X852107Y732216D01*
X854014Y734122D01*
X855362Y736458D01*
X856060Y739062D01*
Y741758D01*
X855362Y744362D01*
X854014Y746697D01*
X852107Y748604D01*
X849772Y749952D01*
X847168Y750650D01*
D02*
G37*
G36*
Y725250D02*
X844472D01*
X841868Y724552D01*
X839532Y723204D01*
X837626Y721298D01*
X836278Y718962D01*
X835580Y716358D01*
Y713662D01*
X836278Y711058D01*
X837626Y708723D01*
X839532Y706816D01*
X841868Y705468D01*
X844472Y704770D01*
X847168D01*
X849772Y705468D01*
X852107Y706816D01*
X854014Y708723D01*
X855362Y711058D01*
X856060Y713662D01*
Y716358D01*
X855362Y718962D01*
X854014Y721298D01*
X852107Y723204D01*
X849772Y724552D01*
X847168Y725250D01*
D02*
G37*
G36*
Y699850D02*
X844472D01*
X841868Y699152D01*
X839532Y697804D01*
X837626Y695898D01*
X836278Y693562D01*
X835580Y690958D01*
Y688262D01*
X836278Y685658D01*
X837626Y683323D01*
X839532Y681416D01*
X841868Y680068D01*
X844472Y679370D01*
X847168D01*
X849772Y680068D01*
X852107Y681416D01*
X854014Y683323D01*
X855362Y685658D01*
X856060Y688262D01*
Y690958D01*
X855362Y693562D01*
X854014Y695898D01*
X852107Y697804D01*
X849772Y699152D01*
X847168Y699850D01*
D02*
G37*
G36*
X565500Y683930D02*
X548920D01*
Y678555D01*
X542403D01*
X542402Y678555D01*
X540358Y678148D01*
X538625Y676990D01*
X538625Y676990D01*
X459772Y598138D01*
X458614Y596404D01*
X458207Y594360D01*
X458207Y594360D01*
Y364490D01*
X458207Y364490D01*
X458614Y362445D01*
X459772Y360712D01*
X466442Y354042D01*
X466442Y354042D01*
X468175Y352884D01*
X470220Y352477D01*
X470220Y352477D01*
X473040D01*
Y349530D01*
X474917D01*
Y335655D01*
X473896Y334634D01*
X472673Y332516D01*
X472040Y330153D01*
Y327707D01*
X472673Y325344D01*
X473896Y323226D01*
X475626Y321496D01*
X477744Y320273D01*
X480107Y319640D01*
X482553D01*
X484916Y320273D01*
X487034Y321496D01*
X488764Y323226D01*
X489987Y325344D01*
X490620Y327707D01*
Y330153D01*
X489987Y332516D01*
X488764Y334634D01*
X487743Y335655D01*
Y349530D01*
X489620D01*
Y366110D01*
X473040D01*
Y365384D01*
X471040Y364556D01*
X468893Y366703D01*
Y592147D01*
X544615Y667870D01*
X548920D01*
Y667350D01*
X565500D01*
Y683930D01*
D02*
G37*
G36*
X850820Y673147D02*
Y669210D01*
X854757D01*
X854014Y670498D01*
X852107Y672404D01*
X850820Y673147D01*
D02*
G37*
G36*
X840820D02*
X839532Y672404D01*
X837626Y670498D01*
X836883Y669210D01*
X840820D01*
Y673147D01*
D02*
G37*
G36*
X935250Y670440D02*
Y665400D01*
X939290D01*
Y670440D01*
X935250D01*
D02*
G37*
G36*
X854757Y659210D02*
X850820D01*
Y655273D01*
X852107Y656016D01*
X854014Y657923D01*
X854757Y659210D01*
D02*
G37*
G36*
X840820D02*
X836883D01*
X837626Y657923D01*
X839532Y656016D01*
X840820Y655273D01*
Y659210D01*
D02*
G37*
G36*
X939290Y655400D02*
X935250D01*
Y650360D01*
X939290D01*
Y655400D01*
D02*
G37*
G36*
X921210Y670440D02*
X919210Y670440D01*
X902210D01*
Y661520D01*
X892351D01*
X890775Y661207D01*
X889438Y660314D01*
X872054Y642929D01*
X855266D01*
X854014Y645098D01*
X852107Y647004D01*
X849772Y648352D01*
X847168Y649050D01*
X844472D01*
X841868Y648352D01*
X839532Y647004D01*
X837626Y645098D01*
X836278Y642763D01*
X835580Y640158D01*
Y637462D01*
X836278Y634857D01*
X837626Y632523D01*
X839532Y630616D01*
X841868Y629268D01*
X844472Y628570D01*
X847168D01*
X849772Y629268D01*
X852107Y630616D01*
X854014Y632523D01*
X855266Y634691D01*
X873760D01*
X875336Y635004D01*
X876673Y635897D01*
X894057Y653282D01*
X902210D01*
Y650360D01*
X919210D01*
X920290Y650360D01*
X922290Y650360D01*
X925250D01*
Y660400D01*
Y670440D01*
X922290D01*
X921210Y670440D01*
D02*
G37*
G36*
X771620Y647747D02*
Y643810D01*
X775557D01*
X774814Y645098D01*
X772907Y647004D01*
X771620Y647747D01*
D02*
G37*
G36*
X761620D02*
X760332Y647004D01*
X758426Y645098D01*
X757683Y643810D01*
X761620D01*
Y647747D01*
D02*
G37*
G36*
X708500Y678250D02*
X683420D01*
Y636483D01*
X664090D01*
Y640180D01*
X644010D01*
Y623180D01*
X644010Y622100D01*
X644010Y620100D01*
Y617140D01*
X654050D01*
X664090D01*
Y620100D01*
X664090Y621180D01*
X664090Y623180D01*
Y625797D01*
X683420D01*
Y618170D01*
X700154D01*
X709962Y608362D01*
X709962Y608362D01*
X711695Y607204D01*
X713740Y606797D01*
X713740Y606797D01*
X758751D01*
X760332Y605216D01*
X762667Y603868D01*
X765272Y603170D01*
X767968D01*
X770573Y603868D01*
X772907Y605216D01*
X774814Y607122D01*
X776162Y609458D01*
X776860Y612062D01*
Y614758D01*
X776162Y617363D01*
X774814Y619697D01*
X772907Y621604D01*
X770573Y622952D01*
X767968Y623650D01*
X765272D01*
X762667Y622952D01*
X760332Y621604D01*
X758426Y619697D01*
X757147Y617483D01*
X715953D01*
X708603Y624833D01*
Y631140D01*
X708603Y631140D01*
X708500Y631656D01*
Y678250D01*
D02*
G37*
G36*
X935860Y639960D02*
Y634920D01*
X939900D01*
Y639960D01*
X935860D01*
D02*
G37*
G36*
X1035680Y639440D02*
X1029890D01*
Y633650D01*
X1035680D01*
Y639440D01*
D02*
G37*
G36*
X1019890D02*
X1014100D01*
Y633650D01*
X1019890D01*
Y639440D01*
D02*
G37*
G36*
X775557Y633810D02*
X771620D01*
Y629873D01*
X772907Y630616D01*
X774814Y632523D01*
X775557Y633810D01*
D02*
G37*
G36*
X761620D02*
X757683D01*
X758426Y632523D01*
X760332Y630616D01*
X761620Y629873D01*
Y633810D01*
D02*
G37*
G36*
X939900Y624920D02*
X935860D01*
Y619880D01*
X939900D01*
Y624920D01*
D02*
G37*
G36*
X1035680Y623650D02*
X1029890D01*
Y617860D01*
X1035680D01*
Y623650D01*
D02*
G37*
G36*
X1019890D02*
X1014100D01*
Y617860D01*
X1019890D01*
Y623650D01*
D02*
G37*
G36*
X935860Y615830D02*
Y610790D01*
X939900D01*
Y615830D01*
X935860D01*
D02*
G37*
G36*
X664090Y607140D02*
X659050D01*
Y603100D01*
X664090D01*
Y607140D01*
D02*
G37*
G36*
X649050D02*
X644010D01*
Y603100D01*
X649050D01*
Y607140D01*
D02*
G37*
G36*
X1026311Y614040D02*
X1023469D01*
X1020725Y613305D01*
X1018265Y611884D01*
X1016256Y609875D01*
X1014835Y607415D01*
X1014100Y604670D01*
Y601829D01*
X1014835Y599085D01*
X1015923Y597201D01*
X1014323Y595973D01*
X1009618Y600678D01*
X1007885Y601836D01*
X1005840Y602243D01*
X1005840Y602243D01*
X979410D01*
X978720Y602934D01*
X977000Y603926D01*
X975083Y604440D01*
X973097D01*
X971180Y603926D01*
X969460Y602934D01*
X968056Y601530D01*
X967064Y599810D01*
X966550Y597893D01*
Y595907D01*
X967064Y593990D01*
X968056Y592270D01*
X969460Y590867D01*
X971180Y589874D01*
X973097Y589360D01*
X975083D01*
X977000Y589874D01*
X978720Y590867D01*
X979410Y591557D01*
X1003627D01*
X1014483Y580701D01*
X1014100Y579271D01*
Y576429D01*
X1014835Y573685D01*
X1016256Y571225D01*
X1018265Y569216D01*
X1020725Y567795D01*
X1023469Y567060D01*
X1026311D01*
X1029055Y567795D01*
X1031515Y569216D01*
X1033524Y571225D01*
X1034945Y573685D01*
X1035680Y576429D01*
Y579271D01*
X1034945Y582015D01*
X1033524Y584475D01*
X1031515Y586484D01*
X1029055Y587905D01*
X1026311Y588640D01*
X1023469D01*
X1022039Y588257D01*
X1017613Y592683D01*
X1018841Y594283D01*
X1020725Y593195D01*
X1023469Y592460D01*
X1026311D01*
X1029055Y593195D01*
X1031515Y594616D01*
X1033524Y596625D01*
X1034945Y599085D01*
X1035680Y601829D01*
Y604670D01*
X1034945Y607415D01*
X1033524Y609875D01*
X1031515Y611884D01*
X1029055Y613305D01*
X1026311Y614040D01*
D02*
G37*
G36*
X939900Y600790D02*
X935860D01*
Y595750D01*
X939900D01*
Y600790D01*
D02*
G37*
G36*
X664090Y598930D02*
X659050D01*
Y594890D01*
X664090D01*
Y598930D01*
D02*
G37*
G36*
X649050D02*
X644010D01*
Y594890D01*
X649050D01*
Y598930D01*
D02*
G37*
G36*
X767968Y598250D02*
X765272D01*
X762667Y597552D01*
X760332Y596204D01*
X758426Y594297D01*
X757147Y592083D01*
X713740D01*
X713740Y592083D01*
X711695Y591676D01*
X709962Y590518D01*
X709962Y590518D01*
X702694Y583250D01*
X683420D01*
Y576233D01*
X665504D01*
X664090Y577647D01*
X664090Y579930D01*
X664090Y581930D01*
Y584890D01*
X654050D01*
X644010D01*
Y581930D01*
X644010Y580850D01*
X644010Y578850D01*
Y561850D01*
X664090D01*
Y565547D01*
X683420D01*
Y523170D01*
X708500D01*
Y574040D01*
X708788Y574232D01*
X715953Y581397D01*
X758751D01*
X760332Y579816D01*
X762667Y578468D01*
X765272Y577770D01*
X767968D01*
X770573Y578468D01*
X772907Y579816D01*
X774814Y581722D01*
X776162Y584058D01*
X776860Y586662D01*
Y589358D01*
X776162Y591963D01*
X774814Y594297D01*
X772907Y596204D01*
X770573Y597552D01*
X767968Y598250D01*
D02*
G37*
G36*
X935860Y590430D02*
Y585390D01*
X939900D01*
Y590430D01*
X935860D01*
D02*
G37*
G36*
X847168Y598250D02*
X844472D01*
X841868Y597552D01*
X839532Y596204D01*
X837626Y594297D01*
X836278Y591963D01*
X835580Y589358D01*
Y586662D01*
X836278Y584058D01*
X837626Y581722D01*
X839532Y579816D01*
X841868Y578468D01*
X844472Y577770D01*
X847168D01*
X849772Y578468D01*
X852107Y579816D01*
X854014Y581722D01*
X855362Y584058D01*
X856060Y586662D01*
Y589358D01*
X855362Y591963D01*
X854014Y594297D01*
X852107Y596204D01*
X849772Y597552D01*
X847168Y598250D01*
D02*
G37*
G36*
X939900Y575390D02*
X935860D01*
Y570350D01*
X939900D01*
Y575390D01*
D02*
G37*
G36*
X767968Y572850D02*
X765272D01*
X762667Y572152D01*
X760332Y570804D01*
X758426Y568898D01*
X757880Y567953D01*
X750570D01*
X748525Y567546D01*
X746792Y566388D01*
X746792Y566388D01*
X736632Y556228D01*
X735474Y554495D01*
X735067Y552450D01*
X735067Y552450D01*
Y517833D01*
X710257Y493023D01*
X632140D01*
X632140Y493023D01*
X630095Y492616D01*
X628362Y491458D01*
X606524Y469620D01*
X597500D01*
Y453040D01*
X614080D01*
Y462064D01*
X634353Y482337D01*
X668626D01*
X669392Y480490D01*
X658522Y469620D01*
X649570D01*
Y453040D01*
X666150D01*
Y461992D01*
X677554Y473396D01*
X715422D01*
X716251Y471396D01*
X714474Y469620D01*
X705450D01*
Y453040D01*
X722030D01*
Y462064D01*
X762392Y502427D01*
X762667Y502268D01*
X765272Y501570D01*
X767968D01*
X770573Y502268D01*
X772907Y503616D01*
X774814Y505522D01*
X776162Y507858D01*
X776860Y510462D01*
Y513158D01*
X776162Y515762D01*
X774814Y518097D01*
X772907Y520004D01*
X770573Y521352D01*
X767968Y522050D01*
X765272D01*
X762667Y521352D01*
X760332Y520004D01*
X758426Y518097D01*
X757964Y517297D01*
X755964Y517833D01*
Y528626D01*
X758279Y530942D01*
X758426Y530923D01*
X760332Y529016D01*
X762667Y527668D01*
X765272Y526970D01*
X767968D01*
X770573Y527668D01*
X772907Y529016D01*
X774814Y530923D01*
X776162Y533257D01*
X776860Y535862D01*
Y538558D01*
X776162Y541162D01*
X774814Y543498D01*
X772907Y545404D01*
X770573Y546752D01*
X767968Y547450D01*
X765272D01*
X762667Y546752D01*
X760332Y545404D01*
X758426Y543498D01*
X757910Y542604D01*
X756920D01*
X754856Y542193D01*
X753106Y541024D01*
X747753Y535670D01*
X745753Y536499D01*
Y550237D01*
X752783Y557267D01*
X757880D01*
X758426Y556323D01*
X760332Y554416D01*
X762667Y553068D01*
X765272Y552370D01*
X767968D01*
X770573Y553068D01*
X772907Y554416D01*
X774814Y556323D01*
X776162Y558657D01*
X776860Y561262D01*
Y563958D01*
X776162Y566562D01*
X774814Y568898D01*
X772907Y570804D01*
X770573Y572152D01*
X767968Y572850D01*
D02*
G37*
G36*
X1026311Y537840D02*
X1023469D01*
X1020725Y537105D01*
X1018265Y535684D01*
X1016256Y533675D01*
X1014835Y531215D01*
X1014100Y528470D01*
Y525630D01*
X1014835Y522885D01*
X1016256Y520425D01*
X1018265Y518416D01*
X1020725Y516995D01*
X1023469Y516260D01*
X1026311D01*
X1029055Y516995D01*
X1031515Y518416D01*
X1033524Y520425D01*
X1034945Y522885D01*
X1035680Y525630D01*
Y528470D01*
X1034945Y531215D01*
X1033524Y533675D01*
X1031515Y535684D01*
X1029055Y537105D01*
X1026311Y537840D01*
D02*
G37*
G36*
X508827Y534370D02*
X504633D01*
X500520Y533552D01*
X496645Y531947D01*
X493158Y529617D01*
X490193Y526652D01*
X487863Y523165D01*
X486258Y519290D01*
X485440Y515177D01*
Y510983D01*
X486258Y506870D01*
X487863Y502995D01*
X490193Y499508D01*
X493158Y496543D01*
X496645Y494213D01*
X500520Y492608D01*
X504633Y491790D01*
X508827D01*
X512940Y492608D01*
X516815Y494213D01*
X520302Y496543D01*
X523267Y499508D01*
X525597Y502995D01*
X527202Y506870D01*
X528020Y510983D01*
Y515177D01*
X527202Y519290D01*
X525597Y523165D01*
X523267Y526652D01*
X520302Y529617D01*
X516815Y531947D01*
X512940Y533552D01*
X508827Y534370D01*
D02*
G37*
G36*
X1026311Y512440D02*
X1023469D01*
X1020725Y511705D01*
X1018265Y510284D01*
X1016256Y508275D01*
X1014835Y505815D01*
X1014100Y503070D01*
Y500229D01*
X1014835Y497485D01*
X1016256Y495025D01*
X1018265Y493016D01*
X1018912Y492642D01*
Y468730D01*
X1013580D01*
Y465853D01*
X1007780D01*
Y469620D01*
X991200D01*
Y453040D01*
X1007780D01*
Y455167D01*
X1012166D01*
X1013580Y453753D01*
X1013580Y450650D01*
X1013580Y448650D01*
Y445690D01*
X1023620D01*
X1033660D01*
Y448650D01*
X1033660Y449730D01*
X1033660Y451730D01*
Y468730D01*
X1029598D01*
Y491909D01*
X1031515Y493016D01*
X1033524Y495025D01*
X1034945Y497485D01*
X1035680Y500229D01*
Y503070D01*
X1034945Y505815D01*
X1033524Y508275D01*
X1031515Y510284D01*
X1029055Y511705D01*
X1026311Y512440D01*
D02*
G37*
G36*
X847168Y547450D02*
X844472D01*
X841868Y546752D01*
X839532Y545404D01*
X837626Y543498D01*
X836278Y541162D01*
X835580Y538558D01*
Y535862D01*
X836278Y533257D01*
X837626Y530923D01*
X839532Y529016D01*
X841868Y527668D01*
X844472Y526970D01*
X847168D01*
X849772Y527668D01*
X852107Y529016D01*
X853689Y530597D01*
X919807D01*
X925092Y525312D01*
X925789Y523629D01*
X927489Y521930D01*
X929172Y521232D01*
X943347Y507057D01*
Y469620D01*
X940400D01*
Y453040D01*
X956980D01*
Y469620D01*
X954033D01*
Y509270D01*
X953626Y511315D01*
X952468Y513048D01*
X952468Y513048D01*
X936728Y528788D01*
X936031Y530471D01*
X934331Y532170D01*
X932648Y532868D01*
X925798Y539718D01*
X924064Y540876D01*
X922020Y541283D01*
X922020Y541283D01*
X855293D01*
X854014Y543498D01*
X852107Y545404D01*
X849772Y546752D01*
X847168Y547450D01*
D02*
G37*
G36*
Y522050D02*
X844472D01*
X841868Y521352D01*
X839532Y520004D01*
X837626Y518097D01*
X836278Y515762D01*
X835580Y513158D01*
Y510462D01*
X836278Y507858D01*
X837626Y505522D01*
X839532Y503616D01*
X841868Y502268D01*
X844472Y501570D01*
X847168D01*
X849772Y502268D01*
X852107Y503616D01*
X854014Y505522D01*
X854559Y506467D01*
X885517D01*
X903977Y488007D01*
Y469620D01*
X901030D01*
Y453040D01*
X917610D01*
Y469620D01*
X914663D01*
Y490220D01*
X914663Y490220D01*
X914256Y492265D01*
X913098Y493998D01*
X913098Y493998D01*
X905200Y501896D01*
Y502851D01*
X904280Y505071D01*
X902581Y506771D01*
X900361Y507690D01*
X899406D01*
X891508Y515588D01*
X889775Y516746D01*
X887730Y517153D01*
X887730Y517153D01*
X854559D01*
X854014Y518097D01*
X852107Y520004D01*
X849772Y521352D01*
X847168Y522050D01*
D02*
G37*
G36*
Y496650D02*
X844472D01*
X841868Y495952D01*
X839532Y494604D01*
X837626Y492697D01*
X836278Y490363D01*
X835580Y487758D01*
Y485062D01*
X836278Y482458D01*
X837626Y480122D01*
X839407Y478342D01*
Y469620D01*
X837530D01*
Y453040D01*
X854110D01*
Y469620D01*
X852233D01*
Y478342D01*
X854014Y480122D01*
X855362Y482458D01*
X856060Y485062D01*
Y487758D01*
X855362Y490363D01*
X854014Y492697D01*
X852107Y494604D01*
X849772Y495952D01*
X847168Y496650D01*
D02*
G37*
G36*
X767968D02*
X765272D01*
X762667Y495952D01*
X760332Y494604D01*
X758426Y492697D01*
X757078Y490363D01*
X756380Y487758D01*
Y485062D01*
X757078Y482458D01*
X758426Y480122D01*
X759167Y479382D01*
Y469620D01*
X756250D01*
Y453040D01*
X772830D01*
Y469620D01*
X771993D01*
Y477688D01*
X772907Y478216D01*
X774814Y480122D01*
X776162Y482458D01*
X776860Y485062D01*
Y487758D01*
X776162Y490363D01*
X774814Y492697D01*
X772907Y494604D01*
X770573Y495952D01*
X767968Y496650D01*
D02*
G37*
G36*
X1033660Y435690D02*
X1028620D01*
Y431650D01*
X1033660D01*
Y435690D01*
D02*
G37*
G36*
X1018620D02*
X1013580D01*
Y431650D01*
X1018620D01*
Y435690D01*
D02*
G37*
G36*
X565500Y662340D02*
X548920D01*
Y645760D01*
X554727D01*
Y394527D01*
X552727Y393991D01*
X551944Y395349D01*
X550289Y397004D01*
X548261Y398174D01*
X546000Y398780D01*
X543660D01*
X541399Y398174D01*
X539371Y397004D01*
X537716Y395349D01*
X536546Y393321D01*
X535940Y391060D01*
Y388720D01*
X536540Y386480D01*
Y373030D01*
X552727D01*
X553120Y373030D01*
X553136Y373020D01*
X553455Y370511D01*
X549157Y366213D01*
X547880D01*
X547364Y366110D01*
X536540D01*
Y349530D01*
X538417D01*
Y335655D01*
X537396Y334634D01*
X536173Y332516D01*
X535540Y330153D01*
Y327707D01*
X536173Y325344D01*
X537396Y323226D01*
X539126Y321496D01*
X541244Y320273D01*
X543607Y319640D01*
X546053D01*
X548416Y320273D01*
X550534Y321496D01*
X552264Y323226D01*
X553487Y325344D01*
X554120Y327707D01*
Y330153D01*
X553487Y332516D01*
X552264Y334634D01*
X551243Y335655D01*
Y349530D01*
X553120D01*
Y355875D01*
X553414Y355934D01*
X555148Y357092D01*
X563848Y365792D01*
X563848Y365792D01*
X565006Y367525D01*
X565413Y369570D01*
Y645760D01*
X565500D01*
Y662340D01*
D02*
G37*
G36*
X772830Y446120D02*
X756250D01*
Y429540D01*
X765274D01*
X780787Y414027D01*
Y393257D01*
X778787Y392721D01*
X778004Y394079D01*
X776349Y395734D01*
X774321Y396904D01*
X772060Y397510D01*
X769720D01*
X767459Y396904D01*
X765431Y395734D01*
X763776Y394079D01*
X762606Y392051D01*
X762000Y389790D01*
Y387450D01*
X762600Y385210D01*
Y373980D01*
X778787D01*
X779180Y373980D01*
X780787Y373032D01*
Y368596D01*
X779354Y367163D01*
X773940D01*
X773424Y367060D01*
X762600D01*
Y350480D01*
X765547D01*
Y336573D01*
X765186Y336364D01*
X763456Y334634D01*
X762233Y332516D01*
X761600Y330153D01*
Y327707D01*
X762233Y325344D01*
X763456Y323226D01*
X765186Y321496D01*
X767304Y320273D01*
X769667Y319640D01*
X772113D01*
X774476Y320273D01*
X776594Y321496D01*
X778324Y323226D01*
X779547Y325344D01*
X780180Y327707D01*
Y330153D01*
X779547Y332516D01*
X778324Y334634D01*
X776594Y336364D01*
X776233Y336573D01*
Y350480D01*
X779180D01*
Y356477D01*
X781567D01*
X781567Y356477D01*
X783611Y356884D01*
X785345Y358042D01*
X789908Y362605D01*
X789908Y362605D01*
X791066Y364339D01*
X791473Y366383D01*
X791473Y366383D01*
Y416240D01*
X791473Y416240D01*
X791066Y418285D01*
X789908Y420018D01*
X789908Y420018D01*
X772830Y437096D01*
Y446120D01*
D02*
G37*
G36*
X1007780D02*
X991200D01*
Y429540D01*
X994147D01*
Y400428D01*
X992499Y398780D01*
X991970D01*
X989709Y398174D01*
X987681Y397004D01*
X986026Y395349D01*
X984856Y393321D01*
X984250Y391060D01*
Y388720D01*
X984850Y386480D01*
Y379480D01*
X983009Y378680D01*
X981773Y379682D01*
Y429540D01*
X983650D01*
Y446120D01*
X967070D01*
Y429540D01*
X968947D01*
Y376870D01*
X969435Y374416D01*
X970825Y372335D01*
X984850Y358310D01*
Y350800D01*
X987797D01*
Y337674D01*
X987525Y337517D01*
X985823Y335815D01*
X984619Y333730D01*
X983996Y331404D01*
Y328996D01*
X984619Y326670D01*
X985823Y324585D01*
X987525Y322883D01*
X989611Y321679D01*
X991936Y321056D01*
X994344D01*
X996669Y321679D01*
X998755Y322883D01*
X1000457Y324585D01*
X1001661Y326670D01*
X1002284Y328996D01*
Y331404D01*
X1001661Y333730D01*
X1000457Y335815D01*
X998755Y337517D01*
X998483Y337674D01*
Y350800D01*
X1001430D01*
Y367380D01*
X993920D01*
X988848Y372452D01*
X989613Y374300D01*
X1001430D01*
Y386480D01*
X1002030Y388720D01*
Y391060D01*
X1001578Y392748D01*
X1003268Y394437D01*
X1003268Y394437D01*
X1004426Y396171D01*
X1004833Y398215D01*
Y429540D01*
X1007780D01*
Y446120D01*
D02*
G37*
G36*
X934620Y398780D02*
X932280D01*
X930019Y398174D01*
X927991Y397004D01*
X926336Y395349D01*
X925166Y393321D01*
X924560Y391060D01*
Y388720D01*
X925160Y386480D01*
Y374300D01*
X941740D01*
Y386480D01*
X942340Y388720D01*
Y391060D01*
X941734Y393321D01*
X940564Y395349D01*
X938909Y397004D01*
X936881Y398174D01*
X934620Y398780D01*
D02*
G37*
G36*
X885090D02*
X882750D01*
X880489Y398174D01*
X878461Y397004D01*
X876806Y395349D01*
X875636Y393321D01*
X875030Y391060D01*
Y388720D01*
X875630Y386480D01*
Y374300D01*
X892210D01*
Y386480D01*
X892810Y388720D01*
Y391060D01*
X892204Y393321D01*
X891034Y395349D01*
X889379Y397004D01*
X887351Y398174D01*
X885090Y398780D01*
D02*
G37*
G36*
X822860Y397510D02*
X820520D01*
X818259Y396904D01*
X816231Y395734D01*
X814576Y394079D01*
X813406Y392051D01*
X812800Y389790D01*
Y387450D01*
X813400Y385210D01*
Y373980D01*
X829980D01*
Y385210D01*
X830580Y387450D01*
Y389790D01*
X829974Y392051D01*
X828804Y394079D01*
X827149Y395734D01*
X825121Y396904D01*
X822860Y397510D01*
D02*
G37*
G36*
X709830D02*
X707490D01*
X705229Y396904D01*
X703201Y395734D01*
X701546Y394079D01*
X700376Y392051D01*
X699770Y389790D01*
Y387450D01*
X700370Y385210D01*
Y373030D01*
X716950D01*
Y385210D01*
X717550Y387450D01*
Y389790D01*
X716944Y392051D01*
X715774Y394079D01*
X714119Y395734D01*
X712091Y396904D01*
X709830Y397510D01*
D02*
G37*
G36*
X659030D02*
X656690D01*
X654429Y396904D01*
X652401Y395734D01*
X650746Y394079D01*
X649576Y392051D01*
X648970Y389790D01*
Y387450D01*
X649570Y385210D01*
Y373030D01*
X666150D01*
Y385210D01*
X666750Y387450D01*
Y389790D01*
X666144Y392051D01*
X664974Y394079D01*
X663319Y395734D01*
X661291Y396904D01*
X659030Y397510D01*
D02*
G37*
G36*
X596800Y398780D02*
X594460D01*
X592199Y398174D01*
X590171Y397004D01*
X588516Y395349D01*
X587346Y393321D01*
X586740Y391060D01*
Y388720D01*
X587340Y386480D01*
Y373030D01*
X603920D01*
Y386480D01*
X604520Y388720D01*
Y391060D01*
X603914Y393321D01*
X602744Y395349D01*
X601089Y397004D01*
X599061Y398174D01*
X596800Y398780D01*
D02*
G37*
G36*
X482500Y397510D02*
X480160D01*
X477899Y396904D01*
X475871Y395734D01*
X474216Y394079D01*
X473046Y392051D01*
X472440Y389790D01*
Y387450D01*
X473040Y385210D01*
Y373030D01*
X489620D01*
Y385210D01*
X490220Y387450D01*
Y389790D01*
X489614Y392051D01*
X488444Y394079D01*
X486789Y395734D01*
X484761Y396904D01*
X482500Y397510D01*
D02*
G37*
G36*
X431700D02*
X429360D01*
X427099Y396904D01*
X425071Y395734D01*
X423416Y394079D01*
X422246Y392051D01*
X421640Y389790D01*
Y387450D01*
X422240Y385210D01*
Y371760D01*
X438820D01*
Y385210D01*
X439420Y387450D01*
Y389790D01*
X438814Y392051D01*
X437644Y394079D01*
X435989Y395734D01*
X433961Y396904D01*
X431700Y397510D01*
D02*
G37*
G36*
X917610Y446120D02*
X901030D01*
Y429540D01*
X903977D01*
Y375593D01*
X895557Y367173D01*
X892210D01*
Y367380D01*
X875630D01*
Y350800D01*
X877942D01*
Y336939D01*
X876946Y336364D01*
X875216Y334634D01*
X873993Y332516D01*
X873360Y330153D01*
Y327707D01*
X873993Y325344D01*
X875216Y323226D01*
X876946Y321496D01*
X879064Y320273D01*
X881427Y319640D01*
X883873D01*
X886236Y320273D01*
X888354Y321496D01*
X890084Y323226D01*
X891307Y325344D01*
X891940Y327707D01*
Y330153D01*
X891307Y332516D01*
X890084Y334634D01*
X888628Y336090D01*
Y350800D01*
X892210D01*
Y356487D01*
X897770D01*
X897770Y356487D01*
X899815Y356894D01*
X901548Y358052D01*
X913098Y369602D01*
X913098Y369602D01*
X914256Y371335D01*
X914663Y373380D01*
Y429540D01*
X917610D01*
Y446120D01*
D02*
G37*
G36*
X956980D02*
X940400D01*
Y429540D01*
X945887D01*
Y369243D01*
X943740Y367096D01*
X941740Y367380D01*
Y367380D01*
X925160D01*
Y350800D01*
X928107D01*
Y336573D01*
X927746Y336364D01*
X926016Y334634D01*
X924793Y332516D01*
X924160Y330153D01*
Y327707D01*
X924793Y325344D01*
X926016Y323226D01*
X927746Y321496D01*
X929864Y320273D01*
X932227Y319640D01*
X934673D01*
X937036Y320273D01*
X939154Y321496D01*
X940884Y323226D01*
X942107Y325344D01*
X942740Y327707D01*
Y330153D01*
X942107Y332516D01*
X940884Y334634D01*
X939154Y336364D01*
X938793Y336573D01*
Y350800D01*
X941740D01*
Y354594D01*
X944137D01*
X944137Y354594D01*
X946181Y355001D01*
X947915Y356159D01*
X955008Y363252D01*
X955008Y363252D01*
X956166Y364986D01*
X956573Y367030D01*
X956573Y367030D01*
Y429540D01*
X956980D01*
Y446120D01*
D02*
G37*
G36*
X854110D02*
X837530D01*
Y429540D01*
X840477D01*
Y373053D01*
X833127Y365703D01*
X829980D01*
Y367060D01*
X813400D01*
Y350480D01*
X816347D01*
Y336573D01*
X815986Y336364D01*
X814256Y334634D01*
X813033Y332516D01*
X812400Y330153D01*
Y327707D01*
X813033Y325344D01*
X814256Y323226D01*
X815986Y321496D01*
X818104Y320273D01*
X820467Y319640D01*
X822913D01*
X825276Y320273D01*
X827394Y321496D01*
X829124Y323226D01*
X830347Y325344D01*
X830980Y327707D01*
Y330153D01*
X830347Y332516D01*
X829124Y334634D01*
X827394Y336364D01*
X827033Y336573D01*
Y350480D01*
X829980D01*
Y355017D01*
X835340D01*
X835340Y355017D01*
X837385Y355424D01*
X839118Y356582D01*
X849598Y367062D01*
X849598Y367062D01*
X850756Y368796D01*
X851163Y370840D01*
X851163Y370840D01*
Y429540D01*
X854110D01*
Y446120D01*
D02*
G37*
G36*
X722030D02*
X705450D01*
Y429540D01*
X714474D01*
X724907Y419107D01*
Y369866D01*
X720297Y365256D01*
X716950D01*
Y366110D01*
X700370D01*
Y349530D01*
X703317D01*
Y336573D01*
X702956Y336364D01*
X701226Y334634D01*
X700003Y332516D01*
X699370Y330153D01*
Y327707D01*
X700003Y325344D01*
X701226Y323226D01*
X702956Y321496D01*
X705074Y320273D01*
X707437Y319640D01*
X709883D01*
X712246Y320273D01*
X714364Y321496D01*
X716094Y323226D01*
X717317Y325344D01*
X717950Y327707D01*
Y330153D01*
X717317Y332516D01*
X716094Y334634D01*
X714364Y336364D01*
X714003Y336573D01*
Y349530D01*
X716950D01*
Y354571D01*
X722510D01*
X722510Y354571D01*
X724555Y354977D01*
X726288Y356135D01*
X734028Y363875D01*
X734028Y363875D01*
X735186Y365609D01*
X735593Y367653D01*
Y421320D01*
X735593Y421320D01*
X735186Y423365D01*
X734028Y425098D01*
X734028Y425098D01*
X722030Y437096D01*
Y446120D01*
D02*
G37*
G36*
X666150D02*
X649570D01*
Y429540D01*
X658594D01*
X671567Y416567D01*
Y366056D01*
X669497Y363986D01*
X666150D01*
Y366110D01*
X649570D01*
Y349530D01*
X652517D01*
Y336573D01*
X652156Y336364D01*
X650426Y334634D01*
X649203Y332516D01*
X648570Y330153D01*
Y327707D01*
X649203Y325344D01*
X650426Y323226D01*
X652156Y321496D01*
X654274Y320273D01*
X656637Y319640D01*
X659083D01*
X661446Y320273D01*
X663564Y321496D01*
X665294Y323226D01*
X666517Y325344D01*
X667150Y327707D01*
Y330153D01*
X666517Y332516D01*
X665294Y334634D01*
X663564Y336364D01*
X663203Y336573D01*
Y349530D01*
X666150D01*
Y353301D01*
X671710D01*
X671710Y353301D01*
X673755Y353707D01*
X675488Y354865D01*
X680688Y360065D01*
X680688Y360065D01*
X681846Y361799D01*
X682253Y363843D01*
X682253Y363843D01*
Y418780D01*
X682253Y418780D01*
X681846Y420825D01*
X680688Y422558D01*
X680688Y422558D01*
X666150Y437096D01*
Y446120D01*
D02*
G37*
G36*
X614080D02*
X597500D01*
Y429540D01*
X606524D01*
X610607Y425457D01*
Y369866D01*
X606954Y366213D01*
X598680D01*
X598164Y366110D01*
X587340D01*
Y349530D01*
X590287D01*
Y336573D01*
X589926Y336364D01*
X588196Y334634D01*
X586973Y332516D01*
X586340Y330153D01*
Y327707D01*
X586973Y325344D01*
X588196Y323226D01*
X589926Y321496D01*
X592044Y320273D01*
X594407Y319640D01*
X596853D01*
X599216Y320273D01*
X601334Y321496D01*
X603064Y323226D01*
X604287Y325344D01*
X604920Y327707D01*
Y330153D01*
X604287Y332516D01*
X603064Y334634D01*
X601334Y336364D01*
X600973Y336573D01*
Y349530D01*
X603920D01*
Y355527D01*
X609167D01*
X609167Y355527D01*
X611211Y355934D01*
X612945Y357092D01*
X619728Y363875D01*
X619728Y363875D01*
X620886Y365609D01*
X621293Y367653D01*
X621293Y367653D01*
Y427670D01*
X620886Y429715D01*
X619728Y431448D01*
X619728Y431448D01*
X614080Y437096D01*
Y446120D01*
D02*
G37*
G36*
X1023540Y337872D02*
Y335200D01*
X1026212D01*
X1025857Y335815D01*
X1024155Y337517D01*
X1023540Y337872D01*
D02*
G37*
G36*
X1013540D02*
X1012925Y337517D01*
X1011223Y335815D01*
X1010868Y335200D01*
X1013540D01*
Y337872D01*
D02*
G37*
G36*
X575230Y336770D02*
Y333930D01*
X578070D01*
X577664Y334634D01*
X575934Y336364D01*
X575230Y336770D01*
D02*
G37*
G36*
X511730D02*
Y333930D01*
X514570D01*
X514164Y334634D01*
X512434Y336364D01*
X511730Y336770D01*
D02*
G37*
G36*
X460930D02*
Y333930D01*
X463770D01*
X463364Y334634D01*
X461634Y336364D01*
X460930Y336770D01*
D02*
G37*
G36*
X963850D02*
Y333930D01*
X966690D01*
X966284Y334634D01*
X964554Y336364D01*
X963850Y336770D01*
D02*
G37*
G36*
X913050D02*
Y333930D01*
X915890D01*
X915484Y334634D01*
X913754Y336364D01*
X913050Y336770D01*
D02*
G37*
G36*
X852090D02*
Y333930D01*
X854930D01*
X854524Y334634D01*
X852794Y336364D01*
X852090Y336770D01*
D02*
G37*
G36*
X801290D02*
Y333930D01*
X804130D01*
X803724Y334634D01*
X801994Y336364D01*
X801290Y336770D01*
D02*
G37*
G36*
X739060D02*
Y333930D01*
X741900D01*
X741494Y334634D01*
X739764Y336364D01*
X739060Y336770D01*
D02*
G37*
G36*
X688260D02*
Y333930D01*
X691100D01*
X690694Y334634D01*
X688964Y336364D01*
X688260Y336770D01*
D02*
G37*
G36*
X626030D02*
Y333930D01*
X628870D01*
X628464Y334634D01*
X626734Y336364D01*
X626030Y336770D01*
D02*
G37*
G36*
X565230D02*
X564526Y336364D01*
X562796Y334634D01*
X562390Y333930D01*
X565230D01*
Y336770D01*
D02*
G37*
G36*
X501730D02*
X501026Y336364D01*
X499296Y334634D01*
X498890Y333930D01*
X501730D01*
Y336770D01*
D02*
G37*
G36*
X450930D02*
X450226Y336364D01*
X448496Y334634D01*
X448090Y333930D01*
X450930D01*
Y336770D01*
D02*
G37*
G36*
X953850D02*
X953146Y336364D01*
X951416Y334634D01*
X951010Y333930D01*
X953850D01*
Y336770D01*
D02*
G37*
G36*
X903050D02*
X902346Y336364D01*
X900616Y334634D01*
X900210Y333930D01*
X903050D01*
Y336770D01*
D02*
G37*
G36*
X842090D02*
X841386Y336364D01*
X839656Y334634D01*
X839250Y333930D01*
X842090D01*
Y336770D01*
D02*
G37*
G36*
X791290D02*
X790586Y336364D01*
X788856Y334634D01*
X788450Y333930D01*
X791290D01*
Y336770D01*
D02*
G37*
G36*
X729060D02*
X728356Y336364D01*
X726626Y334634D01*
X726220Y333930D01*
X729060D01*
Y336770D01*
D02*
G37*
G36*
X678260D02*
X677556Y336364D01*
X675826Y334634D01*
X675420Y333930D01*
X678260D01*
Y336770D01*
D02*
G37*
G36*
X616030D02*
X615326Y336364D01*
X613596Y334634D01*
X613190Y333930D01*
X616030D01*
Y336770D01*
D02*
G37*
G36*
X1026212Y325200D02*
X1023540D01*
Y322528D01*
X1024155Y322883D01*
X1025857Y324585D01*
X1026212Y325200D01*
D02*
G37*
G36*
X1013540D02*
X1010868D01*
X1011223Y324585D01*
X1012925Y322883D01*
X1013540Y322528D01*
Y325200D01*
D02*
G37*
G36*
X966690Y323930D02*
X963850D01*
Y321090D01*
X964554Y321496D01*
X966284Y323226D01*
X966690Y323930D01*
D02*
G37*
G36*
X915890D02*
X913050D01*
Y321090D01*
X913754Y321496D01*
X915484Y323226D01*
X915890Y323930D01*
D02*
G37*
G36*
X854930D02*
X852090D01*
Y321090D01*
X852794Y321496D01*
X854524Y323226D01*
X854930Y323930D01*
D02*
G37*
G36*
X804130D02*
X801290D01*
Y321090D01*
X801994Y321496D01*
X803724Y323226D01*
X804130Y323930D01*
D02*
G37*
G36*
X741900D02*
X739060D01*
Y321090D01*
X739764Y321496D01*
X741494Y323226D01*
X741900Y323930D01*
D02*
G37*
G36*
X691100D02*
X688260D01*
Y321090D01*
X688964Y321496D01*
X690694Y323226D01*
X691100Y323930D01*
D02*
G37*
G36*
X578070D02*
X575230D01*
Y321090D01*
X575934Y321496D01*
X577664Y323226D01*
X578070Y323930D01*
D02*
G37*
G36*
X514570D02*
X511730D01*
Y321090D01*
X512434Y321496D01*
X514164Y323226D01*
X514570Y323930D01*
D02*
G37*
G36*
X463770D02*
X460930D01*
Y321090D01*
X461634Y321496D01*
X463364Y323226D01*
X463770Y323930D01*
D02*
G37*
G36*
X628870D02*
X626030D01*
Y321090D01*
X626734Y321496D01*
X628464Y323226D01*
X628870Y323930D01*
D02*
G37*
G36*
X616030D02*
X613190D01*
X613596Y323226D01*
X615326Y321496D01*
X616030Y321090D01*
Y323930D01*
D02*
G37*
G36*
X953850D02*
X951010D01*
X951416Y323226D01*
X953146Y321496D01*
X953850Y321090D01*
Y323930D01*
D02*
G37*
G36*
X903050D02*
X900210D01*
X900616Y323226D01*
X902346Y321496D01*
X903050Y321090D01*
Y323930D01*
D02*
G37*
G36*
X842090D02*
X839250D01*
X839656Y323226D01*
X841386Y321496D01*
X842090Y321090D01*
Y323930D01*
D02*
G37*
G36*
X791290D02*
X788450D01*
X788856Y323226D01*
X790586Y321496D01*
X791290Y321090D01*
Y323930D01*
D02*
G37*
G36*
X729060D02*
X726220D01*
X726626Y323226D01*
X728356Y321496D01*
X729060Y321090D01*
Y323930D01*
D02*
G37*
G36*
X678260D02*
X675420D01*
X675826Y323226D01*
X677556Y321496D01*
X678260Y321090D01*
Y323930D01*
D02*
G37*
G36*
X565230D02*
X562390D01*
X562796Y323226D01*
X564526Y321496D01*
X565230Y321090D01*
Y323930D01*
D02*
G37*
G36*
X501730D02*
X498890D01*
X499296Y323226D01*
X501026Y321496D01*
X501730Y321090D01*
Y323930D01*
D02*
G37*
G36*
X450930D02*
X448090D01*
X448496Y323226D01*
X450226Y321496D01*
X450930Y321090D01*
Y323930D01*
D02*
G37*
G36*
X332210Y864750D02*
X328170D01*
Y859710D01*
X332210D01*
Y864750D01*
D02*
G37*
G36*
Y849710D02*
X328170D01*
Y844670D01*
X332210D01*
Y849710D01*
D02*
G37*
G36*
X263630Y846970D02*
X259590D01*
Y841930D01*
X263630D01*
Y846970D01*
D02*
G37*
G36*
X264668Y811657D02*
X257222D01*
Y811450D01*
X264668D01*
Y811657D01*
D02*
G37*
G36*
X247222D02*
X239776D01*
Y811450D01*
X247222D01*
Y811657D01*
D02*
G37*
G36*
X264668Y801450D02*
X257222D01*
Y801243D01*
X264668D01*
Y801450D01*
D02*
G37*
G36*
X247222D02*
X239776D01*
Y801243D01*
X247222D01*
Y801450D01*
D02*
G37*
G36*
X179720Y794940D02*
X175180D01*
Y792400D01*
X179720D01*
Y794940D01*
D02*
G37*
G36*
X59064Y827340D02*
X55236D01*
X51538Y826349D01*
X48222Y824435D01*
X45515Y821728D01*
X43601Y818412D01*
X42610Y814714D01*
Y810886D01*
X43601Y807188D01*
X45515Y803872D01*
X48222Y801165D01*
X51538Y799251D01*
X55236Y798260D01*
X59064D01*
X61125Y798812D01*
X65286Y794651D01*
X65286Y794651D01*
X67350Y793272D01*
X69785Y792788D01*
X69785Y792788D01*
X77155D01*
X77475Y792481D01*
X77511Y792400D01*
X83820D01*
Y782400D01*
X77511D01*
X77475Y782319D01*
X77155Y782012D01*
X69785D01*
X69785Y782012D01*
X67350Y781528D01*
X65286Y780149D01*
X65286Y780149D01*
X61677Y776540D01*
X42610D01*
Y747460D01*
X71690D01*
Y768558D01*
X72420Y769288D01*
X77760D01*
X78182Y768270D01*
X83820D01*
Y763270D01*
X88820D01*
Y759021D01*
X89053Y759254D01*
X91287D01*
X91520Y759021D01*
Y763270D01*
X101520D01*
Y759021D01*
X101753Y759254D01*
X103987D01*
X104220Y759021D01*
Y763270D01*
X109220D01*
Y768270D01*
X114858D01*
X115280Y769288D01*
X123790D01*
Y767360D01*
X131372D01*
X132341Y766391D01*
X132341Y766391D01*
X134405Y765012D01*
X136840Y764528D01*
X183170D01*
X183170Y764528D01*
X185605Y765012D01*
X187669Y766391D01*
X191638Y770360D01*
X192865D01*
X193480Y770238D01*
X193480Y770238D01*
X198785D01*
X200425Y769142D01*
X202860Y768658D01*
X202860Y768658D01*
X211420D01*
Y766730D01*
X228000D01*
Y772727D01*
X231236D01*
X231236Y772727D01*
X233281Y773134D01*
X235014Y774292D01*
X236429Y775707D01*
X252222D01*
X252904Y775843D01*
X264668D01*
Y786257D01*
X252904D01*
X252222Y786393D01*
X234216D01*
X234216Y786393D01*
X232171Y785986D01*
X230438Y784828D01*
X230438Y784828D01*
X229023Y783413D01*
X222760D01*
X222244Y783310D01*
X211420D01*
Y781382D01*
X205355D01*
X203715Y782478D01*
X201720Y782875D01*
Y785440D01*
X182640D01*
Y779358D01*
X180535Y777252D01*
X140370D01*
Y783940D01*
X123790D01*
Y782012D01*
X115885D01*
X115565Y782319D01*
X115529Y782400D01*
X109220D01*
Y792400D01*
X115529D01*
X115565Y792481D01*
X115885Y792788D01*
X123790D01*
Y790860D01*
X140370D01*
Y797548D01*
X180535D01*
X182640Y795442D01*
Y789360D01*
X201720D01*
Y791925D01*
X203715Y792322D01*
X205355Y793418D01*
X211420D01*
Y791490D01*
X222244D01*
X222760Y791387D01*
X229023D01*
X230438Y789972D01*
X230438Y789972D01*
X232171Y788814D01*
X234216Y788407D01*
X234216Y788407D01*
X252222D01*
X252904Y788543D01*
X264668D01*
Y798957D01*
X252904D01*
X252222Y799093D01*
X236429D01*
X235014Y800508D01*
X233281Y801666D01*
X231236Y802073D01*
X231236Y802073D01*
X228000D01*
Y808070D01*
X211420D01*
Y806142D01*
X202860D01*
X202860Y806142D01*
X200425Y805658D01*
X198785Y804562D01*
X193480D01*
X193480Y804562D01*
X192865Y804440D01*
X191638D01*
X187669Y808409D01*
X185605Y809788D01*
X183170Y810272D01*
X183170Y810272D01*
X136840D01*
X134405Y809788D01*
X132341Y808409D01*
X132341Y808409D01*
X131372Y807440D01*
X123790D01*
Y805512D01*
X115280D01*
X114858Y806530D01*
X109220D01*
Y811530D01*
X104220D01*
Y815779D01*
X103987Y815546D01*
X101753D01*
X101520Y815779D01*
Y811530D01*
X91520D01*
Y815779D01*
X91287Y815546D01*
X89053D01*
X88820Y815779D01*
Y811530D01*
X83820D01*
Y806530D01*
X78182D01*
X77760Y805512D01*
X72420D01*
X70709Y807224D01*
X71690Y810886D01*
Y814714D01*
X70699Y818412D01*
X68785Y821728D01*
X66078Y824435D01*
X62762Y826349D01*
X59064Y827340D01*
D02*
G37*
G36*
X179720Y782400D02*
X175180D01*
Y779860D01*
X179720D01*
Y782400D01*
D02*
G37*
G36*
X165180Y794940D02*
X160640D01*
Y792743D01*
X158670D01*
Y787400D01*
Y782057D01*
X160640D01*
Y779860D01*
X165180D01*
Y787400D01*
Y794940D01*
D02*
G37*
G36*
X228000Y759810D02*
X224710D01*
Y756520D01*
X228000D01*
Y759810D01*
D02*
G37*
G36*
X214710D02*
X211420D01*
Y756520D01*
X214710D01*
Y759810D01*
D02*
G37*
G36*
X228000Y746520D02*
X224710D01*
Y743230D01*
X228000D01*
Y746520D01*
D02*
G37*
G36*
X214710D02*
X211420D01*
Y743230D01*
X214710D01*
Y746520D01*
D02*
G37*
G36*
X194390Y693178D02*
X193931Y692914D01*
X193099Y692081D01*
X191770Y691486D01*
X190441Y692081D01*
X189609Y692914D01*
X189150Y693178D01*
Y685800D01*
Y678421D01*
X189609Y678686D01*
X190441Y679519D01*
X191770Y680115D01*
X193099Y679519D01*
X193931Y678686D01*
X194390Y678421D01*
Y685800D01*
Y693178D01*
D02*
G37*
G36*
X179150D02*
X178691Y692914D01*
X177036Y691259D01*
X176895Y691014D01*
X174895D01*
X174754Y691259D01*
X173099Y692914D01*
X172640Y693178D01*
Y685800D01*
Y678421D01*
X173099Y678686D01*
X174754Y680341D01*
X174895Y680586D01*
X176895D01*
X177036Y680341D01*
X178691Y678686D01*
X179150Y678421D01*
Y685800D01*
Y693178D01*
D02*
G37*
G36*
X204390D02*
Y690800D01*
X206768D01*
X206504Y691259D01*
X204849Y692914D01*
X204390Y693178D01*
D02*
G37*
G36*
X162640D02*
X162181Y692914D01*
X160526Y691259D01*
X160261Y690800D01*
X162640D01*
Y693178D01*
D02*
G37*
G36*
X238230Y690760D02*
X234190D01*
Y685720D01*
X238230D01*
Y690760D01*
D02*
G37*
G36*
X152440Y686470D02*
X149150D01*
Y683180D01*
X152440D01*
Y686470D01*
D02*
G37*
G36*
X206768Y680800D02*
X204390D01*
Y678421D01*
X204849Y678686D01*
X206504Y680341D01*
X206768Y680800D01*
D02*
G37*
G36*
X162640D02*
X160261D01*
X160526Y680341D01*
X162181Y678686D01*
X162640Y678421D01*
Y680800D01*
D02*
G37*
G36*
X238230Y675720D02*
X234190D01*
Y670680D01*
X238230D01*
Y675720D01*
D02*
G37*
G36*
X152440Y673180D02*
X149150D01*
Y669890D01*
X152440D01*
Y673180D01*
D02*
G37*
G36*
Y664880D02*
X149150D01*
Y661590D01*
X152440D01*
Y664880D01*
D02*
G37*
G36*
Y651590D02*
X149150D01*
Y648300D01*
X152440D01*
Y651590D01*
D02*
G37*
G36*
X308530Y660496D02*
Y654590D01*
X309135D01*
Y658690D01*
X308879Y659974D01*
X308530Y660496D01*
D02*
G37*
G36*
X309135Y644590D02*
X308530D01*
Y638684D01*
X308879Y639206D01*
X309135Y640490D01*
Y644590D01*
D02*
G37*
G36*
X266600Y628650D02*
X264260D01*
X261999Y628044D01*
X259971Y626874D01*
X258316Y625219D01*
X257146Y623191D01*
X256540Y620930D01*
Y618590D01*
X257146Y616329D01*
X258316Y614301D01*
X259725Y612892D01*
X259579Y611341D01*
X259418Y610804D01*
X258087Y610510D01*
X258050Y610517D01*
X257352Y611562D01*
X256264Y612289D01*
X254980Y612545D01*
X250480D01*
X249196Y612289D01*
X248108Y611562D01*
X247410Y610517D01*
X247159Y610474D01*
X245601D01*
X245350Y610517D01*
X244652Y611562D01*
X243564Y612289D01*
X242280Y612545D01*
X237780D01*
X236496Y612289D01*
X235408Y611562D01*
X234710Y610517D01*
X234459Y610474D01*
X232901D01*
X232650Y610517D01*
X231952Y611562D01*
X230864Y612289D01*
X229580Y612545D01*
X225080D01*
X223796Y612289D01*
X222708Y611562D01*
X222010Y610517D01*
X221759Y610474D01*
X220201D01*
X219950Y610517D01*
X219252Y611562D01*
X218164Y612289D01*
X216880Y612545D01*
X212380D01*
X211096Y612289D01*
X210008Y611562D01*
X209281Y610474D01*
X209025Y609190D01*
Y590990D01*
X209281Y589706D01*
X210008Y588618D01*
X211096Y587891D01*
X212380Y587636D01*
X216880D01*
X218164Y587891D01*
X219252Y588618D01*
X219950Y589663D01*
X220201Y589706D01*
X221759D01*
X222010Y589663D01*
X222708Y588618D01*
X223796Y587891D01*
X225080Y587636D01*
X229580D01*
X230864Y587891D01*
X231952Y588618D01*
X232650Y589663D01*
X232901Y589706D01*
X234459D01*
X234710Y589663D01*
X235408Y588618D01*
X236496Y587891D01*
X237780Y587636D01*
X242280D01*
X243564Y587891D01*
X244652Y588618D01*
X245350Y589663D01*
X245601Y589706D01*
X247159D01*
X247410Y589663D01*
X248108Y588618D01*
X249196Y587891D01*
X250480Y587636D01*
X254980D01*
X256264Y587891D01*
X257352Y588618D01*
X258050Y589663D01*
X258301Y589706D01*
X259859D01*
X260110Y589663D01*
X260808Y588618D01*
X261896Y587891D01*
X263180Y587636D01*
X267680D01*
X268964Y587891D01*
X270052Y588618D01*
X270750Y589663D01*
X271001Y589706D01*
X272559D01*
X272810Y589663D01*
X273508Y588618D01*
X274596Y587891D01*
X275880Y587636D01*
X280380D01*
X281664Y587891D01*
X282752Y588618D01*
X283450Y589663D01*
X283701Y589706D01*
X285259D01*
X285510Y589663D01*
X286208Y588618D01*
X287296Y587891D01*
X288580Y587636D01*
X293080D01*
X294364Y587891D01*
X295452Y588618D01*
X295887Y589270D01*
X297887Y588823D01*
Y580270D01*
X292560Y580270D01*
X290560Y580270D01*
X287600D01*
Y570230D01*
Y560190D01*
X290560D01*
X291640Y560190D01*
X293640Y560190D01*
X299457D01*
Y539423D01*
X284807Y524773D01*
X268801D01*
X268734Y524889D01*
X267079Y526544D01*
X265051Y527714D01*
X262790Y528320D01*
X260450D01*
X258189Y527714D01*
X256161Y526544D01*
X254865Y525248D01*
X252130D01*
Y528670D01*
X235550D01*
Y512090D01*
X252130D01*
Y514562D01*
X254165D01*
X254506Y513971D01*
X256161Y512316D01*
X258189Y511146D01*
X260450Y510540D01*
X262790D01*
X265051Y511146D01*
X267079Y512316D01*
X268734Y513971D01*
X268801Y514087D01*
X287020D01*
X287020Y514087D01*
X289065Y514494D01*
X290798Y515652D01*
X308578Y533432D01*
X308578Y533432D01*
X309736Y535165D01*
X310143Y537210D01*
Y560190D01*
X310640D01*
Y580270D01*
X308573D01*
Y589248D01*
X308879Y589706D01*
X309135Y590990D01*
Y609190D01*
X308879Y610474D01*
X308152Y611562D01*
X307064Y612289D01*
X305780Y612545D01*
X301280D01*
X299996Y612289D01*
X298908Y611562D01*
X298210Y610517D01*
X297959Y610474D01*
X296401D01*
X296150Y610517D01*
X295452Y611562D01*
X294364Y612289D01*
X293080Y612545D01*
X288580D01*
X287296Y612289D01*
X286208Y611562D01*
X285510Y610517D01*
X285259Y610474D01*
X283701D01*
X283450Y610517D01*
X282752Y611562D01*
X281664Y612289D01*
X280380Y612545D01*
X275880D01*
X274596Y612289D01*
X273508Y611562D01*
X271467Y611840D01*
X270889Y612646D01*
X272544Y614301D01*
X273714Y616329D01*
X274320Y618590D01*
Y620930D01*
X273714Y623191D01*
X272544Y625219D01*
X270889Y626874D01*
X268861Y628044D01*
X266600Y628650D01*
D02*
G37*
G36*
X152120Y601380D02*
X148830D01*
Y598090D01*
X152120D01*
Y601380D01*
D02*
G37*
G36*
Y588090D02*
X148830D01*
Y584800D01*
X152120D01*
Y588090D01*
D02*
G37*
G36*
Y579790D02*
X148830D01*
Y576500D01*
X152120D01*
Y579790D01*
D02*
G37*
G36*
X277600Y580270D02*
X273560D01*
Y575230D01*
X277600D01*
Y580270D01*
D02*
G37*
G36*
X152120Y566500D02*
X148830D01*
Y563210D01*
X152120D01*
Y566500D01*
D02*
G37*
G36*
X277600Y565230D02*
X273560D01*
Y560190D01*
X277600D01*
Y565230D01*
D02*
G37*
G36*
X114220Y522999D02*
Y520620D01*
X116599D01*
X116334Y521079D01*
X114679Y522734D01*
X114220Y522999D01*
D02*
G37*
G36*
X228480Y518900D02*
X223440D01*
Y514860D01*
X228480D01*
Y518900D01*
D02*
G37*
G36*
X213440D02*
X208400D01*
Y514860D01*
X213440D01*
Y518900D01*
D02*
G37*
G36*
X116599Y510620D02*
X114220D01*
Y508242D01*
X114679Y508506D01*
X116334Y510161D01*
X116599Y510620D01*
D02*
G37*
G36*
X167110Y509468D02*
X158010D01*
X156258Y509119D01*
X154773Y508127D01*
X153780Y506642D01*
X153432Y504890D01*
Y503183D01*
X139716D01*
X138414Y503934D01*
X136751Y504380D01*
X135029D01*
X133366Y503934D01*
X131874Y503073D01*
X130657Y501856D01*
X129796Y500364D01*
X129350Y498701D01*
Y496979D01*
X129796Y495316D01*
X130657Y493824D01*
X131874Y492607D01*
X133366Y491746D01*
X135029Y491300D01*
X136751D01*
X138414Y491746D01*
X139716Y492497D01*
X153432D01*
Y490790D01*
X153780Y489038D01*
X154773Y487553D01*
X156258Y486561D01*
X158010Y486212D01*
X167110D01*
X168862Y486561D01*
X170347Y487553D01*
X171339Y489038D01*
X171688Y490790D01*
Y504890D01*
X171339Y506642D01*
X170347Y508127D01*
X168862Y509119D01*
X167110Y509468D01*
D02*
G37*
G36*
X195300Y482000D02*
X192010D01*
Y478710D01*
X195300D01*
Y482000D01*
D02*
G37*
G36*
X120160Y479314D02*
X116060D01*
Y478710D01*
X121966D01*
X121444Y479059D01*
X120160Y479314D01*
D02*
G37*
G36*
X182010Y482000D02*
X178720D01*
Y478710D01*
X182010D01*
Y482000D01*
D02*
G37*
G36*
X106060Y479314D02*
X101960D01*
X100676Y479059D01*
X100154Y478710D01*
X106060D01*
Y479314D01*
D02*
G37*
G36*
X195300Y468710D02*
X192010D01*
Y465420D01*
X195300D01*
Y468710D01*
D02*
G37*
G36*
X182010D02*
X178720D01*
Y465420D01*
X182010D01*
Y468710D01*
D02*
G37*
G36*
X191030Y441840D02*
Y436800D01*
X195070D01*
Y441840D01*
X191030D01*
D02*
G37*
G36*
X195070Y426800D02*
X191030D01*
Y421760D01*
X195070D01*
Y426800D01*
D02*
G37*
G36*
X93860Y424940D02*
X88820D01*
Y420900D01*
X93860D01*
Y424940D01*
D02*
G37*
G36*
X78820D02*
X73780D01*
Y420900D01*
X78820D01*
Y424940D01*
D02*
G37*
G36*
X195300Y418500D02*
X192010D01*
Y415210D01*
X195300D01*
Y418500D01*
D02*
G37*
G36*
X182010D02*
X178720D01*
Y415210D01*
X182010D01*
Y418500D01*
D02*
G37*
G36*
X195300Y405210D02*
X192010D01*
Y401920D01*
X195300D01*
Y405210D01*
D02*
G37*
G36*
X182010D02*
X178720D01*
Y401920D01*
X182010D01*
Y405210D01*
D02*
G37*
G36*
X136751Y426910D02*
X135029D01*
X133366Y426464D01*
X131874Y425603D01*
X130657Y424386D01*
X129796Y422894D01*
X129350Y421231D01*
Y419509D01*
X129796Y417846D01*
X130050Y417405D01*
Y412670D01*
X122110D01*
Y397590D01*
X141190D01*
Y412670D01*
X140735D01*
Y415966D01*
X141123Y416354D01*
X141984Y417846D01*
X142430Y419509D01*
Y421231D01*
X141984Y422894D01*
X141123Y424386D01*
X139906Y425603D01*
X138414Y426464D01*
X136751Y426910D01*
D02*
G37*
G36*
X352045Y438405D02*
X331215D01*
Y417575D01*
X335812D01*
Y395640D01*
X332390D01*
Y379060D01*
X348970D01*
Y382007D01*
X353450D01*
X353951Y381506D01*
X355979Y380336D01*
X358240Y379730D01*
X360580D01*
X362841Y380336D01*
X364869Y381506D01*
X366524Y383161D01*
X367694Y385189D01*
X368300Y387450D01*
Y389790D01*
X367694Y392051D01*
X366524Y394079D01*
X364869Y395734D01*
X362841Y396904D01*
X360580Y397510D01*
X358240D01*
X355979Y396904D01*
X353951Y395734D01*
X352296Y394079D01*
X351496Y392693D01*
X348970D01*
Y395640D01*
X346498D01*
Y417575D01*
X352045D01*
Y438405D01*
D02*
G37*
G36*
X364410Y370598D02*
Y368220D01*
X366788D01*
X366524Y368679D01*
X364869Y370334D01*
X364410Y370598D01*
D02*
G37*
G36*
X366788Y358220D02*
X364410D01*
Y355841D01*
X364869Y356106D01*
X366524Y357761D01*
X366788Y358220D01*
D02*
G37*
G36*
X342770Y373260D02*
Y363220D01*
Y353180D01*
X346810D01*
Y357877D01*
X352229D01*
X352296Y357761D01*
X353951Y356106D01*
X354410Y355841D01*
Y363220D01*
Y370598D01*
X353951Y370334D01*
X352296Y368679D01*
X352229Y368563D01*
X346810D01*
Y373260D01*
X342770D01*
D02*
G37*
G36*
Y346590D02*
Y341550D01*
X346810D01*
Y346590D01*
X342770D01*
D02*
G37*
G36*
X346810Y331550D02*
X342770D01*
Y326510D01*
X346810D01*
Y331550D01*
D02*
G37*
G36*
X344230Y310300D02*
Y303820D01*
X346493D01*
Y306857D01*
X346205Y308302D01*
X345387Y309527D01*
X344230Y310300D01*
D02*
G37*
G36*
X334230Y310300D02*
X333073Y309527D01*
X332255Y308302D01*
X331968Y306857D01*
Y303820D01*
X334230D01*
Y310300D01*
D02*
G37*
G36*
X378950Y305566D02*
X378419Y305211D01*
X377382Y303660D01*
X377088Y302180D01*
X378950D01*
Y305566D01*
D02*
G37*
G36*
Y292180D02*
X377088D01*
X377382Y290700D01*
X378419Y289149D01*
X378950Y288794D01*
Y292180D01*
D02*
G37*
G36*
X334230Y293820D02*
X331968D01*
Y290783D01*
X332255Y289338D01*
X333073Y288113D01*
X334230Y287340D01*
Y293820D01*
D02*
G37*
G36*
X346493D02*
X344230D01*
Y287340D01*
X345387Y288113D01*
X346205Y289338D01*
X346493Y290783D01*
Y293820D01*
D02*
G37*
G36*
X178990Y133028D02*
Y127590D01*
X184429D01*
X183224Y129676D01*
X181076Y131824D01*
X178990Y133028D01*
D02*
G37*
G36*
X168990D02*
X166904Y131824D01*
X164756Y129676D01*
X163552Y127590D01*
X168990D01*
Y133028D01*
D02*
G37*
G36*
X140370Y127990D02*
X137080D01*
Y124700D01*
X140370D01*
Y127990D01*
D02*
G37*
G36*
X127080D02*
X123790D01*
Y124700D01*
X127080D01*
Y127990D01*
D02*
G37*
G36*
X184429Y117590D02*
X178990D01*
Y112151D01*
X181076Y113356D01*
X183224Y115504D01*
X184429Y117590D01*
D02*
G37*
G36*
X168990D02*
X163552D01*
X164756Y115504D01*
X166904Y113356D01*
X168990Y112151D01*
Y117590D01*
D02*
G37*
G36*
X1023540Y261672D02*
Y259000D01*
X1026212D01*
X1025857Y259615D01*
X1024155Y261317D01*
X1023540Y261672D01*
D02*
G37*
G36*
X1013540D02*
X1012925Y261317D01*
X1011223Y259615D01*
X1010868Y259000D01*
X1013540D01*
Y261672D01*
D02*
G37*
G36*
X963850Y260570D02*
Y257730D01*
X966690D01*
X966284Y258434D01*
X964554Y260164D01*
X963850Y260570D01*
D02*
G37*
G36*
X913050D02*
Y257730D01*
X915890D01*
X915484Y258434D01*
X913754Y260164D01*
X913050Y260570D01*
D02*
G37*
G36*
X852090D02*
Y257730D01*
X854930D01*
X854524Y258434D01*
X852794Y260164D01*
X852090Y260570D01*
D02*
G37*
G36*
X801290D02*
Y257730D01*
X804130D01*
X803724Y258434D01*
X801994Y260164D01*
X801290Y260570D01*
D02*
G37*
G36*
X739060D02*
Y257730D01*
X741900D01*
X741494Y258434D01*
X739764Y260164D01*
X739060Y260570D01*
D02*
G37*
G36*
X688260D02*
Y257730D01*
X691100D01*
X690694Y258434D01*
X688964Y260164D01*
X688260Y260570D01*
D02*
G37*
G36*
X626030D02*
Y257730D01*
X628870D01*
X628464Y258434D01*
X626734Y260164D01*
X626030Y260570D01*
D02*
G37*
G36*
X575230D02*
Y257730D01*
X578070D01*
X577664Y258434D01*
X575934Y260164D01*
X575230Y260570D01*
D02*
G37*
G36*
X511730D02*
Y257730D01*
X514570D01*
X514164Y258434D01*
X512434Y260164D01*
X511730Y260570D01*
D02*
G37*
G36*
X460930D02*
Y257730D01*
X463770D01*
X463364Y258434D01*
X461634Y260164D01*
X460930Y260570D01*
D02*
G37*
G36*
X565230D02*
X564526Y260164D01*
X562796Y258434D01*
X562390Y257730D01*
X565230D01*
Y260570D01*
D02*
G37*
G36*
X501730D02*
X501026Y260164D01*
X499296Y258434D01*
X498890Y257730D01*
X501730D01*
Y260570D01*
D02*
G37*
G36*
X450930D02*
X450226Y260164D01*
X448496Y258434D01*
X448090Y257730D01*
X450930D01*
Y260570D01*
D02*
G37*
G36*
X953850D02*
X953146Y260164D01*
X951416Y258434D01*
X951010Y257730D01*
X953850D01*
Y260570D01*
D02*
G37*
G36*
X903050D02*
X902346Y260164D01*
X900616Y258434D01*
X900210Y257730D01*
X903050D01*
Y260570D01*
D02*
G37*
G36*
X842090D02*
X841386Y260164D01*
X839656Y258434D01*
X839250Y257730D01*
X842090D01*
Y260570D01*
D02*
G37*
G36*
X791290D02*
X790586Y260164D01*
X788856Y258434D01*
X788450Y257730D01*
X791290D01*
Y260570D01*
D02*
G37*
G36*
X729060D02*
X728356Y260164D01*
X726626Y258434D01*
X726220Y257730D01*
X729060D01*
Y260570D01*
D02*
G37*
G36*
X678260D02*
X677556Y260164D01*
X675826Y258434D01*
X675420Y257730D01*
X678260D01*
Y260570D01*
D02*
G37*
G36*
X616030D02*
X615326Y260164D01*
X613596Y258434D01*
X613190Y257730D01*
X616030D01*
Y260570D01*
D02*
G37*
G36*
X1026212Y249000D02*
X1023540D01*
Y246328D01*
X1024155Y246683D01*
X1025857Y248386D01*
X1026212Y249000D01*
D02*
G37*
G36*
X1013540D02*
X1010868D01*
X1011223Y248386D01*
X1012925Y246683D01*
X1013540Y246328D01*
Y249000D01*
D02*
G37*
G36*
X966690Y247730D02*
X963850D01*
Y244890D01*
X964554Y245296D01*
X966284Y247026D01*
X966690Y247730D01*
D02*
G37*
G36*
X915890D02*
X913050D01*
Y244890D01*
X913754Y245296D01*
X915484Y247026D01*
X915890Y247730D01*
D02*
G37*
G36*
X854930D02*
X852090D01*
Y244890D01*
X852794Y245296D01*
X854524Y247026D01*
X854930Y247730D01*
D02*
G37*
G36*
X804130D02*
X801290D01*
Y244890D01*
X801994Y245296D01*
X803724Y247026D01*
X804130Y247730D01*
D02*
G37*
G36*
X741900D02*
X739060D01*
Y244890D01*
X739764Y245296D01*
X741494Y247026D01*
X741900Y247730D01*
D02*
G37*
G36*
X691100D02*
X688260D01*
Y244890D01*
X688964Y245296D01*
X690694Y247026D01*
X691100Y247730D01*
D02*
G37*
G36*
X628870D02*
X626030D01*
Y244890D01*
X626734Y245296D01*
X628464Y247026D01*
X628870Y247730D01*
D02*
G37*
G36*
X463770D02*
X460930D01*
Y244890D01*
X461634Y245296D01*
X463364Y247026D01*
X463770Y247730D01*
D02*
G37*
G36*
X578070D02*
X575230D01*
Y244890D01*
X575934Y245296D01*
X577664Y247026D01*
X578070Y247730D01*
D02*
G37*
G36*
X514570D02*
X511730D01*
Y244890D01*
X512434Y245296D01*
X514164Y247026D01*
X514570Y247730D01*
D02*
G37*
G36*
X565230D02*
X562390D01*
X562796Y247026D01*
X564526Y245296D01*
X565230Y244890D01*
Y247730D01*
D02*
G37*
G36*
X501730D02*
X498890D01*
X499296Y247026D01*
X501026Y245296D01*
X501730Y244890D01*
Y247730D01*
D02*
G37*
G36*
X450930D02*
X448090D01*
X448496Y247026D01*
X450226Y245296D01*
X450930Y244890D01*
Y247730D01*
D02*
G37*
G36*
X953850D02*
X951010D01*
X951416Y247026D01*
X953146Y245296D01*
X953850Y244890D01*
Y247730D01*
D02*
G37*
G36*
X903050D02*
X900210D01*
X900616Y247026D01*
X902346Y245296D01*
X903050Y244890D01*
Y247730D01*
D02*
G37*
G36*
X842090D02*
X839250D01*
X839656Y247026D01*
X841386Y245296D01*
X842090Y244890D01*
Y247730D01*
D02*
G37*
G36*
X791290D02*
X788450D01*
X788856Y247026D01*
X790586Y245296D01*
X791290Y244890D01*
Y247730D01*
D02*
G37*
G36*
X729060D02*
X726220D01*
X726626Y247026D01*
X728356Y245296D01*
X729060Y244890D01*
Y247730D01*
D02*
G37*
G36*
X678260D02*
X675420D01*
X675826Y247026D01*
X677556Y245296D01*
X678260Y244890D01*
Y247730D01*
D02*
G37*
G36*
X616030D02*
X613190D01*
X613596Y247026D01*
X615326Y245296D01*
X616030Y244890D01*
Y247730D01*
D02*
G37*
G36*
X942740Y262020D02*
X924160D01*
Y243440D01*
X927115D01*
Y234670D01*
X926430D01*
Y218090D01*
X943010D01*
Y234670D01*
X942325D01*
Y243440D01*
X942740D01*
Y262020D01*
D02*
G37*
G36*
X891940D02*
X873360D01*
Y243440D01*
X875680D01*
Y234670D01*
X875630D01*
Y218090D01*
X892210D01*
Y234670D01*
X890890D01*
Y243440D01*
X891940D01*
Y262020D01*
D02*
G37*
G36*
X830980D02*
X812400D01*
Y243440D01*
X814085D01*
Y234670D01*
X813400D01*
Y218090D01*
X829980D01*
Y234670D01*
X829295D01*
Y243440D01*
X830980D01*
Y262020D01*
D02*
G37*
G36*
X780180D02*
X761600D01*
Y243440D01*
X763285D01*
Y234670D01*
X762600D01*
Y218090D01*
X779180D01*
Y234670D01*
X778495D01*
Y243440D01*
X780180D01*
Y262020D01*
D02*
G37*
G36*
X717950D02*
X699370D01*
Y243440D01*
X702325D01*
Y234670D01*
X701640D01*
Y218090D01*
X718220D01*
Y234670D01*
X717535D01*
Y243440D01*
X717950D01*
Y262020D01*
D02*
G37*
G36*
X667150D02*
X648570D01*
Y243440D01*
X650255D01*
Y234670D01*
X649570D01*
Y218090D01*
X666150D01*
Y234670D01*
X665465D01*
Y243440D01*
X667150D01*
Y262020D01*
D02*
G37*
G36*
X604920D02*
X586340D01*
Y243440D01*
X589295D01*
Y234670D01*
X588610D01*
Y218090D01*
X605190D01*
Y234670D01*
X604505D01*
Y243440D01*
X604920D01*
Y262020D01*
D02*
G37*
G36*
X554120D02*
X535540D01*
Y243440D01*
X539154D01*
Y234670D01*
X537810D01*
Y218090D01*
X554390D01*
Y234670D01*
X551776D01*
Y243440D01*
X554120D01*
Y262020D01*
D02*
G37*
G36*
X490620D02*
X472040D01*
Y243440D01*
X474995D01*
Y234670D01*
X474310D01*
Y218090D01*
X490890D01*
Y234670D01*
X490205D01*
Y243440D01*
X490620D01*
Y262020D01*
D02*
G37*
G36*
X439820D02*
X421240D01*
Y243440D01*
X422925D01*
Y234670D01*
X422240D01*
Y218090D01*
X438820D01*
Y234670D01*
X438135D01*
Y243440D01*
X439820D01*
Y262020D01*
D02*
G37*
G36*
X1002284Y263144D02*
X983996D01*
Y255611D01*
X975062Y246678D01*
X973854Y245103D01*
X973317Y243806D01*
X973094Y243268D01*
X972835Y241300D01*
Y233720D01*
X972150D01*
Y217140D01*
X988730D01*
Y233720D01*
X988045D01*
Y238150D01*
X994751Y244856D01*
X1002284D01*
Y263144D01*
D02*
G37*
G36*
X1023177Y228300D02*
X1018983D01*
X1014870Y227482D01*
X1010995Y225877D01*
X1007508Y223547D01*
X1004543Y220582D01*
X1002213Y217095D01*
X1000608Y213220D01*
X999790Y209107D01*
Y204913D01*
X1000608Y200800D01*
X1002213Y196925D01*
X1004543Y193438D01*
X1007508Y190473D01*
X1010995Y188143D01*
X1014870Y186538D01*
X1018983Y185720D01*
X1023177D01*
X1027290Y186538D01*
X1031165Y188143D01*
X1034652Y190473D01*
X1037617Y193438D01*
X1039947Y196925D01*
X1041552Y200800D01*
X1042370Y204913D01*
Y209107D01*
X1041552Y213220D01*
X1039947Y217095D01*
X1037617Y220582D01*
X1034652Y223547D01*
X1031165Y225877D01*
X1027290Y227482D01*
X1023177Y228300D01*
D02*
G37*
G36*
X988730Y210220D02*
X972150D01*
Y193640D01*
X972835D01*
Y99060D01*
X973094Y97092D01*
X973317Y96554D01*
X973854Y95258D01*
X975062Y93682D01*
X986220Y82525D01*
Y79366D01*
X987211Y75668D01*
X989125Y72352D01*
X991832Y69645D01*
X995148Y67731D01*
X998846Y66740D01*
X1002674D01*
X1006372Y67731D01*
X1009688Y69645D01*
X1012395Y72352D01*
X1014309Y75668D01*
X1015300Y79366D01*
Y83194D01*
X1014309Y86892D01*
X1012395Y90208D01*
X1009688Y92915D01*
X1006372Y94829D01*
X1002674Y95820D01*
X998846D01*
X995367Y94888D01*
X988045Y102210D01*
Y193640D01*
X988730D01*
Y210220D01*
D02*
G37*
G36*
X943010Y211170D02*
X926430D01*
Y194590D01*
X927115D01*
Y96520D01*
X927374Y94552D01*
X927597Y94014D01*
X928134Y92718D01*
X929342Y91142D01*
X935815Y84670D01*
X935420Y83194D01*
Y79366D01*
X936411Y75668D01*
X938325Y72352D01*
X941032Y69645D01*
X944348Y67731D01*
X948046Y66740D01*
X951874D01*
X955572Y67731D01*
X958888Y69645D01*
X961595Y72352D01*
X963509Y75668D01*
X964500Y79366D01*
Y83194D01*
X963509Y86892D01*
X961595Y90208D01*
X958888Y92915D01*
X955572Y94829D01*
X951874Y95820D01*
X948046D01*
X946571Y95425D01*
X942325Y99670D01*
Y194590D01*
X943010D01*
Y211170D01*
D02*
G37*
G36*
X892210D02*
X875630D01*
Y194590D01*
X876315D01*
Y96520D01*
X876574Y94552D01*
X876797Y94014D01*
X877334Y92718D01*
X878542Y91142D01*
X885015Y84670D01*
X884620Y83194D01*
Y79366D01*
X885611Y75668D01*
X887525Y72352D01*
X890232Y69645D01*
X893548Y67731D01*
X897246Y66740D01*
X901074D01*
X904772Y67731D01*
X908088Y69645D01*
X910795Y72352D01*
X912709Y75668D01*
X913700Y79366D01*
Y83194D01*
X912709Y86892D01*
X910795Y90208D01*
X908088Y92915D01*
X904772Y94829D01*
X901074Y95820D01*
X897246D01*
X895770Y95425D01*
X891525Y99670D01*
Y194590D01*
X892210D01*
Y211170D01*
D02*
G37*
G36*
X829980D02*
X813400D01*
Y194590D01*
X814085D01*
Y107950D01*
X814344Y105982D01*
X814567Y105444D01*
X815104Y104148D01*
X816312Y102572D01*
X834215Y84670D01*
X833820Y83194D01*
Y79366D01*
X834811Y75668D01*
X836725Y72352D01*
X839432Y69645D01*
X842748Y67731D01*
X846446Y66740D01*
X850274D01*
X853972Y67731D01*
X857288Y69645D01*
X859995Y72352D01*
X861909Y75668D01*
X862900Y79366D01*
Y83194D01*
X861909Y86892D01*
X859995Y90208D01*
X857288Y92915D01*
X853972Y94829D01*
X850274Y95820D01*
X846446D01*
X844970Y95425D01*
X829295Y111100D01*
Y194590D01*
X829980D01*
Y211170D01*
D02*
G37*
G36*
X779180D02*
X762600D01*
Y194590D01*
X763285D01*
Y95820D01*
X751270D01*
Y66740D01*
X780350D01*
Y95820D01*
X778495D01*
Y194590D01*
X779180D01*
Y211170D01*
D02*
G37*
G36*
X718220D02*
X701640D01*
Y194590D01*
X702325D01*
Y88389D01*
X701461Y86892D01*
X700470Y83194D01*
Y79366D01*
X701461Y75668D01*
X703375Y72352D01*
X706082Y69645D01*
X709398Y67731D01*
X713096Y66740D01*
X716924D01*
X720622Y67731D01*
X723938Y69645D01*
X726645Y72352D01*
X728559Y75668D01*
X729550Y79366D01*
Y83194D01*
X728559Y86892D01*
X726645Y90208D01*
X723938Y92915D01*
X720622Y94829D01*
X717535Y95656D01*
Y194590D01*
X718220D01*
Y211170D01*
D02*
G37*
G36*
X666150D02*
X649570D01*
Y194590D01*
X650255D01*
Y87630D01*
X650454Y86119D01*
X649670Y83194D01*
Y79366D01*
X650661Y75668D01*
X652575Y72352D01*
X655282Y69645D01*
X658598Y67731D01*
X662296Y66740D01*
X666124D01*
X669822Y67731D01*
X673138Y69645D01*
X675845Y72352D01*
X677759Y75668D01*
X678750Y79366D01*
Y83194D01*
X677759Y86892D01*
X675845Y90208D01*
X673138Y92915D01*
X669822Y94829D01*
X666124Y95820D01*
X665465D01*
Y194590D01*
X666150D01*
Y211170D01*
D02*
G37*
G36*
X605190D02*
X588610D01*
Y194590D01*
X589295D01*
Y97790D01*
X589554Y95822D01*
X589777Y95284D01*
X590314Y93988D01*
X591522Y92412D01*
X599265Y84670D01*
X598870Y83194D01*
Y79366D01*
X599861Y75668D01*
X601775Y72352D01*
X604482Y69645D01*
X607798Y67731D01*
X611496Y66740D01*
X615324D01*
X619022Y67731D01*
X622338Y69645D01*
X625045Y72352D01*
X626959Y75668D01*
X627950Y79366D01*
Y83194D01*
X626959Y86892D01*
X625045Y90208D01*
X622338Y92915D01*
X619022Y94829D01*
X615324Y95820D01*
X611496D01*
X610020Y95425D01*
X604505Y100940D01*
Y194590D01*
X605190D01*
Y211170D01*
D02*
G37*
G36*
X554390D02*
X537810D01*
Y194590D01*
X538495D01*
Y99670D01*
X534645Y95820D01*
X516320D01*
Y66740D01*
X545400D01*
Y85065D01*
X551478Y91142D01*
X552686Y92718D01*
X553001Y93477D01*
X553446Y94552D01*
X553705Y96520D01*
Y194590D01*
X554390D01*
Y211170D01*
D02*
G37*
G36*
X490890D02*
X474310D01*
Y194590D01*
X474995D01*
Y94976D01*
X474448Y94829D01*
X471132Y92915D01*
X468425Y90208D01*
X466511Y86892D01*
X465520Y83194D01*
Y79366D01*
X466511Y75668D01*
X468425Y72352D01*
X471132Y69645D01*
X474448Y67731D01*
X478146Y66740D01*
X481974D01*
X485672Y67731D01*
X488988Y69645D01*
X491695Y72352D01*
X493609Y75668D01*
X494600Y79366D01*
Y83194D01*
X493609Y86892D01*
X491695Y90208D01*
X490205Y91698D01*
Y194590D01*
X490890D01*
Y211170D01*
D02*
G37*
G36*
X438820D02*
X422240D01*
Y194590D01*
X422925D01*
Y94412D01*
X420332Y92915D01*
X417625Y90208D01*
X415711Y86892D01*
X414720Y83194D01*
Y79366D01*
X415711Y75668D01*
X417625Y72352D01*
X420332Y69645D01*
X423648Y67731D01*
X427346Y66740D01*
X431174D01*
X434872Y67731D01*
X438188Y69645D01*
X440895Y72352D01*
X442809Y75668D01*
X443800Y79366D01*
Y83194D01*
X442809Y86892D01*
X440895Y90208D01*
X438188Y92915D01*
X438135Y92945D01*
Y194590D01*
X438820D01*
Y211170D01*
D02*
G37*
G36*
X140370Y104490D02*
X137080D01*
Y101200D01*
X140370D01*
Y104490D01*
D02*
G37*
G36*
X127080D02*
X123790D01*
Y101200D01*
X127080D01*
Y104490D01*
D02*
G37*
G36*
X140370Y91200D02*
X137080D01*
Y87910D01*
X140370D01*
Y91200D01*
D02*
G37*
G36*
X127080D02*
X123790D01*
Y87910D01*
X127080D01*
Y91200D01*
D02*
G37*
G36*
X66937Y113900D02*
X62603D01*
X58321Y113222D01*
X54198Y111882D01*
X50336Y109914D01*
X46829Y107366D01*
X43764Y104301D01*
X41216Y100794D01*
X39248Y96932D01*
X37908Y92809D01*
X37230Y88527D01*
Y84192D01*
X37908Y79911D01*
X39248Y75788D01*
X41216Y71926D01*
X43764Y68419D01*
X46829Y65354D01*
X50336Y62806D01*
X54198Y60838D01*
X58321Y59498D01*
X62603Y58820D01*
X66937D01*
X71219Y59498D01*
X75342Y60838D01*
X79204Y62806D01*
X82711Y65354D01*
X85776Y68419D01*
X88324Y71926D01*
X90292Y75788D01*
X91632Y79911D01*
X92310Y84192D01*
Y88527D01*
X91632Y92809D01*
X90292Y96932D01*
X88324Y100794D01*
X85776Y104301D01*
X82711Y107366D01*
X79204Y109914D01*
X75342Y111882D01*
X71219Y113222D01*
X66937Y113900D01*
D02*
G37*
G36*
X178990Y58028D02*
Y52590D01*
X184429D01*
X183224Y54676D01*
X181076Y56824D01*
X178990Y58028D01*
D02*
G37*
G36*
X168990D02*
X166904Y56824D01*
X164756Y54676D01*
X163552Y52590D01*
X168990D01*
Y58028D01*
D02*
G37*
G36*
X184429Y42590D02*
X178990D01*
Y37152D01*
X181076Y38356D01*
X183224Y40504D01*
X184429Y42590D01*
D02*
G37*
G36*
X168990D02*
X163552D01*
X164756Y40504D01*
X166904Y38356D01*
X168990Y37152D01*
Y42590D01*
D02*
G37*
%LPD*%
D10*
X1023620Y459690D02*
X1024255Y460325D01*
Y501015D01*
X1024890Y501650D01*
X887730Y511810D02*
X909320Y490220D01*
X1022800Y460510D02*
X1023620Y459690D01*
X1000310Y460510D02*
X1022800D01*
X999490Y461330D02*
X1000310Y460510D01*
X999490Y398215D02*
Y437830D01*
X993140Y391865D02*
X999490Y398215D01*
X993140Y389890D02*
Y391865D01*
X271460Y822010D02*
X276860Y816610D01*
X908060Y576580D02*
X911860Y580380D01*
Y605790D01*
X889000Y576580D02*
X908060D01*
X1005840Y596900D02*
X1024890Y577850D01*
X974090Y596900D02*
X1005840D01*
X930910Y527050D02*
X948690Y509270D01*
X1022088Y552450D02*
X1024890D01*
X1011928Y562610D02*
X1022088Y552450D01*
X935990Y562610D02*
X1011928D01*
X845820Y511810D02*
X887730D01*
X909320Y461330D02*
Y490220D01*
X935990Y562610D02*
X975360Y523240D01*
X845820Y562610D02*
X935990D01*
X975360Y461330D02*
Y523240D01*
X922020Y535940D02*
X930910Y527050D01*
X843280Y535940D02*
X922020D01*
X948690Y461330D02*
Y509270D01*
X187600Y328930D02*
X189230Y330560D01*
X406400Y728143D02*
Y774700D01*
X412750Y721360D02*
Y721793D01*
X406400Y728143D02*
X412750Y721793D01*
X389890Y721360D02*
Y783590D01*
X406400Y800100D01*
X412750Y601980D02*
Y602413D01*
X416553Y606217D01*
Y638520D01*
X396240Y601980D02*
Y602413D01*
X391153Y607500D02*
X396240Y602413D01*
X391153Y607500D02*
Y638520D01*
X993140Y330200D02*
Y359090D01*
X740410Y515620D02*
Y552450D01*
X632140Y487680D02*
X712470D01*
X740410Y515620D01*
X605790Y461330D02*
X632140Y487680D01*
X750570Y562610D02*
X766620D01*
X740410Y552450D02*
X750570Y562610D01*
X764220Y511810D02*
X766620D01*
X713740Y461330D02*
X764220Y511810D01*
X897890Y629920D02*
X911860D01*
X897770Y361830D02*
X909320Y373380D01*
Y437427D01*
X933450Y359090D02*
X934297Y359937D01*
X944137D02*
X951230Y367030D01*
X934297Y359937D02*
X944137D01*
X951230Y367030D02*
Y435610D01*
X835340Y360360D02*
X845820Y370840D01*
Y436546D01*
X770890Y328930D02*
Y358770D01*
X773940Y361820D01*
X781567D01*
X786130Y366383D01*
Y416240D01*
X764540Y437830D02*
X786130Y416240D01*
X708660Y357820D02*
X710753Y359913D01*
X722510D01*
X730250Y367653D01*
Y421320D01*
X713740Y437830D02*
X730250Y421320D01*
X657860Y357820D02*
X658683Y358643D01*
X671710D01*
X676910Y363843D01*
Y418780D01*
X657860Y437830D02*
X676910Y418780D01*
X595630Y357820D02*
X598680Y360870D01*
X609167D01*
X615950Y367653D01*
Y427670D01*
X605790Y437830D02*
X615950Y427670D01*
X560070Y369570D02*
Y651190D01*
X547880Y360870D02*
X551370D01*
X544830Y357820D02*
X547880Y360870D01*
X551370D02*
X560070Y369570D01*
X442910Y356550D02*
X449580Y363220D01*
Y601980D01*
X543560Y695960D01*
X463550Y594360D02*
X542402Y673212D01*
X463550Y364490D02*
X470220Y357820D01*
X463550Y364490D02*
Y594360D01*
X470220Y357820D02*
X481330D01*
X430530Y356550D02*
X442910D01*
X708660Y328930D02*
Y357820D01*
X657860Y328930D02*
Y357820D01*
X595630Y328930D02*
Y357820D01*
X557210Y654050D02*
X560070Y651190D01*
X543560Y695960D02*
X556260D01*
X542402Y673212D02*
X555102D01*
X556260Y674370D01*
X993140Y382590D02*
Y389890D01*
X821690Y328930D02*
Y356230D01*
X883285Y329565D02*
Y355915D01*
X577850Y652780D02*
X619760D01*
X668020Y701040D01*
X755190D01*
X626110Y674370D02*
X664210Y712470D01*
X758457D01*
X579896Y674370D02*
X626110D01*
X580390Y697230D02*
X632460D01*
X664210Y728980D02*
X755190D01*
X632460Y697230D02*
X664210Y728980D01*
X579120Y741680D02*
X598170D01*
X153670Y787400D02*
X170180D01*
X80355Y518505D02*
X104360D01*
X107245Y515620D02*
X109220D01*
Y474010D02*
X109520Y473710D01*
X104360Y518505D02*
X107245Y515620D01*
X109520Y473710D02*
X111060D01*
X79430Y519430D02*
X80355Y518505D01*
X265430Y649590D02*
Y675250D01*
X260960Y679720D02*
X265430Y675250D01*
X260960Y679720D02*
Y680720D01*
X802640Y624840D02*
X814070Y613410D01*
X793750Y664210D02*
X802640Y655320D01*
X337770Y363220D02*
X359410D01*
X234216Y781050D02*
X252222D01*
X231236Y778070D02*
X234216Y781050D01*
X222760Y778070D02*
X231236D01*
X219710Y775020D02*
X222760Y778070D01*
X234216Y793750D02*
X252222D01*
X231236Y796730D02*
X234216Y793750D01*
X222760Y796730D02*
X231236D01*
X219710Y799780D02*
X222760Y796730D01*
X845820Y613410D02*
X881380D01*
X897890Y629920D01*
X802640Y624840D02*
Y655320D01*
X766620Y664210D02*
X793750D01*
X814070Y613410D02*
X845820D01*
X911860Y605790D02*
Y629920D01*
X821690Y360360D02*
X835340D01*
X755190Y728980D02*
X766620Y740410D01*
X759083Y713097D02*
X764707D01*
X766620Y715010D01*
X758457Y712470D02*
X759083Y713097D01*
X713740Y586740D02*
X767080D01*
X713740Y612140D02*
X768350D01*
X755190Y701040D02*
X766620Y689610D01*
X705010Y578010D02*
X713740Y586740D01*
X703260Y622620D02*
X713740Y612140D01*
X703260Y578010D02*
X705010D01*
X695960Y570710D02*
X703260Y578010D01*
Y622620D02*
Y631140D01*
X695960Y638440D02*
Y648210D01*
X688660Y631140D02*
X695960Y638440D01*
X703260Y631140D01*
X654050D02*
X688660D01*
X695960Y553210D02*
Y563590D01*
Y570710D01*
X654050Y570890D02*
X688660D01*
X695960Y563590D01*
X558505Y746760D02*
Y760385D01*
X556890Y762000D02*
X558505Y760385D01*
X821690Y358770D02*
Y360360D01*
X883285Y358455D02*
X883920Y359090D01*
X886660Y361830D01*
X339090Y298960D02*
X339230Y298820D01*
X276860Y750885D02*
Y816610D01*
Y750885D02*
X286705Y741040D01*
X336550D01*
X252222Y768350D02*
X259395D01*
X276860Y750885D01*
X265430Y600090D02*
Y619760D01*
X316230Y298820D02*
X317500Y300090D01*
X135393Y419873D02*
X135890Y420370D01*
X135393Y407430D02*
Y419873D01*
X131650Y405130D02*
X133092D01*
X135393Y407430D01*
X135890Y497840D02*
X162560D01*
X165270Y430040D02*
X167030Y431800D01*
X165270Y411970D02*
Y430040D01*
X163510Y410210D02*
X165270Y411970D01*
X163510Y389890D02*
Y410210D01*
Y453390D02*
Y473710D01*
X243350Y543390D02*
X243840Y543880D01*
X218930Y543390D02*
X243350D01*
X218440Y542900D02*
X218930Y543390D01*
X218255Y543085D02*
X218440Y542900D01*
X191955Y543085D02*
X218255D01*
X191770Y543270D02*
X191955Y543085D01*
X133350Y448310D02*
X149860Y431800D01*
X167030D01*
X111060Y448310D02*
X133350D01*
X160970Y450850D02*
X163510Y453390D01*
X149860Y450850D02*
X160970D01*
X139700Y461010D02*
X149860Y450850D01*
X111060Y461010D02*
X139700D01*
X109650Y414630D02*
Y435310D01*
X109950Y435610D01*
X111060D01*
X276860Y816610D02*
Y820420D01*
X226060Y822010D02*
X271460D01*
X335280Y833760D02*
X358140D01*
X290200D02*
X335280D01*
X276860Y820420D02*
X290200Y833760D01*
X336550Y741040D02*
X359410D01*
X301600Y570230D02*
X303230Y571860D01*
Y599790D01*
X303530Y600090D01*
X301600Y570230D02*
X304800Y567030D01*
Y537210D02*
Y567030D01*
X287020Y519430D02*
X304800Y537210D01*
X261620Y519430D02*
X287020D01*
X261145Y519905D02*
X261620Y519430D01*
X244315Y519905D02*
X261145D01*
X243840Y520380D02*
X244315Y519905D01*
X340680Y387350D02*
X358140D01*
X359410Y388620D01*
X187010Y389890D02*
X260350D01*
X61260Y435610D02*
X61660D01*
X60960Y435310D02*
X61260Y435610D01*
X60960Y406400D02*
Y435310D01*
Y406400D02*
X70460Y396900D01*
X83820D01*
X111650Y395630D02*
X131360Y375920D01*
X175260D02*
X183960Y384620D01*
X131360Y375920D02*
X175260D01*
X183960Y386840D02*
X187010Y389890D01*
X183960Y384620D02*
Y386840D01*
X109650Y395630D02*
X111650D01*
X109015Y396265D02*
X109650Y395630D01*
X84455Y396265D02*
X109015D01*
X83820Y396900D02*
X84455Y396265D01*
X229870Y306680D02*
X256540D01*
X335280Y800100D02*
Y810260D01*
X336550Y764540D02*
Y773430D01*
X311900Y764540D02*
X336550D01*
X301498Y768350D02*
X308671D01*
X308704Y768317D01*
Y767736D02*
Y768317D01*
Y767736D02*
X311900Y764540D01*
X301498Y806450D02*
X308671D01*
X308704Y806483D02*
Y807064D01*
X311900Y810260D02*
X335280D01*
X308671Y806450D02*
X308704Y806483D01*
Y807064D02*
X311900Y810260D01*
X191215Y523240D02*
Y525515D01*
Y498395D02*
Y523240D01*
X52070Y530860D02*
X62560D01*
Y541960D01*
X62230Y519430D02*
X62560Y519760D01*
Y530860D01*
Y541960D02*
X62890Y542290D01*
X190660Y497840D02*
X191215Y498395D01*
Y525515D02*
X191770Y526070D01*
X886660Y361830D02*
X897770D01*
X933450Y328930D02*
Y356550D01*
X882650Y328930D02*
X883285Y329565D01*
X316630Y427990D02*
X316905Y427715D01*
Y387625D02*
Y427715D01*
Y387625D02*
X317180Y387350D01*
X341155Y427515D02*
X341630Y427990D01*
X341155Y387825D02*
Y427515D01*
X340680Y387350D02*
X341155Y387825D01*
X317180Y387350D02*
X317975Y386555D01*
Y364015D02*
Y386555D01*
Y364015D02*
X318770Y363220D01*
Y336550D02*
Y363220D01*
X317500Y335280D02*
X318770Y336550D01*
X317500Y300090D02*
Y335280D01*
X403180Y296910D02*
X403450Y297180D01*
X403180Y272050D02*
Y296910D01*
X402910Y271780D02*
X403180Y272050D01*
D12*
X50925Y590425D02*
X70955D01*
X50800Y590550D02*
X50925Y590425D01*
X70955D02*
X71080Y590300D01*
X50925Y654175D02*
X70955D01*
X50800Y654050D02*
X50925Y654175D01*
X70955D02*
X71080Y654300D01*
D15*
X873760Y638810D02*
X892351Y657401D01*
X911451D02*
X912451Y658401D01*
X892351Y657401D02*
X911451D01*
X845820Y638810D02*
X873760D01*
X516370Y811890D02*
X579870D01*
X582050Y814070D02*
X764080Y814070D01*
X766620Y816610D01*
X578460Y783590D02*
X580390Y781660D01*
Y762000D02*
Y781660D01*
X579870Y785000D02*
Y811890D01*
X578460Y783590D02*
X579870Y785000D01*
D84*
X1023620Y440690D02*
D03*
Y459690D02*
D03*
X654050Y612140D02*
D03*
Y631140D02*
D03*
Y589890D02*
D03*
Y570890D02*
D03*
X218440Y523900D02*
D03*
Y542900D02*
D03*
X83820Y415900D02*
D03*
Y396900D02*
D03*
X256540Y306680D02*
D03*
Y287680D02*
D03*
X229870Y306680D02*
D03*
Y287680D02*
D03*
D85*
X999490Y437830D02*
D03*
Y461330D02*
D03*
X430530Y202880D02*
D03*
Y226380D02*
D03*
Y356550D02*
D03*
Y380050D02*
D03*
X544830Y357820D02*
D03*
Y381320D02*
D03*
X481330Y357820D02*
D03*
Y381320D02*
D03*
X595630Y357820D02*
D03*
Y381320D02*
D03*
X657860Y357820D02*
D03*
Y381320D02*
D03*
X482600Y202880D02*
D03*
Y226380D02*
D03*
X546100Y202880D02*
D03*
Y226380D02*
D03*
X596900D02*
D03*
Y202880D02*
D03*
X708660Y357820D02*
D03*
Y381320D02*
D03*
X709930Y226380D02*
D03*
Y202880D02*
D03*
X657860Y226380D02*
D03*
Y202880D02*
D03*
X358140Y810260D02*
D03*
Y833760D02*
D03*
X132080Y96200D02*
D03*
Y119700D02*
D03*
X219710Y751520D02*
D03*
Y775020D02*
D03*
X605790Y461330D02*
D03*
Y437830D02*
D03*
X845820Y461330D02*
D03*
Y437830D02*
D03*
X657860Y461330D02*
D03*
Y437830D02*
D03*
X764540Y461330D02*
D03*
Y437830D02*
D03*
X713740Y461330D02*
D03*
Y437830D02*
D03*
X948690Y461330D02*
D03*
Y437830D02*
D03*
X975360Y461330D02*
D03*
Y437830D02*
D03*
X909320Y461330D02*
D03*
Y437830D02*
D03*
X132080Y775650D02*
D03*
Y799150D02*
D03*
X219710Y799780D02*
D03*
X993140Y359090D02*
D03*
Y382590D02*
D03*
X335280Y833760D02*
D03*
Y810260D02*
D03*
X336550Y741040D02*
D03*
Y764540D02*
D03*
X359410Y741040D02*
D03*
Y764540D02*
D03*
X219710Y823280D02*
D03*
X933450Y382590D02*
D03*
Y359090D02*
D03*
X883920Y382590D02*
D03*
Y359090D02*
D03*
X980440Y225430D02*
D03*
Y201930D02*
D03*
X934720Y202880D02*
D03*
Y226380D02*
D03*
X883920Y202880D02*
D03*
Y226380D02*
D03*
X821690Y382270D02*
D03*
Y358770D02*
D03*
X770890Y382270D02*
D03*
Y358770D02*
D03*
X821690Y226380D02*
D03*
Y202880D02*
D03*
X770890Y226380D02*
D03*
Y202880D02*
D03*
X243840Y520380D02*
D03*
Y543880D02*
D03*
D86*
X911860Y629920D02*
D03*
X930860D02*
D03*
X337210Y854710D02*
D03*
X356210D02*
D03*
X268630Y836930D02*
D03*
X287630D02*
D03*
X930250Y660400D02*
D03*
X911250D02*
D03*
X560120Y741680D02*
D03*
X579120D02*
D03*
X578460Y783590D02*
D03*
X559460D02*
D03*
X262230Y680720D02*
D03*
X243230D02*
D03*
X930860Y605790D02*
D03*
X911860D02*
D03*
X930860Y580390D02*
D03*
X911860D02*
D03*
X282600Y570230D02*
D03*
X301600D02*
D03*
X62890Y542290D02*
D03*
X81890D02*
D03*
X337770Y363220D02*
D03*
X318770D02*
D03*
X337770Y336550D02*
D03*
X318770D02*
D03*
X186030Y431800D02*
D03*
X167030D02*
D03*
D87*
X516890Y699770D02*
D03*
X493390D02*
D03*
X517210Y734060D02*
D03*
X493710D02*
D03*
X580710Y654050D02*
D03*
X557210D02*
D03*
X580710Y675640D02*
D03*
X557210D02*
D03*
X580390Y697230D02*
D03*
X556890D02*
D03*
X580390Y762000D02*
D03*
X556890D02*
D03*
X144150Y678180D02*
D03*
X120650D02*
D03*
X120330Y571500D02*
D03*
X143830D02*
D03*
X120650Y656590D02*
D03*
X144150D02*
D03*
X120330Y593090D02*
D03*
X143830D02*
D03*
X120650Y635000D02*
D03*
X144150D02*
D03*
X120330Y614680D02*
D03*
X143830D02*
D03*
X317180Y387350D02*
D03*
X340680D02*
D03*
X187010Y410210D02*
D03*
X163510D02*
D03*
X187010Y389890D02*
D03*
X163510D02*
D03*
X187010Y473710D02*
D03*
X163510D02*
D03*
Y453390D02*
D03*
X187010D02*
D03*
X379410Y271780D02*
D03*
X402910D02*
D03*
D88*
X303530Y649590D02*
D03*
X290830D02*
D03*
X278130D02*
D03*
X265430D02*
D03*
X252730D02*
D03*
X240030D02*
D03*
X227330D02*
D03*
X214630D02*
D03*
Y600090D02*
D03*
X227330D02*
D03*
X240030D02*
D03*
X252730D02*
D03*
X265430D02*
D03*
X278130D02*
D03*
X290830D02*
D03*
X303530D02*
D03*
D89*
X339230Y298820D02*
D03*
X316230D02*
D03*
X293230D02*
D03*
D90*
X170180Y787400D02*
D03*
X192180Y796900D02*
D03*
Y777900D02*
D03*
X109650Y414630D02*
D03*
Y395630D02*
D03*
X131650Y405130D02*
D03*
D91*
X695960Y648210D02*
D03*
Y553210D02*
D03*
D92*
X252222Y781050D02*
D03*
Y793750D02*
D03*
Y768350D02*
D03*
Y806450D02*
D03*
X301498D02*
D03*
Y793750D02*
D03*
Y781050D02*
D03*
Y768350D02*
D03*
D93*
X71080Y624800D02*
D03*
Y619800D02*
D03*
Y614800D02*
D03*
Y629800D02*
D03*
Y634800D02*
D03*
Y609800D02*
D03*
Y604800D02*
D03*
Y639800D02*
D03*
D94*
Y646300D02*
D03*
Y598300D02*
D03*
Y590300D02*
D03*
Y654300D02*
D03*
D95*
X62230Y519430D02*
D03*
X79430D02*
D03*
D96*
X191770Y543270D02*
D03*
Y526070D02*
D03*
D97*
X189230Y289560D02*
D03*
Y330560D02*
D03*
D98*
X403450Y297180D02*
D03*
X383950D02*
D03*
D99*
X111060Y435610D02*
D03*
Y448310D02*
D03*
Y461010D02*
D03*
Y473710D02*
D03*
X61660D02*
D03*
Y461010D02*
D03*
Y448310D02*
D03*
Y435610D02*
D03*
D100*
X190660Y497840D02*
D03*
X162560D02*
D03*
D101*
X189230Y240030D02*
Y289560D01*
Y240030D02*
X347980Y81280D01*
X378460D01*
D102*
X980440Y99060D02*
X1000760Y78740D01*
X949960Y81280D02*
X952500Y78740D01*
X934720Y96520D02*
X949960Y81280D01*
X883920Y96520D02*
X899160Y81280D01*
X821690Y107950D02*
X848360Y81280D01*
X765810D02*
X770890Y86360D01*
X763270Y78740D02*
X765810Y81280D01*
X709930Y86360D02*
X715010Y81280D01*
X657860Y87630D02*
X664210Y81280D01*
X596900Y97790D02*
X613410Y81280D01*
X530860D02*
X546100Y96520D01*
Y202880D01*
X482600Y81280D02*
Y202880D01*
X430530Y81280D02*
Y202880D01*
X596900Y97790D02*
Y202880D01*
X657860Y87630D02*
Y202880D01*
X709930Y86360D02*
Y202880D01*
X770890Y86360D02*
Y202880D01*
X821690Y107950D02*
Y202880D01*
X883920Y96520D02*
Y202880D01*
X934720Y96520D02*
Y202880D01*
X980440Y99060D02*
Y201930D01*
X933450Y251783D02*
Y252730D01*
Y251783D02*
X934720Y250513D01*
Y226380D02*
Y250513D01*
X882650Y252730D02*
X883285Y252095D01*
Y227015D02*
Y252095D01*
Y227015D02*
X883920Y226380D01*
X821690D02*
Y252730D01*
X770890Y226380D02*
Y252730D01*
X708660Y251783D02*
Y252730D01*
Y251783D02*
X709930Y250513D01*
Y226380D02*
Y250513D01*
X657860Y226380D02*
Y252730D01*
X595630Y251783D02*
Y252730D01*
Y251783D02*
X596900Y250513D01*
Y226380D02*
Y250513D01*
X481330Y251783D02*
Y252730D01*
Y251783D02*
X482600Y250513D01*
Y226380D02*
Y250513D01*
X430530Y226380D02*
Y252730D01*
X980440Y241300D02*
X993140Y254000D01*
X980440Y225430D02*
Y241300D01*
D103*
X105410Y328930D02*
X187600D01*
D104*
X300990Y711200D02*
X441960D01*
X278130Y688340D02*
X300990Y711200D01*
X307340Y698500D02*
X429260D01*
X358140Y810260D02*
X391160Y843280D01*
X357480Y853440D02*
X368300D01*
X397510Y833120D02*
X500380D01*
X391160Y843280D02*
X796290D01*
X555620Y742950D02*
X558505Y745835D01*
X499110Y760730D02*
X557697D01*
X638810Y778510D02*
X651510Y791210D01*
X638810Y745490D02*
Y778510D01*
X651510Y791210D02*
X766620D01*
X441960Y711200D02*
X621030D01*
X651510Y741680D02*
Y756920D01*
X621030Y711200D02*
X651510Y741680D01*
X453390Y722630D02*
X615950D01*
X638810Y745490D01*
X500380Y833120D02*
X789940D01*
X357480Y853440D02*
X358140Y852780D01*
X356210Y854710D02*
X357480Y853440D01*
X490220Y822960D02*
X500380Y833120D01*
X290830Y649590D02*
Y681990D01*
X307340Y698500D01*
X419100Y734060D02*
X441960Y711200D01*
X358140Y833760D02*
Y852780D01*
X802640Y655320D02*
Y820420D01*
X789940Y833120D02*
X802640Y820420D01*
X819150Y662940D02*
Y820420D01*
X796290Y843280D02*
X819150Y820420D01*
X490220Y769620D02*
Y822960D01*
Y769620D02*
X499110Y760730D01*
X431800Y744220D02*
X453390Y722630D01*
X431800Y744220D02*
Y774700D01*
X278130Y649590D02*
Y688340D01*
X506095Y782955D02*
X558825D01*
X559460Y783590D01*
X505460Y782320D02*
X506095Y782955D01*
X651510Y756920D02*
X660400Y765810D01*
X766620D01*
X558505Y745835D02*
Y746760D01*
X419100Y734060D02*
Y787400D01*
X431800Y800100D01*
X353060Y787400D02*
X359410Y781050D01*
X353060Y787400D02*
X359410Y793750D01*
Y808990D01*
X301498Y787400D02*
X353060D01*
X358140Y810260D02*
X359410Y808990D01*
Y764540D02*
Y781050D01*
X301498Y787400D02*
Y793750D01*
Y781050D02*
Y787400D01*
X81890Y542290D02*
X84430Y544830D01*
X48260Y604520D02*
Y640080D01*
X105410Y544830D02*
X120170Y530070D01*
X84430Y544830D02*
X105410D01*
X120170Y530070D02*
X186420D01*
X188940Y527550D01*
Y523240D02*
Y527550D01*
X83820Y544220D02*
Y591917D01*
X78387Y597350D02*
X83820Y591917D01*
X72030Y597350D02*
X78387D01*
X71080Y598300D02*
X72030Y597350D01*
X54480Y646300D02*
X71080D01*
X48260Y640080D02*
X54480Y646300D01*
X48260Y604520D02*
X54480Y598300D01*
X71080D01*
D105*
X717550Y478790D02*
X750570Y511810D01*
X675320Y478790D02*
X717550D01*
X750570Y511810D02*
Y530860D01*
X756920Y537210D02*
X766620D01*
X750570Y530860D02*
X756920Y537210D01*
X657860Y461330D02*
X675320Y478790D01*
D106*
X845820Y461330D02*
Y486410D01*
X765580Y485370D02*
X766620Y486410D01*
X765580Y462370D02*
Y485370D01*
X764540Y461330D02*
X765580Y462370D01*
X975360Y376870D02*
X993140Y359090D01*
X975360Y376870D02*
Y437967D01*
X544830Y328930D02*
Y357820D01*
X481330Y328930D02*
Y357820D01*
X430530Y328930D02*
Y356550D01*
D107*
X544830Y252730D02*
X545465Y252095D01*
Y227015D02*
Y252095D01*
Y227015D02*
X546100Y226380D01*
D108*
X300990Y271780D02*
X379410D01*
X294640Y278130D02*
X300990Y271780D01*
X202860Y775020D02*
X219710D01*
X201280Y776600D02*
X202860Y775020D01*
X193480Y776600D02*
X201280D01*
X192180Y777900D02*
X193480Y776600D01*
X202860Y799780D02*
X219710D01*
X201280Y798200D02*
X202860Y799780D01*
X193480Y798200D02*
X201280D01*
X192180Y796900D02*
X193480Y798200D01*
X183170Y770890D02*
X188880Y776600D01*
X136840Y770890D02*
X183170D01*
X132080Y775650D02*
X136840Y770890D01*
X188880Y776600D02*
X190880D01*
X192180Y777900D01*
X136840Y803910D02*
X183170D01*
X188880Y798200D02*
X190880D01*
X192180Y796900D01*
X132080Y799150D02*
X136840Y803910D01*
X183170D02*
X188880Y798200D01*
X57150Y811785D02*
Y812800D01*
Y811785D02*
X69785Y799150D01*
X132080D01*
X65450Y771315D02*
X69785Y775650D01*
X132080D01*
X65450Y770300D02*
Y771315D01*
X57150Y762000D02*
X65450Y770300D01*
X187010Y453390D02*
X266700D01*
X281940Y438150D01*
Y291053D02*
Y438150D01*
D109*
X120330Y635000D02*
Y656270D01*
X115966Y619044D02*
Y621262D01*
X120330Y656270D02*
X120650Y656590D01*
X120330Y593090D02*
Y614680D01*
X96520Y678180D02*
X120650D01*
X87630Y669290D02*
X96520Y678180D01*
X87630Y643890D02*
Y669290D01*
X82270Y604800D02*
X93980Y593090D01*
X71080Y604800D02*
X82270D01*
X93980Y577850D02*
Y593090D01*
X78598Y634858D02*
X87630Y643890D01*
X71138Y634858D02*
X78598D01*
X71080Y634800D02*
X71138Y634858D01*
X117790Y574040D02*
X120330Y571500D01*
X97790Y574040D02*
X117790D01*
X93980Y577850D02*
X97790Y574040D01*
X143830Y614680D02*
X148194Y619044D01*
X235622Y622753D02*
X248401Y635532D01*
X149818Y622753D02*
X235622D01*
X248401Y635532D02*
Y639502D01*
X250024Y641126D02*
X251116D01*
X248401Y639502D02*
X250024Y641126D01*
X251116D02*
X252730Y642740D01*
Y649590D01*
X148194Y621129D02*
X149818Y622753D01*
X148194Y619044D02*
Y621129D01*
X150138Y626795D02*
X233948D01*
X148514Y628418D02*
X150138Y626795D01*
X241644Y641126D02*
X242736D01*
X244359Y637206D02*
Y639502D01*
X240030Y642740D02*
Y649590D01*
Y642740D02*
X241644Y641126D01*
X233948Y626795D02*
X244359Y637206D01*
X148514Y628418D02*
Y630636D01*
X144150Y635000D02*
X148514Y630636D01*
X242736Y641126D02*
X244359Y639502D01*
X71080Y629800D02*
X71184Y629696D01*
X114662Y626927D02*
X116286Y628551D01*
Y630636D01*
X95893Y629321D02*
X98287Y626927D01*
X78587Y629321D02*
X95893D01*
X78212Y629696D02*
X78587Y629321D01*
X71184Y629696D02*
X78212D01*
X98287Y626927D02*
X114662D01*
X116286Y630636D02*
X120650Y635000D01*
X94219Y625279D02*
X96613Y622886D01*
X71184Y624904D02*
X78212D01*
X96613Y622886D02*
X114342D01*
X71080Y624800D02*
X71184Y624904D01*
X115966Y619044D02*
X120330Y614680D01*
X114342Y622886D02*
X115966Y621262D01*
X78587Y625279D02*
X94219D01*
X78212Y624904D02*
X78587Y625279D01*
X59690Y621424D02*
Y628176D01*
Y621424D02*
X61314Y619800D01*
X71080D01*
X59690Y628176D02*
X61314Y629800D01*
X71080D01*
X71184Y614904D02*
X79656D01*
Y624696D02*
X81280Y623072D01*
Y616528D02*
Y623072D01*
X79656Y614904D02*
X81280Y616528D01*
X71080Y614800D02*
X71184Y614904D01*
X71080Y624800D02*
X71184Y624696D01*
D110*
X766620Y816610D02*
D03*
D111*
Y791210D02*
D03*
Y664210D02*
D03*
Y638810D02*
D03*
Y765810D02*
D03*
Y740410D02*
D03*
Y689610D02*
D03*
Y715010D02*
D03*
Y613410D02*
D03*
Y588010D02*
D03*
Y562610D02*
D03*
Y537210D02*
D03*
Y511810D02*
D03*
Y486410D02*
D03*
X845820D02*
D03*
Y511810D02*
D03*
Y537210D02*
D03*
Y562610D02*
D03*
Y588010D02*
D03*
Y613410D02*
D03*
Y638810D02*
D03*
Y664210D02*
D03*
Y689610D02*
D03*
Y715010D02*
D03*
Y740410D02*
D03*
Y765810D02*
D03*
Y791210D02*
D03*
Y816610D02*
D03*
D112*
X530860Y81280D02*
D03*
X765810D02*
D03*
D113*
X480060D02*
D03*
X429260D02*
D03*
X715010D02*
D03*
X664210D02*
D03*
X613410D02*
D03*
X848360D02*
D03*
X899160D02*
D03*
X949960D02*
D03*
X1000760D02*
D03*
X105410Y328930D02*
D03*
X57150Y812800D02*
D03*
D114*
X378460Y81280D02*
D03*
D115*
X1024890Y501650D02*
D03*
Y527050D02*
D03*
Y552450D02*
D03*
Y577850D02*
D03*
Y603250D02*
D03*
D116*
Y628650D02*
D03*
D117*
X105410Y278130D02*
D03*
X57150Y762000D02*
D03*
D118*
X416553Y663920D02*
D03*
D119*
Y638520D02*
D03*
X391153Y663920D02*
D03*
Y638520D02*
D03*
X406400Y800100D02*
D03*
X431800D02*
D03*
X406400Y774700D02*
D03*
D120*
X544830Y328930D02*
D03*
X570230D02*
D03*
X595630D02*
D03*
X621030D02*
D03*
Y252730D02*
D03*
X570230D02*
D03*
X455930D02*
D03*
X506730D02*
D03*
Y328930D02*
D03*
X481330D02*
D03*
X455930D02*
D03*
X430530D02*
D03*
X657860D02*
D03*
X683260D02*
D03*
X708660D02*
D03*
X734060D02*
D03*
Y252730D02*
D03*
X683260D02*
D03*
X770890Y328930D02*
D03*
X796290D02*
D03*
X821690D02*
D03*
X847090D02*
D03*
Y252730D02*
D03*
X796290D02*
D03*
X882650Y328930D02*
D03*
X908050D02*
D03*
X933450D02*
D03*
X958850D02*
D03*
Y252730D02*
D03*
X908050D02*
D03*
D121*
X595630D02*
D03*
X544830D02*
D03*
X430530D02*
D03*
X481330D02*
D03*
X708660D02*
D03*
X657860D02*
D03*
X821690D02*
D03*
X770890D02*
D03*
X933450D02*
D03*
X882650D02*
D03*
D122*
X50038Y71120D02*
D03*
X85852Y86360D02*
D03*
X79502Y71120D02*
D03*
X49784Y101092D02*
D03*
X64770Y65278D02*
D03*
Y107696D02*
D03*
X79756Y101092D02*
D03*
X43688Y86360D02*
D03*
D123*
X64770D02*
D03*
D124*
X995680Y828040D02*
D03*
X1021080Y207010D02*
D03*
X29210Y701040D02*
D03*
X506730Y513080D02*
D03*
D125*
X173990Y47590D02*
D03*
Y122590D02*
D03*
D126*
X514870Y856890D02*
D03*
D127*
X579870D02*
D03*
X516370Y811890D02*
D03*
X579870D02*
D03*
D128*
X65330Y579100D02*
D03*
Y665500D02*
D03*
D129*
X25330Y579100D02*
D03*
Y665500D02*
D03*
D130*
X993140Y254000D02*
D03*
D131*
X1018540D02*
D03*
Y330200D02*
D03*
X993140D02*
D03*
D132*
X431800Y774700D02*
D03*
D133*
X341630Y427990D02*
D03*
D134*
X316630D02*
D03*
D135*
X601980Y685800D02*
D03*
X617220D02*
D03*
X368300Y853440D02*
D03*
X397510Y833120D02*
D03*
X604520Y518160D02*
D03*
X595630Y533400D02*
D03*
X614680D02*
D03*
X632460Y532130D02*
D03*
X641350Y516890D02*
D03*
X622300D02*
D03*
X234950Y326390D02*
D03*
X254000D02*
D03*
X245110Y341630D02*
D03*
X313690Y500380D02*
D03*
Y519430D02*
D03*
X298450Y510540D02*
D03*
X281940Y501650D02*
D03*
Y482600D02*
D03*
X297180Y491490D02*
D03*
X109220Y763270D02*
D03*
X96520D02*
D03*
X83820D02*
D03*
X109220Y787400D02*
D03*
X96520D02*
D03*
X83820D02*
D03*
X109220Y811530D02*
D03*
X96520D02*
D03*
X83820D02*
D03*
X153670Y787400D02*
D03*
X505460Y782320D02*
D03*
X135890Y420370D02*
D03*
Y497840D02*
D03*
X52070Y530860D02*
D03*
D136*
X889000Y576580D02*
D03*
X974090Y596900D02*
D03*
D137*
X899160Y501650D02*
D03*
X930910Y527050D02*
D03*
X412750Y721360D02*
D03*
X389890D02*
D03*
X396240Y601980D02*
D03*
X412750D02*
D03*
X819150Y662940D02*
D03*
X50800Y590550D02*
D03*
Y654050D02*
D03*
D138*
X517161Y687845D02*
D03*
X517210Y734060D02*
D03*
X493390Y699770D02*
D03*
X493710Y734060D02*
D03*
X429260Y698500D02*
D03*
X453390Y722630D02*
D03*
D139*
X595630Y389890D02*
D03*
X430530Y388620D02*
D03*
X883920Y389890D02*
D03*
X993140D02*
D03*
X933450D02*
D03*
X821690Y388620D02*
D03*
X770890D02*
D03*
X544830Y389890D02*
D03*
X481330Y388620D02*
D03*
X708660D02*
D03*
X657860D02*
D03*
X184150Y685800D02*
D03*
X167640D02*
D03*
X199390D02*
D03*
X598170Y741680D02*
D03*
X109220Y515620D02*
D03*
X359410Y363220D02*
D03*
X265430Y619760D02*
D03*
X261620Y519430D02*
D03*
X359410Y388620D02*
D03*
X260350Y389890D02*
D03*
X335280Y800100D02*
D03*
X336550Y773430D02*
D03*
M02*
