G04*
G04 #@! TF.GenerationSoftware,Altium Limited,Altium Designer,25.4.2 (15)*
G04*
G04 Layer_Color=255*
%FSLAX44Y44*%
%MOMM*%
G71*
G04*
G04 #@! TF.SameCoordinates,F65AA522-A63D-4A45-9B44-1D57BAFE5AFF*
G04*
G04*
G04 #@! TF.FilePolarity,Positive*
G04*
G01*
G75*
%ADD110R,1.5400X1.5400*%
%ADD111C,1.5400*%
%ADD112R,2.4000X2.4000*%
%ADD113C,2.4000*%
%ADD114C,2.9000*%
%ADD115C,1.6500*%
%ADD116R,1.6500X1.6500*%
%ADD117R,2.4000X2.4000*%
%ADD118R,1.3700X1.3700*%
%ADD119C,1.3700*%
%ADD120C,1.3500*%
%ADD121R,1.3500X1.3500*%
%ADD122C,0.4500*%
%ADD123C,5.0000*%
%ADD124C,3.7500*%
%ADD125C,1.8000*%
%ADD126R,1.4980X1.4980*%
%ADD127C,1.4980*%
%ADD128O,1.8000X1.0000*%
%ADD129O,2.2000X1.0000*%
%ADD130R,1.3208X1.3208*%
%ADD131C,1.3208*%
%ADD132R,1.3700X1.3700*%
%ADD133R,1.5750X1.5750*%
%ADD134C,1.5750*%
D110*
X766620Y816610D02*
D03*
D111*
Y791210D02*
D03*
Y664210D02*
D03*
Y638810D02*
D03*
Y765810D02*
D03*
Y740410D02*
D03*
Y689610D02*
D03*
Y715010D02*
D03*
Y613410D02*
D03*
Y588010D02*
D03*
Y562610D02*
D03*
Y537210D02*
D03*
Y511810D02*
D03*
Y486410D02*
D03*
X845820D02*
D03*
Y511810D02*
D03*
Y537210D02*
D03*
Y562610D02*
D03*
Y588010D02*
D03*
Y613410D02*
D03*
Y638810D02*
D03*
Y664210D02*
D03*
Y689610D02*
D03*
Y715010D02*
D03*
Y740410D02*
D03*
Y765810D02*
D03*
Y791210D02*
D03*
Y816610D02*
D03*
D112*
X530860Y81280D02*
D03*
X765810D02*
D03*
D113*
X480060D02*
D03*
X429260D02*
D03*
X715010D02*
D03*
X664210D02*
D03*
X613410D02*
D03*
X848360D02*
D03*
X899160D02*
D03*
X949960D02*
D03*
X1000760D02*
D03*
X105410Y328930D02*
D03*
X57150Y812800D02*
D03*
D114*
X378460Y81280D02*
D03*
D115*
X1024890Y501650D02*
D03*
Y527050D02*
D03*
Y552450D02*
D03*
Y577850D02*
D03*
Y603250D02*
D03*
D116*
Y628650D02*
D03*
D117*
X105410Y278130D02*
D03*
X57150Y762000D02*
D03*
D118*
X416553Y663920D02*
D03*
D119*
Y638520D02*
D03*
X391153Y663920D02*
D03*
Y638520D02*
D03*
X406400Y800100D02*
D03*
X431800D02*
D03*
X406400Y774700D02*
D03*
D120*
X544830Y328930D02*
D03*
X570230D02*
D03*
X595630D02*
D03*
X621030D02*
D03*
Y252730D02*
D03*
X570230D02*
D03*
X455930D02*
D03*
X506730D02*
D03*
Y328930D02*
D03*
X481330D02*
D03*
X455930D02*
D03*
X430530D02*
D03*
X657860D02*
D03*
X683260D02*
D03*
X708660D02*
D03*
X734060D02*
D03*
Y252730D02*
D03*
X683260D02*
D03*
X770890Y328930D02*
D03*
X796290D02*
D03*
X821690D02*
D03*
X847090D02*
D03*
Y252730D02*
D03*
X796290D02*
D03*
X882650Y328930D02*
D03*
X908050D02*
D03*
X933450D02*
D03*
X958850D02*
D03*
Y252730D02*
D03*
X908050D02*
D03*
D121*
X595630D02*
D03*
X544830D02*
D03*
X430530D02*
D03*
X481330D02*
D03*
X708660D02*
D03*
X657860D02*
D03*
X821690D02*
D03*
X770890D02*
D03*
X933450D02*
D03*
X882650D02*
D03*
D122*
X50038Y71120D02*
D03*
X85852Y86360D02*
D03*
X79502Y71120D02*
D03*
X49784Y101092D02*
D03*
X64770Y65278D02*
D03*
Y107696D02*
D03*
X79756Y101092D02*
D03*
X43688Y86360D02*
D03*
D123*
X64770D02*
D03*
D124*
X995680Y828040D02*
D03*
X1021080Y207010D02*
D03*
X29210Y701040D02*
D03*
X506730Y513080D02*
D03*
D125*
X173990Y47590D02*
D03*
Y122590D02*
D03*
D126*
X514870Y856890D02*
D03*
D127*
X579870D02*
D03*
X516370Y811890D02*
D03*
X579870D02*
D03*
D128*
X65330Y579100D02*
D03*
Y665500D02*
D03*
D129*
X25330Y579100D02*
D03*
Y665500D02*
D03*
D130*
X993140Y254000D02*
D03*
D131*
X1018540D02*
D03*
Y330200D02*
D03*
X993140D02*
D03*
D132*
X431800Y774700D02*
D03*
D133*
X341630Y427990D02*
D03*
D134*
X316630D02*
D03*
M02*
