G04*
G04 #@! TF.GenerationSoftware,Altium Limited,Altium Designer,25.4.2 (15)*
G04*
G04 Layer_Color=16711935*
%FSLAX44Y44*%
%MOMM*%
G71*
G04*
G04 #@! TF.SameCoordinates,F65AA522-A63D-4A45-9B44-1D57BAFE5AFF*
G04*
G04*
G04 #@! TF.FilePolarity,Positive*
G04*
G01*
G75*
%ADD12C,0.2000*%
%ADD14C,0.1524*%
%ADD15C,0.3000*%
%ADD17C,0.1270*%
%ADD140C,0.0508*%
%ADD141C,0.1016*%
%ADD142C,0.1000*%
%ADD143C,0.1300*%
%ADD144C,0.0500*%
G36*
X357632Y847448D02*
X350131D01*
Y861949D01*
X357632D01*
Y847448D01*
D02*
G37*
G36*
X343154D02*
X335653D01*
Y861949D01*
X343154D01*
Y847448D01*
D02*
G37*
G36*
X289052Y829668D02*
X281551D01*
Y844169D01*
X289052D01*
Y829668D01*
D02*
G37*
G36*
X274574D02*
X267073D01*
Y844169D01*
X274574D01*
Y829668D01*
D02*
G37*
G36*
X194134Y794512D02*
X188292D01*
Y799084D01*
X194134D01*
Y794512D01*
D02*
G37*
G36*
X174068Y785114D02*
X168226D01*
Y789686D01*
X174068D01*
Y785114D01*
D02*
G37*
G36*
X580017Y776351D02*
X572516D01*
Y790852D01*
X580017D01*
Y776351D01*
D02*
G37*
G36*
X565539D02*
X558038D01*
Y790852D01*
X565539D01*
Y776351D01*
D02*
G37*
G36*
X194134Y775716D02*
X188292D01*
Y780288D01*
X194134D01*
Y775716D01*
D02*
G37*
G36*
X580677Y734441D02*
X573176D01*
Y748942D01*
X580677D01*
Y734441D01*
D02*
G37*
G36*
X566199D02*
X558698D01*
Y748942D01*
X566199D01*
Y734441D01*
D02*
G37*
G36*
X263652Y673458D02*
X256151D01*
Y687959D01*
X263652D01*
Y673458D01*
D02*
G37*
G36*
X249174D02*
X241673D01*
Y687959D01*
X249174D01*
Y673458D01*
D02*
G37*
G36*
X931807Y653161D02*
X924306D01*
Y667662D01*
X931807D01*
Y653161D01*
D02*
G37*
G36*
X917329D02*
X909828D01*
Y667662D01*
X917329D01*
Y653161D01*
D02*
G37*
G36*
X661289Y625196D02*
X646788D01*
Y632697D01*
X661289D01*
Y625196D01*
D02*
G37*
G36*
X932417Y622681D02*
X924916D01*
Y637182D01*
X932417D01*
Y622681D01*
D02*
G37*
G36*
X917939D02*
X910438D01*
Y637182D01*
X917939D01*
Y622681D01*
D02*
G37*
G36*
X661289Y610718D02*
X646788D01*
Y618219D01*
X661289D01*
Y610718D01*
D02*
G37*
G36*
X932417Y598551D02*
X924916D01*
Y613052D01*
X932417D01*
Y598551D01*
D02*
G37*
G36*
X917939D02*
X910438D01*
Y613052D01*
X917939D01*
Y598551D01*
D02*
G37*
G36*
X661312Y583811D02*
X646811D01*
Y591312D01*
X661312D01*
Y583811D01*
D02*
G37*
G36*
X932417Y573151D02*
X924916D01*
Y587652D01*
X932417D01*
Y573151D01*
D02*
G37*
G36*
X917939D02*
X910438D01*
Y587652D01*
X917939D01*
Y573151D01*
D02*
G37*
G36*
X661312Y569333D02*
X646811D01*
Y576834D01*
X661312D01*
Y569333D01*
D02*
G37*
G36*
X303022Y562968D02*
X295521D01*
Y577469D01*
X303022D01*
Y562968D01*
D02*
G37*
G36*
X288544D02*
X281043D01*
Y577469D01*
X288544D01*
Y562968D01*
D02*
G37*
G36*
X225702Y536821D02*
X211201D01*
Y544322D01*
X225702D01*
Y536821D01*
D02*
G37*
G36*
X83312Y535028D02*
X75811D01*
Y549529D01*
X83312D01*
Y535028D01*
D02*
G37*
G36*
X68834D02*
X61333D01*
Y549529D01*
X68834D01*
Y535028D01*
D02*
G37*
G36*
X225702Y522343D02*
X211201D01*
Y529844D01*
X225702D01*
Y522343D01*
D02*
G37*
G36*
X1030859Y453746D02*
X1016358D01*
Y461247D01*
X1030859D01*
Y453746D01*
D02*
G37*
G36*
Y439268D02*
X1016358D01*
Y446769D01*
X1030859D01*
Y439268D01*
D02*
G37*
G36*
X187587Y424561D02*
X180086D01*
Y439062D01*
X187587D01*
Y424561D01*
D02*
G37*
G36*
X173109D02*
X165608D01*
Y439062D01*
X173109D01*
Y424561D01*
D02*
G37*
G36*
X113538Y412242D02*
X107696D01*
Y416814D01*
X113538D01*
Y412242D01*
D02*
G37*
G36*
X91059Y409956D02*
X76558D01*
Y417457D01*
X91059D01*
Y409956D01*
D02*
G37*
G36*
X133604Y402844D02*
X127762D01*
Y407416D01*
X133604D01*
Y402844D01*
D02*
G37*
G36*
X91059Y395478D02*
X76558D01*
Y402979D01*
X91059D01*
Y395478D01*
D02*
G37*
G36*
X113538Y393446D02*
X107696D01*
Y398018D01*
X113538D01*
Y393446D01*
D02*
G37*
G36*
X339327Y355981D02*
X331826D01*
Y370482D01*
X339327D01*
Y355981D01*
D02*
G37*
G36*
X324849D02*
X317348D01*
Y370482D01*
X324849D01*
Y355981D01*
D02*
G37*
G36*
X339327Y329311D02*
X331826D01*
Y343812D01*
X339327D01*
Y329311D01*
D02*
G37*
G36*
X324849D02*
X317348D01*
Y343812D01*
X324849D01*
Y329311D01*
D02*
G37*
G36*
X263779Y300736D02*
X249278D01*
Y308237D01*
X263779D01*
Y300736D01*
D02*
G37*
G36*
X237109D02*
X222608D01*
Y308237D01*
X237109D01*
Y300736D01*
D02*
G37*
G36*
X263779Y286258D02*
X249278D01*
Y293759D01*
X263779D01*
Y286258D01*
D02*
G37*
G36*
X237109D02*
X222608D01*
Y293759D01*
X237109D01*
Y286258D01*
D02*
G37*
G36*
X315047Y134858D02*
X314184D01*
Y135031D01*
X315047D01*
Y134858D01*
D02*
G37*
G36*
X294323D02*
X294150D01*
Y135031D01*
X294323D01*
Y134858D01*
D02*
G37*
G36*
X292941D02*
X292250D01*
Y135031D01*
X292941D01*
Y134858D01*
D02*
G37*
G36*
X286288D02*
X286116D01*
Y135031D01*
X286288D01*
Y134858D01*
D02*
G37*
G36*
X285252D02*
X285079D01*
Y135031D01*
X285252D01*
Y134858D01*
D02*
G37*
G36*
X271181D02*
X271008D01*
Y135031D01*
X271181D01*
Y134858D01*
D02*
G37*
G36*
X270144D02*
X269972D01*
Y135031D01*
X270144D01*
Y134858D01*
D02*
G37*
G36*
X264009D02*
X263319D01*
Y135031D01*
X264009D01*
Y134858D01*
D02*
G37*
G36*
X262110D02*
X261937D01*
Y135031D01*
X262110D01*
Y134858D01*
D02*
G37*
G36*
X242076D02*
X241213D01*
Y135031D01*
X242076D01*
Y134858D01*
D02*
G37*
G36*
X317120Y134513D02*
X318757D01*
Y134340D01*
X319102D01*
Y133995D01*
X319020D01*
Y133822D01*
X319192D01*
Y133649D01*
X319365D01*
Y133476D01*
X319538D01*
Y133304D01*
X319710D01*
Y132958D01*
X319883D01*
Y132613D01*
X320056D01*
Y130540D01*
X320229D01*
Y127777D01*
X321610D01*
Y129332D01*
X321437D01*
Y129850D01*
X320829D01*
Y134513D01*
X327137D01*
Y134340D01*
X330418D01*
Y134513D01*
X332663D01*
Y119660D01*
X332318D01*
Y119487D01*
X327827D01*
Y119660D01*
X327655D01*
Y119833D01*
X327482D01*
Y120006D01*
X324546D01*
Y119660D01*
X324373D01*
Y119487D01*
X321437D01*
Y120006D01*
X318501D01*
Y119833D01*
X318329D01*
Y119660D01*
X317811D01*
Y119487D01*
X317120D01*
Y119315D01*
X315911D01*
Y119142D01*
X314357D01*
Y119315D01*
X313493D01*
Y119487D01*
X312802D01*
Y119660D01*
X312284D01*
Y119833D01*
X311939D01*
Y120006D01*
X311593D01*
Y120178D01*
X311503D01*
Y118279D01*
X311849D01*
Y118106D01*
X313403D01*
Y117933D01*
X313575D01*
Y118106D01*
X313748D01*
Y117933D01*
X316684D01*
Y118106D01*
X318239D01*
Y117933D01*
X318929D01*
Y117242D01*
X319538D01*
Y117070D01*
X319883D01*
Y116897D01*
X320056D01*
Y116724D01*
X320229D01*
Y116551D01*
X320401D01*
Y116379D01*
X320574D01*
Y114306D01*
X320747D01*
Y113961D01*
X320574D01*
Y113270D01*
X319710D01*
Y113443D01*
X319365D01*
Y113615D01*
X319192D01*
Y113961D01*
X319365D01*
Y116206D01*
X319020D01*
Y116379D01*
X318929D01*
Y113615D01*
X318757D01*
Y113443D01*
X317811D01*
Y113270D01*
X317292D01*
Y113443D01*
X315220D01*
Y113270D01*
X314702D01*
Y113443D01*
X305804D01*
Y113615D01*
X305631D01*
Y119487D01*
X298550D01*
Y119660D01*
X298378D01*
Y122769D01*
X298295D01*
Y121733D01*
X298122D01*
Y121387D01*
X297950D01*
Y121042D01*
X297777D01*
Y120696D01*
X297604D01*
Y120524D01*
X297432D01*
Y120351D01*
X297259D01*
Y120178D01*
X297086D01*
Y120006D01*
X296741D01*
Y119833D01*
X296395D01*
Y119660D01*
X295960D01*
Y119487D01*
X295186D01*
Y119315D01*
X293978D01*
Y119142D01*
X292596D01*
Y119315D01*
X291387D01*
Y119487D01*
X290523D01*
Y119660D01*
X290005D01*
Y119833D01*
X289660D01*
Y120006D01*
X289487D01*
Y120178D01*
X289397D01*
Y120006D01*
X289224D01*
Y119833D01*
X288879D01*
Y119660D01*
X288361D01*
Y119487D01*
X287670D01*
Y119315D01*
X286634D01*
Y119142D01*
X284907D01*
Y119315D01*
X282752D01*
Y119142D01*
X281025D01*
Y119315D01*
X279816D01*
Y119487D01*
X279125D01*
Y119660D01*
X278780D01*
Y119833D01*
X278434D01*
Y120006D01*
X278262D01*
Y120178D01*
X277999D01*
Y120006D01*
X277826D01*
Y119833D01*
X277480D01*
Y119660D01*
X277135D01*
Y119487D01*
X276444D01*
Y119315D01*
X275235D01*
Y119142D01*
X273508D01*
Y119315D01*
X271353D01*
Y119142D01*
X269626D01*
Y119315D01*
X268590D01*
Y119487D01*
X267899D01*
Y119660D01*
X267381D01*
Y119833D01*
X267036D01*
Y120006D01*
X266863D01*
Y120178D01*
X266773D01*
Y120006D01*
X266600D01*
Y119833D01*
X266255D01*
Y119660D01*
X265737D01*
Y119487D01*
X264873D01*
Y119315D01*
X263664D01*
Y119142D01*
X262283D01*
Y119315D01*
X261074D01*
Y119487D01*
X260300D01*
Y119660D01*
X259865D01*
Y119833D01*
X259519D01*
Y120006D01*
X259174D01*
Y120178D01*
X259001D01*
Y120351D01*
X258828D01*
Y120524D01*
X258656D01*
Y120696D01*
X258483D01*
Y121042D01*
X258310D01*
Y121387D01*
X258138D01*
Y121733D01*
X257965D01*
Y122769D01*
X257882D01*
Y119660D01*
X257710D01*
Y119487D01*
X250629D01*
Y113615D01*
X250456D01*
Y113443D01*
X241558D01*
Y113270D01*
X241040D01*
Y113443D01*
X238967D01*
Y113270D01*
X238449D01*
Y113443D01*
X237503D01*
Y113615D01*
X237331D01*
Y116379D01*
X237240D01*
Y116206D01*
X236895D01*
Y113961D01*
X237068D01*
Y113615D01*
X236895D01*
Y113443D01*
X236550D01*
Y113270D01*
X235686D01*
Y113961D01*
X235513D01*
Y114306D01*
X235686D01*
Y116379D01*
X235859D01*
Y116551D01*
X236031D01*
Y116724D01*
X236204D01*
Y116897D01*
X236377D01*
Y117070D01*
X236722D01*
Y117242D01*
X237331D01*
Y117933D01*
X238022D01*
Y118106D01*
X239576D01*
Y117933D01*
X242512D01*
Y118106D01*
X242684D01*
Y117933D01*
X242857D01*
Y118106D01*
X244412D01*
Y118279D01*
X244757D01*
Y120178D01*
X244667D01*
Y120006D01*
X244321D01*
Y119833D01*
X243976D01*
Y119660D01*
X243458D01*
Y119487D01*
X242767D01*
Y119315D01*
X241903D01*
Y119142D01*
X240349D01*
Y119315D01*
X239140D01*
Y119487D01*
X238449D01*
Y119660D01*
X237931D01*
Y119833D01*
X237759D01*
Y120006D01*
X234823D01*
Y119487D01*
X231887D01*
Y119660D01*
X231714D01*
Y120006D01*
X228778D01*
Y119833D01*
X228605D01*
Y119660D01*
X228433D01*
Y119487D01*
X223942D01*
Y119660D01*
X223597D01*
Y134513D01*
X225842D01*
Y134340D01*
X229123D01*
Y134513D01*
X235431D01*
Y129850D01*
X234823D01*
Y129332D01*
X234650D01*
Y127777D01*
X236031D01*
Y130540D01*
X236204D01*
Y132613D01*
X236377D01*
Y132958D01*
X236550D01*
Y133304D01*
X236722D01*
Y133476D01*
X236895D01*
Y133649D01*
X237068D01*
Y133822D01*
X237240D01*
Y133995D01*
X237158D01*
Y134340D01*
X237503D01*
Y134513D01*
X239140D01*
Y134685D01*
X242940D01*
Y134513D01*
X257882D01*
Y132268D01*
X257965D01*
Y132786D01*
X258138D01*
Y133131D01*
X258310D01*
Y133304D01*
X258483D01*
Y133649D01*
X258656D01*
Y133822D01*
X258828D01*
Y133995D01*
X259174D01*
Y134167D01*
X259347D01*
Y134340D01*
X259865D01*
Y134513D01*
X261074D01*
Y134685D01*
X264873D01*
Y134513D01*
X265909D01*
Y134340D01*
X266255D01*
Y134167D01*
X266600D01*
Y133995D01*
X267036D01*
Y134167D01*
X267208D01*
Y134340D01*
X267726D01*
Y134513D01*
X268417D01*
Y134685D01*
X272390D01*
Y134513D01*
X273253D01*
Y134340D01*
X273598D01*
Y134167D01*
X273944D01*
Y133995D01*
X274117D01*
Y133822D01*
X274289D01*
Y133649D01*
X274462D01*
Y133476D01*
X274635D01*
Y133304D01*
X274807D01*
Y133131D01*
X274980D01*
Y132786D01*
X275153D01*
Y132440D01*
X275326D01*
Y131922D01*
X275498D01*
Y122423D01*
X275581D01*
Y134513D01*
X280679D01*
Y122423D01*
X280762D01*
Y131922D01*
X280935D01*
Y132440D01*
X281107D01*
Y132786D01*
X281280D01*
Y133131D01*
X281453D01*
Y133304D01*
X281625D01*
Y133476D01*
X281798D01*
Y133649D01*
X281971D01*
Y133822D01*
X282143D01*
Y133995D01*
X282316D01*
Y134167D01*
X282661D01*
Y134340D01*
X283007D01*
Y134513D01*
X283871D01*
Y134685D01*
X287843D01*
Y134513D01*
X288533D01*
Y134340D01*
X289052D01*
Y134167D01*
X289224D01*
Y133995D01*
X289660D01*
Y134167D01*
X290005D01*
Y134340D01*
X290351D01*
Y134513D01*
X291387D01*
Y134685D01*
X295186D01*
Y134513D01*
X296395D01*
Y134340D01*
X296914D01*
Y134167D01*
X297086D01*
Y133995D01*
X297432D01*
Y133822D01*
X297604D01*
Y133649D01*
X297777D01*
Y133304D01*
X297950D01*
Y133131D01*
X298122D01*
Y132786D01*
X298295D01*
Y132268D01*
X298378D01*
Y134513D01*
X313320D01*
Y134685D01*
X317120D01*
Y134513D01*
D02*
G37*
G36*
X304167Y117070D02*
X304512D01*
Y116897D01*
X304858D01*
Y116724D01*
X305031D01*
Y116551D01*
X305203D01*
Y116379D01*
X305376D01*
Y116206D01*
X305549D01*
Y115861D01*
Y115688D01*
Y114306D01*
X305376D01*
Y113961D01*
X305203D01*
Y113788D01*
X305031D01*
Y113615D01*
X304858D01*
Y113443D01*
X304685D01*
Y113270D01*
X304340D01*
Y113097D01*
X303649D01*
Y112925D01*
X303476D01*
Y113097D01*
X302785D01*
Y113270D01*
X302440D01*
Y113443D01*
X302267D01*
Y113615D01*
X302004D01*
Y113443D01*
X301659D01*
Y113270D01*
X301313D01*
Y113097D01*
X299587D01*
Y113270D01*
X299414D01*
Y113443D01*
X299241D01*
Y113615D01*
X298896D01*
Y113788D01*
X298723D01*
Y113961D01*
X298550D01*
Y114824D01*
X298896D01*
Y114997D01*
X299241D01*
Y115170D01*
X299414D01*
Y115343D01*
X299587D01*
Y115515D01*
X300105D01*
Y115688D01*
X300968D01*
Y115861D01*
X301141D01*
Y116379D01*
X300105D01*
Y116206D01*
X299759D01*
Y116033D01*
X299414D01*
Y115861D01*
X298723D01*
Y116379D01*
X298896D01*
Y116551D01*
X299068D01*
Y116724D01*
X299241D01*
Y116897D01*
X299414D01*
Y117070D01*
X299759D01*
Y117242D01*
X301141D01*
Y117070D01*
X301486D01*
Y116897D01*
X301832D01*
Y116724D01*
X302004D01*
Y116551D01*
X302095D01*
Y116724D01*
X302267D01*
Y116897D01*
X302613D01*
Y117070D01*
X303131D01*
Y117242D01*
X304167D01*
Y117070D01*
D02*
G37*
G36*
X256501D02*
X256846D01*
Y116897D01*
X257019D01*
Y116724D01*
X257192D01*
Y116551D01*
X257364D01*
Y116379D01*
X257537D01*
Y115861D01*
X256846D01*
Y116033D01*
X256501D01*
Y116206D01*
X256155D01*
Y116379D01*
X255119D01*
Y115861D01*
X255292D01*
Y115688D01*
X256155D01*
Y115515D01*
X256674D01*
Y115343D01*
X256846D01*
Y115170D01*
X257019D01*
Y114997D01*
X257364D01*
Y114824D01*
X257710D01*
Y113961D01*
X257537D01*
Y113788D01*
X257364D01*
Y113615D01*
X257019D01*
Y113443D01*
X256846D01*
Y113270D01*
X256674D01*
Y113097D01*
X254946D01*
Y113270D01*
X254601D01*
Y113443D01*
X254256D01*
Y113615D01*
X253993D01*
Y113443D01*
X253820D01*
Y113270D01*
X253475D01*
Y113097D01*
X252784D01*
Y112925D01*
X252611D01*
Y113097D01*
X251920D01*
Y113270D01*
X251575D01*
Y113443D01*
X251402D01*
Y113615D01*
X251229D01*
Y113788D01*
X251057D01*
Y113961D01*
X250884D01*
Y114306D01*
X250711D01*
Y115688D01*
Y115861D01*
Y116206D01*
X250884D01*
Y116379D01*
X251057D01*
Y116551D01*
X251229D01*
Y116724D01*
X251402D01*
Y116897D01*
X251748D01*
Y117070D01*
X252093D01*
Y117242D01*
X253129D01*
Y117070D01*
X253647D01*
Y116897D01*
X253993D01*
Y116724D01*
X254165D01*
Y116551D01*
X254256D01*
Y116724D01*
X254428D01*
Y116897D01*
X254774D01*
Y117070D01*
X255119D01*
Y117242D01*
X256501D01*
Y117070D01*
D02*
G37*
G36*
X281025D02*
X281543D01*
Y116897D01*
X281716D01*
Y116724D01*
X281888D01*
Y116551D01*
X282061D01*
Y116379D01*
X282234D01*
Y115861D01*
X281370D01*
Y116033D01*
X281025D01*
Y116206D01*
X280852D01*
Y116379D01*
X279988D01*
Y116206D01*
X279816D01*
Y115861D01*
X279988D01*
Y115688D01*
X280679D01*
Y115515D01*
X281197D01*
Y115343D01*
X281543D01*
Y115170D01*
X281716D01*
Y114997D01*
X282061D01*
Y114824D01*
X282406D01*
Y114652D01*
X282579D01*
Y114306D01*
X282406D01*
Y113961D01*
X282234D01*
Y113788D01*
X282061D01*
Y113615D01*
X281716D01*
Y113443D01*
X281543D01*
Y113270D01*
X281197D01*
Y113097D01*
X279643D01*
Y113270D01*
X279298D01*
Y113443D01*
X278952D01*
Y113615D01*
X278780D01*
Y113788D01*
X278607D01*
Y113961D01*
X278434D01*
Y114479D01*
X278607D01*
Y114652D01*
X278780D01*
Y114479D01*
X279470D01*
Y114306D01*
X279816D01*
Y114134D01*
X279988D01*
Y113961D01*
X280161D01*
Y113788D01*
X280507D01*
Y113615D01*
X280852D01*
Y113788D01*
X281025D01*
Y114652D01*
X280507D01*
Y114824D01*
X279816D01*
Y114997D01*
X279470D01*
Y115170D01*
X279125D01*
Y115343D01*
X278952D01*
Y115515D01*
X278780D01*
Y115688D01*
X278607D01*
Y115861D01*
X278434D01*
Y116206D01*
X278607D01*
Y116379D01*
X278780D01*
Y116551D01*
X278952D01*
Y116724D01*
X279125D01*
Y116897D01*
X279470D01*
Y117070D01*
X279816D01*
Y117242D01*
X281025D01*
Y117070D01*
D02*
G37*
G36*
X331882Y117760D02*
X332055D01*
Y117070D01*
X332145D01*
Y116897D01*
X332663D01*
Y115688D01*
X332491D01*
Y115861D01*
X332318D01*
Y116033D01*
X331882D01*
Y116206D01*
X331800D01*
Y116379D01*
X331709D01*
Y115515D01*
X332055D01*
Y115343D01*
X332145D01*
Y115170D01*
X332663D01*
Y113443D01*
X332318D01*
Y113615D01*
X332145D01*
Y113788D01*
X332055D01*
Y113615D01*
X332145D01*
Y113443D01*
X332318D01*
Y113270D01*
X331972D01*
Y113097D01*
X330418D01*
Y113270D01*
X329900D01*
Y113443D01*
X320829D01*
Y117933D01*
X331882D01*
Y117760D01*
D02*
G37*
G36*
X332055Y115688D02*
X331882D01*
Y115861D01*
X332055D01*
Y115688D01*
D02*
G37*
G36*
X224378D02*
X224205D01*
Y115861D01*
X224378D01*
Y115688D01*
D02*
G37*
G36*
X290261Y116551D02*
X290088D01*
Y116206D01*
X289915D01*
Y115688D01*
X289742D01*
Y115170D01*
X289570D01*
Y114824D01*
X289397D01*
Y114652D01*
X289224D01*
Y114134D01*
X289052D01*
Y113961D01*
X288879D01*
Y113615D01*
X288706D01*
Y113443D01*
X288533D01*
Y113270D01*
X288879D01*
Y113097D01*
X289052D01*
Y112925D01*
X289224D01*
Y112752D01*
X289397D01*
Y112579D01*
X289570D01*
Y112234D01*
X289742D01*
Y111543D01*
X289052D01*
Y111716D01*
X288706D01*
Y111888D01*
X288533D01*
Y112061D01*
X288361D01*
Y112234D01*
X288188D01*
Y112407D01*
X288015D01*
Y112752D01*
X287843D01*
Y113097D01*
X287670D01*
Y113270D01*
X287497D01*
Y113788D01*
X287325D01*
Y114306D01*
X287152D01*
Y114479D01*
X286979D01*
Y114824D01*
X286806D01*
Y115170D01*
X286634D01*
Y115688D01*
X286461D01*
Y116033D01*
X286288D01*
Y116379D01*
X286116D01*
Y116724D01*
X285943D01*
Y116897D01*
X286116D01*
Y117070D01*
X286806D01*
Y116897D01*
X287325D01*
Y116724D01*
X287497D01*
Y115343D01*
Y115170D01*
Y114997D01*
X287670D01*
Y115170D01*
X287843D01*
Y115343D01*
X288533D01*
Y115170D01*
X288706D01*
Y115861D01*
X288879D01*
Y116724D01*
X289052D01*
Y116897D01*
X289224D01*
Y117070D01*
X290261D01*
Y116551D01*
D02*
G37*
G36*
X270144Y116897D02*
X270317D01*
Y116724D01*
X270144D01*
Y116379D01*
X269972D01*
Y116033D01*
X269799D01*
Y115688D01*
X269626D01*
Y115170D01*
X269454D01*
Y114824D01*
X269281D01*
Y114479D01*
X269108D01*
Y114306D01*
X268936D01*
Y113788D01*
X268763D01*
Y113270D01*
X268590D01*
Y113097D01*
X268417D01*
Y112752D01*
X268245D01*
Y112407D01*
X268072D01*
Y112234D01*
X267899D01*
Y112061D01*
X267726D01*
Y111888D01*
X267554D01*
Y111716D01*
X267208D01*
Y111543D01*
X266518D01*
Y112234D01*
X266690D01*
Y112579D01*
X266863D01*
Y112752D01*
X267036D01*
Y112925D01*
X267208D01*
Y113097D01*
X267381D01*
Y113270D01*
X267726D01*
Y113443D01*
X267554D01*
Y113615D01*
X267381D01*
Y113961D01*
X267208D01*
Y114134D01*
X267036D01*
Y114652D01*
X266863D01*
Y114824D01*
X266690D01*
Y115170D01*
X266518D01*
Y115688D01*
X266345D01*
Y116206D01*
X266172D01*
Y116551D01*
X266000D01*
Y117070D01*
X267036D01*
Y116897D01*
X267208D01*
Y116724D01*
X267381D01*
Y115861D01*
X267554D01*
Y115170D01*
X267726D01*
Y115343D01*
X268417D01*
Y115170D01*
X268590D01*
Y114997D01*
X268763D01*
Y114652D01*
X268936D01*
Y114997D01*
X268763D01*
Y115170D01*
Y115343D01*
Y116724D01*
X268936D01*
Y116897D01*
X269454D01*
Y117070D01*
X270144D01*
Y116897D01*
D02*
G37*
G36*
X292078Y117760D02*
X292250D01*
Y117588D01*
X292423D01*
Y117415D01*
X292596D01*
Y117242D01*
X292769D01*
Y117070D01*
X292941D01*
Y116379D01*
X292596D01*
Y116206D01*
X292423D01*
Y116033D01*
X292250D01*
Y115688D01*
X292423D01*
Y114997D01*
X292078D01*
Y114824D01*
X292250D01*
Y114479D01*
X292423D01*
Y114306D01*
X292596D01*
Y114134D01*
X292769D01*
Y113961D01*
X292941D01*
Y113270D01*
X292769D01*
Y113097D01*
X292250D01*
Y113270D01*
X291732D01*
Y113443D01*
X291560D01*
Y113615D01*
X291387D01*
Y113788D01*
X291214D01*
Y116379D01*
X291042D01*
Y116551D01*
X290523D01*
Y116897D01*
X290869D01*
Y117070D01*
X291042D01*
Y117242D01*
X291214D01*
Y117933D01*
X292078D01*
Y117760D01*
D02*
G37*
G36*
X276444Y117070D02*
X276790D01*
Y116897D01*
X277135D01*
Y116724D01*
X277308D01*
Y116551D01*
X277480D01*
Y116379D01*
X277653D01*
Y116206D01*
X277826D01*
Y115861D01*
X277653D01*
Y115688D01*
X277480D01*
Y115515D01*
X277308D01*
Y115343D01*
X277135D01*
Y115170D01*
X276790D01*
Y114997D01*
X276444D01*
Y114824D01*
X275753D01*
Y114652D01*
X275235D01*
Y113788D01*
X275408D01*
Y113615D01*
X275753D01*
Y113788D01*
X276099D01*
Y113961D01*
X276271D01*
Y114134D01*
X276444D01*
Y114306D01*
X276790D01*
Y114479D01*
X277480D01*
Y114652D01*
X277653D01*
Y114479D01*
X277826D01*
Y113961D01*
X277653D01*
Y113788D01*
X277480D01*
Y113615D01*
X277308D01*
Y113443D01*
X276962D01*
Y113270D01*
X276617D01*
Y113097D01*
X275063D01*
Y113270D01*
X274717D01*
Y113443D01*
X274545D01*
Y113615D01*
X274199D01*
Y113788D01*
X274026D01*
Y113961D01*
X273854D01*
Y114306D01*
X273681D01*
Y114652D01*
X273854D01*
Y114824D01*
X274199D01*
Y114997D01*
X274545D01*
Y115170D01*
X274717D01*
Y115343D01*
X275063D01*
Y115515D01*
X275581D01*
Y115688D01*
X276271D01*
Y115861D01*
X276444D01*
Y116206D01*
X276271D01*
Y116379D01*
X275408D01*
Y116206D01*
X275235D01*
Y116033D01*
X274890D01*
Y115861D01*
X274026D01*
Y116379D01*
X274199D01*
Y116551D01*
X274372D01*
Y116724D01*
X274545D01*
Y116897D01*
X274717D01*
Y117070D01*
X275235D01*
Y117242D01*
X276444D01*
Y117070D01*
D02*
G37*
G36*
X265046Y117242D02*
X265218D01*
Y117070D01*
X265391D01*
Y116897D01*
X265737D01*
Y116551D01*
X265218D01*
Y116379D01*
X265046D01*
Y113788D01*
X264873D01*
Y113615D01*
X264700D01*
Y113443D01*
X264528D01*
Y113270D01*
X264009D01*
Y113097D01*
X263491D01*
Y113270D01*
X263319D01*
Y113961D01*
X263491D01*
Y114134D01*
X263664D01*
Y114306D01*
X263837D01*
Y114479D01*
X264009D01*
Y114824D01*
X264182D01*
Y114997D01*
X263837D01*
Y115688D01*
X264009D01*
Y116033D01*
X263837D01*
Y116206D01*
X263664D01*
Y116379D01*
X263319D01*
Y117070D01*
X263491D01*
Y117242D01*
X263664D01*
Y117415D01*
X263837D01*
Y117588D01*
X264009D01*
Y117760D01*
X264182D01*
Y117933D01*
X265046D01*
Y117242D01*
D02*
G37*
G36*
X235431Y113443D02*
X226360D01*
Y113270D01*
X225842D01*
Y113097D01*
X224288D01*
Y113270D01*
X223942D01*
Y113443D01*
X223597D01*
Y115170D01*
X224115D01*
Y115343D01*
X224205D01*
Y115515D01*
X224551D01*
Y116379D01*
X224460D01*
Y116206D01*
X224378D01*
Y116033D01*
X223942D01*
Y115861D01*
X223769D01*
Y115688D01*
X223597D01*
Y116897D01*
X224115D01*
Y117070D01*
X224205D01*
Y117760D01*
X224378D01*
Y117933D01*
X235431D01*
Y113443D01*
D02*
G37*
%LPC*%
G36*
X292333Y132095D02*
X292250D01*
Y131749D01*
X292078D01*
Y130886D01*
X292250D01*
Y130540D01*
X292333D01*
Y132095D01*
D02*
G37*
G36*
X264009D02*
X263927D01*
Y130540D01*
X264009D01*
Y130886D01*
X264182D01*
Y131749D01*
X264009D01*
Y132095D01*
D02*
G37*
G36*
X298378Y129332D02*
X298295D01*
Y129159D01*
X296305D01*
Y128986D01*
X298378D01*
Y129332D01*
D02*
G37*
G36*
X257965D02*
X257882D01*
Y128986D01*
X259955D01*
Y129159D01*
X257965D01*
Y129332D01*
D02*
G37*
G36*
X316429Y129504D02*
X314184D01*
Y127777D01*
X316429D01*
Y128123D01*
Y128295D01*
Y129504D01*
D02*
G37*
G36*
X242076D02*
X239831D01*
Y128295D01*
Y128123D01*
Y127777D01*
X242076D01*
Y129504D01*
D02*
G37*
G36*
X310039D02*
X306239D01*
Y127605D01*
X306322D01*
Y127777D01*
X308913D01*
Y127605D01*
X309085D01*
Y127777D01*
X309258D01*
Y127605D01*
X309431D01*
Y127777D01*
X310039D01*
Y129504D01*
D02*
G37*
G36*
X250021D02*
X246221D01*
Y127777D01*
X246829D01*
Y127605D01*
X247002D01*
Y127777D01*
X247175D01*
Y127605D01*
X247348D01*
Y127777D01*
X249938D01*
Y127605D01*
X250021D01*
Y129504D01*
D02*
G37*
G36*
X298378Y126741D02*
X297086D01*
Y126568D01*
X297259D01*
Y126396D01*
X297432D01*
Y126050D01*
X297604D01*
Y125877D01*
X297777D01*
Y125705D01*
X297950D01*
Y125359D01*
X298122D01*
Y125014D01*
X298295D01*
Y124323D01*
X298378D01*
Y126396D01*
X298550D01*
Y126568D01*
X298378D01*
Y126741D01*
D02*
G37*
G36*
X259174D02*
X257882D01*
Y126568D01*
X257710D01*
Y126396D01*
X257882D01*
Y124323D01*
X257965D01*
Y125014D01*
X258138D01*
Y125359D01*
X258310D01*
Y125705D01*
X258483D01*
Y125877D01*
X258656D01*
Y126050D01*
X258828D01*
Y126396D01*
X259001D01*
Y126568D01*
X259174D01*
Y126741D01*
D02*
G37*
G36*
X325147Y129850D02*
X324373D01*
Y127086D01*
X324456D01*
Y126914D01*
X324629D01*
Y126741D01*
X324801D01*
Y125877D01*
X324629D01*
Y125532D01*
X324546D01*
Y122942D01*
X325319D01*
Y123114D01*
X325492D01*
Y123460D01*
X325665D01*
Y128123D01*
X325582D01*
Y128986D01*
X325410D01*
Y129677D01*
X325147D01*
Y129850D01*
D02*
G37*
G36*
X321610Y124669D02*
X320229D01*
Y122942D01*
X321437D01*
Y124323D01*
X321610D01*
Y124669D01*
D02*
G37*
G36*
X316429D02*
X314184D01*
Y122942D01*
X316429D01*
Y124669D01*
D02*
G37*
G36*
X242076D02*
X239831D01*
Y122942D01*
X242076D01*
Y124669D01*
D02*
G37*
G36*
X236031D02*
X234650D01*
Y124323D01*
X234823D01*
Y122942D01*
X236031D01*
Y124669D01*
D02*
G37*
G36*
X231887Y129850D02*
X231113D01*
Y129677D01*
X230850D01*
Y128986D01*
X230678D01*
Y128123D01*
X230595D01*
Y123460D01*
X230768D01*
Y123114D01*
X230941D01*
Y122942D01*
X231714D01*
Y125532D01*
X231631D01*
Y125877D01*
X231459D01*
Y126741D01*
X231631D01*
Y126914D01*
X231804D01*
Y127086D01*
X231887D01*
Y129850D01*
D02*
G37*
G36*
X291042Y126741D02*
X290951D01*
Y125359D01*
X291732D01*
Y125187D01*
X292078D01*
Y122251D01*
X292250D01*
Y122078D01*
X292333D01*
Y125705D01*
X292250D01*
Y125877D01*
X292078D01*
Y126050D01*
X291732D01*
Y126223D01*
X291560D01*
Y126396D01*
X291214D01*
Y126568D01*
X291042D01*
Y126741D01*
D02*
G37*
G36*
X265309D02*
X265218D01*
Y126568D01*
X265046D01*
Y126396D01*
X264700D01*
Y126223D01*
X264528D01*
Y126050D01*
X264182D01*
Y125877D01*
X264009D01*
Y125705D01*
X263927D01*
Y122078D01*
X264009D01*
Y122251D01*
X264182D01*
Y125187D01*
X264528D01*
Y125359D01*
X265309D01*
Y126741D01*
D02*
G37*
G36*
X280935Y122078D02*
X280852D01*
Y121905D01*
X280935D01*
Y122078D01*
D02*
G37*
G36*
X275408D02*
X275326D01*
Y121905D01*
X275408D01*
Y122078D01*
D02*
G37*
G36*
X269363Y131749D02*
X269281D01*
Y128468D01*
Y128295D01*
Y122078D01*
X269454D01*
Y121905D01*
X269536D01*
Y122423D01*
X269363D01*
Y128468D01*
Y128641D01*
Y131749D01*
D02*
G37*
G36*
X286979D02*
X286897D01*
Y128641D01*
Y128468D01*
Y122423D01*
X286724D01*
Y121905D01*
X286806D01*
Y122078D01*
X286979D01*
Y128295D01*
Y128468D01*
Y131749D01*
D02*
G37*
G36*
X304167Y116379D02*
X302785D01*
Y115688D01*
X304340D01*
Y116206D01*
X304167D01*
Y116379D01*
D02*
G37*
G36*
X301404Y114997D02*
X300968D01*
Y114824D01*
X300277D01*
Y114652D01*
X299932D01*
Y113788D01*
X300795D01*
Y113961D01*
X300968D01*
Y114134D01*
X301141D01*
Y114306D01*
X301404D01*
Y114997D01*
D02*
G37*
G36*
X305203D02*
X303131D01*
Y114824D01*
X302613D01*
Y114479D01*
X302785D01*
Y114134D01*
X302958D01*
Y113961D01*
X303304D01*
Y113788D01*
X303649D01*
Y113961D01*
X303994D01*
Y114134D01*
X304340D01*
Y114306D01*
X304512D01*
Y114479D01*
X304685D01*
Y114652D01*
X305031D01*
Y114824D01*
X305203D01*
Y114997D01*
D02*
G37*
G36*
X253475Y116379D02*
X252093D01*
Y116206D01*
X251920D01*
Y115688D01*
X253475D01*
Y116379D01*
D02*
G37*
G36*
X255292Y114997D02*
X254856D01*
Y114306D01*
X255119D01*
Y114134D01*
X255292D01*
Y113961D01*
X255465D01*
Y113788D01*
X256328D01*
Y114652D01*
X255983D01*
Y114824D01*
X255292D01*
Y114997D01*
D02*
G37*
G36*
X253129D02*
X251057D01*
Y114824D01*
X251229D01*
Y114652D01*
X251575D01*
Y114479D01*
X251748D01*
Y114306D01*
X251920D01*
Y114134D01*
X252266D01*
Y113961D01*
X252611D01*
Y113788D01*
X252957D01*
Y113961D01*
X253302D01*
Y114134D01*
X253475D01*
Y114479D01*
X253647D01*
Y114824D01*
X253129D01*
Y114997D01*
D02*
G37*
G36*
X331882Y117588D02*
X331709D01*
Y117242D01*
X331800D01*
Y117070D01*
X331882D01*
Y117588D01*
D02*
G37*
G36*
X331800Y114652D02*
X331709D01*
Y114479D01*
X331800D01*
Y114652D01*
D02*
G37*
G36*
X287497Y114997D02*
X287325D01*
Y114652D01*
X287497D01*
Y114997D01*
D02*
G37*
G36*
X224551Y117588D02*
X224378D01*
Y117070D01*
X224460D01*
Y117242D01*
X224551D01*
Y117588D01*
D02*
G37*
G36*
Y114652D02*
X224460D01*
Y114479D01*
X224551D01*
Y114652D01*
D02*
G37*
G36*
X224205Y113788D02*
X224115D01*
Y113615D01*
X224205D01*
Y113788D01*
D02*
G37*
G36*
X224115Y113615D02*
X223942D01*
Y113443D01*
X224115D01*
Y113615D01*
D02*
G37*
%LPD*%
D12*
X531860Y151280D02*
G03*
X531860Y151280I-1000J0D01*
G01*
X766810D02*
G03*
X766810Y151280I-1000J0D01*
G01*
X1001760D02*
G03*
X1001760Y151280I-1000J0D01*
G01*
X1025890Y650150D02*
G03*
X1025890Y650150I-1000J0D01*
G01*
X165410Y278130D02*
G03*
X165410Y278130I-1000J0D01*
G01*
X436754Y663920D02*
G03*
X436754Y663920I-1000J0D01*
G01*
X309530Y666290D02*
G03*
X309530Y666290I-1000J0D01*
G01*
X339730Y315470D02*
G03*
X339730Y315470I-1000J0D01*
G01*
X117150Y762000D02*
G03*
X117150Y762000I-1000J0D01*
G01*
X432800Y755500D02*
G03*
X432800Y755500I-1000J0D01*
G01*
X127760Y431610D02*
G03*
X127760Y431610I-1000J0D01*
G01*
X374530Y427990D02*
G03*
X374530Y427990I-1000J0D01*
G01*
D14*
X279909Y762487D02*
G03*
X273811Y762274I-3049J-106D01*
G01*
X174576Y773176D02*
Y801624D01*
Y773176D02*
X187784D01*
Y801624D01*
X174576D02*
X187784D01*
X699770Y657860D02*
Y665480D01*
X692150Y657860D02*
Y665480D01*
X699770D01*
X684530Y657860D02*
X707390D01*
X692150Y535940D02*
X699770D01*
Y543560D02*
X707390D01*
X692150D02*
X699770D01*
X684530D02*
X692150D01*
X699770Y535940D02*
Y543560D01*
X692150Y535940D02*
Y543560D01*
X689610Y603250D02*
X702310D01*
X689610Y598170D02*
Y603250D01*
Y598170D02*
X702310D01*
Y603250D01*
X695960Y607060D02*
X702310D01*
X689610D02*
X695960D01*
Y594360D02*
X702310D01*
X689610D02*
X695960D01*
X296672Y762508D02*
Y812292D01*
X279908Y762508D02*
X296672D01*
X257048D02*
X279908D01*
X257048D02*
Y812292D01*
X296672D01*
X245872Y765810D02*
X257048Y766064D01*
X245872Y765810D02*
Y770636D01*
X257048D01*
Y766064D02*
Y770636D01*
X245872Y778510D02*
X257048Y778764D01*
X245872Y778510D02*
Y783336D01*
X257048D01*
Y778764D02*
Y783336D01*
X245872Y791210D02*
X257048Y791464D01*
X245872Y791210D02*
Y796036D01*
X257048D01*
Y791464D02*
Y796036D01*
X245872Y803910D02*
X257048Y804164D01*
X245872Y803910D02*
Y808736D01*
X257048D01*
Y804164D02*
Y808736D01*
X296672D02*
X307848Y808990D01*
Y804164D02*
Y808990D01*
X296672Y804164D02*
X307848D01*
X296672D02*
Y808736D01*
Y796036D02*
X307848Y796290D01*
Y791464D02*
Y796290D01*
X296672Y791464D02*
X307848D01*
X296672D02*
Y796036D01*
Y783336D02*
X307848Y783590D01*
Y778764D02*
Y783590D01*
X296672Y778764D02*
X307848D01*
X296672D02*
Y783336D01*
Y770636D02*
X307848Y770890D01*
Y766064D02*
Y770890D01*
X296672Y766064D02*
X307848D01*
X296672D02*
Y770636D01*
X114046Y390906D02*
X127254D01*
X114046D02*
Y419354D01*
X127254D01*
Y390906D02*
Y419354D01*
D15*
X372700Y297180D02*
G03*
X372700Y297180I-1000J0D01*
G01*
D17*
X556260Y2380D02*
Y141280D01*
X353060Y2380D02*
X556260D01*
X353060D02*
Y141280D01*
X556260D01*
X791210Y2380D02*
Y141280D01*
X588010Y2380D02*
X791210D01*
X588010D02*
Y141280D01*
X791210D01*
X822960D02*
X1026160D01*
X822960Y2380D02*
Y141280D01*
Y2380D02*
X1026160D01*
Y141280D01*
X993240Y439580D02*
Y459580D01*
X1005740Y439580D02*
Y459580D01*
X993240Y439580D02*
X1005740D01*
X993240Y459580D02*
X1005740D01*
X1012840Y641350D02*
X1036940D01*
X1012840Y488950D02*
Y641350D01*
Y488950D02*
X1036940D01*
Y641350D01*
X154410Y252730D02*
Y354330D01*
X51910D02*
X154410D01*
X51910Y252730D02*
Y354330D01*
Y252730D02*
X154410D01*
X532030Y255830D02*
X633830D01*
Y325830D01*
X532030D02*
X633830D01*
X532030Y255830D02*
Y325830D01*
X417730Y255830D02*
Y325830D01*
X519530D01*
Y255830D02*
Y325830D01*
X417730Y255830D02*
X519530D01*
X645060D02*
X746860D01*
Y325830D01*
X645060D02*
X746860D01*
X645060Y255830D02*
Y325830D01*
X424280Y204630D02*
X436780D01*
X424280Y224630D02*
X436780D01*
X424280Y204630D02*
Y224630D01*
X436780Y204630D02*
Y224630D01*
X424280Y358300D02*
X436780D01*
X424280Y378300D02*
X436780D01*
X424280Y358300D02*
Y378300D01*
X436780Y358300D02*
Y378300D01*
X538580Y359570D02*
X551080D01*
X538580Y379570D02*
X551080D01*
X538580Y359570D02*
Y379570D01*
X551080Y359570D02*
Y379570D01*
X475080Y359570D02*
X487580D01*
X475080Y379570D02*
X487580D01*
X475080Y359570D02*
Y379570D01*
X487580Y359570D02*
Y379570D01*
X589380Y359570D02*
X601880D01*
X589380Y379570D02*
X601880D01*
X589380Y359570D02*
Y379570D01*
X601880Y359570D02*
Y379570D01*
X651610Y359570D02*
X664110D01*
X651610Y379570D02*
X664110D01*
X651610Y359570D02*
Y379570D01*
X664110Y359570D02*
Y379570D01*
X476350Y204630D02*
X488850D01*
X476350Y224630D02*
X488850D01*
X476350Y204630D02*
Y224630D01*
X488850Y204630D02*
Y224630D01*
X539850Y204630D02*
X552350D01*
X539850Y224630D02*
X552350D01*
X539850Y204630D02*
Y224630D01*
X552350Y204630D02*
Y224630D01*
X590650D02*
X603150D01*
X590650Y204630D02*
X603150D01*
Y224630D01*
X590650Y204630D02*
Y224630D01*
X702410Y359570D02*
X714910D01*
X702410Y379570D02*
X714910D01*
X702410Y359570D02*
Y379570D01*
X714910Y359570D02*
Y379570D01*
X703680Y224630D02*
X716180D01*
X703680Y204630D02*
X716180D01*
Y224630D01*
X703680Y204630D02*
Y224630D01*
X651610D02*
X664110D01*
X651610Y204630D02*
X664110D01*
Y224630D01*
X651610Y204630D02*
Y224630D01*
X515140Y693520D02*
Y706020D01*
X495140Y693520D02*
Y706020D01*
Y693520D02*
X515140D01*
X495140Y706020D02*
X515140D01*
X515460Y727810D02*
Y740310D01*
X495460Y727810D02*
Y740310D01*
Y727810D02*
X515460D01*
X495460Y740310D02*
X515460D01*
X308580Y605340D02*
Y644340D01*
X209580Y605340D02*
Y644340D01*
X308580D01*
X209580Y605340D02*
X308580D01*
X351890Y812010D02*
X364390D01*
X351890Y832010D02*
X364390D01*
X351890Y812010D02*
Y832010D01*
X364390Y812010D02*
Y832010D01*
X348730Y250470D02*
Y285470D01*
X283730Y250470D02*
X348730D01*
X283730D02*
Y285470D01*
X348730D01*
X125830Y97950D02*
X138330D01*
X125830Y117950D02*
X138330D01*
X125830Y97950D02*
Y117950D01*
X138330Y97950D02*
Y117950D01*
X198990Y25090D02*
Y145090D01*
X148990Y25090D02*
X198990D01*
X148990D02*
Y145090D01*
X198990D01*
X213460Y753270D02*
X225960D01*
X213460Y773270D02*
X225960D01*
X213460Y753270D02*
Y773270D01*
X225960Y753270D02*
Y773270D01*
X578960Y647800D02*
Y660300D01*
X558960Y647800D02*
Y660300D01*
Y647800D02*
X578960D01*
X558960Y660300D02*
X578960D01*
Y669390D02*
Y681890D01*
X558960Y669390D02*
Y681890D01*
Y669390D02*
X578960D01*
X558960Y681890D02*
X578960D01*
X578640Y690980D02*
Y703480D01*
X558640Y690980D02*
Y703480D01*
Y690980D02*
X578640D01*
X558640Y703480D02*
X578640D01*
X558640Y755750D02*
X578640D01*
X558640Y768250D02*
X578640D01*
Y755750D02*
Y768250D01*
X558640Y755750D02*
Y768250D01*
X599540Y459580D02*
X612040D01*
X599540Y439580D02*
X612040D01*
Y459580D01*
X599540Y439580D02*
Y459580D01*
X839570D02*
X852070D01*
X839570Y439580D02*
X852070D01*
Y459580D01*
X839570Y439580D02*
Y459580D01*
X651610D02*
X664110D01*
X651610Y439580D02*
X664110D01*
Y459580D01*
X651610Y439580D02*
Y459580D01*
X758290D02*
X770790D01*
X758290Y439580D02*
X770790D01*
Y459580D01*
X758290Y439580D02*
Y459580D01*
X707490D02*
X719990D01*
X707490Y439580D02*
X719990D01*
Y459580D01*
X707490Y439580D02*
Y459580D01*
X942440D02*
X954940D01*
X942440Y439580D02*
X954940D01*
Y459580D01*
X942440Y439580D02*
Y459580D01*
X969110D02*
X981610D01*
X969110Y439580D02*
X981610D01*
Y459580D01*
X969110Y439580D02*
Y459580D01*
X903070D02*
X915570D01*
X903070Y439580D02*
X915570D01*
Y459580D01*
X903070Y439580D02*
Y459580D01*
X986890Y360840D02*
X999390D01*
X986890Y380840D02*
X999390D01*
X986890Y360840D02*
Y380840D01*
X999390Y360840D02*
Y380840D01*
X517370Y804390D02*
Y864390D01*
X577370D01*
Y804390D02*
Y864390D01*
X517370Y804390D02*
X577370D01*
X341530Y812010D02*
Y832010D01*
X329030Y812010D02*
Y832010D01*
X341530D01*
X329030Y812010D02*
X341530D01*
X330300Y742790D02*
Y762790D01*
X342800Y742790D02*
Y762790D01*
X330300Y742790D02*
X342800D01*
X330300Y762790D02*
X342800D01*
X353160Y742790D02*
Y762790D01*
X365660Y742790D02*
Y762790D01*
X353160Y742790D02*
X365660D01*
X353160Y762790D02*
X365660D01*
X80830Y513180D02*
Y525680D01*
X60830Y513180D02*
Y525680D01*
Y513180D02*
X80830D01*
X60830Y525680D02*
X80830D01*
X106150Y736600D02*
Y838200D01*
X3650D02*
X106150D01*
X3650Y736600D02*
Y838200D01*
Y736600D02*
X106150D01*
X213460Y801530D02*
Y821530D01*
X225960Y801530D02*
Y821530D01*
X213460Y801530D02*
X225960D01*
X213460Y821530D02*
X225960D01*
X138330Y777400D02*
Y797400D01*
X125830Y777400D02*
Y797400D01*
X138330D01*
X125830Y777400D02*
X138330D01*
X758090Y255830D02*
X859890D01*
Y325830D01*
X758090D02*
X859890D01*
X758090Y255830D02*
Y325830D01*
X869850Y255830D02*
X971650D01*
Y325830D01*
X869850D02*
X971650D01*
X869850Y255830D02*
Y325830D01*
X939700Y360840D02*
Y380840D01*
X927200Y360840D02*
Y380840D01*
X939700D01*
X927200Y360840D02*
X939700D01*
X890170D02*
Y380840D01*
X877670Y360840D02*
Y380840D01*
X890170D01*
X877670Y360840D02*
X890170D01*
X986690Y203680D02*
Y223680D01*
X974190Y203680D02*
Y223680D01*
X986690D01*
X974190Y203680D02*
X986690D01*
X928470Y204630D02*
Y224630D01*
X940970Y204630D02*
Y224630D01*
X928470Y204630D02*
X940970D01*
X928470Y224630D02*
X940970D01*
X877670Y204630D02*
Y224630D01*
X890170Y204630D02*
Y224630D01*
X877670Y204630D02*
X890170D01*
X877670Y224630D02*
X890170D01*
X827940Y360520D02*
Y380520D01*
X815440Y360520D02*
Y380520D01*
X827940D01*
X815440Y360520D02*
X827940D01*
X777140D02*
Y380520D01*
X764640Y360520D02*
Y380520D01*
X777140D01*
X764640Y360520D02*
X777140D01*
X827940Y204630D02*
Y224630D01*
X815440Y204630D02*
Y224630D01*
X827940D01*
X815440Y204630D02*
X827940D01*
X777140D02*
Y224630D01*
X764640Y204630D02*
Y224630D01*
X777140D01*
X764640Y204630D02*
X777140D01*
X142400Y671930D02*
Y684430D01*
X122400Y671930D02*
Y684430D01*
Y671930D02*
X142400D01*
X122400Y684430D02*
X142400D01*
X185520Y524670D02*
Y544670D01*
X198020Y524670D02*
Y544670D01*
X185520Y524670D02*
X198020D01*
X185520Y544670D02*
X198020D01*
X122080Y565250D02*
Y577750D01*
X142080Y565250D02*
Y577750D01*
X122080D02*
X142080D01*
X122080Y565250D02*
X142080D01*
X122400Y662840D02*
X142400D01*
X122400Y650340D02*
X142400D01*
X122400D02*
Y662840D01*
X142400Y650340D02*
Y662840D01*
X122080Y599340D02*
X142080D01*
X122080Y586840D02*
X142080D01*
X122080D02*
Y599340D01*
X142080Y586840D02*
Y599340D01*
X122400Y628750D02*
Y641250D01*
X142400Y628750D02*
Y641250D01*
X122400D02*
X142400D01*
X122400Y628750D02*
X142400D01*
X122080Y608430D02*
Y620930D01*
X142080Y608430D02*
Y620930D01*
X122080D02*
X142080D01*
X122080Y608430D02*
X142080D01*
X237590Y522130D02*
X250090D01*
X237590Y542130D02*
X250090D01*
X237590Y522130D02*
Y542130D01*
X250090Y522130D02*
Y542130D01*
X318930Y381100D02*
Y393600D01*
X338930Y381100D02*
Y393600D01*
X318930D02*
X338930D01*
X318930Y381100D02*
X338930D01*
X383700Y290880D02*
Y303480D01*
Y290880D02*
X403700D01*
Y303480D01*
X383700D02*
X403700D01*
X185260Y403960D02*
Y416460D01*
X165260Y403960D02*
Y416460D01*
Y403960D02*
X185260D01*
X165260Y416460D02*
X185260D01*
Y383640D02*
Y396140D01*
X165260Y383640D02*
Y396140D01*
Y383640D02*
X185260D01*
X165260Y396140D02*
X185260D01*
X66860Y430135D02*
X105860D01*
X66860Y479185D02*
X105860D01*
Y430135D02*
Y479185D01*
X66860Y430135D02*
Y479185D01*
X185260Y467460D02*
Y479960D01*
X165260Y467460D02*
Y479960D01*
Y467460D02*
X185260D01*
X165260Y479960D02*
X185260D01*
X165260Y447140D02*
Y459640D01*
X185260Y447140D02*
Y459640D01*
X165260D02*
X185260D01*
X165260Y447140D02*
X185260D01*
X160610Y505840D02*
X192610D01*
Y489840D02*
Y505840D01*
X160610Y489840D02*
X192610D01*
X160610D02*
Y505840D01*
X381160Y265530D02*
Y278030D01*
X401160Y265530D02*
Y278030D01*
X381160D02*
X401160D01*
X381160Y265530D02*
X401160D01*
X292130Y461990D02*
X366130D01*
X292130Y404490D02*
Y461990D01*
Y404490D02*
X366130D01*
Y461990D01*
D140*
X675640Y566421D02*
G03*
X684597Y549575I20320J0D01*
G01*
X684597Y651846D02*
G03*
X675640Y635000I11363J-16846D01*
G01*
X708660Y635000D02*
G03*
X707375Y640567I-12700J0D01*
G01*
X684545D02*
G03*
X683260Y635000I11415J-5567D01*
G01*
X716281Y634999D02*
G03*
X707323Y651846I-20321J0D01*
G01*
X707375Y640567D02*
G03*
X684545Y640567I-11415J-5567D01*
G01*
X707323Y651846D02*
G03*
X684597Y651846I-11363J-16846D01*
G01*
X707323Y549574D02*
G03*
X716280Y566419I-11363J16846D01*
G01*
X684545Y560853D02*
G03*
X707375Y560853I11415J5567D01*
G01*
X707375Y560853D02*
G03*
X708660Y566420I-11415J5567D01*
G01*
X683260D02*
G03*
X684545Y560853I12700J0D01*
G01*
X684597Y549574D02*
G03*
X707323Y549574I11363J16846D01*
G01*
X708660Y566420D02*
Y635000D01*
X716280Y566420D02*
Y635000D01*
X683260Y566420D02*
Y635000D01*
X675640Y566420D02*
Y635000D01*
X695960Y607060D02*
Y612140D01*
Y589280D02*
Y594360D01*
D141*
X1017020Y446380D02*
Y454000D01*
X1030220Y446630D02*
Y454000D01*
X917550Y636520D02*
X925170D01*
X917800Y623320D02*
X925170D01*
X342900Y861310D02*
X350270D01*
X342900Y848110D02*
X350520D01*
X274320Y843530D02*
X281690D01*
X274320Y830330D02*
X281940D01*
X917190Y653800D02*
X924560D01*
X916940Y667000D02*
X924560D01*
X647450Y617830D02*
Y625450D01*
X660650Y618080D02*
Y625450D01*
Y576580D02*
Y584200D01*
X647450Y576580D02*
Y583950D01*
X565810Y748280D02*
X573430D01*
X566060Y735080D02*
X573430D01*
X565400Y776990D02*
X572770D01*
X565150Y790190D02*
X572770D01*
X248920Y674120D02*
X256540D01*
X248920Y687320D02*
X256290D01*
X917800Y599190D02*
X925170D01*
X917550Y612390D02*
X925170D01*
X917800Y573790D02*
X925170D01*
X917550Y586990D02*
X925170D01*
X288290Y576830D02*
X295660D01*
X288290Y563630D02*
X295910D01*
X211840Y529590D02*
Y536960D01*
X225040Y529590D02*
Y537210D01*
X68580Y548890D02*
X75950D01*
X68580Y535690D02*
X76200D01*
X324710Y356620D02*
X332080D01*
X324460Y369820D02*
X332080D01*
X324710Y329950D02*
X332080D01*
X324460Y343150D02*
X332080D01*
X90420Y402840D02*
Y410210D01*
X77220Y402590D02*
Y410210D01*
X263140Y293620D02*
Y300990D01*
X249940Y293370D02*
Y300990D01*
X236470Y293620D02*
Y300990D01*
X223270Y293370D02*
Y300990D01*
X172970Y425200D02*
X180340D01*
X172720Y438400D02*
X180340D01*
D142*
X429254Y625820D02*
Y676620D01*
X378453Y625820D02*
X429254D01*
X378453D02*
Y676620D01*
X429254D01*
X444500Y762000D02*
Y812800D01*
X393700D02*
X444500D01*
X393700Y762000D02*
Y812800D01*
Y762000D02*
X444500D01*
X175910Y284540D02*
Y335580D01*
X202550D01*
Y284540D02*
Y335580D01*
X175910Y284540D02*
X202550D01*
X175910Y292280D02*
X183650Y284540D01*
D143*
X4330Y577600D02*
Y667000D01*
Y577600D02*
X69330D01*
Y667000D01*
X4330D02*
X69330D01*
D144*
X172780Y276060D02*
Y344060D01*
X205680D01*
Y276060D02*
Y344060D01*
X172780Y276060D02*
X205680D01*
M02*
