G04*
G04 #@! TF.GenerationSoftware,Altium Limited,Altium Designer,25.4.2 (15)*
G04*
G04 Layer_Color=16711935*
%FSLAX44Y44*%
%MOMM*%
G71*
G04*
G04 #@! TF.SameCoordinates,CA2AF886-8F4D-4062-A15D-1C6B51B4DCEA*
G04*
G04*
G04 #@! TF.FilePolarity,Positive*
G04*
G01*
G75*
%ADD11C,0.2000*%
%ADD14C,0.1524*%
%ADD15C,0.3000*%
%ADD17C,0.1270*%
%ADD134C,0.0508*%
%ADD135C,0.1016*%
%ADD136C,0.1300*%
%ADD137C,0.1000*%
%ADD138C,0.0500*%
G36*
X357632Y847448D02*
X350131D01*
Y861949D01*
X357632D01*
Y847448D01*
D02*
G37*
G36*
X343154D02*
X335653D01*
Y861949D01*
X343154D01*
Y847448D01*
D02*
G37*
G36*
X979257Y843518D02*
X978394D01*
Y843691D01*
X979257D01*
Y843518D01*
D02*
G37*
G36*
X958533D02*
X958360D01*
Y843691D01*
X958533D01*
Y843518D01*
D02*
G37*
G36*
X957151D02*
X956460D01*
Y843691D01*
X957151D01*
Y843518D01*
D02*
G37*
G36*
X950498D02*
X950326D01*
Y843691D01*
X950498D01*
Y843518D01*
D02*
G37*
G36*
X949462D02*
X949289D01*
Y843691D01*
X949462D01*
Y843518D01*
D02*
G37*
G36*
X935391D02*
X935218D01*
Y843691D01*
X935391D01*
Y843518D01*
D02*
G37*
G36*
X934354D02*
X934182D01*
Y843691D01*
X934354D01*
Y843518D01*
D02*
G37*
G36*
X928220D02*
X927529D01*
Y843691D01*
X928220D01*
Y843518D01*
D02*
G37*
G36*
X926320D02*
X926147D01*
Y843691D01*
X926320D01*
Y843518D01*
D02*
G37*
G36*
X906286D02*
X905423D01*
Y843691D01*
X906286D01*
Y843518D01*
D02*
G37*
G36*
X981330Y843173D02*
X982967D01*
Y843000D01*
X983312D01*
Y842654D01*
X983230D01*
Y842482D01*
X983402D01*
Y842309D01*
X983575D01*
Y842136D01*
X983748D01*
Y841964D01*
X983920D01*
Y841618D01*
X984093D01*
Y841273D01*
X984266D01*
Y839200D01*
X984438D01*
Y836437D01*
X985820D01*
Y837991D01*
X985647D01*
Y838510D01*
X985039D01*
Y843173D01*
X991347D01*
Y843000D01*
X994628D01*
Y843173D01*
X996873D01*
Y828320D01*
X996528D01*
Y828147D01*
X992038D01*
Y828320D01*
X991865D01*
Y828493D01*
X991692D01*
Y828665D01*
X988756D01*
Y828320D01*
X988583D01*
Y828147D01*
X985647D01*
Y828665D01*
X982711D01*
Y828493D01*
X982539D01*
Y828320D01*
X982021D01*
Y828147D01*
X981330D01*
Y827975D01*
X980121D01*
Y827802D01*
X978567D01*
Y827975D01*
X977703D01*
Y828147D01*
X977012D01*
Y828320D01*
X976494D01*
Y828493D01*
X976149D01*
Y828665D01*
X975803D01*
Y828838D01*
X975713D01*
Y826938D01*
X976059D01*
Y826766D01*
X977613D01*
Y826593D01*
X977785D01*
Y826766D01*
X977958D01*
Y826593D01*
X980894D01*
Y826766D01*
X982449D01*
Y826593D01*
X983139D01*
Y825902D01*
X983748D01*
Y825730D01*
X984093D01*
Y825557D01*
X984266D01*
Y825384D01*
X984438D01*
Y825211D01*
X984611D01*
Y825039D01*
X984784D01*
Y822966D01*
X984957D01*
Y822621D01*
X984784D01*
Y821930D01*
X983920D01*
Y822103D01*
X983575D01*
Y822275D01*
X983402D01*
Y822621D01*
X983575D01*
Y824866D01*
X983230D01*
Y825039D01*
X983139D01*
Y822275D01*
X982967D01*
Y822103D01*
X982021D01*
Y821930D01*
X981503D01*
Y822103D01*
X979430D01*
Y821930D01*
X978912D01*
Y822103D01*
X970014D01*
Y822275D01*
X969841D01*
Y828147D01*
X962760D01*
Y828320D01*
X962588D01*
Y831429D01*
X962505D01*
Y830393D01*
X962332D01*
Y830047D01*
X962160D01*
Y829702D01*
X961987D01*
Y829356D01*
X961814D01*
Y829184D01*
X961642D01*
Y829011D01*
X961469D01*
Y828838D01*
X961296D01*
Y828665D01*
X960951D01*
Y828493D01*
X960605D01*
Y828320D01*
X960170D01*
Y828147D01*
X959396D01*
Y827975D01*
X958187D01*
Y827802D01*
X956806D01*
Y827975D01*
X955597D01*
Y828147D01*
X954733D01*
Y828320D01*
X954215D01*
Y828493D01*
X953870D01*
Y828665D01*
X953697D01*
Y828838D01*
X953607D01*
Y828665D01*
X953434D01*
Y828493D01*
X953089D01*
Y828320D01*
X952571D01*
Y828147D01*
X951880D01*
Y827975D01*
X950844D01*
Y827802D01*
X949117D01*
Y827975D01*
X946962D01*
Y827802D01*
X945235D01*
Y827975D01*
X944026D01*
Y828147D01*
X943335D01*
Y828320D01*
X942990D01*
Y828493D01*
X942644D01*
Y828665D01*
X942471D01*
Y828838D01*
X942208D01*
Y828665D01*
X942036D01*
Y828493D01*
X941690D01*
Y828320D01*
X941345D01*
Y828147D01*
X940654D01*
Y827975D01*
X939445D01*
Y827802D01*
X937718D01*
Y827975D01*
X935563D01*
Y827802D01*
X933836D01*
Y827975D01*
X932800D01*
Y828147D01*
X932109D01*
Y828320D01*
X931591D01*
Y828493D01*
X931246D01*
Y828665D01*
X931073D01*
Y828838D01*
X930983D01*
Y828665D01*
X930810D01*
Y828493D01*
X930465D01*
Y828320D01*
X929947D01*
Y828147D01*
X929083D01*
Y827975D01*
X927874D01*
Y827802D01*
X926492D01*
Y827975D01*
X925284D01*
Y828147D01*
X924510D01*
Y828320D01*
X924075D01*
Y828493D01*
X923729D01*
Y828665D01*
X923384D01*
Y828838D01*
X923211D01*
Y829011D01*
X923038D01*
Y829184D01*
X922866D01*
Y829356D01*
X922693D01*
Y829702D01*
X922520D01*
Y830047D01*
X922348D01*
Y830393D01*
X922175D01*
Y831429D01*
X922092D01*
Y828320D01*
X921920D01*
Y828147D01*
X914839D01*
Y822275D01*
X914666D01*
Y822103D01*
X905768D01*
Y821930D01*
X905250D01*
Y822103D01*
X903177D01*
Y821930D01*
X902659D01*
Y822103D01*
X901713D01*
Y822275D01*
X901541D01*
Y825039D01*
X901450D01*
Y824866D01*
X901105D01*
Y822621D01*
X901278D01*
Y822275D01*
X901105D01*
Y822103D01*
X900760D01*
Y821930D01*
X899896D01*
Y822621D01*
X899723D01*
Y822966D01*
X899896D01*
Y825039D01*
X900069D01*
Y825211D01*
X900241D01*
Y825384D01*
X900414D01*
Y825557D01*
X900587D01*
Y825730D01*
X900932D01*
Y825902D01*
X901541D01*
Y826593D01*
X902232D01*
Y826766D01*
X903786D01*
Y826593D01*
X906722D01*
Y826766D01*
X906895D01*
Y826593D01*
X907067D01*
Y826766D01*
X908622D01*
Y826938D01*
X908967D01*
Y828838D01*
X908877D01*
Y828665D01*
X908531D01*
Y828493D01*
X908186D01*
Y828320D01*
X907668D01*
Y828147D01*
X906977D01*
Y827975D01*
X906113D01*
Y827802D01*
X904559D01*
Y827975D01*
X903350D01*
Y828147D01*
X902659D01*
Y828320D01*
X902141D01*
Y828493D01*
X901969D01*
Y828665D01*
X899033D01*
Y828147D01*
X896097D01*
Y828320D01*
X895924D01*
Y828665D01*
X892988D01*
Y828493D01*
X892815D01*
Y828320D01*
X892643D01*
Y828147D01*
X888152D01*
Y828320D01*
X887807D01*
Y843173D01*
X890052D01*
Y843000D01*
X893333D01*
Y843173D01*
X899641D01*
Y838510D01*
X899033D01*
Y837991D01*
X898860D01*
Y836437D01*
X900241D01*
Y839200D01*
X900414D01*
Y841273D01*
X900587D01*
Y841618D01*
X900760D01*
Y841964D01*
X900932D01*
Y842136D01*
X901105D01*
Y842309D01*
X901278D01*
Y842482D01*
X901450D01*
Y842654D01*
X901368D01*
Y843000D01*
X901713D01*
Y843173D01*
X903350D01*
Y843345D01*
X907150D01*
Y843173D01*
X922092D01*
Y840928D01*
X922175D01*
Y841446D01*
X922348D01*
Y841791D01*
X922520D01*
Y841964D01*
X922693D01*
Y842309D01*
X922866D01*
Y842482D01*
X923038D01*
Y842654D01*
X923384D01*
Y842827D01*
X923557D01*
Y843000D01*
X924075D01*
Y843173D01*
X925284D01*
Y843345D01*
X929083D01*
Y843173D01*
X930119D01*
Y843000D01*
X930465D01*
Y842827D01*
X930810D01*
Y842654D01*
X931246D01*
Y842827D01*
X931418D01*
Y843000D01*
X931936D01*
Y843173D01*
X932627D01*
Y843345D01*
X936600D01*
Y843173D01*
X937463D01*
Y843000D01*
X937809D01*
Y842827D01*
X938154D01*
Y842654D01*
X938327D01*
Y842482D01*
X938499D01*
Y842309D01*
X938672D01*
Y842136D01*
X938845D01*
Y841964D01*
X939017D01*
Y841791D01*
X939190D01*
Y841446D01*
X939363D01*
Y841100D01*
X939536D01*
Y840582D01*
X939708D01*
Y831083D01*
X939791D01*
Y843173D01*
X944889D01*
Y831083D01*
X944972D01*
Y840582D01*
X945145D01*
Y841100D01*
X945317D01*
Y841446D01*
X945490D01*
Y841791D01*
X945663D01*
Y841964D01*
X945835D01*
Y842136D01*
X946008D01*
Y842309D01*
X946181D01*
Y842482D01*
X946353D01*
Y842654D01*
X946526D01*
Y842827D01*
X946871D01*
Y843000D01*
X947217D01*
Y843173D01*
X948081D01*
Y843345D01*
X952053D01*
Y843173D01*
X952744D01*
Y843000D01*
X953262D01*
Y842827D01*
X953434D01*
Y842654D01*
X953870D01*
Y842827D01*
X954215D01*
Y843000D01*
X954561D01*
Y843173D01*
X955597D01*
Y843345D01*
X959396D01*
Y843173D01*
X960605D01*
Y843000D01*
X961124D01*
Y842827D01*
X961296D01*
Y842654D01*
X961642D01*
Y842482D01*
X961814D01*
Y842309D01*
X961987D01*
Y841964D01*
X962160D01*
Y841791D01*
X962332D01*
Y841446D01*
X962505D01*
Y840928D01*
X962588D01*
Y843173D01*
X977530D01*
Y843345D01*
X981330D01*
Y843173D01*
D02*
G37*
G36*
X289052Y829668D02*
X281551D01*
Y844169D01*
X289052D01*
Y829668D01*
D02*
G37*
G36*
X274574D02*
X267073D01*
Y844169D01*
X274574D01*
Y829668D01*
D02*
G37*
G36*
X968377Y825730D02*
X968722D01*
Y825557D01*
X969068D01*
Y825384D01*
X969241D01*
Y825211D01*
X969413D01*
Y825039D01*
X969586D01*
Y824866D01*
X969759D01*
Y824521D01*
Y824348D01*
Y822966D01*
X969586D01*
Y822621D01*
X969413D01*
Y822448D01*
X969241D01*
Y822275D01*
X969068D01*
Y822103D01*
X968895D01*
Y821930D01*
X968550D01*
Y821757D01*
X967859D01*
Y821585D01*
X967686D01*
Y821757D01*
X966995D01*
Y821930D01*
X966650D01*
Y822103D01*
X966477D01*
Y822275D01*
X966214D01*
Y822103D01*
X965869D01*
Y821930D01*
X965524D01*
Y821757D01*
X963796D01*
Y821930D01*
X963624D01*
Y822103D01*
X963451D01*
Y822275D01*
X963106D01*
Y822448D01*
X962933D01*
Y822621D01*
X962760D01*
Y823484D01*
X963106D01*
Y823657D01*
X963451D01*
Y823830D01*
X963624D01*
Y824003D01*
X963796D01*
Y824175D01*
X964315D01*
Y824348D01*
X965178D01*
Y824521D01*
X965351D01*
Y825039D01*
X964315D01*
Y824866D01*
X963969D01*
Y824693D01*
X963624D01*
Y824521D01*
X962933D01*
Y825039D01*
X963106D01*
Y825211D01*
X963278D01*
Y825384D01*
X963451D01*
Y825557D01*
X963624D01*
Y825730D01*
X963969D01*
Y825902D01*
X965351D01*
Y825730D01*
X965696D01*
Y825557D01*
X966042D01*
Y825384D01*
X966214D01*
Y825211D01*
X966305D01*
Y825384D01*
X966477D01*
Y825557D01*
X966823D01*
Y825730D01*
X967341D01*
Y825902D01*
X968377D01*
Y825730D01*
D02*
G37*
G36*
X920711D02*
X921056D01*
Y825557D01*
X921229D01*
Y825384D01*
X921402D01*
Y825211D01*
X921574D01*
Y825039D01*
X921747D01*
Y824521D01*
X921056D01*
Y824693D01*
X920711D01*
Y824866D01*
X920365D01*
Y825039D01*
X919329D01*
Y824521D01*
X919502D01*
Y824348D01*
X920365D01*
Y824175D01*
X920883D01*
Y824003D01*
X921056D01*
Y823830D01*
X921229D01*
Y823657D01*
X921574D01*
Y823484D01*
X921920D01*
Y822621D01*
X921747D01*
Y822448D01*
X921574D01*
Y822275D01*
X921229D01*
Y822103D01*
X921056D01*
Y821930D01*
X920883D01*
Y821757D01*
X919156D01*
Y821930D01*
X918811D01*
Y822103D01*
X918466D01*
Y822275D01*
X918203D01*
Y822103D01*
X918030D01*
Y821930D01*
X917685D01*
Y821757D01*
X916994D01*
Y821585D01*
X916821D01*
Y821757D01*
X916130D01*
Y821930D01*
X915785D01*
Y822103D01*
X915612D01*
Y822275D01*
X915439D01*
Y822448D01*
X915267D01*
Y822621D01*
X915094D01*
Y822966D01*
X914921D01*
Y824348D01*
Y824521D01*
Y824866D01*
X915094D01*
Y825039D01*
X915267D01*
Y825211D01*
X915439D01*
Y825384D01*
X915612D01*
Y825557D01*
X915958D01*
Y825730D01*
X916303D01*
Y825902D01*
X917339D01*
Y825730D01*
X917857D01*
Y825557D01*
X918203D01*
Y825384D01*
X918375D01*
Y825211D01*
X918466D01*
Y825384D01*
X918638D01*
Y825557D01*
X918984D01*
Y825730D01*
X919329D01*
Y825902D01*
X920711D01*
Y825730D01*
D02*
G37*
G36*
X945235D02*
X945753D01*
Y825557D01*
X945926D01*
Y825384D01*
X946098D01*
Y825211D01*
X946271D01*
Y825039D01*
X946444D01*
Y824521D01*
X945580D01*
Y824693D01*
X945235D01*
Y824866D01*
X945062D01*
Y825039D01*
X944199D01*
Y824866D01*
X944026D01*
Y824521D01*
X944199D01*
Y824348D01*
X944889D01*
Y824175D01*
X945407D01*
Y824003D01*
X945753D01*
Y823830D01*
X945926D01*
Y823657D01*
X946271D01*
Y823484D01*
X946616D01*
Y823312D01*
X946789D01*
Y822966D01*
X946616D01*
Y822621D01*
X946444D01*
Y822448D01*
X946271D01*
Y822275D01*
X945926D01*
Y822103D01*
X945753D01*
Y821930D01*
X945407D01*
Y821757D01*
X943853D01*
Y821930D01*
X943508D01*
Y822103D01*
X943162D01*
Y822275D01*
X942990D01*
Y822448D01*
X942817D01*
Y822621D01*
X942644D01*
Y823139D01*
X942817D01*
Y823312D01*
X942990D01*
Y823139D01*
X943680D01*
Y822966D01*
X944026D01*
Y822794D01*
X944199D01*
Y822621D01*
X944371D01*
Y822448D01*
X944717D01*
Y822275D01*
X945062D01*
Y822448D01*
X945235D01*
Y823312D01*
X944717D01*
Y823484D01*
X944026D01*
Y823657D01*
X943680D01*
Y823830D01*
X943335D01*
Y824003D01*
X943162D01*
Y824175D01*
X942990D01*
Y824348D01*
X942817D01*
Y824521D01*
X942644D01*
Y824866D01*
X942817D01*
Y825039D01*
X942990D01*
Y825211D01*
X943162D01*
Y825384D01*
X943335D01*
Y825557D01*
X943680D01*
Y825730D01*
X944026D01*
Y825902D01*
X945235D01*
Y825730D01*
D02*
G37*
G36*
X996092Y826420D02*
X996265D01*
Y825730D01*
X996355D01*
Y825557D01*
X996873D01*
Y824348D01*
X996701D01*
Y824521D01*
X996528D01*
Y824693D01*
X996092D01*
Y824866D01*
X996010D01*
Y825039D01*
X995919D01*
Y824175D01*
X996265D01*
Y824003D01*
X996355D01*
Y823830D01*
X996873D01*
Y822103D01*
X996528D01*
Y822275D01*
X996355D01*
Y822448D01*
X996265D01*
Y822275D01*
X996355D01*
Y822103D01*
X996528D01*
Y821930D01*
X996182D01*
Y821757D01*
X994628D01*
Y821930D01*
X994110D01*
Y822103D01*
X985039D01*
Y826593D01*
X996092D01*
Y826420D01*
D02*
G37*
G36*
X996265Y824348D02*
X996092D01*
Y824521D01*
X996265D01*
Y824348D01*
D02*
G37*
G36*
X888588D02*
X888415D01*
Y824521D01*
X888588D01*
Y824348D01*
D02*
G37*
G36*
X954471Y825211D02*
X954298D01*
Y824866D01*
X954125D01*
Y824348D01*
X953952D01*
Y823830D01*
X953780D01*
Y823484D01*
X953607D01*
Y823312D01*
X953434D01*
Y822794D01*
X953262D01*
Y822621D01*
X953089D01*
Y822275D01*
X952916D01*
Y822103D01*
X952744D01*
Y821930D01*
X953089D01*
Y821757D01*
X953262D01*
Y821585D01*
X953434D01*
Y821412D01*
X953607D01*
Y821239D01*
X953780D01*
Y820894D01*
X953952D01*
Y820203D01*
X953262D01*
Y820376D01*
X952916D01*
Y820548D01*
X952744D01*
Y820721D01*
X952571D01*
Y820894D01*
X952398D01*
Y821067D01*
X952225D01*
Y821412D01*
X952053D01*
Y821757D01*
X951880D01*
Y821930D01*
X951707D01*
Y822448D01*
X951535D01*
Y822966D01*
X951362D01*
Y823139D01*
X951189D01*
Y823484D01*
X951016D01*
Y823830D01*
X950844D01*
Y824348D01*
X950671D01*
Y824693D01*
X950498D01*
Y825039D01*
X950326D01*
Y825384D01*
X950153D01*
Y825557D01*
X950326D01*
Y825730D01*
X951016D01*
Y825557D01*
X951535D01*
Y825384D01*
X951707D01*
Y824003D01*
Y823830D01*
Y823657D01*
X951880D01*
Y823830D01*
X952053D01*
Y824003D01*
X952744D01*
Y823830D01*
X952916D01*
Y824521D01*
X953089D01*
Y825384D01*
X953262D01*
Y825557D01*
X953434D01*
Y825730D01*
X954471D01*
Y825211D01*
D02*
G37*
G36*
X934354Y825557D02*
X934527D01*
Y825384D01*
X934354D01*
Y825039D01*
X934182D01*
Y824693D01*
X934009D01*
Y824348D01*
X933836D01*
Y823830D01*
X933664D01*
Y823484D01*
X933491D01*
Y823139D01*
X933318D01*
Y822966D01*
X933146D01*
Y822448D01*
X932973D01*
Y821930D01*
X932800D01*
Y821757D01*
X932627D01*
Y821412D01*
X932455D01*
Y821067D01*
X932282D01*
Y820894D01*
X932109D01*
Y820721D01*
X931936D01*
Y820548D01*
X931764D01*
Y820376D01*
X931418D01*
Y820203D01*
X930728D01*
Y820894D01*
X930900D01*
Y821239D01*
X931073D01*
Y821412D01*
X931246D01*
Y821585D01*
X931418D01*
Y821757D01*
X931591D01*
Y821930D01*
X931936D01*
Y822103D01*
X931764D01*
Y822275D01*
X931591D01*
Y822621D01*
X931418D01*
Y822794D01*
X931246D01*
Y823312D01*
X931073D01*
Y823484D01*
X930900D01*
Y823830D01*
X930728D01*
Y824348D01*
X930555D01*
Y824866D01*
X930382D01*
Y825211D01*
X930210D01*
Y825730D01*
X931246D01*
Y825557D01*
X931418D01*
Y825384D01*
X931591D01*
Y824521D01*
X931764D01*
Y823830D01*
X931936D01*
Y824003D01*
X932627D01*
Y823830D01*
X932800D01*
Y823657D01*
X932973D01*
Y823312D01*
X933146D01*
Y823657D01*
X932973D01*
Y823830D01*
Y824003D01*
Y825384D01*
X933146D01*
Y825557D01*
X933664D01*
Y825730D01*
X934354D01*
Y825557D01*
D02*
G37*
G36*
X956288Y826420D02*
X956460D01*
Y826248D01*
X956633D01*
Y826075D01*
X956806D01*
Y825902D01*
X956979D01*
Y825730D01*
X957151D01*
Y825039D01*
X956806D01*
Y824866D01*
X956633D01*
Y824693D01*
X956460D01*
Y824348D01*
X956633D01*
Y823657D01*
X956288D01*
Y823484D01*
X956460D01*
Y823139D01*
X956633D01*
Y822966D01*
X956806D01*
Y822794D01*
X956979D01*
Y822621D01*
X957151D01*
Y821930D01*
X956979D01*
Y821757D01*
X956460D01*
Y821930D01*
X955942D01*
Y822103D01*
X955770D01*
Y822275D01*
X955597D01*
Y822448D01*
X955424D01*
Y825039D01*
X955252D01*
Y825211D01*
X954733D01*
Y825557D01*
X955079D01*
Y825730D01*
X955252D01*
Y825902D01*
X955424D01*
Y826593D01*
X956288D01*
Y826420D01*
D02*
G37*
G36*
X940654Y825730D02*
X941000D01*
Y825557D01*
X941345D01*
Y825384D01*
X941518D01*
Y825211D01*
X941690D01*
Y825039D01*
X941863D01*
Y824866D01*
X942036D01*
Y824521D01*
X941863D01*
Y824348D01*
X941690D01*
Y824175D01*
X941518D01*
Y824003D01*
X941345D01*
Y823830D01*
X941000D01*
Y823657D01*
X940654D01*
Y823484D01*
X939963D01*
Y823312D01*
X939445D01*
Y822448D01*
X939618D01*
Y822275D01*
X939963D01*
Y822448D01*
X940309D01*
Y822621D01*
X940481D01*
Y822794D01*
X940654D01*
Y822966D01*
X941000D01*
Y823139D01*
X941690D01*
Y823312D01*
X941863D01*
Y823139D01*
X942036D01*
Y822621D01*
X941863D01*
Y822448D01*
X941690D01*
Y822275D01*
X941518D01*
Y822103D01*
X941172D01*
Y821930D01*
X940827D01*
Y821757D01*
X939273D01*
Y821930D01*
X938927D01*
Y822103D01*
X938755D01*
Y822275D01*
X938409D01*
Y822448D01*
X938236D01*
Y822621D01*
X938064D01*
Y822966D01*
X937891D01*
Y823312D01*
X938064D01*
Y823484D01*
X938409D01*
Y823657D01*
X938755D01*
Y823830D01*
X938927D01*
Y824003D01*
X939273D01*
Y824175D01*
X939791D01*
Y824348D01*
X940481D01*
Y824521D01*
X940654D01*
Y824866D01*
X940481D01*
Y825039D01*
X939618D01*
Y824866D01*
X939445D01*
Y824693D01*
X939100D01*
Y824521D01*
X938236D01*
Y825039D01*
X938409D01*
Y825211D01*
X938582D01*
Y825384D01*
X938755D01*
Y825557D01*
X938927D01*
Y825730D01*
X939445D01*
Y825902D01*
X940654D01*
Y825730D01*
D02*
G37*
G36*
X929256Y825902D02*
X929428D01*
Y825730D01*
X929601D01*
Y825557D01*
X929947D01*
Y825211D01*
X929428D01*
Y825039D01*
X929256D01*
Y822448D01*
X929083D01*
Y822275D01*
X928910D01*
Y822103D01*
X928738D01*
Y821930D01*
X928220D01*
Y821757D01*
X927701D01*
Y821930D01*
X927529D01*
Y822621D01*
X927701D01*
Y822794D01*
X927874D01*
Y822966D01*
X928047D01*
Y823139D01*
X928220D01*
Y823484D01*
X928392D01*
Y823657D01*
X928047D01*
Y824348D01*
X928220D01*
Y824693D01*
X928047D01*
Y824866D01*
X927874D01*
Y825039D01*
X927529D01*
Y825730D01*
X927701D01*
Y825902D01*
X927874D01*
Y826075D01*
X928047D01*
Y826248D01*
X928220D01*
Y826420D01*
X928392D01*
Y826593D01*
X929256D01*
Y825902D01*
D02*
G37*
G36*
X899641Y822103D02*
X890570D01*
Y821930D01*
X890052D01*
Y821757D01*
X888498D01*
Y821930D01*
X888152D01*
Y822103D01*
X887807D01*
Y823830D01*
X888325D01*
Y824003D01*
X888415D01*
Y824175D01*
X888761D01*
Y825039D01*
X888670D01*
Y824866D01*
X888588D01*
Y824693D01*
X888152D01*
Y824521D01*
X887980D01*
Y824348D01*
X887807D01*
Y825557D01*
X888325D01*
Y825730D01*
X888415D01*
Y826420D01*
X888588D01*
Y826593D01*
X899641D01*
Y822103D01*
D02*
G37*
G36*
X194134Y794512D02*
X188292D01*
Y799084D01*
X194134D01*
Y794512D01*
D02*
G37*
G36*
X174068Y785114D02*
X168226D01*
Y789686D01*
X174068D01*
Y785114D01*
D02*
G37*
G36*
X580017Y776351D02*
X572516D01*
Y790852D01*
X580017D01*
Y776351D01*
D02*
G37*
G36*
X565539D02*
X558038D01*
Y790852D01*
X565539D01*
Y776351D01*
D02*
G37*
G36*
X194134Y775716D02*
X188292D01*
Y780288D01*
X194134D01*
Y775716D01*
D02*
G37*
G36*
X580677Y734441D02*
X573176D01*
Y748942D01*
X580677D01*
Y734441D01*
D02*
G37*
G36*
X566199D02*
X558698D01*
Y748942D01*
X566199D01*
Y734441D01*
D02*
G37*
G36*
X897509Y685546D02*
X883008D01*
Y693047D01*
X897509D01*
Y685546D01*
D02*
G37*
G36*
X956547Y684911D02*
X949046D01*
Y699412D01*
X956547D01*
Y684911D01*
D02*
G37*
G36*
X942069D02*
X934568D01*
Y699412D01*
X942069D01*
Y684911D01*
D02*
G37*
G36*
X263652Y673458D02*
X256151D01*
Y687959D01*
X263652D01*
Y673458D01*
D02*
G37*
G36*
X249174D02*
X241673D01*
Y687959D01*
X249174D01*
Y673458D01*
D02*
G37*
G36*
X897509Y671068D02*
X883008D01*
Y678569D01*
X897509D01*
Y671068D01*
D02*
G37*
G36*
X956547Y660781D02*
X949046D01*
Y675282D01*
X956547D01*
Y660781D01*
D02*
G37*
G36*
X942069D02*
X934568D01*
Y675282D01*
X942069D01*
Y660781D01*
D02*
G37*
G36*
X956547Y635381D02*
X949046D01*
Y649882D01*
X956547D01*
Y635381D01*
D02*
G37*
G36*
X942069D02*
X934568D01*
Y649882D01*
X942069D01*
Y635381D01*
D02*
G37*
G36*
X661289Y625196D02*
X646788D01*
Y632697D01*
X661289D01*
Y625196D01*
D02*
G37*
G36*
Y610718D02*
X646788D01*
Y618219D01*
X661289D01*
Y610718D01*
D02*
G37*
G36*
X661312Y583811D02*
X646811D01*
Y591312D01*
X661312D01*
Y583811D01*
D02*
G37*
G36*
Y569333D02*
X646811D01*
Y576834D01*
X661312D01*
Y569333D01*
D02*
G37*
G36*
X303022Y562968D02*
X295521D01*
Y577469D01*
X303022D01*
Y562968D01*
D02*
G37*
G36*
X288544D02*
X281043D01*
Y577469D01*
X288544D01*
Y562968D01*
D02*
G37*
G36*
X225702Y536821D02*
X211201D01*
Y544322D01*
X225702D01*
Y536821D01*
D02*
G37*
G36*
X83312Y535028D02*
X75811D01*
Y549529D01*
X83312D01*
Y535028D01*
D02*
G37*
G36*
X68834D02*
X61333D01*
Y549529D01*
X68834D01*
Y535028D01*
D02*
G37*
G36*
X225702Y522343D02*
X211201D01*
Y529844D01*
X225702D01*
Y522343D01*
D02*
G37*
G36*
X187587Y424561D02*
X180086D01*
Y439062D01*
X187587D01*
Y424561D01*
D02*
G37*
G36*
X173109D02*
X165608D01*
Y439062D01*
X173109D01*
Y424561D01*
D02*
G37*
G36*
X113538Y412242D02*
X107696D01*
Y416814D01*
X113538D01*
Y412242D01*
D02*
G37*
G36*
X91059Y409956D02*
X76558D01*
Y417457D01*
X91059D01*
Y409956D01*
D02*
G37*
G36*
X133604Y402844D02*
X127762D01*
Y407416D01*
X133604D01*
Y402844D01*
D02*
G37*
G36*
X91059Y395478D02*
X76558D01*
Y402979D01*
X91059D01*
Y395478D01*
D02*
G37*
G36*
X113538Y393446D02*
X107696D01*
Y398018D01*
X113538D01*
Y393446D01*
D02*
G37*
G36*
X339327Y355981D02*
X331826D01*
Y370482D01*
X339327D01*
Y355981D01*
D02*
G37*
G36*
X324849D02*
X317348D01*
Y370482D01*
X324849D01*
Y355981D01*
D02*
G37*
G36*
X339327Y329311D02*
X331826D01*
Y343812D01*
X339327D01*
Y329311D01*
D02*
G37*
G36*
X324849D02*
X317348D01*
Y343812D01*
X324849D01*
Y329311D01*
D02*
G37*
G36*
X263779Y300736D02*
X249278D01*
Y308237D01*
X263779D01*
Y300736D01*
D02*
G37*
G36*
X237109D02*
X222608D01*
Y308237D01*
X237109D01*
Y300736D01*
D02*
G37*
G36*
X263779Y286258D02*
X249278D01*
Y293759D01*
X263779D01*
Y286258D01*
D02*
G37*
G36*
X237109D02*
X222608D01*
Y293759D01*
X237109D01*
Y286258D01*
D02*
G37*
%LPC*%
G36*
X956543Y840755D02*
X956460D01*
Y840409D01*
X956288D01*
Y839546D01*
X956460D01*
Y839200D01*
X956543D01*
Y840755D01*
D02*
G37*
G36*
X928220D02*
X928137D01*
Y839200D01*
X928220D01*
Y839546D01*
X928392D01*
Y840409D01*
X928220D01*
Y840755D01*
D02*
G37*
G36*
X962588Y837991D02*
X962505D01*
Y837819D01*
X960515D01*
Y837646D01*
X962588D01*
Y837991D01*
D02*
G37*
G36*
X922175D02*
X922092D01*
Y837646D01*
X924165D01*
Y837819D01*
X922175D01*
Y837991D01*
D02*
G37*
G36*
X980639Y838164D02*
X978394D01*
Y836437D01*
X980639D01*
Y836783D01*
Y836955D01*
Y838164D01*
D02*
G37*
G36*
X906286D02*
X904041D01*
Y836955D01*
Y836783D01*
Y836437D01*
X906286D01*
Y838164D01*
D02*
G37*
G36*
X974249D02*
X970450D01*
Y836264D01*
X970532D01*
Y836437D01*
X973122D01*
Y836264D01*
X973295D01*
Y836437D01*
X973468D01*
Y836264D01*
X973641D01*
Y836437D01*
X974249D01*
Y838164D01*
D02*
G37*
G36*
X914230D02*
X910431D01*
Y836437D01*
X911039D01*
Y836264D01*
X911212D01*
Y836437D01*
X911385D01*
Y836264D01*
X911557D01*
Y836437D01*
X914148D01*
Y836264D01*
X914230D01*
Y838164D01*
D02*
G37*
G36*
X962588Y835401D02*
X961296D01*
Y835228D01*
X961469D01*
Y835055D01*
X961642D01*
Y834710D01*
X961814D01*
Y834537D01*
X961987D01*
Y834365D01*
X962160D01*
Y834019D01*
X962332D01*
Y833674D01*
X962505D01*
Y832983D01*
X962588D01*
Y835055D01*
X962760D01*
Y835228D01*
X962588D01*
Y835401D01*
D02*
G37*
G36*
X923384D02*
X922092D01*
Y835228D01*
X921920D01*
Y835055D01*
X922092D01*
Y832983D01*
X922175D01*
Y833674D01*
X922348D01*
Y834019D01*
X922520D01*
Y834365D01*
X922693D01*
Y834537D01*
X922866D01*
Y834710D01*
X923038D01*
Y835055D01*
X923211D01*
Y835228D01*
X923384D01*
Y835401D01*
D02*
G37*
G36*
X989357Y838510D02*
X988583D01*
Y835746D01*
X988666D01*
Y835574D01*
X988839D01*
Y835401D01*
X989011D01*
Y834537D01*
X988839D01*
Y834192D01*
X988756D01*
Y831601D01*
X989529D01*
Y831774D01*
X989702D01*
Y832120D01*
X989875D01*
Y836783D01*
X989792D01*
Y837646D01*
X989620D01*
Y838337D01*
X989357D01*
Y838510D01*
D02*
G37*
G36*
X985820Y833328D02*
X984438D01*
Y831601D01*
X985647D01*
Y832983D01*
X985820D01*
Y833328D01*
D02*
G37*
G36*
X980639D02*
X978394D01*
Y831601D01*
X980639D01*
Y833328D01*
D02*
G37*
G36*
X906286D02*
X904041D01*
Y831601D01*
X906286D01*
Y833328D01*
D02*
G37*
G36*
X900241D02*
X898860D01*
Y832983D01*
X899033D01*
Y831601D01*
X900241D01*
Y833328D01*
D02*
G37*
G36*
X896097Y838510D02*
X895323D01*
Y838337D01*
X895060D01*
Y837646D01*
X894888D01*
Y836783D01*
X894805D01*
Y832120D01*
X894978D01*
Y831774D01*
X895151D01*
Y831601D01*
X895924D01*
Y834192D01*
X895841D01*
Y834537D01*
X895669D01*
Y835401D01*
X895841D01*
Y835574D01*
X896014D01*
Y835746D01*
X896097D01*
Y838510D01*
D02*
G37*
G36*
X955252Y835401D02*
X955161D01*
Y834019D01*
X955942D01*
Y833847D01*
X956288D01*
Y830911D01*
X956460D01*
Y830738D01*
X956543D01*
Y834365D01*
X956460D01*
Y834537D01*
X956288D01*
Y834710D01*
X955942D01*
Y834883D01*
X955770D01*
Y835055D01*
X955424D01*
Y835228D01*
X955252D01*
Y835401D01*
D02*
G37*
G36*
X929519D02*
X929428D01*
Y835228D01*
X929256D01*
Y835055D01*
X928910D01*
Y834883D01*
X928738D01*
Y834710D01*
X928392D01*
Y834537D01*
X928220D01*
Y834365D01*
X928137D01*
Y830738D01*
X928220D01*
Y830911D01*
X928392D01*
Y833847D01*
X928738D01*
Y834019D01*
X929519D01*
Y835401D01*
D02*
G37*
G36*
X945145Y830738D02*
X945062D01*
Y830565D01*
X945145D01*
Y830738D01*
D02*
G37*
G36*
X939618D02*
X939536D01*
Y830565D01*
X939618D01*
Y830738D01*
D02*
G37*
G36*
X951189Y840409D02*
X951107D01*
Y837301D01*
Y837128D01*
Y831083D01*
X950934D01*
Y830565D01*
X951016D01*
Y830738D01*
X951189D01*
Y836955D01*
Y837128D01*
Y840409D01*
D02*
G37*
G36*
X933573D02*
X933491D01*
Y837128D01*
Y836955D01*
Y830738D01*
X933664D01*
Y830565D01*
X933746D01*
Y831083D01*
X933573D01*
Y837128D01*
Y837301D01*
Y840409D01*
D02*
G37*
G36*
X968377Y825039D02*
X966995D01*
Y824348D01*
X968550D01*
Y824866D01*
X968377D01*
Y825039D01*
D02*
G37*
G36*
X965614Y823657D02*
X965178D01*
Y823484D01*
X964487D01*
Y823312D01*
X964142D01*
Y822448D01*
X965005D01*
Y822621D01*
X965178D01*
Y822794D01*
X965351D01*
Y822966D01*
X965614D01*
Y823657D01*
D02*
G37*
G36*
X969413D02*
X967341D01*
Y823484D01*
X966823D01*
Y823139D01*
X966995D01*
Y822794D01*
X967168D01*
Y822621D01*
X967514D01*
Y822448D01*
X967859D01*
Y822621D01*
X968204D01*
Y822794D01*
X968550D01*
Y822966D01*
X968722D01*
Y823139D01*
X968895D01*
Y823312D01*
X969241D01*
Y823484D01*
X969413D01*
Y823657D01*
D02*
G37*
G36*
X917685Y825039D02*
X916303D01*
Y824866D01*
X916130D01*
Y824348D01*
X917685D01*
Y825039D01*
D02*
G37*
G36*
X919502Y823657D02*
X919066D01*
Y822966D01*
X919329D01*
Y822794D01*
X919502D01*
Y822621D01*
X919675D01*
Y822448D01*
X920538D01*
Y823312D01*
X920193D01*
Y823484D01*
X919502D01*
Y823657D01*
D02*
G37*
G36*
X917339D02*
X915267D01*
Y823484D01*
X915439D01*
Y823312D01*
X915785D01*
Y823139D01*
X915958D01*
Y822966D01*
X916130D01*
Y822794D01*
X916476D01*
Y822621D01*
X916821D01*
Y822448D01*
X917167D01*
Y822621D01*
X917512D01*
Y822794D01*
X917685D01*
Y823139D01*
X917857D01*
Y823484D01*
X917339D01*
Y823657D01*
D02*
G37*
G36*
X996092Y826248D02*
X995919D01*
Y825902D01*
X996010D01*
Y825730D01*
X996092D01*
Y826248D01*
D02*
G37*
G36*
X996010Y823312D02*
X995919D01*
Y823139D01*
X996010D01*
Y823312D01*
D02*
G37*
G36*
X951707Y823657D02*
X951535D01*
Y823312D01*
X951707D01*
Y823657D01*
D02*
G37*
G36*
X888761Y826248D02*
X888588D01*
Y825730D01*
X888670D01*
Y825902D01*
X888761D01*
Y826248D01*
D02*
G37*
G36*
Y823312D02*
X888670D01*
Y823139D01*
X888761D01*
Y823312D01*
D02*
G37*
G36*
X888415Y822448D02*
X888325D01*
Y822275D01*
X888415D01*
Y822448D01*
D02*
G37*
G36*
X888325Y822275D02*
X888152D01*
Y822103D01*
X888325D01*
Y822275D01*
D02*
G37*
%LPD*%
D11*
X309530Y666290D02*
G03*
X309530Y666290I-1000J0D01*
G01*
X339730Y315470D02*
G03*
X339730Y315470I-1000J0D01*
G01*
X1373720Y180340D02*
G03*
X1373720Y180340I-1000J0D01*
G01*
X1328150Y152550D02*
G03*
X1328150Y152550I-1000J0D01*
G01*
X1116060D02*
G03*
X1116060Y152550I-1000J0D01*
G01*
X183880Y151280D02*
G03*
X183880Y151280I-1000J0D01*
G01*
X663940Y148740D02*
G03*
X663940Y148740I-1000J0D01*
G01*
X117150Y762000D02*
G03*
X117150Y762000I-1000J0D01*
G01*
X398510Y150010D02*
G03*
X398510Y150010I-1000J0D01*
G01*
X1165590Y721210D02*
G03*
X1165590Y721210I-1000J0D01*
G01*
X877300Y147470D02*
G03*
X877300Y147470I-1000J0D01*
G01*
X1372450Y844550D02*
G03*
X1372450Y844550I-1000J0D01*
G01*
Y629920D02*
G03*
X1372450Y629920I-1000J0D01*
G01*
X1374990Y393700D02*
G03*
X1374990Y393700I-1000J0D01*
G01*
X432800Y755500D02*
G03*
X432800Y755500I-1000J0D01*
G01*
X127760Y431610D02*
G03*
X127760Y431610I-1000J0D01*
G01*
X374530Y427990D02*
G03*
X374530Y427990I-1000J0D01*
G01*
D14*
X279909Y762487D02*
G03*
X273811Y762274I-3049J-106D01*
G01*
X174576Y773176D02*
Y801624D01*
Y773176D02*
X187784D01*
Y801624D01*
X174576D02*
X187784D01*
X699770Y657860D02*
Y665480D01*
X692150Y657860D02*
Y665480D01*
X699770D01*
X684530Y657860D02*
X707390D01*
X692150Y535940D02*
X699770D01*
Y543560D02*
X707390D01*
X692150D02*
X699770D01*
X684530D02*
X692150D01*
X699770Y535940D02*
Y543560D01*
X692150Y535940D02*
Y543560D01*
X689610Y603250D02*
X702310D01*
X689610Y598170D02*
Y603250D01*
Y598170D02*
X702310D01*
Y603250D01*
X695960Y607060D02*
X702310D01*
X689610D02*
X695960D01*
Y594360D02*
X702310D01*
X689610D02*
X695960D01*
X296672Y762508D02*
Y812292D01*
X279908Y762508D02*
X296672D01*
X257048D02*
X279908D01*
X257048D02*
Y812292D01*
X296672D01*
X245872Y765810D02*
X257048Y766064D01*
X245872Y765810D02*
Y770636D01*
X257048D01*
Y766064D02*
Y770636D01*
X245872Y778510D02*
X257048Y778764D01*
X245872Y778510D02*
Y783336D01*
X257048D01*
Y778764D02*
Y783336D01*
X245872Y791210D02*
X257048Y791464D01*
X245872Y791210D02*
Y796036D01*
X257048D01*
Y791464D02*
Y796036D01*
X245872Y803910D02*
X257048Y804164D01*
X245872Y803910D02*
Y808736D01*
X257048D01*
Y804164D02*
Y808736D01*
X296672D02*
X307848Y808990D01*
Y804164D02*
Y808990D01*
X296672Y804164D02*
X307848D01*
X296672D02*
Y808736D01*
Y796036D02*
X307848Y796290D01*
Y791464D02*
Y796290D01*
X296672Y791464D02*
X307848D01*
X296672D02*
Y796036D01*
Y783336D02*
X307848Y783590D01*
Y778764D02*
Y783590D01*
X296672Y778764D02*
X307848D01*
X296672D02*
Y783336D01*
Y770636D02*
X307848Y770890D01*
Y766064D02*
Y770890D01*
X296672Y766064D02*
X307848D01*
X296672D02*
Y770636D01*
X114046Y390906D02*
X127254D01*
X114046D02*
Y419354D01*
X127254D01*
Y390906D02*
Y419354D01*
D15*
X372700Y297180D02*
G03*
X372700Y297180I-1000J0D01*
G01*
D17*
X515140Y693520D02*
Y706020D01*
X495140Y693520D02*
Y706020D01*
Y693520D02*
X515140D01*
X495140Y706020D02*
X515140D01*
X515460Y727810D02*
Y740310D01*
X495460Y727810D02*
Y740310D01*
Y727810D02*
X515460D01*
X495460Y740310D02*
X515460D01*
X308580Y605340D02*
Y644340D01*
X209580Y605340D02*
Y644340D01*
X308580D01*
X209580Y605340D02*
X308580D01*
X2220Y287750D02*
X146220D01*
X2220Y377750D02*
X146220D01*
Y287750D02*
Y377750D01*
X2220Y287750D02*
Y377750D01*
X351890Y812010D02*
X364390D01*
X351890Y832010D02*
X364390D01*
X351890Y812010D02*
Y832010D01*
X364390Y812010D02*
Y832010D01*
X881280Y255830D02*
Y325830D01*
X983080D01*
Y255830D02*
Y325830D01*
X881280Y255830D02*
X983080D01*
X348730Y250470D02*
Y285470D01*
X283730Y250470D02*
X348730D01*
X283730D02*
Y285470D01*
X348730D01*
X102970Y222410D02*
X115470D01*
X102970Y242410D02*
X115470D01*
X102970Y222410D02*
Y242410D01*
X115470Y222410D02*
Y242410D01*
X176130Y145740D02*
Y265740D01*
X126130Y145740D02*
X176130D01*
X126130D02*
Y265740D01*
X176130D01*
X213460Y753270D02*
X225960D01*
X213460Y773270D02*
X225960D01*
X213460Y753270D02*
Y773270D01*
X225960Y753270D02*
Y773270D01*
X578960Y647800D02*
Y660300D01*
X558960Y647800D02*
Y660300D01*
Y647800D02*
X578960D01*
X558960Y660300D02*
X578960D01*
Y669390D02*
Y681890D01*
X558960Y669390D02*
Y681890D01*
Y669390D02*
X578960D01*
X558960Y681890D02*
X578960D01*
X578640Y690980D02*
Y703480D01*
X558640Y690980D02*
Y703480D01*
Y690980D02*
X578640D01*
X558640Y703480D02*
X578640D01*
X558640Y755750D02*
X578640D01*
X558640Y768250D02*
X578640D01*
Y755750D02*
Y768250D01*
X558640Y755750D02*
Y768250D01*
X936150Y454760D02*
Y467260D01*
X956150Y454760D02*
Y467260D01*
X936150D02*
X956150D01*
X936150Y454760D02*
X956150D01*
X936150Y538580D02*
Y551080D01*
X956150Y538580D02*
Y551080D01*
X936150D02*
X956150D01*
X936150Y538580D02*
X956150D01*
X935830Y475080D02*
Y487580D01*
X955830Y475080D02*
Y487580D01*
X935830D02*
X955830D01*
X935830Y475080D02*
X955830D01*
X936150Y516990D02*
Y529490D01*
X956150Y516990D02*
Y529490D01*
X936150D02*
X956150D01*
X936150Y516990D02*
X956150D01*
X935830Y496670D02*
Y509170D01*
X955830Y496670D02*
Y509170D01*
X935830D02*
X955830D01*
X935830Y496670D02*
X955830D01*
X936150Y580490D02*
Y592990D01*
X956150Y580490D02*
Y592990D01*
X936150D02*
X956150D01*
X936150Y580490D02*
X956150D01*
X936150Y600810D02*
Y613310D01*
X956150Y600810D02*
Y613310D01*
X936150D02*
X956150D01*
X936150Y600810D02*
X956150D01*
X935830Y560170D02*
Y572670D01*
X955830Y560170D02*
Y572670D01*
X935830D02*
X955830D01*
X935830Y560170D02*
X955830D01*
X1093310Y643990D02*
Y656490D01*
X1073310Y643990D02*
Y656490D01*
Y643990D02*
X1093310D01*
X1073310Y656490D02*
X1093310D01*
X517370Y804390D02*
Y864390D01*
X577370D01*
Y804390D02*
Y864390D01*
X517370Y804390D02*
X577370D01*
X1382720Y2540D02*
Y205740D01*
Y2540D02*
X1521620D01*
Y205740D01*
X1382720D02*
X1521620D01*
X1251110Y167540D02*
X1271110D01*
X1251110Y155040D02*
X1271110D01*
X1251110D02*
Y167540D01*
X1271110Y155040D02*
Y167540D01*
X1149350Y142550D02*
X1352550D01*
X1149350Y3650D02*
Y142550D01*
Y3650D02*
X1352550D01*
Y142550D01*
X937260D02*
X1140460D01*
X937260Y3650D02*
Y142550D01*
Y3650D02*
X1140460D01*
Y142550D01*
X5080Y141280D02*
X208280D01*
X5080Y2380D02*
Y141280D01*
Y2380D02*
X208280D01*
Y141280D01*
X688340Y-160D02*
Y138740D01*
X485140Y-160D02*
X688340D01*
X485140D02*
Y138740D01*
X688340D01*
X341530Y812010D02*
Y832010D01*
X329030Y812010D02*
Y832010D01*
X341530D01*
X329030Y812010D02*
X341530D01*
X330300Y742790D02*
Y762790D01*
X342800Y742790D02*
Y762790D01*
X330300Y742790D02*
X342800D01*
X330300Y762790D02*
X342800D01*
X353160Y742790D02*
Y762790D01*
X365660Y742790D02*
Y762790D01*
X353160Y742790D02*
X365660D01*
X353160Y762790D02*
X365660D01*
X80830Y513180D02*
Y525680D01*
X60830Y513180D02*
Y525680D01*
Y513180D02*
X80830D01*
X60830Y525680D02*
X80830D01*
X106150Y736600D02*
Y838200D01*
X3650D02*
X106150D01*
X3650Y736600D02*
Y838200D01*
Y736600D02*
X106150D01*
X213460Y801530D02*
Y821530D01*
X225960Y801530D02*
Y821530D01*
X213460Y801530D02*
X225960D01*
X213460Y821530D02*
X225960D01*
X138330Y777400D02*
Y797400D01*
X125830Y777400D02*
Y797400D01*
X138330D01*
X125830Y777400D02*
X138330D01*
X704750Y359570D02*
Y379570D01*
X692250Y359570D02*
Y379570D01*
X704750D01*
X692250Y359570D02*
X704750D01*
X655220D02*
Y379570D01*
X642720Y359570D02*
Y379570D01*
X655220D01*
X642720Y359570D02*
X655220D01*
X634900Y255830D02*
X736700D01*
Y325830D01*
X634900D02*
X736700D01*
X634900Y255830D02*
Y325830D01*
X1197050Y385980D02*
Y487780D01*
X1127050D02*
X1197050D01*
X1127050Y385980D02*
Y487780D01*
Y385980D02*
X1197050D01*
Y497740D02*
Y599540D01*
X1127050D02*
X1197050D01*
X1127050Y497740D02*
Y599540D01*
Y497740D02*
X1197050D01*
X422910Y1110D02*
Y140010D01*
X219710Y1110D02*
X422910D01*
X219710D02*
Y140010D01*
X422910D01*
X1139190Y731210D02*
Y870110D01*
X1342390D01*
Y731210D02*
Y870110D01*
X1139190Y731210D02*
X1342390D01*
X827940Y359570D02*
Y379570D01*
X815440Y359570D02*
Y379570D01*
X827940D01*
X815440Y359570D02*
X827940D01*
X777140D02*
Y379570D01*
X764640Y359570D02*
Y379570D01*
X777140D01*
X764640Y359570D02*
X777140D01*
X615790Y151230D02*
X635790D01*
X615790Y163730D02*
X635790D01*
Y151230D02*
Y163730D01*
X615790Y151230D02*
Y163730D01*
X822800Y165000D02*
X842800D01*
X822800Y152500D02*
X842800D01*
X822800D02*
Y165000D01*
X842800Y152500D02*
Y165000D01*
X758090Y255830D02*
X859890D01*
Y325830D01*
X758090D02*
X859890D01*
X758090Y255830D02*
Y325830D01*
X901700Y-1430D02*
Y137470D01*
X698500Y-1430D02*
X901700D01*
X698500D02*
Y137470D01*
X901700D01*
X1074580Y567590D02*
X1094580D01*
X1074580Y555090D02*
X1094580D01*
X1074580D02*
Y567590D01*
X1094580Y555090D02*
Y567590D01*
X1074580Y518060D02*
X1094580D01*
X1074580Y505560D02*
X1094580D01*
X1074580D02*
Y518060D01*
X1094580Y505560D02*
Y518060D01*
X1215550Y701140D02*
X1235550D01*
X1215550Y713640D02*
X1235550D01*
Y701140D02*
Y713640D01*
X1215550Y701140D02*
Y713640D01*
X1381450Y869950D02*
X1520350D01*
Y666750D02*
Y869950D01*
X1381450Y666750D02*
X1520350D01*
X1381450D02*
Y869950D01*
X1357730Y773590D02*
Y793590D01*
X1370230Y773590D02*
Y793590D01*
X1357730Y773590D02*
X1370230D01*
X1357730Y793590D02*
X1370230D01*
X1353920Y556420D02*
Y576420D01*
X1366420Y556420D02*
Y576420D01*
X1353920Y556420D02*
X1366420D01*
X1353920Y576420D02*
X1366420D01*
X1381450Y655320D02*
X1520350D01*
Y452120D02*
Y655320D01*
X1381450Y452120D02*
X1520350D01*
X1381450D02*
Y655320D01*
X1074900Y455830D02*
X1094900D01*
X1074900Y443330D02*
X1094900D01*
X1074900D02*
Y455830D01*
X1094900Y443330D02*
Y455830D01*
X1074900Y405030D02*
X1094900D01*
X1074900Y392530D02*
X1094900D01*
X1074900D02*
Y405030D01*
X1094900Y392530D02*
Y405030D01*
X1366420Y345600D02*
Y365600D01*
X1353920Y345600D02*
Y365600D01*
X1366420D01*
X1353920Y345600D02*
X1366420D01*
X1383990Y419100D02*
X1522890D01*
Y215900D02*
Y419100D01*
X1383990Y215900D02*
X1522890D01*
X1383990D02*
Y419100D01*
X1365150Y177010D02*
Y197010D01*
X1352650Y177010D02*
Y197010D01*
X1365150D01*
X1352650Y177010D02*
X1365150D01*
X900330Y359570D02*
Y379570D01*
X887830Y359570D02*
Y379570D01*
X900330D01*
X887830Y359570D02*
X900330D01*
X951130D02*
Y379570D01*
X938630Y359570D02*
Y379570D01*
X951130D01*
X938630Y359570D02*
X951130D01*
X1042830Y165000D02*
X1062830D01*
X1042830Y152500D02*
X1062830D01*
X1042830D02*
Y165000D01*
X1062830Y152500D02*
Y165000D01*
X349410Y149960D02*
X369410D01*
X349410Y162460D02*
X369410D01*
Y149960D02*
Y162460D01*
X349410Y149960D02*
Y162460D01*
X218600Y153770D02*
X238600D01*
X218600Y166270D02*
X238600D01*
Y153770D02*
Y166270D01*
X218600Y153770D02*
Y166270D01*
X142400Y671930D02*
Y684430D01*
X122400Y671930D02*
Y684430D01*
Y671930D02*
X142400D01*
X122400Y684430D02*
X142400D01*
X185520Y524670D02*
Y544670D01*
X198020Y524670D02*
Y544670D01*
X185520Y524670D02*
X198020D01*
X185520Y544670D02*
X198020D01*
X122080Y565250D02*
Y577750D01*
X142080Y565250D02*
Y577750D01*
X122080D02*
X142080D01*
X122080Y565250D02*
X142080D01*
X122400Y662840D02*
X142400D01*
X122400Y650340D02*
X142400D01*
X122400D02*
Y662840D01*
X142400Y650340D02*
Y662840D01*
X122080Y599340D02*
X142080D01*
X122080Y586840D02*
X142080D01*
X122080D02*
Y599340D01*
X142080Y586840D02*
Y599340D01*
X122400Y628750D02*
Y641250D01*
X142400Y628750D02*
Y641250D01*
X122400D02*
X142400D01*
X122400Y628750D02*
X142400D01*
X122080Y608430D02*
Y620930D01*
X142080Y608430D02*
Y620930D01*
X122080D02*
X142080D01*
X122080Y608430D02*
X142080D01*
X237590Y522130D02*
X250090D01*
X237590Y542130D02*
X250090D01*
X237590Y522130D02*
Y542130D01*
X250090Y522130D02*
Y542130D01*
X318930Y381100D02*
Y393600D01*
X338930Y381100D02*
Y393600D01*
X318930D02*
X338930D01*
X318930Y381100D02*
X338930D01*
X383700Y290880D02*
Y303480D01*
Y290880D02*
X403700D01*
Y303480D01*
X383700D02*
X403700D01*
X185260Y403960D02*
Y416460D01*
X165260Y403960D02*
Y416460D01*
Y403960D02*
X185260D01*
X165260Y416460D02*
X185260D01*
Y383640D02*
Y396140D01*
X165260Y383640D02*
Y396140D01*
Y383640D02*
X185260D01*
X165260Y396140D02*
X185260D01*
X66860Y430135D02*
X105860D01*
X66860Y479185D02*
X105860D01*
Y430135D02*
Y479185D01*
X66860Y430135D02*
Y479185D01*
X185260Y467460D02*
Y479960D01*
X165260Y467460D02*
Y479960D01*
Y467460D02*
X185260D01*
X165260Y479960D02*
X185260D01*
X165260Y447140D02*
Y459640D01*
X185260Y447140D02*
Y459640D01*
X165260D02*
X185260D01*
X165260Y447140D02*
X185260D01*
X160610Y505840D02*
X192610D01*
Y489840D02*
Y505840D01*
X160610Y489840D02*
X192610D01*
X160610D02*
Y505840D01*
X381160Y265530D02*
Y278030D01*
X401160Y265530D02*
Y278030D01*
X381160D02*
X401160D01*
X381160Y265530D02*
X401160D01*
X292130Y461990D02*
X366130D01*
X292130Y404490D02*
Y461990D01*
Y404490D02*
X366130D01*
Y461990D01*
D134*
X675640Y566421D02*
G03*
X684597Y549575I20320J0D01*
G01*
X684597Y651846D02*
G03*
X675640Y635000I11363J-16846D01*
G01*
X708660Y635000D02*
G03*
X707375Y640567I-12700J0D01*
G01*
X684545D02*
G03*
X683260Y635000I11415J-5567D01*
G01*
X716281Y634999D02*
G03*
X707323Y651846I-20321J0D01*
G01*
X707375Y640567D02*
G03*
X684545Y640567I-11415J-5567D01*
G01*
X707323Y651846D02*
G03*
X684597Y651846I-11363J-16846D01*
G01*
X707323Y549574D02*
G03*
X716280Y566419I-11363J16846D01*
G01*
X684545Y560853D02*
G03*
X707375Y560853I11415J5567D01*
G01*
X707375Y560853D02*
G03*
X708660Y566420I-11415J5567D01*
G01*
X683260D02*
G03*
X684545Y560853I12700J0D01*
G01*
X684597Y549574D02*
G03*
X707323Y549574I11363J16846D01*
G01*
X708660Y566420D02*
Y635000D01*
X716280Y566420D02*
Y635000D01*
X683260Y566420D02*
Y635000D01*
X675640Y566420D02*
Y635000D01*
X695960Y607060D02*
Y612140D01*
Y589280D02*
Y594360D01*
D135*
X342900Y861310D02*
X350270D01*
X342900Y848110D02*
X350520D01*
X274320Y843530D02*
X281690D01*
X274320Y830330D02*
X281940D01*
X896870Y678430D02*
Y685800D01*
X883670Y678180D02*
Y685800D01*
X647450Y617830D02*
Y625450D01*
X660650Y618080D02*
Y625450D01*
Y576580D02*
Y584200D01*
X647450Y576580D02*
Y583950D01*
X565810Y748280D02*
X573430D01*
X566060Y735080D02*
X573430D01*
X565400Y776990D02*
X572770D01*
X565150Y790190D02*
X572770D01*
X248920Y674120D02*
X256540D01*
X248920Y687320D02*
X256290D01*
X941930Y661420D02*
X949300D01*
X941680Y674620D02*
X949300D01*
X941930Y685550D02*
X949300D01*
X941680Y698750D02*
X949300D01*
X941930Y636020D02*
X949300D01*
X941680Y649220D02*
X949300D01*
X288290Y576830D02*
X295660D01*
X288290Y563630D02*
X295910D01*
X211840Y529590D02*
Y536960D01*
X225040Y529590D02*
Y537210D01*
X68580Y548890D02*
X75950D01*
X68580Y535690D02*
X76200D01*
X324710Y356620D02*
X332080D01*
X324460Y369820D02*
X332080D01*
X324710Y329950D02*
X332080D01*
X324460Y343150D02*
X332080D01*
X90420Y402840D02*
Y410210D01*
X77220Y402590D02*
Y410210D01*
X263140Y293620D02*
Y300990D01*
X249940Y293370D02*
Y300990D01*
X236470Y293620D02*
Y300990D01*
X223270Y293370D02*
Y300990D01*
X172970Y425200D02*
X180340D01*
X172720Y438400D02*
X180340D01*
D136*
X4330Y577600D02*
Y667000D01*
Y577600D02*
X69330D01*
Y667000D01*
X4330D02*
X69330D01*
D137*
X444500Y762000D02*
Y812800D01*
X393700D02*
X444500D01*
X393700Y762000D02*
Y812800D01*
Y762000D02*
X444500D01*
X175910Y284540D02*
Y335580D01*
X202550D01*
Y284540D02*
Y335580D01*
X175910Y284540D02*
X202550D01*
X175910Y292280D02*
X183650Y284540D01*
D138*
X172780Y276060D02*
Y344060D01*
X205680D01*
Y276060D02*
Y344060D01*
X172780Y276060D02*
X205680D01*
M02*
