G04*
G04 #@! TF.GenerationSoftware,Altium Limited,Altium Designer,25.4.2 (15)*
G04*
G04 Layer_Physical_Order=1*
G04 Layer_Color=255*
%FSLAX44Y44*%
%MOMM*%
G71*
G04*
G04 #@! TF.SameCoordinates,CA2AF886-8F4D-4062-A15D-1C6B51B4DCEA*
G04*
G04*
G04 #@! TF.FilePolarity,Positive*
G04*
G01*
G75*
%ADD11C,0.2000*%
%ADD12C,0.4000*%
%ADD15C,0.3000*%
%ADD82R,1.1500X1.1500*%
G04:AMPARAMS|DCode=83|XSize=1.97mm|YSize=0.6mm|CornerRadius=0.075mm|HoleSize=0mm|Usage=FLASHONLY|Rotation=270.000|XOffset=0mm|YOffset=0mm|HoleType=Round|Shape=RoundedRectangle|*
%AMROUNDEDRECTD83*
21,1,1.9700,0.4500,0,0,270.0*
21,1,1.8200,0.6000,0,0,270.0*
1,1,0.1500,-0.2250,-0.9100*
1,1,0.1500,-0.2250,0.9100*
1,1,0.1500,0.2250,0.9100*
1,1,0.1500,0.2250,-0.9100*
%
%ADD83ROUNDEDRECTD83*%
%ADD84R,1.1500X1.1500*%
%ADD85R,1.3000X1.5000*%
G04:AMPARAMS|DCode=86|XSize=1.84mm|YSize=0.93mm|CornerRadius=0.1163mm|HoleSize=0mm|Usage=FLASHONLY|Rotation=270.000|XOffset=0mm|YOffset=0mm|HoleType=Round|Shape=RoundedRectangle|*
%AMROUNDEDRECTD86*
21,1,1.8400,0.6975,0,0,270.0*
21,1,1.6075,0.9300,0,0,270.0*
1,1,0.2325,-0.3488,-0.8038*
1,1,0.2325,-0.3488,0.8038*
1,1,0.2325,0.3488,0.8038*
1,1,0.2325,0.3488,-0.8038*
%
%ADD86ROUNDEDRECTD86*%
%ADD87R,1.4000X1.0000*%
%ADD88R,1.5000X1.3000*%
%ADD89R,2.0000X5.5000*%
%ADD90R,1.9812X0.5334*%
%ADD91R,1.1500X0.2980*%
%ADD92R,1.1500X0.5900*%
%ADD93R,1.2000X1.4700*%
%ADD94R,1.4700X1.2000*%
%ADD95R,1.5500X2.2000*%
G04:AMPARAMS|DCode=96|XSize=0.86mm|YSize=1.36mm|CornerRadius=0.215mm|HoleSize=0mm|Usage=FLASHONLY|Rotation=0.000|XOffset=0mm|YOffset=0mm|HoleType=Round|Shape=RoundedRectangle|*
%AMROUNDEDRECTD96*
21,1,0.8600,0.9300,0,0,0.0*
21,1,0.4300,1.3600,0,0,0.0*
1,1,0.4300,0.2150,-0.4650*
1,1,0.4300,-0.2150,-0.4650*
1,1,0.4300,-0.2150,0.4650*
1,1,0.4300,0.2150,0.4650*
%
%ADD96ROUNDEDRECTD96*%
G04:AMPARAMS|DCode=97|XSize=1.97mm|YSize=0.6mm|CornerRadius=0.075mm|HoleSize=0mm|Usage=FLASHONLY|Rotation=180.000|XOffset=0mm|YOffset=0mm|HoleType=Round|Shape=RoundedRectangle|*
%AMROUNDEDRECTD97*
21,1,1.9700,0.4500,0,0,180.0*
21,1,1.8200,0.6000,0,0,180.0*
1,1,0.1500,-0.9100,0.2250*
1,1,0.1500,0.9100,0.2250*
1,1,0.1500,0.9100,-0.2250*
1,1,0.1500,-0.9100,-0.2250*
%
%ADD97ROUNDEDRECTD97*%
G04:AMPARAMS|DCode=98|XSize=1.3mm|YSize=1.8mm|CornerRadius=0.195mm|HoleSize=0mm|Usage=FLASHONLY|Rotation=0.000|XOffset=0mm|YOffset=0mm|HoleType=Round|Shape=RoundedRectangle|*
%AMROUNDEDRECTD98*
21,1,1.3000,1.4100,0,0,0.0*
21,1,0.9100,1.8000,0,0,0.0*
1,1,0.3900,0.4550,-0.7050*
1,1,0.3900,-0.4550,-0.7050*
1,1,0.3900,-0.4550,0.7050*
1,1,0.3900,0.4550,0.7050*
%
%ADD98ROUNDEDRECTD98*%
%ADD99C,0.5400*%
%ADD100C,0.7300*%
%ADD101C,0.7400*%
%ADD102C,0.9400*%
%ADD103C,2.0000*%
%ADD104C,1.5400*%
%ADD105C,0.2772*%
%ADD106C,0.4500*%
%ADD107C,5.0000*%
%ADD108O,2.5000X5.0000*%
%ADD109O,2.2500X4.5000*%
%ADD110O,4.5000X2.2500*%
%ADD111C,1.5400*%
%ADD112R,1.5400X1.5400*%
%ADD113C,3.7500*%
%ADD114R,1.3500X1.3500*%
%ADD115C,1.3500*%
%ADD116C,1.8000*%
%ADD117R,2.4000X2.4000*%
%ADD118C,2.4000*%
%ADD119R,1.4980X1.4980*%
%ADD120C,1.4980*%
%ADD121O,1.8000X1.0000*%
%ADD122O,2.2000X1.0000*%
%ADD123R,2.4000X2.4000*%
%ADD124R,1.3500X1.3500*%
%ADD125C,1.3208*%
%ADD126C,1.3700*%
%ADD127R,1.3700X1.3700*%
%ADD128R,1.5750X1.5750*%
%ADD129C,1.5750*%
%ADD130C,0.8000*%
%ADD131C,0.7270*%
%ADD132C,1.2700*%
%ADD133C,0.7000*%
G36*
X405003Y849757D02*
X404238Y847909D01*
X391160D01*
X391160Y847909D01*
X389389Y847557D01*
X387887Y846553D01*
X387887Y846553D01*
X368430Y827096D01*
X366430Y827925D01*
Y842050D01*
X362769D01*
Y844670D01*
X365250D01*
Y845420D01*
X367250Y846951D01*
X367439Y846900D01*
X369161D01*
X370824Y847346D01*
X372316Y848207D01*
X373533Y849424D01*
X374394Y850916D01*
X374840Y852579D01*
Y854301D01*
X374394Y855964D01*
X373533Y857456D01*
X372316Y858673D01*
X370824Y859534D01*
X369161Y859980D01*
X367439D01*
X367250Y859929D01*
X365250Y861460D01*
Y864750D01*
X348250D01*
X347170Y864750D01*
X345170Y864750D01*
X342210D01*
Y854710D01*
Y844670D01*
X345170D01*
X346250Y844670D01*
X348250Y844670D01*
X353511D01*
Y842050D01*
X349850D01*
Y839103D01*
X343570D01*
Y842050D01*
X326990D01*
Y839103D01*
X296670D01*
Y846970D01*
X279670D01*
X278590Y846970D01*
Y846970D01*
X277670D01*
Y846970D01*
X273630D01*
Y836930D01*
X268630D01*
Y831930D01*
X259590D01*
Y827353D01*
X228000D01*
Y831570D01*
X211420D01*
Y814990D01*
X228000D01*
Y816667D01*
X269247D01*
X271517Y814397D01*
Y766396D01*
X269670Y765631D01*
X264668Y770633D01*
Y773557D01*
X260077D01*
X259395Y773693D01*
X259395Y773693D01*
X252222D01*
X251540Y773557D01*
X239776D01*
Y763143D01*
X251540D01*
X252222Y763007D01*
X257182D01*
X273082Y747107D01*
X273082Y747107D01*
X282927Y737262D01*
X282927Y737262D01*
X284660Y736104D01*
X286705Y735697D01*
X328260D01*
Y732750D01*
X344840D01*
Y735697D01*
X351120D01*
Y732750D01*
X367700D01*
Y749330D01*
X351120D01*
Y746383D01*
X344840D01*
Y749330D01*
X328260D01*
Y746383D01*
X288918D01*
X282203Y753098D01*
Y816610D01*
X282203Y816610D01*
X282203Y816610D01*
Y818207D01*
X290886Y826890D01*
X296670D01*
Y828417D01*
X326990D01*
Y825470D01*
X343570D01*
Y828417D01*
X349850D01*
Y825470D01*
X363975D01*
X364804Y823470D01*
X359884Y818550D01*
X349850D01*
Y801970D01*
X354781D01*
Y795667D01*
X351143Y792029D01*
X342610D01*
X341781Y794029D01*
X342394Y794641D01*
X343564Y796669D01*
X344170Y798930D01*
Y801270D01*
X343570Y803510D01*
Y818550D01*
X326990D01*
Y815603D01*
X311900D01*
X309856Y815196D01*
X308122Y814038D01*
X308122Y814038D01*
X305877Y811793D01*
X301498D01*
X300816Y811657D01*
X289052D01*
Y801243D01*
X300816D01*
X301498Y801107D01*
X308671D01*
X308671Y801107D01*
X309353Y801243D01*
X313944D01*
Y804748D01*
X314113Y804917D01*
X325741D01*
X326831Y802917D01*
X326390Y801270D01*
Y798930D01*
X326996Y796669D01*
X328166Y794641D01*
X328779Y794029D01*
X327950Y792029D01*
X313944D01*
Y798957D01*
X289052D01*
Y788543D01*
X296869D01*
Y786257D01*
X289052D01*
Y775843D01*
X313944D01*
Y782771D01*
X330949D01*
X331485Y780771D01*
X331091Y780544D01*
X329436Y778889D01*
X328266Y776861D01*
X327660Y774600D01*
Y772260D01*
X327761Y771883D01*
X326226Y769883D01*
X314113D01*
X313944Y770052D01*
Y773557D01*
X309353D01*
X308671Y773693D01*
X308671Y773693D01*
X301498D01*
X300816Y773557D01*
X289052D01*
Y763143D01*
X300816D01*
X301498Y763007D01*
X305877D01*
X308122Y760762D01*
X308122Y760762D01*
X309856Y759604D01*
X311900Y759197D01*
X328260D01*
Y756250D01*
X344840D01*
Y770020D01*
X345440Y772260D01*
Y774600D01*
X344834Y776861D01*
X343664Y778889D01*
X342009Y780544D01*
X341615Y780771D01*
X342151Y782771D01*
X351143D01*
X354781Y779133D01*
Y772830D01*
X351120D01*
Y756250D01*
X367700D01*
Y772830D01*
X364039D01*
Y781050D01*
X363687Y782821D01*
X362683Y784323D01*
X362683Y784323D01*
X359606Y787400D01*
X362683Y790477D01*
X362683Y790477D01*
X363687Y791979D01*
X364039Y793750D01*
Y801970D01*
X366430D01*
Y812004D01*
X389080Y834653D01*
X390322Y834212D01*
X390970Y833715D01*
Y832259D01*
X391416Y830596D01*
X392277Y829104D01*
X393494Y827887D01*
X394986Y827026D01*
X396649Y826580D01*
X398371D01*
X400034Y827026D01*
X401526Y827887D01*
X402130Y828491D01*
X407670D01*
Y811476D01*
X405670Y809490D01*
X405164D01*
X402776Y808850D01*
X400634Y807614D01*
X398886Y805866D01*
X397650Y803724D01*
X397010Y801336D01*
Y798864D01*
X397650Y796476D01*
X398886Y794334D01*
X400634Y792586D01*
X402776Y791350D01*
X405164Y790710D01*
X407636D01*
X407670Y790684D01*
Y786076D01*
X405670Y784090D01*
X405164D01*
X402776Y783450D01*
X400634Y782214D01*
X398886Y780466D01*
X397650Y778324D01*
X397010Y775936D01*
Y773464D01*
X397650Y771076D01*
X398886Y768934D01*
X400634Y767186D01*
X402776Y765950D01*
X405164Y765310D01*
X407636D01*
X407670Y765284D01*
Y744220D01*
X384810Y721360D01*
X38100D01*
Y867351D01*
X387409D01*
X405003Y849757D01*
D02*
G37*
G36*
X283706Y700462D02*
X274857Y691613D01*
X273853Y690111D01*
X273501Y688340D01*
X273501Y688340D01*
Y661914D01*
X271863Y661283D01*
X271303Y661362D01*
X270773Y661948D01*
Y670680D01*
X271270D01*
Y690760D01*
X254270D01*
X253190Y690760D01*
X251190Y690760D01*
X248230D01*
Y680720D01*
Y670680D01*
X251190D01*
X252270Y670680D01*
X254270Y670680D01*
X260087D01*
Y660451D01*
X258087Y660010D01*
X258050Y660017D01*
X257352Y661062D01*
X256264Y661789D01*
X254980Y662044D01*
X250480D01*
X249196Y661789D01*
X248108Y661062D01*
X247410Y660017D01*
X247159Y659974D01*
X245601D01*
X245350Y660017D01*
X244652Y661062D01*
X243564Y661789D01*
X242280Y662044D01*
X237780D01*
X236496Y661789D01*
X235408Y661062D01*
X234710Y660017D01*
X234459Y659974D01*
X232901D01*
X232650Y660017D01*
X231952Y661062D01*
X230864Y661789D01*
X229580Y662044D01*
X225080D01*
X223796Y661789D01*
X222708Y661062D01*
X222010Y660017D01*
X221759Y659974D01*
X220201D01*
X219950Y660017D01*
X219252Y661062D01*
X218164Y661789D01*
X216880Y662044D01*
X212380D01*
X211096Y661789D01*
X210008Y661062D01*
X209281Y659974D01*
X209025Y658690D01*
Y640490D01*
X209281Y639206D01*
X210008Y638118D01*
X211096Y637391D01*
X212380Y637136D01*
X216880D01*
X218164Y637391D01*
X219252Y638118D01*
X219950Y639163D01*
X220201Y639206D01*
X221759D01*
X222010Y639163D01*
X222708Y638118D01*
X223796Y637391D01*
X225080Y637136D01*
X229580D01*
X230864Y637391D01*
X231952Y638118D01*
X232650Y639163D01*
X232901Y639206D01*
X234459D01*
X234710Y639163D01*
X235408Y638118D01*
X236232Y637568D01*
X236616Y636522D01*
X236786Y635294D01*
X232290Y630797D01*
X152485D01*
X152440Y631022D01*
Y643290D01*
X137160D01*
Y648300D01*
X139150D01*
Y656590D01*
Y664880D01*
X137160D01*
Y669890D01*
X139150D01*
Y678180D01*
Y686470D01*
X137160D01*
Y702310D01*
X282941D01*
X283706Y700462D01*
D02*
G37*
G36*
X302604Y700310D02*
X287557Y685263D01*
X286553Y683761D01*
X286201Y681990D01*
X286201Y681990D01*
Y661051D01*
X285995Y660743D01*
X283736Y660571D01*
X282759Y661583D01*
Y686423D01*
X298646Y702310D01*
X301775D01*
X302604Y700310D01*
D02*
G37*
G36*
X322580Y441960D02*
X361950D01*
X391160Y412750D01*
Y306299D01*
X390373Y305789D01*
X389160Y305426D01*
X388950Y305566D01*
Y297180D01*
Y288794D01*
X389160Y288934D01*
X390373Y288571D01*
X391160Y288061D01*
Y251460D01*
X345440D01*
X333330Y263570D01*
X334095Y265418D01*
X371120D01*
Y263490D01*
X387700D01*
Y280070D01*
X371120D01*
Y278142D01*
X328930D01*
Y314960D01*
X322843Y321047D01*
Y325096D01*
X324257Y326510D01*
X327810Y326510D01*
X329810Y326510D01*
X332770D01*
Y336550D01*
Y346590D01*
X329810D01*
X328730Y346590D01*
X326730Y346590D01*
X324113D01*
Y351766D01*
X325527Y353180D01*
X327810Y353180D01*
X329810Y353180D01*
X332770D01*
Y363220D01*
Y373260D01*
X329810D01*
X328730Y373260D01*
X326730Y373260D01*
X323318D01*
Y379060D01*
X325470D01*
Y395640D01*
X322248D01*
Y419207D01*
X323025Y419656D01*
X324964Y421595D01*
X326335Y423970D01*
X327045Y426619D01*
Y429361D01*
X326335Y432010D01*
X324964Y434385D01*
X323025Y436324D01*
X320650Y437695D01*
X318001Y438405D01*
X315259D01*
X312610Y437695D01*
X310235Y436324D01*
X308296Y434385D01*
X306925Y432010D01*
X306215Y429361D01*
Y426619D01*
X306925Y423970D01*
X308296Y421595D01*
X310235Y419656D01*
X311562Y418890D01*
Y395640D01*
X308890D01*
Y379060D01*
X312632D01*
Y373260D01*
X309730D01*
Y353180D01*
X313427D01*
Y346590D01*
X309730D01*
Y336773D01*
X307882Y336008D01*
X288302Y355588D01*
Y438150D01*
X288302Y438150D01*
X287818Y440585D01*
X286439Y442649D01*
X286439Y442649D01*
X271199Y457889D01*
X269135Y459268D01*
X266700Y459752D01*
X266700Y459752D01*
X195300D01*
Y461680D01*
X178720D01*
Y445100D01*
X195300D01*
Y447028D01*
X264065D01*
X275578Y435515D01*
Y370925D01*
X273730Y370160D01*
X264105Y379785D01*
X264625Y382093D01*
X265809Y382776D01*
X267464Y384431D01*
X268634Y386459D01*
X269240Y388720D01*
Y391060D01*
X268634Y393321D01*
X267464Y395349D01*
X265809Y397004D01*
X263781Y398174D01*
X261520Y398780D01*
X259180D01*
X256919Y398174D01*
X254891Y397004D01*
X253236Y395349D01*
X253169Y395233D01*
X195300D01*
Y398180D01*
X178720D01*
Y392430D01*
X171800D01*
Y398180D01*
X168853D01*
Y401920D01*
X171800D01*
Y418500D01*
X170613D01*
Y421760D01*
X176070Y421760D01*
X178070Y421760D01*
X181030D01*
Y431800D01*
Y441840D01*
X178070D01*
X176990Y441840D01*
X174990Y441840D01*
X157990D01*
Y437143D01*
X152073D01*
X137128Y452088D01*
X135394Y453246D01*
X133350Y453653D01*
X133350Y453653D01*
X124226D01*
X123403Y455653D01*
X123418Y455667D01*
X137487D01*
X146082Y447072D01*
X146082Y447072D01*
X147815Y445914D01*
X149860Y445507D01*
X155220D01*
Y445100D01*
X171800D01*
Y461680D01*
X168853D01*
Y465420D01*
X171800D01*
Y482000D01*
X155220D01*
Y465420D01*
X158167D01*
Y461680D01*
X155220D01*
Y456193D01*
X152073D01*
X143478Y464788D01*
X141744Y465946D01*
X139700Y466353D01*
X139700Y466353D01*
X121921D01*
X121481Y468353D01*
X121487Y468390D01*
X121966Y468710D01*
X111060D01*
X100154D01*
X100633Y468390D01*
X100676Y468139D01*
Y466581D01*
X100633Y466330D01*
X99588Y465632D01*
X98861Y464544D01*
X98605Y463260D01*
Y458760D01*
X98861Y457476D01*
X99588Y456388D01*
X100633Y455690D01*
X100676Y455439D01*
Y453881D01*
X100633Y453630D01*
X99588Y452932D01*
X98861Y451844D01*
X98605Y450560D01*
Y446060D01*
X98861Y444776D01*
X99588Y443688D01*
X100633Y442990D01*
X100676Y442739D01*
Y441181D01*
X100633Y440930D01*
X99588Y440232D01*
X98861Y439144D01*
X98605Y437860D01*
Y433360D01*
X98861Y432076D01*
X99588Y430988D01*
X100676Y430261D01*
X101960Y430005D01*
X104307D01*
Y422170D01*
X100110D01*
Y407090D01*
X119190D01*
Y422170D01*
X114993D01*
Y430005D01*
X120160D01*
X121444Y430261D01*
X122532Y430988D01*
X123259Y432076D01*
X123514Y433360D01*
Y437860D01*
X123259Y439144D01*
X122532Y440232D01*
X122832Y442437D01*
X123418Y442967D01*
X131137D01*
X146082Y428022D01*
X146082Y428022D01*
X147816Y426864D01*
X149860Y426457D01*
X149860Y426457D01*
X157990D01*
Y421760D01*
X159927D01*
Y418500D01*
X155220D01*
Y401920D01*
X158167D01*
Y398180D01*
X155220D01*
Y392430D01*
X122406D01*
X119190Y395646D01*
Y403170D01*
X100110D01*
Y401608D01*
X95274D01*
X93860Y403022D01*
X93860Y405940D01*
X93860Y407940D01*
Y410900D01*
X83820D01*
X73780D01*
Y407940D01*
X73780Y406860D01*
X73780Y403964D01*
X71780Y403136D01*
X66303Y408613D01*
Y430005D01*
X70760D01*
X72044Y430261D01*
X73132Y430988D01*
X73859Y432076D01*
X74114Y433360D01*
Y437860D01*
X73859Y439144D01*
X73132Y440232D01*
X72087Y440930D01*
X72044Y441181D01*
Y442739D01*
X72087Y442990D01*
X73132Y443688D01*
X73859Y444776D01*
X74114Y446060D01*
Y450560D01*
X73859Y451844D01*
X73132Y452932D01*
X72087Y453630D01*
X72044Y453881D01*
Y455439D01*
X72087Y455690D01*
X73132Y456388D01*
X73859Y457476D01*
X74114Y458760D01*
Y463260D01*
X73859Y464544D01*
X73132Y465632D01*
X72087Y466330D01*
X72044Y466581D01*
Y468139D01*
X72087Y468390D01*
X73132Y469088D01*
X73859Y470176D01*
X74114Y471460D01*
Y475960D01*
X73859Y477244D01*
X73132Y478332D01*
X72044Y479059D01*
X70760Y479314D01*
X52560D01*
X51276Y479059D01*
X50188Y478332D01*
X49461Y477244D01*
X49205Y475960D01*
Y471460D01*
X49461Y470176D01*
X50188Y469088D01*
X51233Y468390D01*
X51276Y468139D01*
Y466581D01*
X51233Y466330D01*
X50188Y465632D01*
X49461Y464544D01*
X49205Y463260D01*
Y458760D01*
X49461Y457476D01*
X50188Y456388D01*
X51233Y455690D01*
X51276Y455439D01*
Y453881D01*
X51233Y453630D01*
X50188Y452932D01*
X49461Y451844D01*
X49205Y450560D01*
Y446060D01*
X49461Y444776D01*
X50188Y443688D01*
X51233Y442990D01*
X51276Y442739D01*
Y441181D01*
X51233Y440930D01*
X50188Y440232D01*
X49461Y439144D01*
X49205Y437860D01*
Y433360D01*
X49461Y432076D01*
X50188Y430988D01*
X51276Y430261D01*
X52560Y430005D01*
X55617D01*
Y406400D01*
X55617Y406400D01*
X56024Y404356D01*
X57182Y402622D01*
X65374Y394430D01*
X64546Y392430D01*
X43180D01*
Y486410D01*
X99060D01*
Y510780D01*
X99334Y510962D01*
X102004Y510338D01*
X102106Y510161D01*
X103761Y508506D01*
X104220Y508242D01*
Y515620D01*
Y523848D01*
X99060D01*
Y540201D01*
X103493D01*
X116897Y526797D01*
X116897Y526797D01*
X118399Y525793D01*
X120170Y525441D01*
X181880D01*
Y517530D01*
X185872D01*
Y509421D01*
X184358Y509119D01*
X182873Y508127D01*
X181881Y506642D01*
X181532Y504890D01*
Y490790D01*
X181881Y489038D01*
X182873Y487553D01*
X184358Y486561D01*
X186110Y486212D01*
X195210D01*
X196962Y486561D01*
X198447Y487553D01*
X199440Y489038D01*
X199788Y490790D01*
Y504890D01*
X199440Y506642D01*
X198447Y508127D01*
X196962Y509119D01*
X196558Y509200D01*
Y517530D01*
X201660D01*
Y532730D01*
X201660Y534610D01*
X201660Y536328D01*
X203074Y537742D01*
X206986D01*
X208400Y536328D01*
X208400Y533860D01*
X208400Y531860D01*
Y528900D01*
X218440D01*
X228480D01*
Y531860D01*
X228480Y532940D01*
X228480Y534940D01*
Y538047D01*
X235550D01*
Y535590D01*
X252130D01*
Y552170D01*
X235550D01*
Y548733D01*
X228480D01*
Y551940D01*
X208400D01*
Y548428D01*
X201660D01*
Y551810D01*
X181880D01*
X181880Y534730D01*
X179893Y534699D01*
X122087D01*
X108683Y548103D01*
X107181Y549107D01*
X105410Y549459D01*
X105410Y549459D01*
X99060D01*
Y553720D01*
X135890D01*
X137160Y554990D01*
Y563210D01*
X138830D01*
Y571500D01*
Y579790D01*
X137160D01*
Y584800D01*
X138830D01*
Y593090D01*
Y601380D01*
X137160D01*
Y606390D01*
X152120D01*
Y618658D01*
X152138Y618750D01*
X235622D01*
X237153Y619055D01*
X238452Y619923D01*
X251231Y632702D01*
X252099Y634000D01*
X252404Y635532D01*
Y637136D01*
X254980D01*
X256264Y637391D01*
X257352Y638118D01*
X258050Y639163D01*
X258301Y639206D01*
X259859D01*
X260110Y639163D01*
X260808Y638118D01*
X261896Y637391D01*
X263180Y637136D01*
X267680D01*
X268964Y637391D01*
X270052Y638118D01*
X270750Y639163D01*
X271001Y639206D01*
X272559D01*
X272810Y639163D01*
X273508Y638118D01*
X274596Y637391D01*
X275880Y637136D01*
X280380D01*
X281664Y637391D01*
X282752Y638118D01*
X283450Y639163D01*
X283701Y639206D01*
X285259D01*
X285510Y639163D01*
X286208Y638118D01*
X287296Y637391D01*
X288580Y637136D01*
X293080D01*
X294364Y637391D01*
X295452Y638118D01*
X296150Y639163D01*
X296401Y639206D01*
X297959D01*
X298210Y639163D01*
X298530Y638684D01*
Y649590D01*
Y660731D01*
X296436Y660571D01*
X295459Y661583D01*
Y680073D01*
X309257Y693871D01*
X322580D01*
Y441960D01*
D02*
G37*
G36*
X1139190Y675640D02*
X1139190Y355600D01*
X1093470Y309880D01*
X632460D01*
Y355337D01*
X640680D01*
Y349530D01*
X642992D01*
Y336939D01*
X641996Y336364D01*
X640266Y334634D01*
X639043Y332516D01*
X638410Y330153D01*
Y327707D01*
X639043Y325344D01*
X640266Y323226D01*
X641996Y321496D01*
X644114Y320273D01*
X646477Y319640D01*
X648923D01*
X651286Y320273D01*
X653404Y321496D01*
X655134Y323226D01*
X656357Y325344D01*
X656990Y327707D01*
Y330153D01*
X656357Y332516D01*
X655134Y334634D01*
X653678Y336090D01*
Y349530D01*
X657260D01*
Y366110D01*
X640680D01*
Y366023D01*
X632460D01*
Y415027D01*
X660727D01*
X670297Y405457D01*
Y373380D01*
X670297Y373380D01*
X670704Y371335D01*
X671862Y369602D01*
X684372Y357092D01*
X686105Y355934D01*
X688150Y355527D01*
X688150Y355527D01*
X690210D01*
Y349530D01*
X693157D01*
Y336573D01*
X692796Y336364D01*
X691066Y334634D01*
X689843Y332516D01*
X689210Y330153D01*
Y327707D01*
X689843Y325344D01*
X691066Y323226D01*
X692796Y321496D01*
X694914Y320273D01*
X697277Y319640D01*
X699723D01*
X702086Y320273D01*
X704204Y321496D01*
X705934Y323226D01*
X707157Y325344D01*
X707790Y327707D01*
Y330153D01*
X707157Y332516D01*
X705934Y334634D01*
X704204Y336364D01*
X703843Y336573D01*
Y349530D01*
X706790D01*
Y366110D01*
X695966D01*
X695450Y366213D01*
X695450Y366213D01*
X690363D01*
X680983Y375593D01*
Y407670D01*
X680983Y407670D01*
X680576Y409715D01*
X679418Y411448D01*
X679418Y411448D01*
X666718Y424148D01*
X664985Y425306D01*
X662940Y425713D01*
X662940Y425713D01*
X632460D01*
Y434077D01*
X707717D01*
X724907Y416887D01*
Y373380D01*
X724907Y373380D01*
X725314Y371335D01*
X726472Y369602D01*
X738982Y357092D01*
X740715Y355934D01*
X742760Y355527D01*
X742760Y355527D01*
X762600D01*
Y349530D01*
X765547D01*
Y336573D01*
X765186Y336364D01*
X763456Y334634D01*
X762233Y332516D01*
X761600Y330153D01*
Y327707D01*
X762233Y325344D01*
X763456Y323226D01*
X765186Y321496D01*
X767304Y320273D01*
X769667Y319640D01*
X772113D01*
X774476Y320273D01*
X776594Y321496D01*
X778324Y323226D01*
X779547Y325344D01*
X780180Y327707D01*
Y330153D01*
X779547Y332516D01*
X778324Y334634D01*
X776594Y336364D01*
X776233Y336573D01*
Y349530D01*
X779180D01*
Y366110D01*
X768356D01*
X767840Y366213D01*
X767840Y366213D01*
X744973D01*
X735593Y375593D01*
Y419100D01*
X735186Y421145D01*
X734028Y422878D01*
X734028Y422878D01*
X713708Y443198D01*
X711975Y444356D01*
X709930Y444763D01*
X709930Y444763D01*
X632460D01*
Y632460D01*
X683260Y683260D01*
X758488D01*
X760332Y681416D01*
X762667Y680068D01*
X765272Y679370D01*
X767968D01*
X770573Y680068D01*
X772907Y681416D01*
X774752Y683260D01*
X798011D01*
Y670070D01*
X796011Y669001D01*
X795795Y669146D01*
X793750Y669553D01*
X793750Y669553D01*
X775359D01*
X774814Y670498D01*
X772907Y672404D01*
X770573Y673752D01*
X767968Y674450D01*
X765272D01*
X762667Y673752D01*
X760332Y672404D01*
X758426Y670498D01*
X757078Y668163D01*
X756380Y665558D01*
Y662862D01*
X757078Y660257D01*
X758426Y657923D01*
X760332Y656016D01*
X762667Y654668D01*
X765272Y653970D01*
X767968D01*
X770573Y654668D01*
X772907Y656016D01*
X774814Y657923D01*
X775359Y658867D01*
X791537D01*
X797297Y653107D01*
Y624840D01*
X797297Y624840D01*
X797704Y622795D01*
X798862Y621062D01*
X810292Y609632D01*
X810292Y609632D01*
X812026Y608474D01*
X814070Y608067D01*
X814070Y608067D01*
X837081D01*
X837626Y607122D01*
X839532Y605216D01*
X841868Y603868D01*
X844472Y603170D01*
X847168D01*
X849772Y603868D01*
X852107Y605216D01*
X854014Y607122D01*
X854559Y608067D01*
X881380D01*
X881380Y608067D01*
X883425Y608474D01*
X885158Y609632D01*
X912803Y637277D01*
X926950D01*
Y632580D01*
X943950D01*
X945030Y632580D01*
X947030Y632580D01*
X949990D01*
Y642620D01*
Y652660D01*
X947030D01*
X945950Y652660D01*
X943950Y652660D01*
X941333D01*
Y656566D01*
X942747Y657980D01*
X945030Y657980D01*
X947030Y657980D01*
X949990D01*
Y668020D01*
Y678060D01*
X947030D01*
X945950Y678060D01*
X943950Y678060D01*
X941333D01*
Y680696D01*
X942747Y682110D01*
X945030Y682110D01*
X947030Y682110D01*
X949990D01*
Y692150D01*
Y702190D01*
X947030D01*
X945950Y702190D01*
X943950Y702190D01*
X941333D01*
Y705177D01*
X944553Y708397D01*
X1062047D01*
X1066217Y704227D01*
Y658530D01*
X1063270D01*
Y641950D01*
X1064699D01*
X1065528Y639950D01*
X1064766Y639189D01*
X1063596Y637161D01*
X1062990Y634900D01*
Y632560D01*
X1063596Y630299D01*
X1064766Y628271D01*
X1066421Y626616D01*
X1068449Y625446D01*
X1070710Y624840D01*
X1073050D01*
X1075311Y625446D01*
X1077339Y626616D01*
X1078994Y628271D01*
X1080164Y630299D01*
X1080770Y632560D01*
Y634900D01*
X1080164Y637161D01*
X1078994Y639189D01*
X1078232Y639950D01*
X1079061Y641950D01*
X1079850D01*
Y658530D01*
X1076903D01*
Y706440D01*
X1076903Y706440D01*
X1076496Y708484D01*
X1075338Y710218D01*
X1075338Y710218D01*
X1068038Y717518D01*
X1066304Y718676D01*
X1064260Y719083D01*
X1064260Y719083D01*
X942340D01*
X940295Y718676D01*
X938562Y717518D01*
X938562Y717518D01*
X932212Y711168D01*
X931054Y709435D01*
X930647Y707390D01*
X930647Y707390D01*
Y702190D01*
X926950D01*
Y682110D01*
X930647D01*
Y678060D01*
X926950D01*
Y657980D01*
X930647D01*
Y652660D01*
X926950D01*
Y647963D01*
X910590D01*
X910590Y647963D01*
X908546Y647556D01*
X906812Y646398D01*
X906812Y646398D01*
X879167Y618753D01*
X854559D01*
X854014Y619697D01*
X852107Y621604D01*
X849772Y622952D01*
X847168Y623650D01*
X844472D01*
X841868Y622952D01*
X839532Y621604D01*
X837626Y619697D01*
X837081Y618753D01*
X816283D01*
X807983Y627053D01*
Y655320D01*
X807983Y655320D01*
X807576Y657365D01*
X807269Y657824D01*
Y683260D01*
X814521D01*
Y666853D01*
X814029Y666361D01*
X813110Y664141D01*
Y661739D01*
X814029Y659519D01*
X815729Y657820D01*
X817949Y656900D01*
X820351D01*
X822571Y657820D01*
X824270Y659519D01*
X825190Y661739D01*
Y664141D01*
X824270Y666361D01*
X823779Y666853D01*
Y683260D01*
X837689D01*
X839532Y681416D01*
X841868Y680068D01*
X844472Y679370D01*
X847168D01*
X849772Y680068D01*
X852107Y681416D01*
X853951Y683260D01*
X859790D01*
X904240Y727710D01*
X1087120D01*
X1139190Y675640D01*
D02*
G37*
G36*
X62725Y519925D02*
X62560Y519760D01*
X52070Y530250D01*
Y531470D01*
X62725Y542125D01*
Y519925D01*
D02*
G37*
G36*
X275578Y323862D02*
Y310808D01*
X275029Y310441D01*
X268428Y303840D01*
X266580Y304606D01*
Y315720D01*
X261540D01*
Y306680D01*
X251540D01*
Y315720D01*
X246500D01*
Y312023D01*
X239910D01*
Y315720D01*
X234870D01*
Y306680D01*
X229870D01*
Y301680D01*
X219830D01*
Y298500D01*
X213163D01*
X207571Y304091D01*
X206731Y304653D01*
X205740Y304850D01*
X172720D01*
X171729Y304653D01*
X170889Y304091D01*
X170327Y303251D01*
X170130Y302260D01*
Y266700D01*
X170232Y266189D01*
Y240030D01*
Y224790D01*
Y201951D01*
X168384Y201186D01*
X128270Y241300D01*
X117510D01*
Y252450D01*
X114220D01*
Y244160D01*
X104220D01*
Y252450D01*
X100930D01*
Y241300D01*
X86360D01*
X60960Y266700D01*
X5139D01*
Y368300D01*
X231140D01*
X275578Y323862D01*
D02*
G37*
G36*
X299720Y266700D02*
X172720D01*
Y302260D01*
X205740D01*
X212090Y295910D01*
X264160D01*
X276860Y308610D01*
X299720D01*
Y266700D01*
D02*
G37*
G36*
X87630Y231140D02*
X123190D01*
X167640Y186690D01*
Y152400D01*
X161290Y146050D01*
X5139D01*
Y254000D01*
X64770D01*
X87630Y231140D01*
D02*
G37*
G36*
X1518861Y806509D02*
Y69791D01*
X1454209Y5139D01*
X43121D01*
X5139Y43121D01*
Y127000D01*
X170232D01*
Y110490D01*
X170232Y110490D01*
X170232Y110490D01*
Y95820D01*
X168340D01*
Y66740D01*
X179533D01*
X219656Y26616D01*
X219656Y26616D01*
X222276Y24606D01*
X225326Y23343D01*
X228600Y22912D01*
X381000D01*
X382270Y23079D01*
X383540Y22912D01*
X1282700D01*
X1282700Y22912D01*
X1285974Y23343D01*
X1289024Y24606D01*
X1291644Y26616D01*
X1313119Y48092D01*
X1320800D01*
X1323473Y48444D01*
X1325964Y49475D01*
X1328103Y51117D01*
X1356533Y79547D01*
X1356533Y79547D01*
X1442787Y165800D01*
X1457260D01*
Y180273D01*
X1499553Y222567D01*
X1501195Y224706D01*
X1502226Y227197D01*
X1502578Y229870D01*
Y393700D01*
Y629920D01*
Y789940D01*
X1502226Y792613D01*
X1501195Y795104D01*
X1499553Y797243D01*
X1456007Y840789D01*
X1455990Y840921D01*
Y859090D01*
X1426910D01*
Y851068D01*
X1214120D01*
X1211447Y850716D01*
X1208956Y849685D01*
X1206817Y848043D01*
X1164523Y805750D01*
X1150050D01*
Y776670D01*
X1179130D01*
Y791143D01*
X1218398Y830412D01*
X1426910D01*
Y830010D01*
X1437777D01*
X1438447Y829137D01*
X1481922Y785662D01*
Y638577D01*
X1479627Y636282D01*
X1455990D01*
Y644460D01*
X1426910D01*
Y615380D01*
X1455990D01*
Y623558D01*
X1479627D01*
X1481922Y621263D01*
Y402357D01*
X1479627Y400062D01*
X1458530D01*
Y408240D01*
X1429450D01*
Y379160D01*
X1458530D01*
Y387338D01*
X1479627D01*
X1481922Y385043D01*
Y234148D01*
X1442654Y194880D01*
X1428180D01*
Y180406D01*
X1344952Y97178D01*
X1331450D01*
X1330779Y97090D01*
X1312610D01*
Y83357D01*
X1296616Y67364D01*
X1296616Y67364D01*
X1277461Y48208D01*
X1123938D01*
X1121422Y50723D01*
Y68010D01*
X1129600D01*
Y97090D01*
X1100520D01*
Y68010D01*
X1108698D01*
Y50723D01*
X1106182Y48208D01*
X883907D01*
X882662Y49453D01*
Y62930D01*
X890840D01*
Y92010D01*
X861760D01*
Y62930D01*
X869938D01*
Y49453D01*
X868692Y48208D01*
X671817D01*
X669302Y50723D01*
Y64200D01*
X677480D01*
Y93280D01*
X648400D01*
Y64200D01*
X656578D01*
Y50723D01*
X654062Y48208D01*
X406387D01*
X403872Y50723D01*
Y65470D01*
X412050D01*
Y94550D01*
X382970D01*
Y65470D01*
X391148D01*
Y50723D01*
X388633Y48208D01*
X383540D01*
X382270Y48041D01*
X381000Y48208D01*
X233839D01*
X204452Y77595D01*
X204622Y78006D01*
X205053Y81280D01*
Y100965D01*
X205053Y100965D01*
X204622Y104239D01*
X203359Y107289D01*
X201349Y109909D01*
X195528Y115729D01*
Y224790D01*
Y240030D01*
Y264110D01*
X298450D01*
Y212090D01*
X307340Y203200D01*
X608330D01*
X626110Y220980D01*
Y271780D01*
X636270Y281940D01*
X1056974D01*
X1058243Y280394D01*
X1058210Y280227D01*
Y276033D01*
X1059028Y271920D01*
X1060633Y268045D01*
X1062963Y264558D01*
X1065928Y261593D01*
X1069415Y259263D01*
X1073290Y257658D01*
X1077403Y256840D01*
X1081597D01*
X1085710Y257658D01*
X1089585Y259263D01*
X1093072Y261593D01*
X1096037Y264558D01*
X1098367Y268045D01*
X1099972Y271920D01*
X1100790Y276033D01*
Y280227D01*
X1100757Y280394D01*
X1102026Y281940D01*
X1153160D01*
X1173480Y302260D01*
Y685800D01*
X1172210D01*
X1146810Y711200D01*
Y867351D01*
X1458019D01*
X1518861Y806509D01*
D02*
G37*
%LPC*%
G36*
X332210Y864750D02*
X328170D01*
Y859710D01*
X332210D01*
Y864750D01*
D02*
G37*
G36*
Y849710D02*
X328170D01*
Y844670D01*
X332210D01*
Y849710D01*
D02*
G37*
G36*
X263630Y846970D02*
X259590D01*
Y841930D01*
X263630D01*
Y846970D01*
D02*
G37*
G36*
X264668Y811657D02*
X257222D01*
Y811450D01*
X264668D01*
Y811657D01*
D02*
G37*
G36*
X247222D02*
X239776D01*
Y811450D01*
X247222D01*
Y811657D01*
D02*
G37*
G36*
X264668Y801450D02*
X257222D01*
Y801243D01*
X264668D01*
Y801450D01*
D02*
G37*
G36*
X247222D02*
X239776D01*
Y801243D01*
X247222D01*
Y801450D01*
D02*
G37*
G36*
X179720Y794940D02*
X175180D01*
Y792400D01*
X179720D01*
Y794940D01*
D02*
G37*
G36*
X59064Y827340D02*
X55236D01*
X51538Y826349D01*
X48222Y824435D01*
X45515Y821728D01*
X43601Y818412D01*
X42610Y814714D01*
Y810886D01*
X43601Y807188D01*
X45515Y803872D01*
X48222Y801165D01*
X51538Y799251D01*
X55236Y798260D01*
X59064D01*
X61125Y798812D01*
X65286Y794651D01*
X65286Y794651D01*
X67350Y793272D01*
X69785Y792788D01*
X69785Y792788D01*
X123790D01*
Y790860D01*
X140370D01*
Y797548D01*
X180535D01*
X182640Y795442D01*
Y789360D01*
X201720D01*
Y791925D01*
X203715Y792322D01*
X205355Y793418D01*
X211420D01*
Y791490D01*
X222244D01*
X222760Y791387D01*
X229023D01*
X230438Y789972D01*
X230438Y789972D01*
X232171Y788814D01*
X234216Y788407D01*
X234216Y788407D01*
X252222D01*
X252904Y788543D01*
X264668D01*
Y798957D01*
X252904D01*
X252222Y799093D01*
X236429D01*
X235014Y800508D01*
X233281Y801666D01*
X231236Y802073D01*
X231236Y802073D01*
X228000D01*
Y808070D01*
X211420D01*
Y806142D01*
X202860D01*
X202860Y806142D01*
X200425Y805658D01*
X198785Y804562D01*
X193480D01*
X193480Y804562D01*
X192865Y804440D01*
X191638D01*
X187669Y808409D01*
X185605Y809788D01*
X183170Y810272D01*
X183170Y810272D01*
X136840D01*
X134405Y809788D01*
X132341Y808409D01*
X132341Y808409D01*
X131372Y807440D01*
X123790D01*
Y805512D01*
X72420D01*
X70709Y807224D01*
X71690Y810886D01*
Y814714D01*
X70699Y818412D01*
X68785Y821728D01*
X66078Y824435D01*
X62762Y826349D01*
X59064Y827340D01*
D02*
G37*
G36*
X234216Y786393D02*
X232171Y785986D01*
X230438Y784828D01*
X230438Y784828D01*
X229023Y783413D01*
X222760D01*
X222244Y783310D01*
X211420D01*
Y781382D01*
X205355D01*
X203715Y782478D01*
X201720Y782875D01*
Y785440D01*
X182640D01*
Y779358D01*
X180535Y777252D01*
X140370D01*
Y783940D01*
X123790D01*
Y782012D01*
X69785D01*
X69785Y782012D01*
X67350Y781528D01*
X65286Y780149D01*
X65286Y780149D01*
X61677Y776540D01*
X42610D01*
Y747460D01*
X71690D01*
Y768558D01*
X72420Y769288D01*
X123790D01*
Y767360D01*
X131372D01*
X132341Y766391D01*
X132341Y766391D01*
X134405Y765012D01*
X136840Y764528D01*
X183170D01*
X183170Y764528D01*
X185605Y765012D01*
X187669Y766391D01*
X191638Y770360D01*
X192865D01*
X193480Y770238D01*
X193480Y770238D01*
X198785D01*
X200425Y769142D01*
X202860Y768658D01*
X202860Y768658D01*
X211420D01*
Y766730D01*
X228000D01*
Y772727D01*
X231236D01*
X231236Y772727D01*
X233281Y773134D01*
X235014Y774292D01*
X236429Y775707D01*
X252222D01*
X252904Y775843D01*
X264668D01*
Y786257D01*
X252904D01*
X252222Y786393D01*
X234216D01*
X234216Y786393D01*
D02*
G37*
G36*
X179720Y782400D02*
X175180D01*
Y779860D01*
X179720D01*
Y782400D01*
D02*
G37*
G36*
X165180Y794940D02*
X160640D01*
Y792743D01*
X158670D01*
Y787400D01*
Y782057D01*
X160640D01*
Y779860D01*
X165180D01*
Y787400D01*
Y794940D01*
D02*
G37*
G36*
X228000Y759810D02*
X224710D01*
Y756520D01*
X228000D01*
Y759810D01*
D02*
G37*
G36*
X214710D02*
X211420D01*
Y756520D01*
X214710D01*
Y759810D01*
D02*
G37*
G36*
X228000Y746520D02*
X224710D01*
Y743230D01*
X228000D01*
Y746520D01*
D02*
G37*
G36*
X214710D02*
X211420D01*
Y743230D01*
X214710D01*
Y746520D01*
D02*
G37*
G36*
X194390Y693178D02*
X193931Y692914D01*
X193099Y692081D01*
X191770Y691486D01*
X190441Y692081D01*
X189609Y692914D01*
X189150Y693178D01*
Y685800D01*
Y678421D01*
X189609Y678686D01*
X190441Y679519D01*
X191770Y680115D01*
X193099Y679519D01*
X193931Y678686D01*
X194390Y678421D01*
Y685800D01*
Y693178D01*
D02*
G37*
G36*
X179150D02*
X178691Y692914D01*
X177036Y691259D01*
X176895Y691014D01*
X174895D01*
X174754Y691259D01*
X173099Y692914D01*
X172640Y693178D01*
Y685800D01*
Y678421D01*
X173099Y678686D01*
X174754Y680341D01*
X174895Y680586D01*
X176895D01*
X177036Y680341D01*
X178691Y678686D01*
X179150Y678421D01*
Y685800D01*
Y693178D01*
D02*
G37*
G36*
X204390D02*
Y690800D01*
X206768D01*
X206504Y691259D01*
X204849Y692914D01*
X204390Y693178D01*
D02*
G37*
G36*
X162640D02*
X162181Y692914D01*
X160526Y691259D01*
X160261Y690800D01*
X162640D01*
Y693178D01*
D02*
G37*
G36*
X238230Y690760D02*
X234190D01*
Y685720D01*
X238230D01*
Y690760D01*
D02*
G37*
G36*
X152440Y686470D02*
X149150D01*
Y683180D01*
X152440D01*
Y686470D01*
D02*
G37*
G36*
X206768Y680800D02*
X204390D01*
Y678421D01*
X204849Y678686D01*
X206504Y680341D01*
X206768Y680800D01*
D02*
G37*
G36*
X162640D02*
X160261D01*
X160526Y680341D01*
X162181Y678686D01*
X162640Y678421D01*
Y680800D01*
D02*
G37*
G36*
X238230Y675720D02*
X234190D01*
Y670680D01*
X238230D01*
Y675720D01*
D02*
G37*
G36*
X152440Y673180D02*
X149150D01*
Y669890D01*
X152440D01*
Y673180D01*
D02*
G37*
G36*
Y664880D02*
X149150D01*
Y661590D01*
X152440D01*
Y664880D01*
D02*
G37*
G36*
Y651590D02*
X149150D01*
Y648300D01*
X152440D01*
Y651590D01*
D02*
G37*
G36*
X308530Y660496D02*
Y654590D01*
X309135D01*
Y658690D01*
X308879Y659974D01*
X308530Y660496D01*
D02*
G37*
G36*
X309135Y644590D02*
X308530D01*
Y638684D01*
X308879Y639206D01*
X309135Y640490D01*
Y644590D01*
D02*
G37*
G36*
X266600Y628650D02*
X264260D01*
X261999Y628044D01*
X259971Y626874D01*
X258316Y625219D01*
X257146Y623191D01*
X256540Y620930D01*
Y618590D01*
X257146Y616329D01*
X258316Y614301D01*
X259725Y612892D01*
X259579Y611341D01*
X259418Y610804D01*
X258087Y610510D01*
X258050Y610517D01*
X257352Y611562D01*
X256264Y612289D01*
X254980Y612545D01*
X250480D01*
X249196Y612289D01*
X248108Y611562D01*
X247410Y610517D01*
X247159Y610474D01*
X245601D01*
X245350Y610517D01*
X244652Y611562D01*
X243564Y612289D01*
X242280Y612545D01*
X237780D01*
X236496Y612289D01*
X235408Y611562D01*
X234710Y610517D01*
X234459Y610474D01*
X232901D01*
X232650Y610517D01*
X231952Y611562D01*
X230864Y612289D01*
X229580Y612545D01*
X225080D01*
X223796Y612289D01*
X222708Y611562D01*
X222010Y610517D01*
X221759Y610474D01*
X220201D01*
X219950Y610517D01*
X219252Y611562D01*
X218164Y612289D01*
X216880Y612545D01*
X212380D01*
X211096Y612289D01*
X210008Y611562D01*
X209281Y610474D01*
X209025Y609190D01*
Y590990D01*
X209281Y589706D01*
X210008Y588618D01*
X211096Y587891D01*
X212380Y587636D01*
X216880D01*
X218164Y587891D01*
X219252Y588618D01*
X219950Y589663D01*
X220201Y589706D01*
X221759D01*
X222010Y589663D01*
X222708Y588618D01*
X223796Y587891D01*
X225080Y587636D01*
X229580D01*
X230864Y587891D01*
X231952Y588618D01*
X232650Y589663D01*
X232901Y589706D01*
X234459D01*
X234710Y589663D01*
X235408Y588618D01*
X236496Y587891D01*
X237780Y587636D01*
X242280D01*
X243564Y587891D01*
X244652Y588618D01*
X245350Y589663D01*
X245601Y589706D01*
X247159D01*
X247410Y589663D01*
X248108Y588618D01*
X249196Y587891D01*
X250480Y587636D01*
X254980D01*
X256264Y587891D01*
X257352Y588618D01*
X258050Y589663D01*
X258301Y589706D01*
X259859D01*
X260110Y589663D01*
X260808Y588618D01*
X261896Y587891D01*
X263180Y587636D01*
X267680D01*
X268964Y587891D01*
X270052Y588618D01*
X270750Y589663D01*
X271001Y589706D01*
X272559D01*
X272810Y589663D01*
X273508Y588618D01*
X274596Y587891D01*
X275880Y587636D01*
X280380D01*
X281664Y587891D01*
X282752Y588618D01*
X283450Y589663D01*
X283701Y589706D01*
X285259D01*
X285510Y589663D01*
X286208Y588618D01*
X287296Y587891D01*
X288580Y587636D01*
X293080D01*
X294364Y587891D01*
X295452Y588618D01*
X295887Y589270D01*
X297887Y588823D01*
Y580270D01*
X292560Y580270D01*
X290560Y580270D01*
X287600D01*
Y570230D01*
Y560190D01*
X290560D01*
X291640Y560190D01*
X293640Y560190D01*
X299457D01*
Y539423D01*
X284807Y524773D01*
X268801D01*
X268734Y524889D01*
X267079Y526544D01*
X265051Y527714D01*
X262790Y528320D01*
X260450D01*
X258189Y527714D01*
X256161Y526544D01*
X254865Y525248D01*
X252130D01*
Y528670D01*
X235550D01*
Y512090D01*
X252130D01*
Y514562D01*
X254165D01*
X254506Y513971D01*
X256161Y512316D01*
X258189Y511146D01*
X260450Y510540D01*
X262790D01*
X265051Y511146D01*
X267079Y512316D01*
X268734Y513971D01*
X268801Y514087D01*
X287020D01*
X287020Y514087D01*
X289065Y514494D01*
X290798Y515652D01*
X308578Y533432D01*
X308578Y533432D01*
X309736Y535165D01*
X310143Y537210D01*
Y560190D01*
X310640D01*
Y580270D01*
X308573D01*
Y589248D01*
X308879Y589706D01*
X309135Y590990D01*
Y609190D01*
X308879Y610474D01*
X308152Y611562D01*
X307064Y612289D01*
X305780Y612545D01*
X301280D01*
X299996Y612289D01*
X298908Y611562D01*
X298210Y610517D01*
X297959Y610474D01*
X296401D01*
X296150Y610517D01*
X295452Y611562D01*
X294364Y612289D01*
X293080Y612545D01*
X288580D01*
X287296Y612289D01*
X286208Y611562D01*
X285510Y610517D01*
X285259Y610474D01*
X283701D01*
X283450Y610517D01*
X282752Y611562D01*
X281664Y612289D01*
X280380Y612545D01*
X275880D01*
X274596Y612289D01*
X273508Y611562D01*
X271467Y611840D01*
X270889Y612646D01*
X272544Y614301D01*
X273714Y616329D01*
X274320Y618590D01*
Y620930D01*
X273714Y623191D01*
X272544Y625219D01*
X270889Y626874D01*
X268861Y628044D01*
X266600Y628650D01*
D02*
G37*
G36*
X152120Y601380D02*
X148830D01*
Y598090D01*
X152120D01*
Y601380D01*
D02*
G37*
G36*
Y588090D02*
X148830D01*
Y584800D01*
X152120D01*
Y588090D01*
D02*
G37*
G36*
Y579790D02*
X148830D01*
Y576500D01*
X152120D01*
Y579790D01*
D02*
G37*
G36*
X277600Y580270D02*
X273560D01*
Y575230D01*
X277600D01*
Y580270D01*
D02*
G37*
G36*
X152120Y566500D02*
X148830D01*
Y563210D01*
X152120D01*
Y566500D01*
D02*
G37*
G36*
X277600Y565230D02*
X273560D01*
Y560190D01*
X277600D01*
Y565230D01*
D02*
G37*
G36*
X114220Y522999D02*
Y520620D01*
X116599D01*
X116334Y521079D01*
X114679Y522734D01*
X114220Y522999D01*
D02*
G37*
G36*
X228480Y518900D02*
X223440D01*
Y514860D01*
X228480D01*
Y518900D01*
D02*
G37*
G36*
X213440D02*
X208400D01*
Y514860D01*
X213440D01*
Y518900D01*
D02*
G37*
G36*
X116599Y510620D02*
X114220D01*
Y508242D01*
X114679Y508506D01*
X116334Y510161D01*
X116599Y510620D01*
D02*
G37*
G36*
X167110Y509468D02*
X158010D01*
X156258Y509119D01*
X154773Y508127D01*
X153780Y506642D01*
X153432Y504890D01*
Y503183D01*
X139716D01*
X138414Y503934D01*
X136751Y504380D01*
X135029D01*
X133366Y503934D01*
X131874Y503073D01*
X130657Y501856D01*
X129796Y500364D01*
X129350Y498701D01*
Y496979D01*
X129796Y495316D01*
X130657Y493824D01*
X131874Y492607D01*
X133366Y491746D01*
X135029Y491300D01*
X136751D01*
X138414Y491746D01*
X139716Y492497D01*
X153432D01*
Y490790D01*
X153780Y489038D01*
X154773Y487553D01*
X156258Y486561D01*
X158010Y486212D01*
X167110D01*
X168862Y486561D01*
X170347Y487553D01*
X171339Y489038D01*
X171688Y490790D01*
Y504890D01*
X171339Y506642D01*
X170347Y508127D01*
X168862Y509119D01*
X167110Y509468D01*
D02*
G37*
G36*
X195300Y482000D02*
X192010D01*
Y478710D01*
X195300D01*
Y482000D01*
D02*
G37*
G36*
X120160Y479314D02*
X116060D01*
Y478710D01*
X121966D01*
X121444Y479059D01*
X120160Y479314D01*
D02*
G37*
G36*
X182010Y482000D02*
X178720D01*
Y478710D01*
X182010D01*
Y482000D01*
D02*
G37*
G36*
X106060Y479314D02*
X101960D01*
X100676Y479059D01*
X100154Y478710D01*
X106060D01*
Y479314D01*
D02*
G37*
G36*
X195300Y468710D02*
X192010D01*
Y465420D01*
X195300D01*
Y468710D01*
D02*
G37*
G36*
X182010D02*
X178720D01*
Y465420D01*
X182010D01*
Y468710D01*
D02*
G37*
G36*
X191030Y441840D02*
Y436800D01*
X195070D01*
Y441840D01*
X191030D01*
D02*
G37*
G36*
X195070Y426800D02*
X191030D01*
Y421760D01*
X195070D01*
Y426800D01*
D02*
G37*
G36*
X93860Y424940D02*
X88820D01*
Y420900D01*
X93860D01*
Y424940D01*
D02*
G37*
G36*
X78820D02*
X73780D01*
Y420900D01*
X78820D01*
Y424940D01*
D02*
G37*
G36*
X195300Y418500D02*
X192010D01*
Y415210D01*
X195300D01*
Y418500D01*
D02*
G37*
G36*
X182010D02*
X178720D01*
Y415210D01*
X182010D01*
Y418500D01*
D02*
G37*
G36*
X195300Y405210D02*
X192010D01*
Y401920D01*
X195300D01*
Y405210D01*
D02*
G37*
G36*
X182010D02*
X178720D01*
Y401920D01*
X182010D01*
Y405210D01*
D02*
G37*
G36*
X136751Y426910D02*
X135029D01*
X133366Y426464D01*
X131874Y425603D01*
X130657Y424386D01*
X129796Y422894D01*
X129350Y421231D01*
Y419509D01*
X129796Y417846D01*
X130050Y417405D01*
Y412670D01*
X122110D01*
Y397590D01*
X141190D01*
Y412670D01*
X140735D01*
Y415966D01*
X141123Y416354D01*
X141984Y417846D01*
X142430Y419509D01*
Y421231D01*
X141984Y422894D01*
X141123Y424386D01*
X139906Y425603D01*
X138414Y426464D01*
X136751Y426910D01*
D02*
G37*
G36*
X352045Y438405D02*
X331215D01*
Y417575D01*
X335812D01*
Y395640D01*
X332390D01*
Y379060D01*
X348970D01*
Y382007D01*
X353450D01*
X353951Y381506D01*
X355979Y380336D01*
X358240Y379730D01*
X360580D01*
X362841Y380336D01*
X364869Y381506D01*
X366524Y383161D01*
X367694Y385189D01*
X368300Y387450D01*
Y389790D01*
X367694Y392051D01*
X366524Y394079D01*
X364869Y395734D01*
X362841Y396904D01*
X360580Y397510D01*
X358240D01*
X355979Y396904D01*
X353951Y395734D01*
X352296Y394079D01*
X351496Y392693D01*
X348970D01*
Y395640D01*
X346498D01*
Y417575D01*
X352045D01*
Y438405D01*
D02*
G37*
G36*
X364410Y370598D02*
Y368220D01*
X366788D01*
X366524Y368679D01*
X364869Y370334D01*
X364410Y370598D01*
D02*
G37*
G36*
X366788Y358220D02*
X364410D01*
Y355841D01*
X364869Y356106D01*
X366524Y357761D01*
X366788Y358220D01*
D02*
G37*
G36*
X342770Y373260D02*
Y363220D01*
Y353180D01*
X346810D01*
Y357877D01*
X352229D01*
X352296Y357761D01*
X353951Y356106D01*
X354410Y355841D01*
Y363220D01*
Y370598D01*
X353951Y370334D01*
X352296Y368679D01*
X352229Y368563D01*
X346810D01*
Y373260D01*
X342770D01*
D02*
G37*
G36*
Y346590D02*
Y341550D01*
X346810D01*
Y346590D01*
X342770D01*
D02*
G37*
G36*
X346810Y331550D02*
X342770D01*
Y326510D01*
X346810D01*
Y331550D01*
D02*
G37*
G36*
X344230Y310300D02*
Y303820D01*
X346493D01*
Y306857D01*
X346205Y308302D01*
X345387Y309527D01*
X344230Y310300D01*
D02*
G37*
G36*
X334230Y310300D02*
X333073Y309527D01*
X332255Y308302D01*
X331968Y306857D01*
Y303820D01*
X334230D01*
Y310300D01*
D02*
G37*
G36*
X378950Y305566D02*
X378419Y305211D01*
X377382Y303660D01*
X377088Y302180D01*
X378950D01*
Y305566D01*
D02*
G37*
G36*
Y292180D02*
X377088D01*
X377382Y290700D01*
X378419Y289149D01*
X378950Y288794D01*
Y292180D01*
D02*
G37*
G36*
X334230Y293820D02*
X331968D01*
Y290783D01*
X332255Y289338D01*
X333073Y288113D01*
X334230Y287340D01*
Y293820D01*
D02*
G37*
G36*
X346493D02*
X344230D01*
Y287340D01*
X345387Y288113D01*
X346205Y289338D01*
X346493Y290783D01*
Y293820D01*
D02*
G37*
G36*
X959990Y702190D02*
Y697150D01*
X964030D01*
Y702190D01*
X959990D01*
D02*
G37*
G36*
X900310Y700530D02*
X895270D01*
Y696490D01*
X900310D01*
Y700530D01*
D02*
G37*
G36*
X885270D02*
X880230D01*
Y696490D01*
X885270D01*
Y700530D01*
D02*
G37*
G36*
X964030Y687150D02*
X959990D01*
Y682110D01*
X964030D01*
Y687150D01*
D02*
G37*
G36*
X959990Y678060D02*
Y673020D01*
X964030D01*
Y678060D01*
X959990D01*
D02*
G37*
G36*
X850820Y673147D02*
Y669210D01*
X854757D01*
X854014Y670498D01*
X852107Y672404D01*
X850820Y673147D01*
D02*
G37*
G36*
X840820D02*
X839532Y672404D01*
X837626Y670498D01*
X836883Y669210D01*
X840820D01*
Y673147D01*
D02*
G37*
G36*
X1127680Y662992D02*
Y660320D01*
X1130352D01*
X1129997Y660935D01*
X1128295Y662637D01*
X1127680Y662992D01*
D02*
G37*
G36*
X1117680D02*
X1117066Y662637D01*
X1115363Y660935D01*
X1115008Y660320D01*
X1117680D01*
Y662992D01*
D02*
G37*
G36*
X964030Y663020D02*
X959990D01*
Y657980D01*
X964030D01*
Y663020D01*
D02*
G37*
G36*
X854757Y659210D02*
X850820D01*
Y655273D01*
X852107Y656016D01*
X854014Y657923D01*
X854757Y659210D01*
D02*
G37*
G36*
X840820D02*
X836883D01*
X837626Y657923D01*
X839532Y656016D01*
X840820Y655273D01*
Y659210D01*
D02*
G37*
G36*
X1130352Y650320D02*
X1127680D01*
Y647648D01*
X1128295Y648003D01*
X1129997Y649706D01*
X1130352Y650320D01*
D02*
G37*
G36*
X1117680D02*
X1115008D01*
X1115363Y649706D01*
X1117066Y648003D01*
X1117680Y647648D01*
Y650320D01*
D02*
G37*
G36*
X959990Y652660D02*
Y647620D01*
X964030D01*
Y652660D01*
X959990D01*
D02*
G37*
G36*
X771620Y647747D02*
Y643810D01*
X775557D01*
X774814Y645098D01*
X772907Y647004D01*
X771620Y647747D01*
D02*
G37*
G36*
X761620D02*
X760332Y647004D01*
X758426Y645098D01*
X757683Y643810D01*
X761620D01*
Y647747D01*
D02*
G37*
G36*
X900310Y686490D02*
X890270D01*
X880230D01*
Y683530D01*
X880230Y682450D01*
X880230Y680450D01*
Y663450D01*
X886151D01*
Y651946D01*
X877134Y642929D01*
X855266D01*
X854014Y645098D01*
X852107Y647004D01*
X849772Y648352D01*
X847168Y649050D01*
X844472D01*
X841868Y648352D01*
X839532Y647004D01*
X837626Y645098D01*
X836278Y642763D01*
X835580Y640158D01*
Y637462D01*
X836278Y634857D01*
X837626Y632523D01*
X839532Y630616D01*
X841868Y629268D01*
X844472Y628570D01*
X847168D01*
X849772Y629268D01*
X852107Y630616D01*
X854014Y632523D01*
X855266Y634691D01*
X878840D01*
X880416Y635004D01*
X881753Y635897D01*
X893183Y647327D01*
X894076Y648664D01*
X894389Y650240D01*
Y663450D01*
X900310D01*
Y680450D01*
X900310Y681530D01*
X900310Y683530D01*
Y686490D01*
D02*
G37*
G36*
X708500Y678250D02*
X683420D01*
Y636483D01*
X664090D01*
Y640180D01*
X644010D01*
Y623180D01*
X644010Y622100D01*
X644010Y620100D01*
Y617140D01*
X654050D01*
X664090D01*
Y620100D01*
X664090Y621180D01*
X664090Y623180D01*
Y625797D01*
X683420D01*
Y618170D01*
X700154D01*
X709962Y608362D01*
X709962Y608362D01*
X711695Y607204D01*
X713740Y606797D01*
X713740Y606797D01*
X758751D01*
X760332Y605216D01*
X762667Y603868D01*
X765272Y603170D01*
X767968D01*
X770573Y603868D01*
X772907Y605216D01*
X774814Y607122D01*
X776162Y609458D01*
X776860Y612062D01*
Y614758D01*
X776162Y617363D01*
X774814Y619697D01*
X772907Y621604D01*
X770573Y622952D01*
X767968Y623650D01*
X765272D01*
X762667Y622952D01*
X760332Y621604D01*
X758426Y619697D01*
X757147Y617483D01*
X715953D01*
X708603Y624833D01*
Y631140D01*
X708603Y631140D01*
X708500Y631656D01*
Y678250D01*
D02*
G37*
G36*
X964030Y637620D02*
X959990D01*
Y632580D01*
X964030D01*
Y637620D01*
D02*
G37*
G36*
X775557Y633810D02*
X771620D01*
Y629873D01*
X772907Y630616D01*
X774814Y632523D01*
X775557Y633810D01*
D02*
G37*
G36*
X761620D02*
X757683D01*
X758426Y632523D01*
X760332Y630616D01*
X761620Y629873D01*
Y633810D01*
D02*
G37*
G36*
X1103350Y658530D02*
X1086770D01*
Y641950D01*
X1088127D01*
Y605463D01*
X1086177Y603513D01*
X1009323D01*
X1001998Y610838D01*
X1000265Y611996D01*
X998220Y612403D01*
X998220Y612403D01*
X966190D01*
Y615350D01*
X949610D01*
Y598770D01*
X966190D01*
Y601717D01*
X996007D01*
X1003332Y594392D01*
X1003332Y594392D01*
X1003795Y594083D01*
X1003189Y592083D01*
X966190D01*
Y595030D01*
X949610D01*
Y578450D01*
X966190D01*
Y581397D01*
X1083637D01*
X1091937Y573097D01*
Y569630D01*
X1088040D01*
Y553050D01*
X1104620D01*
Y555997D01*
X1116307D01*
X1116516Y555636D01*
X1118246Y553906D01*
X1120364Y552683D01*
X1122727Y552050D01*
X1125173D01*
X1127536Y552683D01*
X1129654Y553906D01*
X1131384Y555636D01*
X1132607Y557754D01*
X1133240Y560117D01*
Y562563D01*
X1132607Y564926D01*
X1131384Y567044D01*
X1129654Y568774D01*
X1127536Y569997D01*
X1125173Y570630D01*
X1122727D01*
X1120364Y569997D01*
X1118246Y568774D01*
X1116516Y567044D01*
X1116307Y566683D01*
X1104620D01*
Y569630D01*
X1102623D01*
Y575310D01*
X1102623Y575310D01*
X1102216Y577355D01*
X1101058Y579088D01*
X1101058Y579088D01*
X1089628Y590518D01*
X1089032Y590916D01*
X1089454Y593039D01*
X1090434Y593234D01*
X1092168Y594392D01*
X1097248Y599472D01*
X1097248Y599472D01*
X1098406Y601205D01*
X1098813Y603250D01*
X1098813Y603250D01*
Y638539D01*
X1100660Y639304D01*
X1112328Y627636D01*
X1112328Y627636D01*
X1114062Y626478D01*
X1114140Y626462D01*
X1114159Y626390D01*
X1115363Y624305D01*
X1117066Y622603D01*
X1119150Y621399D01*
X1121476Y620776D01*
X1123884D01*
X1126209Y621399D01*
X1128295Y622603D01*
X1129997Y624305D01*
X1131201Y626390D01*
X1131824Y628716D01*
Y631124D01*
X1131201Y633450D01*
X1129997Y635535D01*
X1128295Y637237D01*
X1126209Y638441D01*
X1123884Y639064D01*
X1121476D01*
X1119150Y638441D01*
X1117556Y637520D01*
X1104108Y650968D01*
X1103350Y651474D01*
Y658530D01*
D02*
G37*
G36*
X664090Y607140D02*
X659050D01*
Y603100D01*
X664090D01*
Y607140D01*
D02*
G37*
G36*
X649050D02*
X644010D01*
Y603100D01*
X649050D01*
Y607140D01*
D02*
G37*
G36*
X942690Y615350D02*
X926110D01*
Y611179D01*
X891540D01*
X889964Y610866D01*
X888627Y609973D01*
X878467Y599813D01*
X877574Y598476D01*
X877261Y596900D01*
Y571936D01*
X872054Y566729D01*
X855266D01*
X854014Y568898D01*
X852107Y570804D01*
X849772Y572152D01*
X847168Y572850D01*
X844472D01*
X841868Y572152D01*
X839532Y570804D01*
X837626Y568898D01*
X836278Y566562D01*
X835580Y563958D01*
Y561262D01*
X836278Y558657D01*
X837626Y556323D01*
X839532Y554416D01*
X841868Y553068D01*
X844472Y552370D01*
X847168D01*
X849772Y553068D01*
X852107Y554416D01*
X854014Y556323D01*
X855266Y558491D01*
X873760D01*
X875336Y558804D01*
X876673Y559697D01*
X880493Y563518D01*
X882341Y562752D01*
Y545266D01*
X877134Y540059D01*
X855658D01*
X855362Y541162D01*
X854014Y543498D01*
X852107Y545404D01*
X849772Y546752D01*
X847168Y547450D01*
X844472D01*
X841868Y546752D01*
X839532Y545404D01*
X837626Y543498D01*
X836278Y541162D01*
X835580Y538558D01*
Y535862D01*
X836278Y533257D01*
X837626Y530923D01*
X839532Y529016D01*
X841868Y527668D01*
X844472Y526970D01*
X847168D01*
X849772Y527668D01*
X852107Y529016D01*
X854014Y530923D01*
X854533Y531821D01*
X878840D01*
X880416Y532134D01*
X881753Y533027D01*
X885573Y536848D01*
X887421Y536082D01*
Y517326D01*
X886024Y515929D01*
X855266D01*
X854014Y518097D01*
X852107Y520004D01*
X849772Y521352D01*
X847168Y522050D01*
X844472D01*
X841868Y521352D01*
X839532Y520004D01*
X837626Y518097D01*
X836278Y515762D01*
X835580Y513158D01*
Y510462D01*
X836278Y507858D01*
X837626Y505522D01*
X839532Y503616D01*
X841868Y502268D01*
X844472Y501570D01*
X847168D01*
X849772Y502268D01*
X852107Y503616D01*
X854014Y505522D01*
X855266Y507691D01*
X887730D01*
X889306Y508004D01*
X890643Y508897D01*
X891923Y510178D01*
X893771Y509412D01*
Y491926D01*
X889834Y487989D01*
X855998D01*
X855362Y490363D01*
X854014Y492697D01*
X852107Y494604D01*
X849772Y495952D01*
X847168Y496650D01*
X844472D01*
X841868Y495952D01*
X839532Y494604D01*
X837626Y492697D01*
X836278Y490363D01*
X835580Y487758D01*
Y485062D01*
X836278Y482458D01*
X837626Y480122D01*
X839532Y478216D01*
X841868Y476868D01*
X844472Y476170D01*
X847168D01*
X849772Y476868D01*
X852107Y478216D01*
X853665Y479773D01*
X853777Y479751D01*
X891540D01*
X893116Y480064D01*
X894453Y480957D01*
X898273Y484778D01*
X900121Y484012D01*
Y475416D01*
X894914Y470209D01*
X773866D01*
X770739Y473336D01*
Y476964D01*
X772907Y478216D01*
X774814Y480122D01*
X776162Y482458D01*
X776860Y485062D01*
Y487758D01*
X776162Y490363D01*
X774814Y492697D01*
X772907Y494604D01*
X770573Y495952D01*
X767968Y496650D01*
X765272D01*
X762667Y495952D01*
X760332Y494604D01*
X758426Y492697D01*
X757078Y490363D01*
X756689Y488912D01*
X754689Y489175D01*
Y494054D01*
X762853Y502218D01*
X765272Y501570D01*
X767968D01*
X770573Y502268D01*
X772907Y503616D01*
X774814Y505522D01*
X776162Y507858D01*
X776860Y510462D01*
Y513158D01*
X776162Y515762D01*
X774814Y518097D01*
X772907Y520004D01*
X770573Y521352D01*
X767968Y522050D01*
X765272D01*
X762667Y521352D01*
X760332Y520004D01*
X758426Y518097D01*
X757078Y515762D01*
X756380Y513158D01*
Y510462D01*
X757028Y508043D01*
X747799Y498815D01*
X747199Y498875D01*
X745799Y499492D01*
Y524074D01*
X754816Y533091D01*
X757174D01*
X758426Y530923D01*
X760332Y529016D01*
X762667Y527668D01*
X765272Y526970D01*
X767968D01*
X770573Y527668D01*
X772907Y529016D01*
X774814Y530923D01*
X776162Y533257D01*
X776860Y535862D01*
Y538558D01*
X776162Y541162D01*
X774814Y543498D01*
X772907Y545404D01*
X770573Y546752D01*
X767968Y547450D01*
X765272D01*
X762667Y546752D01*
X760332Y545404D01*
X758426Y543498D01*
X757174Y541329D01*
X753110D01*
X751534Y541016D01*
X750197Y540123D01*
X738909Y528834D01*
X738309Y528895D01*
X736909Y529512D01*
Y548204D01*
X747196Y558491D01*
X757174D01*
X758426Y556323D01*
X760332Y554416D01*
X762667Y553068D01*
X765272Y552370D01*
X767968D01*
X770573Y553068D01*
X772907Y554416D01*
X774814Y556323D01*
X776162Y558657D01*
X776860Y561262D01*
Y563958D01*
X776162Y566562D01*
X774814Y568898D01*
X772907Y570804D01*
X770573Y572152D01*
X767968Y572850D01*
X765272D01*
X762667Y572152D01*
X760332Y570804D01*
X758426Y568898D01*
X757174Y566729D01*
X745490D01*
X743914Y566416D01*
X742577Y565523D01*
X729877Y552823D01*
X728984Y551486D01*
X728671Y549910D01*
Y467360D01*
X728984Y465784D01*
X729877Y464447D01*
X752737Y441587D01*
X754074Y440694D01*
X755650Y440381D01*
X918210D01*
X919786Y440694D01*
X921123Y441587D01*
X932255Y452720D01*
X942690D01*
Y469300D01*
X927534D01*
X927338Y469520D01*
X926705Y471300D01*
X928366Y472961D01*
X929830D01*
X930228Y473040D01*
X942370D01*
Y489620D01*
X925790D01*
Y481026D01*
X925084Y480886D01*
X923747Y479993D01*
X920377Y476623D01*
X920377Y476623D01*
X917827Y474072D01*
X915979Y474838D01*
Y492324D01*
X919674Y496018D01*
X925790D01*
Y494630D01*
X942370D01*
Y511210D01*
X925790D01*
Y504257D01*
X917967D01*
X916391Y503943D01*
X915055Y503050D01*
X910359Y498354D01*
X908359Y499183D01*
Y508834D01*
X914836Y515311D01*
X926110D01*
Y514950D01*
X942690D01*
Y531530D01*
X926110D01*
Y523549D01*
X913130D01*
X911554Y523236D01*
X910217Y522343D01*
X903857Y515982D01*
X902009Y516748D01*
Y536774D01*
X905946Y540711D01*
X926110D01*
Y536540D01*
X942690D01*
Y553120D01*
X926110D01*
Y548949D01*
X904240D01*
X902664Y548636D01*
X901327Y547743D01*
X897507Y543922D01*
X895659Y544688D01*
Y555824D01*
X902136Y562301D01*
X925790D01*
Y558130D01*
X942370D01*
Y574710D01*
X925790D01*
Y570539D01*
X900430D01*
X898854Y570226D01*
X897517Y569333D01*
X892427Y564242D01*
X890579Y565008D01*
Y578684D01*
X894516Y582621D01*
X926110D01*
Y578450D01*
X942690D01*
Y595030D01*
X926110D01*
Y590859D01*
X892810D01*
X891234Y590546D01*
X889897Y589653D01*
X887347Y587102D01*
X885499Y587868D01*
Y595194D01*
X893246Y602941D01*
X926110D01*
Y598770D01*
X942690D01*
Y615350D01*
D02*
G37*
G36*
X664090Y598930D02*
X659050D01*
Y594890D01*
X664090D01*
Y598930D01*
D02*
G37*
G36*
X649050D02*
X644010D01*
Y594890D01*
X649050D01*
Y598930D01*
D02*
G37*
G36*
X767968Y598250D02*
X765272D01*
X762667Y597552D01*
X760332Y596204D01*
X758426Y594297D01*
X757147Y592083D01*
X713740D01*
X713740Y592083D01*
X711695Y591676D01*
X709962Y590518D01*
X709962Y590518D01*
X702694Y583250D01*
X683420D01*
Y576233D01*
X665504D01*
X664090Y577647D01*
X664090Y579930D01*
X664090Y581930D01*
Y584890D01*
X654050D01*
X644010D01*
Y581930D01*
X644010Y580850D01*
X644010Y578850D01*
Y561850D01*
X664090D01*
Y565547D01*
X683420D01*
Y523170D01*
X708500D01*
Y574040D01*
X708788Y574232D01*
X715953Y581397D01*
X758751D01*
X760332Y579816D01*
X762667Y578468D01*
X765272Y577770D01*
X767968D01*
X770573Y578468D01*
X772907Y579816D01*
X774814Y581722D01*
X776162Y584058D01*
X776860Y586662D01*
Y589358D01*
X776162Y591963D01*
X774814Y594297D01*
X772907Y596204D01*
X770573Y597552D01*
X767968Y598250D01*
D02*
G37*
G36*
X1128950Y594580D02*
Y591740D01*
X1131790D01*
X1131384Y592444D01*
X1129654Y594174D01*
X1128950Y594580D01*
D02*
G37*
G36*
X1118950D02*
X1118246Y594174D01*
X1116516Y592444D01*
X1116110Y591740D01*
X1118950D01*
Y594580D01*
D02*
G37*
G36*
X1131790Y581740D02*
X1128950D01*
Y578900D01*
X1129654Y579306D01*
X1131384Y581036D01*
X1131790Y581740D01*
D02*
G37*
G36*
X1118950D02*
X1116110D01*
X1116516Y581036D01*
X1118246Y579306D01*
X1118950Y578900D01*
Y581740D01*
D02*
G37*
G36*
X847168Y598250D02*
X844472D01*
X841868Y597552D01*
X839532Y596204D01*
X837626Y594297D01*
X836278Y591963D01*
X835580Y589358D01*
Y586662D01*
X836278Y584058D01*
X837626Y581722D01*
X839532Y579816D01*
X841868Y578468D01*
X844472Y577770D01*
X847168D01*
X849772Y578468D01*
X852107Y579816D01*
X854014Y581722D01*
X855362Y584058D01*
X856060Y586662D01*
Y589358D01*
X855362Y591963D01*
X854014Y594297D01*
X852107Y596204D01*
X849772Y597552D01*
X847168Y598250D01*
D02*
G37*
G36*
X965870Y574710D02*
X949290D01*
Y558130D01*
X965870D01*
Y561077D01*
X1009977D01*
X1019233Y551821D01*
X1018248Y549978D01*
X1017270Y550173D01*
X1017270Y550173D01*
X966190D01*
Y553120D01*
X949610D01*
Y536540D01*
X966190D01*
Y539487D01*
X1015057D01*
X1021452Y533092D01*
Y490855D01*
X1021452Y490855D01*
X1021859Y488811D01*
X1023017Y487077D01*
X1043972Y466122D01*
X1043972Y466122D01*
X1045705Y464964D01*
X1047750Y464557D01*
X1047750Y464557D01*
X1086177D01*
X1089717Y461017D01*
Y457870D01*
X1088360D01*
Y441290D01*
X1104940D01*
Y444237D01*
X1116307D01*
X1116516Y443876D01*
X1118246Y442146D01*
X1120364Y440923D01*
X1122727Y440290D01*
X1125173D01*
X1127536Y440923D01*
X1129654Y442146D01*
X1131384Y443876D01*
X1132607Y445994D01*
X1133240Y448357D01*
Y450803D01*
X1132607Y453166D01*
X1131384Y455284D01*
X1129654Y457014D01*
X1127536Y458237D01*
X1125173Y458870D01*
X1122727D01*
X1120364Y458237D01*
X1118246Y457014D01*
X1116516Y455284D01*
X1116307Y454923D01*
X1104940D01*
Y457870D01*
X1100403D01*
Y463230D01*
X1100403Y463230D01*
X1099996Y465275D01*
X1098838Y467008D01*
X1098838Y467008D01*
X1092168Y473678D01*
X1090434Y474836D01*
X1088390Y475243D01*
X1088390Y475243D01*
X1049963D01*
X1032138Y493068D01*
Y535305D01*
X1032138Y535305D01*
X1031943Y536283D01*
X1033786Y537268D01*
X1042702Y528352D01*
X1042702Y528352D01*
X1044436Y527194D01*
X1046480Y526787D01*
X1084907D01*
X1088247Y523447D01*
Y520100D01*
X1088040D01*
Y503520D01*
X1104620D01*
Y505832D01*
X1115941D01*
X1116516Y504836D01*
X1118246Y503106D01*
X1120364Y501883D01*
X1122727Y501250D01*
X1125173D01*
X1127536Y501883D01*
X1129654Y503106D01*
X1131384Y504836D01*
X1132607Y506954D01*
X1133240Y509317D01*
Y511763D01*
X1132607Y514126D01*
X1131384Y516244D01*
X1129654Y517974D01*
X1127536Y519197D01*
X1125173Y519830D01*
X1122727D01*
X1120364Y519197D01*
X1118246Y517974D01*
X1116790Y516518D01*
X1104620D01*
Y520100D01*
X1098933D01*
Y525660D01*
X1098933Y525660D01*
X1098526Y527705D01*
X1097368Y529438D01*
X1097368Y529438D01*
X1090898Y535908D01*
X1089165Y537066D01*
X1087120Y537473D01*
X1087120Y537473D01*
X1048693D01*
X1015968Y570198D01*
X1014234Y571356D01*
X1012190Y571763D01*
X1012190Y571763D01*
X965870D01*
Y574710D01*
D02*
G37*
G36*
X1081120Y569630D02*
X1064540D01*
Y555935D01*
X1064260Y554890D01*
Y552550D01*
X1064866Y550289D01*
X1066036Y548261D01*
X1067691Y546606D01*
X1069719Y545436D01*
X1071980Y544830D01*
X1074320D01*
X1076581Y545436D01*
X1078609Y546606D01*
X1080264Y548261D01*
X1081434Y550289D01*
X1082040Y552550D01*
Y554890D01*
X1081434Y557151D01*
X1081120Y557696D01*
Y569630D01*
D02*
G37*
G36*
X1128950Y543780D02*
Y540940D01*
X1131790D01*
X1131384Y541644D01*
X1129654Y543374D01*
X1128950Y543780D01*
D02*
G37*
G36*
X1118950D02*
X1118246Y543374D01*
X1116516Y541644D01*
X1116110Y540940D01*
X1118950D01*
Y543780D01*
D02*
G37*
G36*
X1131790Y530940D02*
X1128950D01*
Y528100D01*
X1129654Y528506D01*
X1131384Y530236D01*
X1131790Y530940D01*
D02*
G37*
G36*
X1118950D02*
X1116110D01*
X1116516Y530236D01*
X1118246Y528506D01*
X1118950Y528100D01*
Y530940D01*
D02*
G37*
G36*
X1081120Y520100D02*
X1064540D01*
Y506405D01*
X1064260Y505360D01*
Y503020D01*
X1064866Y500759D01*
X1066036Y498731D01*
X1067691Y497076D01*
X1069719Y495906D01*
X1071980Y495300D01*
X1074320D01*
X1076581Y495906D01*
X1078609Y497076D01*
X1080264Y498731D01*
X1081434Y500759D01*
X1082040Y503020D01*
Y505360D01*
X1081434Y507621D01*
X1081120Y508166D01*
Y520100D01*
D02*
G37*
G36*
X1128950Y482820D02*
Y479980D01*
X1131790D01*
X1131384Y480684D01*
X1129654Y482414D01*
X1128950Y482820D01*
D02*
G37*
G36*
X1118950D02*
X1118246Y482414D01*
X1116516Y480684D01*
X1116110Y479980D01*
X1118950D01*
Y482820D01*
D02*
G37*
G36*
X1131790Y469980D02*
X1128950D01*
Y467140D01*
X1129654Y467546D01*
X1131384Y469276D01*
X1131790Y469980D01*
D02*
G37*
G36*
X1118950D02*
X1116110D01*
X1116516Y469276D01*
X1118246Y467546D01*
X1118950Y467140D01*
Y469980D01*
D02*
G37*
G36*
X1081440Y457870D02*
X1064860D01*
Y444100D01*
X1064260Y441860D01*
Y439520D01*
X1064866Y437259D01*
X1066036Y435231D01*
X1067691Y433576D01*
X1069719Y432406D01*
X1071980Y431800D01*
X1074320D01*
X1076581Y432406D01*
X1078609Y433576D01*
X1080264Y435231D01*
X1081434Y437259D01*
X1082040Y439520D01*
Y441860D01*
X1081440Y444100D01*
Y457870D01*
D02*
G37*
G36*
X1128950Y432020D02*
Y429180D01*
X1131790D01*
X1131384Y429884D01*
X1129654Y431614D01*
X1128950Y432020D01*
D02*
G37*
G36*
X1118950D02*
X1118246Y431614D01*
X1116516Y429884D01*
X1116110Y429180D01*
X1118950D01*
Y432020D01*
D02*
G37*
G36*
X966190Y469300D02*
X949610D01*
Y452720D01*
X953667D01*
Y430363D01*
X947747Y424443D01*
X861060D01*
X861060Y424443D01*
X859016Y424036D01*
X857282Y422878D01*
X857282Y422878D01*
X836962Y402558D01*
X835804Y400825D01*
X835397Y398780D01*
X835397Y398780D01*
Y365433D01*
X833127Y363163D01*
X829980D01*
Y366110D01*
X813400D01*
Y349530D01*
X816347D01*
Y336573D01*
X815986Y336364D01*
X814256Y334634D01*
X813033Y332516D01*
X812400Y330153D01*
Y327707D01*
X813033Y325344D01*
X814256Y323226D01*
X815986Y321496D01*
X818104Y320273D01*
X820467Y319640D01*
X822913D01*
X825276Y320273D01*
X827394Y321496D01*
X829124Y323226D01*
X830347Y325344D01*
X830980Y327707D01*
Y330153D01*
X830347Y332516D01*
X829124Y334634D01*
X827394Y336364D01*
X827033Y336573D01*
Y349530D01*
X829980D01*
Y352477D01*
X835340D01*
X835340Y352477D01*
X837385Y352884D01*
X839118Y354042D01*
X844518Y359442D01*
X845676Y361175D01*
X846083Y363220D01*
X846083Y363220D01*
Y396567D01*
X863273Y413757D01*
X949960D01*
X949960Y413757D01*
X952004Y414164D01*
X953738Y415322D01*
X962788Y424372D01*
X962788Y424372D01*
X963946Y426105D01*
X964353Y428150D01*
X964353Y428150D01*
Y452720D01*
X966190D01*
Y469300D01*
D02*
G37*
G36*
X1131790Y419180D02*
X1128950D01*
Y416340D01*
X1129654Y416746D01*
X1131384Y418476D01*
X1131790Y419180D01*
D02*
G37*
G36*
X1118950D02*
X1116110D01*
X1116516Y418476D01*
X1118246Y416746D01*
X1118950Y416340D01*
Y419180D01*
D02*
G37*
G36*
X965870Y489620D02*
X949290D01*
Y473040D01*
X965870D01*
Y475987D01*
X971877D01*
X973827Y474037D01*
Y417503D01*
X968067Y411743D01*
X930910D01*
X930910Y411743D01*
X928866Y411336D01*
X927132Y410178D01*
X927132Y410178D01*
X911892Y394938D01*
X910734Y393204D01*
X910327Y391160D01*
X910327Y391160D01*
Y365433D01*
X908057Y363163D01*
X902370D01*
Y366110D01*
X885790D01*
Y349530D01*
X888737D01*
Y336573D01*
X888376Y336364D01*
X886646Y334634D01*
X885423Y332516D01*
X884790Y330153D01*
Y327707D01*
X885423Y325344D01*
X886646Y323226D01*
X888376Y321496D01*
X890494Y320273D01*
X892857Y319640D01*
X895303D01*
X897666Y320273D01*
X899784Y321496D01*
X901514Y323226D01*
X902737Y325344D01*
X903370Y327707D01*
Y330153D01*
X902737Y332516D01*
X901514Y334634D01*
X899784Y336364D01*
X899423Y336573D01*
Y349530D01*
X902370D01*
Y352477D01*
X910270D01*
X910270Y352477D01*
X912315Y352884D01*
X914048Y354042D01*
X919448Y359442D01*
X920606Y361175D01*
X921013Y363220D01*
X921013Y363220D01*
Y388947D01*
X933123Y401057D01*
X970280D01*
X970280Y401057D01*
X972325Y401464D01*
X974058Y402622D01*
X982948Y411512D01*
X982948Y411512D01*
X984106Y413246D01*
X984513Y415290D01*
X984513Y415290D01*
Y476250D01*
X984513Y476250D01*
X984106Y478294D01*
X982948Y480028D01*
X982948Y480028D01*
X977868Y485108D01*
X976134Y486266D01*
X974090Y486673D01*
X974090Y486673D01*
X965870D01*
Y489620D01*
D02*
G37*
G36*
X966190Y531530D02*
X949610D01*
Y514950D01*
X966190D01*
Y517897D01*
X1001087D01*
X1006847Y512137D01*
Y438150D01*
X1006847Y438150D01*
X1007254Y436105D01*
X1008412Y434372D01*
X1024922Y417862D01*
X1024922Y417862D01*
X1026656Y416704D01*
X1028700Y416297D01*
X1028700Y416297D01*
X1081097D01*
X1088335Y409060D01*
X1088360Y407070D01*
X1088360D01*
Y390490D01*
X1104940D01*
Y393437D01*
X1116307D01*
X1116516Y393076D01*
X1118246Y391346D01*
X1120364Y390123D01*
X1122727Y389490D01*
X1125173D01*
X1127536Y390123D01*
X1129654Y391346D01*
X1131384Y393076D01*
X1132607Y395194D01*
X1133240Y397557D01*
Y400003D01*
X1132607Y402366D01*
X1131384Y404484D01*
X1129654Y406214D01*
X1127536Y407437D01*
X1125173Y408070D01*
X1122727D01*
X1120364Y407437D01*
X1118246Y406214D01*
X1116516Y404484D01*
X1116307Y404123D01*
X1104940D01*
Y407070D01*
X1100403D01*
Y409890D01*
X1099996Y411935D01*
X1098838Y413668D01*
X1098838Y413668D01*
X1087088Y425418D01*
X1085355Y426576D01*
X1083310Y426983D01*
X1083310Y426983D01*
X1030913D01*
X1017533Y440363D01*
Y514350D01*
X1017533Y514350D01*
X1017126Y516395D01*
X1015968Y518128D01*
X1015968Y518128D01*
X1007078Y527018D01*
X1005344Y528176D01*
X1003300Y528583D01*
X1003300Y528583D01*
X966190D01*
Y531530D01*
D02*
G37*
G36*
X1081440Y407070D02*
X1064860D01*
Y393300D01*
X1064260Y391060D01*
Y388720D01*
X1064866Y386459D01*
X1066036Y384431D01*
X1067691Y382776D01*
X1069719Y381606D01*
X1071980Y381000D01*
X1074320D01*
X1076581Y381606D01*
X1078609Y382776D01*
X1080264Y384431D01*
X1081434Y386459D01*
X1082040Y388720D01*
Y391060D01*
X1081440Y393300D01*
Y407070D01*
D02*
G37*
G36*
X946050Y397510D02*
X943710D01*
X941449Y396904D01*
X939421Y395734D01*
X937766Y394079D01*
X936596Y392051D01*
X935990Y389790D01*
Y387450D01*
X936590Y385210D01*
Y373030D01*
X953170D01*
Y385210D01*
X953770Y387450D01*
Y389790D01*
X953164Y392051D01*
X951994Y394079D01*
X950339Y395734D01*
X948311Y396904D01*
X946050Y397510D01*
D02*
G37*
G36*
X895250D02*
X892910D01*
X890649Y396904D01*
X888621Y395734D01*
X886966Y394079D01*
X885796Y392051D01*
X885190Y389790D01*
Y387450D01*
X885790Y385210D01*
Y373030D01*
X902370D01*
Y385210D01*
X902970Y387450D01*
Y389790D01*
X902364Y392051D01*
X901194Y394079D01*
X899539Y395734D01*
X897511Y396904D01*
X895250Y397510D01*
D02*
G37*
G36*
X822860D02*
X820520D01*
X818259Y396904D01*
X816231Y395734D01*
X814576Y394079D01*
X813406Y392051D01*
X812800Y389790D01*
Y387450D01*
X813400Y385210D01*
Y373030D01*
X829980D01*
Y385210D01*
X830580Y387450D01*
Y389790D01*
X829974Y392051D01*
X828804Y394079D01*
X827149Y395734D01*
X825121Y396904D01*
X822860Y397510D01*
D02*
G37*
G36*
X772060Y398780D02*
X769720D01*
X767459Y398174D01*
X765431Y397004D01*
X763776Y395349D01*
X762606Y393321D01*
X762000Y391060D01*
Y388720D01*
X762600Y386480D01*
Y373030D01*
X779180D01*
Y386480D01*
X779780Y388720D01*
Y391060D01*
X779174Y393321D01*
X778004Y395349D01*
X776349Y397004D01*
X774321Y398174D01*
X772060Y398780D01*
D02*
G37*
G36*
X699670Y397510D02*
X697330D01*
X695069Y396904D01*
X693041Y395734D01*
X691386Y394079D01*
X690216Y392051D01*
X689610Y389790D01*
Y387450D01*
X690210Y385210D01*
Y373030D01*
X706790D01*
Y385210D01*
X707390Y387450D01*
Y389790D01*
X706784Y392051D01*
X705614Y394079D01*
X703959Y395734D01*
X701931Y396904D01*
X699670Y397510D01*
D02*
G37*
G36*
X650140D02*
X647800D01*
X645539Y396904D01*
X643511Y395734D01*
X641856Y394079D01*
X640686Y392051D01*
X640080Y389790D01*
Y387450D01*
X640680Y385210D01*
Y373030D01*
X657260D01*
Y385210D01*
X657860Y387450D01*
Y389790D01*
X657254Y392051D01*
X656084Y394079D01*
X654429Y395734D01*
X652401Y396904D01*
X650140Y397510D01*
D02*
G37*
G36*
X965870Y511210D02*
X949290D01*
Y494630D01*
X965870D01*
Y497577D01*
X983307D01*
X990337Y490547D01*
Y371783D01*
X981717Y363163D01*
X953170D01*
Y366110D01*
X936590D01*
Y349530D01*
X939537D01*
Y336573D01*
X939176Y336364D01*
X937446Y334634D01*
X936223Y332516D01*
X935590Y330153D01*
Y327707D01*
X936223Y325344D01*
X937446Y323226D01*
X939176Y321496D01*
X941294Y320273D01*
X943657Y319640D01*
X946103D01*
X948466Y320273D01*
X950584Y321496D01*
X952314Y323226D01*
X953537Y325344D01*
X954170Y327707D01*
Y330153D01*
X953537Y332516D01*
X952314Y334634D01*
X950584Y336364D01*
X950223Y336573D01*
Y349530D01*
X953170D01*
Y352477D01*
X983930D01*
X983930Y352477D01*
X985975Y352884D01*
X987708Y354042D01*
X999458Y365792D01*
X999458Y365792D01*
X1000616Y367525D01*
X1001023Y369570D01*
Y492760D01*
X1000616Y494805D01*
X999458Y496538D01*
X999458Y496538D01*
X989298Y506698D01*
X987564Y507856D01*
X985520Y508263D01*
X985520Y508263D01*
X965870D01*
Y511210D01*
D02*
G37*
G36*
X975280Y336770D02*
Y333930D01*
X978120D01*
X977714Y334634D01*
X975984Y336364D01*
X975280Y336770D01*
D02*
G37*
G36*
X924480D02*
Y333930D01*
X927320D01*
X926914Y334634D01*
X925184Y336364D01*
X924480Y336770D01*
D02*
G37*
G36*
X852090D02*
Y333930D01*
X854930D01*
X854524Y334634D01*
X852794Y336364D01*
X852090Y336770D01*
D02*
G37*
G36*
X801290D02*
Y333930D01*
X804130D01*
X803724Y334634D01*
X801994Y336364D01*
X801290Y336770D01*
D02*
G37*
G36*
X728900D02*
Y333930D01*
X731740D01*
X731334Y334634D01*
X729604Y336364D01*
X728900Y336770D01*
D02*
G37*
G36*
X678100D02*
Y333930D01*
X680940D01*
X680534Y334634D01*
X678804Y336364D01*
X678100Y336770D01*
D02*
G37*
G36*
X965280D02*
X964576Y336364D01*
X962846Y334634D01*
X962440Y333930D01*
X965280D01*
Y336770D01*
D02*
G37*
G36*
X914480D02*
X913776Y336364D01*
X912046Y334634D01*
X911640Y333930D01*
X914480D01*
Y336770D01*
D02*
G37*
G36*
X842090D02*
X841386Y336364D01*
X839656Y334634D01*
X839250Y333930D01*
X842090D01*
Y336770D01*
D02*
G37*
G36*
X791290D02*
X790586Y336364D01*
X788856Y334634D01*
X788450Y333930D01*
X791290D01*
Y336770D01*
D02*
G37*
G36*
X718900D02*
X718196Y336364D01*
X716466Y334634D01*
X716060Y333930D01*
X718900D01*
Y336770D01*
D02*
G37*
G36*
X668100D02*
X667396Y336364D01*
X665666Y334634D01*
X665260Y333930D01*
X668100D01*
Y336770D01*
D02*
G37*
G36*
X978120Y323930D02*
X975280D01*
Y321090D01*
X975984Y321496D01*
X977714Y323226D01*
X978120Y323930D01*
D02*
G37*
G36*
X854930D02*
X852090D01*
Y321090D01*
X852794Y321496D01*
X854524Y323226D01*
X854930Y323930D01*
D02*
G37*
G36*
X804130D02*
X801290D01*
Y321090D01*
X801994Y321496D01*
X803724Y323226D01*
X804130Y323930D01*
D02*
G37*
G36*
X680940D02*
X678100D01*
Y321090D01*
X678804Y321496D01*
X680534Y323226D01*
X680940Y323930D01*
D02*
G37*
G36*
X927320D02*
X924480D01*
Y321090D01*
X925184Y321496D01*
X926914Y323226D01*
X927320Y323930D01*
D02*
G37*
G36*
X731740D02*
X728900D01*
Y321090D01*
X729604Y321496D01*
X731334Y323226D01*
X731740Y323930D01*
D02*
G37*
G36*
X914480D02*
X911640D01*
X912046Y323226D01*
X913776Y321496D01*
X914480Y321090D01*
Y323930D01*
D02*
G37*
G36*
X718900D02*
X716060D01*
X716466Y323226D01*
X718196Y321496D01*
X718900Y321090D01*
Y323930D01*
D02*
G37*
G36*
X965280D02*
X962440D01*
X962846Y323226D01*
X964576Y321496D01*
X965280Y321090D01*
Y323930D01*
D02*
G37*
G36*
X842090D02*
X839250D01*
X839656Y323226D01*
X841386Y321496D01*
X842090Y321090D01*
Y323930D01*
D02*
G37*
G36*
X791290D02*
X788450D01*
X788856Y323226D01*
X790586Y321496D01*
X791290Y321090D01*
Y323930D01*
D02*
G37*
G36*
X668100D02*
X665260D01*
X665666Y323226D01*
X667396Y321496D01*
X668100Y321090D01*
Y323930D01*
D02*
G37*
%LPD*%
G36*
X926110Y467876D02*
Y460648D01*
X926031Y460250D01*
Y458146D01*
X916504Y448619D01*
X906638D01*
X905872Y450467D01*
X924110Y468705D01*
X926110Y467876D01*
D02*
G37*
%LPC*%
G36*
X84220Y356855D02*
Y337750D01*
X93129D01*
Y344000D01*
X92655Y347600D01*
X91265Y350955D01*
X89055Y353835D01*
X86174Y356046D01*
X84220Y356855D01*
D02*
G37*
G36*
X74220D02*
X72266Y356046D01*
X69385Y353835D01*
X67174Y350955D01*
X65785Y347600D01*
X65311Y344000D01*
Y337750D01*
X74220D01*
Y356855D01*
D02*
G37*
G36*
X224870Y315720D02*
X219830D01*
Y311680D01*
X224870D01*
Y315720D01*
D02*
G37*
G36*
X93129Y327750D02*
X84220D01*
Y308645D01*
X86174Y309454D01*
X89055Y311665D01*
X91265Y314545D01*
X92655Y317900D01*
X93129Y321500D01*
Y327750D01*
D02*
G37*
G36*
X74220D02*
X65311D01*
Y321500D01*
X65785Y317900D01*
X67174Y314545D01*
X69385Y311665D01*
X72266Y309454D01*
X74220Y308645D01*
Y327750D01*
D02*
G37*
G36*
X152400Y364540D02*
X127000D01*
X126009Y364343D01*
X125169Y363781D01*
X118819Y357431D01*
X118257Y356591D01*
X118060Y355600D01*
Y311150D01*
X118257Y310159D01*
X118819Y309319D01*
X128979Y299159D01*
X129819Y298597D01*
X130810Y298400D01*
X149860D01*
X150851Y298597D01*
X151691Y299159D01*
X164903Y312370D01*
X200660D01*
X201651Y312567D01*
X202491Y313129D01*
X206301Y316939D01*
X206863Y317779D01*
X207060Y318770D01*
Y342900D01*
X206863Y343891D01*
X206301Y344731D01*
X201221Y349811D01*
X200381Y350373D01*
X199390Y350570D01*
X167443D01*
X154231Y363781D01*
X153391Y364343D01*
X152400Y364540D01*
D02*
G37*
G36*
X120470Y299659D02*
X114220D01*
Y290750D01*
X133325D01*
X132516Y292705D01*
X130305Y295585D01*
X127424Y297796D01*
X124070Y299185D01*
X120470Y299659D01*
D02*
G37*
G36*
X104220D02*
X97970D01*
X94370Y299185D01*
X91016Y297796D01*
X88135Y295585D01*
X85924Y292705D01*
X85115Y290750D01*
X104220D01*
Y299659D01*
D02*
G37*
G36*
X133325Y280750D02*
X114220D01*
Y271841D01*
X120470D01*
X124070Y272315D01*
X127424Y273704D01*
X130305Y275915D01*
X132516Y278796D01*
X133325Y280750D01*
D02*
G37*
G36*
X104220D02*
X85115D01*
X85924Y278796D01*
X88135Y275915D01*
X91016Y273704D01*
X94370Y272315D01*
X97970Y271841D01*
X104220D01*
Y280750D01*
D02*
G37*
G36*
X156130Y253678D02*
Y248240D01*
X161569D01*
X160364Y250326D01*
X158216Y252474D01*
X156130Y253678D01*
D02*
G37*
G36*
X146130D02*
X144044Y252474D01*
X141896Y250326D01*
X140691Y248240D01*
X146130D01*
Y253678D01*
D02*
G37*
G36*
X161569Y238240D02*
X156130D01*
Y232801D01*
X158216Y234006D01*
X160364Y236154D01*
X161569Y238240D01*
D02*
G37*
G36*
X146130D02*
X140691D01*
X141896Y236154D01*
X144044Y234006D01*
X146130Y232801D01*
Y238240D01*
D02*
G37*
%LPD*%
G36*
X166370Y347980D02*
X199390D01*
X204470Y342900D01*
Y318770D01*
X200660Y314960D01*
X163830D01*
X149860Y300990D01*
X130810D01*
X120650Y311150D01*
Y355600D01*
X127000Y361950D01*
X152400D01*
X166370Y347980D01*
D02*
G37*
%LPC*%
G36*
X142700Y358810D02*
Y334240D01*
X155043D01*
Y343970D01*
X154752Y346918D01*
X153892Y349753D01*
X152496Y352366D01*
X150616Y354656D01*
X148326Y356536D01*
X145713Y357932D01*
X142878Y358792D01*
X142700Y358810D01*
D02*
G37*
G36*
X137160D02*
X136982Y358792D01*
X134147Y357932D01*
X131534Y356536D01*
X129244Y354656D01*
X127364Y352366D01*
X125968Y349753D01*
X125108Y346918D01*
X124817Y343970D01*
Y334240D01*
X137160D01*
Y358810D01*
D02*
G37*
G36*
X199520Y344100D02*
X192000D01*
Y333330D01*
X199520D01*
Y344100D01*
D02*
G37*
G36*
X186460D02*
X178940D01*
Y333330D01*
X186460D01*
Y344100D01*
D02*
G37*
G36*
X199520Y327790D02*
X192000D01*
Y317020D01*
X199520D01*
Y327790D01*
D02*
G37*
G36*
X186460D02*
X178940D01*
Y317020D01*
X186460D01*
Y327790D01*
D02*
G37*
G36*
X155043Y328700D02*
X142700D01*
Y304130D01*
X142878Y304148D01*
X145713Y305008D01*
X148326Y306404D01*
X150616Y308284D01*
X152496Y310574D01*
X153892Y313187D01*
X154752Y316022D01*
X155043Y318970D01*
Y328700D01*
D02*
G37*
G36*
X137160D02*
X124817D01*
Y318970D01*
X125108Y316022D01*
X125968Y313187D01*
X127364Y310574D01*
X129244Y308284D01*
X131534Y306404D01*
X134147Y305008D01*
X136982Y304148D01*
X137160Y304130D01*
Y328700D01*
D02*
G37*
G36*
X117510Y228950D02*
X114220D01*
Y225660D01*
X117510D01*
Y228950D01*
D02*
G37*
G36*
X104220D02*
X100930D01*
Y225660D01*
X104220D01*
Y228950D01*
D02*
G37*
G36*
X117510Y215660D02*
X114220D01*
Y212370D01*
X117510D01*
Y215660D01*
D02*
G37*
G36*
X104220D02*
X100930D01*
Y212370D01*
X104220D01*
Y215660D01*
D02*
G37*
G36*
X156130Y178678D02*
Y173240D01*
X161569D01*
X160364Y175326D01*
X158216Y177474D01*
X156130Y178678D01*
D02*
G37*
G36*
X146130D02*
X144044Y177474D01*
X141896Y175326D01*
X140691Y173240D01*
X146130D01*
Y178678D01*
D02*
G37*
G36*
X161569Y163240D02*
X156130D01*
Y157802D01*
X158216Y159006D01*
X160364Y161154D01*
X161569Y163240D01*
D02*
G37*
G36*
X146130D02*
X140691D01*
X141896Y161154D01*
X144044Y159006D01*
X146130Y157802D01*
Y163240D01*
D02*
G37*
G36*
X1443364Y808290D02*
X1439536D01*
X1435838Y807299D01*
X1432522Y805385D01*
X1429815Y802678D01*
X1428793Y800907D01*
X1372270D01*
Y803630D01*
X1355690D01*
Y787050D01*
X1372270D01*
Y788183D01*
X1427889D01*
X1427901Y788138D01*
X1429815Y784822D01*
X1432522Y782115D01*
X1435838Y780201D01*
X1439536Y779210D01*
X1443364D01*
X1447062Y780201D01*
X1450378Y782115D01*
X1453085Y784822D01*
X1454999Y788138D01*
X1455990Y791836D01*
Y795664D01*
X1454999Y799362D01*
X1453085Y802678D01*
X1450378Y805385D01*
X1447062Y807299D01*
X1443364Y808290D01*
D02*
G37*
G36*
X1321990Y804923D02*
Y796210D01*
X1330703D01*
X1330539Y796822D01*
X1328625Y800138D01*
X1325918Y802845D01*
X1322602Y804759D01*
X1321990Y804923D01*
D02*
G37*
G36*
X1311990D02*
X1311378Y804759D01*
X1308062Y802845D01*
X1305355Y800138D01*
X1303441Y796822D01*
X1303277Y796210D01*
X1311990D01*
Y804923D01*
D02*
G37*
G36*
X1330703Y786210D02*
X1321990D01*
Y777497D01*
X1322602Y777661D01*
X1325918Y779575D01*
X1328625Y782282D01*
X1330539Y785598D01*
X1330703Y786210D01*
D02*
G37*
G36*
X1311990D02*
X1303277D01*
X1303441Y785598D01*
X1305355Y782282D01*
X1308062Y779575D01*
X1311378Y777661D01*
X1311990Y777497D01*
Y786210D01*
D02*
G37*
G36*
X1268104Y805750D02*
X1264276D01*
X1260578Y804759D01*
X1257262Y802845D01*
X1254555Y800138D01*
X1252641Y796822D01*
X1251650Y793124D01*
Y789296D01*
X1252641Y785598D01*
X1254555Y782282D01*
X1257262Y779575D01*
X1260578Y777661D01*
X1264276Y776670D01*
X1268104D01*
X1271802Y777661D01*
X1275118Y779575D01*
X1277825Y782282D01*
X1279739Y785598D01*
X1280730Y789296D01*
Y793124D01*
X1279739Y796822D01*
X1277825Y800138D01*
X1275118Y802845D01*
X1271802Y804759D01*
X1268104Y805750D01*
D02*
G37*
G36*
X1443364Y757490D02*
X1439536D01*
X1435838Y756499D01*
X1432522Y754585D01*
X1429815Y751878D01*
X1427901Y748562D01*
X1426910Y744864D01*
Y741036D01*
X1427901Y737338D01*
X1429815Y734022D01*
X1432522Y731315D01*
X1435838Y729401D01*
X1439536Y728410D01*
X1443364D01*
X1447062Y729401D01*
X1450378Y731315D01*
X1453085Y734022D01*
X1454999Y737338D01*
X1455990Y741036D01*
Y744864D01*
X1454999Y748562D01*
X1453085Y751878D01*
X1450378Y754585D01*
X1447062Y756499D01*
X1443364Y757490D01*
D02*
G37*
G36*
X1217304Y805750D02*
X1213476D01*
X1209778Y804759D01*
X1206462Y802845D01*
X1203755Y800138D01*
X1201841Y796822D01*
X1200850Y793124D01*
Y789296D01*
X1201841Y785598D01*
X1203755Y782282D01*
X1206462Y779575D01*
X1208233Y778553D01*
Y715680D01*
X1205510D01*
Y699100D01*
X1222090D01*
Y715680D01*
X1220957D01*
Y777649D01*
X1221002Y777661D01*
X1224318Y779575D01*
X1227025Y782282D01*
X1228939Y785598D01*
X1229930Y789296D01*
Y793124D01*
X1228939Y796822D01*
X1227025Y800138D01*
X1224318Y802845D01*
X1221002Y804759D01*
X1217304Y805750D01*
D02*
G37*
G36*
X1446450Y705863D02*
Y697150D01*
X1455163D01*
X1454999Y697762D01*
X1453085Y701078D01*
X1450378Y703785D01*
X1447062Y705699D01*
X1446450Y705863D01*
D02*
G37*
G36*
X1436450D02*
X1435838Y705699D01*
X1432522Y703785D01*
X1429815Y701078D01*
X1427901Y697762D01*
X1427737Y697150D01*
X1436450D01*
Y705863D01*
D02*
G37*
G36*
X1455163Y687150D02*
X1446450D01*
Y678437D01*
X1447062Y678601D01*
X1450378Y680515D01*
X1453085Y683222D01*
X1454999Y686538D01*
X1455163Y687150D01*
D02*
G37*
G36*
X1436450D02*
X1427737D01*
X1427901Y686538D01*
X1429815Y683222D01*
X1432522Y680515D01*
X1435838Y678601D01*
X1436450Y678437D01*
Y687150D01*
D02*
G37*
G36*
X1203880Y662992D02*
Y660320D01*
X1206552D01*
X1206197Y660935D01*
X1204494Y662637D01*
X1203880Y662992D01*
D02*
G37*
G36*
X1193880D02*
X1193266Y662637D01*
X1191563Y660935D01*
X1191208Y660320D01*
X1193880D01*
Y662992D01*
D02*
G37*
G36*
X1206552Y650320D02*
X1203880D01*
Y647648D01*
X1204494Y648003D01*
X1206197Y649706D01*
X1206552Y650320D01*
D02*
G37*
G36*
X1193880D02*
X1191208D01*
X1191563Y649706D01*
X1193266Y648003D01*
X1193880Y647648D01*
Y650320D01*
D02*
G37*
G36*
X1245590Y715680D02*
X1229010D01*
Y699100D01*
X1230938D01*
Y643035D01*
X1222915Y635012D01*
X1217161D01*
X1216363Y635171D01*
X1216363Y635171D01*
X1206407D01*
X1206197Y635535D01*
X1204494Y637237D01*
X1202410Y638441D01*
X1200084Y639064D01*
X1197676D01*
X1195350Y638441D01*
X1193266Y637237D01*
X1191563Y635535D01*
X1190359Y633450D01*
X1189736Y631124D01*
Y628716D01*
X1190359Y626390D01*
X1191563Y624305D01*
X1193266Y622603D01*
X1195350Y621399D01*
X1197676Y620776D01*
X1200084D01*
X1202410Y621399D01*
X1204223Y622447D01*
X1215724D01*
X1216522Y622288D01*
X1216522Y622288D01*
X1225550D01*
X1225550Y622288D01*
X1227985Y622772D01*
X1230049Y624151D01*
X1241799Y635901D01*
X1241799Y635901D01*
X1243178Y637965D01*
X1243662Y640400D01*
Y699100D01*
X1245590D01*
Y715680D01*
D02*
G37*
G36*
X1372270Y780130D02*
X1355690D01*
Y763550D01*
X1356348D01*
Y617315D01*
X1330865Y591832D01*
X1224280D01*
X1224280Y591832D01*
X1221845Y591348D01*
X1219781Y589969D01*
X1219781Y589969D01*
X1200442Y570630D01*
X1198927D01*
X1196564Y569997D01*
X1194446Y568774D01*
X1192716Y567044D01*
X1191493Y564926D01*
X1190860Y562563D01*
Y560117D01*
X1191493Y557754D01*
X1192716Y555636D01*
X1194446Y553906D01*
X1196564Y552683D01*
X1198927Y552050D01*
X1201373D01*
X1203736Y552683D01*
X1205854Y553906D01*
X1207584Y555636D01*
X1208807Y557754D01*
X1209440Y560117D01*
Y561632D01*
X1226915Y579108D01*
X1333500D01*
X1333500Y579108D01*
X1335935Y579592D01*
X1337999Y580971D01*
X1367209Y610181D01*
X1367209Y610181D01*
X1368588Y612245D01*
X1369072Y614680D01*
X1369072Y614680D01*
Y763550D01*
X1372270D01*
Y780130D01*
D02*
G37*
G36*
X1205150Y594580D02*
Y591740D01*
X1207990D01*
X1207584Y592444D01*
X1205854Y594174D01*
X1205150Y594580D01*
D02*
G37*
G36*
X1195150D02*
X1194446Y594174D01*
X1192716Y592444D01*
X1192310Y591740D01*
X1195150D01*
Y594580D01*
D02*
G37*
G36*
X1443364Y593660D02*
X1439536D01*
X1435838Y592669D01*
X1432522Y590755D01*
X1429815Y588048D01*
X1428060Y585007D01*
X1368460D01*
Y586460D01*
X1351880D01*
Y569880D01*
X1368460D01*
Y572283D01*
X1428608D01*
X1429815Y570192D01*
X1432522Y567485D01*
X1435838Y565571D01*
X1439536Y564580D01*
X1443364D01*
X1447062Y565571D01*
X1450378Y567485D01*
X1453085Y570192D01*
X1454999Y573508D01*
X1455990Y577206D01*
Y581034D01*
X1454999Y584732D01*
X1453085Y588048D01*
X1450378Y590755D01*
X1447062Y592669D01*
X1443364Y593660D01*
D02*
G37*
G36*
X1207990Y581740D02*
X1205150D01*
Y578900D01*
X1205854Y579306D01*
X1207584Y581036D01*
X1207990Y581740D01*
D02*
G37*
G36*
X1195150D02*
X1192310D01*
X1192716Y581036D01*
X1194446Y579306D01*
X1195150Y578900D01*
Y581740D01*
D02*
G37*
G36*
X1205150Y543780D02*
Y540940D01*
X1207990D01*
X1207584Y541644D01*
X1205854Y543374D01*
X1205150Y543780D01*
D02*
G37*
G36*
X1195150D02*
X1194446Y543374D01*
X1192716Y541644D01*
X1192310Y540940D01*
X1195150D01*
Y543780D01*
D02*
G37*
G36*
X1207990Y530940D02*
X1205150D01*
Y528100D01*
X1205854Y528506D01*
X1207584Y530236D01*
X1207990Y530940D01*
D02*
G37*
G36*
X1195150D02*
X1192310D01*
X1192716Y530236D01*
X1194446Y528506D01*
X1195150Y528100D01*
Y530940D01*
D02*
G37*
G36*
X1368460Y562960D02*
X1351880D01*
Y546380D01*
X1353808D01*
Y533495D01*
X1337215Y516902D01*
X1209440D01*
Y519830D01*
X1190860D01*
Y501250D01*
X1209440D01*
Y504178D01*
X1339850D01*
X1339850Y504178D01*
X1342285Y504662D01*
X1344349Y506041D01*
X1364669Y526361D01*
X1364669Y526361D01*
X1366048Y528425D01*
X1366532Y530860D01*
X1366532Y530860D01*
Y546380D01*
X1368460D01*
Y562960D01*
D02*
G37*
G36*
X1443364Y542860D02*
X1439536D01*
X1435838Y541869D01*
X1432522Y539955D01*
X1429815Y537248D01*
X1427901Y533932D01*
X1426910Y530234D01*
Y526406D01*
X1427901Y522708D01*
X1429815Y519392D01*
X1432522Y516685D01*
X1435838Y514771D01*
X1439536Y513780D01*
X1443364D01*
X1447062Y514771D01*
X1450378Y516685D01*
X1453085Y519392D01*
X1454999Y522708D01*
X1455990Y526406D01*
Y530234D01*
X1454999Y533932D01*
X1453085Y537248D01*
X1450378Y539955D01*
X1447062Y541869D01*
X1443364Y542860D01*
D02*
G37*
G36*
X1446450Y491233D02*
Y482520D01*
X1455163D01*
X1454999Y483132D01*
X1453085Y486448D01*
X1450378Y489155D01*
X1447062Y491069D01*
X1446450Y491233D01*
D02*
G37*
G36*
X1436450D02*
X1435838Y491069D01*
X1432522Y489155D01*
X1429815Y486448D01*
X1427901Y483132D01*
X1427737Y482520D01*
X1436450D01*
Y491233D01*
D02*
G37*
G36*
X1205150Y482820D02*
Y479980D01*
X1207990D01*
X1207584Y480684D01*
X1205854Y482414D01*
X1205150Y482820D01*
D02*
G37*
G36*
X1195150D02*
X1194446Y482414D01*
X1192716Y480684D01*
X1192310Y479980D01*
X1195150D01*
Y482820D01*
D02*
G37*
G36*
X1207990Y469980D02*
X1205150D01*
Y467140D01*
X1205854Y467546D01*
X1207584Y469276D01*
X1207990Y469980D01*
D02*
G37*
G36*
X1195150D02*
X1192310D01*
X1192716Y469276D01*
X1194446Y467546D01*
X1195150Y467140D01*
Y469980D01*
D02*
G37*
G36*
X1455163Y472520D02*
X1446450D01*
Y463807D01*
X1447062Y463971D01*
X1450378Y465885D01*
X1453085Y468592D01*
X1454999Y471908D01*
X1455163Y472520D01*
D02*
G37*
G36*
X1436450D02*
X1427737D01*
X1427901Y471908D01*
X1429815Y468592D01*
X1432522Y465885D01*
X1435838Y463971D01*
X1436450Y463807D01*
Y472520D01*
D02*
G37*
G36*
X1205150Y432020D02*
Y429180D01*
X1207990D01*
X1207584Y429884D01*
X1205854Y431614D01*
X1205150Y432020D01*
D02*
G37*
G36*
X1195150D02*
X1194446Y431614D01*
X1192716Y429884D01*
X1192310Y429180D01*
X1195150D01*
Y432020D01*
D02*
G37*
G36*
X1207990Y419180D02*
X1205150D01*
Y416340D01*
X1205854Y416746D01*
X1207584Y418476D01*
X1207990Y419180D01*
D02*
G37*
G36*
X1195150D02*
X1192310D01*
X1192716Y418476D01*
X1194446Y416746D01*
X1195150Y416340D01*
Y419180D01*
D02*
G37*
G36*
X1201373Y458870D02*
X1198927D01*
X1196564Y458237D01*
X1194446Y457014D01*
X1192716Y455284D01*
X1191493Y453166D01*
X1190860Y450803D01*
Y448357D01*
X1191493Y445994D01*
X1192716Y443876D01*
X1194446Y442146D01*
X1196564Y440923D01*
X1198927Y440290D01*
X1201373D01*
X1203736Y440923D01*
X1205854Y442146D01*
X1206926Y443218D01*
X1337215D01*
X1353808Y426625D01*
Y375640D01*
X1351880D01*
Y359060D01*
X1368460D01*
Y375640D01*
X1366532D01*
Y429260D01*
X1366532Y429260D01*
X1366048Y431695D01*
X1364669Y433759D01*
X1364669Y433759D01*
X1344349Y454079D01*
X1342285Y455458D01*
X1339850Y455942D01*
X1339850Y455942D01*
X1206926D01*
X1205854Y457014D01*
X1203736Y458237D01*
X1201373Y458870D01*
D02*
G37*
G36*
X1445904Y357440D02*
X1442076D01*
X1438378Y356449D01*
X1435062Y354535D01*
X1432355Y351828D01*
X1431148Y349737D01*
X1368460D01*
Y352140D01*
X1351880D01*
Y335560D01*
X1368460D01*
Y337013D01*
X1430600D01*
X1432355Y333972D01*
X1435062Y331265D01*
X1438378Y329351D01*
X1442076Y328360D01*
X1445904D01*
X1449602Y329351D01*
X1452918Y331265D01*
X1455625Y333972D01*
X1457539Y337288D01*
X1458530Y340986D01*
Y344814D01*
X1457539Y348512D01*
X1455625Y351828D01*
X1452918Y354535D01*
X1449602Y356449D01*
X1445904Y357440D01*
D02*
G37*
G36*
Y306640D02*
X1442076D01*
X1438378Y305649D01*
X1435062Y303735D01*
X1432355Y301028D01*
X1430441Y297712D01*
X1429450Y294014D01*
Y290186D01*
X1430441Y286488D01*
X1432355Y283172D01*
X1435062Y280465D01*
X1438378Y278551D01*
X1442076Y277560D01*
X1445904D01*
X1449602Y278551D01*
X1452918Y280465D01*
X1455625Y283172D01*
X1457539Y286488D01*
X1458530Y290186D01*
Y294014D01*
X1457539Y297712D01*
X1455625Y301028D01*
X1452918Y303735D01*
X1449602Y305649D01*
X1445904Y306640D01*
D02*
G37*
G36*
X975280Y260570D02*
Y257730D01*
X978120D01*
X977714Y258434D01*
X975984Y260164D01*
X975280Y260570D01*
D02*
G37*
G36*
X924480D02*
Y257730D01*
X927320D01*
X926914Y258434D01*
X925184Y260164D01*
X924480Y260570D01*
D02*
G37*
G36*
X852090D02*
Y257730D01*
X854930D01*
X854524Y258434D01*
X852794Y260164D01*
X852090Y260570D01*
D02*
G37*
G36*
X801290D02*
Y257730D01*
X804130D01*
X803724Y258434D01*
X801994Y260164D01*
X801290Y260570D01*
D02*
G37*
G36*
X728900D02*
Y257730D01*
X731740D01*
X731334Y258434D01*
X729604Y260164D01*
X728900Y260570D01*
D02*
G37*
G36*
X678100D02*
Y257730D01*
X680940D01*
X680534Y258434D01*
X678804Y260164D01*
X678100Y260570D01*
D02*
G37*
G36*
X965280D02*
X964576Y260164D01*
X962846Y258434D01*
X962440Y257730D01*
X965280D01*
Y260570D01*
D02*
G37*
G36*
X914480D02*
X913776Y260164D01*
X912046Y258434D01*
X911640Y257730D01*
X914480D01*
Y260570D01*
D02*
G37*
G36*
X842090D02*
X841386Y260164D01*
X839656Y258434D01*
X839250Y257730D01*
X842090D01*
Y260570D01*
D02*
G37*
G36*
X791290D02*
X790586Y260164D01*
X788856Y258434D01*
X788450Y257730D01*
X791290D01*
Y260570D01*
D02*
G37*
G36*
X718900D02*
X718196Y260164D01*
X716466Y258434D01*
X716060Y257730D01*
X718900D01*
Y260570D01*
D02*
G37*
G36*
X668100D02*
X667396Y260164D01*
X665666Y258434D01*
X665260Y257730D01*
X668100D01*
Y260570D01*
D02*
G37*
G36*
X1448990Y255013D02*
Y246300D01*
X1457703D01*
X1457539Y246912D01*
X1455625Y250228D01*
X1452918Y252935D01*
X1449602Y254849D01*
X1448990Y255013D01*
D02*
G37*
G36*
X1438990D02*
X1438378Y254849D01*
X1435062Y252935D01*
X1432355Y250228D01*
X1430441Y246912D01*
X1430277Y246300D01*
X1438990D01*
Y255013D01*
D02*
G37*
G36*
X978120Y247730D02*
X975280D01*
Y244890D01*
X975984Y245296D01*
X977714Y247026D01*
X978120Y247730D01*
D02*
G37*
G36*
X927320D02*
X924480D01*
Y244890D01*
X925184Y245296D01*
X926914Y247026D01*
X927320Y247730D01*
D02*
G37*
G36*
X854930D02*
X852090D01*
Y244890D01*
X852794Y245296D01*
X854524Y247026D01*
X854930Y247730D01*
D02*
G37*
G36*
X804130D02*
X801290D01*
Y244890D01*
X801994Y245296D01*
X803724Y247026D01*
X804130Y247730D01*
D02*
G37*
G36*
X731740D02*
X728900D01*
Y244890D01*
X729604Y245296D01*
X731334Y247026D01*
X731740Y247730D01*
D02*
G37*
G36*
X680940D02*
X678100D01*
Y244890D01*
X678804Y245296D01*
X680534Y247026D01*
X680940Y247730D01*
D02*
G37*
G36*
X965280D02*
X962440D01*
X962846Y247026D01*
X964576Y245296D01*
X965280Y244890D01*
Y247730D01*
D02*
G37*
G36*
X914480D02*
X911640D01*
X912046Y247026D01*
X913776Y245296D01*
X914480Y244890D01*
Y247730D01*
D02*
G37*
G36*
X842090D02*
X839250D01*
X839656Y247026D01*
X841386Y245296D01*
X842090Y244890D01*
Y247730D01*
D02*
G37*
G36*
X791290D02*
X788450D01*
X788856Y247026D01*
X790586Y245296D01*
X791290Y244890D01*
Y247730D01*
D02*
G37*
G36*
X718900D02*
X716060D01*
X716466Y247026D01*
X718196Y245296D01*
X718900Y244890D01*
Y247730D01*
D02*
G37*
G36*
X668100D02*
X665260D01*
X665666Y247026D01*
X667396Y245296D01*
X668100Y244890D01*
Y247730D01*
D02*
G37*
G36*
X1457703Y236300D02*
X1448990D01*
Y227587D01*
X1449602Y227751D01*
X1452918Y229665D01*
X1455625Y232372D01*
X1457539Y235688D01*
X1457703Y236300D01*
D02*
G37*
G36*
X1438990D02*
X1430277D01*
X1430441Y235688D01*
X1432355Y232372D01*
X1435062Y229665D01*
X1438378Y227751D01*
X1438990Y227587D01*
Y236300D01*
D02*
G37*
G36*
X1209440Y408070D02*
X1190860D01*
Y389490D01*
X1193788D01*
Y270510D01*
X1193788Y270510D01*
X1194272Y268075D01*
X1195651Y266011D01*
X1267401Y194261D01*
X1267401Y194261D01*
X1269465Y192882D01*
X1271900Y192398D01*
X1271900Y192398D01*
X1350610D01*
Y190470D01*
X1367190D01*
Y207050D01*
X1350610D01*
Y205122D01*
X1274535D01*
X1206512Y273145D01*
Y389490D01*
X1209440D01*
Y408070D01*
D02*
G37*
G36*
X656990Y262020D02*
X638410D01*
Y243440D01*
X640119D01*
Y222324D01*
X613336Y195541D01*
X284480D01*
X282065Y195061D01*
X280017Y193693D01*
X252656Y166331D01*
X248640D01*
Y168310D01*
X232060D01*
Y151730D01*
X248640D01*
Y153709D01*
X255270D01*
X257685Y154189D01*
X259733Y155557D01*
X287094Y182919D01*
X615950D01*
X618365Y183399D01*
X620413Y184767D01*
X650893Y215247D01*
X652261Y217295D01*
X652741Y219710D01*
Y243440D01*
X656990D01*
Y262020D01*
D02*
G37*
G36*
X780180D02*
X761600D01*
Y243440D01*
X764579D01*
Y196924D01*
X731446Y163791D01*
X647244D01*
X646975Y164060D01*
X647485Y166379D01*
X647565Y166409D01*
X655320D01*
X657735Y166889D01*
X659783Y168257D01*
X702963Y211437D01*
X704331Y213485D01*
X704811Y215900D01*
Y245903D01*
X705934Y247026D01*
X707157Y249144D01*
X707790Y251507D01*
Y253953D01*
X707157Y256316D01*
X705934Y258434D01*
X704204Y260164D01*
X702086Y261387D01*
X699723Y262020D01*
X697277D01*
X694914Y261387D01*
X692796Y260164D01*
X691066Y258434D01*
X689843Y256316D01*
X689210Y253953D01*
Y251507D01*
X689843Y249144D01*
X691066Y247026D01*
X692189Y245903D01*
Y218514D01*
X652706Y179031D01*
X387670D01*
X385255Y178551D01*
X383207Y177183D01*
X370524Y164500D01*
X362870D01*
Y147920D01*
X379450D01*
Y155575D01*
X390284Y166409D01*
X604015D01*
X605750Y165770D01*
X605750Y164409D01*
Y149190D01*
X606728D01*
Y92343D01*
X606528Y92289D01*
X603212Y90375D01*
X600505Y87668D01*
X598591Y84352D01*
X597600Y80654D01*
Y76826D01*
X598591Y73128D01*
X600505Y69812D01*
X603212Y67105D01*
X606528Y65191D01*
X610226Y64200D01*
X614054D01*
X617752Y65191D01*
X621068Y67105D01*
X623775Y69812D01*
X625689Y73128D01*
X626680Y76826D01*
Y80654D01*
X625689Y84352D01*
X623775Y87668D01*
X621068Y90375D01*
X619452Y91308D01*
Y149190D01*
X622330D01*
Y164409D01*
X622330Y165770D01*
X624066Y166409D01*
X627515D01*
X629250Y165770D01*
X629250Y164409D01*
Y149190D01*
X645830D01*
Y151169D01*
X734060D01*
X736475Y151649D01*
X738523Y153017D01*
X775353Y189847D01*
X776721Y191895D01*
X777201Y194310D01*
Y243440D01*
X780180D01*
Y262020D01*
D02*
G37*
G36*
X946103D02*
X943657D01*
X941294Y261387D01*
X939176Y260164D01*
X937446Y258434D01*
X936223Y256316D01*
X935590Y253953D01*
Y251507D01*
X936223Y249144D01*
X937446Y247026D01*
X938569Y245903D01*
Y233680D01*
X939049Y231265D01*
X940417Y229217D01*
X955657Y213977D01*
X957705Y212609D01*
X960120Y212129D01*
X1212776D01*
X1243049Y181856D01*
Y169580D01*
X1241070D01*
Y153000D01*
X1257650D01*
Y169580D01*
X1255671D01*
Y184470D01*
X1255191Y186885D01*
X1253823Y188933D01*
X1219853Y222903D01*
X1217805Y224271D01*
X1215390Y224751D01*
X962734D01*
X951191Y236294D01*
Y245903D01*
X952314Y247026D01*
X953537Y249144D01*
X954170Y251507D01*
Y253953D01*
X953537Y256316D01*
X952314Y258434D01*
X950584Y260164D01*
X948466Y261387D01*
X946103Y262020D01*
D02*
G37*
G36*
X903370D02*
X884790D01*
Y243440D01*
X887769D01*
Y180340D01*
X888249Y177925D01*
X889617Y175877D01*
X911207Y154287D01*
X913255Y152919D01*
X915670Y152439D01*
X1032790D01*
Y150460D01*
X1049370D01*
Y167040D01*
X1032790D01*
Y165061D01*
X918284D01*
X900391Y182954D01*
Y243440D01*
X903370D01*
Y262020D01*
D02*
G37*
G36*
X822913D02*
X820467D01*
X818104Y261387D01*
X815986Y260164D01*
X814256Y258434D01*
X813033Y256316D01*
X812400Y253953D01*
Y251507D01*
X813033Y249144D01*
X814256Y247026D01*
X815059Y246223D01*
Y167040D01*
X812760D01*
Y150460D01*
X829340D01*
Y167040D01*
X827681D01*
Y245583D01*
X829124Y247026D01*
X830347Y249144D01*
X830980Y251507D01*
Y253953D01*
X830347Y256316D01*
X829124Y258434D01*
X827394Y260164D01*
X825276Y261387D01*
X822913Y262020D01*
D02*
G37*
G36*
X1367190Y183550D02*
X1350610D01*
Y166970D01*
X1353173D01*
Y161785D01*
X1353056Y161669D01*
X1351886Y159641D01*
X1351280Y157380D01*
Y155040D01*
X1351886Y152779D01*
X1353056Y150751D01*
X1354711Y149096D01*
X1356739Y147926D01*
X1359000Y147320D01*
X1361340D01*
X1363601Y147926D01*
X1365629Y149096D01*
X1367284Y150751D01*
X1368454Y152779D01*
X1369060Y155040D01*
Y157380D01*
X1368454Y159641D01*
X1367284Y161669D01*
X1365897Y163055D01*
Y166970D01*
X1367190D01*
Y183550D01*
D02*
G37*
G36*
X1444634Y144080D02*
X1440806D01*
X1437108Y143089D01*
X1433792Y141175D01*
X1431085Y138468D01*
X1429171Y135152D01*
X1428180Y131454D01*
Y127626D01*
X1429171Y123928D01*
X1431085Y120612D01*
X1433792Y117905D01*
X1437108Y115991D01*
X1440806Y115000D01*
X1444634D01*
X1448332Y115991D01*
X1451648Y117905D01*
X1454355Y120612D01*
X1456269Y123928D01*
X1457260Y127626D01*
Y131454D01*
X1456269Y135152D01*
X1454355Y138468D01*
X1451648Y141175D01*
X1448332Y143089D01*
X1444634Y144080D01*
D02*
G37*
G36*
X225140Y168310D02*
X208560D01*
Y151730D01*
X209708D01*
Y124490D01*
X208786Y123569D01*
X207616Y121541D01*
X207010Y119280D01*
Y116940D01*
X207616Y114679D01*
X208786Y112651D01*
X210441Y110996D01*
X212469Y109826D01*
X214730Y109220D01*
X217070D01*
X219331Y109826D01*
X221359Y110996D01*
X223014Y112651D01*
X224184Y114679D01*
X224790Y116940D01*
Y119280D01*
X224312Y121062D01*
Y151730D01*
X225140D01*
Y168310D01*
D02*
G37*
G36*
X852840Y167040D02*
X836260D01*
Y150460D01*
X838188D01*
Y99155D01*
X830276Y91243D01*
X827414Y92010D01*
X823586D01*
X819888Y91019D01*
X816572Y89105D01*
X813865Y86398D01*
X811951Y83082D01*
X810960Y79384D01*
Y75556D01*
X811951Y71858D01*
X813865Y68542D01*
X816572Y65835D01*
X819888Y63921D01*
X823586Y62930D01*
X827414D01*
X831112Y63921D01*
X834428Y65835D01*
X837135Y68542D01*
X839049Y71858D01*
X840040Y75556D01*
Y79384D01*
X839273Y82246D01*
X849049Y92021D01*
X849049Y92021D01*
X850428Y94085D01*
X850912Y96520D01*
X850912Y96520D01*
Y150460D01*
X852840D01*
Y167040D01*
D02*
G37*
G36*
X1179750Y96263D02*
Y87550D01*
X1188463D01*
X1188299Y88162D01*
X1186385Y91478D01*
X1183678Y94185D01*
X1180362Y96099D01*
X1179750Y96263D01*
D02*
G37*
G36*
X967660D02*
Y87550D01*
X976373D01*
X976209Y88162D01*
X974295Y91478D01*
X971588Y94185D01*
X968272Y96099D01*
X967660Y96263D01*
D02*
G37*
G36*
X1169750D02*
X1169138Y96099D01*
X1165822Y94185D01*
X1163115Y91478D01*
X1161201Y88162D01*
X1161037Y87550D01*
X1169750D01*
Y96263D01*
D02*
G37*
G36*
X957660D02*
X957048Y96099D01*
X953732Y94185D01*
X951025Y91478D01*
X949111Y88162D01*
X948947Y87550D01*
X957660D01*
Y96263D01*
D02*
G37*
G36*
X35480Y94993D02*
Y86280D01*
X44193D01*
X44029Y86892D01*
X42115Y90208D01*
X39408Y92915D01*
X36092Y94829D01*
X35480Y94993D01*
D02*
G37*
G36*
X25480D02*
X24868Y94829D01*
X21552Y92915D01*
X18845Y90208D01*
X16931Y86892D01*
X16767Y86280D01*
X25480D01*
Y94993D01*
D02*
G37*
G36*
X250110Y93723D02*
Y85010D01*
X258823D01*
X258659Y85622D01*
X256745Y88938D01*
X254038Y91645D01*
X250722Y93559D01*
X250110Y93723D01*
D02*
G37*
G36*
X240110D02*
X239498Y93559D01*
X236182Y91645D01*
X233475Y88938D01*
X231561Y85622D01*
X231397Y85010D01*
X240110D01*
Y93723D01*
D02*
G37*
G36*
X515540Y92453D02*
Y83740D01*
X524253D01*
X524089Y84352D01*
X522175Y87668D01*
X519468Y90375D01*
X516152Y92289D01*
X515540Y92453D01*
D02*
G37*
G36*
X505540D02*
X504928Y92289D01*
X501612Y90375D01*
X498905Y87668D01*
X496991Y84352D01*
X496827Y83740D01*
X505540D01*
Y92453D01*
D02*
G37*
G36*
X728900Y91183D02*
Y82470D01*
X737613D01*
X737449Y83082D01*
X735535Y86398D01*
X732828Y89105D01*
X729512Y91019D01*
X728900Y91183D01*
D02*
G37*
G36*
X718900D02*
X718288Y91019D01*
X714972Y89105D01*
X712265Y86398D01*
X710351Y83082D01*
X710187Y82470D01*
X718900D01*
Y91183D01*
D02*
G37*
G36*
X245110Y80010D02*
D01*
D01*
D01*
D02*
G37*
G36*
X1188463Y77550D02*
X1179750D01*
Y68837D01*
X1180362Y69001D01*
X1183678Y70915D01*
X1186385Y73622D01*
X1188299Y76938D01*
X1188463Y77550D01*
D02*
G37*
G36*
X976373D02*
X967660D01*
Y68837D01*
X968272Y69001D01*
X971588Y70915D01*
X974295Y73622D01*
X976209Y76938D01*
X976373Y77550D01*
D02*
G37*
G36*
X1169750D02*
X1161037D01*
X1161201Y76938D01*
X1163115Y73622D01*
X1165822Y70915D01*
X1169138Y69001D01*
X1169750Y68837D01*
Y77550D01*
D02*
G37*
G36*
X957660D02*
X948947D01*
X949111Y76938D01*
X951025Y73622D01*
X953732Y70915D01*
X957048Y69001D01*
X957660Y68837D01*
Y77550D01*
D02*
G37*
G36*
X1281150Y169580D02*
X1264570D01*
Y153000D01*
X1268243D01*
Y94659D01*
X1267422Y94185D01*
X1264715Y91478D01*
X1262801Y88162D01*
X1261810Y84464D01*
Y80636D01*
X1262801Y76938D01*
X1264715Y73622D01*
X1267422Y70915D01*
X1270738Y69001D01*
X1274436Y68010D01*
X1278264D01*
X1281962Y69001D01*
X1285278Y70915D01*
X1287985Y73622D01*
X1289899Y76938D01*
X1290890Y80636D01*
Y84464D01*
X1289899Y88162D01*
X1287985Y91478D01*
X1285278Y94185D01*
X1281962Y96099D01*
X1280967Y96366D01*
Y153000D01*
X1281150D01*
Y169580D01*
D02*
G37*
G36*
X1227464Y97090D02*
X1223636D01*
X1219938Y96099D01*
X1216622Y94185D01*
X1213915Y91478D01*
X1212001Y88162D01*
X1211010Y84464D01*
Y80636D01*
X1212001Y76938D01*
X1213915Y73622D01*
X1216622Y70915D01*
X1219938Y69001D01*
X1223636Y68010D01*
X1227464D01*
X1231162Y69001D01*
X1234478Y70915D01*
X1237185Y73622D01*
X1239099Y76938D01*
X1240090Y80636D01*
Y84464D01*
X1239099Y88162D01*
X1237185Y91478D01*
X1234478Y94185D01*
X1231162Y96099D01*
X1227464Y97090D01*
D02*
G37*
G36*
X1072870Y167040D02*
X1056290D01*
Y150460D01*
X1058058D01*
Y95758D01*
X1055332Y94185D01*
X1052625Y91478D01*
X1050711Y88162D01*
X1049720Y84464D01*
Y80636D01*
X1050711Y76938D01*
X1052625Y73622D01*
X1055332Y70915D01*
X1058648Y69001D01*
X1062346Y68010D01*
X1066174D01*
X1069872Y69001D01*
X1073188Y70915D01*
X1075895Y73622D01*
X1077809Y76938D01*
X1078800Y80636D01*
Y84464D01*
X1077809Y88162D01*
X1075895Y91478D01*
X1073188Y94185D01*
X1070782Y95574D01*
Y150460D01*
X1072870D01*
Y167040D01*
D02*
G37*
G36*
X1015374Y97090D02*
X1011546D01*
X1007848Y96099D01*
X1004532Y94185D01*
X1001825Y91478D01*
X999911Y88162D01*
X998920Y84464D01*
Y80636D01*
X999911Y76938D01*
X1001825Y73622D01*
X1004532Y70915D01*
X1007848Y69001D01*
X1011546Y68010D01*
X1015374D01*
X1019072Y69001D01*
X1022388Y70915D01*
X1025095Y73622D01*
X1027009Y76938D01*
X1028000Y80636D01*
Y84464D01*
X1027009Y88162D01*
X1025095Y91478D01*
X1022388Y94185D01*
X1019072Y96099D01*
X1015374Y97090D01*
D02*
G37*
G36*
X44193Y76280D02*
X35480D01*
Y67567D01*
X36092Y67731D01*
X39408Y69645D01*
X42115Y72352D01*
X44029Y75668D01*
X44193Y76280D01*
D02*
G37*
G36*
X25480D02*
X16767D01*
X16931Y75668D01*
X18845Y72352D01*
X21552Y69645D01*
X24868Y67731D01*
X25480Y67567D01*
Y76280D01*
D02*
G37*
G36*
X133994Y95820D02*
X130166D01*
X126468Y94829D01*
X123152Y92915D01*
X120445Y90208D01*
X118531Y86892D01*
X117540Y83194D01*
Y79366D01*
X118531Y75668D01*
X120445Y72352D01*
X123152Y69645D01*
X126468Y67731D01*
X130166Y66740D01*
X133994D01*
X137692Y67731D01*
X141008Y69645D01*
X143715Y72352D01*
X145629Y75668D01*
X146620Y79366D01*
Y83194D01*
X145629Y86892D01*
X143715Y90208D01*
X141008Y92915D01*
X137692Y94829D01*
X133994Y95820D01*
D02*
G37*
G36*
X83194D02*
X79366D01*
X75668Y94829D01*
X72352Y92915D01*
X69645Y90208D01*
X67731Y86892D01*
X66740Y83194D01*
Y79366D01*
X67731Y75668D01*
X69645Y72352D01*
X72352Y69645D01*
X75668Y67731D01*
X79366Y66740D01*
X83194D01*
X86892Y67731D01*
X90208Y69645D01*
X92915Y72352D01*
X94829Y75668D01*
X95820Y79366D01*
Y83194D01*
X94829Y86892D01*
X92915Y90208D01*
X90208Y92915D01*
X86892Y94829D01*
X83194Y95820D01*
D02*
G37*
G36*
X258823Y75010D02*
X250110D01*
Y66297D01*
X250722Y66461D01*
X254038Y68375D01*
X256745Y71082D01*
X258659Y74398D01*
X258823Y75010D01*
D02*
G37*
G36*
X240110D02*
X231397D01*
X231561Y74398D01*
X233475Y71082D01*
X236182Y68375D01*
X239498Y66461D01*
X240110Y66297D01*
Y75010D01*
D02*
G37*
G36*
X355950Y164500D02*
X339370D01*
Y147920D01*
X340823D01*
Y93400D01*
X337782Y91645D01*
X335075Y88938D01*
X333161Y85622D01*
X332170Y81924D01*
Y78096D01*
X333161Y74398D01*
X335075Y71082D01*
X337782Y68375D01*
X341098Y66461D01*
X344796Y65470D01*
X348624D01*
X352322Y66461D01*
X355638Y68375D01*
X358345Y71082D01*
X360259Y74398D01*
X361250Y78096D01*
Y81924D01*
X360259Y85622D01*
X358345Y88938D01*
X355638Y91645D01*
X353547Y92852D01*
Y147920D01*
X355950D01*
Y164500D01*
D02*
G37*
G36*
X297824Y94550D02*
X293996D01*
X290298Y93559D01*
X286982Y91645D01*
X284275Y88938D01*
X282361Y85622D01*
X281370Y81924D01*
Y78096D01*
X282361Y74398D01*
X284275Y71082D01*
X286982Y68375D01*
X290298Y66461D01*
X293996Y65470D01*
X297824D01*
X301522Y66461D01*
X304838Y68375D01*
X307545Y71082D01*
X309459Y74398D01*
X310450Y78096D01*
Y81924D01*
X309459Y85622D01*
X307545Y88938D01*
X304838Y91645D01*
X301522Y93559D01*
X297824Y94550D01*
D02*
G37*
G36*
X524253Y73740D02*
X515540D01*
Y65027D01*
X516152Y65191D01*
X519468Y67105D01*
X522175Y69812D01*
X524089Y73128D01*
X524253Y73740D01*
D02*
G37*
G36*
X505540D02*
X496827D01*
X496991Y73128D01*
X498905Y69812D01*
X501612Y67105D01*
X504928Y65191D01*
X505540Y65027D01*
Y73740D01*
D02*
G37*
G36*
X1444634Y93280D02*
X1440806D01*
X1437108Y92289D01*
X1433792Y90375D01*
X1431085Y87668D01*
X1429171Y84352D01*
X1428180Y80654D01*
Y76826D01*
X1429171Y73128D01*
X1431085Y69812D01*
X1433792Y67105D01*
X1437108Y65191D01*
X1440806Y64200D01*
X1444634D01*
X1448332Y65191D01*
X1451648Y67105D01*
X1454355Y69812D01*
X1456269Y73128D01*
X1457260Y76826D01*
Y80654D01*
X1456269Y84352D01*
X1454355Y87668D01*
X1451648Y90375D01*
X1448332Y92289D01*
X1444634Y93280D01*
D02*
G37*
G36*
X563254D02*
X559426D01*
X555728Y92289D01*
X552412Y90375D01*
X549705Y87668D01*
X547791Y84352D01*
X546800Y80654D01*
Y76826D01*
X547791Y73128D01*
X549705Y69812D01*
X552412Y67105D01*
X555728Y65191D01*
X559426Y64200D01*
X563254D01*
X566952Y65191D01*
X570268Y67105D01*
X572975Y69812D01*
X574889Y73128D01*
X575880Y76826D01*
Y80654D01*
X574889Y84352D01*
X572975Y87668D01*
X570268Y90375D01*
X566952Y92289D01*
X563254Y93280D01*
D02*
G37*
G36*
X737613Y72470D02*
X728900D01*
Y63757D01*
X729512Y63921D01*
X732828Y65835D01*
X735535Y68542D01*
X737449Y71858D01*
X737613Y72470D01*
D02*
G37*
G36*
X718900D02*
X710187D01*
X710351Y71858D01*
X712265Y68542D01*
X714972Y65835D01*
X718288Y63921D01*
X718900Y63757D01*
Y72470D01*
D02*
G37*
G36*
X776614Y92010D02*
X772786D01*
X769088Y91019D01*
X765772Y89105D01*
X763065Y86398D01*
X761151Y83082D01*
X760160Y79384D01*
Y75556D01*
X761151Y71858D01*
X763065Y68542D01*
X765772Y65835D01*
X769088Y63921D01*
X772786Y62930D01*
X776614D01*
X780312Y63921D01*
X783628Y65835D01*
X786335Y68542D01*
X788249Y71858D01*
X789240Y75556D01*
Y79384D01*
X788249Y83082D01*
X786335Y86398D01*
X783628Y89105D01*
X780312Y91019D01*
X776614Y92010D01*
D02*
G37*
G36*
X1447720Y41653D02*
Y32940D01*
X1456433D01*
X1456269Y33552D01*
X1454355Y36868D01*
X1451648Y39575D01*
X1448332Y41489D01*
X1447720Y41653D01*
D02*
G37*
G36*
X1437720D02*
X1437108Y41489D01*
X1433792Y39575D01*
X1431085Y36868D01*
X1429171Y33552D01*
X1429007Y32940D01*
X1437720D01*
Y41653D01*
D02*
G37*
G36*
X1456433Y22940D02*
X1447720D01*
Y14227D01*
X1448332Y14391D01*
X1451648Y16305D01*
X1454355Y19012D01*
X1456269Y22328D01*
X1456433Y22940D01*
D02*
G37*
G36*
X1437720D02*
X1429007D01*
X1429171Y22328D01*
X1431085Y19012D01*
X1433792Y16305D01*
X1437108Y14391D01*
X1437720Y14227D01*
Y22940D01*
D02*
G37*
%LPD*%
D11*
X50925Y590425D02*
X70955D01*
X50800Y590550D02*
X50925Y590425D01*
X70955D02*
X71080Y590300D01*
X50925Y654175D02*
X70955D01*
X50800Y654050D02*
X50925Y654175D01*
X70955D02*
X71080Y654300D01*
D12*
X391160Y843280D02*
X796290D01*
X638810Y778510D02*
X651510Y791210D01*
X638810Y745490D02*
Y778510D01*
X651510Y791210D02*
X766620D01*
X441960Y711200D02*
X621030D01*
X651510Y741680D02*
Y756920D01*
X621030Y711200D02*
X651510Y741680D01*
X453390Y722630D02*
X615950D01*
X638810Y745490D01*
X500380Y833120D02*
X789940D01*
X397510D02*
X500380D01*
X499110Y760730D02*
X557697D01*
X555620Y742950D02*
X558505Y745835D01*
X357480Y853440D02*
X358140Y852780D01*
X356210Y854710D02*
X357480Y853440D01*
X490220Y822960D02*
X500380Y833120D01*
X290830Y649590D02*
Y681990D01*
X307340Y698500D02*
X429260D01*
X290830Y681990D02*
X307340Y698500D01*
X300990Y711200D02*
X441960D01*
X419100Y734060D02*
X441960Y711200D01*
X278130Y688340D02*
X300990Y711200D01*
X357480Y853440D02*
X368300D01*
X358140Y833760D02*
Y852780D01*
X802640Y655320D02*
Y820420D01*
X789940Y833120D02*
X802640Y820420D01*
X819150Y662940D02*
Y820420D01*
X796290Y843280D02*
X819150Y820420D01*
X358140Y810260D02*
X391160Y843280D01*
X490220Y769620D02*
Y822960D01*
Y769620D02*
X499110Y760730D01*
X431800Y744220D02*
X453390Y722630D01*
X431800Y744220D02*
Y774700D01*
X278130Y649590D02*
Y688340D01*
X506095Y782955D02*
X558825D01*
X559460Y783590D01*
X505460Y782320D02*
X506095Y782955D01*
X651510Y756920D02*
X660400Y765810D01*
X766620D01*
X558505Y745835D02*
Y746760D01*
X419100Y734060D02*
Y787400D01*
X431800Y800100D01*
X353060Y787400D02*
X359410Y781050D01*
X353060Y787400D02*
X359410Y793750D01*
Y808990D01*
X301498Y787400D02*
X353060D01*
X358140Y810260D02*
X359410Y808990D01*
Y764540D02*
Y781050D01*
X301498Y787400D02*
Y793750D01*
Y781050D02*
Y787400D01*
X81890Y542290D02*
X84430Y544830D01*
X48260Y604520D02*
Y640080D01*
X105410Y544830D02*
X120170Y530070D01*
X84430Y544830D02*
X105410D01*
X120170Y530070D02*
X186420D01*
X188940Y527550D01*
Y523240D02*
Y527550D01*
X83820Y544220D02*
Y591917D01*
X78387Y597350D02*
X83820Y591917D01*
X72030Y597350D02*
X78387D01*
X71080Y598300D02*
X72030Y597350D01*
X54480Y646300D02*
X71080D01*
X48260Y640080D02*
X54480Y646300D01*
X48260Y604520D02*
X54480Y598300D01*
X71080D01*
D15*
X755650Y444500D02*
X918210D01*
X732790Y467360D02*
Y549910D01*
Y467360D02*
X755650Y444500D01*
X762000Y450850D02*
X900430D01*
X741680Y471170D02*
X762000Y450850D01*
X741680Y471170D02*
Y525780D01*
X926660Y477080D02*
X929830D01*
X900430Y450850D02*
X923290Y473710D01*
Y473710D01*
X926660Y477080D01*
X929830D02*
X934080Y481330D01*
X918210Y444500D02*
X930150Y456440D01*
X899160Y458470D02*
X911860Y471170D01*
X764540Y458470D02*
X899160D01*
X750570Y472440D02*
X764540Y458470D01*
X911860Y471170D02*
Y494030D01*
X904240Y473710D02*
Y510540D01*
X772160Y466090D02*
X896620D01*
X904240Y473710D01*
X766620Y471630D02*
X772160Y466090D01*
X516370Y811890D02*
X579870D01*
X845820Y638810D02*
X878840D01*
X890270Y650240D01*
Y672490D01*
X873760Y562610D02*
X881380Y570230D01*
X845820Y562610D02*
X873760D01*
X881380Y570230D02*
Y596900D01*
X891540Y607060D01*
X886460Y580390D02*
X892810Y586740D01*
X878840Y535940D02*
X886460Y543560D01*
Y580390D01*
X892810Y586740D02*
X934400D01*
X843280Y535940D02*
X878840D01*
X891540Y607060D02*
X934400D01*
X891540Y557530D02*
X900430Y566420D01*
X891540Y515620D02*
Y557530D01*
X900430Y566420D02*
X934080D01*
X845820Y511810D02*
X887730D01*
X891540Y515620D01*
X897890Y538480D02*
X904240Y544830D01*
X891540Y483870D02*
X897890Y490220D01*
Y538480D01*
X844550Y483870D02*
X844717Y484037D01*
X853610D02*
X853777Y483870D01*
X844717Y484037D02*
X853610D01*
X853777Y483870D02*
X891540D01*
X904240Y544830D02*
X934400D01*
X913130Y519430D02*
X924560D01*
X904240Y510540D02*
X913130Y519430D01*
X917967Y500137D02*
X931297D01*
X911860Y494030D02*
X917967Y500137D01*
X927575Y519430D02*
X930590D01*
X924560D02*
X927575D01*
X930150Y460250D02*
X932180Y462280D01*
X930150Y456440D02*
Y460250D01*
X930590Y519430D02*
X934400Y523240D01*
X931297Y500137D02*
X934080Y502920D01*
X766620Y471630D02*
Y486410D01*
X750570Y472440D02*
Y495760D01*
X766620Y511810D01*
X741680Y525780D02*
X753110Y537210D01*
X766620D01*
X745490Y562610D02*
X766620D01*
X732790Y549910D02*
X745490Y562610D01*
X582050Y814070D02*
X764080Y814070D01*
X766620Y816610D01*
X578460Y783590D02*
X580390Y781660D01*
Y762000D02*
Y781660D01*
X579870Y785000D02*
Y811890D01*
X578460Y783590D02*
X579870Y785000D01*
D82*
X516890Y699770D02*
D03*
X493390D02*
D03*
X517210Y734060D02*
D03*
X493710D02*
D03*
X580710Y654050D02*
D03*
X557210D02*
D03*
X580710Y675640D02*
D03*
X557210D02*
D03*
X580390Y697230D02*
D03*
X556890D02*
D03*
X580390Y762000D02*
D03*
X556890D02*
D03*
X934400Y461010D02*
D03*
X957900D02*
D03*
X934400Y544830D02*
D03*
X957900D02*
D03*
X934080Y481330D02*
D03*
X957580D02*
D03*
X934400Y523240D02*
D03*
X957900D02*
D03*
X934080Y502920D02*
D03*
X957580D02*
D03*
X934400Y586740D02*
D03*
X957900D02*
D03*
X934400Y607060D02*
D03*
X957900D02*
D03*
X934080Y566420D02*
D03*
X957580D02*
D03*
X1095060Y650240D02*
D03*
X1071560D02*
D03*
X1249360Y161290D02*
D03*
X1272860D02*
D03*
X637540Y157480D02*
D03*
X614040D02*
D03*
X821050Y158750D02*
D03*
X844550D02*
D03*
X1072830Y561340D02*
D03*
X1096330D02*
D03*
X1072830Y511810D02*
D03*
X1096330D02*
D03*
X1237300Y707390D02*
D03*
X1213800D02*
D03*
X1073150Y449580D02*
D03*
X1096650D02*
D03*
X1073150Y398780D02*
D03*
X1096650D02*
D03*
X1041080Y158750D02*
D03*
X1064580D02*
D03*
X371160Y156210D02*
D03*
X347660D02*
D03*
X240350Y160020D02*
D03*
X216850D02*
D03*
X144150Y678180D02*
D03*
X120650D02*
D03*
X120330Y571500D02*
D03*
X143830D02*
D03*
X120650Y656590D02*
D03*
X144150D02*
D03*
X120330Y593090D02*
D03*
X143830D02*
D03*
X120650Y635000D02*
D03*
X144150D02*
D03*
X120330Y614680D02*
D03*
X143830D02*
D03*
X317180Y387350D02*
D03*
X340680D02*
D03*
X187010Y410210D02*
D03*
X163510D02*
D03*
X187010Y389890D02*
D03*
X163510D02*
D03*
X187010Y473710D02*
D03*
X163510D02*
D03*
Y453390D02*
D03*
X187010D02*
D03*
X379410Y271780D02*
D03*
X402910D02*
D03*
D83*
X303530Y649590D02*
D03*
X290830D02*
D03*
X278130D02*
D03*
X265430D02*
D03*
X252730D02*
D03*
X240030D02*
D03*
X227330D02*
D03*
X214630D02*
D03*
Y600090D02*
D03*
X227330D02*
D03*
X240030D02*
D03*
X252730D02*
D03*
X265430D02*
D03*
X278130D02*
D03*
X290830D02*
D03*
X303530D02*
D03*
D84*
X358140Y810260D02*
D03*
Y833760D02*
D03*
X109220Y220660D02*
D03*
Y244160D02*
D03*
X219710Y751520D02*
D03*
Y775020D02*
D03*
X132080Y775650D02*
D03*
Y799150D02*
D03*
X219710Y799780D02*
D03*
X335280Y833760D02*
D03*
Y810260D02*
D03*
X336550Y741040D02*
D03*
Y764540D02*
D03*
X359410Y741040D02*
D03*
Y764540D02*
D03*
X219710Y823280D02*
D03*
X698500Y381320D02*
D03*
Y357820D02*
D03*
X648970Y381320D02*
D03*
Y357820D02*
D03*
X821690Y381320D02*
D03*
Y357820D02*
D03*
X770890Y381320D02*
D03*
Y357820D02*
D03*
X1363980Y771840D02*
D03*
Y795340D02*
D03*
X1360170Y554670D02*
D03*
Y578170D02*
D03*
Y367350D02*
D03*
Y343850D02*
D03*
X1358900Y198760D02*
D03*
Y175260D02*
D03*
X894080Y381320D02*
D03*
Y357820D02*
D03*
X944880Y381320D02*
D03*
Y357820D02*
D03*
X243840Y520380D02*
D03*
Y543880D02*
D03*
D85*
X337210Y854710D02*
D03*
X356210D02*
D03*
X268630Y836930D02*
D03*
X287630D02*
D03*
X560120Y741680D02*
D03*
X579120D02*
D03*
X578460Y783590D02*
D03*
X559460D02*
D03*
X262230Y680720D02*
D03*
X243230D02*
D03*
X954990Y668020D02*
D03*
X935990D02*
D03*
X954990Y692150D02*
D03*
X935990D02*
D03*
X954990Y642620D02*
D03*
X935990D02*
D03*
X282600Y570230D02*
D03*
X301600D02*
D03*
X62890Y542290D02*
D03*
X81890D02*
D03*
X337770Y363220D02*
D03*
X318770D02*
D03*
X337770Y336550D02*
D03*
X318770D02*
D03*
X186030Y431800D02*
D03*
X167030D02*
D03*
D86*
X339230Y298820D02*
D03*
X316230D02*
D03*
X293230D02*
D03*
D87*
X170180Y787400D02*
D03*
X192180Y796900D02*
D03*
Y777900D02*
D03*
X109650Y414630D02*
D03*
Y395630D02*
D03*
X131650Y405130D02*
D03*
D88*
X890270Y691490D02*
D03*
Y672490D02*
D03*
X654050Y612140D02*
D03*
Y631140D02*
D03*
Y589890D02*
D03*
Y570890D02*
D03*
X218440Y523900D02*
D03*
Y542900D02*
D03*
X83820Y415900D02*
D03*
Y396900D02*
D03*
X256540Y306680D02*
D03*
Y287680D02*
D03*
X229870Y306680D02*
D03*
Y287680D02*
D03*
D89*
X695960Y648210D02*
D03*
Y553210D02*
D03*
D90*
X252222Y781050D02*
D03*
Y793750D02*
D03*
Y768350D02*
D03*
Y806450D02*
D03*
X301498D02*
D03*
Y793750D02*
D03*
Y781050D02*
D03*
Y768350D02*
D03*
D91*
X71080Y624800D02*
D03*
Y619800D02*
D03*
Y614800D02*
D03*
Y629800D02*
D03*
Y634800D02*
D03*
Y609800D02*
D03*
Y604800D02*
D03*
Y639800D02*
D03*
D92*
Y646300D02*
D03*
Y598300D02*
D03*
Y590300D02*
D03*
Y654300D02*
D03*
D93*
X62230Y519430D02*
D03*
X79430D02*
D03*
D94*
X191770Y543270D02*
D03*
Y526070D02*
D03*
D95*
X189230Y289560D02*
D03*
Y330560D02*
D03*
D96*
X403450Y297180D02*
D03*
X383950D02*
D03*
D97*
X111060Y435610D02*
D03*
Y448310D02*
D03*
Y461010D02*
D03*
Y473710D02*
D03*
X61660D02*
D03*
Y461010D02*
D03*
Y448310D02*
D03*
Y435610D02*
D03*
D98*
X190660Y497840D02*
D03*
X162560D02*
D03*
D99*
X577850Y652780D02*
X619760D01*
X668020Y701040D01*
X755190D01*
X626110Y674370D02*
X664210Y712470D01*
X758457D01*
X579896Y674370D02*
X626110D01*
X580390Y697230D02*
X632460D01*
X664210Y728980D02*
X755190D01*
X632460Y697230D02*
X664210Y728980D01*
X579120Y741680D02*
X598170D01*
X514870Y856890D02*
X579870D01*
X153670Y787400D02*
X170180D01*
X80355Y518505D02*
X104360D01*
X107245Y515620D02*
X109220D01*
Y474010D02*
X109520Y473710D01*
X104360Y518505D02*
X107245Y515620D01*
X109520Y473710D02*
X111060D01*
X79430Y519430D02*
X80355Y518505D01*
X934990Y642620D02*
X936760Y640850D01*
X265430Y649590D02*
Y675250D01*
X260960Y679720D02*
X265430Y675250D01*
X260960Y679720D02*
Y680720D01*
X271460Y822010D02*
X276860Y816610D01*
X802640Y624840D02*
X814070Y613410D01*
X793750Y664210D02*
X802640Y655320D01*
X177497Y230173D02*
X182880Y224790D01*
X177497Y230173D02*
Y234647D01*
X182880Y240030D01*
X337770Y363220D02*
X359410D01*
X234216Y781050D02*
X252222D01*
X231236Y778070D02*
X234216Y781050D01*
X222760Y778070D02*
X231236D01*
X219710Y775020D02*
X222760Y778070D01*
X234216Y793750D02*
X252222D01*
X231236Y796730D02*
X234216Y793750D01*
X222760Y796730D02*
X231236D01*
X219710Y799780D02*
X222760Y796730D01*
X845820Y613410D02*
X881380D01*
X910590Y642620D02*
X934990D01*
X881380Y613410D02*
X910590Y642620D01*
X802640Y624840D02*
Y655320D01*
X766620Y664210D02*
X793750D01*
X814070Y613410D02*
X845820D01*
X935990Y707390D02*
X942340Y713740D01*
X1064260D01*
X935990Y668020D02*
Y692150D01*
Y707390D01*
X1064260Y713740D02*
X1071560Y706440D01*
Y650240D02*
Y706440D01*
X1071720Y633890D02*
X1071880Y633730D01*
X1071720Y633890D02*
Y650080D01*
X935990Y642620D02*
Y668020D01*
X1100330Y647190D02*
X1116106Y631414D01*
X1096520Y647190D02*
X1100330D01*
X1116106Y631414D02*
X1121186D01*
X1093470Y650240D02*
X1096520Y647190D01*
X1121186Y631414D02*
X1122680Y629920D01*
X1093470Y648650D02*
X1095060Y650240D01*
X1093470Y603250D02*
Y648650D01*
X1088390Y598170D02*
X1093470Y603250D01*
X957900Y607060D02*
X998220D01*
X1007110Y598170D02*
X1088390D01*
X998220Y607060D02*
X1007110Y598170D01*
X957900Y586740D02*
X1085850D01*
X1097280Y575310D01*
X1012190Y566420D02*
X1046480Y532130D01*
X957580Y566420D02*
X1012190D01*
X1046480Y532130D02*
X1087120D01*
X1095060Y449580D02*
Y463230D01*
X1026795Y490855D02*
Y535305D01*
X1003300Y523240D02*
X1012190Y514350D01*
Y438150D02*
X1028700Y421640D01*
X1012190Y438150D02*
Y514350D01*
X1095060Y398780D02*
Y409890D01*
X1028700Y421640D02*
X1083310D01*
X1095060Y409890D01*
X995680Y369570D02*
Y492760D01*
X983930Y357820D02*
X995680Y369570D01*
X985520Y502920D02*
X995680Y492760D01*
X944880Y357820D02*
X983930D01*
X957580Y502920D02*
X985520D01*
X979170Y415290D02*
Y476250D01*
X970280Y406400D02*
X979170Y415290D01*
X974090Y481330D02*
X979170Y476250D01*
X959010Y459900D02*
X960120Y458790D01*
X957900Y461010D02*
X959010Y459900D01*
Y428150D02*
Y459900D01*
X742760Y360870D02*
X767840D01*
X730250Y373380D02*
X742760Y360870D01*
X730250Y373380D02*
Y419100D01*
X709930Y439420D02*
X730250Y419100D01*
X570230Y439420D02*
X709930D01*
X755190Y728980D02*
X766620Y740410D01*
X759083Y713097D02*
X764707D01*
X766620Y715010D01*
X758457Y712470D02*
X759083Y713097D01*
X713740Y586740D02*
X767080D01*
X713740Y612140D02*
X768350D01*
X755190Y701040D02*
X766620Y689610D01*
X557210Y452440D02*
X570230Y439420D01*
X557210Y452440D02*
Y654050D01*
X539750Y440690D02*
Y668020D01*
Y440690D02*
X560070Y420370D01*
X662940D01*
X675640Y407670D01*
Y373380D02*
Y407670D01*
X524510Y378460D02*
X542290Y360680D01*
X646110D01*
X524510Y378460D02*
Y680720D01*
X675640Y373380D02*
X688150Y360870D01*
X524510Y680720D02*
X539750Y695960D01*
X556260D01*
X539750Y668020D02*
X546100Y674370D01*
X556260D01*
X705010Y578010D02*
X713740Y586740D01*
X703260Y622620D02*
X713740Y612140D01*
X703260Y578010D02*
X705010D01*
X695960Y570710D02*
X703260Y578010D01*
Y622620D02*
Y631140D01*
X695960Y638440D02*
Y648210D01*
X688660Y631140D02*
X695960Y638440D01*
X703260Y631140D01*
X654050D02*
X688660D01*
X695960Y553210D02*
Y563590D01*
Y570710D01*
X654050Y570890D02*
X688660D01*
X695960Y563590D01*
X558505Y746760D02*
Y760385D01*
X556890Y762000D02*
X558505Y760385D01*
X1096650Y398780D02*
X1123950D01*
X1095060D02*
X1096650D01*
Y449580D02*
X1123950D01*
X1095060D02*
X1096650D01*
X1096330Y511810D02*
X1096965Y511175D01*
X1093590Y514550D02*
X1096330Y511810D01*
X861060Y419100D02*
X949960D01*
X959010Y428150D01*
X1026795Y490855D02*
X1047750Y469900D01*
X957580Y481330D02*
X974090D01*
X957900Y523240D02*
X1003300D01*
X957900Y544830D02*
X1017270D01*
X1026795Y535305D01*
X339090Y298960D02*
X339230Y298820D01*
X276860Y750885D02*
Y816610D01*
Y750885D02*
X286705Y741040D01*
X336550D01*
X252222Y768350D02*
X259395D01*
X276860Y750885D01*
X265430Y600090D02*
Y619760D01*
X316230Y298820D02*
X317500Y300090D01*
X135393Y419873D02*
X135890Y420370D01*
X135393Y407430D02*
Y419873D01*
X131650Y405130D02*
X133092D01*
X135393Y407430D01*
X135890Y497840D02*
X162560D01*
X165270Y430040D02*
X167030Y431800D01*
X165270Y411970D02*
Y430040D01*
X163510Y410210D02*
X165270Y411970D01*
X163510Y389890D02*
Y410210D01*
Y453390D02*
Y473710D01*
X243350Y543390D02*
X243840Y543880D01*
X218930Y543390D02*
X243350D01*
X218440Y542900D02*
X218930Y543390D01*
X218255Y543085D02*
X218440Y542900D01*
X191955Y543085D02*
X218255D01*
X191770Y543270D02*
X191955Y543085D01*
X133350Y448310D02*
X149860Y431800D01*
X167030D01*
X111060Y448310D02*
X133350D01*
X160970Y450850D02*
X163510Y453390D01*
X149860Y450850D02*
X160970D01*
X139700Y461010D02*
X149860Y450850D01*
X111060Y461010D02*
X139700D01*
X109650Y414630D02*
Y435310D01*
X109950Y435610D01*
X111060D01*
X276860Y816610D02*
Y820420D01*
X226060Y822010D02*
X271460D01*
X335280Y833760D02*
X358140D01*
X290200D02*
X335280D01*
X276860Y820420D02*
X290200Y833760D01*
X336550Y741040D02*
X359410D01*
X301600Y570230D02*
X303230Y571860D01*
Y599790D01*
X303530Y600090D01*
X301600Y570230D02*
X304800Y567030D01*
Y537210D02*
Y567030D01*
X287020Y519430D02*
X304800Y537210D01*
X261620Y519430D02*
X287020D01*
X261145Y519905D02*
X261620Y519430D01*
X244315Y519905D02*
X261145D01*
X243840Y520380D02*
X244315Y519905D01*
X930910Y406400D02*
X970280D01*
X915670Y391160D02*
X930910Y406400D01*
X840740Y398780D02*
X861060Y419100D01*
X340680Y387350D02*
X358140D01*
X359410Y388620D01*
X187010Y389890D02*
X260350D01*
X61260Y435610D02*
X61660D01*
X60960Y435310D02*
X61260Y435610D01*
X60960Y406400D02*
Y435310D01*
Y406400D02*
X70460Y396900D01*
X83820D01*
X111650Y395630D02*
X131360Y375920D01*
X175260D02*
X183960Y384620D01*
X131360Y375920D02*
X175260D01*
X183960Y386840D02*
X187010Y389890D01*
X183960Y384620D02*
Y386840D01*
X109650Y395630D02*
X111650D01*
X109015Y396265D02*
X109650Y395630D01*
X84455Y396265D02*
X109015D01*
X83820Y396900D02*
X84455Y396265D01*
X229870Y306680D02*
X256540D01*
X335280Y800100D02*
Y810260D01*
X336550Y764540D02*
Y773430D01*
X311900Y764540D02*
X336550D01*
X301498Y768350D02*
X308671D01*
X308704Y768317D01*
Y767736D02*
Y768317D01*
Y767736D02*
X311900Y764540D01*
X301498Y806450D02*
X308671D01*
X308704Y806483D02*
Y807064D01*
X311900Y810260D02*
X335280D01*
X308671Y806450D02*
X308704Y806483D01*
Y807064D02*
X311900Y810260D01*
X191215Y523240D02*
Y525515D01*
Y498395D02*
Y523240D01*
X52070Y530860D02*
X62560D01*
Y541960D01*
X62230Y519430D02*
X62560Y519760D01*
Y530860D01*
Y541960D02*
X62890Y542290D01*
X190660Y497840D02*
X191215Y498395D01*
Y525515D02*
X191770Y526070D01*
X646110Y360680D02*
X648970Y357820D01*
X688150Y360870D02*
X695450D01*
X698500Y357820D01*
X767840Y360870D02*
X770890Y357820D01*
X647700Y328930D02*
X648335Y329565D01*
Y357185D01*
X648970Y357820D01*
X698500Y328930D02*
Y357820D01*
X770890Y328930D02*
Y357820D01*
X821690Y328930D02*
Y357820D01*
X894080Y328930D02*
Y357820D01*
X835340D02*
X840740Y363220D01*
X821690Y357820D02*
X835340D01*
X840740Y363220D02*
Y398780D01*
X915670Y363220D02*
Y391160D01*
X910270Y357820D02*
X915670Y363220D01*
X894080Y357820D02*
X910270D01*
X944880Y328930D02*
Y357820D01*
X1088390Y469900D02*
X1095060Y463230D01*
X1047750Y469900D02*
X1088390D01*
X1093590Y514550D02*
Y525660D01*
X1087120Y532130D02*
X1093590Y525660D01*
X1097280Y562290D02*
Y575310D01*
X1096330Y561340D02*
X1097280Y562290D01*
X1096330Y561340D02*
X1123950D01*
X1123315Y511175D02*
X1123950Y510540D01*
X1096965Y511175D02*
X1123315D01*
X1480820Y629920D02*
X1492250D01*
X383540Y35560D02*
X397510Y49530D01*
X1480820Y393700D02*
X1492250D01*
X655320Y35560D02*
Y41910D01*
X662940Y49530D01*
X655320Y35560D02*
X662940Y43180D01*
Y49530D01*
X397510Y43180D02*
X405130Y35560D01*
X397510Y43180D02*
Y49530D01*
X316630Y427990D02*
X316905Y427715D01*
Y387625D02*
Y427715D01*
Y387625D02*
X317180Y387350D01*
X341155Y427515D02*
X341630Y427990D01*
X341155Y387825D02*
Y427515D01*
X340680Y387350D02*
X341155Y387825D01*
X317180Y387350D02*
X317975Y386555D01*
Y364015D02*
Y386555D01*
Y364015D02*
X318770Y363220D01*
Y336550D02*
Y363220D01*
X317500Y335280D02*
X318770Y336550D01*
X317500Y300090D02*
Y335280D01*
X403180Y296910D02*
X403450Y297180D01*
X403180Y272050D02*
Y296910D01*
X402910Y271780D02*
X403180Y272050D01*
X1480820Y629920D02*
X1488440Y637540D01*
X1480820Y629920D02*
X1488440Y622300D01*
X1480820Y393700D02*
X1488440Y401320D01*
X1480820Y393700D02*
X1488440Y386080D01*
X1115060Y49530D02*
X1122680Y41910D01*
X1107440D02*
X1115060Y49530D01*
X876300Y48260D02*
X883920Y40640D01*
X868680D02*
X876300Y48260D01*
X662940Y49530D02*
X676910Y35560D01*
X405130D02*
Y41910D01*
X397510Y49530D02*
X405130Y41910D01*
X382270Y35560D02*
X383540D01*
D100*
X284480Y189230D02*
X615950D01*
X255270Y160020D02*
X284480Y189230D01*
X615950D02*
X646430Y219710D01*
X655320Y172720D02*
X698500Y215900D01*
X371160Y156210D02*
X387670Y172720D01*
X655320D01*
X646430Y219710D02*
Y254000D01*
X240350Y160020D02*
X255270D01*
X960120Y218440D02*
X1215390D01*
X1249360Y184470D01*
Y161290D02*
Y184470D01*
X698500Y215900D02*
Y252730D01*
X944880Y233680D02*
Y252730D01*
Y233680D02*
X960120Y218440D01*
X915670Y158750D02*
X1041080D01*
X894080Y180340D02*
X915670Y158750D01*
X894080Y180340D02*
Y252730D01*
X821370Y252410D02*
X821690Y252730D01*
X821370Y159070D02*
Y252410D01*
X821050Y158750D02*
X821370Y159070D01*
X770890Y194310D02*
Y252730D01*
X734060Y157480D02*
X770890Y194310D01*
X637540Y157480D02*
X734060D01*
D101*
X300990Y271780D02*
X379410D01*
X294640Y278130D02*
X300990Y271780D01*
X202860Y775020D02*
X219710D01*
X201280Y776600D02*
X202860Y775020D01*
X193480Y776600D02*
X201280D01*
X192180Y777900D02*
X193480Y776600D01*
X202860Y799780D02*
X219710D01*
X201280Y798200D02*
X202860Y799780D01*
X193480Y798200D02*
X201280D01*
X192180Y796900D02*
X193480Y798200D01*
X183170Y770890D02*
X188880Y776600D01*
X136840Y770890D02*
X183170D01*
X132080Y775650D02*
X136840Y770890D01*
X188880Y776600D02*
X190880D01*
X192180Y777900D01*
X136840Y803910D02*
X183170D01*
X188880Y798200D02*
X190880D01*
X192180Y796900D01*
X132080Y799150D02*
X136840Y803910D01*
X183170D02*
X188880Y798200D01*
X57150Y811785D02*
Y812800D01*
Y811785D02*
X69785Y799150D01*
X132080D01*
X65450Y771315D02*
X69785Y775650D01*
X132080D01*
X65450Y770300D02*
Y771315D01*
X57150Y762000D02*
X65450Y770300D01*
X1115060Y49530D02*
Y82550D01*
Y35560D02*
Y49530D01*
X187010Y453390D02*
X266700D01*
X281940Y438150D01*
Y291053D02*
Y438150D01*
X1362710Y614680D02*
Y770570D01*
X1224280Y585470D02*
X1333500D01*
X1362710Y614680D01*
X1200150Y561340D02*
X1224280Y585470D01*
X1362710Y770570D02*
X1363980Y771840D01*
X1237300Y640400D02*
Y707390D01*
X1216522Y628650D02*
X1225550D01*
X1237300Y640400D01*
X1271900Y198760D02*
X1358900D01*
X1200150Y270510D02*
Y398780D01*
Y270510D02*
X1271900Y198760D01*
X1360170Y530860D02*
Y554670D01*
X1200150Y510540D02*
X1339850D01*
X1360170Y530860D01*
X1200150Y449580D02*
X1339850D01*
X1360170Y367350D02*
Y429260D01*
X1339850Y449580D02*
X1360170Y429260D01*
X1198880Y629920D02*
X1199991Y628809D01*
X1216363D01*
X1216522Y628650D01*
X1358900Y175260D02*
X1359535Y174625D01*
Y156845D02*
Y174625D01*
Y156845D02*
X1360170Y156210D01*
X1441450Y629920D02*
X1480820D01*
X1443990Y393700D02*
X1480820D01*
X876300Y48260D02*
Y77470D01*
X662940Y49530D02*
Y78740D01*
X397510Y49530D02*
Y80010D01*
X346710D02*
X347185Y80485D01*
Y155735D01*
X347660Y156210D01*
X612140Y78740D02*
X613090Y79690D01*
Y156530D01*
X614040Y157480D01*
X825500Y77470D02*
X844550Y96520D01*
Y158750D01*
X1064260Y82550D02*
X1064420Y82710D01*
Y158590D01*
X1064580Y158750D01*
X1274605Y84295D02*
X1276350Y82550D01*
X1274605Y84295D02*
Y159545D01*
X1272860Y161290D02*
X1274605Y159545D01*
X1443515Y343375D02*
X1443990Y342900D01*
X1360645Y343375D02*
X1443515D01*
X1360170Y343850D02*
X1360645Y343375D01*
X1440975Y578645D02*
X1441450Y579120D01*
X1360645Y578645D02*
X1440975D01*
X1360170Y578170D02*
X1360645Y578645D01*
X1440655Y794545D02*
X1441450Y793750D01*
X1364775Y794545D02*
X1440655D01*
X1363980Y795340D02*
X1364775Y794545D01*
X1213800Y707390D02*
X1214595Y708185D01*
Y790415D01*
X1215390Y791210D01*
D102*
X216850Y159130D02*
X217010Y158970D01*
X215900Y119003D02*
X217010Y120113D01*
X215900Y118110D02*
Y119003D01*
X217010Y120113D02*
Y158970D01*
X216850Y159130D02*
Y160020D01*
D103*
X182880Y240030D02*
Y289560D01*
Y224790D02*
Y240030D01*
Y110490D02*
Y224790D01*
Y81280D02*
Y110490D01*
X192405Y81280D02*
Y100965D01*
X1115060Y35560D02*
X1282700D01*
X676910D02*
X1115060D01*
X383540D02*
X405130D01*
X1282700D02*
X1305560Y58420D01*
X1325150Y78010D01*
Y80550D01*
X1327150Y82550D01*
X655320Y35560D02*
X676910D01*
X405130D02*
X655320D01*
X228600D02*
X381000D01*
X182880Y81280D02*
X228600Y35560D01*
X182880Y110490D02*
X192405Y100965D01*
D104*
X1320800Y58420D02*
X1349230Y86850D01*
X1305560Y58420D02*
X1320800D01*
X1349230Y86850D02*
X1442720Y180340D01*
X1492250Y393700D02*
Y629920D01*
Y229870D02*
Y393700D01*
Y629920D02*
Y789940D01*
X1437640Y840740D02*
X1441450Y844550D01*
X1164590Y791210D02*
X1214120Y840740D01*
X1437640D01*
X1327150Y82550D02*
X1331450Y86850D01*
X1349230D01*
X1442720Y180340D02*
X1492250Y229870D01*
X1445750Y836440D02*
X1492250Y789940D01*
X1445750Y836440D02*
Y840250D01*
X1441450Y844550D02*
X1445750Y840250D01*
D105*
X120330Y635000D02*
Y656270D01*
X115966Y619044D02*
Y621262D01*
X120330Y656270D02*
X120650Y656590D01*
X120330Y593090D02*
Y614680D01*
X96520Y678180D02*
X120650D01*
X87630Y669290D02*
X96520Y678180D01*
X87630Y643890D02*
Y669290D01*
X82270Y604800D02*
X93980Y593090D01*
X71080Y604800D02*
X82270D01*
X93980Y577850D02*
Y593090D01*
X78598Y634858D02*
X87630Y643890D01*
X71138Y634858D02*
X78598D01*
X71080Y634800D02*
X71138Y634858D01*
X117790Y574040D02*
X120330Y571500D01*
X97790Y574040D02*
X117790D01*
X93980Y577850D02*
X97790Y574040D01*
X143830Y614680D02*
X148194Y619044D01*
X235622Y622753D02*
X248401Y635532D01*
X149818Y622753D02*
X235622D01*
X248401Y635532D02*
Y639502D01*
X250024Y641126D02*
X251116D01*
X248401Y639502D02*
X250024Y641126D01*
X251116D02*
X252730Y642740D01*
Y649590D01*
X148194Y621129D02*
X149818Y622753D01*
X148194Y619044D02*
Y621129D01*
X150138Y626795D02*
X233948D01*
X148514Y628418D02*
X150138Y626795D01*
X241644Y641126D02*
X242736D01*
X244359Y637206D02*
Y639502D01*
X240030Y642740D02*
Y649590D01*
Y642740D02*
X241644Y641126D01*
X233948Y626795D02*
X244359Y637206D01*
X148514Y628418D02*
Y630636D01*
X144150Y635000D02*
X148514Y630636D01*
X242736Y641126D02*
X244359Y639502D01*
X71080Y629800D02*
X71184Y629696D01*
X114662Y626927D02*
X116286Y628551D01*
Y630636D01*
X95893Y629321D02*
X98287Y626927D01*
X78587Y629321D02*
X95893D01*
X78212Y629696D02*
X78587Y629321D01*
X71184Y629696D02*
X78212D01*
X98287Y626927D02*
X114662D01*
X116286Y630636D02*
X120650Y635000D01*
X94219Y625279D02*
X96613Y622886D01*
X71184Y624904D02*
X78212D01*
X96613Y622886D02*
X114342D01*
X71080Y624800D02*
X71184Y624904D01*
X115966Y619044D02*
X120330Y614680D01*
X114342Y622886D02*
X115966Y621262D01*
X78587Y625279D02*
X94219D01*
X78212Y624904D02*
X78587Y625279D01*
X59690Y621424D02*
Y628176D01*
Y621424D02*
X61314Y619800D01*
X71080D01*
X59690Y628176D02*
X61314Y629800D01*
X71080D01*
X71184Y614904D02*
X79656D01*
Y624696D02*
X81280Y623072D01*
Y616528D02*
Y623072D01*
X79656Y614904D02*
X81280Y616528D01*
X71080Y614800D02*
X71184Y614904D01*
X71080Y624800D02*
X71184Y624696D01*
D106*
X27178Y195580D02*
D03*
X62992Y210820D02*
D03*
X56642Y195580D02*
D03*
X26924Y225552D02*
D03*
X41910Y189738D02*
D03*
Y232156D02*
D03*
X56896Y225552D02*
D03*
X20828Y210820D02*
D03*
D107*
X41910D02*
D03*
D108*
X139220Y332750D02*
D03*
D109*
X79220D02*
D03*
D110*
X109220Y285750D02*
D03*
D111*
X845820Y816610D02*
D03*
Y791210D02*
D03*
Y765810D02*
D03*
Y740410D02*
D03*
Y715010D02*
D03*
Y689610D02*
D03*
Y664210D02*
D03*
Y638810D02*
D03*
Y613410D02*
D03*
Y588010D02*
D03*
Y562610D02*
D03*
Y537210D02*
D03*
Y511810D02*
D03*
Y486410D02*
D03*
X766620D02*
D03*
Y511810D02*
D03*
Y537210D02*
D03*
Y562610D02*
D03*
Y588010D02*
D03*
Y613410D02*
D03*
Y715010D02*
D03*
Y689610D02*
D03*
Y740410D02*
D03*
Y765810D02*
D03*
Y638810D02*
D03*
Y664210D02*
D03*
Y791210D02*
D03*
D112*
Y816610D02*
D03*
D113*
X1079500Y278130D02*
D03*
X473710Y273050D02*
D03*
X471170Y638810D02*
D03*
X1071880Y825500D02*
D03*
D114*
X894080Y252730D02*
D03*
X647700D02*
D03*
X770890D02*
D03*
D115*
X919480D02*
D03*
X944880D02*
D03*
X970280D02*
D03*
Y328930D02*
D03*
X944880D02*
D03*
X919480D02*
D03*
X894080D02*
D03*
X647700D02*
D03*
X673100D02*
D03*
X698500D02*
D03*
X723900D02*
D03*
Y252730D02*
D03*
X698500D02*
D03*
X673100D02*
D03*
X1123950Y398780D02*
D03*
Y424180D02*
D03*
Y449580D02*
D03*
Y474980D02*
D03*
X1200150D02*
D03*
Y449580D02*
D03*
Y424180D02*
D03*
X1123950Y510540D02*
D03*
Y535940D02*
D03*
Y561340D02*
D03*
Y586740D02*
D03*
X1200150D02*
D03*
Y561340D02*
D03*
Y535940D02*
D03*
X770890Y328930D02*
D03*
X796290D02*
D03*
X821690D02*
D03*
X847090D02*
D03*
Y252730D02*
D03*
X821690D02*
D03*
X796290D02*
D03*
D116*
X151130Y168240D02*
D03*
Y243240D02*
D03*
D117*
X57150Y762000D02*
D03*
X1442720Y180340D02*
D03*
X1441450Y844550D02*
D03*
Y629920D02*
D03*
X1443990Y393700D02*
D03*
D118*
X57150Y812800D02*
D03*
X1442720Y27940D02*
D03*
Y78740D02*
D03*
Y129540D02*
D03*
X1174750Y82550D02*
D03*
X1225550D02*
D03*
X1276350D02*
D03*
X962660D02*
D03*
X1013460D02*
D03*
X1064260D02*
D03*
X30480Y81280D02*
D03*
X81280D02*
D03*
X132080D02*
D03*
X612140Y78740D02*
D03*
X561340D02*
D03*
X510540D02*
D03*
X346710Y80010D02*
D03*
X295910D02*
D03*
X245110D02*
D03*
X1215390Y791210D02*
D03*
X1266190D02*
D03*
X1316990D02*
D03*
X825500Y77470D02*
D03*
X774700D02*
D03*
X723900D02*
D03*
X1441450Y793750D02*
D03*
Y742950D02*
D03*
Y692150D02*
D03*
Y579120D02*
D03*
Y528320D02*
D03*
Y477520D02*
D03*
X1443990Y342900D02*
D03*
Y292100D02*
D03*
Y241300D02*
D03*
D119*
X514870Y856890D02*
D03*
D120*
X579870D02*
D03*
X516370Y811890D02*
D03*
X579870D02*
D03*
D121*
X65330Y579100D02*
D03*
Y665500D02*
D03*
D122*
X25330Y579100D02*
D03*
Y665500D02*
D03*
D123*
X1327150Y82550D02*
D03*
X1115060D02*
D03*
X182880Y81280D02*
D03*
X662940Y78740D02*
D03*
X397510Y80010D02*
D03*
X1164590Y791210D02*
D03*
X876300Y77470D02*
D03*
D124*
X1200150Y398780D02*
D03*
Y510540D02*
D03*
D125*
X1198880Y629920D02*
D03*
Y655320D02*
D03*
X1122680D02*
D03*
Y629920D02*
D03*
D126*
X406400Y800100D02*
D03*
X431800D02*
D03*
X406400Y774700D02*
D03*
D127*
X431800D02*
D03*
D128*
X341630Y427990D02*
D03*
D129*
X316630D02*
D03*
D130*
X224790Y356870D02*
D03*
Y337820D02*
D03*
X240030Y346710D02*
D03*
X792480Y543560D02*
D03*
Y524510D02*
D03*
X807720Y533400D02*
D03*
X808990Y551180D02*
D03*
Y570230D02*
D03*
X793750Y561340D02*
D03*
X1050290Y624840D02*
D03*
Y643890D02*
D03*
X1035050Y635000D02*
D03*
X1027430Y670560D02*
D03*
Y651510D02*
D03*
X1042670Y660400D02*
D03*
X675640Y488950D02*
D03*
Y469900D02*
D03*
X690880Y478790D02*
D03*
X660400Y469900D02*
D03*
Y488950D02*
D03*
X645160Y480060D02*
D03*
X313690Y500380D02*
D03*
Y519430D02*
D03*
X298450Y510540D02*
D03*
X281940Y501650D02*
D03*
Y482600D02*
D03*
X297180Y491490D02*
D03*
X109220Y763270D02*
D03*
X96520D02*
D03*
X83820D02*
D03*
X109220Y787400D02*
D03*
X96520D02*
D03*
X83820D02*
D03*
X109220Y811530D02*
D03*
X96520D02*
D03*
X83820D02*
D03*
X153670Y787400D02*
D03*
X397510Y833120D02*
D03*
X368300Y853440D02*
D03*
X505460Y782320D02*
D03*
X135890Y420370D02*
D03*
Y497840D02*
D03*
X52070Y530860D02*
D03*
D131*
X516890Y699770D02*
D03*
X493390D02*
D03*
X493710Y734060D02*
D03*
X517210D02*
D03*
X429260Y698500D02*
D03*
X453390Y722630D02*
D03*
D132*
X184150Y685800D02*
D03*
X167640D02*
D03*
X199390D02*
D03*
X598170Y741680D02*
D03*
X109220Y515620D02*
D03*
X215900Y118110D02*
D03*
X359410Y363220D02*
D03*
X265430Y619760D02*
D03*
X261620Y519430D02*
D03*
X1073150Y553720D02*
D03*
X648970Y388620D02*
D03*
X698500D02*
D03*
X770890Y389890D02*
D03*
X821690Y388620D02*
D03*
X894080D02*
D03*
X944880D02*
D03*
X1073150Y389890D02*
D03*
Y440690D02*
D03*
Y504190D02*
D03*
X1071880Y633730D02*
D03*
X359410Y388620D02*
D03*
X260350Y389890D02*
D03*
X335280Y800100D02*
D03*
X336550Y773430D02*
D03*
X1360170Y156210D02*
D03*
D133*
X819150Y662940D02*
D03*
X50800Y590550D02*
D03*
Y654050D02*
D03*
M02*
