G04*
G04 #@! TF.GenerationSoftware,Altium Limited,Altium Designer,25.4.2 (15)*
G04*
G04 Layer_Color=65535*
%FSLAX44Y44*%
%MOMM*%
G71*
G04*
G04 #@! TF.SameCoordinates,CA2AF886-8F4D-4062-A15D-1C6B51B4DCEA*
G04*
G04*
G04 #@! TF.FilePolarity,Positive*
G04*
G01*
G75*
%ADD10C,0.2540*%
%ADD11C,0.2000*%
%ADD12C,0.4000*%
%ADD13C,0.0000*%
%ADD14C,0.1524*%
%ADD15C,0.3000*%
G04:AMPARAMS|DCode=16|XSize=1.84mm|YSize=3.19mm|CornerRadius=0.23mm|HoleSize=0mm|Usage=FLASHONLY|Rotation=270.000|XOffset=0mm|YOffset=0mm|HoleType=Round|Shape=RoundedRectangle|*
%AMROUNDEDRECTD16*
21,1,1.8400,2.7300,0,0,270.0*
21,1,1.3800,3.1900,0,0,270.0*
1,1,0.4600,-1.3650,-0.6900*
1,1,0.4600,-1.3650,0.6900*
1,1,0.4600,1.3650,0.6900*
1,1,0.4600,1.3650,-0.6900*
%
%ADD16ROUNDEDRECTD16*%
%ADD17C,0.1270*%
%ADD18C,0.2500*%
%ADD19C,0.1500*%
G36*
X935482Y843518D02*
X935310D01*
Y843691D01*
X935482D01*
Y843518D01*
D02*
G37*
G36*
X934446D02*
X934274D01*
Y843691D01*
X934446D01*
Y843518D01*
D02*
G37*
G36*
X899733Y838510D02*
X895415D01*
Y838337D01*
X895070D01*
Y838164D01*
X894897D01*
Y832120D01*
X895070D01*
Y831774D01*
X895242D01*
Y831601D01*
X906814D01*
Y831429D01*
X907159D01*
Y831256D01*
X907332D01*
Y831083D01*
X907504D01*
Y830911D01*
X907677D01*
Y830565D01*
X907850D01*
Y829529D01*
X907677D01*
Y829356D01*
X907504D01*
Y829011D01*
X907159D01*
Y828838D01*
X906986D01*
Y828665D01*
X889025D01*
Y828838D01*
X888507D01*
Y840064D01*
X888680D01*
Y839028D01*
X888852D01*
Y837819D01*
X889025D01*
Y837991D01*
Y838164D01*
Y840064D01*
X888852D01*
Y842136D01*
X888680D01*
Y840928D01*
X888507D01*
Y843000D01*
X896279D01*
Y843173D01*
X896451D01*
Y843000D01*
X896624D01*
Y843173D01*
X899733D01*
Y838510D01*
D02*
G37*
G36*
X888680Y840237D02*
X888507D01*
Y840755D01*
X888680D01*
Y840237D01*
D02*
G37*
G36*
X914758Y843000D02*
X914931D01*
Y838337D01*
X914758D01*
Y838164D01*
X901805D01*
Y838337D01*
X901633D01*
Y842309D01*
Y842482D01*
Y842654D01*
X901460D01*
Y843000D01*
X901805D01*
Y843173D01*
X914758D01*
Y843000D01*
D02*
G37*
G36*
X928401Y841618D02*
X928229D01*
Y830738D01*
X928401D01*
Y828147D01*
X924602D01*
Y828320D01*
X924429D01*
Y835401D01*
X922184D01*
Y835228D01*
X922011D01*
Y835055D01*
X922184D01*
Y828320D01*
X922011D01*
Y828147D01*
X918212D01*
Y828320D01*
X918039D01*
Y843000D01*
X918212D01*
Y843173D01*
X922184D01*
Y837646D01*
X924257D01*
Y837819D01*
X924429D01*
Y843173D01*
X928401D01*
Y841618D01*
D02*
G37*
G36*
X914240Y836264D02*
X914758D01*
Y836092D01*
X914931D01*
Y822275D01*
X914758D01*
Y822103D01*
X901805D01*
Y822275D01*
X901633D01*
Y826593D01*
X902323D01*
Y826766D01*
X903878D01*
Y826593D01*
X906814D01*
Y826766D01*
X906986D01*
Y826593D01*
X907159D01*
Y826766D01*
X908713D01*
Y826938D01*
X909059D01*
Y833156D01*
X908886D01*
Y833328D01*
X896970D01*
Y833501D01*
X896624D01*
Y833674D01*
X896451D01*
Y833847D01*
X896279D01*
Y834019D01*
X896106D01*
Y834192D01*
X895933D01*
Y834537D01*
X895760D01*
Y835401D01*
X895933D01*
Y835574D01*
X896106D01*
Y835746D01*
X896279D01*
Y835919D01*
X896451D01*
Y836092D01*
X896797D01*
Y836264D01*
X897488D01*
Y836437D01*
X911131D01*
Y836264D01*
X911304D01*
Y836437D01*
X911477D01*
Y836264D01*
X911649D01*
Y836437D01*
X914240D01*
Y836264D01*
D02*
G37*
G36*
X936691Y843173D02*
X937555D01*
Y843000D01*
X937900D01*
Y842827D01*
X938246D01*
Y842654D01*
X938418D01*
Y842482D01*
X938591D01*
Y842309D01*
X938764D01*
Y842136D01*
X938936D01*
Y841964D01*
X939109D01*
Y841791D01*
X939282D01*
Y841446D01*
X939455D01*
Y841100D01*
X939627D01*
Y840582D01*
X939800D01*
Y830738D01*
X939627D01*
Y830220D01*
X939455D01*
Y829874D01*
X939282D01*
Y829702D01*
X939109D01*
Y829356D01*
X938936D01*
Y829184D01*
X938764D01*
Y829011D01*
X938591D01*
Y828838D01*
X938418D01*
Y828665D01*
X938073D01*
Y828493D01*
X937728D01*
Y828320D01*
X937382D01*
Y828147D01*
X936691D01*
Y827975D01*
X935655D01*
Y827802D01*
X933928D01*
Y827975D01*
X932892D01*
Y828147D01*
X932201D01*
Y828320D01*
X931683D01*
Y828493D01*
X931338D01*
Y828665D01*
X931165D01*
Y828838D01*
X930992D01*
Y829011D01*
X930647D01*
Y829356D01*
X930474D01*
Y829529D01*
X930301D01*
Y829702D01*
X930129D01*
Y830047D01*
X929956D01*
Y830393D01*
X929783D01*
Y831256D01*
X929611D01*
Y840409D01*
X929783D01*
Y841100D01*
X929956D01*
Y841446D01*
X930129D01*
Y841791D01*
X930301D01*
Y841964D01*
X930474D01*
Y842136D01*
X930647D01*
Y842309D01*
X930819D01*
Y842482D01*
X930992D01*
Y842654D01*
X931338D01*
Y842827D01*
X931510D01*
Y843000D01*
X932028D01*
Y843173D01*
X932719D01*
Y843345D01*
X936691D01*
Y843173D01*
D02*
G37*
G36*
X920803Y825730D02*
X921148D01*
Y825557D01*
X921321D01*
Y825384D01*
X921493D01*
Y825211D01*
X921666D01*
Y825039D01*
X921839D01*
Y824521D01*
X921148D01*
Y824693D01*
X920803D01*
Y824866D01*
X920457D01*
Y825039D01*
X919421D01*
Y824521D01*
X919594D01*
Y824348D01*
X920457D01*
Y824175D01*
X920975D01*
Y824003D01*
X921148D01*
Y823830D01*
X921321D01*
Y823657D01*
X921666D01*
Y823484D01*
X922011D01*
Y822621D01*
X921839D01*
Y822448D01*
X921666D01*
Y822275D01*
X921321D01*
Y822103D01*
X921148D01*
Y821930D01*
X920975D01*
Y821757D01*
X919248D01*
Y821930D01*
X918903D01*
Y822103D01*
X918557D01*
Y822275D01*
X918212D01*
Y822448D01*
X918039D01*
Y823139D01*
X918212D01*
Y823312D01*
X918385D01*
Y823139D01*
X919075D01*
Y822966D01*
X919421D01*
Y822794D01*
X919594D01*
Y822621D01*
X919766D01*
Y822448D01*
X920630D01*
Y823312D01*
X920285D01*
Y823484D01*
X919594D01*
Y823657D01*
X919075D01*
Y823830D01*
X918730D01*
Y824003D01*
X918557D01*
Y824175D01*
X918385D01*
Y824348D01*
X918212D01*
Y824693D01*
X918039D01*
Y824866D01*
X918212D01*
Y825039D01*
X918385D01*
Y825211D01*
X918557D01*
Y825384D01*
X918730D01*
Y825557D01*
X919075D01*
Y825730D01*
X919421D01*
Y825902D01*
X920803D01*
Y825730D01*
D02*
G37*
G36*
X888680Y824348D02*
X888507D01*
Y824521D01*
X888680D01*
Y824348D01*
D02*
G37*
G36*
Y824003D02*
X888507D01*
Y824175D01*
X888680D01*
Y824003D01*
D02*
G37*
G36*
X934446Y825557D02*
X934619D01*
Y825384D01*
X934446D01*
Y825039D01*
X934274D01*
Y824693D01*
X934101D01*
Y824348D01*
X933928D01*
Y823830D01*
X933755D01*
Y823484D01*
X933583D01*
Y823139D01*
X933410D01*
Y822966D01*
X933237D01*
Y822448D01*
X933065D01*
Y821930D01*
X932892D01*
Y821757D01*
X932719D01*
Y821412D01*
X932546D01*
Y821067D01*
X932374D01*
Y820894D01*
X932201D01*
Y820721D01*
X932028D01*
Y820548D01*
X931856D01*
Y820376D01*
X931510D01*
Y820203D01*
X930819D01*
Y820894D01*
X930992D01*
Y821239D01*
X931165D01*
Y821412D01*
X931338D01*
Y821585D01*
X931510D01*
Y821757D01*
X931683D01*
Y821930D01*
X932028D01*
Y822103D01*
X931856D01*
Y822275D01*
X931683D01*
Y822621D01*
X931510D01*
Y822794D01*
X931338D01*
Y823312D01*
X931165D01*
Y823484D01*
X930992D01*
Y823830D01*
X930819D01*
Y824348D01*
X930647D01*
Y824866D01*
X930474D01*
Y825211D01*
X930301D01*
Y825730D01*
X931338D01*
Y825557D01*
X931510D01*
Y825384D01*
X931683D01*
Y824521D01*
X931856D01*
Y823830D01*
X932028D01*
Y824003D01*
X932719D01*
Y823830D01*
X932892D01*
Y823657D01*
X933065D01*
Y823312D01*
X933237D01*
Y823657D01*
X933065D01*
Y823830D01*
Y824003D01*
Y825384D01*
X933237D01*
Y825557D01*
X933755D01*
Y825730D01*
X934446D01*
Y825557D01*
D02*
G37*
G36*
X899733Y822103D02*
X889370D01*
Y822275D01*
X888507D01*
Y823312D01*
X888680D01*
Y823139D01*
X888852D01*
Y826248D01*
X888680D01*
Y824693D01*
X888507D01*
Y826420D01*
X888680D01*
Y826593D01*
X899733D01*
Y822103D01*
D02*
G37*
G36*
X979349Y843518D02*
X978486D01*
Y843691D01*
X979349D01*
Y843518D01*
D02*
G37*
G36*
X958625D02*
X958452D01*
Y843691D01*
X958625D01*
Y843518D01*
D02*
G37*
G36*
X957243D02*
X956552D01*
Y843691D01*
X957243D01*
Y843518D01*
D02*
G37*
G36*
X973305Y843000D02*
X973477D01*
Y841446D01*
X973305D01*
Y841100D01*
X972959D01*
Y840928D01*
X971750D01*
Y841100D01*
X970887D01*
Y840928D01*
X970714D01*
Y840409D01*
X970541D01*
Y829529D01*
X970714D01*
Y828320D01*
X970541D01*
Y828147D01*
X966569D01*
Y840928D01*
X966224D01*
Y841100D01*
X963806D01*
Y841618D01*
X963633D01*
Y843000D01*
X964669D01*
Y843173D01*
X973305D01*
Y843000D01*
D02*
G37*
G36*
X959488Y843173D02*
X960697D01*
Y843000D01*
X961215D01*
Y842827D01*
X961388D01*
Y842654D01*
X961733D01*
Y842482D01*
X961906D01*
Y842309D01*
X962079D01*
Y841964D01*
X962252D01*
Y841791D01*
X962424D01*
Y841446D01*
X962597D01*
Y840928D01*
X962770D01*
Y837991D01*
X962597D01*
Y837819D01*
X959488D01*
Y837991D01*
X958970D01*
Y838164D01*
X958797D01*
Y840582D01*
X958625D01*
Y840755D01*
X958452D01*
Y840928D01*
X958279D01*
Y841100D01*
X957934D01*
Y841273D01*
X957243D01*
Y841100D01*
X956898D01*
Y840928D01*
X956725D01*
Y840755D01*
X956552D01*
Y840409D01*
X956380D01*
Y839546D01*
X956552D01*
Y839200D01*
X956725D01*
Y839028D01*
X956898D01*
Y838855D01*
X957070D01*
Y838510D01*
X957243D01*
Y838337D01*
X957416D01*
Y838164D01*
X957761D01*
Y837991D01*
X957934D01*
Y837819D01*
X958279D01*
Y837646D01*
X958452D01*
Y837473D01*
X958797D01*
Y837301D01*
X958970D01*
Y837128D01*
X959143D01*
Y836955D01*
X959488D01*
Y836783D01*
X959661D01*
Y836610D01*
X960006D01*
Y836437D01*
X960179D01*
Y836264D01*
X960352D01*
Y836092D01*
X960697D01*
Y835919D01*
X960870D01*
Y835746D01*
X961043D01*
Y835574D01*
X961215D01*
Y835401D01*
X961388D01*
Y835228D01*
X961561D01*
Y835055D01*
X961733D01*
Y834710D01*
X961906D01*
Y834537D01*
X962079D01*
Y834365D01*
X962252D01*
Y834019D01*
X962424D01*
Y833674D01*
X962597D01*
Y832983D01*
X962770D01*
Y831429D01*
X962597D01*
Y830393D01*
X962424D01*
Y830047D01*
X962252D01*
Y829702D01*
X962079D01*
Y829356D01*
X961906D01*
Y829184D01*
X961733D01*
Y829011D01*
X961561D01*
Y828838D01*
X961388D01*
Y828665D01*
X961043D01*
Y828493D01*
X960697D01*
Y828320D01*
X960179D01*
Y828147D01*
X959488D01*
Y827975D01*
X958279D01*
Y827802D01*
X956898D01*
Y827975D01*
X955689D01*
Y828147D01*
X954825D01*
Y828320D01*
X954307D01*
Y828493D01*
X953962D01*
Y828665D01*
X953789D01*
Y828838D01*
X953444D01*
Y829011D01*
X953271D01*
Y829184D01*
X953098D01*
Y829356D01*
X952925D01*
Y829702D01*
X952753D01*
Y829874D01*
X952580D01*
Y833847D01*
X952753D01*
Y834019D01*
X956034D01*
Y833847D01*
X956380D01*
Y830911D01*
X956552D01*
Y830565D01*
X956725D01*
Y830393D01*
X957243D01*
Y830220D01*
X957934D01*
Y830393D01*
X958279D01*
Y830565D01*
X958625D01*
Y830911D01*
X958797D01*
Y832120D01*
X958625D01*
Y832465D01*
X958452D01*
Y832810D01*
X958279D01*
Y832983D01*
X958107D01*
Y833156D01*
X957934D01*
Y833328D01*
X957761D01*
Y833501D01*
X957589D01*
Y833674D01*
X957416D01*
Y833847D01*
X957243D01*
Y834019D01*
X957070D01*
Y834192D01*
X956725D01*
Y834365D01*
X956552D01*
Y834537D01*
X956380D01*
Y834710D01*
X956034D01*
Y834883D01*
X955862D01*
Y835055D01*
X955516D01*
Y835228D01*
X955343D01*
Y835401D01*
X954998D01*
Y835574D01*
X954825D01*
Y835746D01*
X954652D01*
Y835919D01*
X954307D01*
Y836092D01*
X954134D01*
Y836264D01*
X953962D01*
Y836437D01*
X953789D01*
Y836610D01*
X953616D01*
Y836783D01*
X953444D01*
Y836955D01*
X953271D01*
Y837301D01*
X953098D01*
Y837646D01*
X952925D01*
Y837991D01*
X952753D01*
Y838337D01*
X952580D01*
Y841273D01*
X952753D01*
Y841618D01*
X952925D01*
Y841791D01*
X953098D01*
Y842136D01*
X953271D01*
Y842309D01*
X953444D01*
Y842482D01*
X953616D01*
Y842654D01*
X953962D01*
Y842827D01*
X954307D01*
Y843000D01*
X954652D01*
Y843173D01*
X955689D01*
Y843345D01*
X959488D01*
Y843173D01*
D02*
G37*
G36*
X996965Y828320D02*
X996619D01*
Y828147D01*
X992129D01*
Y828320D01*
X991956D01*
Y828493D01*
X991784D01*
Y829011D01*
X991611D01*
Y829874D01*
X991438D01*
Y830565D01*
X991266D01*
Y831429D01*
X991093D01*
Y832120D01*
X990920D01*
Y832983D01*
X990748D01*
Y833674D01*
X990575D01*
Y834365D01*
X990402D01*
Y835055D01*
X990229D01*
Y835919D01*
X990057D01*
Y836783D01*
X989884D01*
Y837646D01*
X989711D01*
Y838682D01*
X989539D01*
Y839373D01*
X989366D01*
Y840064D01*
X989193D01*
Y840237D01*
X988503D01*
Y839028D01*
X988675D01*
Y834365D01*
X988848D01*
Y828320D01*
X988675D01*
Y828147D01*
X985739D01*
Y832983D01*
X985912D01*
Y837991D01*
X985739D01*
Y843173D01*
X991438D01*
Y842309D01*
X991611D01*
Y841618D01*
X991784D01*
Y840928D01*
X991956D01*
Y840237D01*
X992129D01*
Y839546D01*
X992302D01*
Y838855D01*
X992475D01*
Y837991D01*
X992647D01*
Y836955D01*
X992820D01*
Y836092D01*
X992993D01*
Y835055D01*
X993166D01*
Y834192D01*
X993338D01*
Y833501D01*
X993511D01*
Y833328D01*
X993684D01*
Y832983D01*
X994202D01*
Y836610D01*
X994029D01*
Y839546D01*
Y839718D01*
Y843000D01*
X994720D01*
Y843173D01*
X996965D01*
Y828320D01*
D02*
G37*
G36*
X951199Y843000D02*
X951371D01*
Y842309D01*
X951199D01*
Y837301D01*
Y837128D01*
Y831083D01*
X951026D01*
Y830220D01*
X950853D01*
Y829874D01*
X950680D01*
Y829529D01*
X950508D01*
Y829356D01*
X950335D01*
Y829011D01*
X949989D01*
Y828838D01*
X949817D01*
Y828665D01*
X949644D01*
Y828493D01*
X949299D01*
Y828320D01*
X948781D01*
Y828147D01*
X948262D01*
Y827975D01*
X947054D01*
Y827802D01*
X945327D01*
Y827975D01*
X944118D01*
Y828147D01*
X943427D01*
Y828320D01*
X943081D01*
Y828493D01*
X942736D01*
Y828665D01*
X942563D01*
Y828838D01*
X942218D01*
Y829011D01*
X942045D01*
Y829184D01*
X941872D01*
Y829529D01*
X941700D01*
Y829702D01*
X941527D01*
Y829874D01*
X941354D01*
Y830393D01*
X941182D01*
Y840928D01*
X941009D01*
Y843173D01*
X944981D01*
Y831083D01*
X945154D01*
Y830565D01*
X945327D01*
Y830393D01*
X945845D01*
Y830220D01*
X946363D01*
Y830393D01*
X946881D01*
Y830565D01*
X947054D01*
Y830738D01*
X947226D01*
Y837301D01*
X947399D01*
Y840928D01*
X947226D01*
Y843000D01*
X947399D01*
Y843173D01*
X951199D01*
Y843000D01*
D02*
G37*
G36*
X981422Y843173D02*
X982285D01*
Y843000D01*
X982803D01*
Y842827D01*
X982976D01*
Y842654D01*
X983321D01*
Y842482D01*
X983494D01*
Y842309D01*
X983667D01*
Y842136D01*
X983839D01*
Y841964D01*
X984012D01*
Y841618D01*
X984185D01*
Y841273D01*
X984358D01*
Y839200D01*
X984530D01*
Y830911D01*
X984358D01*
Y830220D01*
X984185D01*
Y829874D01*
X984012D01*
Y829529D01*
X983839D01*
Y829356D01*
X983667D01*
Y829184D01*
X983494D01*
Y829011D01*
X983321D01*
Y828838D01*
X983149D01*
Y828665D01*
X982803D01*
Y828493D01*
X982630D01*
Y828320D01*
X982112D01*
Y828147D01*
X981422D01*
Y827975D01*
X980213D01*
Y827802D01*
X978658D01*
Y827975D01*
X977795D01*
Y828147D01*
X977104D01*
Y828320D01*
X976586D01*
Y828493D01*
X976240D01*
Y828665D01*
X975895D01*
Y828838D01*
X975722D01*
Y829011D01*
X975550D01*
Y829184D01*
X975377D01*
Y829356D01*
X975204D01*
Y829702D01*
X975032D01*
Y829874D01*
X974859D01*
Y830220D01*
X974686D01*
Y830738D01*
X974513D01*
Y831601D01*
X974341D01*
Y839718D01*
X974513D01*
Y840755D01*
X974686D01*
Y841100D01*
X974859D01*
Y841446D01*
X975032D01*
Y841791D01*
X975204D01*
Y841964D01*
X975377D01*
Y842136D01*
X975550D01*
Y842309D01*
X975722D01*
Y842482D01*
X975895D01*
Y842654D01*
X976068D01*
Y842827D01*
X976413D01*
Y843000D01*
X976931D01*
Y843173D01*
X977622D01*
Y843345D01*
X981422D01*
Y843173D01*
D02*
G37*
G36*
X983839Y825730D02*
X984185D01*
Y825557D01*
X984358D01*
Y825384D01*
X984530D01*
Y825211D01*
X984703D01*
Y825039D01*
X984876D01*
Y822966D01*
X985048D01*
Y822621D01*
X984876D01*
Y821930D01*
X984012D01*
Y822103D01*
X983667D01*
Y822275D01*
X983494D01*
Y822621D01*
X983667D01*
Y824866D01*
X983321D01*
Y825039D01*
X982458D01*
Y824693D01*
X982285D01*
Y822103D01*
X982112D01*
Y821930D01*
X981594D01*
Y822103D01*
X981249D01*
Y823484D01*
Y823657D01*
Y824866D01*
X981076D01*
Y825039D01*
X980385D01*
Y824866D01*
X980040D01*
Y824521D01*
X979867D01*
Y822103D01*
X979522D01*
Y821930D01*
X979004D01*
Y822103D01*
X978658D01*
Y825557D01*
X979004D01*
Y825730D01*
X980903D01*
Y825902D01*
X981076D01*
Y825730D01*
X981767D01*
Y825557D01*
X982458D01*
Y825730D01*
X982803D01*
Y825902D01*
X983839D01*
Y825730D01*
D02*
G37*
G36*
X945327D02*
X945845D01*
Y825557D01*
X946017D01*
Y825384D01*
X946190D01*
Y825211D01*
X946363D01*
Y825039D01*
X946535D01*
Y824521D01*
X945672D01*
Y824693D01*
X945327D01*
Y824866D01*
X945154D01*
Y825039D01*
X944290D01*
Y824866D01*
X944118D01*
Y824521D01*
X944290D01*
Y824348D01*
X944981D01*
Y824175D01*
X945499D01*
Y824003D01*
X945845D01*
Y823830D01*
X946017D01*
Y823657D01*
X946363D01*
Y823484D01*
X946708D01*
Y823312D01*
X946881D01*
Y822966D01*
X946708D01*
Y822621D01*
X946535D01*
Y822448D01*
X946363D01*
Y822275D01*
X946017D01*
Y822103D01*
X945845D01*
Y821930D01*
X945499D01*
Y821757D01*
X943945D01*
Y821930D01*
X943599D01*
Y822103D01*
X943254D01*
Y822275D01*
X943081D01*
Y822448D01*
X942909D01*
Y822621D01*
X942736D01*
Y823139D01*
X942909D01*
Y823312D01*
X943081D01*
Y823139D01*
X943772D01*
Y822966D01*
X944118D01*
Y822794D01*
X944290D01*
Y822621D01*
X944463D01*
Y822448D01*
X944808D01*
Y822275D01*
X945154D01*
Y822448D01*
X945327D01*
Y823312D01*
X944808D01*
Y823484D01*
X944118D01*
Y823657D01*
X943772D01*
Y823830D01*
X943427D01*
Y824003D01*
X943254D01*
Y824175D01*
X943081D01*
Y824348D01*
X942909D01*
Y824521D01*
X942736D01*
Y824866D01*
X942909D01*
Y825039D01*
X943081D01*
Y825211D01*
X943254D01*
Y825384D01*
X943427D01*
Y825557D01*
X943772D01*
Y825730D01*
X944118D01*
Y825902D01*
X945327D01*
Y825730D01*
D02*
G37*
G36*
X996101D02*
X996447D01*
Y825557D01*
X996965D01*
Y824348D01*
X996792D01*
Y824521D01*
X996619D01*
Y824693D01*
X996274D01*
Y824866D01*
X996101D01*
Y825039D01*
X994893D01*
Y824866D01*
X994720D01*
Y824521D01*
X995065D01*
Y824348D01*
X995756D01*
Y824175D01*
X996274D01*
Y824003D01*
X996447D01*
Y823830D01*
X996965D01*
Y822103D01*
X996619D01*
Y822275D01*
X996447D01*
Y822448D01*
X996274D01*
Y822621D01*
X996101D01*
Y823312D01*
X995583D01*
Y823484D01*
X994893D01*
Y823657D01*
X994547D01*
Y823830D01*
X994202D01*
Y824003D01*
X994029D01*
Y824175D01*
X993856D01*
Y824348D01*
X993684D01*
Y824521D01*
X993511D01*
Y824866D01*
X993684D01*
Y825211D01*
X993856D01*
Y825384D01*
X994202D01*
Y825557D01*
X994374D01*
Y825730D01*
X994893D01*
Y825902D01*
X996101D01*
Y825730D01*
D02*
G37*
G36*
X994029Y823139D02*
X994547D01*
Y822966D01*
X994893D01*
Y822794D01*
X995065D01*
Y822621D01*
X995411D01*
Y822448D01*
X995929D01*
Y822275D01*
X996447D01*
Y822103D01*
X996619D01*
Y821930D01*
X996274D01*
Y821757D01*
X994720D01*
Y821930D01*
X994202D01*
Y822103D01*
X994029D01*
Y822275D01*
X993684D01*
Y822621D01*
X993511D01*
Y823139D01*
X993684D01*
Y823312D01*
X994029D01*
Y823139D01*
D02*
G37*
G36*
X956380Y826420D02*
X956552D01*
Y826248D01*
X956725D01*
Y826075D01*
X956898D01*
Y825902D01*
X957070D01*
Y825730D01*
X957243D01*
Y825039D01*
X956898D01*
Y824866D01*
X956725D01*
Y824693D01*
X956552D01*
Y824348D01*
X956725D01*
Y823657D01*
X956380D01*
Y823484D01*
X956552D01*
Y823139D01*
X956725D01*
Y822966D01*
X956898D01*
Y822794D01*
X957070D01*
Y822621D01*
X957243D01*
Y821930D01*
X957070D01*
Y821757D01*
X956552D01*
Y821930D01*
X956034D01*
Y822103D01*
X955862D01*
Y822275D01*
X955689D01*
Y822448D01*
X955516D01*
Y825039D01*
X955343D01*
Y825211D01*
X954825D01*
Y825557D01*
X955171D01*
Y825730D01*
X955343D01*
Y825902D01*
X955516D01*
Y826593D01*
X956380D01*
Y826420D01*
D02*
G37*
G36*
X968469Y825730D02*
X968814D01*
Y825557D01*
X969160D01*
Y825384D01*
X969332D01*
Y825211D01*
X969505D01*
Y825039D01*
X969678D01*
Y824866D01*
X969850D01*
Y824521D01*
Y824348D01*
Y822966D01*
X969678D01*
Y822621D01*
X969505D01*
Y822448D01*
X969332D01*
Y822275D01*
X969160D01*
Y822103D01*
X968987D01*
Y821930D01*
X968642D01*
Y821757D01*
X967951D01*
Y821585D01*
X967778D01*
Y821757D01*
X967087D01*
Y821930D01*
X966742D01*
Y822103D01*
X966569D01*
Y822275D01*
X966224D01*
Y822448D01*
X966051D01*
Y822621D01*
X965878D01*
Y822966D01*
X965706D01*
Y824521D01*
X965878D01*
Y824866D01*
X966051D01*
Y825039D01*
X966224D01*
Y825211D01*
X966396D01*
Y825384D01*
X966569D01*
Y825557D01*
X966915D01*
Y825730D01*
X967433D01*
Y825902D01*
X968469D01*
Y825730D01*
D02*
G37*
%LPC*%
G36*
X889025Y837646D02*
X888852D01*
Y837473D01*
X889025D01*
Y837646D01*
D02*
G37*
G36*
Y833328D02*
X888852D01*
Y831601D01*
X888680D01*
Y829529D01*
X888852D01*
Y829356D01*
X889025D01*
Y833328D01*
D02*
G37*
G36*
X934964Y841273D02*
X934446D01*
Y841100D01*
X934101D01*
Y840928D01*
X933928D01*
Y840755D01*
X933755D01*
Y840409D01*
X933583D01*
Y837128D01*
Y836955D01*
Y830738D01*
X933755D01*
Y830565D01*
X933928D01*
Y830393D01*
X934446D01*
Y830220D01*
X935137D01*
Y830393D01*
X935482D01*
Y830565D01*
X935655D01*
Y830738D01*
X935828D01*
Y840582D01*
X935655D01*
Y840928D01*
X935482D01*
Y841100D01*
X934964D01*
Y841273D01*
D02*
G37*
G36*
X980040D02*
X979176D01*
Y841100D01*
X978831D01*
Y840928D01*
X978658D01*
Y840755D01*
X978486D01*
Y830738D01*
X978658D01*
Y830393D01*
X979349D01*
Y830220D01*
X979867D01*
Y830393D01*
X980385D01*
Y830565D01*
X980558D01*
Y831083D01*
X980731D01*
Y836783D01*
Y836955D01*
Y840409D01*
X980558D01*
Y840755D01*
X980385D01*
Y840928D01*
X980213D01*
Y841100D01*
X980040D01*
Y841273D01*
D02*
G37*
G36*
X968469Y825039D02*
X967087D01*
Y824348D01*
X968642D01*
Y824866D01*
X968469D01*
Y825039D01*
D02*
G37*
G36*
X969505Y823657D02*
X967433D01*
Y823484D01*
X966915D01*
Y823139D01*
X967087D01*
Y822794D01*
X967260D01*
Y822621D01*
X967605D01*
Y822448D01*
X967951D01*
Y822621D01*
X968296D01*
Y822794D01*
X968642D01*
Y822966D01*
X968814D01*
Y823139D01*
X968987D01*
Y823312D01*
X969332D01*
Y823484D01*
X969505D01*
Y823657D01*
D02*
G37*
%LPD*%
D10*
X316230Y764540D02*
G03*
X316230Y764540I-1270J0D01*
G01*
X69410Y210820D02*
G03*
X69410Y210820I-27500J0D01*
G01*
X1102500Y278130D02*
G03*
X1102500Y278130I-23000J0D01*
G01*
X496710Y273050D02*
G03*
X496710Y273050I-23000J0D01*
G01*
X494170Y638810D02*
G03*
X494170Y638810I-23000J0D01*
G01*
X1094880Y825500D02*
G03*
X1094880Y825500I-23000J0D01*
G01*
X54610Y850900D02*
Y861057D01*
X59688Y866135D01*
X64767Y861057D01*
Y850900D01*
Y858518D01*
X54610D01*
Y722625D02*
Y707390D01*
X62228D01*
X64767Y709929D01*
Y712468D01*
X62228Y715007D01*
X54610D01*
X62228D01*
X64767Y717547D01*
Y720086D01*
X62228Y722625D01*
X54610D01*
X486417Y669293D02*
Y684528D01*
X494034D01*
X496573Y681988D01*
Y676910D01*
X494034Y674371D01*
X486417D01*
X491495D02*
X496573Y669293D01*
X511808Y684528D02*
X501652D01*
Y676910D01*
X506730Y679449D01*
X509269D01*
X511808Y676910D01*
Y671832D01*
X509269Y669293D01*
X504191D01*
X501652Y671832D01*
X527043Y684528D02*
X516887D01*
Y676910D01*
X521965Y679449D01*
X524504D01*
X527043Y676910D01*
Y671832D01*
X524504Y669293D01*
X519426D01*
X516887Y671832D01*
X482607Y746762D02*
Y761998D01*
X490224D01*
X492763Y759458D01*
Y754380D01*
X490224Y751841D01*
X482607D01*
X487685D02*
X492763Y746762D01*
X507998Y761998D02*
X497842D01*
Y754380D01*
X502920Y756919D01*
X505459D01*
X507998Y754380D01*
Y749302D01*
X505459Y746762D01*
X500381D01*
X497842Y749302D01*
X520694Y746762D02*
Y761998D01*
X513077Y754380D01*
X523233D01*
X317504Y605788D02*
Y593092D01*
X320043Y590552D01*
X325122D01*
X327661Y593092D01*
Y605788D01*
X342896Y590552D02*
X332739D01*
X342896Y600709D01*
Y603248D01*
X340357Y605788D01*
X335278D01*
X332739Y603248D01*
X44450Y280667D02*
X39372D01*
X41911D01*
Y267972D01*
X39372Y265432D01*
X36832D01*
X34293Y267972D01*
X49528Y265432D02*
X54607D01*
X52068D01*
Y280667D01*
X49528Y278128D01*
X367034Y815342D02*
Y830577D01*
X374652D01*
X377191Y828038D01*
Y822960D01*
X374652Y820421D01*
X367034D01*
X372113D02*
X377191Y815342D01*
X382269Y817882D02*
X384808Y815342D01*
X389887D01*
X392426Y817882D01*
Y828038D01*
X389887Y830577D01*
X384808D01*
X382269Y828038D01*
Y825499D01*
X384808Y822960D01*
X392426D01*
X384813Y859788D02*
X382274Y862327D01*
X377196D01*
X374657Y859788D01*
Y849632D01*
X377196Y847093D01*
X382274D01*
X384813Y849632D01*
X400048Y847093D02*
X389892D01*
X400048Y857249D01*
Y859788D01*
X397509Y862327D01*
X392431D01*
X389892Y859788D01*
X405127D02*
X407666Y862327D01*
X412744D01*
X415283Y859788D01*
Y849632D01*
X412744Y847093D01*
X407666D01*
X405127Y849632D01*
Y859788D01*
X269243Y863598D02*
X266704Y866137D01*
X261625D01*
X259086Y863598D01*
Y853442D01*
X261625Y850902D01*
X266704D01*
X269243Y853442D01*
X274321Y850902D02*
X279400D01*
X276860D01*
Y866137D01*
X274321Y863598D01*
X287017Y853442D02*
X289556Y850902D01*
X294635D01*
X297174Y853442D01*
Y863598D01*
X294635Y866137D01*
X289556D01*
X287017Y863598D01*
Y861059D01*
X289556Y858520D01*
X297174D01*
X869954Y806448D02*
Y793752D01*
X872493Y791212D01*
X877572D01*
X880111Y793752D01*
Y806448D01*
X885189Y803908D02*
X887728Y806448D01*
X892807D01*
X895346Y803908D01*
Y801369D01*
X892807Y798830D01*
X890267D01*
X892807D01*
X895346Y796291D01*
Y793752D01*
X892807Y791212D01*
X887728D01*
X885189Y793752D01*
X886464Y226057D02*
Y213362D01*
X889003Y210823D01*
X894082D01*
X896621Y213362D01*
Y226057D01*
X911856D02*
X906777Y223518D01*
X901699Y218440D01*
Y213362D01*
X904238Y210823D01*
X909317D01*
X911856Y213362D01*
Y215901D01*
X909317Y218440D01*
X901699D01*
X373386Y255268D02*
Y245111D01*
X378464Y240033D01*
X383543Y245111D01*
Y255268D01*
X388621Y240033D02*
Y255268D01*
X396238D01*
X398778Y252728D01*
Y247650D01*
X396238Y245111D01*
X388621D01*
X393699D02*
X398778Y240033D01*
X403856D02*
X408934D01*
X406395D01*
Y255268D01*
X403856Y252728D01*
X76207Y182882D02*
Y198118D01*
X83824D01*
X86363Y195578D01*
Y190500D01*
X83824Y187961D01*
X76207D01*
X81285D02*
X86363Y182882D01*
X101598Y198118D02*
X91442D01*
Y190500D01*
X96520Y193039D01*
X99059D01*
X101598Y190500D01*
Y185422D01*
X99059Y182882D01*
X93981D01*
X91442Y185422D01*
X106677Y195578D02*
X109216Y198118D01*
X114294D01*
X116833Y195578D01*
Y193039D01*
X114294Y190500D01*
X111755D01*
X114294D01*
X116833Y187961D01*
Y185422D01*
X114294Y182882D01*
X109216D01*
X106677Y185422D01*
X187962Y198123D02*
X185423Y195584D01*
Y190506D01*
X187962Y187967D01*
X198119D01*
X200658Y190506D01*
Y195584D01*
X198119Y198123D01*
X203197Y203202D02*
Y213358D01*
X185423Y228593D02*
Y218437D01*
X200658D01*
Y228593D01*
X193040Y218437D02*
Y223515D01*
X166374Y760727D02*
Y745492D01*
X173992D01*
X176531Y748032D01*
Y758188D01*
X173992Y760727D01*
X166374D01*
X181609Y748032D02*
X184148Y745492D01*
X189227D01*
X191766Y748032D01*
Y758188D01*
X189227Y760727D01*
X184148D01*
X181609Y758188D01*
Y755649D01*
X184148Y753110D01*
X191766D01*
X190507Y720092D02*
Y735328D01*
X198124D01*
X200663Y732788D01*
Y727710D01*
X198124Y725171D01*
X190507D01*
X195585D02*
X200663Y720092D01*
X215898Y735328D02*
X205742D01*
Y727710D01*
X210820Y730249D01*
X213359D01*
X215898Y727710D01*
Y722632D01*
X213359Y720092D01*
X208281D01*
X205742Y722632D01*
X231133Y720092D02*
X220977D01*
X231133Y730249D01*
Y732788D01*
X228594Y735328D01*
X223516D01*
X220977Y732788D01*
X591827Y643893D02*
Y659128D01*
X599444D01*
X601983Y656588D01*
Y651510D01*
X599444Y648971D01*
X591827D01*
X596905D02*
X601983Y643893D01*
X614679D02*
Y659128D01*
X607062Y651510D01*
X617218D01*
X629914Y643893D02*
Y659128D01*
X622297Y651510D01*
X632453D01*
X591827Y666752D02*
Y681988D01*
X599444D01*
X601983Y679448D01*
Y674370D01*
X599444Y671831D01*
X591827D01*
X596905D02*
X601983Y666752D01*
X607062Y679448D02*
X609601Y681988D01*
X614679D01*
X617218Y679448D01*
Y676909D01*
X614679Y674370D01*
X612140D01*
X614679D01*
X617218Y671831D01*
Y669292D01*
X614679Y666752D01*
X609601D01*
X607062Y669292D01*
X622297Y679448D02*
X624836Y681988D01*
X629914D01*
X632453Y679448D01*
Y669292D01*
X629914Y666752D01*
X624836D01*
X622297Y669292D01*
Y679448D01*
X591827Y688343D02*
Y703577D01*
X599444D01*
X601983Y701038D01*
Y695960D01*
X599444Y693421D01*
X591827D01*
X596905D02*
X601983Y688343D01*
X617218D02*
X607062D01*
X617218Y698499D01*
Y701038D01*
X614679Y703577D01*
X609601D01*
X607062Y701038D01*
X622297Y703577D02*
X632453D01*
Y701038D01*
X622297Y690882D01*
Y688343D01*
X594366Y754382D02*
Y769617D01*
X601984D01*
X604523Y767078D01*
Y762000D01*
X601984Y759461D01*
X594366D01*
X599445D02*
X604523Y754382D01*
X609601D02*
X614680D01*
X612140D01*
Y769617D01*
X609601Y767078D01*
X629915Y754382D02*
Y769617D01*
X622297Y762000D01*
X632454D01*
X618493Y746758D02*
X615954Y749297D01*
X610875D01*
X608336Y746758D01*
Y736602D01*
X610875Y734062D01*
X615954D01*
X618493Y736602D01*
X623571Y734062D02*
X628650D01*
X626110D01*
Y749297D01*
X623571Y746758D01*
X636267D02*
X638806Y749297D01*
X643885D01*
X646424Y746758D01*
Y744219D01*
X643885Y741680D01*
X646424Y739141D01*
Y736602D01*
X643885Y734062D01*
X638806D01*
X636267Y736602D01*
Y739141D01*
X638806Y741680D01*
X636267Y744219D01*
Y746758D01*
X638806Y741680D02*
X643885D01*
X603253Y789938D02*
X600714Y792477D01*
X595635D01*
X593096Y789938D01*
Y779782D01*
X595635Y777243D01*
X600714D01*
X603253Y779782D01*
X608331Y777243D02*
X613410D01*
X610870D01*
Y792477D01*
X608331Y789938D01*
X631184Y792477D02*
X626105Y789938D01*
X621027Y784860D01*
Y779782D01*
X623566Y777243D01*
X628645D01*
X631184Y779782D01*
Y782321D01*
X628645Y784860D01*
X621027D01*
X885193Y721358D02*
X882654Y723897D01*
X877575D01*
X875036Y721358D01*
Y711202D01*
X877575Y708662D01*
X882654D01*
X885193Y711202D01*
X890271Y708662D02*
X895350D01*
X892810D01*
Y723897D01*
X890271Y721358D01*
X902967Y723897D02*
X913124D01*
Y721358D01*
X902967Y711202D01*
Y708662D01*
X459741Y787398D02*
X454663D01*
X457202D01*
Y774702D01*
X454663Y772162D01*
X452123D01*
X449584Y774702D01*
X474976Y787398D02*
X464819D01*
Y779780D01*
X469897Y782319D01*
X472437D01*
X474976Y779780D01*
Y774702D01*
X472437Y772162D01*
X467358D01*
X464819Y774702D01*
X689613Y510537D02*
Y507998D01*
X694692Y502920D01*
X699770Y507998D01*
Y510537D01*
X694692Y502920D02*
Y495303D01*
X704848D02*
X709927D01*
X707388D01*
Y510537D01*
X704848Y507998D01*
X1215396Y654047D02*
Y641352D01*
X1217935Y638812D01*
X1223013D01*
X1225553Y641352D01*
Y654047D01*
X1230631Y641352D02*
X1233170Y638812D01*
X1238248D01*
X1240788Y641352D01*
Y643891D01*
X1238248Y646430D01*
X1233170D01*
X1230631Y648969D01*
Y651508D01*
X1233170Y654047D01*
X1238248D01*
X1240788Y651508D01*
X1235709Y654047D02*
Y638812D01*
X1245866D02*
X1250944D01*
X1248405D01*
Y654047D01*
X1245866Y651508D01*
X763274Y226057D02*
Y213362D01*
X765813Y210823D01*
X770892D01*
X773431Y213362D01*
Y226057D01*
X778509Y213362D02*
X781048Y210823D01*
X786127D01*
X788666Y213362D01*
Y223518D01*
X786127Y226057D01*
X781048D01*
X778509Y223518D01*
Y220979D01*
X781048Y218440D01*
X788666D01*
X1219204Y467357D02*
Y454662D01*
X1221743Y452122D01*
X1226822D01*
X1229361Y454662D01*
Y467357D01*
X1234439Y464818D02*
X1236978Y467357D01*
X1242057D01*
X1244596Y464818D01*
Y462279D01*
X1242057Y459740D01*
X1244596Y457201D01*
Y454662D01*
X1242057Y452122D01*
X1236978D01*
X1234439Y454662D01*
Y457201D01*
X1236978Y459740D01*
X1234439Y462279D01*
Y464818D01*
X1236978Y459740D02*
X1242057D01*
X1219204Y598167D02*
Y585472D01*
X1221743Y582933D01*
X1226822D01*
X1229361Y585472D01*
Y598167D01*
X1234439D02*
X1244596D01*
Y595628D01*
X1234439Y585472D01*
Y582933D01*
X641354Y227327D02*
Y214632D01*
X643893Y212092D01*
X648972D01*
X651511Y214632D01*
Y227327D01*
X666746D02*
X656589D01*
Y219710D01*
X661667Y222249D01*
X664207D01*
X666746Y219710D01*
Y214632D01*
X664207Y212092D01*
X659128D01*
X656589Y214632D01*
X246384Y753108D02*
Y740412D01*
X248923Y737872D01*
X254002D01*
X256541Y740412D01*
Y753108D01*
X269237Y737872D02*
Y753108D01*
X261619Y745490D01*
X271776D01*
X24133Y453387D02*
Y440692D01*
X26672Y438153D01*
X31751D01*
X34290Y440692D01*
Y453387D01*
X39368Y438153D02*
X44447D01*
X41908D01*
Y453387D01*
X39368Y450848D01*
X129543Y447038D02*
X139700D01*
X134622D01*
Y431802D01*
X144778D02*
X149857D01*
X147318D01*
Y447038D01*
X144778Y444498D01*
X604523Y842008D02*
X601983Y844548D01*
X596905D01*
X594366Y842008D01*
Y839469D01*
X596905Y836930D01*
X601983D01*
X604523Y834391D01*
Y831852D01*
X601983Y829313D01*
X596905D01*
X594366Y831852D01*
X609601Y844548D02*
Y829313D01*
X614679Y834391D01*
X619758Y829313D01*
Y844548D01*
X624836Y829313D02*
X629914D01*
X627375D01*
Y844548D01*
X624836Y842008D01*
X161296Y627383D02*
Y642617D01*
X168913D01*
X171453Y640078D01*
Y635000D01*
X168913Y632461D01*
X161296D01*
X166374D02*
X171453Y627383D01*
X186688Y642617D02*
X176531D01*
Y635000D01*
X181609Y637539D01*
X184148D01*
X186688Y635000D01*
Y629922D01*
X184148Y627383D01*
X179070D01*
X176531Y629922D01*
X191766Y627383D02*
X196844D01*
X194305D01*
Y642617D01*
X191766Y640078D01*
X161297Y607062D02*
Y622298D01*
X168914D01*
X171453Y619758D01*
Y614680D01*
X168914Y612141D01*
X161297D01*
X166375D02*
X171453Y607062D01*
X186688Y622298D02*
X176532D01*
Y614680D01*
X181610Y617219D01*
X184149D01*
X186688Y614680D01*
Y609602D01*
X184149Y607062D01*
X179071D01*
X176532Y609602D01*
X191767Y619758D02*
X194306Y622298D01*
X199384D01*
X201923Y619758D01*
Y609602D01*
X199384Y607062D01*
X194306D01*
X191767Y609602D01*
Y619758D01*
X970287Y450853D02*
Y466087D01*
X977904D01*
X980443Y463548D01*
Y458470D01*
X977904Y455931D01*
X970287D01*
X975365D02*
X980443Y450853D01*
X993139D02*
Y466087D01*
X985522Y458470D01*
X995678D01*
X1000757Y453392D02*
X1003296Y450853D01*
X1008374D01*
X1010913Y453392D01*
Y463548D01*
X1008374Y466087D01*
X1003296D01*
X1000757Y463548D01*
Y461009D01*
X1003296Y458470D01*
X1010913D01*
X970287Y537212D02*
Y552448D01*
X977904D01*
X980443Y549908D01*
Y544830D01*
X977904Y542291D01*
X970287D01*
X975365D02*
X980443Y537212D01*
X993139D02*
Y552448D01*
X985522Y544830D01*
X995678D01*
X1000757Y549908D02*
X1003296Y552448D01*
X1008374D01*
X1010913Y549908D01*
Y547369D01*
X1008374Y544830D01*
X1010913Y542291D01*
Y539752D01*
X1008374Y537212D01*
X1003296D01*
X1000757Y539752D01*
Y542291D01*
X1003296Y544830D01*
X1000757Y547369D01*
Y549908D01*
X1003296Y544830D02*
X1008374D01*
X766767Y151132D02*
Y166367D01*
X774384D01*
X776923Y163828D01*
Y158750D01*
X774384Y156211D01*
X766767D01*
X771845D02*
X776923Y151132D01*
X789619D02*
Y166367D01*
X782002Y158750D01*
X792158D01*
X797237Y166367D02*
X807393D01*
Y163828D01*
X797237Y153672D01*
Y151132D01*
X1303027Y346393D02*
Y361628D01*
X1310644D01*
X1313183Y359088D01*
Y354010D01*
X1310644Y351471D01*
X1303027D01*
X1308105D02*
X1313183Y346393D01*
X1325879D02*
Y361628D01*
X1318262Y354010D01*
X1328418D01*
X1343653Y361628D02*
X1338575Y359088D01*
X1333497Y354010D01*
Y348932D01*
X1336036Y346393D01*
X1341114D01*
X1343653Y348932D01*
Y351471D01*
X1341114Y354010D01*
X1333497D01*
X970287Y579123D02*
Y594357D01*
X977904D01*
X980443Y591818D01*
Y586740D01*
X977904Y584201D01*
X970287D01*
X975365D02*
X980443Y579123D01*
X993139D02*
Y594357D01*
X985522Y586740D01*
X995678D01*
X1010913Y594357D02*
X1000757D01*
Y586740D01*
X1005835Y589279D01*
X1008374D01*
X1010913Y586740D01*
Y581662D01*
X1008374Y579123D01*
X1003296D01*
X1000757Y581662D01*
X970287Y515622D02*
Y530858D01*
X977904D01*
X980443Y528318D01*
Y523240D01*
X977904Y520701D01*
X970287D01*
X975365D02*
X980443Y515622D01*
X993139D02*
Y530858D01*
X985522Y523240D01*
X995678D01*
X1000757Y528318D02*
X1003296Y530858D01*
X1008374D01*
X1010913Y528318D01*
Y525779D01*
X1008374Y523240D01*
X1005835D01*
X1008374D01*
X1010913Y520701D01*
Y518162D01*
X1008374Y515622D01*
X1003296D01*
X1000757Y518162D01*
X753117Y396242D02*
Y411478D01*
X760734D01*
X763273Y408938D01*
Y403860D01*
X760734Y401321D01*
X753117D01*
X758195D02*
X763273Y396242D01*
X775969D02*
Y411478D01*
X768352Y403860D01*
X778508D01*
X793743Y396242D02*
X783587D01*
X793743Y406399D01*
Y408938D01*
X791204Y411478D01*
X786126D01*
X783587Y408938D01*
X1067126Y411483D02*
Y426717D01*
X1074743D01*
X1077282Y424178D01*
Y419100D01*
X1074743Y416561D01*
X1067126D01*
X1072204D02*
X1077282Y411483D01*
X1089978D02*
Y426717D01*
X1082361Y419100D01*
X1092518D01*
X1097596Y411483D02*
X1102674D01*
X1100135D01*
Y426717D01*
X1097596Y424178D01*
X810267Y397513D02*
Y412747D01*
X817884D01*
X820423Y410208D01*
Y405130D01*
X817884Y402591D01*
X810267D01*
X815345D02*
X820423Y397513D01*
X833119D02*
Y412747D01*
X825502Y405130D01*
X835658D01*
X840737Y410208D02*
X843276Y412747D01*
X848354D01*
X850893Y410208D01*
Y400052D01*
X848354Y397513D01*
X843276D01*
X840737Y400052D01*
Y410208D01*
X1371597Y710257D02*
X1356362D01*
Y717874D01*
X1358902Y720413D01*
X1363980D01*
X1366519Y717874D01*
Y710257D01*
Y715335D02*
X1371597Y720413D01*
X1358902Y725492D02*
X1356362Y728031D01*
Y733109D01*
X1358902Y735648D01*
X1361441D01*
X1363980Y733109D01*
Y730570D01*
Y733109D01*
X1366519Y735648D01*
X1369058D01*
X1371597Y733109D01*
Y728031D01*
X1369058Y725492D01*
Y740727D02*
X1371597Y743266D01*
Y748344D01*
X1369058Y750883D01*
X1358902D01*
X1356362Y748344D01*
Y743266D01*
X1358902Y740727D01*
X1361441D01*
X1363980Y743266D01*
Y750883D01*
X1067447Y461012D02*
Y476247D01*
X1075064D01*
X1077603Y473708D01*
Y468630D01*
X1075064Y466091D01*
X1067447D01*
X1072525D02*
X1077603Y461012D01*
X1082682Y473708D02*
X1085221Y476247D01*
X1090299D01*
X1092838Y473708D01*
Y471169D01*
X1090299Y468630D01*
X1087760D01*
X1090299D01*
X1092838Y466091D01*
Y463552D01*
X1090299Y461012D01*
X1085221D01*
X1082682Y463552D01*
X1097917Y473708D02*
X1100456Y476247D01*
X1105534D01*
X1108073Y473708D01*
Y471169D01*
X1105534Y468630D01*
X1108073Y466091D01*
Y463552D01*
X1105534Y461012D01*
X1100456D01*
X1097917Y463552D01*
Y466091D01*
X1100456Y468630D01*
X1097917Y471169D01*
Y473708D01*
X1100456Y468630D02*
X1105534D01*
X557537Y148593D02*
Y163827D01*
X565154D01*
X567693Y161288D01*
Y156210D01*
X565154Y153671D01*
X557537D01*
X562615D02*
X567693Y148593D01*
X572772Y161288D02*
X575311Y163827D01*
X580389D01*
X582928Y161288D01*
Y158749D01*
X580389Y156210D01*
X577850D01*
X580389D01*
X582928Y153671D01*
Y151132D01*
X580389Y148593D01*
X575311D01*
X572772Y151132D01*
X588007Y163827D02*
X598163D01*
Y161288D01*
X588007Y151132D01*
Y148593D01*
X1304297Y172722D02*
Y187957D01*
X1311914D01*
X1314453Y185418D01*
Y180340D01*
X1311914Y177801D01*
X1304297D01*
X1309375D02*
X1314453Y172722D01*
X1319532Y185418D02*
X1322071Y187957D01*
X1327149D01*
X1329688Y185418D01*
Y182879D01*
X1327149Y180340D01*
X1324610D01*
X1327149D01*
X1329688Y177801D01*
Y175262D01*
X1327149Y172722D01*
X1322071D01*
X1319532Y175262D01*
X1344923Y187957D02*
X1339845Y185418D01*
X1334767Y180340D01*
Y175262D01*
X1337306Y172722D01*
X1342384D01*
X1344923Y175262D01*
Y177801D01*
X1342384Y180340D01*
X1334767D01*
X970287Y558802D02*
Y574038D01*
X977904D01*
X980443Y571498D01*
Y566420D01*
X977904Y563881D01*
X970287D01*
X975365D02*
X980443Y558802D01*
X985522Y571498D02*
X988061Y574038D01*
X993139D01*
X995678Y571498D01*
Y568959D01*
X993139Y566420D01*
X990600D01*
X993139D01*
X995678Y563881D01*
Y561342D01*
X993139Y558802D01*
X988061D01*
X985522Y561342D01*
X1010913Y574038D02*
X1000757D01*
Y566420D01*
X1005835Y568959D01*
X1008374D01*
X1010913Y566420D01*
Y561342D01*
X1008374Y558802D01*
X1003296D01*
X1000757Y561342D01*
X1065537Y523242D02*
Y538478D01*
X1073154D01*
X1075693Y535938D01*
Y530860D01*
X1073154Y528321D01*
X1065537D01*
X1070615D02*
X1075693Y523242D01*
X1080772Y535938D02*
X1083311Y538478D01*
X1088389D01*
X1090928Y535938D01*
Y533399D01*
X1088389Y530860D01*
X1085850D01*
X1088389D01*
X1090928Y528321D01*
Y525782D01*
X1088389Y523242D01*
X1083311D01*
X1080772Y525782D01*
X1103624Y523242D02*
Y538478D01*
X1096007Y530860D01*
X1106163D01*
X1066807Y574043D02*
Y589277D01*
X1074424D01*
X1076963Y586738D01*
Y581660D01*
X1074424Y579121D01*
X1066807D01*
X1071885D02*
X1076963Y574043D01*
X1082042Y586738D02*
X1084581Y589277D01*
X1089659D01*
X1092198Y586738D01*
Y584199D01*
X1089659Y581660D01*
X1087120D01*
X1089659D01*
X1092198Y579121D01*
Y576582D01*
X1089659Y574043D01*
X1084581D01*
X1082042Y576582D01*
X1097277Y586738D02*
X1099816Y589277D01*
X1104894D01*
X1107433Y586738D01*
Y584199D01*
X1104894Y581660D01*
X1102355D01*
X1104894D01*
X1107433Y579121D01*
Y576582D01*
X1104894Y574043D01*
X1099816D01*
X1097277Y576582D01*
X969967Y495303D02*
Y510537D01*
X977584D01*
X980123Y507998D01*
Y502920D01*
X977584Y500381D01*
X969967D01*
X975045D02*
X980123Y495303D01*
X985202Y507998D02*
X987741Y510537D01*
X992819D01*
X995358Y507998D01*
Y505459D01*
X992819Y502920D01*
X990280D01*
X992819D01*
X995358Y500381D01*
Y497842D01*
X992819Y495303D01*
X987741D01*
X985202Y497842D01*
X1010593Y495303D02*
X1000437D01*
X1010593Y505459D01*
Y507998D01*
X1008054Y510537D01*
X1002976D01*
X1000437Y507998D01*
X1310646Y557533D02*
Y572767D01*
X1318263D01*
X1320802Y570228D01*
Y565150D01*
X1318263Y562611D01*
X1310646D01*
X1315724D02*
X1320802Y557533D01*
X1325881Y570228D02*
X1328420Y572767D01*
X1333498D01*
X1336038Y570228D01*
Y567689D01*
X1333498Y565150D01*
X1330959D01*
X1333498D01*
X1336038Y562611D01*
Y560072D01*
X1333498Y557533D01*
X1328420D01*
X1325881Y560072D01*
X1341116Y557533D02*
X1346194D01*
X1343655D01*
Y572767D01*
X1341116Y570228D01*
X1196347Y153673D02*
Y168908D01*
X1203964D01*
X1206503Y166368D01*
Y161290D01*
X1203964Y158751D01*
X1196347D01*
X1201425D02*
X1206503Y153673D01*
X1221738D02*
X1211582D01*
X1221738Y163829D01*
Y166368D01*
X1219199Y168908D01*
X1214121D01*
X1211582Y166368D01*
X1226817Y156212D02*
X1229356Y153673D01*
X1234434D01*
X1236973Y156212D01*
Y166368D01*
X1234434Y168908D01*
X1229356D01*
X1226817Y166368D01*
Y163829D01*
X1229356Y161290D01*
X1236973D01*
X970287Y473713D02*
Y488947D01*
X977904D01*
X980443Y486408D01*
Y481330D01*
X977904Y478791D01*
X970287D01*
X975365D02*
X980443Y473713D01*
X995678D02*
X985522D01*
X995678Y483869D01*
Y486408D01*
X993139Y488947D01*
X988061D01*
X985522Y486408D01*
X1000757D02*
X1003296Y488947D01*
X1008374D01*
X1010913Y486408D01*
Y483869D01*
X1008374Y481330D01*
X1010913Y478791D01*
Y476252D01*
X1008374Y473713D01*
X1003296D01*
X1000757Y476252D01*
Y478791D01*
X1003296Y481330D01*
X1000757Y483869D01*
Y486408D01*
X1003296Y481330D02*
X1008374D01*
X970287Y599442D02*
Y614678D01*
X977904D01*
X980443Y612138D01*
Y607060D01*
X977904Y604521D01*
X970287D01*
X975365D02*
X980443Y599442D01*
X995678D02*
X985522D01*
X995678Y609599D01*
Y612138D01*
X993139Y614678D01*
X988061D01*
X985522Y612138D01*
X1010913Y614678D02*
X1005835Y612138D01*
X1000757Y607060D01*
Y601982D01*
X1003296Y599442D01*
X1008374D01*
X1010913Y601982D01*
Y604521D01*
X1008374Y607060D01*
X1000757D01*
X878847Y398783D02*
Y414017D01*
X886464D01*
X889003Y411478D01*
Y406400D01*
X886464Y403861D01*
X878847D01*
X883925D02*
X889003Y398783D01*
X904238D02*
X894082D01*
X904238Y408939D01*
Y411478D01*
X901699Y414017D01*
X896621D01*
X894082Y411478D01*
X919473Y414017D02*
X909317D01*
Y406400D01*
X914395Y408939D01*
X916934D01*
X919473Y406400D01*
Y401322D01*
X916934Y398783D01*
X911856D01*
X909317Y401322D01*
X932187Y398783D02*
Y414017D01*
X939804D01*
X942343Y411478D01*
Y406400D01*
X939804Y403861D01*
X932187D01*
X937265D02*
X942343Y398783D01*
X957578D02*
X947422D01*
X957578Y408939D01*
Y411478D01*
X955039Y414017D01*
X949961D01*
X947422Y411478D01*
X970274Y398783D02*
Y414017D01*
X962657Y406400D01*
X972813D01*
X336557Y172722D02*
Y187957D01*
X344174D01*
X346713Y185418D01*
Y180340D01*
X344174Y177801D01*
X336557D01*
X341635D02*
X346713Y172722D01*
X361948D02*
X351792D01*
X361948Y182879D01*
Y185418D01*
X359409Y187957D01*
X354331D01*
X351792Y185418D01*
X367027D02*
X369566Y187957D01*
X374644D01*
X377183Y185418D01*
Y182879D01*
X374644Y180340D01*
X372105D01*
X374644D01*
X377183Y177801D01*
Y175262D01*
X374644Y172722D01*
X369566D01*
X367027Y175262D01*
X984257Y151132D02*
Y166367D01*
X991874D01*
X994413Y163828D01*
Y158750D01*
X991874Y156211D01*
X984257D01*
X989335D02*
X994413Y151132D01*
X1009648D02*
X999492D01*
X1009648Y161289D01*
Y163828D01*
X1007109Y166367D01*
X1002031D01*
X999492Y163828D01*
X1024883Y151132D02*
X1014727D01*
X1024883Y161289D01*
Y163828D01*
X1022344Y166367D01*
X1017266D01*
X1014727Y163828D01*
X256546Y527052D02*
Y542287D01*
X264163D01*
X266702Y539748D01*
Y534670D01*
X264163Y532131D01*
X256546D01*
X261624D02*
X266702Y527052D01*
X281938D02*
X271781D01*
X281938Y537209D01*
Y539748D01*
X279398Y542287D01*
X274320D01*
X271781Y539748D01*
X287016Y527052D02*
X292094D01*
X289555D01*
Y542287D01*
X287016Y539748D01*
X373387Y379733D02*
Y394967D01*
X381004D01*
X383543Y392428D01*
Y387350D01*
X381004Y384811D01*
X373387D01*
X378465D02*
X383543Y379733D01*
X398778D02*
X388622D01*
X398778Y389889D01*
Y392428D01*
X396239Y394967D01*
X391161D01*
X388622Y392428D01*
X403857D02*
X406396Y394967D01*
X411474D01*
X414013Y392428D01*
Y382272D01*
X411474Y379733D01*
X406396D01*
X403857Y382272D01*
Y392428D01*
X635006Y397513D02*
Y412747D01*
X642624D01*
X645163Y410208D01*
Y405130D01*
X642624Y402591D01*
X635006D01*
X640085D02*
X645163Y397513D01*
X650241D02*
X655320D01*
X652780D01*
Y412747D01*
X650241Y410208D01*
X662937Y400052D02*
X665476Y397513D01*
X670555D01*
X673094Y400052D01*
Y410208D01*
X670555Y412747D01*
X665476D01*
X662937Y410208D01*
Y407669D01*
X665476Y405130D01*
X673094D01*
X687076Y397513D02*
Y412747D01*
X694694D01*
X697233Y410208D01*
Y405130D01*
X694694Y402591D01*
X687076D01*
X692154D02*
X697233Y397513D01*
X702311D02*
X707390D01*
X704850D01*
Y412747D01*
X702311Y410208D01*
X715007D02*
X717546Y412747D01*
X722625D01*
X725164Y410208D01*
Y407669D01*
X722625Y405130D01*
X725164Y402591D01*
Y400052D01*
X722625Y397513D01*
X717546D01*
X715007Y400052D01*
Y402591D01*
X717546Y405130D01*
X715007Y407669D01*
Y410208D01*
X717546Y405130D02*
X722625D01*
X269246Y149862D02*
Y165098D01*
X276864D01*
X279403Y162558D01*
Y157480D01*
X276864Y154941D01*
X269246D01*
X274324D02*
X279403Y149862D01*
X284481D02*
X289560D01*
X287020D01*
Y165098D01*
X284481Y162558D01*
X297177Y165098D02*
X307334D01*
Y162558D01*
X297177Y152402D01*
Y149862D01*
X1252226Y699772D02*
Y715007D01*
X1259844D01*
X1262383Y712468D01*
Y707390D01*
X1259844Y704851D01*
X1252226D01*
X1257305D02*
X1262383Y699772D01*
X1267461D02*
X1272540D01*
X1270000D01*
Y715007D01*
X1267461Y712468D01*
X1290314Y715007D02*
X1285235Y712468D01*
X1280157Y707390D01*
Y702312D01*
X1282696Y699772D01*
X1287775D01*
X1290314Y702312D01*
Y704851D01*
X1287775Y707390D01*
X1280157D01*
X1065536Y668023D02*
Y683258D01*
X1073154D01*
X1075693Y680718D01*
Y675640D01*
X1073154Y673101D01*
X1065536D01*
X1070614D02*
X1075693Y668023D01*
X1080771D02*
X1085850D01*
X1083310D01*
Y683258D01*
X1080771Y680718D01*
X1103624Y683258D02*
X1093467D01*
Y675640D01*
X1098546Y678179D01*
X1101085D01*
X1103624Y675640D01*
Y670562D01*
X1101085Y668023D01*
X1096006D01*
X1093467Y670562D01*
X193046Y836933D02*
Y852168D01*
X200664D01*
X203203Y849628D01*
Y844550D01*
X200664Y842011D01*
X193046D01*
X198125D02*
X203203Y836933D01*
X208281D02*
X213360D01*
X210820D01*
Y852168D01*
X208281Y849628D01*
X220977D02*
X223516Y852168D01*
X228595D01*
X231134Y849628D01*
Y847089D01*
X228595Y844550D01*
X226056D01*
X228595D01*
X231134Y842011D01*
Y839472D01*
X228595Y836933D01*
X223516D01*
X220977Y839472D01*
X114306Y735332D02*
Y750567D01*
X121924D01*
X124463Y748028D01*
Y742950D01*
X121924Y740411D01*
X114306D01*
X119384D02*
X124463Y735332D01*
X129541D02*
X134620D01*
X132080D01*
Y750567D01*
X129541Y748028D01*
X152394Y735332D02*
X142237D01*
X152394Y745489D01*
Y748028D01*
X149855Y750567D01*
X144776D01*
X142237Y748028D01*
X290835Y737872D02*
Y753108D01*
X298453D01*
X300992Y750568D01*
Y745490D01*
X298453Y742951D01*
X290835D01*
X295914D02*
X300992Y737872D01*
X306070D02*
X311149D01*
X308610D01*
Y753108D01*
X306070Y750568D01*
X318766Y737872D02*
X323845D01*
X321306D01*
Y753108D01*
X318766Y750568D01*
X370846Y739143D02*
Y754378D01*
X378464D01*
X381003Y751838D01*
Y746760D01*
X378464Y744221D01*
X370846D01*
X375924D02*
X381003Y739143D01*
X386081D02*
X391160D01*
X388620D01*
Y754378D01*
X386081Y751838D01*
X398777D02*
X401316Y754378D01*
X406395D01*
X408934Y751838D01*
Y741682D01*
X406395Y739143D01*
X401316D01*
X398777Y741682D01*
Y751838D01*
X299724Y817883D02*
Y833118D01*
X307342D01*
X309881Y830578D01*
Y825500D01*
X307342Y822961D01*
X299724D01*
X304802D02*
X309881Y817883D01*
X314959Y830578D02*
X317498Y833118D01*
X322577D01*
X325116Y830578D01*
Y828039D01*
X322577Y825500D01*
X325116Y822961D01*
Y820422D01*
X322577Y817883D01*
X317498D01*
X314959Y820422D01*
Y822961D01*
X317498Y825500D01*
X314959Y828039D01*
Y830578D01*
X317498Y825500D02*
X322577D01*
X161294Y561343D02*
Y576577D01*
X168912D01*
X171451Y574038D01*
Y568960D01*
X168912Y566421D01*
X161294D01*
X166373D02*
X171451Y561343D01*
X176529Y576577D02*
X186686D01*
Y574038D01*
X176529Y563882D01*
Y561343D01*
X121924Y690882D02*
Y706117D01*
X129542D01*
X132081Y703578D01*
Y698500D01*
X129542Y695961D01*
X121924D01*
X127002D02*
X132081Y690882D01*
X147316Y706117D02*
X142238Y703578D01*
X137159Y698500D01*
Y693422D01*
X139698Y690882D01*
X144777D01*
X147316Y693422D01*
Y695961D01*
X144777Y698500D01*
X137159D01*
X417834Y264163D02*
Y279398D01*
X425452D01*
X427991Y276858D01*
Y271780D01*
X425452Y269241D01*
X417834D01*
X422912D02*
X427991Y264163D01*
X443226Y279398D02*
X433069D01*
Y271780D01*
X438148Y274319D01*
X440687D01*
X443226Y271780D01*
Y266702D01*
X440687Y264163D01*
X435608D01*
X433069Y266702D01*
X209554Y400052D02*
Y415288D01*
X217172D01*
X219711Y412748D01*
Y407670D01*
X217172Y405131D01*
X209554D01*
X214632D02*
X219711Y400052D01*
X232407D02*
Y415288D01*
X224789Y407670D01*
X234946D01*
X209554Y377192D02*
Y392427D01*
X217172D01*
X219711Y389888D01*
Y384810D01*
X217172Y382271D01*
X209554D01*
X214632D02*
X219711Y377192D01*
X224789Y389888D02*
X227328Y392427D01*
X232407D01*
X234946Y389888D01*
Y387349D01*
X232407Y384810D01*
X229867D01*
X232407D01*
X234946Y382271D01*
Y379732D01*
X232407Y377192D01*
X227328D01*
X224789Y379732D01*
X223524Y466092D02*
Y481328D01*
X231142D01*
X233681Y478788D01*
Y473710D01*
X231142Y471171D01*
X223524D01*
X228603D02*
X233681Y466092D01*
X248916D02*
X238759D01*
X248916Y476249D01*
Y478788D01*
X246377Y481328D01*
X241298D01*
X238759Y478788D01*
X209553Y445773D02*
Y461007D01*
X217171D01*
X219710Y458468D01*
Y453390D01*
X217171Y450851D01*
X209553D01*
X214632D02*
X219710Y445773D01*
X224788D02*
X229867D01*
X227328D01*
Y461007D01*
X224788Y458468D01*
X709933Y162558D02*
X704855D01*
X707394D01*
Y149862D01*
X704855Y147323D01*
X702315D01*
X699776Y149862D01*
X715011Y147323D02*
X720090D01*
X717550D01*
Y162558D01*
X715011Y160018D01*
X737864Y162558D02*
X732785Y160018D01*
X727707Y154940D01*
Y149862D01*
X730246Y147323D01*
X735325D01*
X737864Y149862D01*
Y152401D01*
X735325Y154940D01*
X727707D01*
X1347473Y236217D02*
X1342395D01*
X1344934D01*
Y223522D01*
X1342395Y220982D01*
X1339855D01*
X1337316Y223522D01*
X1352551Y220982D02*
X1357630D01*
X1355090D01*
Y236217D01*
X1352551Y233678D01*
X1375404Y236217D02*
X1365247D01*
Y228600D01*
X1370325Y231139D01*
X1372865D01*
X1375404Y228600D01*
Y223522D01*
X1372865Y220982D01*
X1367786D01*
X1365247Y223522D01*
X1347473Y685798D02*
X1342395D01*
X1344934D01*
Y673102D01*
X1342395Y670563D01*
X1339855D01*
X1337316Y673102D01*
X1352551Y670563D02*
X1357630D01*
X1355090D01*
Y685798D01*
X1352551Y683258D01*
X1372865Y670563D02*
Y685798D01*
X1365247Y678180D01*
X1375404D01*
X495303Y160018D02*
X490224D01*
X492764D01*
Y147322D01*
X490224Y144782D01*
X487685D01*
X485146Y147322D01*
X500381Y144782D02*
X505460D01*
X502920D01*
Y160018D01*
X500381Y157478D01*
X513077D02*
X515616Y160018D01*
X520695D01*
X523234Y157478D01*
Y154939D01*
X520695Y152400D01*
X518156D01*
X520695D01*
X523234Y149861D01*
Y147322D01*
X520695Y144782D01*
X515616D01*
X513077Y147322D01*
X1360172Y13973D02*
Y8895D01*
Y11434D01*
X1372868D01*
X1375408Y8895D01*
Y6355D01*
X1372868Y3816D01*
X1375408Y19051D02*
Y24130D01*
Y21590D01*
X1360172D01*
X1362712Y19051D01*
X1375408Y41904D02*
Y31747D01*
X1365251Y41904D01*
X1362712D01*
X1360172Y39365D01*
Y34286D01*
X1362712Y31747D01*
X1351282Y477518D02*
X1346204D01*
X1348743D01*
Y464822D01*
X1346204Y462282D01*
X1343665D01*
X1341125Y464822D01*
X1356360Y462282D02*
X1361439D01*
X1358900D01*
Y477518D01*
X1356360Y474978D01*
X1369056Y462282D02*
X1374135D01*
X1371595D01*
Y477518D01*
X1369056Y474978D01*
X1160783Y170177D02*
X1155704D01*
X1158244D01*
Y157482D01*
X1155704Y154943D01*
X1153165D01*
X1150626Y157482D01*
X1165861Y154943D02*
X1170940D01*
X1168400D01*
Y170177D01*
X1165861Y167638D01*
X1178557D02*
X1181096Y170177D01*
X1186175D01*
X1188714Y167638D01*
Y157482D01*
X1186175Y154943D01*
X1181096D01*
X1178557Y157482D01*
Y167638D01*
X415291Y161287D02*
X410213D01*
X412752D01*
Y148592D01*
X410213Y146053D01*
X407673D01*
X405134Y148592D01*
X420369D02*
X422908Y146053D01*
X427987D01*
X430526Y148592D01*
Y158748D01*
X427987Y161287D01*
X422908D01*
X420369Y158748D01*
Y156209D01*
X422908Y153670D01*
X430526D01*
X1117601Y750567D02*
X1112523D01*
X1115062D01*
Y737872D01*
X1112523Y735332D01*
X1109983D01*
X1107444Y737872D01*
X1122679Y748028D02*
X1125218Y750567D01*
X1130297D01*
X1132836Y748028D01*
Y745489D01*
X1130297Y742950D01*
X1132836Y740411D01*
Y737872D01*
X1130297Y735332D01*
X1125218D01*
X1122679Y737872D01*
Y740411D01*
X1125218Y742950D01*
X1122679Y745489D01*
Y748028D01*
X1125218Y742950D02*
X1130297D01*
X943611Y166367D02*
X938532D01*
X941072D01*
Y153672D01*
X938532Y151132D01*
X935993D01*
X933454Y153672D01*
X948689Y166367D02*
X958846D01*
Y163828D01*
X948689Y153672D01*
Y151132D01*
X17781Y165098D02*
X12702D01*
X15242D01*
Y152402D01*
X12702Y149862D01*
X10163D01*
X7624Y152402D01*
X33016Y165098D02*
X27938Y162558D01*
X22859Y157480D01*
Y152402D01*
X25398Y149862D01*
X30477D01*
X33016Y152402D01*
Y154941D01*
X30477Y157480D01*
X22859D01*
X129541Y839467D02*
X124462D01*
X127002D01*
Y826772D01*
X124462Y824232D01*
X121923D01*
X119384Y826772D01*
X142237Y824232D02*
Y839467D01*
X134619Y831850D01*
X144776D01*
X16511Y690878D02*
X11432D01*
X13972D01*
Y678182D01*
X11432Y675642D01*
X8893D01*
X6354Y678182D01*
X21589Y688338D02*
X24128Y690878D01*
X29207D01*
X31746Y688338D01*
Y685799D01*
X29207Y683260D01*
X26667D01*
X29207D01*
X31746Y680721D01*
Y678182D01*
X29207Y675642D01*
X24128D01*
X21589Y678182D01*
X321311Y485137D02*
X316232D01*
X318772D01*
Y472442D01*
X316232Y469902D01*
X313693D01*
X311154Y472442D01*
X336546Y469902D02*
X326389D01*
X336546Y480059D01*
Y482598D01*
X334007Y485137D01*
X328928D01*
X326389Y482598D01*
X17493Y529588D02*
X7337D01*
Y521970D01*
X12415D01*
X7337D01*
Y514352D01*
X22572Y529588D02*
Y514352D01*
X30189D01*
X32728Y516892D01*
Y519431D01*
X30189Y521970D01*
X22572D01*
X30189D01*
X32728Y524509D01*
Y527048D01*
X30189Y529588D01*
X22572D01*
X47964Y514352D02*
X37807D01*
X47964Y524509D01*
Y527048D01*
X45424Y529588D01*
X40346D01*
X37807Y527048D01*
X152402Y543558D02*
X142246D01*
Y535940D01*
X147324D01*
X142246D01*
Y528322D01*
X157481Y543558D02*
Y528322D01*
X165098D01*
X167638Y530862D01*
Y533401D01*
X165098Y535940D01*
X157481D01*
X165098D01*
X167638Y538479D01*
Y541018D01*
X165098Y543558D01*
X157481D01*
X172716Y528322D02*
X177794D01*
X175255D01*
Y543558D01*
X172716Y541018D01*
X243840Y505457D02*
X233683D01*
Y497840D01*
X238762D01*
X233683D01*
Y490223D01*
X248918D02*
X253997D01*
X251458D01*
Y505457D01*
X248918Y502918D01*
X161294Y662937D02*
Y647702D01*
X168912D01*
X171451Y650242D01*
Y660398D01*
X168912Y662937D01*
X161294D01*
X184147Y647702D02*
Y662937D01*
X176529Y655320D01*
X186686D01*
X161294Y600708D02*
Y585472D01*
X168912D01*
X171451Y588012D01*
Y598168D01*
X168912Y600708D01*
X161294D01*
X176529Y598168D02*
X179068Y600708D01*
X184147D01*
X186686Y598168D01*
Y595629D01*
X184147Y593090D01*
X181607D01*
X184147D01*
X186686Y590551D01*
Y588012D01*
X184147Y585472D01*
X179068D01*
X176529Y588012D01*
X417834Y306068D02*
Y290833D01*
X425452D01*
X427991Y293372D01*
Y303528D01*
X425452Y306068D01*
X417834D01*
X443226Y290833D02*
X433069D01*
X443226Y300989D01*
Y303528D01*
X440687Y306068D01*
X435608D01*
X433069Y303528D01*
X179073Y265427D02*
Y250193D01*
X186691D01*
X189230Y252732D01*
Y262888D01*
X186691Y265427D01*
X179073D01*
X194308Y250193D02*
X199387D01*
X196848D01*
Y265427D01*
X194308Y262888D01*
X637543Y552448D02*
X635004Y554987D01*
X629925D01*
X627386Y552448D01*
Y542292D01*
X629925Y539753D01*
X635004D01*
X637543Y542292D01*
X642621Y539753D02*
X647700D01*
X645160D01*
Y554987D01*
X642621Y552448D01*
X665474Y554987D02*
X655317D01*
Y547370D01*
X660396Y549909D01*
X662935D01*
X665474Y547370D01*
Y542292D01*
X662935Y539753D01*
X657856D01*
X655317Y542292D01*
X985523Y698498D02*
X982984Y701038D01*
X977905D01*
X975366Y698498D01*
Y688342D01*
X977905Y685803D01*
X982984D01*
X985523Y688342D01*
X990601Y685803D02*
X995680D01*
X993140D01*
Y701038D01*
X990601Y698498D01*
X1010915Y685803D02*
Y701038D01*
X1003297Y693420D01*
X1013454D01*
X985523Y673098D02*
X982984Y675638D01*
X977905D01*
X975366Y673098D01*
Y662942D01*
X977905Y660403D01*
X982984D01*
X985523Y662942D01*
X990601Y660403D02*
X995680D01*
X993140D01*
Y675638D01*
X990601Y673098D01*
X1003297D02*
X1005836Y675638D01*
X1010915D01*
X1013454Y673098D01*
Y670559D01*
X1010915Y668020D01*
X1008375D01*
X1010915D01*
X1013454Y665481D01*
Y662942D01*
X1010915Y660403D01*
X1005836D01*
X1003297Y662942D01*
X985523Y646428D02*
X982984Y648968D01*
X977905D01*
X975366Y646428D01*
Y636272D01*
X977905Y633732D01*
X982984D01*
X985523Y636272D01*
X990601Y633732D02*
X995680D01*
X993140D01*
Y648968D01*
X990601Y646428D01*
X1013454Y633732D02*
X1003297D01*
X1013454Y643889D01*
Y646428D01*
X1010915Y648968D01*
X1005836D01*
X1003297Y646428D01*
X651512Y668018D02*
X648973Y670557D01*
X643895D01*
X641355Y668018D01*
Y657862D01*
X643895Y655322D01*
X648973D01*
X651512Y657862D01*
X656590Y655322D02*
X661669D01*
X659130D01*
Y670557D01*
X656590Y668018D01*
X669286Y655322D02*
X674365D01*
X671825D01*
Y670557D01*
X669286Y668018D01*
X17783Y547368D02*
X15244Y549907D01*
X10165D01*
X7626Y547368D01*
Y537212D01*
X10165Y534673D01*
X15244D01*
X17783Y537212D01*
X22861Y534673D02*
X27940D01*
X25400D01*
Y549907D01*
X22861Y547368D01*
X35557D02*
X38096Y549907D01*
X43175D01*
X45714Y547368D01*
Y537212D01*
X43175Y534673D01*
X38096D01*
X35557Y537212D01*
Y547368D01*
X219711Y570228D02*
X217172Y572767D01*
X212093D01*
X209554Y570228D01*
Y560072D01*
X212093Y557533D01*
X217172D01*
X219711Y560072D01*
X224789D02*
X227328Y557533D01*
X232407D01*
X234946Y560072D01*
Y570228D01*
X232407Y572767D01*
X227328D01*
X224789Y570228D01*
Y567689D01*
X227328Y565150D01*
X234946D01*
X212092Y679451D02*
X209552Y676912D01*
Y671833D01*
X212092Y669294D01*
X222248D01*
X224788Y671833D01*
Y676912D01*
X222248Y679451D01*
X212092Y684529D02*
X209552Y687068D01*
Y692147D01*
X212092Y694686D01*
X214631D01*
X217170Y692147D01*
X219709Y694686D01*
X222248D01*
X224788Y692147D01*
Y687068D01*
X222248Y684529D01*
X219709D01*
X217170Y687068D01*
X214631Y684529D01*
X212092D01*
X217170Y687068D02*
Y692147D01*
X326391Y576578D02*
X323852Y579118D01*
X318773D01*
X316234Y576578D01*
Y566422D01*
X318773Y563882D01*
X323852D01*
X326391Y566422D01*
X331469Y579118D02*
X341626D01*
Y576578D01*
X331469Y566422D01*
Y563882D01*
X218441Y436878D02*
X215902Y439417D01*
X210823D01*
X208284Y436878D01*
Y426722D01*
X210823Y424183D01*
X215902D01*
X218441Y426722D01*
X233676Y439417D02*
X228598Y436878D01*
X223519Y431800D01*
Y426722D01*
X226058Y424183D01*
X231137D01*
X233676Y426722D01*
Y429261D01*
X231137Y431800D01*
X223519D01*
X33021Y405128D02*
X30482Y407668D01*
X25403D01*
X22864Y405128D01*
Y394972D01*
X25403Y392433D01*
X30482D01*
X33021Y394972D01*
X48256Y407668D02*
X38099D01*
Y400050D01*
X43177Y402589D01*
X45717D01*
X48256Y400050D01*
Y394972D01*
X45717Y392433D01*
X40638D01*
X38099Y394972D01*
X262888Y259079D02*
X265427Y261618D01*
Y266697D01*
X262888Y269236D01*
X252732D01*
X250193Y266697D01*
Y261618D01*
X252732Y259079D01*
X250193Y246383D02*
X265427D01*
X257810Y254001D01*
Y243844D01*
X233678Y260349D02*
X236217Y262888D01*
Y267967D01*
X233678Y270506D01*
X223522D01*
X220982Y267967D01*
Y262888D01*
X223522Y260349D01*
X233678Y255271D02*
X236217Y252732D01*
Y247653D01*
X233678Y245114D01*
X231139D01*
X228600Y247653D01*
Y250193D01*
Y247653D01*
X226061Y245114D01*
X223522D01*
X220982Y247653D01*
Y252732D01*
X223522Y255271D01*
X422911Y358138D02*
X420372Y360677D01*
X415293D01*
X412754Y358138D01*
Y347982D01*
X415293Y345443D01*
X420372D01*
X422911Y347982D01*
X438146Y345443D02*
X427989D01*
X438146Y355599D01*
Y358138D01*
X435607Y360677D01*
X430528D01*
X427989Y358138D01*
X364490Y342898D02*
X361951Y345438D01*
X356872D01*
X354333Y342898D01*
Y332742D01*
X356872Y330202D01*
X361951D01*
X364490Y332742D01*
X369568Y330202D02*
X374647D01*
X372108D01*
Y345438D01*
X369568Y342898D01*
D11*
X309530Y666290D02*
G03*
X309530Y666290I-1000J0D01*
G01*
X896294Y239130D02*
G03*
X896294Y239130I-1414J0D01*
G01*
X339730Y315470D02*
G03*
X339730Y315470I-1000J0D01*
G01*
X1373720Y180340D02*
G03*
X1373720Y180340I-1000J0D01*
G01*
X1328150Y152550D02*
G03*
X1328150Y152550I-1000J0D01*
G01*
X1116060D02*
G03*
X1116060Y152550I-1000J0D01*
G01*
X183880Y151280D02*
G03*
X183880Y151280I-1000J0D01*
G01*
X663940Y148740D02*
G03*
X663940Y148740I-1000J0D01*
G01*
X117150Y762000D02*
G03*
X117150Y762000I-1000J0D01*
G01*
X649914Y239130D02*
G03*
X649914Y239130I-1414J0D01*
G01*
X1215164Y399580D02*
G03*
X1215164Y399580I-1414J0D01*
G01*
Y511340D02*
G03*
X1215164Y511340I-1414J0D01*
G01*
X398510Y150010D02*
G03*
X398510Y150010I-1000J0D01*
G01*
X1165590Y721210D02*
G03*
X1165590Y721210I-1000J0D01*
G01*
X773104Y239130D02*
G03*
X773104Y239130I-1414J0D01*
G01*
X877300Y147470D02*
G03*
X877300Y147470I-1000J0D01*
G01*
X1372450Y844550D02*
G03*
X1372450Y844550I-1000J0D01*
G01*
Y629920D02*
G03*
X1372450Y629920I-1000J0D01*
G01*
X1374990Y393700D02*
G03*
X1374990Y393700I-1000J0D01*
G01*
X432800Y755500D02*
G03*
X432800Y755500I-1000J0D01*
G01*
X127760Y431610D02*
G03*
X127760Y431610I-1000J0D01*
G01*
X374530Y427990D02*
G03*
X374530Y427990I-1000J0D01*
G01*
X444500Y762000D02*
Y812800D01*
X393700Y762000D02*
Y812800D01*
X444500D01*
X393700Y762000D02*
X444500D01*
X202550Y284540D02*
Y335580D01*
X175260Y279580D02*
X175910Y335580D01*
X175260Y279580D02*
X179070Y275770D01*
X196850D01*
X202550Y281470D01*
X175910Y335580D02*
Y343730D01*
X176530Y344350D01*
X201930D01*
X202550Y343730D01*
Y335580D02*
Y343730D01*
X179070Y302440D02*
X198120D01*
X179070Y311330D02*
X198120D01*
X188595Y302440D02*
Y303075D01*
X181610Y311330D02*
X196850D01*
X188595Y303075D02*
X196850Y311330D01*
X181610D02*
X188595Y304345D01*
X202550Y281470D02*
Y284540D01*
D12*
X161220Y332750D02*
G03*
X161220Y332750I-2000J0D01*
G01*
D13*
X754760Y822510D02*
G03*
X754760Y822510I-2540J0D01*
G01*
X709730Y678210D02*
G03*
X709730Y678210I-1270J0D01*
G01*
D14*
X720090Y655320D02*
G03*
X717550Y657860I-2540J0D01*
G01*
Y543560D02*
G03*
X720090Y546100I0J2540D01*
G01*
X674370Y657860D02*
G03*
X671830Y655320I0J-2540D01*
G01*
Y546100D02*
G03*
X674370Y543560I2540J0D01*
G01*
X1170940Y617220D02*
G03*
X1150620Y617220I-10160J0D01*
G01*
X782420Y825510D02*
X830020D01*
X782420Y477510D02*
X830020D01*
X782420D02*
Y825510D01*
X830020Y477510D02*
Y825510D01*
X174576Y796036D02*
Y801624D01*
X182704D01*
X174576Y773176D02*
Y778764D01*
Y773176D02*
X182704D01*
X720090Y546100D02*
Y655320D01*
X671830Y546100D02*
Y655320D01*
X1131570Y617220D02*
Y668020D01*
X1189990Y617220D02*
Y668020D01*
X1131570D02*
X1189990D01*
X1131570Y617220D02*
X1150620D01*
X1170940D02*
X1189990D01*
X255524Y760984D02*
X298196D01*
X255524Y813816D02*
X298196D01*
D15*
X372700Y297180D02*
G03*
X372700Y297180I-1000J0D01*
G01*
D16*
X316230Y237120D02*
D03*
D17*
X502340Y693520D02*
X507940D01*
X502340Y706020D02*
X507940D01*
X502660Y727810D02*
X508260D01*
X502660Y740310D02*
X508260D01*
X309730Y605340D02*
Y644340D01*
X208430Y605340D02*
Y644340D01*
X2220Y287750D02*
Y377750D01*
X146220D01*
X134720Y287750D02*
X146220D01*
Y359250D02*
Y377750D01*
X2220Y287750D02*
X83720D01*
X146220D02*
Y307250D01*
X351890Y819210D02*
Y824810D01*
X364390Y819210D02*
Y824810D01*
X345210Y861210D02*
X348210D01*
X345210Y848210D02*
X348210D01*
X276630Y843430D02*
X279630D01*
X276630Y830430D02*
X279630D01*
X881280Y255830D02*
X883680D01*
X881280D02*
Y325830D01*
X884680D01*
X980680Y255830D02*
X983080D01*
Y325830D01*
X979680D02*
X983080D01*
X348730Y250470D02*
Y285470D01*
X283730Y250470D02*
X348730D01*
X283730D02*
Y285470D01*
X348730D01*
X102970Y229610D02*
Y235210D01*
X115470Y229610D02*
Y235210D01*
X176130Y145740D02*
Y265740D01*
X126130Y145740D02*
X176130D01*
X126130D02*
Y265740D01*
X176130D01*
X213460Y760470D02*
Y766070D01*
X225960Y760470D02*
Y766070D01*
X896770Y680490D02*
Y683490D01*
X883770Y680490D02*
Y683490D01*
X647550Y620140D02*
Y623140D01*
X660550Y620140D02*
Y623140D01*
Y578890D02*
Y581890D01*
X647550Y578890D02*
Y581890D01*
X566160Y647800D02*
X571760D01*
X566160Y660300D02*
X571760D01*
X566160Y669390D02*
X571760D01*
X566160Y681890D02*
X571760D01*
X565840Y690980D02*
X571440D01*
X565840Y703480D02*
X571440D01*
X568120Y748180D02*
X571120D01*
X568120Y735180D02*
X571120D01*
X567460Y777090D02*
X570460D01*
X567460Y790090D02*
X570460D01*
X565840Y755750D02*
X571440D01*
X565840Y768250D02*
X571440D01*
X943350Y467260D02*
X948950D01*
X943350Y454760D02*
X948950D01*
X943350Y551080D02*
X948950D01*
X943350Y538580D02*
X948950D01*
X943030Y487580D02*
X948630D01*
X943030Y475080D02*
X948630D01*
X943350Y529490D02*
X948950D01*
X943350Y516990D02*
X948950D01*
X943030Y509170D02*
X948630D01*
X943030Y496670D02*
X948630D01*
X943350Y592990D02*
X948950D01*
X943350Y580490D02*
X948950D01*
X943350Y613310D02*
X948950D01*
X943350Y600810D02*
X948950D01*
X943030Y572670D02*
X948630D01*
X943030Y560170D02*
X948630D01*
X1080510Y643990D02*
X1086110D01*
X1080510Y656490D02*
X1086110D01*
X517370Y826890D02*
Y841890D01*
X532370Y864390D02*
X562370D01*
X577370Y826890D02*
Y841890D01*
X532370Y804390D02*
X562370D01*
X1382720Y2540D02*
Y205740D01*
X1521620Y2540D02*
Y205740D01*
X1382720Y2540D02*
X1521620D01*
X1382720Y205740D02*
X1521620D01*
X1258310Y167540D02*
X1263910D01*
X1258310Y155040D02*
X1263910D01*
X1149350Y142550D02*
X1352550D01*
X1149350Y3650D02*
X1352550D01*
X1149350D02*
Y142550D01*
X1352550Y3650D02*
Y142550D01*
X937260D02*
X1140460D01*
X937260Y3650D02*
X1140460D01*
X937260D02*
Y142550D01*
X1140460Y3650D02*
Y142550D01*
X5080Y141280D02*
X208280D01*
X5080Y2380D02*
X208280D01*
X5080D02*
Y141280D01*
X208280Y2380D02*
Y141280D01*
X688340Y-160D02*
Y138740D01*
X485140Y-160D02*
Y138740D01*
Y-160D02*
X688340D01*
X485140Y138740D02*
X688340D01*
X341530Y819210D02*
Y824810D01*
X329030Y819210D02*
Y824810D01*
X330300Y749990D02*
Y755590D01*
X342800Y749990D02*
Y755590D01*
X353160Y749990D02*
Y755590D01*
X365660Y749990D02*
Y755590D01*
X106150Y736600D02*
Y838200D01*
X3650Y736600D02*
Y838200D01*
X106150D01*
X3650Y736600D02*
X106150D01*
X213460Y808730D02*
Y814330D01*
X225960Y808730D02*
Y814330D01*
X138330Y784600D02*
Y790200D01*
X125830Y784600D02*
Y790200D01*
X704750Y366770D02*
Y372370D01*
X692250Y366770D02*
Y372370D01*
X655220Y366770D02*
Y372370D01*
X642720Y366770D02*
Y372370D01*
X733300Y325830D02*
X736700D01*
Y255830D02*
Y325830D01*
X734300Y255830D02*
X736700D01*
X634900Y325830D02*
X638300D01*
X634900Y255830D02*
Y325830D01*
Y255830D02*
X637300D01*
X1127050Y484380D02*
Y487780D01*
X1197050D01*
Y485380D02*
Y487780D01*
X1127050Y385980D02*
Y389380D01*
Y385980D02*
X1197050D01*
Y388380D01*
X1127050Y596140D02*
Y599540D01*
X1197050D01*
Y597140D02*
Y599540D01*
X1127050Y497740D02*
Y501140D01*
Y497740D02*
X1197050D01*
Y500140D01*
X422910Y1110D02*
Y140010D01*
X219710Y1110D02*
Y140010D01*
Y1110D02*
X422910D01*
X219710Y140010D02*
X422910D01*
X1139190Y731210D02*
Y870110D01*
X1342390Y731210D02*
Y870110D01*
X1139190D02*
X1342390D01*
X1139190Y731210D02*
X1342390D01*
X827940Y366770D02*
Y372370D01*
X815440Y366770D02*
Y372370D01*
X777140Y366770D02*
Y372370D01*
X764640Y366770D02*
Y372370D01*
X622990Y151230D02*
X628590D01*
X622990Y163730D02*
X628590D01*
X830000Y165000D02*
X835600D01*
X830000Y152500D02*
X835600D01*
X856490Y325830D02*
X859890D01*
Y255830D02*
Y325830D01*
X857490Y255830D02*
X859890D01*
X758090Y325830D02*
X761490D01*
X758090Y255830D02*
Y325830D01*
Y255830D02*
X760490D01*
X901700Y-1430D02*
Y137470D01*
X698500Y-1430D02*
Y137470D01*
Y-1430D02*
X901700D01*
X698500Y137470D02*
X901700D01*
X1081780Y567590D02*
X1087380D01*
X1081780Y555090D02*
X1087380D01*
X1081780Y518060D02*
X1087380D01*
X1081780Y505560D02*
X1087380D01*
X1222750Y701140D02*
X1228350D01*
X1222750Y713640D02*
X1228350D01*
X1381450Y869950D02*
X1520350D01*
X1381450Y666750D02*
X1520350D01*
Y869950D01*
X1381450Y666750D02*
Y869950D01*
X1357730Y780790D02*
Y786390D01*
X1370230Y780790D02*
Y786390D01*
X1353920Y563620D02*
Y569220D01*
X1366420Y563620D02*
Y569220D01*
X1381450Y655320D02*
X1520350D01*
X1381450Y452120D02*
X1520350D01*
Y655320D01*
X1381450Y452120D02*
Y655320D01*
X1082100Y455830D02*
X1087700D01*
X1082100Y443330D02*
X1087700D01*
X1082100Y405030D02*
X1087700D01*
X1082100Y392530D02*
X1087700D01*
X1366420Y352800D02*
Y358400D01*
X1353920Y352800D02*
Y358400D01*
X1383990Y419100D02*
X1522890D01*
X1383990Y215900D02*
X1522890D01*
Y419100D01*
X1383990Y215900D02*
Y419100D01*
X1365150Y184210D02*
Y189810D01*
X1352650Y184210D02*
Y189810D01*
X900330Y366770D02*
Y372370D01*
X887830Y366770D02*
Y372370D01*
X951130Y366770D02*
Y372370D01*
X938630Y366770D02*
Y372370D01*
X1050030Y165000D02*
X1055630D01*
X1050030Y152500D02*
X1055630D01*
X356610Y149960D02*
X362210D01*
X356610Y162460D02*
X362210D01*
X225800Y153770D02*
X231400D01*
X225800Y166270D02*
X231400D01*
X251230Y674220D02*
X254230D01*
X251230Y687220D02*
X254230D01*
X943990Y661520D02*
X946990D01*
X943990Y674520D02*
X946990D01*
X943990Y685650D02*
X946990D01*
X943990Y698650D02*
X946990D01*
X943990Y636120D02*
X946990D01*
X943990Y649120D02*
X946990D01*
X290600Y576730D02*
X293600D01*
X290600Y563730D02*
X293600D01*
X129600Y671930D02*
X135200D01*
X129600Y684430D02*
X135200D01*
X211940Y531900D02*
Y534900D01*
X224940Y531900D02*
Y534900D01*
X129280Y577750D02*
X134880D01*
X129280Y565250D02*
X134880D01*
X129600Y662840D02*
X135200D01*
X129600Y650340D02*
X135200D01*
X129280Y599340D02*
X134880D01*
X129280Y586840D02*
X134880D01*
X129600Y641250D02*
X135200D01*
X129600Y628750D02*
X135200D01*
X129280Y620930D02*
X134880D01*
X129280Y608430D02*
X134880D01*
X237590Y529330D02*
Y534930D01*
X250090Y529330D02*
Y534930D01*
X70890Y548790D02*
X73890D01*
X70890Y535790D02*
X73890D01*
X326130Y393600D02*
X331730D01*
X326130Y381100D02*
X331730D01*
X326770Y356720D02*
X329770D01*
X326770Y369720D02*
X329770D01*
X326770Y330050D02*
X329770D01*
X326770Y343050D02*
X329770D01*
X383700Y287230D02*
X403700D01*
X383700Y307130D02*
X403700D01*
X172460Y403960D02*
X178060D01*
X172460Y416460D02*
X178060D01*
X172460Y383640D02*
X178060D01*
X172460Y396140D02*
X178060D01*
X66860Y429410D02*
X105860D01*
X66860Y479910D02*
X105860D01*
X172460Y467460D02*
X178060D01*
X172460Y479960D02*
X178060D01*
X172460Y459640D02*
X178060D01*
X172460Y447140D02*
X178060D01*
X90320Y404900D02*
Y407900D01*
X77320Y404900D02*
Y407900D01*
X388360Y278030D02*
X393960D01*
X388360Y265530D02*
X393960D01*
X292130Y461990D02*
X366130D01*
X292130Y404490D02*
Y461990D01*
Y404490D02*
X366130D01*
Y461990D01*
X263040Y295680D02*
Y298680D01*
X250040Y295680D02*
Y298680D01*
X236370Y295680D02*
Y298680D01*
X223370Y295680D02*
Y298680D01*
X175030Y425300D02*
X178030D01*
X175030Y438300D02*
X178030D01*
D18*
X393700Y787400D02*
X444500D01*
D19*
X2830Y668500D02*
X11130D01*
X2830Y576100D02*
Y668500D01*
Y576100D02*
X11130D01*
X39530D02*
X53130D01*
X39530Y668500D02*
X53130D01*
M02*
