M48
;Layer_Color=9474304
;FILE_FORMAT=4:4
METRIC,LZ
;TYPE=PLATED
T01F00S00C0.3110
T02F00S00C0.3500
T03F00S00C0.4110
T04F00S00C0.4511
T06F00S00C0.6110
T07F00S00C0.8128
T08F00S00C0.8500
T09F00S00C0.9900
T11F00S00C1.0200
T12F00S00C1.0500
T13F00S00C1.6000
T14F00S00C3.6500
;TYPE=NON_PLATED
T15F00S00C3.7500
%
T01
X0064516Y0048006
X006604Y0048895
X0067564
Y004699
X006604
X0069088Y0047879
X0079248Y0052451
X0080772Y005334
X0031369Y0051943
Y0050038
X0029845Y0051054
X0029718Y0049149
X0028194Y004826
Y0050165
X0024003Y0034671
X0022479Y0033782
Y0035687
X000508Y0059055
Y0065405
X0008382Y0076327
X0009652
X0010922
Y007874
X0009652
X0008382
Y0081153
X0009652
X0010922
X0015367Y007874
X0050546Y0078232
X0079375Y0056134
X0079248Y0054356
X0080899Y0055118
Y0057023
X0103505Y00635
X0105029Y0064389
Y0062484
X0104267Y006604
X0102743Y0065151
Y0067056
T02
X00027178Y0019558
X0004191Y00189738
X00056642Y0019558
X00062992Y0021082
X00056896Y00225552
X0004191Y00232156
X00026924Y00225552
X00020828Y0021082
T03
X0013589Y0042037
Y0049784
X0005207Y0053086
X0042926Y006985
X0045339Y0072263
X0049371Y0073406
X0051721
X0051689Y0069977
X0049339
X0081915Y0066294
T04
X003683Y0085344
X0039751Y0083312
T06
X002159Y0011811
X0136017Y0015621
X0107315Y0038989
Y0044069
Y0050419
X0094488Y0038862
X0089408
X0082169
X0077089Y0038989
X006985Y0038862
X0064897
X0035941
Y0036322
X0026035Y0038989
X0026162Y0051943
X0010922Y0051562
X0016764Y006858
X0018415
X0019939
X0026543Y0061976
X0033655Y0077343
X0033528Y008001
X0059817Y0074168
X0107188Y0063373
X0107315Y0055372
T07
X0112268Y0062992
Y0065532
X0119888
Y0062992
T08
X0094488Y0025273
X0097028
Y0032893
X0094488
X0112395Y0039878
Y0042418
Y0044958
Y0047498
Y0051054
Y0053594
X0120015
Y0051054
Y0047498
Y0044958
Y0042418
Y0039878
X0091948Y0032893
X0089408
X0084709
X0082169
X0079629
X0077089
X007239
X006985
X006731
X006477
Y0025273
X006731
X006985
X007239
X0077089
X0079629
X0082169
X0084709
X0089408
X0091948
X0084582Y0048641
Y0051181
Y0053721
X0076662
Y0051181
Y0048641
X0015113Y0024324
Y0016824
X0076662Y0056261
Y0058801
Y0061341
Y0063881
Y0066421
Y0068961
Y0071501
Y0074041
Y0076581
Y0079121
Y0081661
X0084582
Y0079121
Y0076581
Y0074041
Y0071501
Y0068961
Y0066421
Y0063881
Y0061341
Y0058801
Y0056261
X0112395Y0056134
Y0058674
X0120015
Y0056134
T09
X0051637Y0081189
X0051487Y0085689
X0057987
Y0081189
T11
X004064Y007747
Y008001
X004318
Y007747
T12
X0031663Y0042799
X0034163
T13
X0003048Y0008128
X0008128
X0013208
X0018288
X0024511Y0008001
X0029591
X0034671
X0039751
X0051054Y0007874
X0056134
X0061214
X0066294
X007239Y0007747
X007747
X008255
X008763
X0096266Y0008255
X0101346
X0106426
X0111506
X0117475
X0122555
X0127635
X0132715
X0144272Y0007874
Y0002794
Y0012954
Y0018034
X0144399Y002413
Y002921
Y003429
Y003937
X0144145Y0047752
Y0052832
X0005715Y00762
Y008128
X0116459Y0079121
X0121539
X0126619
X0131699
X0144145Y0079375
Y0084455
Y0074295
Y0069215
Y0062992
Y0057912
T14
X0004191Y0021082
T15
X010795Y0027813
X0047371Y0027305
X0047117Y0063881
X0107188Y008255
M30
