G04*
G04 #@! TF.GenerationSoftware,Altium Limited,Altium Designer,25.4.2 (15)*
G04*
G04 Layer_Color=8421504*
%FSLAX44Y44*%
%MOMM*%
G71*
G04*
G04 #@! TF.SameCoordinates,CA2AF886-8F4D-4062-A15D-1C6B51B4DCEA*
G04*
G04*
G04 #@! TF.FilePolarity,Positive*
G04*
G01*
G75*
%ADD20R,1.5500X1.5500*%
G04:AMPARAMS|DCode=21|XSize=2.37mm|YSize=1mm|CornerRadius=0.275mm|HoleSize=0mm|Usage=FLASHONLY|Rotation=270.000|XOffset=0mm|YOffset=0mm|HoleType=Round|Shape=RoundedRectangle|*
%AMROUNDEDRECTD21*
21,1,2.3700,0.4500,0,0,270.0*
21,1,1.8200,1.0000,0,0,270.0*
1,1,0.5500,-0.2250,-0.9100*
1,1,0.5500,-0.2250,0.9100*
1,1,0.5500,0.2250,0.9100*
1,1,0.5500,0.2250,-0.9100*
%
%ADD21ROUNDEDRECTD21*%
%ADD22R,1.5500X1.5500*%
%ADD23R,1.7000X1.9000*%
G04:AMPARAMS|DCode=24|XSize=2.24mm|YSize=1.33mm|CornerRadius=0.3162mm|HoleSize=0mm|Usage=FLASHONLY|Rotation=270.000|XOffset=0mm|YOffset=0mm|HoleType=Round|Shape=RoundedRectangle|*
%AMROUNDEDRECTD24*
21,1,2.2400,0.6975,0,0,270.0*
21,1,1.6075,1.3300,0,0,270.0*
1,1,0.6325,-0.3488,-0.8038*
1,1,0.6325,-0.3488,0.8038*
1,1,0.6325,0.3488,0.8038*
1,1,0.6325,0.3488,-0.8038*
%
%ADD24ROUNDEDRECTD24*%
%ADD25R,1.8000X1.4000*%
%ADD26R,1.9000X1.7000*%
%ADD27R,2.4000X5.9000*%
%ADD28R,2.3812X0.9334*%
%ADD29R,1.5500X0.6980*%
%ADD30R,1.5500X0.9900*%
%ADD31R,1.6000X1.8700*%
%ADD32R,1.8700X1.6000*%
%ADD33R,1.9500X2.6000*%
G04:AMPARAMS|DCode=34|XSize=1.26mm|YSize=1.76mm|CornerRadius=0.415mm|HoleSize=0mm|Usage=FLASHONLY|Rotation=0.000|XOffset=0mm|YOffset=0mm|HoleType=Round|Shape=RoundedRectangle|*
%AMROUNDEDRECTD34*
21,1,1.2600,0.9300,0,0,0.0*
21,1,0.4300,1.7600,0,0,0.0*
1,1,0.8300,0.2150,-0.4650*
1,1,0.8300,-0.2150,-0.4650*
1,1,0.8300,-0.2150,0.4650*
1,1,0.8300,0.2150,0.4650*
%
%ADD34ROUNDEDRECTD34*%
G04:AMPARAMS|DCode=35|XSize=2.37mm|YSize=1mm|CornerRadius=0.275mm|HoleSize=0mm|Usage=FLASHONLY|Rotation=180.000|XOffset=0mm|YOffset=0mm|HoleType=Round|Shape=RoundedRectangle|*
%AMROUNDEDRECTD35*
21,1,2.3700,0.4500,0,0,180.0*
21,1,1.8200,1.0000,0,0,180.0*
1,1,0.5500,-0.9100,0.2250*
1,1,0.5500,0.9100,0.2250*
1,1,0.5500,0.9100,-0.2250*
1,1,0.5500,-0.9100,-0.2250*
%
%ADD35ROUNDEDRECTD35*%
G04:AMPARAMS|DCode=36|XSize=1.7mm|YSize=2.2mm|CornerRadius=0.395mm|HoleSize=0mm|Usage=FLASHONLY|Rotation=0.000|XOffset=0mm|YOffset=0mm|HoleType=Round|Shape=RoundedRectangle|*
%AMROUNDEDRECTD36*
21,1,1.7000,1.4100,0,0,0.0*
21,1,0.9100,2.2000,0,0,0.0*
1,1,0.7900,0.4550,-0.7050*
1,1,0.7900,-0.4550,-0.7050*
1,1,0.7900,-0.4550,0.7050*
1,1,0.7900,0.4550,0.7050*
%
%ADD36ROUNDEDRECTD36*%
D20*
X516890Y699770D02*
D03*
X493390D02*
D03*
X517210Y734060D02*
D03*
X493710D02*
D03*
X580710Y654050D02*
D03*
X557210D02*
D03*
X580710Y675640D02*
D03*
X557210D02*
D03*
X580390Y697230D02*
D03*
X556890D02*
D03*
X580390Y762000D02*
D03*
X556890D02*
D03*
X934400Y461010D02*
D03*
X957900D02*
D03*
X934400Y544830D02*
D03*
X957900D02*
D03*
X934080Y481330D02*
D03*
X957580D02*
D03*
X934400Y523240D02*
D03*
X957900D02*
D03*
X934080Y502920D02*
D03*
X957580D02*
D03*
X934400Y586740D02*
D03*
X957900D02*
D03*
X934400Y607060D02*
D03*
X957900D02*
D03*
X934080Y566420D02*
D03*
X957580D02*
D03*
X1095060Y650240D02*
D03*
X1071560D02*
D03*
X1249360Y161290D02*
D03*
X1272860D02*
D03*
X637540Y157480D02*
D03*
X614040D02*
D03*
X821050Y158750D02*
D03*
X844550D02*
D03*
X1072830Y561340D02*
D03*
X1096330D02*
D03*
X1072830Y511810D02*
D03*
X1096330D02*
D03*
X1237300Y707390D02*
D03*
X1213800D02*
D03*
X1073150Y449580D02*
D03*
X1096650D02*
D03*
X1073150Y398780D02*
D03*
X1096650D02*
D03*
X1041080Y158750D02*
D03*
X1064580D02*
D03*
X371160Y156210D02*
D03*
X347660D02*
D03*
X240350Y160020D02*
D03*
X216850D02*
D03*
X144150Y678180D02*
D03*
X120650D02*
D03*
X120330Y571500D02*
D03*
X143830D02*
D03*
X120650Y656590D02*
D03*
X144150D02*
D03*
X120330Y593090D02*
D03*
X143830D02*
D03*
X120650Y635000D02*
D03*
X144150D02*
D03*
X120330Y614680D02*
D03*
X143830D02*
D03*
X317180Y387350D02*
D03*
X340680D02*
D03*
X187010Y410210D02*
D03*
X163510D02*
D03*
X187010Y389890D02*
D03*
X163510D02*
D03*
X187010Y473710D02*
D03*
X163510D02*
D03*
Y453390D02*
D03*
X187010D02*
D03*
X379410Y271780D02*
D03*
X402910D02*
D03*
D21*
X303530Y649590D02*
D03*
X290830D02*
D03*
X278130D02*
D03*
X265430D02*
D03*
X252730D02*
D03*
X240030D02*
D03*
X227330D02*
D03*
X214630D02*
D03*
Y600090D02*
D03*
X227330D02*
D03*
X240030D02*
D03*
X252730D02*
D03*
X265430D02*
D03*
X278130D02*
D03*
X290830D02*
D03*
X303530D02*
D03*
D22*
X358140Y810260D02*
D03*
Y833760D02*
D03*
X109220Y220660D02*
D03*
Y244160D02*
D03*
X219710Y751520D02*
D03*
Y775020D02*
D03*
X132080Y775650D02*
D03*
Y799150D02*
D03*
X219710Y799780D02*
D03*
X335280Y833760D02*
D03*
Y810260D02*
D03*
X336550Y741040D02*
D03*
Y764540D02*
D03*
X359410Y741040D02*
D03*
Y764540D02*
D03*
X219710Y823280D02*
D03*
X698500Y381320D02*
D03*
Y357820D02*
D03*
X648970Y381320D02*
D03*
Y357820D02*
D03*
X821690Y381320D02*
D03*
Y357820D02*
D03*
X770890Y381320D02*
D03*
Y357820D02*
D03*
X1363980Y771840D02*
D03*
Y795340D02*
D03*
X1360170Y554670D02*
D03*
Y578170D02*
D03*
Y367350D02*
D03*
Y343850D02*
D03*
X1358900Y198760D02*
D03*
Y175260D02*
D03*
X894080Y381320D02*
D03*
Y357820D02*
D03*
X944880Y381320D02*
D03*
Y357820D02*
D03*
X243840Y520380D02*
D03*
Y543880D02*
D03*
D23*
X337210Y854710D02*
D03*
X356210D02*
D03*
X268630Y836930D02*
D03*
X287630D02*
D03*
X560120Y741680D02*
D03*
X579120D02*
D03*
X578460Y783590D02*
D03*
X559460D02*
D03*
X262230Y680720D02*
D03*
X243230D02*
D03*
X954990Y668020D02*
D03*
X935990D02*
D03*
X954990Y692150D02*
D03*
X935990D02*
D03*
X954990Y642620D02*
D03*
X935990D02*
D03*
X282600Y570230D02*
D03*
X301600D02*
D03*
X62890Y542290D02*
D03*
X81890D02*
D03*
X337770Y363220D02*
D03*
X318770D02*
D03*
X337770Y336550D02*
D03*
X318770D02*
D03*
X186030Y431800D02*
D03*
X167030D02*
D03*
D24*
X339230Y298820D02*
D03*
X316230D02*
D03*
X293230D02*
D03*
D25*
X170180Y787400D02*
D03*
X192180Y796900D02*
D03*
Y777900D02*
D03*
X109650Y414630D02*
D03*
Y395630D02*
D03*
X131650Y405130D02*
D03*
D26*
X890270Y691490D02*
D03*
Y672490D02*
D03*
X654050Y612140D02*
D03*
Y631140D02*
D03*
Y589890D02*
D03*
Y570890D02*
D03*
X218440Y523900D02*
D03*
Y542900D02*
D03*
X83820Y415900D02*
D03*
Y396900D02*
D03*
X256540Y306680D02*
D03*
Y287680D02*
D03*
X229870Y306680D02*
D03*
Y287680D02*
D03*
D27*
X695960Y648210D02*
D03*
Y553210D02*
D03*
D28*
X252222Y781050D02*
D03*
Y793750D02*
D03*
Y768350D02*
D03*
Y806450D02*
D03*
X301498D02*
D03*
Y793750D02*
D03*
Y781050D02*
D03*
Y768350D02*
D03*
D29*
X71080Y624800D02*
D03*
Y619800D02*
D03*
Y614800D02*
D03*
Y629800D02*
D03*
Y634800D02*
D03*
Y609800D02*
D03*
Y604800D02*
D03*
Y639800D02*
D03*
D30*
Y646300D02*
D03*
Y598300D02*
D03*
Y590300D02*
D03*
Y654300D02*
D03*
D31*
X62230Y519430D02*
D03*
X79430D02*
D03*
D32*
X191770Y543270D02*
D03*
Y526070D02*
D03*
D33*
X189230Y289560D02*
D03*
Y330560D02*
D03*
D34*
X403450Y297180D02*
D03*
X383950D02*
D03*
D35*
X111060Y435610D02*
D03*
Y448310D02*
D03*
Y461010D02*
D03*
Y473710D02*
D03*
X61660D02*
D03*
Y461010D02*
D03*
Y448310D02*
D03*
Y435610D02*
D03*
D36*
X190660Y497840D02*
D03*
X162560D02*
D03*
M02*
