G04*
G04 #@! TF.GenerationSoftware,Altium Limited,Altium Designer,25.4.2 (15)*
G04*
G04 Layer_Color=32768*
%FSLAX44Y44*%
%MOMM*%
G71*
G04*
G04 #@! TF.SameCoordinates,CA2AF886-8F4D-4062-A15D-1C6B51B4DCEA*
G04*
G04*
G04 #@! TF.FilePolarity,Positive*
G04*
G01*
G75*
%ADD13C,0.0000*%
%ADD17C,0.1270*%
%ADD134C,0.0508*%
%ADD138C,0.0500*%
%ADD139C,0.0100*%
D13*
X161180Y771400D02*
X201180D01*
X161180D02*
Y803400D01*
X201180D01*
Y771400D02*
Y803400D01*
D17*
X710960Y660710D02*
Y680710D01*
X680960D02*
X710960D01*
X680960Y660710D02*
Y680710D01*
X668460Y660710D02*
X680960D01*
X668460Y540710D02*
Y660710D01*
Y540710D02*
X680960D01*
Y520710D02*
Y540710D01*
Y520710D02*
X710960D01*
Y540710D01*
X723460D01*
Y660710D01*
X710960D02*
X723460D01*
D134*
X327980Y844880D02*
Y864540D01*
X365440Y844880D02*
Y864540D01*
X327980D02*
X365440D01*
X327980Y844880D02*
X365440D01*
X259400Y827100D02*
Y846760D01*
X296860Y827100D02*
Y846760D01*
X259400D02*
X296860D01*
X259400Y827100D02*
X296860D01*
X880440Y700720D02*
X900100D01*
X880440Y663260D02*
X900100D01*
Y700720D01*
X880440Y663260D02*
Y700720D01*
X644220Y602910D02*
Y640370D01*
X663880Y602910D02*
Y640370D01*
X644220Y602910D02*
X663880D01*
X644220Y640370D02*
X663880D01*
Y561660D02*
Y599120D01*
X644220Y561660D02*
Y599120D01*
X663880D01*
X644220Y561660D02*
X663880D01*
X550890Y751510D02*
X588350D01*
X550890Y731850D02*
X588350D01*
X550890D02*
Y751510D01*
X588350Y731850D02*
Y751510D01*
X587690Y773760D02*
Y793420D01*
X550230Y773760D02*
Y793420D01*
Y773760D02*
X587690D01*
X550230Y793420D02*
X587690D01*
X234000Y670890D02*
X271460D01*
X234000Y690550D02*
X271460D01*
Y670890D02*
Y690550D01*
X234000Y670890D02*
Y690550D01*
X964220Y658190D02*
Y677850D01*
X926760Y658190D02*
Y677850D01*
Y658190D02*
X964220D01*
X926760Y677850D02*
X964220D01*
Y682320D02*
Y701980D01*
X926760Y682320D02*
Y701980D01*
Y682320D02*
X964220D01*
X926760Y701980D02*
X964220D01*
Y632790D02*
Y652450D01*
X926760Y632790D02*
Y652450D01*
Y632790D02*
X964220D01*
X926760Y652450D02*
X964220D01*
X273370Y560400D02*
Y580060D01*
X310830Y560400D02*
Y580060D01*
X273370D02*
X310830D01*
X273370Y560400D02*
X310830D01*
X208610Y514670D02*
X228270D01*
X208610Y552130D02*
X228270D01*
X208610Y514670D02*
Y552130D01*
X228270Y514670D02*
Y552130D01*
X53660Y532460D02*
Y552120D01*
X91120Y532460D02*
Y552120D01*
X53660D02*
X91120D01*
X53660Y532460D02*
X91120D01*
X347000Y353390D02*
Y373050D01*
X309540Y353390D02*
Y373050D01*
Y353390D02*
X347000D01*
X309540Y373050D02*
X347000D01*
Y326720D02*
Y346380D01*
X309540Y326720D02*
Y346380D01*
Y326720D02*
X347000D01*
X309540Y346380D02*
X347000D01*
X73990Y425130D02*
X93650D01*
X73990Y387670D02*
X93650D01*
Y425130D01*
X73990Y387670D02*
Y425130D01*
X246710Y315910D02*
X266370D01*
X246710Y278450D02*
X266370D01*
Y315910D01*
X246710Y278450D02*
Y315910D01*
X220040D02*
X239700D01*
X220040Y278450D02*
X239700D01*
Y315910D01*
X220040Y278450D02*
Y315910D01*
X195260Y421970D02*
Y441630D01*
X157800Y421970D02*
Y441630D01*
Y421970D02*
X195260D01*
X157800Y441630D02*
X195260D01*
D138*
X525140Y691020D02*
Y708520D01*
X485140D02*
X525140D01*
X485140Y691020D02*
Y708520D01*
Y691020D02*
X525140D01*
X525460Y725310D02*
Y742810D01*
X485460D02*
X525460D01*
X485460Y725310D02*
Y742810D01*
Y725310D02*
X525460D01*
X311080Y587740D02*
Y661940D01*
X207080Y587740D02*
Y661940D01*
X311080D01*
X207080Y587740D02*
X311080D01*
X134720Y285250D02*
X148720D01*
X134720Y271750D02*
Y285250D01*
X83720Y271750D02*
X134720D01*
X83720D02*
Y285250D01*
X-780D02*
X83720D01*
X-780D02*
Y380250D01*
X148720D01*
Y356250D02*
Y380250D01*
Y285250D02*
Y310250D01*
X154720D01*
Y356250D01*
X148720D02*
X154720D01*
X349390Y802010D02*
X366890D01*
Y842010D01*
X349390D02*
X366890D01*
X349390Y802010D02*
Y842010D01*
X756220Y474010D02*
Y829010D01*
Y474010D02*
X856220D01*
Y829010D01*
X756220D02*
X856220D01*
X878780Y243330D02*
Y338330D01*
X985580D01*
Y243330D02*
Y338330D01*
X878780Y243330D02*
X985580D01*
X281230Y310520D02*
X351230D01*
X281230Y225420D02*
Y310520D01*
Y225420D02*
X351230D01*
Y310520D01*
X100470Y212410D02*
X117970D01*
Y252410D01*
X100470D02*
X117970D01*
X100470Y212410D02*
Y252410D01*
X178630Y143240D02*
Y268240D01*
X123630Y143240D02*
X178630D01*
X123630D02*
Y268240D01*
X178630D01*
X210960Y743270D02*
X228460D01*
Y783270D01*
X210960D02*
X228460D01*
X210960Y743270D02*
Y783270D01*
X588960Y645300D02*
Y662800D01*
X548960D02*
X588960D01*
X548960Y645300D02*
Y662800D01*
Y645300D02*
X588960D01*
Y666890D02*
Y684390D01*
X548960D02*
X588960D01*
X548960Y666890D02*
Y684390D01*
Y666890D02*
X588960D01*
X588640Y688480D02*
Y705980D01*
X548640D02*
X588640D01*
X548640Y688480D02*
Y705980D01*
Y688480D02*
X588640D01*
X548640Y770750D02*
X588640D01*
Y753250D02*
Y770750D01*
X548640Y753250D02*
X588640D01*
X548640D02*
Y770750D01*
X926150Y452260D02*
Y469760D01*
Y452260D02*
X966150D01*
Y469760D01*
X926150D02*
X966150D01*
X926150Y536080D02*
Y553580D01*
Y536080D02*
X966150D01*
Y553580D01*
X926150D02*
X966150D01*
X925830Y472580D02*
Y490080D01*
Y472580D02*
X965830D01*
Y490080D01*
X925830D02*
X965830D01*
X926150Y514490D02*
Y531990D01*
Y514490D02*
X966150D01*
Y531990D01*
X926150D02*
X966150D01*
X925830Y494170D02*
Y511670D01*
Y494170D02*
X965830D01*
Y511670D01*
X925830D02*
X965830D01*
X926150Y577990D02*
Y595490D01*
Y577990D02*
X966150D01*
Y595490D01*
X926150D02*
X966150D01*
X926150Y598310D02*
Y615810D01*
Y598310D02*
X966150D01*
Y615810D01*
X926150D02*
X966150D01*
X925830Y557670D02*
Y575170D01*
Y557670D02*
X965830D01*
Y575170D01*
X925830D02*
X965830D01*
X1103310Y641490D02*
Y658990D01*
X1063310D02*
X1103310D01*
X1063310Y641490D02*
Y658990D01*
Y641490D02*
X1103310D01*
X504870Y866890D02*
X589870D01*
Y801890D02*
Y866890D01*
X504870Y801890D02*
X589870D01*
X504870D02*
Y866890D01*
X1380220Y40D02*
X1524120D01*
X1380220Y208240D02*
X1524120D01*
X1380220Y40D02*
Y208240D01*
X1524120Y40D02*
Y208240D01*
X1241110Y152540D02*
X1281110D01*
X1241110D02*
Y170040D01*
X1281110D01*
Y152540D02*
Y170040D01*
X1146850Y1150D02*
Y145050D01*
X1355050Y1150D02*
Y145050D01*
X1146850D02*
X1355050D01*
X1146850Y1150D02*
X1355050D01*
X934760D02*
Y145050D01*
X1142960Y1150D02*
Y145050D01*
X934760D02*
X1142960D01*
X934760Y1150D02*
X1142960D01*
X2580Y-120D02*
Y143780D01*
X210780Y-120D02*
Y143780D01*
X2580D02*
X210780D01*
X2580Y-120D02*
X210780D01*
X482640Y-2660D02*
X690840D01*
X482640Y141240D02*
X690840D01*
Y-2660D02*
Y141240D01*
X482640Y-2660D02*
Y141240D01*
X326530Y802010D02*
Y842010D01*
X344030D01*
Y802010D02*
Y842010D01*
X326530Y802010D02*
X344030D01*
X345300Y732790D02*
Y772790D01*
X327800Y732790D02*
X345300D01*
X327800D02*
Y772790D01*
X345300D01*
X368160Y732790D02*
Y772790D01*
X350660Y732790D02*
X368160D01*
X350660D02*
Y772790D01*
X368160D01*
X53750Y509600D02*
Y529260D01*
X87910Y509600D02*
Y529260D01*
X53750Y509600D02*
X87910D01*
X53750Y529260D02*
X87910D01*
X1150Y840700D02*
X108650D01*
X1150Y734100D02*
X108650D01*
Y840700D01*
X1150Y734100D02*
Y840700D01*
X228460Y791530D02*
Y831530D01*
X210960Y791530D02*
X228460D01*
X210960D02*
Y831530D01*
X228460D01*
X123330Y767400D02*
Y807400D01*
X140830D01*
Y767400D02*
Y807400D01*
X123330Y767400D02*
X140830D01*
X689750Y349570D02*
Y389570D01*
X707250D01*
Y349570D02*
Y389570D01*
X689750Y349570D02*
X707250D01*
X640220D02*
Y389570D01*
X657720D01*
Y349570D02*
Y389570D01*
X640220Y349570D02*
X657720D01*
X632400Y243330D02*
X739200D01*
Y338330D01*
X632400D02*
X739200D01*
X632400Y243330D02*
Y338330D01*
X1209550Y383480D02*
Y490280D01*
X1114550D02*
X1209550D01*
X1114550Y383480D02*
Y490280D01*
Y383480D02*
X1209550D01*
Y495240D02*
Y602040D01*
X1114550D02*
X1209550D01*
X1114550Y495240D02*
Y602040D01*
Y495240D02*
X1209550D01*
X217210Y-1390D02*
X425410D01*
X217210Y142510D02*
X425410D01*
Y-1390D02*
Y142510D01*
X217210Y-1390D02*
Y142510D01*
X1136690Y872610D02*
X1344890D01*
X1136690Y728710D02*
X1344890D01*
X1136690D02*
Y872610D01*
X1344890Y728710D02*
Y872610D01*
X812940Y349570D02*
Y389570D01*
X830440D01*
Y349570D02*
Y389570D01*
X812940Y349570D02*
X830440D01*
X762140D02*
Y389570D01*
X779640D01*
Y349570D02*
Y389570D01*
X762140Y349570D02*
X779640D01*
X605790Y166230D02*
X645790D01*
Y148730D02*
Y166230D01*
X605790Y148730D02*
X645790D01*
X605790D02*
Y166230D01*
X812800Y150000D02*
X852800D01*
X812800D02*
Y167500D01*
X852800D01*
Y150000D02*
Y167500D01*
X755590Y243330D02*
X862390D01*
Y338330D01*
X755590D02*
X862390D01*
X755590Y243330D02*
Y338330D01*
X696000Y-3930D02*
X904200D01*
X696000Y139970D02*
X904200D01*
Y-3930D02*
Y139970D01*
X696000Y-3930D02*
Y139970D01*
X1064580Y552590D02*
X1104580D01*
X1064580D02*
Y570090D01*
X1104580D01*
Y552590D02*
Y570090D01*
X1064580Y503060D02*
X1104580D01*
X1064580D02*
Y520560D01*
X1104580D01*
Y503060D02*
Y520560D01*
X1205550Y716140D02*
X1245550D01*
Y698640D02*
Y716140D01*
X1205550Y698640D02*
X1245550D01*
X1205550D02*
Y716140D01*
X1522850Y664250D02*
Y872450D01*
X1378950Y664250D02*
Y872450D01*
X1522850D01*
X1378950Y664250D02*
X1522850D01*
X1372730Y763590D02*
Y803590D01*
X1355230Y763590D02*
X1372730D01*
X1355230D02*
Y803590D01*
X1372730D01*
X1368920Y546420D02*
Y586420D01*
X1351420Y546420D02*
X1368920D01*
X1351420D02*
Y586420D01*
X1368920D01*
X1522850Y449620D02*
Y657820D01*
X1378950Y449620D02*
Y657820D01*
X1522850D01*
X1378950Y449620D02*
X1522850D01*
X1064900Y440830D02*
X1104900D01*
X1064900D02*
Y458330D01*
X1104900D01*
Y440830D02*
Y458330D01*
X1064900Y390030D02*
X1104900D01*
X1064900D02*
Y407530D01*
X1104900D01*
Y390030D02*
Y407530D01*
X1351420Y335600D02*
Y375600D01*
X1368920D01*
Y335600D02*
Y375600D01*
X1351420Y335600D02*
X1368920D01*
X1525390Y213400D02*
Y421600D01*
X1381490Y213400D02*
Y421600D01*
X1525390D01*
X1381490Y213400D02*
X1525390D01*
X1350150Y167010D02*
Y207010D01*
X1367650D01*
Y167010D02*
Y207010D01*
X1350150Y167010D02*
X1367650D01*
X885330Y349570D02*
Y389570D01*
X902830D01*
Y349570D02*
Y389570D01*
X885330Y349570D02*
X902830D01*
X936130D02*
Y389570D01*
X953630D01*
Y349570D02*
Y389570D01*
X936130Y349570D02*
X953630D01*
X1032830Y150000D02*
X1072830D01*
X1032830D02*
Y167500D01*
X1072830D01*
Y150000D02*
Y167500D01*
X339410Y164960D02*
X379410D01*
Y147460D02*
Y164960D01*
X339410Y147460D02*
X379410D01*
X339410D02*
Y164960D01*
X208600Y168770D02*
X248600D01*
Y151270D02*
Y168770D01*
X208600Y151270D02*
X248600D01*
X208600D02*
Y168770D01*
X447000Y759500D02*
Y815300D01*
X391200D02*
X447000D01*
X391200Y759500D02*
Y815300D01*
Y759500D02*
X447000D01*
X152400Y669430D02*
Y686930D01*
X112400D02*
X152400D01*
X112400Y669430D02*
Y686930D01*
Y669430D02*
X152400D01*
X181940Y517590D02*
Y551750D01*
X201600Y517590D02*
Y551750D01*
X181940D02*
X201600D01*
X181940Y517590D02*
X201600D01*
X112080Y562750D02*
Y580250D01*
Y562750D02*
X152080D01*
Y580250D01*
X112080D02*
X152080D01*
X112400Y647840D02*
X152400D01*
X112400D02*
Y665340D01*
X152400D01*
Y647840D02*
Y665340D01*
X112080Y584340D02*
X152080D01*
X112080D02*
Y601840D01*
X152080D01*
Y584340D02*
Y601840D01*
X112400Y626250D02*
Y643750D01*
Y626250D02*
X152400D01*
Y643750D01*
X112400D02*
X152400D01*
X112080Y605930D02*
Y623430D01*
Y605930D02*
X152080D01*
Y623430D01*
X112080D02*
X152080D01*
X235090Y512130D02*
X252590D01*
Y552130D01*
X235090D02*
X252590D01*
X235090Y512130D02*
Y552130D01*
X308930Y378600D02*
Y396100D01*
Y378600D02*
X348930D01*
Y396100D01*
X308930D02*
X348930D01*
X377100Y286590D02*
Y307770D01*
Y286590D02*
X410300D01*
Y307770D01*
X377100D02*
X410300D01*
X195260Y401460D02*
Y418960D01*
X155260D02*
X195260D01*
X155260Y401460D02*
Y418960D01*
Y401460D02*
X195260D01*
Y381140D02*
Y398640D01*
X155260D02*
X195260D01*
X155260Y381140D02*
Y398640D01*
Y381140D02*
X195260D01*
X49310Y427635D02*
X123410D01*
X49310Y481685D02*
X123410D01*
Y427635D02*
Y481685D01*
X49310Y427635D02*
Y481685D01*
X195260Y464960D02*
Y482460D01*
X155260D02*
X195260D01*
X155260Y464960D02*
Y482460D01*
Y464960D02*
X195260D01*
X155260Y444640D02*
Y462140D01*
Y444640D02*
X195260D01*
Y462140D01*
X155260D02*
X195260D01*
X151610Y485340D02*
Y510340D01*
X201610D01*
Y485340D02*
Y510340D01*
X151610Y485340D02*
X201610D01*
X371160Y263030D02*
Y280530D01*
Y263030D02*
X411160D01*
Y280530D01*
X371160D02*
X411160D01*
X289630Y464490D02*
X368630D01*
Y401990D02*
Y464490D01*
X289630Y401990D02*
X368630D01*
X289630D02*
Y464490D01*
D139*
X1330Y673500D02*
X79830D01*
X1330Y571100D02*
Y673500D01*
Y571100D02*
X79830D01*
Y673500D01*
M02*
