G04*
G04 #@! TF.GenerationSoftware,Altium Limited,Altium Designer,25.4.2 (15)*
G04*
G04 Layer_Color=8388736*
%FSLAX44Y44*%
%MOMM*%
G71*
G04*
G04 #@! TF.SameCoordinates,CA2AF886-8F4D-4062-A15D-1C6B51B4DCEA*
G04*
G04*
G04 #@! TF.FilePolarity,Negative*
G04*
G01*
G75*
%ADD37R,1.5540X1.5540*%
G04:AMPARAMS|DCode=38|XSize=2.374mm|YSize=1.004mm|CornerRadius=0.277mm|HoleSize=0mm|Usage=FLASHONLY|Rotation=270.000|XOffset=0mm|YOffset=0mm|HoleType=Round|Shape=RoundedRectangle|*
%AMROUNDEDRECTD38*
21,1,2.3740,0.4500,0,0,270.0*
21,1,1.8200,1.0040,0,0,270.0*
1,1,0.5540,-0.2250,-0.9100*
1,1,0.5540,-0.2250,0.9100*
1,1,0.5540,0.2250,0.9100*
1,1,0.5540,0.2250,-0.9100*
%
%ADD38ROUNDEDRECTD38*%
%ADD39R,1.5540X1.5540*%
%ADD40R,1.7040X1.9040*%
G04:AMPARAMS|DCode=41|XSize=2.244mm|YSize=1.334mm|CornerRadius=0.3182mm|HoleSize=0mm|Usage=FLASHONLY|Rotation=270.000|XOffset=0mm|YOffset=0mm|HoleType=Round|Shape=RoundedRectangle|*
%AMROUNDEDRECTD41*
21,1,2.2440,0.6975,0,0,270.0*
21,1,1.6075,1.3340,0,0,270.0*
1,1,0.6365,-0.3488,-0.8038*
1,1,0.6365,-0.3488,0.8038*
1,1,0.6365,0.3488,0.8038*
1,1,0.6365,0.3488,-0.8038*
%
%ADD41ROUNDEDRECTD41*%
%ADD42R,1.8040X1.4040*%
%ADD43R,1.9040X1.7040*%
%ADD44R,2.4040X5.9040*%
%ADD45R,2.3852X0.9374*%
%ADD46R,1.2770X0.4250*%
%ADD47R,1.2770X0.7170*%
%ADD48R,1.6040X1.8740*%
%ADD49R,1.8740X1.6040*%
%ADD50R,1.9540X2.6040*%
G04:AMPARAMS|DCode=51|XSize=1.264mm|YSize=1.764mm|CornerRadius=0.417mm|HoleSize=0mm|Usage=FLASHONLY|Rotation=0.000|XOffset=0mm|YOffset=0mm|HoleType=Round|Shape=RoundedRectangle|*
%AMROUNDEDRECTD51*
21,1,1.2640,0.9300,0,0,0.0*
21,1,0.4300,1.7640,0,0,0.0*
1,1,0.8340,0.2150,-0.4650*
1,1,0.8340,-0.2150,-0.4650*
1,1,0.8340,-0.2150,0.4650*
1,1,0.8340,0.2150,0.4650*
%
%ADD51ROUNDEDRECTD51*%
G04:AMPARAMS|DCode=52|XSize=2.374mm|YSize=1.004mm|CornerRadius=0.277mm|HoleSize=0mm|Usage=FLASHONLY|Rotation=180.000|XOffset=0mm|YOffset=0mm|HoleType=Round|Shape=RoundedRectangle|*
%AMROUNDEDRECTD52*
21,1,2.3740,0.4500,0,0,180.0*
21,1,1.8200,1.0040,0,0,180.0*
1,1,0.5540,-0.9100,0.2250*
1,1,0.5540,0.9100,0.2250*
1,1,0.5540,0.9100,-0.2250*
1,1,0.5540,-0.9100,-0.2250*
%
%ADD52ROUNDEDRECTD52*%
G04:AMPARAMS|DCode=53|XSize=1.704mm|YSize=2.204mm|CornerRadius=0.397mm|HoleSize=0mm|Usage=FLASHONLY|Rotation=0.000|XOffset=0mm|YOffset=0mm|HoleType=Round|Shape=RoundedRectangle|*
%AMROUNDEDRECTD53*
21,1,1.7040,1.4100,0,0,0.0*
21,1,0.9100,2.2040,0,0,0.0*
1,1,0.7940,0.4550,-0.7050*
1,1,0.7940,-0.4550,-0.7050*
1,1,0.7940,-0.4550,0.7050*
1,1,0.7940,0.4550,0.7050*
%
%ADD53ROUNDEDRECTD53*%
%ADD54C,0.8540*%
%ADD55C,5.4040*%
%ADD56O,2.9040X5.4040*%
%ADD57O,2.6540X4.9040*%
%ADD58O,4.9040X2.6540*%
%ADD59C,1.9440*%
%ADD60R,1.9440X1.9440*%
%ADD61C,4.1540*%
%ADD62R,1.7540X1.7540*%
%ADD63C,1.7540*%
%ADD64C,2.2040*%
%ADD65R,2.8040X2.8040*%
%ADD66C,2.8040*%
%ADD67R,1.9020X1.9020*%
%ADD68C,1.9020*%
%ADD69O,1.9270X1.1270*%
%ADD70O,2.3270X1.1270*%
%ADD71R,2.8040X2.8040*%
%ADD72R,1.7540X1.7540*%
%ADD73C,1.7248*%
%ADD74C,1.7740*%
%ADD75R,1.7740X1.7740*%
%ADD76R,1.9790X1.9790*%
%ADD77C,1.9790*%
%ADD78C,1.2040*%
%ADD79C,1.1310*%
%ADD80C,1.6740*%
%ADD81C,1.1040*%
D37*
X516890Y699770D02*
D03*
X493390D02*
D03*
X517210Y734060D02*
D03*
X493710D02*
D03*
X580710Y654050D02*
D03*
X557210D02*
D03*
X580710Y675640D02*
D03*
X557210D02*
D03*
X580390Y697230D02*
D03*
X556890D02*
D03*
X580390Y762000D02*
D03*
X556890D02*
D03*
X934400Y461010D02*
D03*
X957900D02*
D03*
X934400Y544830D02*
D03*
X957900D02*
D03*
X934080Y481330D02*
D03*
X957580D02*
D03*
X934400Y523240D02*
D03*
X957900D02*
D03*
X934080Y502920D02*
D03*
X957580D02*
D03*
X934400Y586740D02*
D03*
X957900D02*
D03*
X934400Y607060D02*
D03*
X957900D02*
D03*
X934080Y566420D02*
D03*
X957580D02*
D03*
X1095060Y650240D02*
D03*
X1071560D02*
D03*
X1249360Y161290D02*
D03*
X1272860D02*
D03*
X637540Y157480D02*
D03*
X614040D02*
D03*
X821050Y158750D02*
D03*
X844550D02*
D03*
X1072830Y561340D02*
D03*
X1096330D02*
D03*
X1072830Y511810D02*
D03*
X1096330D02*
D03*
X1237300Y707390D02*
D03*
X1213800D02*
D03*
X1073150Y449580D02*
D03*
X1096650D02*
D03*
X1073150Y398780D02*
D03*
X1096650D02*
D03*
X1041080Y158750D02*
D03*
X1064580D02*
D03*
X371160Y156210D02*
D03*
X347660D02*
D03*
X240350Y160020D02*
D03*
X216850D02*
D03*
X144150Y678180D02*
D03*
X120650D02*
D03*
X120330Y571500D02*
D03*
X143830D02*
D03*
X120650Y656590D02*
D03*
X144150D02*
D03*
X120330Y593090D02*
D03*
X143830D02*
D03*
X120650Y635000D02*
D03*
X144150D02*
D03*
X120330Y614680D02*
D03*
X143830D02*
D03*
X317180Y387350D02*
D03*
X340680D02*
D03*
X187010Y410210D02*
D03*
X163510D02*
D03*
X187010Y389890D02*
D03*
X163510D02*
D03*
X187010Y473710D02*
D03*
X163510D02*
D03*
Y453390D02*
D03*
X187010D02*
D03*
X379410Y271780D02*
D03*
X402910D02*
D03*
D38*
X303530Y649590D02*
D03*
X290830D02*
D03*
X278130D02*
D03*
X265430D02*
D03*
X252730D02*
D03*
X240030D02*
D03*
X227330D02*
D03*
X214630D02*
D03*
Y600090D02*
D03*
X227330D02*
D03*
X240030D02*
D03*
X252730D02*
D03*
X265430D02*
D03*
X278130D02*
D03*
X290830D02*
D03*
X303530D02*
D03*
D39*
X358140Y810260D02*
D03*
Y833760D02*
D03*
X109220Y220660D02*
D03*
Y244160D02*
D03*
X219710Y751520D02*
D03*
Y775020D02*
D03*
X132080Y775650D02*
D03*
Y799150D02*
D03*
X219710Y799780D02*
D03*
X335280Y833760D02*
D03*
Y810260D02*
D03*
X336550Y741040D02*
D03*
Y764540D02*
D03*
X359410Y741040D02*
D03*
Y764540D02*
D03*
X219710Y823280D02*
D03*
X698500Y381320D02*
D03*
Y357820D02*
D03*
X648970Y381320D02*
D03*
Y357820D02*
D03*
X821690Y381320D02*
D03*
Y357820D02*
D03*
X770890Y381320D02*
D03*
Y357820D02*
D03*
X1363980Y771840D02*
D03*
Y795340D02*
D03*
X1360170Y554670D02*
D03*
Y578170D02*
D03*
Y367350D02*
D03*
Y343850D02*
D03*
X1358900Y198760D02*
D03*
Y175260D02*
D03*
X894080Y381320D02*
D03*
Y357820D02*
D03*
X944880Y381320D02*
D03*
Y357820D02*
D03*
X243840Y520380D02*
D03*
Y543880D02*
D03*
D40*
X337210Y854710D02*
D03*
X356210D02*
D03*
X268630Y836930D02*
D03*
X287630D02*
D03*
X560120Y741680D02*
D03*
X579120D02*
D03*
X578460Y783590D02*
D03*
X559460D02*
D03*
X262230Y680720D02*
D03*
X243230D02*
D03*
X954990Y668020D02*
D03*
X935990D02*
D03*
X954990Y692150D02*
D03*
X935990D02*
D03*
X954990Y642620D02*
D03*
X935990D02*
D03*
X282600Y570230D02*
D03*
X301600D02*
D03*
X62890Y542290D02*
D03*
X81890D02*
D03*
X337770Y363220D02*
D03*
X318770D02*
D03*
X337770Y336550D02*
D03*
X318770D02*
D03*
X186030Y431800D02*
D03*
X167030D02*
D03*
D41*
X339230Y298820D02*
D03*
X316230D02*
D03*
X293230D02*
D03*
D42*
X170180Y787400D02*
D03*
X192180Y796900D02*
D03*
Y777900D02*
D03*
X109650Y414630D02*
D03*
Y395630D02*
D03*
X131650Y405130D02*
D03*
D43*
X890270Y691490D02*
D03*
Y672490D02*
D03*
X654050Y612140D02*
D03*
Y631140D02*
D03*
Y589890D02*
D03*
Y570890D02*
D03*
X218440Y523900D02*
D03*
Y542900D02*
D03*
X83820Y415900D02*
D03*
Y396900D02*
D03*
X256540Y306680D02*
D03*
Y287680D02*
D03*
X229870Y306680D02*
D03*
Y287680D02*
D03*
D44*
X695960Y648210D02*
D03*
Y553210D02*
D03*
D45*
X252222Y781050D02*
D03*
Y793750D02*
D03*
Y768350D02*
D03*
Y806450D02*
D03*
X301498D02*
D03*
Y793750D02*
D03*
Y781050D02*
D03*
Y768350D02*
D03*
D46*
X71080Y624800D02*
D03*
Y619800D02*
D03*
Y614800D02*
D03*
Y629800D02*
D03*
Y634800D02*
D03*
Y609800D02*
D03*
Y604800D02*
D03*
Y639800D02*
D03*
D47*
Y646300D02*
D03*
Y598300D02*
D03*
Y590300D02*
D03*
Y654300D02*
D03*
D48*
X62230Y519430D02*
D03*
X79430D02*
D03*
D49*
X191770Y543270D02*
D03*
Y526070D02*
D03*
D50*
X189230Y289560D02*
D03*
Y330560D02*
D03*
D51*
X403450Y297180D02*
D03*
X383950D02*
D03*
D52*
X111060Y435610D02*
D03*
Y448310D02*
D03*
Y461010D02*
D03*
Y473710D02*
D03*
X61660D02*
D03*
Y461010D02*
D03*
Y448310D02*
D03*
Y435610D02*
D03*
D53*
X190660Y497840D02*
D03*
X162560D02*
D03*
D54*
X27178Y195580D02*
D03*
X62992Y210820D02*
D03*
X56642Y195580D02*
D03*
X26924Y225552D02*
D03*
X41910Y189738D02*
D03*
Y232156D02*
D03*
X56896Y225552D02*
D03*
X20828Y210820D02*
D03*
D55*
X41910D02*
D03*
D56*
X139220Y332750D02*
D03*
D57*
X79220D02*
D03*
D58*
X109220Y285750D02*
D03*
D59*
X845820Y816610D02*
D03*
Y791210D02*
D03*
Y765810D02*
D03*
Y740410D02*
D03*
Y715010D02*
D03*
Y689610D02*
D03*
Y664210D02*
D03*
Y638810D02*
D03*
Y613410D02*
D03*
Y588010D02*
D03*
Y562610D02*
D03*
Y537210D02*
D03*
Y511810D02*
D03*
Y486410D02*
D03*
X766620D02*
D03*
Y511810D02*
D03*
Y537210D02*
D03*
Y562610D02*
D03*
Y588010D02*
D03*
Y613410D02*
D03*
Y715010D02*
D03*
Y689610D02*
D03*
Y740410D02*
D03*
Y765810D02*
D03*
Y638810D02*
D03*
Y664210D02*
D03*
Y791210D02*
D03*
D60*
Y816610D02*
D03*
D61*
X1079500Y278130D02*
D03*
X473710Y273050D02*
D03*
X471170Y638810D02*
D03*
X1071880Y825500D02*
D03*
D62*
X894080Y252730D02*
D03*
X647700D02*
D03*
X770890D02*
D03*
D63*
X919480D02*
D03*
X944880D02*
D03*
X970280D02*
D03*
Y328930D02*
D03*
X944880D02*
D03*
X919480D02*
D03*
X894080D02*
D03*
X647700D02*
D03*
X673100D02*
D03*
X698500D02*
D03*
X723900D02*
D03*
Y252730D02*
D03*
X698500D02*
D03*
X673100D02*
D03*
X1123950Y398780D02*
D03*
Y424180D02*
D03*
Y449580D02*
D03*
Y474980D02*
D03*
X1200150D02*
D03*
Y449580D02*
D03*
Y424180D02*
D03*
X1123950Y510540D02*
D03*
Y535940D02*
D03*
Y561340D02*
D03*
Y586740D02*
D03*
X1200150D02*
D03*
Y561340D02*
D03*
Y535940D02*
D03*
X770890Y328930D02*
D03*
X796290D02*
D03*
X821690D02*
D03*
X847090D02*
D03*
Y252730D02*
D03*
X821690D02*
D03*
X796290D02*
D03*
D64*
X151130Y168240D02*
D03*
Y243240D02*
D03*
D65*
X57150Y762000D02*
D03*
X1442720Y180340D02*
D03*
X1441450Y844550D02*
D03*
Y629920D02*
D03*
X1443990Y393700D02*
D03*
D66*
X57150Y812800D02*
D03*
X1442720Y27940D02*
D03*
Y78740D02*
D03*
Y129540D02*
D03*
X1174750Y82550D02*
D03*
X1225550D02*
D03*
X1276350D02*
D03*
X962660D02*
D03*
X1013460D02*
D03*
X1064260D02*
D03*
X30480Y81280D02*
D03*
X81280D02*
D03*
X132080D02*
D03*
X612140Y78740D02*
D03*
X561340D02*
D03*
X510540D02*
D03*
X346710Y80010D02*
D03*
X295910D02*
D03*
X245110D02*
D03*
X1215390Y791210D02*
D03*
X1266190D02*
D03*
X1316990D02*
D03*
X825500Y77470D02*
D03*
X774700D02*
D03*
X723900D02*
D03*
X1441450Y793750D02*
D03*
Y742950D02*
D03*
Y692150D02*
D03*
Y579120D02*
D03*
Y528320D02*
D03*
Y477520D02*
D03*
X1443990Y342900D02*
D03*
Y292100D02*
D03*
Y241300D02*
D03*
D67*
X514870Y856890D02*
D03*
D68*
X579870D02*
D03*
X516370Y811890D02*
D03*
X579870D02*
D03*
D69*
X65330Y579100D02*
D03*
Y665500D02*
D03*
D70*
X25330Y579100D02*
D03*
Y665500D02*
D03*
D71*
X1327150Y82550D02*
D03*
X1115060D02*
D03*
X182880Y81280D02*
D03*
X662940Y78740D02*
D03*
X397510Y80010D02*
D03*
X1164590Y791210D02*
D03*
X876300Y77470D02*
D03*
D72*
X1200150Y398780D02*
D03*
Y510540D02*
D03*
D73*
X1198880Y629920D02*
D03*
Y655320D02*
D03*
X1122680D02*
D03*
Y629920D02*
D03*
D74*
X406400Y800100D02*
D03*
X431800D02*
D03*
X406400Y774700D02*
D03*
D75*
X431800D02*
D03*
D76*
X341630Y427990D02*
D03*
D77*
X316630D02*
D03*
D78*
X224790Y356870D02*
D03*
Y337820D02*
D03*
X240030Y346710D02*
D03*
X792480Y543560D02*
D03*
Y524510D02*
D03*
X807720Y533400D02*
D03*
X808990Y551180D02*
D03*
Y570230D02*
D03*
X793750Y561340D02*
D03*
X1050290Y624840D02*
D03*
Y643890D02*
D03*
X1035050Y635000D02*
D03*
X1027430Y670560D02*
D03*
Y651510D02*
D03*
X1042670Y660400D02*
D03*
X675640Y488950D02*
D03*
Y469900D02*
D03*
X690880Y478790D02*
D03*
X660400Y469900D02*
D03*
Y488950D02*
D03*
X645160Y480060D02*
D03*
X313690Y500380D02*
D03*
Y519430D02*
D03*
X298450Y510540D02*
D03*
X281940Y501650D02*
D03*
Y482600D02*
D03*
X297180Y491490D02*
D03*
X109220Y763270D02*
D03*
X96520D02*
D03*
X83820D02*
D03*
X109220Y787400D02*
D03*
X96520D02*
D03*
X83820D02*
D03*
X109220Y811530D02*
D03*
X96520D02*
D03*
X83820D02*
D03*
X153670Y787400D02*
D03*
X397510Y833120D02*
D03*
X368300Y853440D02*
D03*
X505460Y782320D02*
D03*
X135890Y420370D02*
D03*
Y497840D02*
D03*
X52070Y530860D02*
D03*
D79*
X516890Y699770D02*
D03*
X493390D02*
D03*
X493710Y734060D02*
D03*
X517210D02*
D03*
X429260Y698500D02*
D03*
X453390Y722630D02*
D03*
D80*
X184150Y685800D02*
D03*
X167640D02*
D03*
X199390D02*
D03*
X598170Y741680D02*
D03*
X109220Y515620D02*
D03*
X215900Y118110D02*
D03*
X359410Y363220D02*
D03*
X265430Y619760D02*
D03*
X261620Y519430D02*
D03*
X1073150Y553720D02*
D03*
X648970Y388620D02*
D03*
X698500D02*
D03*
X770890Y389890D02*
D03*
X821690Y388620D02*
D03*
X894080D02*
D03*
X944880D02*
D03*
X1073150Y389890D02*
D03*
Y440690D02*
D03*
Y504190D02*
D03*
X1071880Y633730D02*
D03*
X359410Y388620D02*
D03*
X260350Y389890D02*
D03*
X335280Y800100D02*
D03*
X336550Y773430D02*
D03*
X1360170Y156210D02*
D03*
D81*
X819150Y662940D02*
D03*
X50800Y590550D02*
D03*
Y654050D02*
D03*
M02*
