G04*
G04 #@! TF.GenerationSoftware,Altium Limited,Altium Designer,25.4.2 (15)*
G04*
G04 Layer_Color=2752767*
%FSLAX44Y44*%
%MOMM*%
G71*
G04*
G04 #@! TF.SameCoordinates,CA2AF886-8F4D-4062-A15D-1C6B51B4DCEA*
G04*
G04*
G04 #@! TF.FilePolarity,Positive*
G04*
G01*
G75*
%ADD17C,0.1270*%
%ADD135C,0.1016*%
%ADD141C,0.1693*%
D17*
X22098Y190500D02*
X24638D01*
X27178Y193040D01*
X29718Y190500D01*
X32258D01*
Y193040D01*
X29718Y195580D01*
X32258Y198120D01*
Y200660D01*
X29718D01*
X27178Y198120D01*
X24638Y200660D01*
X22098D01*
Y198120D01*
X24638Y195580D01*
X22098Y193040D01*
Y190500D01*
X24130Y192532D02*
X25654D01*
X27178Y194056D01*
X28702Y192532D01*
X30226D01*
Y194056D01*
X28702Y195580D01*
X30226Y197104D01*
Y198628D01*
X28702D01*
X27178Y197104D01*
X25654Y198628D01*
X24130D01*
Y197104D01*
X25654Y195580D01*
X24130Y194056D01*
Y192532D01*
X57912Y205740D02*
X60452D01*
X62992Y208280D01*
X65532Y205740D01*
X68072D01*
Y208280D01*
X65532Y210820D01*
X68072Y213360D01*
Y215900D01*
X65532D01*
X62992Y213360D01*
X60452Y215900D01*
X57912D01*
Y213360D01*
X60452Y210820D01*
X57912Y208280D01*
Y205740D01*
X59944Y207772D02*
X61468D01*
X62992Y209296D01*
X64516Y207772D01*
X66040D01*
Y209296D01*
X64516Y210820D01*
X66040Y212344D01*
Y213868D01*
X64516D01*
X62992Y212344D01*
X61468Y213868D01*
X59944D01*
Y212344D01*
X61468Y210820D01*
X59944Y209296D01*
Y207772D01*
X51562Y190500D02*
X54102D01*
X56642Y193040D01*
X59182Y190500D01*
X61722D01*
Y193040D01*
X59182Y195580D01*
X61722Y198120D01*
Y200660D01*
X59182D01*
X56642Y198120D01*
X54102Y200660D01*
X51562D01*
Y198120D01*
X54102Y195580D01*
X51562Y193040D01*
Y190500D01*
X53594Y192532D02*
X55118D01*
X56642Y194056D01*
X58166Y192532D01*
X59690D01*
Y194056D01*
X58166Y195580D01*
X59690Y197104D01*
Y198628D01*
X58166D01*
X56642Y197104D01*
X55118Y198628D01*
X53594D01*
Y197104D01*
X55118Y195580D01*
X53594Y194056D01*
Y192532D01*
X21844Y220472D02*
X24384D01*
X26924Y223012D01*
X29464Y220472D01*
X32004D01*
Y223012D01*
X29464Y225552D01*
X32004Y228092D01*
Y230632D01*
X29464D01*
X26924Y228092D01*
X24384Y230632D01*
X21844D01*
Y228092D01*
X24384Y225552D01*
X21844Y223012D01*
Y220472D01*
X23876Y222504D02*
X25400D01*
X26924Y224028D01*
X28448Y222504D01*
X29972D01*
Y224028D01*
X28448Y225552D01*
X29972Y227076D01*
Y228600D01*
X28448D01*
X26924Y227076D01*
X25400Y228600D01*
X23876D01*
Y227076D01*
X25400Y225552D01*
X23876Y224028D01*
Y222504D01*
X36830Y184658D02*
X39370D01*
X41910Y187198D01*
X44450Y184658D01*
X46990D01*
Y187198D01*
X44450Y189738D01*
X46990Y192278D01*
Y194818D01*
X44450D01*
X41910Y192278D01*
X39370Y194818D01*
X36830D01*
Y192278D01*
X39370Y189738D01*
X36830Y187198D01*
Y184658D01*
X38862Y186690D02*
X40386D01*
X41910Y188214D01*
X43434Y186690D01*
X44958D01*
Y188214D01*
X43434Y189738D01*
X44958Y191262D01*
Y192786D01*
X43434D01*
X41910Y191262D01*
X40386Y192786D01*
X38862D01*
Y191262D01*
X40386Y189738D01*
X38862Y188214D01*
Y186690D01*
X36830Y227076D02*
X39370D01*
X41910Y229616D01*
X44450Y227076D01*
X46990D01*
Y229616D01*
X44450Y232156D01*
X46990Y234696D01*
Y237236D01*
X44450D01*
X41910Y234696D01*
X39370Y237236D01*
X36830D01*
Y234696D01*
X39370Y232156D01*
X36830Y229616D01*
Y227076D01*
X38862Y229108D02*
X40386D01*
X41910Y230632D01*
X43434Y229108D01*
X44958D01*
Y230632D01*
X43434Y232156D01*
X44958Y233680D01*
Y235204D01*
X43434D01*
X41910Y233680D01*
X40386Y235204D01*
X38862D01*
Y233680D01*
X40386Y232156D01*
X38862Y230632D01*
Y229108D01*
X41910Y210820D02*
Y219284D01*
X46142Y223516D01*
X50374Y219284D01*
Y210820D01*
Y217168D01*
X41910D01*
X51816Y220472D02*
X54356D01*
X56896Y223012D01*
X59436Y220472D01*
X61976D01*
Y223012D01*
X59436Y225552D01*
X61976Y228092D01*
Y230632D01*
X59436D01*
X56896Y228092D01*
X54356Y230632D01*
X51816D01*
Y228092D01*
X54356Y225552D01*
X51816Y223012D01*
Y220472D01*
X53848Y222504D02*
X55372D01*
X56896Y224028D01*
X58420Y222504D01*
X59944D01*
Y224028D01*
X58420Y225552D01*
X59944Y227076D01*
Y228600D01*
X58420D01*
X56896Y227076D01*
X55372Y228600D01*
X53848D01*
Y227076D01*
X55372Y225552D01*
X53848Y224028D01*
Y222504D01*
X15748Y205740D02*
X18288D01*
X20828Y208280D01*
X23368Y205740D01*
X25908D01*
Y208280D01*
X23368Y210820D01*
X25908Y213360D01*
Y215900D01*
X23368D01*
X20828Y213360D01*
X18288Y215900D01*
X15748D01*
Y213360D01*
X18288Y210820D01*
X15748Y208280D01*
Y205740D01*
X17780Y207772D02*
X19304D01*
X20828Y209296D01*
X22352Y207772D01*
X23876D01*
Y209296D01*
X22352Y210820D01*
X23876Y212344D01*
Y213868D01*
X22352D01*
X20828Y212344D01*
X19304Y213868D01*
X17780D01*
Y212344D01*
X19304Y210820D01*
X17780Y209296D01*
Y207772D01*
X136680Y330210D02*
Y327670D01*
X141760D01*
Y330210D01*
X144300D01*
Y335290D01*
X141760D01*
Y337830D01*
X136680D01*
Y335290D01*
X134140D01*
Y330210D01*
X136680D01*
X74140Y327670D02*
X76680D01*
X79220Y330210D01*
X81760Y327670D01*
X84300D01*
Y330210D01*
X81760Y332750D01*
X84300Y335290D01*
Y337830D01*
X81760D01*
X79220Y335290D01*
X76680Y337830D01*
X74140D01*
Y335290D01*
X76680Y332750D01*
X74140Y330210D01*
Y327670D01*
X104140Y280670D02*
X106680D01*
X109220Y283210D01*
X111760Y280670D01*
X114300D01*
Y283210D01*
X111760Y285750D01*
X114300Y288290D01*
Y290830D01*
X111760D01*
X109220Y288290D01*
X106680Y290830D01*
X104140D01*
Y288290D01*
X106680Y285750D01*
X104140Y283210D01*
Y280670D01*
X840740Y811530D02*
X843280Y816610D01*
X840740Y821690D01*
X845820Y819150D01*
X850900Y821690D01*
X848360Y816610D01*
X850900Y811530D01*
X845820Y814070D01*
X840740Y811530D01*
Y786130D02*
X843280Y791210D01*
X840740Y796290D01*
X845820Y793750D01*
X850900Y796290D01*
X848360Y791210D01*
X850900Y786130D01*
X845820Y788670D01*
X840740Y786130D01*
Y760730D02*
X843280Y765810D01*
X840740Y770890D01*
X845820Y768350D01*
X850900Y770890D01*
X848360Y765810D01*
X850900Y760730D01*
X845820Y763270D01*
X840740Y760730D01*
Y735330D02*
X843280Y740410D01*
X840740Y745490D01*
X845820Y742950D01*
X850900Y745490D01*
X848360Y740410D01*
X850900Y735330D01*
X845820Y737870D01*
X840740Y735330D01*
Y709930D02*
X843280Y715010D01*
X840740Y720090D01*
X845820Y717550D01*
X850900Y720090D01*
X848360Y715010D01*
X850900Y709930D01*
X845820Y712470D01*
X840740Y709930D01*
Y684530D02*
X843280Y689610D01*
X840740Y694690D01*
X845820Y692150D01*
X850900Y694690D01*
X848360Y689610D01*
X850900Y684530D01*
X845820Y687070D01*
X840740Y684530D01*
Y659130D02*
X843280Y664210D01*
X840740Y669290D01*
X845820Y666750D01*
X850900Y669290D01*
X848360Y664210D01*
X850900Y659130D01*
X845820Y661670D01*
X840740Y659130D01*
Y633730D02*
X843280Y638810D01*
X840740Y643890D01*
X845820Y641350D01*
X850900Y643890D01*
X848360Y638810D01*
X850900Y633730D01*
X845820Y636270D01*
X840740Y633730D01*
Y608330D02*
X843280Y613410D01*
X840740Y618490D01*
X845820Y615950D01*
X850900Y618490D01*
X848360Y613410D01*
X850900Y608330D01*
X845820Y610870D01*
X840740Y608330D01*
Y582930D02*
X843280Y588010D01*
X840740Y593090D01*
X845820Y590550D01*
X850900Y593090D01*
X848360Y588010D01*
X850900Y582930D01*
X845820Y585470D01*
X840740Y582930D01*
Y557530D02*
X843280Y562610D01*
X840740Y567690D01*
X845820Y565150D01*
X850900Y567690D01*
X848360Y562610D01*
X850900Y557530D01*
X845820Y560070D01*
X840740Y557530D01*
Y532130D02*
X843280Y537210D01*
X840740Y542290D01*
X845820Y539750D01*
X850900Y542290D01*
X848360Y537210D01*
X850900Y532130D01*
X845820Y534670D01*
X840740Y532130D01*
Y506730D02*
X843280Y511810D01*
X840740Y516890D01*
X845820Y514350D01*
X850900Y516890D01*
X848360Y511810D01*
X850900Y506730D01*
X845820Y509270D01*
X840740Y506730D01*
Y481330D02*
X843280Y486410D01*
X840740Y491490D01*
X845820Y488950D01*
X850900Y491490D01*
X848360Y486410D01*
X850900Y481330D01*
X845820Y483870D01*
X840740Y481330D01*
X761540D02*
X764080Y486410D01*
X761540Y491490D01*
X766620Y488950D01*
X771700Y491490D01*
X769160Y486410D01*
X771700Y481330D01*
X766620Y483870D01*
X761540Y481330D01*
Y506730D02*
X764080Y511810D01*
X761540Y516890D01*
X766620Y514350D01*
X771700Y516890D01*
X769160Y511810D01*
X771700Y506730D01*
X766620Y509270D01*
X761540Y506730D01*
Y532130D02*
X764080Y537210D01*
X761540Y542290D01*
X766620Y539750D01*
X771700Y542290D01*
X769160Y537210D01*
X771700Y532130D01*
X766620Y534670D01*
X761540Y532130D01*
Y557530D02*
X764080Y562610D01*
X761540Y567690D01*
X766620Y565150D01*
X771700Y567690D01*
X769160Y562610D01*
X771700Y557530D01*
X766620Y560070D01*
X761540Y557530D01*
Y582930D02*
X764080Y588010D01*
X761540Y593090D01*
X766620Y590550D01*
X771700Y593090D01*
X769160Y588010D01*
X771700Y582930D01*
X766620Y585470D01*
X761540Y582930D01*
Y608330D02*
X764080Y613410D01*
X761540Y618490D01*
X766620Y615950D01*
X771700Y618490D01*
X769160Y613410D01*
X771700Y608330D01*
X766620Y610870D01*
X761540Y608330D01*
Y709930D02*
X764080Y715010D01*
X761540Y720090D01*
X766620Y717550D01*
X771700Y720090D01*
X769160Y715010D01*
X771700Y709930D01*
X766620Y712470D01*
X761540Y709930D01*
Y684530D02*
X764080Y689610D01*
X761540Y694690D01*
X766620Y692150D01*
X771700Y694690D01*
X769160Y689610D01*
X771700Y684530D01*
X766620Y687070D01*
X761540Y684530D01*
Y735330D02*
X764080Y740410D01*
X761540Y745490D01*
X766620Y742950D01*
X771700Y745490D01*
X769160Y740410D01*
X771700Y735330D01*
X766620Y737870D01*
X761540Y735330D01*
Y760730D02*
X764080Y765810D01*
X761540Y770890D01*
X766620Y768350D01*
X771700Y770890D01*
X769160Y765810D01*
X771700Y760730D01*
X766620Y763270D01*
X761540Y760730D01*
Y633730D02*
X764080Y638810D01*
X761540Y643890D01*
X766620Y641350D01*
X771700Y643890D01*
X769160Y638810D01*
X771700Y633730D01*
X766620Y636270D01*
X761540Y633730D01*
Y659130D02*
X764080Y664210D01*
X761540Y669290D01*
X766620Y666750D01*
X771700Y669290D01*
X769160Y664210D01*
X771700Y659130D01*
X766620Y661670D01*
X761540Y659130D01*
Y786130D02*
X764080Y791210D01*
X761540Y796290D01*
X766620Y793750D01*
X771700Y796290D01*
X769160Y791210D01*
X771700Y786130D01*
X766620Y788670D01*
X761540Y786130D01*
Y811530D02*
X764080Y816610D01*
X761540Y821690D01*
X766620Y819150D01*
X771700Y821690D01*
X769160Y816610D01*
X771700Y811530D01*
X766620Y814070D01*
X761540Y811530D01*
X1076960Y275590D02*
Y273050D01*
X1082040D01*
Y275590D01*
X1084580D01*
Y280670D01*
X1082040D01*
Y283210D01*
X1076960D01*
Y280670D01*
X1074420D01*
Y275590D01*
X1076960D01*
X1077976Y276606D02*
Y275082D01*
X1081024D01*
Y276606D01*
X1082548D01*
Y279654D01*
X1081024D01*
Y281178D01*
X1077976D01*
Y279654D01*
X1076452D01*
Y276606D01*
X1077976D01*
X889000Y247650D02*
X891540Y252730D01*
X889000Y257810D01*
X894080Y255270D01*
X899160Y257810D01*
X896620Y252730D01*
X899160Y247650D01*
X894080Y250190D01*
X889000Y247650D01*
X914400D02*
X916940Y252730D01*
X914400Y257810D01*
X919480Y255270D01*
X924560Y257810D01*
X922020Y252730D01*
X924560Y247650D01*
X919480Y250190D01*
X914400Y247650D01*
X939800D02*
X942340Y252730D01*
X939800Y257810D01*
X944880Y255270D01*
X949960Y257810D01*
X947420Y252730D01*
X949960Y247650D01*
X944880Y250190D01*
X939800Y247650D01*
X965200D02*
X967740Y252730D01*
X965200Y257810D01*
X970280Y255270D01*
X975360Y257810D01*
X972820Y252730D01*
X975360Y247650D01*
X970280Y250190D01*
X965200Y247650D01*
Y323850D02*
X967740Y328930D01*
X965200Y334010D01*
X970280Y331470D01*
X975360Y334010D01*
X972820Y328930D01*
X975360Y323850D01*
X970280Y326390D01*
X965200Y323850D01*
X939800D02*
X942340Y328930D01*
X939800Y334010D01*
X944880Y331470D01*
X949960Y334010D01*
X947420Y328930D01*
X949960Y323850D01*
X944880Y326390D01*
X939800Y323850D01*
X914400D02*
X916940Y328930D01*
X914400Y334010D01*
X919480Y331470D01*
X924560Y334010D01*
X922020Y328930D01*
X924560Y323850D01*
X919480Y326390D01*
X914400Y323850D01*
X889000D02*
X891540Y328930D01*
X889000Y334010D01*
X894080Y331470D01*
X899160Y334010D01*
X896620Y328930D01*
X899160Y323850D01*
X894080Y326390D01*
X889000Y323850D01*
X146050Y163160D02*
X148590Y168240D01*
X146050Y173320D01*
X151130Y170780D01*
X156210Y173320D01*
X153670Y168240D01*
X156210Y163160D01*
X151130Y165700D01*
X146050Y163160D01*
Y238160D02*
X148590Y243240D01*
X146050Y248320D01*
X151130Y245780D01*
X156210Y248320D01*
X153670Y243240D01*
X156210Y238160D01*
X151130Y240700D01*
X146050Y238160D01*
X471170Y270510D02*
Y267970D01*
X476250D01*
Y270510D01*
X478790D01*
Y275590D01*
X476250D01*
Y278130D01*
X471170D01*
Y275590D01*
X468630D01*
Y270510D01*
X471170D01*
X472186Y271526D02*
Y270002D01*
X475234D01*
Y271526D01*
X476758D01*
Y274574D01*
X475234D01*
Y276098D01*
X472186D01*
Y274574D01*
X470662D01*
Y271526D01*
X472186D01*
X468630Y636270D02*
Y633730D01*
X473710D01*
Y636270D01*
X476250D01*
Y641350D01*
X473710D01*
Y643890D01*
X468630D01*
Y641350D01*
X466090D01*
Y636270D01*
X468630D01*
X469646Y637286D02*
Y635762D01*
X472694D01*
Y637286D01*
X474218D01*
Y640334D01*
X472694D01*
Y641858D01*
X469646D01*
Y640334D01*
X468122D01*
Y637286D01*
X469646D01*
X1069340Y822960D02*
Y820420D01*
X1074420D01*
Y822960D01*
X1076960D01*
Y828040D01*
X1074420D01*
Y830580D01*
X1069340D01*
Y828040D01*
X1066800D01*
Y822960D01*
X1069340D01*
X1070356Y823976D02*
Y822452D01*
X1073404D01*
Y823976D01*
X1074928D01*
Y827024D01*
X1073404D01*
Y828548D01*
X1070356D01*
Y827024D01*
X1068832D01*
Y823976D01*
X1070356D01*
X52070Y756920D02*
Y767080D01*
X62230D01*
Y756920D01*
X52070D01*
Y807720D02*
Y817880D01*
X62230D01*
Y807720D01*
X52070D01*
X514870Y851810D02*
X509790Y861970D01*
X519950D01*
X514870Y851810D01*
X579870D02*
X574790Y861970D01*
X584950D01*
X579870Y851810D01*
X516370Y806810D02*
X511290Y816970D01*
X521450D01*
X516370Y806810D01*
X579870D02*
X574790Y816970D01*
X584950D01*
X579870Y806810D01*
X20250Y574020D02*
Y584180D01*
X30410D01*
Y574020D01*
X20250D01*
X22282Y576052D02*
Y582148D01*
X28378D01*
Y576052D01*
X22282D01*
X20250Y660420D02*
Y670580D01*
X30410D01*
Y660420D01*
X20250D01*
X22282Y662452D02*
Y668548D01*
X28378D01*
Y662452D01*
X22282D01*
X1437640Y22860D02*
Y33020D01*
X1447800D01*
Y22860D01*
X1437640D01*
Y73660D02*
Y83820D01*
X1447800D01*
Y73660D01*
X1437640D01*
Y124460D02*
Y134620D01*
X1447800D01*
Y124460D01*
X1437640D01*
Y175260D02*
Y185420D01*
X1447800D01*
Y175260D01*
X1437640D01*
X1169670Y77470D02*
Y87630D01*
X1179830D01*
Y77470D01*
X1169670D01*
X1220470D02*
Y87630D01*
X1230630D01*
Y77470D01*
X1220470D01*
X1271270D02*
Y87630D01*
X1281430D01*
Y77470D01*
X1271270D01*
X1322070D02*
Y87630D01*
X1332230D01*
Y77470D01*
X1322070D01*
X957580D02*
Y87630D01*
X967740D01*
Y77470D01*
X957580D01*
X1008380D02*
Y87630D01*
X1018540D01*
Y77470D01*
X1008380D01*
X1059180D02*
Y87630D01*
X1069340D01*
Y77470D01*
X1059180D01*
X1109980D02*
Y87630D01*
X1120140D01*
Y77470D01*
X1109980D01*
X25400Y76200D02*
Y86360D01*
X35560D01*
Y76200D01*
X25400D01*
X76200D02*
Y86360D01*
X86360D01*
Y76200D01*
X76200D01*
X127000D02*
Y86360D01*
X137160D01*
Y76200D01*
X127000D01*
X177800D02*
Y86360D01*
X187960D01*
Y76200D01*
X177800D01*
X657860Y73660D02*
Y83820D01*
X668020D01*
Y73660D01*
X657860D01*
X607060D02*
Y83820D01*
X617220D01*
Y73660D01*
X607060D01*
X556260D02*
Y83820D01*
X566420D01*
Y73660D01*
X556260D01*
X505460D02*
Y83820D01*
X515620D01*
Y73660D01*
X505460D01*
X642620Y323850D02*
X645160Y328930D01*
X642620Y334010D01*
X647700Y331470D01*
X652780Y334010D01*
X650240Y328930D01*
X652780Y323850D01*
X647700Y326390D01*
X642620Y323850D01*
X668020D02*
X670560Y328930D01*
X668020Y334010D01*
X673100Y331470D01*
X678180Y334010D01*
X675640Y328930D01*
X678180Y323850D01*
X673100Y326390D01*
X668020Y323850D01*
X693420D02*
X695960Y328930D01*
X693420Y334010D01*
X698500Y331470D01*
X703580Y334010D01*
X701040Y328930D01*
X703580Y323850D01*
X698500Y326390D01*
X693420Y323850D01*
X718820D02*
X721360Y328930D01*
X718820Y334010D01*
X723900Y331470D01*
X728980Y334010D01*
X726440Y328930D01*
X728980Y323850D01*
X723900Y326390D01*
X718820Y323850D01*
Y247650D02*
X721360Y252730D01*
X718820Y257810D01*
X723900Y255270D01*
X728980Y257810D01*
X726440Y252730D01*
X728980Y247650D01*
X723900Y250190D01*
X718820Y247650D01*
X693420D02*
X695960Y252730D01*
X693420Y257810D01*
X698500Y255270D01*
X703580Y257810D01*
X701040Y252730D01*
X703580Y247650D01*
X698500Y250190D01*
X693420Y247650D01*
X668020D02*
X670560Y252730D01*
X668020Y257810D01*
X673100Y255270D01*
X678180Y257810D01*
X675640Y252730D01*
X678180Y247650D01*
X673100Y250190D01*
X668020Y247650D01*
X642620D02*
X645160Y252730D01*
X642620Y257810D01*
X647700Y255270D01*
X652780Y257810D01*
X650240Y252730D01*
X652780Y247650D01*
X647700Y250190D01*
X642620Y247650D01*
X1118870Y393700D02*
X1121410Y398780D01*
X1118870Y403860D01*
X1123950Y401320D01*
X1129030Y403860D01*
X1126490Y398780D01*
X1129030Y393700D01*
X1123950Y396240D01*
X1118870Y393700D01*
Y419100D02*
X1121410Y424180D01*
X1118870Y429260D01*
X1123950Y426720D01*
X1129030Y429260D01*
X1126490Y424180D01*
X1129030Y419100D01*
X1123950Y421640D01*
X1118870Y419100D01*
Y444500D02*
X1121410Y449580D01*
X1118870Y454660D01*
X1123950Y452120D01*
X1129030Y454660D01*
X1126490Y449580D01*
X1129030Y444500D01*
X1123950Y447040D01*
X1118870Y444500D01*
Y469900D02*
X1121410Y474980D01*
X1118870Y480060D01*
X1123950Y477520D01*
X1129030Y480060D01*
X1126490Y474980D01*
X1129030Y469900D01*
X1123950Y472440D01*
X1118870Y469900D01*
X1195070D02*
X1197610Y474980D01*
X1195070Y480060D01*
X1200150Y477520D01*
X1205230Y480060D01*
X1202690Y474980D01*
X1205230Y469900D01*
X1200150Y472440D01*
X1195070Y469900D01*
Y444500D02*
X1197610Y449580D01*
X1195070Y454660D01*
X1200150Y452120D01*
X1205230Y454660D01*
X1202690Y449580D01*
X1205230Y444500D01*
X1200150Y447040D01*
X1195070Y444500D01*
Y419100D02*
X1197610Y424180D01*
X1195070Y429260D01*
X1200150Y426720D01*
X1205230Y429260D01*
X1202690Y424180D01*
X1205230Y419100D01*
X1200150Y421640D01*
X1195070Y419100D01*
Y393700D02*
X1197610Y398780D01*
X1195070Y403860D01*
X1200150Y401320D01*
X1205230Y403860D01*
X1202690Y398780D01*
X1205230Y393700D01*
X1200150Y396240D01*
X1195070Y393700D01*
X1118870Y505460D02*
X1121410Y510540D01*
X1118870Y515620D01*
X1123950Y513080D01*
X1129030Y515620D01*
X1126490Y510540D01*
X1129030Y505460D01*
X1123950Y508000D01*
X1118870Y505460D01*
Y530860D02*
X1121410Y535940D01*
X1118870Y541020D01*
X1123950Y538480D01*
X1129030Y541020D01*
X1126490Y535940D01*
X1129030Y530860D01*
X1123950Y533400D01*
X1118870Y530860D01*
Y556260D02*
X1121410Y561340D01*
X1118870Y566420D01*
X1123950Y563880D01*
X1129030Y566420D01*
X1126490Y561340D01*
X1129030Y556260D01*
X1123950Y558800D01*
X1118870Y556260D01*
Y581660D02*
X1121410Y586740D01*
X1118870Y591820D01*
X1123950Y589280D01*
X1129030Y591820D01*
X1126490Y586740D01*
X1129030Y581660D01*
X1123950Y584200D01*
X1118870Y581660D01*
X1195070D02*
X1197610Y586740D01*
X1195070Y591820D01*
X1200150Y589280D01*
X1205230Y591820D01*
X1202690Y586740D01*
X1205230Y581660D01*
X1200150Y584200D01*
X1195070Y581660D01*
Y556260D02*
X1197610Y561340D01*
X1195070Y566420D01*
X1200150Y563880D01*
X1205230Y566420D01*
X1202690Y561340D01*
X1205230Y556260D01*
X1200150Y558800D01*
X1195070Y556260D01*
Y530860D02*
X1197610Y535940D01*
X1195070Y541020D01*
X1200150Y538480D01*
X1205230Y541020D01*
X1202690Y535940D01*
X1205230Y530860D01*
X1200150Y533400D01*
X1195070Y530860D01*
Y505460D02*
X1197610Y510540D01*
X1195070Y515620D01*
X1200150Y513080D01*
X1205230Y515620D01*
X1202690Y510540D01*
X1205230Y505460D01*
X1200150Y508000D01*
X1195070Y505460D01*
X392430Y74930D02*
Y85090D01*
X402590D01*
Y74930D01*
X392430D01*
X341630D02*
Y85090D01*
X351790D01*
Y74930D01*
X341630D01*
X290830D02*
Y85090D01*
X300990D01*
Y74930D01*
X290830D01*
X240030D02*
Y85090D01*
X250190D01*
Y74930D01*
X240030D01*
X1159510Y786130D02*
Y796290D01*
X1169670D01*
Y786130D01*
X1159510D01*
X1210310D02*
Y796290D01*
X1220470D01*
Y786130D01*
X1210310D01*
X1261110D02*
Y796290D01*
X1271270D01*
Y786130D01*
X1261110D01*
X1311910D02*
Y796290D01*
X1322070D01*
Y786130D01*
X1311910D01*
X1198880Y624840D02*
X1201420Y627380D01*
X1203960D01*
X1201420Y629920D01*
X1203960Y632460D01*
X1201420D01*
X1198880Y635000D01*
X1196340Y632460D01*
X1193800D01*
X1196340Y629920D01*
X1193800Y627380D01*
X1196340D01*
X1198880Y624840D01*
Y650240D02*
X1201420Y652780D01*
X1203960D01*
X1201420Y655320D01*
X1203960Y657860D01*
X1201420D01*
X1198880Y660400D01*
X1196340Y657860D01*
X1193800D01*
X1196340Y655320D01*
X1193800Y652780D01*
X1196340D01*
X1198880Y650240D01*
X1122680D02*
X1125220Y652780D01*
X1127760D01*
X1125220Y655320D01*
X1127760Y657860D01*
X1125220D01*
X1122680Y660400D01*
X1120140Y657860D01*
X1117600D01*
X1120140Y655320D01*
X1117600Y652780D01*
X1120140D01*
X1122680Y650240D01*
Y624840D02*
X1125220Y627380D01*
X1127760D01*
X1125220Y629920D01*
X1127760Y632460D01*
X1125220D01*
X1122680Y635000D01*
X1120140Y632460D01*
X1117600D01*
X1120140Y629920D01*
X1117600Y627380D01*
X1120140D01*
X1122680Y624840D01*
X765810Y323850D02*
X768350Y328930D01*
X765810Y334010D01*
X770890Y331470D01*
X775970Y334010D01*
X773430Y328930D01*
X775970Y323850D01*
X770890Y326390D01*
X765810Y323850D01*
X791210D02*
X793750Y328930D01*
X791210Y334010D01*
X796290Y331470D01*
X801370Y334010D01*
X798830Y328930D01*
X801370Y323850D01*
X796290Y326390D01*
X791210Y323850D01*
X816610D02*
X819150Y328930D01*
X816610Y334010D01*
X821690Y331470D01*
X826770Y334010D01*
X824230Y328930D01*
X826770Y323850D01*
X821690Y326390D01*
X816610Y323850D01*
X842010D02*
X844550Y328930D01*
X842010Y334010D01*
X847090Y331470D01*
X852170Y334010D01*
X849630Y328930D01*
X852170Y323850D01*
X847090Y326390D01*
X842010Y323850D01*
Y247650D02*
X844550Y252730D01*
X842010Y257810D01*
X847090Y255270D01*
X852170Y257810D01*
X849630Y252730D01*
X852170Y247650D01*
X847090Y250190D01*
X842010Y247650D01*
X816610D02*
X819150Y252730D01*
X816610Y257810D01*
X821690Y255270D01*
X826770Y257810D01*
X824230Y252730D01*
X826770Y247650D01*
X821690Y250190D01*
X816610Y247650D01*
X791210D02*
X793750Y252730D01*
X791210Y257810D01*
X796290Y255270D01*
X801370Y257810D01*
X798830Y252730D01*
X801370Y247650D01*
X796290Y250190D01*
X791210Y247650D01*
X765810D02*
X768350Y252730D01*
X765810Y257810D01*
X770890Y255270D01*
X775970Y257810D01*
X773430Y252730D01*
X775970Y247650D01*
X770890Y250190D01*
X765810Y247650D01*
X871220Y72390D02*
Y82550D01*
X881380D01*
Y72390D01*
X871220D01*
X820420D02*
Y82550D01*
X830580D01*
Y72390D01*
X820420D01*
X769620D02*
Y82550D01*
X779780D01*
Y72390D01*
X769620D01*
X718820D02*
Y82550D01*
X728980D01*
Y72390D01*
X718820D01*
X1436370Y839470D02*
Y849630D01*
X1446530D01*
Y839470D01*
X1436370D01*
Y788670D02*
Y798830D01*
X1446530D01*
Y788670D01*
X1436370D01*
Y737870D02*
Y748030D01*
X1446530D01*
Y737870D01*
X1436370D01*
Y687070D02*
Y697230D01*
X1446530D01*
Y687070D01*
X1436370D01*
Y624840D02*
Y635000D01*
X1446530D01*
Y624840D01*
X1436370D01*
Y574040D02*
Y584200D01*
X1446530D01*
Y574040D01*
X1436370D01*
Y523240D02*
Y533400D01*
X1446530D01*
Y523240D01*
X1436370D01*
Y472440D02*
Y482600D01*
X1446530D01*
Y472440D01*
X1436370D01*
X1438910Y388620D02*
Y398780D01*
X1449070D01*
Y388620D01*
X1438910D01*
Y337820D02*
Y347980D01*
X1449070D01*
Y337820D01*
X1438910D01*
Y287020D02*
Y297180D01*
X1449070D01*
Y287020D01*
X1438910D01*
Y236220D02*
Y246380D01*
X1449070D01*
Y236220D01*
X1438910D01*
X336550Y427990D02*
X341630Y433070D01*
X346710Y427990D01*
X341630Y422910D01*
X336550Y427990D01*
X311550D02*
X316630Y433070D01*
X321710Y427990D01*
X316630Y422910D01*
X311550Y427990D01*
X219710Y351790D02*
X222250Y356870D01*
X219710Y361950D01*
X224790Y359410D01*
X229870Y361950D01*
X227330Y356870D01*
X229870Y351790D01*
X224790Y354330D01*
X219710Y351790D01*
X221742Y353822D02*
X223266Y356870D01*
X221742Y359918D01*
X224790Y358394D01*
X227838Y359918D01*
X226314Y356870D01*
X227838Y353822D01*
X224790Y355346D01*
X221742Y353822D01*
X219710Y332740D02*
X222250Y337820D01*
X219710Y342900D01*
X224790Y340360D01*
X229870Y342900D01*
X227330Y337820D01*
X229870Y332740D01*
X224790Y335280D01*
X219710Y332740D01*
X221742Y334772D02*
X223266Y337820D01*
X221742Y340868D01*
X224790Y339344D01*
X227838Y340868D01*
X226314Y337820D01*
X227838Y334772D01*
X224790Y336296D01*
X221742Y334772D01*
X234950Y341630D02*
X237490Y346710D01*
X234950Y351790D01*
X240030Y349250D01*
X245110Y351790D01*
X242570Y346710D01*
X245110Y341630D01*
X240030Y344170D01*
X234950Y341630D01*
X236982Y343662D02*
X238506Y346710D01*
X236982Y349758D01*
X240030Y348234D01*
X243078Y349758D01*
X241554Y346710D01*
X243078Y343662D01*
X240030Y345186D01*
X236982Y343662D01*
X787400Y538480D02*
X789940Y543560D01*
X787400Y548640D01*
X792480Y546100D01*
X797560Y548640D01*
X795020Y543560D01*
X797560Y538480D01*
X792480Y541020D01*
X787400Y538480D01*
X789432Y540512D02*
X790956Y543560D01*
X789432Y546608D01*
X792480Y545084D01*
X795528Y546608D01*
X794004Y543560D01*
X795528Y540512D01*
X792480Y542036D01*
X789432Y540512D01*
X787400Y519430D02*
X789940Y524510D01*
X787400Y529590D01*
X792480Y527050D01*
X797560Y529590D01*
X795020Y524510D01*
X797560Y519430D01*
X792480Y521970D01*
X787400Y519430D01*
X789432Y521462D02*
X790956Y524510D01*
X789432Y527558D01*
X792480Y526034D01*
X795528Y527558D01*
X794004Y524510D01*
X795528Y521462D01*
X792480Y522986D01*
X789432Y521462D01*
X802640Y528320D02*
X805180Y533400D01*
X802640Y538480D01*
X807720Y535940D01*
X812800Y538480D01*
X810260Y533400D01*
X812800Y528320D01*
X807720Y530860D01*
X802640Y528320D01*
X804672Y530352D02*
X806196Y533400D01*
X804672Y536448D01*
X807720Y534924D01*
X810768Y536448D01*
X809244Y533400D01*
X810768Y530352D01*
X807720Y531876D01*
X804672Y530352D01*
X803910Y546100D02*
X806450Y551180D01*
X803910Y556260D01*
X808990Y553720D01*
X814070Y556260D01*
X811530Y551180D01*
X814070Y546100D01*
X808990Y548640D01*
X803910Y546100D01*
X805942Y548132D02*
X807466Y551180D01*
X805942Y554228D01*
X808990Y552704D01*
X812038Y554228D01*
X810514Y551180D01*
X812038Y548132D01*
X808990Y549656D01*
X805942Y548132D01*
X803910Y565150D02*
X806450Y570230D01*
X803910Y575310D01*
X808990Y572770D01*
X814070Y575310D01*
X811530Y570230D01*
X814070Y565150D01*
X808990Y567690D01*
X803910Y565150D01*
X805942Y567182D02*
X807466Y570230D01*
X805942Y573278D01*
X808990Y571754D01*
X812038Y573278D01*
X810514Y570230D01*
X812038Y567182D01*
X808990Y568706D01*
X805942Y567182D01*
X788670Y556260D02*
X791210Y561340D01*
X788670Y566420D01*
X793750Y563880D01*
X798830Y566420D01*
X796290Y561340D01*
X798830Y556260D01*
X793750Y558800D01*
X788670Y556260D01*
X790702Y558292D02*
X792226Y561340D01*
X790702Y564388D01*
X793750Y562864D01*
X796798Y564388D01*
X795274Y561340D01*
X796798Y558292D01*
X793750Y559816D01*
X790702Y558292D01*
X1045210Y619760D02*
X1047750Y624840D01*
X1045210Y629920D01*
X1050290Y627380D01*
X1055370Y629920D01*
X1052830Y624840D01*
X1055370Y619760D01*
X1050290Y622300D01*
X1045210Y619760D01*
X1047242Y621792D02*
X1048766Y624840D01*
X1047242Y627888D01*
X1050290Y626364D01*
X1053338Y627888D01*
X1051814Y624840D01*
X1053338Y621792D01*
X1050290Y623316D01*
X1047242Y621792D01*
X1045210Y638810D02*
X1047750Y643890D01*
X1045210Y648970D01*
X1050290Y646430D01*
X1055370Y648970D01*
X1052830Y643890D01*
X1055370Y638810D01*
X1050290Y641350D01*
X1045210Y638810D01*
X1047242Y640842D02*
X1048766Y643890D01*
X1047242Y646938D01*
X1050290Y645414D01*
X1053338Y646938D01*
X1051814Y643890D01*
X1053338Y640842D01*
X1050290Y642366D01*
X1047242Y640842D01*
X1029970Y629920D02*
X1032510Y635000D01*
X1029970Y640080D01*
X1035050Y637540D01*
X1040130Y640080D01*
X1037590Y635000D01*
X1040130Y629920D01*
X1035050Y632460D01*
X1029970Y629920D01*
X1032002Y631952D02*
X1033526Y635000D01*
X1032002Y638048D01*
X1035050Y636524D01*
X1038098Y638048D01*
X1036574Y635000D01*
X1038098Y631952D01*
X1035050Y633476D01*
X1032002Y631952D01*
X1022350Y665480D02*
X1024890Y670560D01*
X1022350Y675640D01*
X1027430Y673100D01*
X1032510Y675640D01*
X1029970Y670560D01*
X1032510Y665480D01*
X1027430Y668020D01*
X1022350Y665480D01*
X1024382Y667512D02*
X1025906Y670560D01*
X1024382Y673608D01*
X1027430Y672084D01*
X1030478Y673608D01*
X1028954Y670560D01*
X1030478Y667512D01*
X1027430Y669036D01*
X1024382Y667512D01*
X1022350Y646430D02*
X1024890Y651510D01*
X1022350Y656590D01*
X1027430Y654050D01*
X1032510Y656590D01*
X1029970Y651510D01*
X1032510Y646430D01*
X1027430Y648970D01*
X1022350Y646430D01*
X1024382Y648462D02*
X1025906Y651510D01*
X1024382Y654558D01*
X1027430Y653034D01*
X1030478Y654558D01*
X1028954Y651510D01*
X1030478Y648462D01*
X1027430Y649986D01*
X1024382Y648462D01*
X1037590Y655320D02*
X1040130Y660400D01*
X1037590Y665480D01*
X1042670Y662940D01*
X1047750Y665480D01*
X1045210Y660400D01*
X1047750Y655320D01*
X1042670Y657860D01*
X1037590Y655320D01*
X1039622Y657352D02*
X1041146Y660400D01*
X1039622Y663448D01*
X1042670Y661924D01*
X1045718Y663448D01*
X1044194Y660400D01*
X1045718Y657352D01*
X1042670Y658876D01*
X1039622Y657352D01*
X670560Y483870D02*
X673100Y488950D01*
X670560Y494030D01*
X675640Y491490D01*
X680720Y494030D01*
X678180Y488950D01*
X680720Y483870D01*
X675640Y486410D01*
X670560Y483870D01*
X672592Y485902D02*
X674116Y488950D01*
X672592Y491998D01*
X675640Y490474D01*
X678688Y491998D01*
X677164Y488950D01*
X678688Y485902D01*
X675640Y487426D01*
X672592Y485902D01*
X670560Y464820D02*
X673100Y469900D01*
X670560Y474980D01*
X675640Y472440D01*
X680720Y474980D01*
X678180Y469900D01*
X680720Y464820D01*
X675640Y467360D01*
X670560Y464820D01*
X672592Y466852D02*
X674116Y469900D01*
X672592Y472948D01*
X675640Y471424D01*
X678688Y472948D01*
X677164Y469900D01*
X678688Y466852D01*
X675640Y468376D01*
X672592Y466852D01*
X685800Y473710D02*
X688340Y478790D01*
X685800Y483870D01*
X690880Y481330D01*
X695960Y483870D01*
X693420Y478790D01*
X695960Y473710D01*
X690880Y476250D01*
X685800Y473710D01*
X687832Y475742D02*
X689356Y478790D01*
X687832Y481838D01*
X690880Y480314D01*
X693928Y481838D01*
X692404Y478790D01*
X693928Y475742D01*
X690880Y477266D01*
X687832Y475742D01*
X655320Y464820D02*
X657860Y469900D01*
X655320Y474980D01*
X660400Y472440D01*
X665480Y474980D01*
X662940Y469900D01*
X665480Y464820D01*
X660400Y467360D01*
X655320Y464820D01*
X657352Y466852D02*
X658876Y469900D01*
X657352Y472948D01*
X660400Y471424D01*
X663448Y472948D01*
X661924Y469900D01*
X663448Y466852D01*
X660400Y468376D01*
X657352Y466852D01*
X655320Y483870D02*
X657860Y488950D01*
X655320Y494030D01*
X660400Y491490D01*
X665480Y494030D01*
X662940Y488950D01*
X665480Y483870D01*
X660400Y486410D01*
X655320Y483870D01*
X657352Y485902D02*
X658876Y488950D01*
X657352Y491998D01*
X660400Y490474D01*
X663448Y491998D01*
X661924Y488950D01*
X663448Y485902D01*
X660400Y487426D01*
X657352Y485902D01*
X640080Y474980D02*
X642620Y480060D01*
X640080Y485140D01*
X645160Y482600D01*
X650240Y485140D01*
X647700Y480060D01*
X650240Y474980D01*
X645160Y477520D01*
X640080Y474980D01*
X642112Y477012D02*
X643636Y480060D01*
X642112Y483108D01*
X645160Y481584D01*
X648208Y483108D01*
X646684Y480060D01*
X648208Y477012D01*
X645160Y478536D01*
X642112Y477012D01*
X308610Y495300D02*
X311150Y500380D01*
X308610Y505460D01*
X313690Y502920D01*
X318770Y505460D01*
X316230Y500380D01*
X318770Y495300D01*
X313690Y497840D01*
X308610Y495300D01*
X310642Y497332D02*
X312166Y500380D01*
X310642Y503428D01*
X313690Y501904D01*
X316738Y503428D01*
X315214Y500380D01*
X316738Y497332D01*
X313690Y498856D01*
X310642Y497332D01*
X308610Y514350D02*
X311150Y519430D01*
X308610Y524510D01*
X313690Y521970D01*
X318770Y524510D01*
X316230Y519430D01*
X318770Y514350D01*
X313690Y516890D01*
X308610Y514350D01*
X310642Y516382D02*
X312166Y519430D01*
X310642Y522478D01*
X313690Y520954D01*
X316738Y522478D01*
X315214Y519430D01*
X316738Y516382D01*
X313690Y517906D01*
X310642Y516382D01*
X293370Y505460D02*
X295910Y510540D01*
X293370Y515620D01*
X298450Y513080D01*
X303530Y515620D01*
X300990Y510540D01*
X303530Y505460D01*
X298450Y508000D01*
X293370Y505460D01*
X295402Y507492D02*
X296926Y510540D01*
X295402Y513588D01*
X298450Y512064D01*
X301498Y513588D01*
X299974Y510540D01*
X301498Y507492D01*
X298450Y509016D01*
X295402Y507492D01*
X276860Y496570D02*
X279400Y501650D01*
X276860Y506730D01*
X281940Y504190D01*
X287020Y506730D01*
X284480Y501650D01*
X287020Y496570D01*
X281940Y499110D01*
X276860Y496570D01*
X278892Y498602D02*
X280416Y501650D01*
X278892Y504698D01*
X281940Y503174D01*
X284988Y504698D01*
X283464Y501650D01*
X284988Y498602D01*
X281940Y500126D01*
X278892Y498602D01*
X276860Y477520D02*
X279400Y482600D01*
X276860Y487680D01*
X281940Y485140D01*
X287020Y487680D01*
X284480Y482600D01*
X287020Y477520D01*
X281940Y480060D01*
X276860Y477520D01*
X278892Y479552D02*
X280416Y482600D01*
X278892Y485648D01*
X281940Y484124D01*
X284988Y485648D01*
X283464Y482600D01*
X284988Y479552D01*
X281940Y481076D01*
X278892Y479552D01*
X292100Y486410D02*
X294640Y491490D01*
X292100Y496570D01*
X297180Y494030D01*
X302260Y496570D01*
X299720Y491490D01*
X302260Y486410D01*
X297180Y488950D01*
X292100Y486410D01*
X294132Y488442D02*
X295656Y491490D01*
X294132Y494538D01*
X297180Y493014D01*
X300228Y494538D01*
X298704Y491490D01*
X300228Y488442D01*
X297180Y489966D01*
X294132Y488442D01*
X104140Y758190D02*
X106680Y763270D01*
X104140Y768350D01*
X109220Y765810D01*
X114300Y768350D01*
X111760Y763270D01*
X114300Y758190D01*
X109220Y760730D01*
X104140Y758190D01*
X106172Y760222D02*
X107696Y763270D01*
X106172Y766318D01*
X109220Y764794D01*
X112268Y766318D01*
X110744Y763270D01*
X112268Y760222D01*
X109220Y761746D01*
X106172Y760222D01*
X91440Y758190D02*
X93980Y763270D01*
X91440Y768350D01*
X96520Y765810D01*
X101600Y768350D01*
X99060Y763270D01*
X101600Y758190D01*
X96520Y760730D01*
X91440Y758190D01*
X93472Y760222D02*
X94996Y763270D01*
X93472Y766318D01*
X96520Y764794D01*
X99568Y766318D01*
X98044Y763270D01*
X99568Y760222D01*
X96520Y761746D01*
X93472Y760222D01*
X78740Y758190D02*
X81280Y763270D01*
X78740Y768350D01*
X83820Y765810D01*
X88900Y768350D01*
X86360Y763270D01*
X88900Y758190D01*
X83820Y760730D01*
X78740Y758190D01*
X80772Y760222D02*
X82296Y763270D01*
X80772Y766318D01*
X83820Y764794D01*
X86868Y766318D01*
X85344Y763270D01*
X86868Y760222D01*
X83820Y761746D01*
X80772Y760222D01*
X104140Y782320D02*
X106680Y787400D01*
X104140Y792480D01*
X109220Y789940D01*
X114300Y792480D01*
X111760Y787400D01*
X114300Y782320D01*
X109220Y784860D01*
X104140Y782320D01*
X106172Y784352D02*
X107696Y787400D01*
X106172Y790448D01*
X109220Y788924D01*
X112268Y790448D01*
X110744Y787400D01*
X112268Y784352D01*
X109220Y785876D01*
X106172Y784352D01*
X91440Y782320D02*
X93980Y787400D01*
X91440Y792480D01*
X96520Y789940D01*
X101600Y792480D01*
X99060Y787400D01*
X101600Y782320D01*
X96520Y784860D01*
X91440Y782320D01*
X93472Y784352D02*
X94996Y787400D01*
X93472Y790448D01*
X96520Y788924D01*
X99568Y790448D01*
X98044Y787400D01*
X99568Y784352D01*
X96520Y785876D01*
X93472Y784352D01*
X78740Y782320D02*
X81280Y787400D01*
X78740Y792480D01*
X83820Y789940D01*
X88900Y792480D01*
X86360Y787400D01*
X88900Y782320D01*
X83820Y784860D01*
X78740Y782320D01*
X80772Y784352D02*
X82296Y787400D01*
X80772Y790448D01*
X83820Y788924D01*
X86868Y790448D01*
X85344Y787400D01*
X86868Y784352D01*
X83820Y785876D01*
X80772Y784352D01*
X104140Y806450D02*
X106680Y811530D01*
X104140Y816610D01*
X109220Y814070D01*
X114300Y816610D01*
X111760Y811530D01*
X114300Y806450D01*
X109220Y808990D01*
X104140Y806450D01*
X106172Y808482D02*
X107696Y811530D01*
X106172Y814578D01*
X109220Y813054D01*
X112268Y814578D01*
X110744Y811530D01*
X112268Y808482D01*
X109220Y810006D01*
X106172Y808482D01*
X91440Y806450D02*
X93980Y811530D01*
X91440Y816610D01*
X96520Y814070D01*
X101600Y816610D01*
X99060Y811530D01*
X101600Y806450D01*
X96520Y808990D01*
X91440Y806450D01*
X93472Y808482D02*
X94996Y811530D01*
X93472Y814578D01*
X96520Y813054D01*
X99568Y814578D01*
X98044Y811530D01*
X99568Y808482D01*
X96520Y810006D01*
X93472Y808482D01*
X78740Y806450D02*
X81280Y811530D01*
X78740Y816610D01*
X83820Y814070D01*
X88900Y816610D01*
X86360Y811530D01*
X88900Y806450D01*
X83820Y808990D01*
X78740Y806450D01*
X80772Y808482D02*
X82296Y811530D01*
X80772Y814578D01*
X83820Y813054D01*
X86868Y814578D01*
X85344Y811530D01*
X86868Y808482D01*
X83820Y810006D01*
X80772Y808482D01*
X516890Y694690D02*
X511810Y704850D01*
X521970D01*
X516890Y694690D01*
Y696722D02*
X513842Y702818D01*
X519938D01*
X516890Y696722D01*
X493390Y694690D02*
X488310Y704850D01*
X498470D01*
X493390Y694690D01*
Y696722D02*
X490342Y702818D01*
X496438D01*
X493390Y696722D01*
X493710Y728980D02*
X488630Y739140D01*
X498790D01*
X493710Y728980D01*
Y731012D02*
X490662Y737108D01*
X496758D01*
X493710Y731012D01*
X517210Y728980D02*
X512130Y739140D01*
X522290D01*
X517210Y728980D01*
Y731012D02*
X514162Y737108D01*
X520258D01*
X517210Y731012D01*
X184150Y680720D02*
X186690Y683260D01*
X189230D01*
X186690Y685800D01*
X189230Y688340D01*
X186690D01*
X184150Y690880D01*
X181610Y688340D01*
X179070D01*
X181610Y685800D01*
X179070Y683260D01*
X181610D01*
X184150Y680720D01*
Y682752D02*
X185674Y684276D01*
X187198D01*
X185674Y685800D01*
X187198Y687324D01*
X185674D01*
X184150Y688848D01*
X182626Y687324D01*
X181102D01*
X182626Y685800D01*
X181102Y684276D01*
X182626D01*
X184150Y682752D01*
X167640Y680720D02*
X170180Y683260D01*
X172720D01*
X170180Y685800D01*
X172720Y688340D01*
X170180D01*
X167640Y690880D01*
X165100Y688340D01*
X162560D01*
X165100Y685800D01*
X162560Y683260D01*
X165100D01*
X167640Y680720D01*
Y682752D02*
X169164Y684276D01*
X170688D01*
X169164Y685800D01*
X170688Y687324D01*
X169164D01*
X167640Y688848D01*
X166116Y687324D01*
X164592D01*
X166116Y685800D01*
X164592Y684276D01*
X166116D01*
X167640Y682752D01*
X199390Y680720D02*
X201930Y683260D01*
X204470D01*
X201930Y685800D01*
X204470Y688340D01*
X201930D01*
X199390Y690880D01*
X196850Y688340D01*
X194310D01*
X196850Y685800D01*
X194310Y683260D01*
X196850D01*
X199390Y680720D01*
Y682752D02*
X200914Y684276D01*
X202438D01*
X200914Y685800D01*
X202438Y687324D01*
X200914D01*
X199390Y688848D01*
X197866Y687324D01*
X196342D01*
X197866Y685800D01*
X196342Y684276D01*
X197866D01*
X199390Y682752D01*
X598170Y736600D02*
X600710Y739140D01*
X603250D01*
X600710Y741680D01*
X603250Y744220D01*
X600710D01*
X598170Y746760D01*
X595630Y744220D01*
X593090D01*
X595630Y741680D01*
X593090Y739140D01*
X595630D01*
X598170Y736600D01*
Y738632D02*
X599694Y740156D01*
X601218D01*
X599694Y741680D01*
X601218Y743204D01*
X599694D01*
X598170Y744728D01*
X596646Y743204D01*
X595122D01*
X596646Y741680D01*
X595122Y740156D01*
X596646D01*
X598170Y738632D01*
X148590Y782320D02*
X151130Y787400D01*
X148590Y792480D01*
X153670Y789940D01*
X158750Y792480D01*
X156210Y787400D01*
X158750Y782320D01*
X153670Y784860D01*
X148590Y782320D01*
X150622Y784352D02*
X152146Y787400D01*
X150622Y790448D01*
X153670Y788924D01*
X156718Y790448D01*
X155194Y787400D01*
X156718Y784352D01*
X153670Y785876D01*
X150622Y784352D01*
X109220Y510540D02*
X111760Y513080D01*
X114300D01*
X111760Y515620D01*
X114300Y518160D01*
X111760D01*
X109220Y520700D01*
X106680Y518160D01*
X104140D01*
X106680Y515620D01*
X104140Y513080D01*
X106680D01*
X109220Y510540D01*
Y512572D02*
X110744Y514096D01*
X112268D01*
X110744Y515620D01*
X112268Y517144D01*
X110744D01*
X109220Y518668D01*
X107696Y517144D01*
X106172D01*
X107696Y515620D01*
X106172Y514096D01*
X107696D01*
X109220Y512572D01*
X429260Y693420D02*
X424180Y703580D01*
X434340D01*
X429260Y693420D01*
Y695452D02*
X426212Y701548D01*
X432308D01*
X429260Y695452D01*
X397510Y845816D02*
Y833120D01*
X403858D01*
X405974Y835236D01*
Y837352D01*
X403858Y839468D01*
X397510D01*
X403858D01*
X405974Y841584D01*
Y843700D01*
X403858Y845816D01*
X397510D01*
X368300Y866136D02*
Y853440D01*
X374648D01*
X376764Y855556D01*
Y857672D01*
X374648Y859788D01*
X368300D01*
X374648D01*
X376764Y861904D01*
Y864020D01*
X374648Y866136D01*
X368300D01*
X819150Y657860D02*
X814070Y668020D01*
X824230D01*
X819150Y657860D01*
Y659892D02*
X816102Y665988D01*
X822198D01*
X819150Y659892D01*
X215900Y113030D02*
X218440Y115570D01*
X220980D01*
X218440Y118110D01*
X220980Y120650D01*
X218440D01*
X215900Y123190D01*
X213360Y120650D01*
X210820D01*
X213360Y118110D01*
X210820Y115570D01*
X213360D01*
X215900Y113030D01*
Y115062D02*
X217424Y116586D01*
X218948D01*
X217424Y118110D01*
X218948Y119634D01*
X217424D01*
X215900Y121158D01*
X214376Y119634D01*
X212852D01*
X214376Y118110D01*
X212852Y116586D01*
X214376D01*
X215900Y115062D01*
X359410Y358140D02*
X361950Y360680D01*
X364490D01*
X361950Y363220D01*
X364490Y365760D01*
X361950D01*
X359410Y368300D01*
X356870Y365760D01*
X354330D01*
X356870Y363220D01*
X354330Y360680D01*
X356870D01*
X359410Y358140D01*
Y360172D02*
X360934Y361696D01*
X362458D01*
X360934Y363220D01*
X362458Y364744D01*
X360934D01*
X359410Y366268D01*
X357886Y364744D01*
X356362D01*
X357886Y363220D01*
X356362Y361696D01*
X357886D01*
X359410Y360172D01*
X453390Y717550D02*
X448310Y727710D01*
X458470D01*
X453390Y717550D01*
Y719582D02*
X450342Y725678D01*
X456438D01*
X453390Y719582D01*
X500380Y777240D02*
X502920Y782320D01*
X500380Y787400D01*
X505460Y784860D01*
X510540Y787400D01*
X508000Y782320D01*
X510540Y777240D01*
X505460Y779780D01*
X500380Y777240D01*
X502412Y779272D02*
X503936Y782320D01*
X502412Y785368D01*
X505460Y783844D01*
X508508Y785368D01*
X506984Y782320D01*
X508508Y779272D01*
X505460Y780796D01*
X502412Y779272D01*
X265430Y614680D02*
X267970Y617220D01*
X270510D01*
X267970Y619760D01*
X270510Y622300D01*
X267970D01*
X265430Y624840D01*
X262890Y622300D01*
X260350D01*
X262890Y619760D01*
X260350Y617220D01*
X262890D01*
X265430Y614680D01*
Y616712D02*
X266954Y618236D01*
X268478D01*
X266954Y619760D01*
X268478Y621284D01*
X266954D01*
X265430Y622808D01*
X263906Y621284D01*
X262382D01*
X263906Y619760D01*
X262382Y618236D01*
X263906D01*
X265430Y616712D01*
X135890Y415290D02*
X130810Y425450D01*
X140970D01*
X135890Y415290D01*
Y417322D02*
X132842Y423418D01*
X138938D01*
X135890Y417322D01*
Y492760D02*
X130810Y502920D01*
X140970D01*
X135890Y492760D01*
Y494792D02*
X132842Y500888D01*
X138938D01*
X135890Y494792D01*
X261620Y514350D02*
X264160Y516890D01*
X266700D01*
X264160Y519430D01*
X266700Y521970D01*
X264160D01*
X261620Y524510D01*
X259080Y521970D01*
X256540D01*
X259080Y519430D01*
X256540Y516890D01*
X259080D01*
X261620Y514350D01*
Y516382D02*
X263144Y517906D01*
X264668D01*
X263144Y519430D01*
X264668Y520954D01*
X263144D01*
X261620Y522478D01*
X260096Y520954D01*
X258572D01*
X260096Y519430D01*
X258572Y517906D01*
X260096D01*
X261620Y516382D01*
X1073150Y548640D02*
X1075690Y551180D01*
X1078230D01*
X1075690Y553720D01*
X1078230Y556260D01*
X1075690D01*
X1073150Y558800D01*
X1070610Y556260D01*
X1068070D01*
X1070610Y553720D01*
X1068070Y551180D01*
X1070610D01*
X1073150Y548640D01*
Y550672D02*
X1074674Y552196D01*
X1076198D01*
X1074674Y553720D01*
X1076198Y555244D01*
X1074674D01*
X1073150Y556768D01*
X1071626Y555244D01*
X1070102D01*
X1071626Y553720D01*
X1070102Y552196D01*
X1071626D01*
X1073150Y550672D01*
X648970Y383540D02*
X651510Y386080D01*
X654050D01*
X651510Y388620D01*
X654050Y391160D01*
X651510D01*
X648970Y393700D01*
X646430Y391160D01*
X643890D01*
X646430Y388620D01*
X643890Y386080D01*
X646430D01*
X648970Y383540D01*
Y385572D02*
X650494Y387096D01*
X652018D01*
X650494Y388620D01*
X652018Y390144D01*
X650494D01*
X648970Y391668D01*
X647446Y390144D01*
X645922D01*
X647446Y388620D01*
X645922Y387096D01*
X647446D01*
X648970Y385572D01*
X698500Y383540D02*
X701040Y386080D01*
X703580D01*
X701040Y388620D01*
X703580Y391160D01*
X701040D01*
X698500Y393700D01*
X695960Y391160D01*
X693420D01*
X695960Y388620D01*
X693420Y386080D01*
X695960D01*
X698500Y383540D01*
Y385572D02*
X700024Y387096D01*
X701548D01*
X700024Y388620D01*
X701548Y390144D01*
X700024D01*
X698500Y391668D01*
X696976Y390144D01*
X695452D01*
X696976Y388620D01*
X695452Y387096D01*
X696976D01*
X698500Y385572D01*
X770890Y384810D02*
X773430Y387350D01*
X775970D01*
X773430Y389890D01*
X775970Y392430D01*
X773430D01*
X770890Y394970D01*
X768350Y392430D01*
X765810D01*
X768350Y389890D01*
X765810Y387350D01*
X768350D01*
X770890Y384810D01*
Y386842D02*
X772414Y388366D01*
X773938D01*
X772414Y389890D01*
X773938Y391414D01*
X772414D01*
X770890Y392938D01*
X769366Y391414D01*
X767842D01*
X769366Y389890D01*
X767842Y388366D01*
X769366D01*
X770890Y386842D01*
X821690Y383540D02*
X824230Y386080D01*
X826770D01*
X824230Y388620D01*
X826770Y391160D01*
X824230D01*
X821690Y393700D01*
X819150Y391160D01*
X816610D01*
X819150Y388620D01*
X816610Y386080D01*
X819150D01*
X821690Y383540D01*
Y385572D02*
X823214Y387096D01*
X824738D01*
X823214Y388620D01*
X824738Y390144D01*
X823214D01*
X821690Y391668D01*
X820166Y390144D01*
X818642D01*
X820166Y388620D01*
X818642Y387096D01*
X820166D01*
X821690Y385572D01*
X894080Y383540D02*
X896620Y386080D01*
X899160D01*
X896620Y388620D01*
X899160Y391160D01*
X896620D01*
X894080Y393700D01*
X891540Y391160D01*
X889000D01*
X891540Y388620D01*
X889000Y386080D01*
X891540D01*
X894080Y383540D01*
Y385572D02*
X895604Y387096D01*
X897128D01*
X895604Y388620D01*
X897128Y390144D01*
X895604D01*
X894080Y391668D01*
X892556Y390144D01*
X891032D01*
X892556Y388620D01*
X891032Y387096D01*
X892556D01*
X894080Y385572D01*
X944880Y383540D02*
X947420Y386080D01*
X949960D01*
X947420Y388620D01*
X949960Y391160D01*
X947420D01*
X944880Y393700D01*
X942340Y391160D01*
X939800D01*
X942340Y388620D01*
X939800Y386080D01*
X942340D01*
X944880Y383540D01*
Y385572D02*
X946404Y387096D01*
X947928D01*
X946404Y388620D01*
X947928Y390144D01*
X946404D01*
X944880Y391668D01*
X943356Y390144D01*
X941832D01*
X943356Y388620D01*
X941832Y387096D01*
X943356D01*
X944880Y385572D01*
X1073150Y384810D02*
X1075690Y387350D01*
X1078230D01*
X1075690Y389890D01*
X1078230Y392430D01*
X1075690D01*
X1073150Y394970D01*
X1070610Y392430D01*
X1068070D01*
X1070610Y389890D01*
X1068070Y387350D01*
X1070610D01*
X1073150Y384810D01*
Y386842D02*
X1074674Y388366D01*
X1076198D01*
X1074674Y389890D01*
X1076198Y391414D01*
X1074674D01*
X1073150Y392938D01*
X1071626Y391414D01*
X1070102D01*
X1071626Y389890D01*
X1070102Y388366D01*
X1071626D01*
X1073150Y386842D01*
Y435610D02*
X1075690Y438150D01*
X1078230D01*
X1075690Y440690D01*
X1078230Y443230D01*
X1075690D01*
X1073150Y445770D01*
X1070610Y443230D01*
X1068070D01*
X1070610Y440690D01*
X1068070Y438150D01*
X1070610D01*
X1073150Y435610D01*
Y437642D02*
X1074674Y439166D01*
X1076198D01*
X1074674Y440690D01*
X1076198Y442214D01*
X1074674D01*
X1073150Y443738D01*
X1071626Y442214D01*
X1070102D01*
X1071626Y440690D01*
X1070102Y439166D01*
X1071626D01*
X1073150Y437642D01*
Y499110D02*
X1075690Y501650D01*
X1078230D01*
X1075690Y504190D01*
X1078230Y506730D01*
X1075690D01*
X1073150Y509270D01*
X1070610Y506730D01*
X1068070D01*
X1070610Y504190D01*
X1068070Y501650D01*
X1070610D01*
X1073150Y499110D01*
Y501142D02*
X1074674Y502666D01*
X1076198D01*
X1074674Y504190D01*
X1076198Y505714D01*
X1074674D01*
X1073150Y507238D01*
X1071626Y505714D01*
X1070102D01*
X1071626Y504190D01*
X1070102Y502666D01*
X1071626D01*
X1073150Y501142D01*
X1071880Y628650D02*
X1074420Y631190D01*
X1076960D01*
X1074420Y633730D01*
X1076960Y636270D01*
X1074420D01*
X1071880Y638810D01*
X1069340Y636270D01*
X1066800D01*
X1069340Y633730D01*
X1066800Y631190D01*
X1069340D01*
X1071880Y628650D01*
Y630682D02*
X1073404Y632206D01*
X1074928D01*
X1073404Y633730D01*
X1074928Y635254D01*
X1073404D01*
X1071880Y636778D01*
X1070356Y635254D01*
X1068832D01*
X1070356Y633730D01*
X1068832Y632206D01*
X1070356D01*
X1071880Y630682D01*
X359410Y383540D02*
X361950Y386080D01*
X364490D01*
X361950Y388620D01*
X364490Y391160D01*
X361950D01*
X359410Y393700D01*
X356870Y391160D01*
X354330D01*
X356870Y388620D01*
X354330Y386080D01*
X356870D01*
X359410Y383540D01*
Y385572D02*
X360934Y387096D01*
X362458D01*
X360934Y388620D01*
X362458Y390144D01*
X360934D01*
X359410Y391668D01*
X357886Y390144D01*
X356362D01*
X357886Y388620D01*
X356362Y387096D01*
X357886D01*
X359410Y385572D01*
X260350Y384810D02*
X262890Y387350D01*
X265430D01*
X262890Y389890D01*
X265430Y392430D01*
X262890D01*
X260350Y394970D01*
X257810Y392430D01*
X255270D01*
X257810Y389890D01*
X255270Y387350D01*
X257810D01*
X260350Y384810D01*
Y386842D02*
X261874Y388366D01*
X263398D01*
X261874Y389890D01*
X263398Y391414D01*
X261874D01*
X260350Y392938D01*
X258826Y391414D01*
X257302D01*
X258826Y389890D01*
X257302Y388366D01*
X258826D01*
X260350Y386842D01*
X335280Y795020D02*
X337820Y797560D01*
X340360D01*
X337820Y800100D01*
X340360Y802640D01*
X337820D01*
X335280Y805180D01*
X332740Y802640D01*
X330200D01*
X332740Y800100D01*
X330200Y797560D01*
X332740D01*
X335280Y795020D01*
Y797052D02*
X336804Y798576D01*
X338328D01*
X336804Y800100D01*
X338328Y801624D01*
X336804D01*
X335280Y803148D01*
X333756Y801624D01*
X332232D01*
X333756Y800100D01*
X332232Y798576D01*
X333756D01*
X335280Y797052D01*
X336550Y768350D02*
X339090Y770890D01*
X341630D01*
X339090Y773430D01*
X341630Y775970D01*
X339090D01*
X336550Y778510D01*
X334010Y775970D01*
X331470D01*
X334010Y773430D01*
X331470Y770890D01*
X334010D01*
X336550Y768350D01*
Y770382D02*
X338074Y771906D01*
X339598D01*
X338074Y773430D01*
X339598Y774954D01*
X338074D01*
X336550Y776478D01*
X335026Y774954D01*
X333502D01*
X335026Y773430D01*
X333502Y771906D01*
X335026D01*
X336550Y770382D01*
X52070Y525780D02*
X46990Y535940D01*
X57150D01*
X52070Y525780D01*
Y527812D02*
X49022Y533908D01*
X55118D01*
X52070Y527812D01*
X45720Y585470D02*
X48260Y590550D01*
X45720Y595630D01*
X50800Y593090D01*
X55880Y595630D01*
X53340Y590550D01*
X55880Y585470D01*
X50800Y588010D01*
X45720Y585470D01*
X47752Y587502D02*
X49276Y590550D01*
X47752Y593598D01*
X50800Y592074D01*
X53848Y593598D01*
X52324Y590550D01*
X53848Y587502D01*
X50800Y589026D01*
X47752Y587502D01*
X45720Y648970D02*
X48260Y654050D01*
X45720Y659130D01*
X50800Y656590D01*
X55880Y659130D01*
X53340Y654050D01*
X55880Y648970D01*
X50800Y651510D01*
X45720Y648970D01*
X47752Y651002D02*
X49276Y654050D01*
X47752Y657098D01*
X50800Y655574D01*
X53848Y657098D01*
X52324Y654050D01*
X53848Y651002D01*
X50800Y652526D01*
X47752Y651002D01*
X1360170Y151130D02*
X1362710Y153670D01*
X1365250D01*
X1362710Y156210D01*
X1365250Y158750D01*
X1362710D01*
X1360170Y161290D01*
X1357630Y158750D01*
X1355090D01*
X1357630Y156210D01*
X1355090Y153670D01*
X1357630D01*
X1360170Y151130D01*
Y153162D02*
X1361694Y154686D01*
X1363218D01*
X1361694Y156210D01*
X1363218Y157734D01*
X1361694D01*
X1360170Y159258D01*
X1358646Y157734D01*
X1357122D01*
X1358646Y156210D01*
X1357122Y154686D01*
X1358646D01*
X1360170Y153162D01*
D135*
X68378Y579100D02*
G03*
X68378Y579100I-3048J0D01*
G01*
Y665500D02*
G03*
X68378Y665500I-3048J0D01*
G01*
D141*
X70410Y579100D02*
G03*
X70410Y579100I-5080J0D01*
G01*
Y665500D02*
G03*
X70410Y665500I-5080J0D01*
G01*
X411480Y800100D02*
G03*
X411480Y800100I-5080J0D01*
G01*
X436880D02*
G03*
X436880Y800100I-5080J0D01*
G01*
X411480Y774700D02*
G03*
X411480Y774700I-5080J0D01*
G01*
X436880D02*
G03*
X436880Y774700I-5080J0D01*
G01*
M02*
