G04*
G04 #@! TF.GenerationSoftware,Altium Limited,Altium Designer,25.4.2 (15)*
G04*
G04 Layer_Color=16711935*
%FSLAX44Y44*%
%MOMM*%
G71*
G04*
G04 #@! TF.SameCoordinates,CA2AF886-8F4D-4062-A15D-1C6B51B4DCEA*
G04*
G04*
G04 #@! TF.FilePolarity,Negative*
G04*
G01*
G75*
%ADD54C,0.8540*%
%ADD55C,5.4040*%
%ADD56O,2.9040X5.4040*%
%ADD57O,2.6540X4.9040*%
%ADD58O,4.9040X2.6540*%
%ADD59C,1.9440*%
%ADD60R,1.9440X1.9440*%
%ADD61C,4.1540*%
%ADD62R,1.7540X1.7540*%
%ADD63C,1.7540*%
%ADD64C,2.2040*%
%ADD65R,2.8040X2.8040*%
%ADD66C,2.8040*%
%ADD67R,1.9020X1.9020*%
%ADD68C,1.9020*%
%ADD69O,1.9270X1.1270*%
%ADD70O,2.3270X1.1270*%
%ADD71R,2.8040X2.8040*%
%ADD72R,1.7540X1.7540*%
%ADD73C,1.7248*%
%ADD74C,1.7740*%
%ADD75R,1.7740X1.7740*%
%ADD76R,1.9790X1.9790*%
%ADD77C,1.9790*%
%ADD78C,1.2040*%
%ADD79C,1.1310*%
%ADD80C,1.6740*%
%ADD81C,1.1040*%
D54*
X27178Y195580D02*
D03*
X62992Y210820D02*
D03*
X56642Y195580D02*
D03*
X26924Y225552D02*
D03*
X41910Y189738D02*
D03*
Y232156D02*
D03*
X56896Y225552D02*
D03*
X20828Y210820D02*
D03*
D55*
X41910D02*
D03*
D56*
X139220Y332750D02*
D03*
D57*
X79220D02*
D03*
D58*
X109220Y285750D02*
D03*
D59*
X845820Y816610D02*
D03*
Y791210D02*
D03*
Y765810D02*
D03*
Y740410D02*
D03*
Y715010D02*
D03*
Y689610D02*
D03*
Y664210D02*
D03*
Y638810D02*
D03*
Y613410D02*
D03*
Y588010D02*
D03*
Y562610D02*
D03*
Y537210D02*
D03*
Y511810D02*
D03*
Y486410D02*
D03*
X766620D02*
D03*
Y511810D02*
D03*
Y537210D02*
D03*
Y562610D02*
D03*
Y588010D02*
D03*
Y613410D02*
D03*
Y715010D02*
D03*
Y689610D02*
D03*
Y740410D02*
D03*
Y765810D02*
D03*
Y638810D02*
D03*
Y664210D02*
D03*
Y791210D02*
D03*
D60*
Y816610D02*
D03*
D61*
X1079500Y278130D02*
D03*
X473710Y273050D02*
D03*
X471170Y638810D02*
D03*
X1071880Y825500D02*
D03*
D62*
X894080Y252730D02*
D03*
X647700D02*
D03*
X770890D02*
D03*
D63*
X919480D02*
D03*
X944880D02*
D03*
X970280D02*
D03*
Y328930D02*
D03*
X944880D02*
D03*
X919480D02*
D03*
X894080D02*
D03*
X647700D02*
D03*
X673100D02*
D03*
X698500D02*
D03*
X723900D02*
D03*
Y252730D02*
D03*
X698500D02*
D03*
X673100D02*
D03*
X1123950Y398780D02*
D03*
Y424180D02*
D03*
Y449580D02*
D03*
Y474980D02*
D03*
X1200150D02*
D03*
Y449580D02*
D03*
Y424180D02*
D03*
X1123950Y510540D02*
D03*
Y535940D02*
D03*
Y561340D02*
D03*
Y586740D02*
D03*
X1200150D02*
D03*
Y561340D02*
D03*
Y535940D02*
D03*
X770890Y328930D02*
D03*
X796290D02*
D03*
X821690D02*
D03*
X847090D02*
D03*
Y252730D02*
D03*
X821690D02*
D03*
X796290D02*
D03*
D64*
X151130Y168240D02*
D03*
Y243240D02*
D03*
D65*
X57150Y762000D02*
D03*
X1442720Y180340D02*
D03*
X1441450Y844550D02*
D03*
Y629920D02*
D03*
X1443990Y393700D02*
D03*
D66*
X57150Y812800D02*
D03*
X1442720Y27940D02*
D03*
Y78740D02*
D03*
Y129540D02*
D03*
X1174750Y82550D02*
D03*
X1225550D02*
D03*
X1276350D02*
D03*
X962660D02*
D03*
X1013460D02*
D03*
X1064260D02*
D03*
X30480Y81280D02*
D03*
X81280D02*
D03*
X132080D02*
D03*
X612140Y78740D02*
D03*
X561340D02*
D03*
X510540D02*
D03*
X346710Y80010D02*
D03*
X295910D02*
D03*
X245110D02*
D03*
X1215390Y791210D02*
D03*
X1266190D02*
D03*
X1316990D02*
D03*
X825500Y77470D02*
D03*
X774700D02*
D03*
X723900D02*
D03*
X1441450Y793750D02*
D03*
Y742950D02*
D03*
Y692150D02*
D03*
Y579120D02*
D03*
Y528320D02*
D03*
Y477520D02*
D03*
X1443990Y342900D02*
D03*
Y292100D02*
D03*
Y241300D02*
D03*
D67*
X514870Y856890D02*
D03*
D68*
X579870D02*
D03*
X516370Y811890D02*
D03*
X579870D02*
D03*
D69*
X65330Y579100D02*
D03*
Y665500D02*
D03*
D70*
X25330Y579100D02*
D03*
Y665500D02*
D03*
D71*
X1327150Y82550D02*
D03*
X1115060D02*
D03*
X182880Y81280D02*
D03*
X662940Y78740D02*
D03*
X397510Y80010D02*
D03*
X1164590Y791210D02*
D03*
X876300Y77470D02*
D03*
D72*
X1200150Y398780D02*
D03*
Y510540D02*
D03*
D73*
X1198880Y629920D02*
D03*
Y655320D02*
D03*
X1122680D02*
D03*
Y629920D02*
D03*
D74*
X406400Y800100D02*
D03*
X431800D02*
D03*
X406400Y774700D02*
D03*
D75*
X431800D02*
D03*
D76*
X341630Y427990D02*
D03*
D77*
X316630D02*
D03*
D78*
X224790Y356870D02*
D03*
Y337820D02*
D03*
X240030Y346710D02*
D03*
X792480Y543560D02*
D03*
Y524510D02*
D03*
X807720Y533400D02*
D03*
X808990Y551180D02*
D03*
Y570230D02*
D03*
X793750Y561340D02*
D03*
X1050290Y624840D02*
D03*
Y643890D02*
D03*
X1035050Y635000D02*
D03*
X1027430Y670560D02*
D03*
Y651510D02*
D03*
X1042670Y660400D02*
D03*
X675640Y488950D02*
D03*
Y469900D02*
D03*
X690880Y478790D02*
D03*
X660400Y469900D02*
D03*
Y488950D02*
D03*
X645160Y480060D02*
D03*
X313690Y500380D02*
D03*
Y519430D02*
D03*
X298450Y510540D02*
D03*
X281940Y501650D02*
D03*
Y482600D02*
D03*
X297180Y491490D02*
D03*
X109220Y763270D02*
D03*
X96520D02*
D03*
X83820D02*
D03*
X109220Y787400D02*
D03*
X96520D02*
D03*
X83820D02*
D03*
X109220Y811530D02*
D03*
X96520D02*
D03*
X83820D02*
D03*
X153670Y787400D02*
D03*
X397510Y833120D02*
D03*
X368300Y853440D02*
D03*
X505460Y782320D02*
D03*
X135890Y420370D02*
D03*
Y497840D02*
D03*
X52070Y530860D02*
D03*
D79*
X516890Y699770D02*
D03*
X493390D02*
D03*
X493710Y734060D02*
D03*
X517210D02*
D03*
X429260Y698500D02*
D03*
X453390Y722630D02*
D03*
D80*
X184150Y685800D02*
D03*
X167640D02*
D03*
X199390D02*
D03*
X598170Y741680D02*
D03*
X109220Y515620D02*
D03*
X215900Y118110D02*
D03*
X359410Y363220D02*
D03*
X265430Y619760D02*
D03*
X261620Y519430D02*
D03*
X1073150Y553720D02*
D03*
X648970Y388620D02*
D03*
X698500D02*
D03*
X770890Y389890D02*
D03*
X821690Y388620D02*
D03*
X894080D02*
D03*
X944880D02*
D03*
X1073150Y389890D02*
D03*
Y440690D02*
D03*
Y504190D02*
D03*
X1071880Y633730D02*
D03*
X359410Y388620D02*
D03*
X260350Y389890D02*
D03*
X335280Y800100D02*
D03*
X336550Y773430D02*
D03*
X1360170Y156210D02*
D03*
D81*
X819150Y662940D02*
D03*
X50800Y590550D02*
D03*
Y654050D02*
D03*
M02*
