G04*
G04 #@! TF.GenerationSoftware,Altium Limited,Altium Designer,25.4.2 (15)*
G04*
G04 Layer_Color=128*
%FSLAX44Y44*%
%MOMM*%
G71*
G04*
G04 #@! TF.SameCoordinates,3ABA6FF2-A11C-483D-8B0F-7D0CBFE01766*
G04*
G04*
G04 #@! TF.FilePolarity,Positive*
G04*
G01*
G75*
%ADD11C,0.1270*%
D11*
X1185800Y296380D02*
X1201800D01*
X1193800Y288380D02*
Y304380D01*
X1185800Y246380D02*
X1201800D01*
X1193800Y238380D02*
Y254380D01*
X572890Y533070D02*
X587890D01*
X580390Y525570D02*
Y540570D01*
X574540Y333070D02*
X586240D01*
X580390Y327220D02*
Y338920D01*
X46570Y789940D02*
X57570D01*
X52070Y784440D02*
Y795440D01*
X46570Y764540D02*
X57570D01*
X52070Y759040D02*
Y770040D01*
X46570Y739140D02*
X57570D01*
X52070Y733640D02*
Y744640D01*
X46570Y713740D02*
X57570D01*
X52070Y708240D02*
Y719240D01*
X46570Y688340D02*
X57570D01*
X52070Y682840D02*
Y693840D01*
X46570Y662940D02*
X57570D01*
X52070Y657440D02*
Y668440D01*
X67790Y618210D02*
X77790D01*
X72790Y613210D02*
Y623210D01*
X93190Y618210D02*
X103190D01*
X98190Y613210D02*
Y623210D01*
X118590Y618210D02*
X128590D01*
X123590Y613210D02*
Y623210D01*
X143990Y618210D02*
X153990D01*
X148990Y613210D02*
Y623210D01*
X659980Y44450D02*
X670980D01*
X665480Y38950D02*
Y49950D01*
X685380Y44450D02*
X696380D01*
X690880Y38950D02*
Y49950D01*
X710780Y44450D02*
X721780D01*
X716280Y38950D02*
Y49950D01*
X508850Y44450D02*
X519850D01*
X514350Y38950D02*
Y49950D01*
X534250Y44450D02*
X545250D01*
X539750Y38950D02*
Y49950D01*
X559650Y44450D02*
X570650D01*
X565150Y38950D02*
Y49950D01*
X63760Y513080D02*
X71260D01*
X67510Y509330D02*
Y516830D01*
X88760Y513080D02*
X96260D01*
X92510Y509330D02*
Y516830D01*
X175120Y678180D02*
X182620D01*
X178870Y674430D02*
Y681930D01*
X150120Y678180D02*
X157620D01*
X153870Y674430D02*
Y681930D01*
X1148910Y113100D02*
X1157410D01*
X1153160Y108850D02*
Y117350D01*
X1148910Y38100D02*
X1157410D01*
X1153160Y33850D02*
Y42350D01*
X20620Y180340D02*
X58120D01*
X39370Y161590D02*
Y199090D01*
X20531Y979094D02*
X58031D01*
X39281Y960344D02*
Y997844D01*
X1238550Y982980D02*
X1276050D01*
X1257300Y964230D02*
Y1001730D01*
X712770Y579120D02*
X750270D01*
X731520Y560370D02*
Y597870D01*
X296800Y102870D02*
X312800D01*
X304800Y94870D02*
Y110870D01*
X346000Y102870D02*
X362000D01*
X354000Y94870D02*
Y110870D01*
X396800Y102870D02*
X412800D01*
X404800Y94870D02*
Y110870D01*
X316210Y975360D02*
X326410D01*
X321310Y970260D02*
Y980460D01*
X290810Y975360D02*
X301010D01*
X295910Y970260D02*
Y980460D01*
X265410Y975360D02*
X275610D01*
X270510Y970260D02*
Y980460D01*
X240010Y975360D02*
X250210D01*
X245110Y970260D02*
Y980460D01*
X87580Y102870D02*
X103580D01*
X95580Y94870D02*
Y110870D01*
X136780Y102870D02*
X152780D01*
X144780Y94870D02*
Y110870D01*
X187580Y102870D02*
X203580D01*
X195580Y94870D02*
Y110870D01*
X374630Y974090D02*
X384830D01*
X379730Y968990D02*
Y979190D01*
X400030Y974090D02*
X410230D01*
X405130Y968990D02*
Y979190D01*
X425430Y974090D02*
X435630D01*
X430530Y968990D02*
Y979190D01*
X450830Y974090D02*
X461030D01*
X455930Y968990D02*
Y979190D01*
X180320Y975360D02*
X190520D01*
X185420Y970260D02*
Y980460D01*
X154920Y975360D02*
X165120D01*
X160020Y970260D02*
Y980460D01*
X129520Y975360D02*
X139720D01*
X134620Y970260D02*
Y980460D01*
X104120Y975360D02*
X114320D01*
X109220Y970260D02*
Y980460D01*
X1130920Y829570D02*
X1139920D01*
X1135420Y825070D02*
Y834070D01*
X1105520Y816870D02*
X1114520D01*
X1110020Y812370D02*
Y821370D01*
X1130920Y804170D02*
X1139920D01*
X1135420Y799670D02*
Y808670D01*
X1105520Y791470D02*
X1114520D01*
X1110020Y786970D02*
Y795970D01*
X1130920Y778770D02*
X1139920D01*
X1135420Y774270D02*
Y783270D01*
X1105520Y766070D02*
X1114520D01*
X1110020Y761570D02*
Y770570D01*
X1130920Y753370D02*
X1139920D01*
X1135420Y748870D02*
Y757870D01*
X1182670Y842270D02*
X1215170D01*
X1198920Y826020D02*
Y858520D01*
X1182670Y727970D02*
X1215170D01*
X1198920Y711720D02*
Y744220D01*
X1160420Y706970D02*
X1176420D01*
X1168420Y698970D02*
Y714970D01*
X1160420Y863270D02*
X1176420D01*
X1168420Y855270D02*
Y871270D01*
X1234520Y851420D02*
X1244520D01*
X1239520Y846420D02*
Y856420D01*
X1234520Y718820D02*
X1244520D01*
X1239520Y713820D02*
Y723820D01*
X1105520Y740670D02*
X1114520D01*
X1110020Y736170D02*
Y745170D01*
X1234520Y826020D02*
X1244520D01*
X1239520Y821020D02*
Y831020D01*
X1234520Y744220D02*
X1244520D01*
X1239520Y739220D02*
Y749220D01*
X1187070Y411480D02*
X1203070D01*
X1195070Y403480D02*
Y419480D01*
X1187070Y460680D02*
X1203070D01*
X1195070Y452680D02*
Y468680D01*
X1187070Y511480D02*
X1203070D01*
X1195070Y503480D02*
Y519480D01*
X289100Y212320D02*
X302100D01*
X295600Y205820D02*
Y218820D01*
X409100Y212320D02*
X422100D01*
X415600Y205820D02*
Y218820D01*
X409100Y334320D02*
X422100D01*
X415600Y327820D02*
Y340820D01*
X349100Y354320D02*
X362100D01*
X355600Y347820D02*
Y360820D01*
X289100Y334320D02*
X302100D01*
X295600Y327820D02*
Y340820D01*
X96060Y334320D02*
X109060D01*
X102560Y327820D02*
Y340820D01*
X156060Y354320D02*
X169060D01*
X162560Y347820D02*
Y360820D01*
X216060Y334320D02*
X229060D01*
X222560Y327820D02*
Y340820D01*
X216060Y212320D02*
X229060D01*
X222560Y205820D02*
Y218820D01*
X96060Y212320D02*
X109060D01*
X102560Y205820D02*
Y218820D01*
X1223300Y36830D02*
X1227800D01*
X1225550Y34580D02*
Y39080D01*
X1242350Y81280D02*
X1246850D01*
X1244600Y79030D02*
Y83530D01*
X1223300Y73660D02*
X1227800D01*
X1225550Y71410D02*
Y75910D01*
X1262670Y36830D02*
X1267170D01*
X1264920Y34580D02*
Y39080D01*
X1215680Y54610D02*
X1220180D01*
X1217930Y52360D02*
Y56860D01*
X1269020Y54610D02*
X1273520D01*
X1271270Y52360D02*
Y56860D01*
X1262670Y73660D02*
X1267170D01*
X1264920Y71410D02*
Y75910D01*
X1242350Y27940D02*
X1246850D01*
X1244600Y25690D02*
Y30190D01*
X1226350Y54610D02*
X1262850D01*
X1244600Y36360D02*
Y72860D01*
X656952Y736521D02*
X661062D01*
X659007Y734466D02*
Y738576D01*
X639295Y736600D02*
X643405D01*
X641350Y734545D02*
Y738655D01*
X648185Y736600D02*
X652295D01*
X650240Y734545D02*
Y738655D01*
X354692Y927021D02*
X358802D01*
X356747Y924966D02*
Y929076D01*
X354692Y939721D02*
X358802D01*
X356747Y937666D02*
Y941776D01*
X354692Y951151D02*
X358802D01*
X356747Y949096D02*
Y953206D01*
X452482Y173911D02*
X456592D01*
X454537Y171856D02*
Y175966D01*
X452482Y205661D02*
X456592D01*
X454537Y203606D02*
Y207716D01*
X452482Y293291D02*
X456592D01*
X454537Y291236D02*
Y295346D01*
X452482Y318691D02*
X456592D01*
X454537Y316636D02*
Y320746D01*
X452482Y341551D02*
X456592D01*
X454537Y339496D02*
Y343606D01*
X384025Y523240D02*
X388135D01*
X386080Y521185D02*
Y525295D01*
X368785Y523240D02*
X372895D01*
X370840Y521185D02*
Y525295D01*
X310242Y505381D02*
X314352D01*
X312297Y503326D02*
Y507436D01*
X312782Y383461D02*
X316892D01*
X314837Y381406D02*
Y385516D01*
X263375Y384810D02*
X267485D01*
X265430Y382755D02*
Y386865D01*
X251945Y384810D02*
X256055D01*
X254000Y382755D02*
Y386865D01*
X274805Y384810D02*
X278915D01*
X276860Y382755D02*
Y386865D01*
X458955Y820420D02*
X463065D01*
X461010Y818365D02*
Y822475D01*
X457562Y713661D02*
X461672D01*
X459617Y711606D02*
Y715716D01*
X509632Y774621D02*
X513742D01*
X511687Y772566D02*
Y776676D01*
X465182Y761921D02*
X469292D01*
X467237Y759866D02*
Y763976D01*
X557892Y669211D02*
X562002D01*
X559947Y667156D02*
Y671266D01*
X557892Y684451D02*
X562002D01*
X559947Y682396D02*
Y686506D01*
X526142Y761921D02*
X530252D01*
X528197Y759866D02*
Y763976D01*
X1077445Y852170D02*
X1081555D01*
X1079500Y850115D02*
Y854225D01*
X1067285Y852170D02*
X1071395D01*
X1069340Y850115D02*
Y854225D01*
X944095Y902970D02*
X948205D01*
X946150Y900915D02*
Y905025D01*
X1067285Y834390D02*
X1071395D01*
X1069340Y832335D02*
Y836445D01*
X1077445Y834390D02*
X1081555D01*
X1079500Y832335D02*
Y836445D01*
X833605Y904240D02*
X837715D01*
X835660Y902185D02*
Y906295D01*
X814555Y915670D02*
X818665D01*
X816610Y913615D02*
Y917725D01*
X923775Y899160D02*
X927885D01*
X925830Y897105D02*
Y901215D01*
X857735Y890270D02*
X861845D01*
X859790Y888215D02*
Y892325D01*
X878055Y896620D02*
X882165D01*
X880110Y894565D02*
Y898675D01*
X899645Y897890D02*
X903755D01*
X901700Y895835D02*
Y899945D01*
X655805Y928370D02*
X659915D01*
X657860Y926315D02*
Y930425D01*
X664695Y919480D02*
X668805D01*
X666750Y917425D02*
Y921535D01*
X654535Y941070D02*
X658645D01*
X656590Y939015D02*
Y943125D01*
X597385Y934720D02*
X601495D01*
X599440Y932665D02*
Y936775D01*
X618975Y934720D02*
X623085D01*
X621030Y932665D02*
Y936775D01*
X629135Y934720D02*
X633245D01*
X631190Y932665D02*
Y936775D01*
X565635Y906780D02*
X569745D01*
X567690Y904725D02*
Y908835D01*
X579684Y934597D02*
X583794D01*
X581739Y932542D02*
Y936652D01*
X588495Y934720D02*
X592605D01*
X590550Y932665D02*
Y936775D01*
X512295Y934720D02*
X516405D01*
X514350Y932665D02*
Y936775D01*
X472925Y930910D02*
X477035D01*
X474980Y928855D02*
Y932965D01*
X495785Y934720D02*
X499895D01*
X497840Y932665D02*
Y936775D01*
X537774Y935867D02*
X541884D01*
X539829Y933812D02*
Y937922D01*
X547934Y935867D02*
X552044D01*
X549989Y933812D02*
Y937922D01*
X558094Y935867D02*
X562204D01*
X560149Y933812D02*
Y937922D01*
X535155Y916940D02*
X539265D01*
X537210Y914885D02*
Y918995D01*
X495785Y916940D02*
X499895D01*
X497840Y914885D02*
Y918995D01*
X512295Y916940D02*
X516405D01*
X514350Y914885D02*
Y918995D01*
X798045Y801370D02*
X802155D01*
X800100Y799315D02*
Y803425D01*
X790425Y810260D02*
X794535D01*
X792480Y808205D02*
Y812315D01*
X790504Y821567D02*
X794614D01*
X792559Y819512D02*
Y823622D01*
X786615Y902970D02*
X790725D01*
X788670Y900915D02*
Y905025D01*
X834875Y855980D02*
X838985D01*
X836930Y853925D02*
Y858035D01*
X752325Y911860D02*
X756435D01*
X754380Y909805D02*
Y913915D01*
X775185Y876300D02*
X779295D01*
X777240Y874245D02*
Y878355D01*
X782805Y868680D02*
X786915D01*
X784860Y866625D02*
Y870735D01*
X790504Y860937D02*
X794614D01*
X792559Y858882D02*
Y862992D01*
X791572Y850821D02*
X795682D01*
X793627Y848766D02*
Y852876D01*
X791572Y840661D02*
X795682D01*
X793627Y838606D02*
Y842716D01*
X791572Y830501D02*
X795682D01*
X793627Y828446D02*
Y832556D01*
X813162Y849551D02*
X817272D01*
X815217Y847496D02*
Y851606D01*
X813162Y839391D02*
X817272D01*
X815217Y837336D02*
Y841446D01*
X813162Y829231D02*
X817272D01*
X815217Y827176D02*
Y831286D01*
X805665Y885190D02*
X809775D01*
X807720Y883135D02*
Y887245D01*
X796775Y894080D02*
X800885D01*
X798830Y892025D02*
Y896135D01*
X815825Y875030D02*
X819935D01*
X817880Y872975D02*
Y877085D01*
X876706Y624963D02*
X880816D01*
X878761Y622908D02*
Y627018D01*
X866546Y624963D02*
X870656D01*
X868601Y622908D02*
Y627018D01*
X856386Y624963D02*
X860496D01*
X858441Y622908D02*
Y627018D01*
X843686Y624963D02*
X847796D01*
X845741Y622908D02*
Y627018D01*
X833526Y624963D02*
X837636D01*
X835581Y622908D02*
Y627018D01*
X823366Y624963D02*
X827476D01*
X825421Y622908D02*
Y627018D01*
X908456Y722753D02*
X912566D01*
X910511Y720698D02*
Y724808D01*
X898296Y722753D02*
X902406D01*
X900351Y720698D02*
Y724808D01*
X888136Y722753D02*
X892246D01*
X890191Y720698D02*
Y724808D01*
X1086256Y624963D02*
X1090366D01*
X1088311Y622908D02*
Y627018D01*
X1076096Y624963D02*
X1080206D01*
X1078151Y622908D02*
Y627018D01*
X1065936Y624963D02*
X1070046D01*
X1067991Y622908D02*
Y627018D01*
X1054506Y624963D02*
X1058616D01*
X1056561Y622908D02*
Y627018D01*
X1044346Y624963D02*
X1048456D01*
X1046401Y622908D02*
Y627018D01*
X1034186Y624963D02*
X1038296D01*
X1036241Y622908D02*
Y627018D01*
X874368Y784939D02*
X878478D01*
X876423Y782884D02*
Y786994D01*
X874368Y795099D02*
X878478D01*
X876423Y793044D02*
Y797154D01*
X874368Y805259D02*
X878478D01*
X876423Y803204D02*
Y807314D01*
X692758Y731599D02*
X696868D01*
X694813Y729544D02*
Y733654D01*
X692758Y741759D02*
X696868D01*
X694813Y739704D02*
Y743814D01*
X692758Y751919D02*
X696868D01*
X694813Y749864D02*
Y753974D01*
X911845Y999490D02*
X916955D01*
X914400Y996935D02*
Y1002045D01*
X924545Y999490D02*
X929655D01*
X927100Y996935D02*
Y1002045D01*
X937245Y999490D02*
X942355D01*
X939800Y996935D02*
Y1002045D01*
X713725Y908050D02*
X718835D01*
X716280Y905495D02*
Y910605D01*
X728965Y908050D02*
X734075D01*
X731520Y905495D02*
Y910605D01*
X709915Y881380D02*
X715025D01*
X712470Y878825D02*
Y883935D01*
X737855Y881380D02*
X742965D01*
X740410Y878825D02*
Y883935D01*
X751825Y881380D02*
X756935D01*
X754380Y878825D02*
Y883935D01*
X765795Y881380D02*
X770905D01*
X768350Y878825D02*
Y883935D01*
X617705Y872490D02*
X621815D01*
X619760Y870435D02*
Y874545D01*
X506715Y872490D02*
X511825D01*
X509270Y869935D02*
Y875045D01*
X650225Y641350D02*
X655335D01*
X652780Y638795D02*
Y643905D01*
X650225Y628650D02*
X655335D01*
X652780Y626095D02*
Y631205D01*
X650225Y615950D02*
X655335D01*
X652780Y613395D02*
Y618505D01*
X451335Y668020D02*
X455445D01*
X453390Y665965D02*
Y670075D01*
X405115Y614680D02*
X410225D01*
X407670Y612125D02*
Y617235D01*
X405115Y601980D02*
X410225D01*
X407670Y599425D02*
Y604535D01*
X339075Y778510D02*
X344185D01*
X341630Y775955D02*
Y781065D01*
X326375Y778510D02*
X331485D01*
X328930Y775955D02*
Y781065D01*
X313675Y778510D02*
X318785D01*
X316230Y775955D02*
Y781065D01*
X130795Y797560D02*
X135905D01*
X133350Y795005D02*
Y800115D01*
X130795Y810260D02*
X135905D01*
X133350Y807705D02*
Y812815D01*
X130795Y822960D02*
X135905D01*
X133350Y820405D02*
Y825515D01*
X1068055Y525780D02*
X1073165D01*
X1070610Y523225D02*
Y528335D01*
X1080755Y525780D02*
X1085865D01*
X1083310Y523225D02*
Y528335D01*
X1093455Y525780D02*
X1098565D01*
X1096010Y523225D02*
Y528335D01*
X890666Y374609D02*
X895776D01*
X893221Y372054D02*
Y377164D01*
X903366Y374609D02*
X908476D01*
X905921Y372054D02*
Y377164D01*
X916066Y374609D02*
X921176D01*
X918621Y372054D02*
Y377164D01*
X748015Y438150D02*
X753125D01*
X750570Y435595D02*
Y440705D01*
X748015Y425450D02*
X753125D01*
X750570Y422895D02*
Y428005D01*
X748015Y412750D02*
X753125D01*
X750570Y410195D02*
Y415305D01*
X986775Y298450D02*
X991885D01*
X989330Y295895D02*
Y301005D01*
X974075Y298450D02*
X979185D01*
X976630Y295895D02*
Y301005D01*
X961375Y298450D02*
X966485D01*
X963930Y295895D02*
Y301005D01*
X822945Y20320D02*
X828055D01*
X825500Y17765D02*
Y22875D01*
X810245Y20320D02*
X815355D01*
X812800Y17765D02*
Y22875D01*
X797545Y20320D02*
X802655D01*
X800100Y17765D02*
Y22875D01*
X994395Y17780D02*
X999505D01*
X996950Y15225D02*
Y20335D01*
X981695Y17780D02*
X986805D01*
X984250Y15225D02*
Y20335D01*
X968995Y17780D02*
X974105D01*
X971550Y15225D02*
Y20335D01*
X740395Y289560D02*
X745505D01*
X742950Y287005D02*
Y292115D01*
X727695Y289560D02*
X732805D01*
X730250Y287005D02*
Y292115D01*
X714995Y289560D02*
X720105D01*
X717550Y287005D02*
Y292115D01*
X604505Y194310D02*
X609615D01*
X607060Y191755D02*
Y196865D01*
X604505Y207010D02*
X609615D01*
X607060Y204455D02*
Y209565D01*
X604505Y219710D02*
X609615D01*
X607060Y217155D02*
Y222265D01*
X466160Y660400D02*
X468560D01*
X467360Y659200D02*
Y661600D01*
X472510Y654050D02*
X474910D01*
X473710Y652850D02*
Y655250D01*
X647415Y264160D02*
X650525D01*
X648970Y262605D02*
Y265715D01*
X535925Y86360D02*
X541035D01*
X538480Y83805D02*
Y88915D01*
X685785Y86360D02*
X690895D01*
X688340Y83805D02*
Y88915D01*
X512295Y811530D02*
X516405D01*
X514350Y809475D02*
Y813585D01*
X448295Y421640D02*
X453405D01*
X450850Y419085D02*
Y424195D01*
X448295Y396240D02*
X453405D01*
X450850Y393685D02*
Y398795D01*
X448295Y408940D02*
X453405D01*
X450850Y406385D02*
Y411495D01*
X582145Y906780D02*
X586255D01*
X584200Y904725D02*
Y908835D01*
X605005Y906780D02*
X609115D01*
X607060Y904725D02*
Y908835D01*
X697215Y908050D02*
X702325D01*
X699770Y905495D02*
Y910605D01*
X684515Y908050D02*
X689625D01*
X687070Y905495D02*
Y910605D01*
X670545Y908050D02*
X675655D01*
X673100Y905495D02*
Y910605D01*
X723885Y881380D02*
X728995D01*
X726440Y878825D02*
Y883935D01*
X824230Y868680D02*
X826770D01*
X825500Y867410D02*
Y869950D01*
X824230Y840740D02*
X826770D01*
X825500Y839470D02*
Y842010D01*
X533470Y702310D02*
X535870D01*
X534670Y701110D02*
Y703510D01*
X525850Y704850D02*
X528250D01*
X527050Y703650D02*
Y706050D01*
X412820Y796290D02*
X415220D01*
X414020Y795090D02*
Y797490D01*
X496285Y267970D02*
X499395D01*
X497840Y266415D02*
Y269525D01*
X425818Y674072D02*
X428218D01*
X427018Y672872D02*
Y675272D01*
X403930Y674370D02*
X406330D01*
X405130Y673170D02*
Y675570D01*
X488835Y716280D02*
X491945D01*
X490390Y714725D02*
Y717835D01*
X481045Y723900D02*
X484155D01*
X482600Y722345D02*
Y725455D01*
X603320Y594360D02*
X605720D01*
X604520Y593160D02*
Y595560D01*
X668090Y825500D02*
X670490D01*
X669290Y824300D02*
Y826700D01*
X899822Y441367D02*
X904932D01*
X902377Y438812D02*
Y443922D01*
X577835Y302260D02*
X582945D01*
X580390Y299705D02*
Y304815D01*
X473425Y739140D02*
X476535D01*
X474980Y737585D02*
Y740695D01*
X464535Y746854D02*
X467645D01*
X466090Y745299D02*
Y748409D01*
X456915Y727710D02*
X460025D01*
X458470Y726155D02*
Y729265D01*
X450565Y734060D02*
X453675D01*
X452120Y732505D02*
Y735615D01*
X499595Y542290D02*
X503705D01*
X501650Y540235D02*
Y544345D01*
X509775Y542370D02*
X513885D01*
X511830Y540315D02*
Y544425D01*
X528390Y886460D02*
X530790D01*
X529590Y885260D02*
Y887660D01*
X386150Y736600D02*
X388550D01*
X387350Y735400D02*
Y737800D01*
X386150Y744220D02*
X388550D01*
X387350Y743020D02*
Y745420D01*
X301060Y801370D02*
X303460D01*
X302260Y800170D02*
Y802570D01*
X294710Y810260D02*
X297110D01*
X295910Y809060D02*
Y811460D01*
X939785Y113030D02*
X944895D01*
X942340Y110475D02*
Y115585D01*
X743020Y939800D02*
X745420D01*
X744220Y938600D02*
Y941000D01*
X482670Y927100D02*
X485070D01*
X483870Y925900D02*
Y928300D01*
X491560Y906780D02*
X493960D01*
X492760Y905580D02*
Y907980D01*
X303600Y722630D02*
X306000D01*
X304800Y721430D02*
Y723830D01*
X309950Y716280D02*
X312350D01*
X311150Y715080D02*
Y717480D01*
X309950Y703580D02*
X312350D01*
X311150Y702380D02*
Y704780D01*
X303600Y709930D02*
X306000D01*
X304800Y708730D02*
Y711130D01*
X308595Y603250D02*
X313705D01*
X311150Y600695D02*
Y605805D01*
X332725Y603250D02*
X337835D01*
X335280Y600695D02*
Y605805D01*
X783590Y939800D02*
X786130D01*
X784860Y938530D02*
Y941070D01*
X326375Y435610D02*
X331485D01*
X328930Y433055D02*
Y438165D01*
X939785Y595630D02*
X944895D01*
X942340Y593075D02*
Y598185D01*
X303515Y453390D02*
X308625D01*
X306070Y450835D02*
Y455945D01*
X104125Y452120D02*
X109235D01*
X106680Y449565D02*
Y454675D01*
X121905Y435610D02*
X127015D01*
X124460Y433055D02*
Y438165D01*
X123175Y408940D02*
X128285D01*
X125730Y406385D02*
Y411495D01*
X149845Y466090D02*
X154955D01*
X152400Y463535D02*
Y468645D01*
X340345Y463550D02*
X345455D01*
X342900Y460995D02*
Y466105D01*
X504260Y840740D02*
X506660D01*
X505460Y839540D02*
Y841940D01*
X520770Y773430D02*
X523170D01*
X521970Y772230D02*
Y774630D01*
X914385Y972820D02*
X919495D01*
X916940Y970265D02*
Y975375D01*
X783575Y972820D02*
X788685D01*
X786130Y970265D02*
Y975375D01*
X326375Y412750D02*
X331485D01*
X328930Y410195D02*
Y415305D01*
X848345Y440690D02*
X853455D01*
X850900Y438135D02*
Y443245D01*
X1097265Y673862D02*
X1102375D01*
X1099820Y671307D02*
Y676417D01*
X1097385Y654812D02*
X1102495D01*
X1099940Y652257D02*
Y657367D01*
X850392Y763778D02*
X852932D01*
X851662Y762508D02*
Y765048D01*
X843534Y772922D02*
X846074D01*
X844804Y771652D02*
Y774192D01*
X1066292Y805180D02*
X1068832D01*
X1067562Y803910D02*
Y806450D01*
X1067672Y753765D02*
X1070212D01*
X1068942Y752495D02*
Y755035D01*
M02*
