G04*
G04 #@! TF.GenerationSoftware,Altium Limited,Altium Designer,25.4.2 (15)*
G04*
G04 Layer_Color=65535*
%FSLAX44Y44*%
%MOMM*%
G71*
G04*
G04 #@! TF.SameCoordinates,3ABA6FF2-A11C-483D-8B0F-7D0CBFE01766*
G04*
G04*
G04 #@! TF.FilePolarity,Positive*
G04*
G01*
G75*
%ADD10C,0.2000*%
%ADD11C,0.1270*%
%ADD12C,0.3000*%
%ADD13C,0.2540*%
%ADD14C,0.4000*%
%ADD15C,0.1524*%
%ADD16C,0.0000*%
%ADD17C,0.5400*%
G36*
X228092Y767318D02*
X227920D01*
Y767491D01*
X228092D01*
Y767318D01*
D02*
G37*
G36*
X227056D02*
X226884D01*
Y767491D01*
X227056D01*
Y767318D01*
D02*
G37*
G36*
X192343Y762310D02*
X188025D01*
Y762137D01*
X187680D01*
Y761964D01*
X187507D01*
Y755920D01*
X187680D01*
Y755574D01*
X187852D01*
Y755402D01*
X199424D01*
Y755229D01*
X199769D01*
Y755056D01*
X199942D01*
Y754883D01*
X200114D01*
Y754711D01*
X200287D01*
Y754365D01*
X200460D01*
Y753329D01*
X200287D01*
Y753156D01*
X200114D01*
Y752811D01*
X199769D01*
Y752638D01*
X199596D01*
Y752466D01*
X181635D01*
Y752638D01*
X181117D01*
Y763864D01*
X181290D01*
Y762828D01*
X181462D01*
Y761619D01*
X181635D01*
Y761792D01*
Y761964D01*
Y763864D01*
X181462D01*
Y765936D01*
X181290D01*
Y764727D01*
X181117D01*
Y766800D01*
X188889D01*
Y766973D01*
X189061D01*
Y766800D01*
X189234D01*
Y766973D01*
X192343D01*
Y762310D01*
D02*
G37*
G36*
X181290Y764037D02*
X181117D01*
Y764555D01*
X181290D01*
Y764037D01*
D02*
G37*
G36*
X207368Y766800D02*
X207541D01*
Y762137D01*
X207368D01*
Y761964D01*
X194415D01*
Y762137D01*
X194242D01*
Y766109D01*
Y766282D01*
Y766454D01*
X194070D01*
Y766800D01*
X194415D01*
Y766973D01*
X207368D01*
Y766800D01*
D02*
G37*
G36*
X221012Y765418D02*
X220839D01*
Y754538D01*
X221012D01*
Y751947D01*
X217212D01*
Y752120D01*
X217039D01*
Y759201D01*
X214794D01*
Y759028D01*
X214622D01*
Y758856D01*
X214794D01*
Y752120D01*
X214622D01*
Y751947D01*
X210822D01*
Y752120D01*
X210649D01*
Y766800D01*
X210822D01*
Y766973D01*
X214794D01*
Y761446D01*
X216867D01*
Y761619D01*
X217039D01*
Y766973D01*
X221012D01*
Y765418D01*
D02*
G37*
G36*
X206850Y760064D02*
X207368D01*
Y759892D01*
X207541D01*
Y746075D01*
X207368D01*
Y745903D01*
X194415D01*
Y746075D01*
X194242D01*
Y750393D01*
X194933D01*
Y750566D01*
X196488D01*
Y750393D01*
X199424D01*
Y750566D01*
X199596D01*
Y750393D01*
X199769D01*
Y750566D01*
X201323D01*
Y750739D01*
X201669D01*
Y756956D01*
X201496D01*
Y757129D01*
X189580D01*
Y757301D01*
X189234D01*
Y757474D01*
X189061D01*
Y757647D01*
X188889D01*
Y757819D01*
X188716D01*
Y757992D01*
X188543D01*
Y758337D01*
X188370D01*
Y759201D01*
X188543D01*
Y759374D01*
X188716D01*
Y759546D01*
X188889D01*
Y759719D01*
X189061D01*
Y759892D01*
X189407D01*
Y760064D01*
X190098D01*
Y760237D01*
X203741D01*
Y760064D01*
X203914D01*
Y760237D01*
X204087D01*
Y760064D01*
X204259D01*
Y760237D01*
X206850D01*
Y760064D01*
D02*
G37*
G36*
X229301Y766973D02*
X230165D01*
Y766800D01*
X230510D01*
Y766627D01*
X230856D01*
Y766454D01*
X231028D01*
Y766282D01*
X231201D01*
Y766109D01*
X231374D01*
Y765936D01*
X231546D01*
Y765764D01*
X231719D01*
Y765591D01*
X231892D01*
Y765246D01*
X232065D01*
Y764900D01*
X232237D01*
Y764382D01*
X232410D01*
Y754538D01*
X232237D01*
Y754020D01*
X232065D01*
Y753674D01*
X231892D01*
Y753502D01*
X231719D01*
Y753156D01*
X231546D01*
Y752984D01*
X231374D01*
Y752811D01*
X231201D01*
Y752638D01*
X231028D01*
Y752466D01*
X230683D01*
Y752293D01*
X230338D01*
Y752120D01*
X229992D01*
Y751947D01*
X229301D01*
Y751775D01*
X228265D01*
Y751602D01*
X226538D01*
Y751775D01*
X225502D01*
Y751947D01*
X224811D01*
Y752120D01*
X224293D01*
Y752293D01*
X223948D01*
Y752466D01*
X223775D01*
Y752638D01*
X223602D01*
Y752811D01*
X223257D01*
Y753156D01*
X223084D01*
Y753329D01*
X222911D01*
Y753502D01*
X222739D01*
Y753847D01*
X222566D01*
Y754193D01*
X222393D01*
Y755056D01*
X222220D01*
Y764209D01*
X222393D01*
Y764900D01*
X222566D01*
Y765246D01*
X222739D01*
Y765591D01*
X222911D01*
Y765764D01*
X223084D01*
Y765936D01*
X223257D01*
Y766109D01*
X223429D01*
Y766282D01*
X223602D01*
Y766454D01*
X223948D01*
Y766627D01*
X224120D01*
Y766800D01*
X224638D01*
Y766973D01*
X225329D01*
Y767145D01*
X229301D01*
Y766973D01*
D02*
G37*
G36*
X213413Y749529D02*
X213758D01*
Y749357D01*
X213931D01*
Y749184D01*
X214103D01*
Y749011D01*
X214276D01*
Y748839D01*
X214449D01*
Y748321D01*
X213758D01*
Y748493D01*
X213413D01*
Y748666D01*
X213067D01*
Y748839D01*
X212031D01*
Y748321D01*
X212204D01*
Y748148D01*
X213067D01*
Y747975D01*
X213585D01*
Y747803D01*
X213758D01*
Y747630D01*
X213931D01*
Y747457D01*
X214276D01*
Y747284D01*
X214622D01*
Y746421D01*
X214449D01*
Y746248D01*
X214276D01*
Y746075D01*
X213931D01*
Y745903D01*
X213758D01*
Y745730D01*
X213585D01*
Y745557D01*
X211858D01*
Y745730D01*
X211513D01*
Y745903D01*
X211167D01*
Y746075D01*
X210822D01*
Y746248D01*
X210649D01*
Y746939D01*
X210822D01*
Y747112D01*
X210995D01*
Y746939D01*
X211686D01*
Y746766D01*
X212031D01*
Y746594D01*
X212204D01*
Y746421D01*
X212376D01*
Y746248D01*
X213240D01*
Y747112D01*
X212894D01*
Y747284D01*
X212204D01*
Y747457D01*
X211686D01*
Y747630D01*
X211340D01*
Y747803D01*
X211167D01*
Y747975D01*
X210995D01*
Y748148D01*
X210822D01*
Y748493D01*
X210649D01*
Y748666D01*
X210822D01*
Y748839D01*
X210995D01*
Y749011D01*
X211167D01*
Y749184D01*
X211340D01*
Y749357D01*
X211686D01*
Y749529D01*
X212031D01*
Y749702D01*
X213413D01*
Y749529D01*
D02*
G37*
G36*
X181290Y748148D02*
X181117D01*
Y748321D01*
X181290D01*
Y748148D01*
D02*
G37*
G36*
Y747803D02*
X181117D01*
Y747975D01*
X181290D01*
Y747803D01*
D02*
G37*
G36*
X227056Y749357D02*
X227229D01*
Y749184D01*
X227056D01*
Y748839D01*
X226884D01*
Y748493D01*
X226711D01*
Y748148D01*
X226538D01*
Y747630D01*
X226365D01*
Y747284D01*
X226193D01*
Y746939D01*
X226020D01*
Y746766D01*
X225847D01*
Y746248D01*
X225675D01*
Y745730D01*
X225502D01*
Y745557D01*
X225329D01*
Y745212D01*
X225156D01*
Y744866D01*
X224984D01*
Y744694D01*
X224811D01*
Y744521D01*
X224638D01*
Y744348D01*
X224466D01*
Y744176D01*
X224120D01*
Y744003D01*
X223429D01*
Y744694D01*
X223602D01*
Y745039D01*
X223775D01*
Y745212D01*
X223948D01*
Y745385D01*
X224120D01*
Y745557D01*
X224293D01*
Y745730D01*
X224638D01*
Y745903D01*
X224466D01*
Y746075D01*
X224293D01*
Y746421D01*
X224120D01*
Y746594D01*
X223948D01*
Y747112D01*
X223775D01*
Y747284D01*
X223602D01*
Y747630D01*
X223429D01*
Y748148D01*
X223257D01*
Y748666D01*
X223084D01*
Y749011D01*
X222911D01*
Y749529D01*
X223948D01*
Y749357D01*
X224120D01*
Y749184D01*
X224293D01*
Y748321D01*
X224466D01*
Y747630D01*
X224638D01*
Y747803D01*
X225329D01*
Y747630D01*
X225502D01*
Y747457D01*
X225675D01*
Y747112D01*
X225847D01*
Y747457D01*
X225675D01*
Y747630D01*
Y747803D01*
Y749184D01*
X225847D01*
Y749357D01*
X226365D01*
Y749529D01*
X227056D01*
Y749357D01*
D02*
G37*
G36*
X192343Y745903D02*
X181980D01*
Y746075D01*
X181117D01*
Y747112D01*
X181290D01*
Y746939D01*
X181462D01*
Y750048D01*
X181290D01*
Y748493D01*
X181117D01*
Y750220D01*
X181290D01*
Y750393D01*
X192343D01*
Y745903D01*
D02*
G37*
G36*
X271959Y767318D02*
X271096D01*
Y767491D01*
X271959D01*
Y767318D01*
D02*
G37*
G36*
X251235D02*
X251062D01*
Y767491D01*
X251235D01*
Y767318D01*
D02*
G37*
G36*
X249853D02*
X249162D01*
Y767491D01*
X249853D01*
Y767318D01*
D02*
G37*
G36*
X265914Y766800D02*
X266087D01*
Y765246D01*
X265914D01*
Y764900D01*
X265569D01*
Y764727D01*
X264360D01*
Y764900D01*
X263497D01*
Y764727D01*
X263324D01*
Y764209D01*
X263151D01*
Y753329D01*
X263324D01*
Y752120D01*
X263151D01*
Y751947D01*
X259179D01*
Y764727D01*
X258834D01*
Y764900D01*
X256416D01*
Y765418D01*
X256243D01*
Y766800D01*
X257279D01*
Y766973D01*
X265914D01*
Y766800D01*
D02*
G37*
G36*
X252098Y766973D02*
X253307D01*
Y766800D01*
X253825D01*
Y766627D01*
X253998D01*
Y766454D01*
X254343D01*
Y766282D01*
X254516D01*
Y766109D01*
X254689D01*
Y765764D01*
X254862D01*
Y765591D01*
X255034D01*
Y765246D01*
X255207D01*
Y764727D01*
X255380D01*
Y761792D01*
X255207D01*
Y761619D01*
X252098D01*
Y761792D01*
X251580D01*
Y761964D01*
X251407D01*
Y764382D01*
X251235D01*
Y764555D01*
X251062D01*
Y764727D01*
X250889D01*
Y764900D01*
X250544D01*
Y765073D01*
X249853D01*
Y764900D01*
X249508D01*
Y764727D01*
X249335D01*
Y764555D01*
X249162D01*
Y764209D01*
X248990D01*
Y763346D01*
X249162D01*
Y763000D01*
X249335D01*
Y762828D01*
X249508D01*
Y762655D01*
X249680D01*
Y762310D01*
X249853D01*
Y762137D01*
X250026D01*
Y761964D01*
X250371D01*
Y761792D01*
X250544D01*
Y761619D01*
X250889D01*
Y761446D01*
X251062D01*
Y761273D01*
X251407D01*
Y761101D01*
X251580D01*
Y760928D01*
X251753D01*
Y760755D01*
X252098D01*
Y760583D01*
X252271D01*
Y760410D01*
X252616D01*
Y760237D01*
X252789D01*
Y760064D01*
X252962D01*
Y759892D01*
X253307D01*
Y759719D01*
X253480D01*
Y759546D01*
X253653D01*
Y759374D01*
X253825D01*
Y759201D01*
X253998D01*
Y759028D01*
X254171D01*
Y758856D01*
X254343D01*
Y758510D01*
X254516D01*
Y758337D01*
X254689D01*
Y758165D01*
X254862D01*
Y757819D01*
X255034D01*
Y757474D01*
X255207D01*
Y756783D01*
X255380D01*
Y755229D01*
X255207D01*
Y754193D01*
X255034D01*
Y753847D01*
X254862D01*
Y753502D01*
X254689D01*
Y753156D01*
X254516D01*
Y752984D01*
X254343D01*
Y752811D01*
X254171D01*
Y752638D01*
X253998D01*
Y752466D01*
X253653D01*
Y752293D01*
X253307D01*
Y752120D01*
X252789D01*
Y751947D01*
X252098D01*
Y751775D01*
X250889D01*
Y751602D01*
X249508D01*
Y751775D01*
X248299D01*
Y751947D01*
X247435D01*
Y752120D01*
X246917D01*
Y752293D01*
X246572D01*
Y752466D01*
X246399D01*
Y752638D01*
X246054D01*
Y752811D01*
X245881D01*
Y752984D01*
X245708D01*
Y753156D01*
X245536D01*
Y753502D01*
X245363D01*
Y753674D01*
X245190D01*
Y757647D01*
X245363D01*
Y757819D01*
X248644D01*
Y757647D01*
X248990D01*
Y754711D01*
X249162D01*
Y754365D01*
X249335D01*
Y754193D01*
X249853D01*
Y754020D01*
X250544D01*
Y754193D01*
X250889D01*
Y754365D01*
X251235D01*
Y754711D01*
X251407D01*
Y755920D01*
X251235D01*
Y756265D01*
X251062D01*
Y756610D01*
X250889D01*
Y756783D01*
X250717D01*
Y756956D01*
X250544D01*
Y757129D01*
X250371D01*
Y757301D01*
X250198D01*
Y757474D01*
X250026D01*
Y757647D01*
X249853D01*
Y757819D01*
X249680D01*
Y757992D01*
X249335D01*
Y758165D01*
X249162D01*
Y758337D01*
X248990D01*
Y758510D01*
X248644D01*
Y758683D01*
X248472D01*
Y758856D01*
X248126D01*
Y759028D01*
X247953D01*
Y759201D01*
X247608D01*
Y759374D01*
X247435D01*
Y759546D01*
X247262D01*
Y759719D01*
X246917D01*
Y759892D01*
X246744D01*
Y760064D01*
X246572D01*
Y760237D01*
X246399D01*
Y760410D01*
X246226D01*
Y760583D01*
X246054D01*
Y760755D01*
X245881D01*
Y761101D01*
X245708D01*
Y761446D01*
X245536D01*
Y761792D01*
X245363D01*
Y762137D01*
X245190D01*
Y765073D01*
X245363D01*
Y765418D01*
X245536D01*
Y765591D01*
X245708D01*
Y765936D01*
X245881D01*
Y766109D01*
X246054D01*
Y766282D01*
X246226D01*
Y766454D01*
X246572D01*
Y766627D01*
X246917D01*
Y766800D01*
X247262D01*
Y766973D01*
X248299D01*
Y767145D01*
X252098D01*
Y766973D01*
D02*
G37*
G36*
X289575Y752120D02*
X289230D01*
Y751947D01*
X284739D01*
Y752120D01*
X284566D01*
Y752293D01*
X284394D01*
Y752811D01*
X284221D01*
Y753674D01*
X284048D01*
Y754365D01*
X283876D01*
Y755229D01*
X283703D01*
Y755920D01*
X283530D01*
Y756783D01*
X283358D01*
Y757474D01*
X283185D01*
Y758165D01*
X283012D01*
Y758856D01*
X282840D01*
Y759719D01*
X282667D01*
Y760583D01*
X282494D01*
Y761446D01*
X282321D01*
Y762482D01*
X282149D01*
Y763173D01*
X281976D01*
Y763864D01*
X281803D01*
Y764037D01*
X281112D01*
Y762828D01*
X281285D01*
Y758165D01*
X281458D01*
Y752120D01*
X281285D01*
Y751947D01*
X278349D01*
Y756783D01*
X278522D01*
Y761792D01*
X278349D01*
Y766973D01*
X284048D01*
Y766109D01*
X284221D01*
Y765418D01*
X284394D01*
Y764727D01*
X284566D01*
Y764037D01*
X284739D01*
Y763346D01*
X284912D01*
Y762655D01*
X285085D01*
Y761792D01*
X285257D01*
Y760755D01*
X285430D01*
Y759892D01*
X285603D01*
Y758856D01*
X285776D01*
Y757992D01*
X285948D01*
Y757301D01*
X286121D01*
Y757129D01*
X286294D01*
Y756783D01*
X286812D01*
Y760410D01*
X286639D01*
Y763346D01*
Y763519D01*
Y766800D01*
X287330D01*
Y766973D01*
X289575D01*
Y752120D01*
D02*
G37*
G36*
X243808Y766800D02*
X243981D01*
Y766109D01*
X243808D01*
Y761101D01*
Y760928D01*
Y754883D01*
X243636D01*
Y754020D01*
X243463D01*
Y753674D01*
X243290D01*
Y753329D01*
X243118D01*
Y753156D01*
X242945D01*
Y752811D01*
X242600D01*
Y752638D01*
X242427D01*
Y752466D01*
X242254D01*
Y752293D01*
X241909D01*
Y752120D01*
X241391D01*
Y751947D01*
X240872D01*
Y751775D01*
X239664D01*
Y751602D01*
X237936D01*
Y751775D01*
X236728D01*
Y751947D01*
X236037D01*
Y752120D01*
X235691D01*
Y752293D01*
X235346D01*
Y752466D01*
X235173D01*
Y752638D01*
X234828D01*
Y752811D01*
X234655D01*
Y752984D01*
X234482D01*
Y753329D01*
X234310D01*
Y753502D01*
X234137D01*
Y753674D01*
X233964D01*
Y754193D01*
X233792D01*
Y764727D01*
X233619D01*
Y766973D01*
X237591D01*
Y754883D01*
X237764D01*
Y754365D01*
X237936D01*
Y754193D01*
X238455D01*
Y754020D01*
X238973D01*
Y754193D01*
X239491D01*
Y754365D01*
X239664D01*
Y754538D01*
X239836D01*
Y761101D01*
X240009D01*
Y764727D01*
X239836D01*
Y766800D01*
X240009D01*
Y766973D01*
X243808D01*
Y766800D01*
D02*
G37*
G36*
X274032Y766973D02*
X274895D01*
Y766800D01*
X275413D01*
Y766627D01*
X275586D01*
Y766454D01*
X275931D01*
Y766282D01*
X276104D01*
Y766109D01*
X276277D01*
Y765936D01*
X276450D01*
Y765764D01*
X276622D01*
Y765418D01*
X276795D01*
Y765073D01*
X276968D01*
Y763000D01*
X277140D01*
Y754711D01*
X276968D01*
Y754020D01*
X276795D01*
Y753674D01*
X276622D01*
Y753329D01*
X276450D01*
Y753156D01*
X276277D01*
Y752984D01*
X276104D01*
Y752811D01*
X275931D01*
Y752638D01*
X275759D01*
Y752466D01*
X275413D01*
Y752293D01*
X275240D01*
Y752120D01*
X274722D01*
Y751947D01*
X274032D01*
Y751775D01*
X272823D01*
Y751602D01*
X271268D01*
Y751775D01*
X270405D01*
Y751947D01*
X269714D01*
Y752120D01*
X269196D01*
Y752293D01*
X268850D01*
Y752466D01*
X268505D01*
Y752638D01*
X268332D01*
Y752811D01*
X268160D01*
Y752984D01*
X267987D01*
Y753156D01*
X267814D01*
Y753502D01*
X267642D01*
Y753674D01*
X267469D01*
Y754020D01*
X267296D01*
Y754538D01*
X267124D01*
Y755402D01*
X266951D01*
Y763519D01*
X267124D01*
Y764555D01*
X267296D01*
Y764900D01*
X267469D01*
Y765246D01*
X267642D01*
Y765591D01*
X267814D01*
Y765764D01*
X267987D01*
Y765936D01*
X268160D01*
Y766109D01*
X268332D01*
Y766282D01*
X268505D01*
Y766454D01*
X268678D01*
Y766627D01*
X269023D01*
Y766800D01*
X269541D01*
Y766973D01*
X270232D01*
Y767145D01*
X274032D01*
Y766973D01*
D02*
G37*
G36*
X276450Y749529D02*
X276795D01*
Y749357D01*
X276968D01*
Y749184D01*
X277140D01*
Y749011D01*
X277313D01*
Y748839D01*
X277486D01*
Y746766D01*
X277658D01*
Y746421D01*
X277486D01*
Y745730D01*
X276622D01*
Y745903D01*
X276277D01*
Y746075D01*
X276104D01*
Y746421D01*
X276277D01*
Y748666D01*
X275931D01*
Y748839D01*
X275068D01*
Y748493D01*
X274895D01*
Y745903D01*
X274722D01*
Y745730D01*
X274204D01*
Y745903D01*
X273859D01*
Y747284D01*
Y747457D01*
Y748666D01*
X273686D01*
Y748839D01*
X272995D01*
Y748666D01*
X272650D01*
Y748321D01*
X272477D01*
Y745903D01*
X272132D01*
Y745730D01*
X271614D01*
Y745903D01*
X271268D01*
Y749357D01*
X271614D01*
Y749529D01*
X273514D01*
Y749702D01*
X273686D01*
Y749529D01*
X274377D01*
Y749357D01*
X275068D01*
Y749529D01*
X275413D01*
Y749702D01*
X276450D01*
Y749529D01*
D02*
G37*
G36*
X237936D02*
X238455D01*
Y749357D01*
X238627D01*
Y749184D01*
X238800D01*
Y749011D01*
X238973D01*
Y748839D01*
X239145D01*
Y748321D01*
X238282D01*
Y748493D01*
X237936D01*
Y748666D01*
X237764D01*
Y748839D01*
X236900D01*
Y748666D01*
X236728D01*
Y748321D01*
X236900D01*
Y748148D01*
X237591D01*
Y747975D01*
X238109D01*
Y747803D01*
X238455D01*
Y747630D01*
X238627D01*
Y747457D01*
X238973D01*
Y747284D01*
X239318D01*
Y747112D01*
X239491D01*
Y746766D01*
X239318D01*
Y746421D01*
X239145D01*
Y746248D01*
X238973D01*
Y746075D01*
X238627D01*
Y745903D01*
X238455D01*
Y745730D01*
X238109D01*
Y745557D01*
X236555D01*
Y745730D01*
X236210D01*
Y745903D01*
X235864D01*
Y746075D01*
X235691D01*
Y746248D01*
X235519D01*
Y746421D01*
X235346D01*
Y746939D01*
X235519D01*
Y747112D01*
X235691D01*
Y746939D01*
X236382D01*
Y746766D01*
X236728D01*
Y746594D01*
X236900D01*
Y746421D01*
X237073D01*
Y746248D01*
X237418D01*
Y746075D01*
X237764D01*
Y746248D01*
X237936D01*
Y747112D01*
X237418D01*
Y747284D01*
X236728D01*
Y747457D01*
X236382D01*
Y747630D01*
X236037D01*
Y747803D01*
X235864D01*
Y747975D01*
X235691D01*
Y748148D01*
X235519D01*
Y748321D01*
X235346D01*
Y748666D01*
X235519D01*
Y748839D01*
X235691D01*
Y749011D01*
X235864D01*
Y749184D01*
X236037D01*
Y749357D01*
X236382D01*
Y749529D01*
X236728D01*
Y749702D01*
X237936D01*
Y749529D01*
D02*
G37*
G36*
X288711D02*
X289057D01*
Y749357D01*
X289575D01*
Y748148D01*
X289402D01*
Y748321D01*
X289230D01*
Y748493D01*
X288884D01*
Y748666D01*
X288711D01*
Y748839D01*
X287502D01*
Y748666D01*
X287330D01*
Y748321D01*
X287675D01*
Y748148D01*
X288366D01*
Y747975D01*
X288884D01*
Y747803D01*
X289057D01*
Y747630D01*
X289575D01*
Y745903D01*
X289230D01*
Y746075D01*
X289057D01*
Y746248D01*
X288884D01*
Y746421D01*
X288711D01*
Y747112D01*
X288193D01*
Y747284D01*
X287502D01*
Y747457D01*
X287157D01*
Y747630D01*
X286812D01*
Y747803D01*
X286639D01*
Y747975D01*
X286466D01*
Y748148D01*
X286294D01*
Y748321D01*
X286121D01*
Y748666D01*
X286294D01*
Y749011D01*
X286466D01*
Y749184D01*
X286812D01*
Y749357D01*
X286984D01*
Y749529D01*
X287502D01*
Y749702D01*
X288711D01*
Y749529D01*
D02*
G37*
G36*
X286639Y746939D02*
X287157D01*
Y746766D01*
X287502D01*
Y746594D01*
X287675D01*
Y746421D01*
X288021D01*
Y746248D01*
X288539D01*
Y746075D01*
X289057D01*
Y745903D01*
X289230D01*
Y745730D01*
X288884D01*
Y745557D01*
X287330D01*
Y745730D01*
X286812D01*
Y745903D01*
X286639D01*
Y746075D01*
X286294D01*
Y746421D01*
X286121D01*
Y746939D01*
X286294D01*
Y747112D01*
X286639D01*
Y746939D01*
D02*
G37*
G36*
X248990Y750220D02*
X249162D01*
Y750048D01*
X249335D01*
Y749875D01*
X249508D01*
Y749702D01*
X249680D01*
Y749529D01*
X249853D01*
Y748839D01*
X249508D01*
Y748666D01*
X249335D01*
Y748493D01*
X249162D01*
Y748148D01*
X249335D01*
Y747457D01*
X248990D01*
Y747284D01*
X249162D01*
Y746939D01*
X249335D01*
Y746766D01*
X249508D01*
Y746594D01*
X249680D01*
Y746421D01*
X249853D01*
Y745730D01*
X249680D01*
Y745557D01*
X249162D01*
Y745730D01*
X248644D01*
Y745903D01*
X248472D01*
Y746075D01*
X248299D01*
Y746248D01*
X248126D01*
Y748839D01*
X247953D01*
Y749011D01*
X247435D01*
Y749357D01*
X247781D01*
Y749529D01*
X247953D01*
Y749702D01*
X248126D01*
Y750393D01*
X248990D01*
Y750220D01*
D02*
G37*
G36*
X261079Y749529D02*
X261424D01*
Y749357D01*
X261770D01*
Y749184D01*
X261942D01*
Y749011D01*
X262115D01*
Y748839D01*
X262288D01*
Y748666D01*
X262460D01*
Y748321D01*
Y748148D01*
Y746766D01*
X262288D01*
Y746421D01*
X262115D01*
Y746248D01*
X261942D01*
Y746075D01*
X261770D01*
Y745903D01*
X261597D01*
Y745730D01*
X261252D01*
Y745557D01*
X260561D01*
Y745385D01*
X260388D01*
Y745557D01*
X259697D01*
Y745730D01*
X259352D01*
Y745903D01*
X259179D01*
Y746075D01*
X258834D01*
Y746248D01*
X258661D01*
Y746421D01*
X258488D01*
Y746766D01*
X258316D01*
Y748321D01*
X258488D01*
Y748666D01*
X258661D01*
Y748839D01*
X258834D01*
Y749011D01*
X259006D01*
Y749184D01*
X259179D01*
Y749357D01*
X259524D01*
Y749529D01*
X260043D01*
Y749702D01*
X261079D01*
Y749529D01*
D02*
G37*
%LPC*%
G36*
X181635Y761446D02*
X181462D01*
Y761273D01*
X181635D01*
Y761446D01*
D02*
G37*
G36*
Y757129D02*
X181462D01*
Y755402D01*
X181290D01*
Y753329D01*
X181462D01*
Y753156D01*
X181635D01*
Y757129D01*
D02*
G37*
G36*
X227574Y765073D02*
X227056D01*
Y764900D01*
X226711D01*
Y764727D01*
X226538D01*
Y764555D01*
X226365D01*
Y764209D01*
X226193D01*
Y760928D01*
Y760755D01*
Y754538D01*
X226365D01*
Y754365D01*
X226538D01*
Y754193D01*
X227056D01*
Y754020D01*
X227747D01*
Y754193D01*
X228092D01*
Y754365D01*
X228265D01*
Y754538D01*
X228438D01*
Y764382D01*
X228265D01*
Y764727D01*
X228092D01*
Y764900D01*
X227574D01*
Y765073D01*
D02*
G37*
G36*
X272650D02*
X271786D01*
Y764900D01*
X271441D01*
Y764727D01*
X271268D01*
Y764555D01*
X271096D01*
Y754538D01*
X271268D01*
Y754193D01*
X271959D01*
Y754020D01*
X272477D01*
Y754193D01*
X272995D01*
Y754365D01*
X273168D01*
Y754883D01*
X273341D01*
Y760583D01*
Y760755D01*
Y764209D01*
X273168D01*
Y764555D01*
X272995D01*
Y764727D01*
X272823D01*
Y764900D01*
X272650D01*
Y765073D01*
D02*
G37*
G36*
X261079Y748839D02*
X259697D01*
Y748148D01*
X261252D01*
Y748666D01*
X261079D01*
Y748839D01*
D02*
G37*
G36*
X262115Y747457D02*
X260043D01*
Y747284D01*
X259524D01*
Y746939D01*
X259697D01*
Y746594D01*
X259870D01*
Y746421D01*
X260215D01*
Y746248D01*
X260561D01*
Y746421D01*
X260906D01*
Y746594D01*
X261252D01*
Y746766D01*
X261424D01*
Y746939D01*
X261597D01*
Y747112D01*
X261942D01*
Y747284D01*
X262115D01*
Y747457D01*
D02*
G37*
%LPD*%
D10*
X1194800Y338880D02*
G03*
X1194800Y338880I-1000J0D01*
G01*
X53070Y641440D02*
G03*
X53070Y641440I-1000J0D01*
G01*
X182590Y620610D02*
G03*
X182590Y620610I-1000J0D01*
G01*
X927483Y818203D02*
G03*
X927483Y818203I-1000J0D01*
G01*
X648380Y44450D02*
G03*
X648380Y44450I-1000J0D01*
G01*
X497250D02*
G03*
X497250Y44450I-1000J0D01*
G01*
X113510Y513080D02*
G03*
X113510Y513080I-1000J0D01*
G01*
X134870Y678180D02*
G03*
X134870Y678180I-1000J0D01*
G01*
X605780Y560430D02*
G03*
X605780Y560430I-1000J0D01*
G01*
X281040Y401320D02*
G03*
X281040Y401320I-1000J0D01*
G01*
X1149080Y319400D02*
G03*
X1149080Y319400I-1000J0D01*
G01*
X86730Y401320D02*
G03*
X86730Y401320I-1000J0D01*
G01*
X881110Y512600D02*
G03*
X881110Y512600I-1000J0D01*
G01*
X226710Y975360D02*
G03*
X226710Y975360I-1000J0D01*
G01*
X476330Y974090D02*
G03*
X476330Y974090I-1000J0D01*
G01*
X90820Y975360D02*
G03*
X90820Y975360I-1000J0D01*
G01*
X1136420Y870370D02*
G03*
X1136420Y870370I-1000J0D01*
G01*
X417160Y413360D02*
G03*
X417160Y413360I-1000J0D01*
G01*
X221590Y412700D02*
G03*
X221590Y412700I-1000J0D01*
G01*
X450970Y564480D02*
G03*
X450970Y564480I-1000J0D01*
G01*
X393700Y467160D02*
G03*
X393700Y467160I-1000J0D01*
G01*
X190500D02*
G03*
X190500Y467160I-1000J0D01*
G01*
X550212Y785664D02*
G03*
X550212Y785664I-1000J0D01*
G01*
X470630Y172920D02*
G03*
X470630Y172920I-1000J0D01*
G01*
X620490D02*
G03*
X620490Y172920I-1000J0D01*
G01*
X982200Y62590D02*
G03*
X982200Y62590I-1000J0D01*
G01*
X134228Y788670D02*
G03*
X134228Y788670I-1000J0D01*
G01*
X1028430Y288290D02*
G03*
X1028430Y288290I-1000J0D01*
G01*
X564360Y891480D02*
G03*
X564360Y891480I-1000J0D01*
G01*
X80010Y549490D02*
Y560490D01*
X623150Y581660D02*
X634150D01*
X629500Y852170D02*
X640500D01*
X548220Y890270D02*
X559220D01*
X423760Y631300D02*
X434760D01*
X524510Y629500D02*
Y640500D01*
Y652360D02*
Y663360D01*
X395820Y802640D02*
X406820D01*
X370420D02*
X381420D01*
X379310Y631190D02*
X390310D01*
X352640D02*
X363640D01*
X524510Y606640D02*
Y617640D01*
X451700Y631190D02*
X462700D01*
X640930Y783590D02*
X651930D01*
X640930Y698390D02*
X651930D01*
X796434Y658456D02*
Y669456D01*
X796290Y635596D02*
Y646596D01*
X869022Y700422D02*
X880022D01*
X891882D02*
X902882D01*
X914742Y700642D02*
X925742D01*
X953262Y630262D02*
Y641262D01*
Y653122D02*
Y664122D01*
Y678522D02*
Y689522D01*
Y701382D02*
Y712382D01*
X1132840Y888580D02*
Y899580D01*
X1068942Y786980D02*
Y797980D01*
Y759040D02*
Y770040D01*
X818222Y700422D02*
X829222D01*
X841082D02*
X852082D01*
X1024382Y733640D02*
Y744640D01*
X705446Y832358D02*
X716446D01*
X705446Y747522D02*
X716446D01*
X962770Y433920D02*
Y444920D01*
X1019390Y511920D02*
X1030390D01*
X1019390Y452120D02*
X1030390D01*
X630770Y891430D02*
X641770D01*
X232410Y988060D02*
X334010D01*
X232410Y962660D02*
X334010D01*
Y988060D01*
X232410Y962660D02*
Y988060D01*
X367030Y961390D02*
X468630D01*
X367030Y986790D02*
X468630D01*
X367030Y961390D02*
Y986790D01*
X468630Y961390D02*
Y986790D01*
X96520Y988060D02*
X198120D01*
X96520Y962660D02*
X198120D01*
Y988060D01*
X96520Y962660D02*
Y988060D01*
X717030Y943278D02*
X728030D01*
X694016Y943466D02*
X705016D01*
X668870Y943610D02*
X679870D01*
X822286Y393556D02*
X833286D01*
X225640Y800210D02*
X236640D01*
X1087970Y262890D02*
X1098970D01*
X1000340Y260350D02*
X1011340D01*
X971130Y168910D02*
X982130D01*
X944460D02*
X955460D01*
X1065110Y262780D02*
X1076110D01*
X1112100Y262890D02*
X1123100D01*
X1002030Y127850D02*
Y138850D01*
X920330Y81280D02*
X931330D01*
D11*
X543747Y513609D02*
G03*
X568451Y296782I36387J-105675D01*
G01*
X591940Y296740D02*
G03*
X618505Y513088I-11692J111241D01*
G01*
X105010Y513080D02*
G03*
X105010Y513080I-25000J0D01*
G01*
X191370Y678180D02*
G03*
X191370Y678180I-25000J0D01*
G01*
X534184Y779664D02*
G03*
X534184Y779664I-4472J0D01*
G01*
X1082140Y482340D02*
Y487940D01*
X1094640Y482340D02*
Y487940D01*
X1173800Y211380D02*
Y331380D01*
Y211380D02*
X1293800D01*
Y331380D01*
X1173800D02*
X1293800D01*
X617890Y513310D02*
Y540070D01*
X596390D02*
X617890D01*
X542890Y540060D02*
X563390Y540070D01*
X542890Y513310D02*
Y540060D01*
X40020Y650240D02*
X64120D01*
X40020D02*
Y802640D01*
X64120D01*
Y650240D02*
Y802640D01*
X167990Y570710D02*
Y630710D01*
X52990D02*
X167990D01*
X52990Y570710D02*
Y630710D01*
Y570710D02*
X167990D01*
X907482Y755202D02*
Y758502D01*
X904182Y755202D02*
X907482D01*
X836482D02*
X839782D01*
X836482D02*
Y758502D01*
Y822902D02*
Y826202D01*
X839782D01*
X904182D02*
X907482D01*
Y822902D02*
Y826202D01*
X558900Y111500D02*
Y117100D01*
X571400Y111500D02*
Y117100D01*
X652780Y32400D02*
Y56500D01*
X728980Y32400D02*
Y56500D01*
X652780D02*
X728980D01*
X652780Y32400D02*
X728980D01*
X501650D02*
Y56500D01*
X577850Y32400D02*
Y56500D01*
X501650D02*
X577850D01*
X501650Y32400D02*
X577850D01*
X532230Y111500D02*
Y117100D01*
X544730Y111500D02*
Y117100D01*
X682090Y111500D02*
Y117100D01*
X694590Y111500D02*
Y117100D01*
X712570Y111180D02*
Y116780D01*
X725070Y111180D02*
Y116780D01*
X1042570Y463490D02*
X1044670D01*
X1066070D02*
X1068170D01*
X1042570Y506790D02*
X1044670D01*
X1066070D02*
X1068170D01*
Y463490D02*
Y506790D01*
X1042570Y463490D02*
Y506790D01*
X684290Y847940D02*
Y858940D01*
X654290Y847940D02*
Y858940D01*
X1128160Y135600D02*
X1178160D01*
Y15600D02*
Y135600D01*
X1128160Y15600D02*
X1178160D01*
X1128160D02*
Y135600D01*
X1177940Y905620D02*
X1189340D01*
X1177940Y887620D02*
X1189340D01*
X592680Y576430D02*
X598580D01*
X581130Y589430D02*
X589430D01*
X581130Y580980D02*
Y589430D01*
X601830D02*
X610130D01*
Y580980D02*
Y589430D01*
X329090Y487890D02*
X349090D01*
X329090Y507790D02*
X349090D01*
X298390Y388520D02*
Y390620D01*
Y412020D02*
Y414120D01*
X341690Y388520D02*
Y390620D01*
Y412020D02*
Y414120D01*
X298390D02*
X341690D01*
X298390Y388520D02*
X341690D01*
X312420Y388620D02*
Y414020D01*
Y401320D02*
X320040Y408940D01*
Y414120D01*
Y388520D02*
Y393700D01*
X312420Y401320D02*
X320040Y393700D01*
Y408940D01*
X1140460Y279400D02*
X1155700D01*
X1140460D02*
X1148080Y287020D01*
X1135280Y279400D02*
X1140460D01*
X1155700D02*
X1160880D01*
X1148080Y287020D02*
X1155700Y279400D01*
X1135380Y287020D02*
X1160780D01*
X1135280Y257750D02*
Y301050D01*
X1160880Y257750D02*
Y301050D01*
X1158780Y257750D02*
X1160880D01*
X1135280D02*
X1137380D01*
X1158780Y301050D02*
X1160880D01*
X1135280D02*
X1137380D01*
X1106380Y197870D02*
Y217870D01*
X1126280Y197870D02*
Y217870D01*
X125890Y503980D02*
X145890D01*
X125890Y484080D02*
X145890D01*
X125730Y393700D02*
Y408940D01*
X118110Y401320D02*
X125730Y393700D01*
Y388520D02*
Y393700D01*
Y408940D02*
Y414120D01*
X118110Y401320D02*
X125730Y408940D01*
X118110Y388620D02*
Y414020D01*
X104080Y388520D02*
X147380D01*
X104080Y414120D02*
X147380D01*
Y412020D02*
Y414120D01*
Y388520D02*
Y390620D01*
X104080Y412020D02*
Y414120D01*
Y388520D02*
Y390620D01*
X553510Y226220D02*
Y246220D01*
X533610Y226220D02*
Y246220D01*
X705910Y224540D02*
Y244540D01*
X686010Y224540D02*
Y244540D01*
X523030Y965360D02*
Y985360D01*
X503130Y965360D02*
Y985360D01*
X772370Y524260D02*
Y544260D01*
X792270Y524260D02*
Y544260D01*
X769830Y382430D02*
Y402430D01*
X789730Y382430D02*
Y402430D01*
X1054040Y535840D02*
X1097340D01*
X1054040Y561440D02*
X1097340D01*
Y559340D02*
Y561440D01*
Y535840D02*
Y537940D01*
X1054040Y559340D02*
Y561440D01*
Y535840D02*
Y537940D01*
Y435710D02*
X1097340D01*
X1054040Y410110D02*
X1097340D01*
X1054040D02*
Y412210D01*
Y433610D02*
Y435710D01*
X1097340Y410110D02*
Y412210D01*
Y433610D02*
Y435710D01*
X872610Y474300D02*
Y490900D01*
X887610Y474300D02*
Y490900D01*
X1113900Y529675D02*
X1159400D01*
X1113900Y491405D02*
X1159400D01*
X1113900Y440605D02*
X1159400D01*
X1113900Y478875D02*
X1159400D01*
X445800Y2870D02*
Y122870D01*
X263800Y2870D02*
X445800D01*
X263800D02*
Y122870D01*
X445800D01*
X236580Y2870D02*
Y122870D01*
X54580Y2870D02*
X236580D01*
X54580D02*
Y122870D01*
X236580D01*
X1095120Y705720D02*
X1153220D01*
X1183620D02*
X1307820D01*
X1095120Y864520D02*
X1153220D01*
X1183620D02*
X1307820D01*
X1095120Y705720D02*
Y864520D01*
X1307820Y705720D02*
Y864520D01*
X1175070Y552480D02*
X1295070D01*
Y370480D02*
Y552480D01*
X1175070Y370480D02*
X1295070D01*
X1175070D02*
Y552480D01*
X433600Y178320D02*
Y370320D01*
X277600Y178320D02*
X433600D01*
X277600D02*
Y370320D01*
X433600D01*
X84560D02*
X240560D01*
X84560Y178320D02*
Y370320D01*
Y178320D02*
X240560D01*
Y370320D01*
X384660Y389260D02*
X391510D01*
X384660Y410010D02*
Y418460D01*
Y389260D02*
Y397710D01*
Y418460D02*
X391510D01*
X189090Y417800D02*
X195940D01*
X189090Y388600D02*
Y397050D01*
Y409350D02*
Y417800D01*
Y388600D02*
X195940D01*
X414710Y481430D02*
X420310D01*
X414710Y493930D02*
X420310D01*
X333750Y525680D02*
X339350D01*
X333750Y513180D02*
X339350D01*
X584100Y850640D02*
Y856240D01*
X571600Y850640D02*
Y856240D01*
X340260Y630930D02*
Y636530D01*
X327760Y630930D02*
Y636530D01*
X414710Y430630D02*
X420310D01*
X414710Y443130D02*
X420310D01*
X414710Y456030D02*
X420310D01*
X414710Y468530D02*
X420310D01*
X613310Y850640D02*
Y856240D01*
X600810Y850640D02*
Y856240D01*
X284380Y799840D02*
Y805440D01*
X271880Y799840D02*
Y805440D01*
X211830Y482700D02*
X217430D01*
X211830Y495200D02*
X217430D01*
X130550Y521870D02*
X136150D01*
X130550Y509370D02*
X136150D01*
X316130Y630610D02*
Y636210D01*
X303630Y630610D02*
Y636210D01*
X211830Y444400D02*
X217430D01*
X211830Y431900D02*
X217430D01*
X211830Y468530D02*
X217430D01*
X211830Y456030D02*
X217430D01*
X500480Y837940D02*
Y843540D01*
X512980Y837940D02*
Y843540D01*
X513180Y236280D02*
Y241880D01*
X525680Y236280D02*
Y241880D01*
X572670Y235960D02*
Y241560D01*
X560170Y235960D02*
Y241560D01*
X491824Y236194D02*
Y241794D01*
X504324Y236194D02*
Y241794D01*
X503020Y111180D02*
Y116780D01*
X515520Y111180D02*
Y116780D01*
X678080Y235960D02*
Y241560D01*
X665580Y235960D02*
Y241560D01*
X712570Y235010D02*
Y240610D01*
X725070Y235010D02*
Y240610D01*
X656490Y236280D02*
Y241880D01*
X643990Y236280D02*
Y241880D01*
X669190Y111500D02*
Y117100D01*
X656690Y111500D02*
Y117100D01*
X482700Y970020D02*
Y975620D01*
X495200Y970020D02*
Y975620D01*
X738224Y938082D02*
Y943682D01*
X750724Y938082D02*
Y943682D01*
X771044Y938082D02*
Y943682D01*
X758544Y938082D02*
Y943682D01*
X791364Y938082D02*
Y943682D01*
X778864Y938082D02*
Y943682D01*
X1187550Y111180D02*
Y116780D01*
X1200050Y111180D02*
Y116780D01*
X976878Y870558D02*
X982478D01*
X976878Y883058D02*
X982478D01*
X976878Y801978D02*
X982478D01*
X976878Y814478D02*
X982478D01*
X1121470Y913230D02*
X1127070D01*
X1121470Y925730D02*
X1127070D01*
X976878Y850238D02*
X982478D01*
X976878Y862738D02*
X982478D01*
X964084Y939032D02*
Y944632D01*
X951584Y939032D02*
Y944632D01*
X976878Y834798D02*
X982478D01*
X976878Y822298D02*
X982478D01*
X943764Y939032D02*
Y944632D01*
X931264Y939032D02*
Y944632D01*
X923444Y939032D02*
Y944632D01*
X910944Y939032D02*
Y944632D01*
X976878Y775616D02*
X982478D01*
X976878Y763116D02*
X982478D01*
X976878Y794412D02*
X982478D01*
X976878Y781912D02*
X982478D01*
X976878Y752502D02*
X982478D01*
X976878Y740002D02*
X982478D01*
X814224Y939032D02*
Y944632D01*
X801724Y939032D02*
Y944632D01*
X834544Y939032D02*
Y944632D01*
X822044Y939032D02*
Y944632D01*
X1024122Y758290D02*
X1029722D01*
X1024122Y770790D02*
X1029722D01*
X1025072Y786230D02*
X1030672D01*
X1025072Y798730D02*
X1030672D01*
X854864Y939032D02*
Y944632D01*
X842364Y939032D02*
Y944632D01*
X875184Y939032D02*
Y944632D01*
X862684Y939032D02*
Y944632D01*
X895504Y939032D02*
Y944632D01*
X883004Y939032D02*
Y944632D01*
X1122420Y646530D02*
X1128020D01*
X1122420Y659030D02*
X1128020D01*
X718720Y786632D02*
Y792232D01*
X706220Y786632D02*
Y792232D01*
X1122420Y681890D02*
X1128020D01*
X1122420Y669390D02*
X1128020D01*
X815240Y530920D02*
Y536520D01*
X802740Y530920D02*
Y536520D01*
X811430Y393440D02*
Y399040D01*
X798930Y393440D02*
Y399040D01*
X988160Y511550D02*
Y517150D01*
X1000660Y511550D02*
Y517150D01*
X734160Y486470D02*
Y492070D01*
X746660Y486470D02*
Y492070D01*
X858420Y483930D02*
Y489530D01*
X845920Y483930D02*
Y489530D01*
X1000660Y446780D02*
Y452380D01*
X988160Y446780D02*
Y452380D01*
X466670Y558080D02*
Y568080D01*
Y558080D02*
X527670D01*
Y568080D01*
X466670Y585080D02*
Y595080D01*
X527670D01*
Y585080D02*
Y595080D01*
X296200Y430260D02*
X364200D01*
X296200Y479060D02*
X364200D01*
X93000Y430260D02*
X161000D01*
X93000Y479060D02*
X161000D01*
X531712Y790664D02*
X539712D01*
Y782664D02*
Y790664D01*
Y690664D02*
Y698664D01*
X531712Y690664D02*
X539712D01*
X439712D02*
X447712D01*
X439712D02*
Y698664D01*
Y782664D02*
Y790664D01*
X447712D01*
X498130Y209820D02*
X566130D01*
X498130Y161020D02*
X566130D01*
X647990Y209820D02*
X715990D01*
X647990Y161020D02*
X715990D01*
X1011200Y52590D02*
Y117590D01*
X1046200D01*
Y52590D02*
Y117590D01*
X1011200Y52590D02*
X1046200D01*
X945120Y69430D02*
Y80430D01*
X975120Y69430D02*
Y80430D01*
X814280Y207170D02*
Y227170D01*
X834180Y207170D02*
Y227170D01*
X888790Y70010D02*
Y90010D01*
X868890Y70010D02*
Y90010D01*
X908690Y219150D02*
Y250750D01*
X988690Y219150D02*
Y250750D01*
X260250Y799840D02*
Y805440D01*
X247750Y799840D02*
Y805440D01*
X1013360Y208020D02*
Y213620D01*
X1000860Y208020D02*
Y213620D01*
X1070710Y208020D02*
Y213620D01*
X1083210Y208020D02*
Y213620D01*
X1047850Y208020D02*
Y213620D01*
X1060350Y208020D02*
Y213620D01*
X1023720Y208020D02*
Y213620D01*
X1036220Y208020D02*
Y213620D01*
X1134210Y207070D02*
Y212670D01*
X1146710Y207070D02*
Y212670D01*
X854610Y214370D02*
Y219970D01*
X842110Y214370D02*
Y219970D01*
X896720Y78480D02*
Y84080D01*
X909220Y78480D02*
Y84080D01*
X1021940Y253620D02*
Y269620D01*
X1053240Y253620D02*
Y269620D01*
X613360Y955980D02*
Y959480D01*
X575360D02*
X613360D01*
X575360Y955980D02*
Y959480D01*
Y900980D02*
Y937980D01*
X613360Y900980D02*
Y937980D01*
X575360Y879480D02*
Y882980D01*
Y879480D02*
X613360D01*
Y882980D01*
X807874Y694430D02*
Y700030D01*
X795374Y694430D02*
Y700030D01*
D12*
X318090Y497840D02*
G03*
X318090Y497840I-1000J0D01*
G01*
X1117330Y229870D02*
G03*
X1117330Y229870I-1000J0D01*
G01*
X114890Y494030D02*
G03*
X114890Y494030I-1000J0D01*
G01*
X544560Y258220D02*
G03*
X544560Y258220I-1000J0D01*
G01*
X696960Y256540D02*
G03*
X696960Y256540I-1000J0D01*
G01*
X514080Y953360D02*
G03*
X514080Y953360I-1000J0D01*
G01*
X783320Y512260D02*
G03*
X783320Y512260I-1000J0D01*
G01*
X780780Y414430D02*
G03*
X780780Y414430I-1000J0D01*
G01*
X825230Y195170D02*
G03*
X825230Y195170I-1000J0D01*
G01*
X879840Y102010D02*
G03*
X879840Y102010I-1000J0D01*
G01*
D13*
X62370Y180340D02*
G03*
X62370Y180340I-23000J0D01*
G01*
X62281Y979094D02*
G03*
X62281Y979094I-23000J0D01*
G01*
X1280300Y982980D02*
G03*
X1280300Y982980I-23000J0D01*
G01*
X754520Y579120D02*
G03*
X754520Y579120I-23000J0D01*
G01*
X899160Y454660D02*
G03*
X899160Y454660I-1270J0D01*
G01*
X1282100Y54610D02*
G03*
X1282100Y54610I-37500J0D01*
G01*
X580390Y284920D02*
X589870D01*
X580390Y554920D02*
X589870D01*
X585130Y559660D02*
Y550180D01*
X322580Y939496D02*
X330844D01*
X326712D01*
Y927100D01*
X334976Y939496D02*
X343240Y927100D01*
Y939496D02*
X334976Y927100D01*
X274964Y939496D02*
X266700D01*
Y933298D01*
X270832Y935364D01*
X272898D01*
X274964Y933298D01*
Y929166D01*
X272898Y927100D01*
X268766D01*
X266700Y929166D01*
X279096Y939496D02*
Y931232D01*
X283228Y927100D01*
X287360Y931232D01*
Y939496D01*
X234324Y937430D02*
X232258Y939496D01*
X228126D01*
X226060Y937430D01*
Y929166D01*
X228126Y927100D01*
X232258D01*
X234324Y929166D01*
Y933298D01*
X230192D01*
X238456Y927100D02*
Y939496D01*
X246720Y927100D01*
Y939496D01*
X250852D02*
Y927100D01*
X257050D01*
X259116Y929166D01*
Y937430D01*
X257050Y939496D01*
X250852D01*
X294640Y927100D02*
Y939496D01*
X300838D01*
X302904Y937430D01*
Y933298D01*
X300838Y931232D01*
X294640D01*
X298772D02*
X302904Y927100D01*
X307036Y939496D02*
X315300Y927100D01*
Y939496D02*
X307036Y927100D01*
X160020D02*
Y939496D01*
X166218D01*
X168284Y937430D01*
Y933298D01*
X166218Y931232D01*
X160020D01*
X164152D02*
X168284Y927100D01*
X172416Y939496D02*
X180680Y927100D01*
Y939496D02*
X172416Y927100D01*
X1179830Y168910D02*
X1184908D01*
X1182369D01*
Y184145D01*
X1179830Y181606D01*
X1202683Y168910D02*
X1192526D01*
X1202683Y179067D01*
Y181606D01*
X1200143Y184145D01*
X1195065D01*
X1192526Y181606D01*
X1207761Y184145D02*
Y173988D01*
X1212839Y168910D01*
X1217918Y173988D01*
Y184145D01*
X1238231Y168910D02*
Y184145D01*
X1245849D01*
X1248388Y181606D01*
Y176528D01*
X1245849Y173988D01*
X1238231D01*
X1253466Y184145D02*
Y168910D01*
X1258544Y173988D01*
X1263623Y168910D01*
Y184145D01*
X1268701Y168910D02*
Y184145D01*
X1276319D01*
X1278858Y181606D01*
Y176528D01*
X1276319Y173988D01*
X1268701D01*
X1273780D02*
X1278858Y168910D01*
X1226820Y581660D02*
Y594056D01*
X1233018D01*
X1235084Y591990D01*
Y587858D01*
X1233018Y585792D01*
X1226820D01*
X1230952D02*
X1235084Y581660D01*
X1247480Y591990D02*
X1245414Y594056D01*
X1241282D01*
X1239216Y591990D01*
Y589924D01*
X1241282Y587858D01*
X1245414D01*
X1247480Y585792D01*
Y583726D01*
X1245414Y581660D01*
X1241282D01*
X1239216Y583726D01*
X1257810Y581660D02*
Y594056D01*
X1251612Y587858D01*
X1259876D01*
X1264008Y591990D02*
X1266074Y594056D01*
X1270206D01*
X1272272Y591990D01*
Y589924D01*
X1270206Y587858D01*
X1272272Y585792D01*
Y583726D01*
X1270206Y581660D01*
X1266074D01*
X1264008Y583726D01*
Y585792D01*
X1266074Y587858D01*
X1264008Y589924D01*
Y591990D01*
X1266074Y587858D02*
X1270206D01*
X1284668Y594056D02*
X1276404D01*
Y587858D01*
X1280536Y589924D01*
X1282602D01*
X1284668Y587858D01*
Y583726D01*
X1282602Y581660D01*
X1278470D01*
X1276404Y583726D01*
X457030Y141614D02*
X454964Y139548D01*
Y135416D01*
X457030Y133350D01*
X465294D01*
X467360Y135416D01*
Y139548D01*
X465294Y141614D01*
X461162D01*
Y137482D01*
X467360Y145746D02*
X454964D01*
X467360Y154010D01*
X454964D01*
Y158142D02*
X467360D01*
Y164340D01*
X465294Y166406D01*
X457030D01*
X454964Y164340D01*
Y158142D01*
X73660Y676910D02*
Y689306D01*
X79858D01*
X81924Y687240D01*
Y683108D01*
X79858Y681042D01*
X73660D01*
X86056Y689306D02*
Y676910D01*
X92254D01*
X94320Y678976D01*
Y681042D01*
X92254Y683108D01*
X86056D01*
X92254D01*
X94320Y685174D01*
Y687240D01*
X92254Y689306D01*
X86056D01*
X98452Y676910D02*
X102584D01*
X100518D01*
Y689306D01*
X98452Y687240D01*
X108782D02*
X110848Y689306D01*
X114980D01*
X117046Y687240D01*
Y685174D01*
X114980Y683108D01*
X112914D01*
X114980D01*
X117046Y681042D01*
Y678976D01*
X114980Y676910D01*
X110848D01*
X108782Y678976D01*
X73660Y652780D02*
Y665176D01*
X79858D01*
X81924Y663110D01*
Y658978D01*
X79858Y656912D01*
X73660D01*
X86056Y665176D02*
Y652780D01*
X92254D01*
X94320Y654846D01*
Y656912D01*
X92254Y658978D01*
X86056D01*
X92254D01*
X94320Y661044D01*
Y663110D01*
X92254Y665176D01*
X86056D01*
X98452Y652780D02*
X102584D01*
X100518D01*
Y665176D01*
X98452Y663110D01*
X117046Y652780D02*
X108782D01*
X117046Y661044D01*
Y663110D01*
X114980Y665176D01*
X110848D01*
X108782Y663110D01*
X579120Y140970D02*
Y153366D01*
X585318D01*
X587384Y151300D01*
Y147168D01*
X585318Y145102D01*
X579120D01*
X599780Y151300D02*
X597714Y153366D01*
X593582D01*
X591516Y151300D01*
Y143036D01*
X593582Y140970D01*
X597714D01*
X599780Y143036D01*
X603912Y140970D02*
X608044D01*
X605978D01*
Y153366D01*
X603912Y151300D01*
X614242D02*
X616308Y153366D01*
X620440D01*
X622506Y151300D01*
Y143036D01*
X620440Y140970D01*
X616308D01*
X614242Y143036D01*
Y151300D01*
X92084Y937430D02*
X90018Y939496D01*
X85886D01*
X83820Y937430D01*
Y929166D01*
X85886Y927100D01*
X90018D01*
X92084Y929166D01*
Y933298D01*
X87952D01*
X96216Y927100D02*
Y939496D01*
X104480Y927100D01*
Y939496D01*
X108612D02*
Y927100D01*
X114810D01*
X116876Y929166D01*
Y937430D01*
X114810Y939496D01*
X108612D01*
X74930Y777240D02*
Y789636D01*
X81128D01*
X83194Y787570D01*
Y783438D01*
X81128Y781372D01*
X74930D01*
X95590Y787570D02*
X93524Y789636D01*
X89392D01*
X87326Y787570D01*
Y779306D01*
X89392Y777240D01*
X93524D01*
X95590Y779306D01*
X107986Y789636D02*
X99722D01*
Y783438D01*
X103854Y785504D01*
X105920D01*
X107986Y783438D01*
Y779306D01*
X105920Y777240D01*
X101788D01*
X99722Y779306D01*
X73660Y751840D02*
Y764236D01*
X79858D01*
X81924Y762170D01*
Y758038D01*
X79858Y755972D01*
X73660D01*
X94320Y762170D02*
X92254Y764236D01*
X88122D01*
X86056Y762170D01*
Y753906D01*
X88122Y751840D01*
X92254D01*
X94320Y753906D01*
X104650Y751840D02*
Y764236D01*
X98452Y758038D01*
X106716D01*
X140344Y939496D02*
X132080D01*
Y933298D01*
X136212Y935364D01*
X138278D01*
X140344Y933298D01*
Y929166D01*
X138278Y927100D01*
X134146D01*
X132080Y929166D01*
X144476Y939496D02*
Y931232D01*
X148608Y927100D01*
X152740Y931232D01*
Y939496D01*
X189230D02*
X197494D01*
X193362D01*
Y927100D01*
X201626Y939496D02*
X209890Y927100D01*
Y939496D02*
X201626Y927100D01*
X73660Y722630D02*
Y735026D01*
X79858D01*
X81924Y732960D01*
Y728828D01*
X79858Y726762D01*
X73660D01*
X86056Y735026D02*
Y722630D01*
X92254D01*
X94320Y724696D01*
Y726762D01*
X92254Y728828D01*
X86056D01*
X92254D01*
X94320Y730894D01*
Y732960D01*
X92254Y735026D01*
X86056D01*
X98452Y722630D02*
X102584D01*
X100518D01*
Y735026D01*
X98452Y732960D01*
X117046Y735026D02*
X108782D01*
Y728828D01*
X112914Y730894D01*
X114980D01*
X117046Y728828D01*
Y724696D01*
X114980Y722630D01*
X110848D01*
X108782Y724696D01*
X73660Y701040D02*
Y713436D01*
X79858D01*
X81924Y711370D01*
Y707238D01*
X79858Y705172D01*
X73660D01*
X86056Y713436D02*
Y701040D01*
X92254D01*
X94320Y703106D01*
Y705172D01*
X92254Y707238D01*
X86056D01*
X92254D01*
X94320Y709304D01*
Y711370D01*
X92254Y713436D01*
X86056D01*
X98452Y701040D02*
X102584D01*
X100518D01*
Y713436D01*
X98452Y711370D01*
X114980Y701040D02*
Y713436D01*
X108782Y707238D01*
X117046D01*
X379560Y903614D02*
X377494Y901548D01*
Y897416D01*
X379560Y895350D01*
X381626D01*
X383692Y897416D01*
Y901548D01*
X385758Y903614D01*
X387824D01*
X389890Y901548D01*
Y897416D01*
X387824Y895350D01*
X377494Y907746D02*
X389890D01*
X385758Y911878D01*
X389890Y916010D01*
X377494D01*
Y920142D02*
X389890D01*
Y926340D01*
X387824Y928406D01*
X379560D01*
X377494Y926340D01*
Y920142D01*
Y932538D02*
Y936670D01*
Y934604D01*
X389890D01*
Y932538D01*
Y936670D01*
X377494Y949066D02*
Y944934D01*
X379560Y942868D01*
X387824D01*
X389890Y944934D01*
Y949066D01*
X387824Y951132D01*
X379560D01*
X377494Y949066D01*
X429090Y895350D02*
X427024Y897416D01*
Y901548D01*
X429090Y903614D01*
X431156D01*
X433222Y901548D01*
Y899482D01*
Y901548D01*
X435288Y903614D01*
X437354D01*
X439420Y901548D01*
Y897416D01*
X437354Y895350D01*
X427024Y907746D02*
X435288D01*
X439420Y911878D01*
X435288Y916010D01*
X427024D01*
X429090Y920142D02*
X427024Y922208D01*
Y926340D01*
X429090Y928406D01*
X431156D01*
X433222Y926340D01*
Y924274D01*
Y926340D01*
X435288Y928406D01*
X437354D01*
X439420Y926340D01*
Y922208D01*
X437354Y920142D01*
X406230Y903614D02*
X404164Y901548D01*
Y897416D01*
X406230Y895350D01*
X408296D01*
X410362Y897416D01*
Y901548D01*
X412428Y903614D01*
X414494D01*
X416560Y901548D01*
Y897416D01*
X414494Y895350D01*
X404164Y907746D02*
X416560D01*
X412428Y911878D01*
X416560Y916010D01*
X404164D01*
X406230Y928406D02*
X404164Y926340D01*
Y922208D01*
X406230Y920142D01*
X408296D01*
X410362Y922208D01*
Y926340D01*
X412428Y928406D01*
X414494D01*
X416560Y926340D01*
Y922208D01*
X414494Y920142D01*
X406230Y940802D02*
X404164Y938736D01*
Y934604D01*
X406230Y932538D01*
X414494D01*
X416560Y934604D01*
Y938736D01*
X414494Y940802D01*
X404164Y944934D02*
X416560D01*
X412428D01*
X404164Y953198D01*
X410362Y947000D01*
X416560Y953198D01*
X450680Y903614D02*
X448614Y901548D01*
Y897416D01*
X450680Y895350D01*
X458944D01*
X461010Y897416D01*
Y901548D01*
X458944Y903614D01*
X454812D01*
Y899482D01*
X461010Y907746D02*
X448614D01*
X461010Y916010D01*
X448614D01*
Y920142D02*
X461010D01*
Y926340D01*
X458944Y928406D01*
X450680D01*
X448614Y926340D01*
Y920142D01*
X862330Y124456D02*
X864869Y126995D01*
X869948D01*
X872487Y124456D01*
Y121917D01*
X869948Y119377D01*
X867408D01*
X869948D01*
X872487Y116838D01*
Y114299D01*
X869948Y111760D01*
X864869D01*
X862330Y114299D01*
X877565Y126995D02*
Y116838D01*
X882643Y111760D01*
X887722Y116838D01*
Y126995D01*
X892800Y124456D02*
X895339Y126995D01*
X900418D01*
X902957Y124456D01*
Y121917D01*
X900418Y119377D01*
X897878D01*
X900418D01*
X902957Y116838D01*
Y114299D01*
X900418Y111760D01*
X895339D01*
X892800Y114299D01*
X829307Y260345D02*
X819150D01*
Y252728D01*
X824228Y255267D01*
X826768D01*
X829307Y252728D01*
Y247649D01*
X826768Y245110D01*
X821689D01*
X819150Y247649D01*
X834385Y260345D02*
Y250188D01*
X839463Y245110D01*
X844542Y250188D01*
Y260345D01*
X1153160Y535940D02*
Y544204D01*
X1157292Y548336D01*
X1161424Y544204D01*
Y535940D01*
Y542138D01*
X1153160D01*
Y432766D02*
Y420370D01*
X1159358D01*
X1161424Y422436D01*
Y424502D01*
X1159358Y426568D01*
X1153160D01*
X1159358D01*
X1161424Y428634D01*
Y430700D01*
X1159358Y432766D01*
X1153160D01*
X1207770Y196848D02*
X1217927D01*
X1212848Y201926D02*
Y191769D01*
X1223005Y204465D02*
Y194308D01*
X1228083Y189230D01*
X1233162Y194308D01*
Y204465D01*
X1207770Y345438D02*
X1217927D01*
X1223005Y353055D02*
Y342898D01*
X1228083Y337820D01*
X1233162Y342898D01*
Y353055D01*
X212090Y142240D02*
Y157475D01*
X222247Y142240D01*
Y157475D01*
X234943D02*
X229864D01*
X227325Y154936D01*
Y144779D01*
X229864Y142240D01*
X234943D01*
X237482Y144779D01*
Y154936D01*
X234943Y157475D01*
X157477Y154936D02*
X154937Y157475D01*
X149859D01*
X147320Y154936D01*
Y144779D01*
X149859Y142240D01*
X154937D01*
X157477Y144779D01*
X170173Y157475D02*
X165094D01*
X162555Y154936D01*
Y144779D01*
X165094Y142240D01*
X170173D01*
X172712Y144779D01*
Y154936D01*
X170173Y157475D01*
X177790Y142240D02*
Y157475D01*
X182868Y152397D01*
X187947Y157475D01*
Y142240D01*
X83820Y143510D02*
Y158745D01*
X93977Y143510D01*
Y158745D01*
X109212Y156206D02*
X106673Y158745D01*
X101594D01*
X99055Y156206D01*
Y146049D01*
X101594Y143510D01*
X106673D01*
X109212Y146049D01*
X285750Y148590D02*
Y163825D01*
X295907Y148590D01*
Y163825D01*
X311142Y161286D02*
X308603Y163825D01*
X303524D01*
X300985Y161286D01*
Y151129D01*
X303524Y148590D01*
X308603D01*
X311142Y151129D01*
X345437Y161286D02*
X342897Y163825D01*
X337819D01*
X335280Y161286D01*
Y151129D01*
X337819Y148590D01*
X342897D01*
X345437Y151129D01*
X358133Y163825D02*
X353054D01*
X350515Y161286D01*
Y151129D01*
X353054Y148590D01*
X358133D01*
X360672Y151129D01*
Y161286D01*
X358133Y163825D01*
X365750Y148590D02*
Y163825D01*
X370829Y158747D01*
X375907Y163825D01*
Y148590D01*
X401320D02*
Y163825D01*
X411477Y148590D01*
Y163825D01*
X424173D02*
X419094D01*
X416555Y161286D01*
Y151129D01*
X419094Y148590D01*
X424173D01*
X426712Y151129D01*
Y161286D01*
X424173Y163825D01*
X748031Y52067D02*
X742952D01*
X745492D01*
Y39372D01*
X742952Y36832D01*
X740413D01*
X737874Y39372D01*
X753109Y52067D02*
X763266D01*
Y49528D01*
X753109Y39372D01*
Y36832D01*
X593091Y49528D02*
X588013D01*
X590552D01*
Y36832D01*
X588013Y34293D01*
X585473D01*
X582934Y36832D01*
X605787Y34293D02*
Y49528D01*
X598169Y41910D01*
X608326D01*
X748027Y95257D02*
X732793D01*
Y102874D01*
X735332Y105413D01*
X740410D01*
X742949Y102874D01*
Y95257D01*
Y100335D02*
X748027Y105413D01*
X732793Y120648D02*
X735332Y115570D01*
X740410Y110492D01*
X745488D01*
X748027Y113031D01*
Y118109D01*
X745488Y120648D01*
X742949D01*
X740410Y118109D01*
Y110492D01*
X735332Y125727D02*
X732793Y128266D01*
Y133344D01*
X735332Y135883D01*
X737871D01*
X740410Y133344D01*
X742949Y135883D01*
X745488D01*
X748027Y133344D01*
Y128266D01*
X745488Y125727D01*
X742949D01*
X740410Y128266D01*
X737871Y125727D01*
X735332D01*
X740410Y128266D02*
Y133344D01*
X516897Y64773D02*
Y80007D01*
X524514D01*
X527053Y77468D01*
Y72390D01*
X524514Y69851D01*
X516897D01*
X521975D02*
X527053Y64773D01*
X542288Y80007D02*
X537210Y77468D01*
X532132Y72390D01*
Y67312D01*
X534671Y64773D01*
X539749D01*
X542288Y67312D01*
Y69851D01*
X539749Y72390D01*
X532132D01*
X557523Y80007D02*
X547367D01*
Y72390D01*
X552445Y74929D01*
X554984D01*
X557523Y72390D01*
Y67312D01*
X554984Y64773D01*
X549906D01*
X547367Y67312D01*
X670567Y66042D02*
Y81278D01*
X678184D01*
X680723Y78738D01*
Y73660D01*
X678184Y71121D01*
X670567D01*
X675645D02*
X680723Y66042D01*
X695958Y81278D02*
X690880Y78738D01*
X685802Y73660D01*
Y68582D01*
X688341Y66042D01*
X693419D01*
X695958Y68582D01*
Y71121D01*
X693419Y73660D01*
X685802D01*
X701037Y81278D02*
X711193D01*
Y78738D01*
X701037Y68582D01*
Y66042D01*
X595628Y91447D02*
X580392D01*
Y99064D01*
X582932Y101603D01*
X588010D01*
X590549Y99064D01*
Y91447D01*
Y96525D02*
X595628Y101603D01*
X580392Y116838D02*
X582932Y111760D01*
X588010Y106682D01*
X593088D01*
X595628Y109221D01*
Y114299D01*
X593088Y116838D01*
X590549D01*
X588010Y114299D01*
Y106682D01*
X580392Y132073D02*
X582932Y126995D01*
X588010Y121917D01*
X593088D01*
X595628Y124456D01*
Y129534D01*
X593088Y132073D01*
X590549D01*
X588010Y129534D01*
Y121917D01*
X43177Y574046D02*
X27942D01*
Y581663D01*
X30482Y584202D01*
X35560D01*
X38099Y581663D01*
Y574046D01*
X30482Y599437D02*
X27942Y596898D01*
Y591820D01*
X30482Y589281D01*
X33021D01*
X35560Y591820D01*
Y596898D01*
X38099Y599437D01*
X40638D01*
X43177Y596898D01*
Y591820D01*
X40638Y589281D01*
X43177Y604516D02*
Y609594D01*
Y607055D01*
X27942D01*
X30482Y604516D01*
X29212Y505463D02*
X26672Y502924D01*
Y497846D01*
X29212Y495307D01*
X39368D01*
X41908Y497846D01*
Y502924D01*
X39368Y505463D01*
X26672Y520698D02*
Y510542D01*
X34290D01*
X31751Y515620D01*
Y518159D01*
X34290Y520698D01*
X39368D01*
X41908Y518159D01*
Y513081D01*
X39368Y510542D01*
X29212Y525777D02*
X26672Y528316D01*
Y533394D01*
X29212Y535933D01*
X31751D01*
X34290Y533394D01*
Y530855D01*
Y533394D01*
X36829Y535933D01*
X39368D01*
X41908Y533394D01*
Y528316D01*
X39368Y525777D01*
X209553Y683258D02*
X207014Y685798D01*
X201936D01*
X199397Y683258D01*
Y673102D01*
X201936Y670563D01*
X207014D01*
X209553Y673102D01*
X224788Y685798D02*
X214632D01*
Y678180D01*
X219710Y680719D01*
X222249D01*
X224788Y678180D01*
Y673102D01*
X222249Y670563D01*
X217171D01*
X214632Y673102D01*
X237484Y670563D02*
Y685798D01*
X229867Y678180D01*
X240023D01*
X113033Y560068D02*
X110494Y562607D01*
X105416D01*
X102877Y560068D01*
Y549912D01*
X105416Y547373D01*
X110494D01*
X113033Y549912D01*
X128268Y562607D02*
X118112D01*
Y554990D01*
X123190Y557529D01*
X125729D01*
X128268Y554990D01*
Y549912D01*
X125729Y547373D01*
X120651D01*
X118112Y549912D01*
X143503Y562607D02*
X133347D01*
Y554990D01*
X138425Y557529D01*
X140964D01*
X143503Y554990D01*
Y549912D01*
X140964Y547373D01*
X135886D01*
X133347Y549912D01*
X789947Y723903D02*
Y739137D01*
X797564D01*
X800103Y736598D01*
Y731520D01*
X797564Y728981D01*
X789947D01*
X795025D02*
X800103Y723903D01*
X805182Y736598D02*
X807721Y739137D01*
X812799D01*
X815338Y736598D01*
Y734059D01*
X812799Y731520D01*
X810260D01*
X812799D01*
X815338Y728981D01*
Y726442D01*
X812799Y723903D01*
X807721D01*
X805182Y726442D01*
X820417D02*
X822956Y723903D01*
X828034D01*
X830573Y726442D01*
Y736598D01*
X828034Y739137D01*
X822956D01*
X820417Y736598D01*
Y734059D01*
X822956Y731520D01*
X830573D01*
X1229363Y115568D02*
X1219206D01*
Y100332D01*
X1229363D01*
X1219206Y107950D02*
X1224285D01*
X1234442Y115568D02*
X1244598D01*
X1239520D01*
Y100332D01*
X1249677Y115568D02*
Y100332D01*
Y107950D01*
X1259833D01*
Y115568D01*
Y100332D01*
X924564Y745488D02*
Y732792D01*
X927103Y730253D01*
X932182D01*
X934721Y732792D01*
Y745488D01*
X949956D02*
X944877Y742948D01*
X939799Y737870D01*
Y732792D01*
X942338Y730253D01*
X947417D01*
X949956Y732792D01*
Y735331D01*
X947417Y737870D01*
X939799D01*
X584204Y982978D02*
Y980438D01*
X589282Y975360D01*
X594361Y980438D01*
Y982978D01*
X589282Y975360D02*
Y967742D01*
X599439Y980438D02*
X601978Y982978D01*
X607057D01*
X609596Y980438D01*
Y977899D01*
X607057Y975360D01*
X604518D01*
X607057D01*
X609596Y972821D01*
Y970282D01*
X607057Y967742D01*
X601978D01*
X599439Y970282D01*
X1032513Y288296D02*
X1045208D01*
X1047747Y290835D01*
Y295914D01*
X1045208Y298453D01*
X1032513D01*
X1047747Y303531D02*
Y308610D01*
Y306070D01*
X1032513D01*
X1035052Y303531D01*
Y316227D02*
X1032513Y318766D01*
Y323845D01*
X1035052Y326384D01*
X1045208D01*
X1047747Y323845D01*
Y318766D01*
X1045208Y316227D01*
X1035052D01*
X156214Y857247D02*
Y844552D01*
X158753Y842012D01*
X163832D01*
X166371Y844552D01*
Y857247D01*
X171449Y844552D02*
X173988Y842012D01*
X179067D01*
X181606Y844552D01*
Y854708D01*
X179067Y857247D01*
X173988D01*
X171449Y854708D01*
Y852169D01*
X173988Y849630D01*
X181606D01*
X910587Y16517D02*
X895352D01*
Y24134D01*
X897892Y26673D01*
X902970D01*
X905509Y24134D01*
Y16517D01*
Y21595D02*
X910587Y26673D01*
X895352Y41908D02*
X897892Y36830D01*
X902970Y31752D01*
X908048D01*
X910587Y34291D01*
Y39369D01*
X908048Y41908D01*
X905509D01*
X902970Y39369D01*
Y31752D01*
X910587Y54604D02*
X895352D01*
X902970Y46987D01*
Y57143D01*
X814077Y175263D02*
Y190497D01*
X821694D01*
X824233Y187958D01*
Y182880D01*
X821694Y180341D01*
X814077D01*
X819155D02*
X824233Y175263D01*
X839468Y190497D02*
X834390Y187958D01*
X829312Y182880D01*
Y177802D01*
X831851Y175263D01*
X836929D01*
X839468Y177802D01*
Y180341D01*
X836929Y182880D01*
X829312D01*
X844547Y187958D02*
X847086Y190497D01*
X852164D01*
X854703Y187958D01*
Y185419D01*
X852164Y182880D01*
X849625D01*
X852164D01*
X854703Y180341D01*
Y177802D01*
X852164Y175263D01*
X847086D01*
X844547Y177802D01*
X1146807Y144787D02*
X1131572D01*
Y152404D01*
X1134112Y154943D01*
X1139190D01*
X1141729Y152404D01*
Y144787D01*
Y149865D02*
X1146807Y154943D01*
X1131572Y170178D02*
X1134112Y165100D01*
X1139190Y160022D01*
X1144268D01*
X1146807Y162561D01*
Y167639D01*
X1144268Y170178D01*
X1141729D01*
X1139190Y167639D01*
Y160022D01*
X1146807Y185413D02*
Y175257D01*
X1136651Y185413D01*
X1134112D01*
X1131572Y182874D01*
Y177796D01*
X1134112Y175257D01*
X1037588Y147326D02*
X1022353D01*
Y154943D01*
X1024892Y157483D01*
X1029970D01*
X1032509Y154943D01*
Y147326D01*
Y152404D02*
X1037588Y157483D01*
X1022353Y172718D02*
X1024892Y167639D01*
X1029970Y162561D01*
X1035048D01*
X1037588Y165100D01*
Y170178D01*
X1035048Y172718D01*
X1032509D01*
X1029970Y170178D01*
Y162561D01*
X1037588Y177796D02*
Y182874D01*
Y180335D01*
X1022353D01*
X1024892Y177796D01*
X1062988Y146057D02*
X1047752D01*
Y153674D01*
X1050292Y156213D01*
X1055370D01*
X1057909Y153674D01*
Y146057D01*
Y151135D02*
X1062988Y156213D01*
X1047752Y171448D02*
X1050292Y166370D01*
X1055370Y161292D01*
X1060448D01*
X1062988Y163831D01*
Y168909D01*
X1060448Y171448D01*
X1057909D01*
X1055370Y168909D01*
Y161292D01*
X1050292Y176527D02*
X1047752Y179066D01*
Y184144D01*
X1050292Y186683D01*
X1060448D01*
X1062988Y184144D01*
Y179066D01*
X1060448Y176527D01*
X1050292D01*
X1085847Y146057D02*
X1070612D01*
Y153674D01*
X1073152Y156213D01*
X1078230D01*
X1080769Y153674D01*
Y146057D01*
Y151135D02*
X1085847Y156213D01*
X1070612Y171448D02*
Y161292D01*
X1078230D01*
X1075691Y166370D01*
Y168909D01*
X1078230Y171448D01*
X1083308D01*
X1085847Y168909D01*
Y163831D01*
X1083308Y161292D01*
Y176527D02*
X1085847Y179066D01*
Y184144D01*
X1083308Y186683D01*
X1073152D01*
X1070612Y184144D01*
Y179066D01*
X1073152Y176527D01*
X1075691D01*
X1078230Y179066D01*
Y186683D01*
X1014727Y147327D02*
X999492D01*
Y154944D01*
X1002032Y157483D01*
X1007110D01*
X1009649Y154944D01*
Y147327D01*
Y152405D02*
X1014727Y157483D01*
X999492Y172718D02*
Y162562D01*
X1007110D01*
X1004571Y167640D01*
Y170179D01*
X1007110Y172718D01*
X1012188D01*
X1014727Y170179D01*
Y165101D01*
X1012188Y162562D01*
X1002032Y177797D02*
X999492Y180336D01*
Y185414D01*
X1002032Y187953D01*
X1004571D01*
X1007110Y185414D01*
X1009649Y187953D01*
X1012188D01*
X1014727Y185414D01*
Y180336D01*
X1012188Y177797D01*
X1009649D01*
X1007110Y180336D01*
X1004571Y177797D01*
X1002032D01*
X1007110Y180336D02*
Y185414D01*
X245117Y839473D02*
Y854707D01*
X252734D01*
X255273Y852168D01*
Y847090D01*
X252734Y844551D01*
X245117D01*
X250195D02*
X255273Y839473D01*
X270508Y854707D02*
X260352D01*
Y847090D01*
X265430Y849629D01*
X267969D01*
X270508Y847090D01*
Y842012D01*
X267969Y839473D01*
X262891D01*
X260352Y842012D01*
X275587Y854707D02*
X285743D01*
Y852168D01*
X275587Y842012D01*
Y839473D01*
X920753Y298447D02*
Y283213D01*
X930910D01*
X935988D02*
X941067D01*
X938528D01*
Y298447D01*
X935988Y295908D01*
X1259843Y354328D02*
X1254764D01*
X1257304D01*
Y341632D01*
X1254764Y339092D01*
X1252225D01*
X1249686Y341632D01*
X1264921Y339092D02*
X1270000D01*
X1267460D01*
Y354328D01*
X1264921Y351788D01*
X1287774Y339092D02*
X1277617D01*
X1287774Y349249D01*
Y351788D01*
X1285235Y354328D01*
X1280156D01*
X1277617Y351788D01*
X825506Y87627D02*
Y72393D01*
X833124D01*
X835663Y74932D01*
Y85088D01*
X833124Y87627D01*
X825506D01*
X840741Y72393D02*
X845820D01*
X843280D01*
Y87627D01*
X840741Y85088D01*
X853437D02*
X855976Y87627D01*
X861055D01*
X863594Y85088D01*
Y82549D01*
X861055Y80010D01*
X863594Y77471D01*
Y74932D01*
X861055Y72393D01*
X855976D01*
X853437Y74932D01*
Y77471D01*
X855976Y80010D01*
X853437Y82549D01*
Y85088D01*
X855976Y80010D02*
X861055D01*
X812806Y163827D02*
Y148593D01*
X820424D01*
X822963Y151132D01*
Y161288D01*
X820424Y163827D01*
X812806D01*
X828041Y148593D02*
X833120D01*
X830580D01*
Y163827D01*
X828041Y161288D01*
X840737Y163827D02*
X850894D01*
Y161288D01*
X840737Y151132D01*
Y148593D01*
X922022Y26673D02*
X919482Y24134D01*
Y19056D01*
X922022Y16517D01*
X932178D01*
X934717Y19056D01*
Y24134D01*
X932178Y26673D01*
X919482Y41908D02*
Y31752D01*
X927100D01*
X924561Y36830D01*
Y39369D01*
X927100Y41908D01*
X932178D01*
X934717Y39369D01*
Y34291D01*
X932178Y31752D01*
X934717Y57143D02*
Y46987D01*
X924561Y57143D01*
X922022D01*
X919482Y54604D01*
Y49526D01*
X922022Y46987D01*
X955042Y41908D02*
X952503Y44447D01*
X947425D01*
X944886Y41908D01*
Y31752D01*
X947425Y29213D01*
X952503D01*
X955042Y31752D01*
X970278Y44447D02*
X960121D01*
Y36830D01*
X965199Y39369D01*
X967738D01*
X970278Y36830D01*
Y31752D01*
X967738Y29213D01*
X962660D01*
X960121Y31752D01*
X975356Y29213D02*
X980434D01*
X977895D01*
Y44447D01*
X975356Y41908D01*
X1033783Y138428D02*
X1031244Y140968D01*
X1026166D01*
X1023627Y138428D01*
Y128272D01*
X1026166Y125732D01*
X1031244D01*
X1033783Y128272D01*
X1049018Y140968D02*
X1038862D01*
Y133350D01*
X1043940Y135889D01*
X1046479D01*
X1049018Y133350D01*
Y128272D01*
X1046479Y125732D01*
X1041401D01*
X1038862Y128272D01*
X1054097Y138428D02*
X1056636Y140968D01*
X1061714D01*
X1064253Y138428D01*
Y128272D01*
X1061714Y125732D01*
X1056636D01*
X1054097Y128272D01*
Y138428D01*
X1112522Y297183D02*
X1109983Y294644D01*
Y289566D01*
X1112522Y287027D01*
X1122678D01*
X1125218Y289566D01*
Y294644D01*
X1122678Y297183D01*
X1125218Y309879D02*
X1109983D01*
X1117600Y302262D01*
Y312418D01*
X1122678Y317497D02*
X1125218Y320036D01*
Y325114D01*
X1122678Y327653D01*
X1112522D01*
X1109983Y325114D01*
Y320036D01*
X1112522Y317497D01*
X1115061D01*
X1117600Y320036D01*
Y327653D01*
X1066802Y295913D02*
X1064262Y293374D01*
Y288296D01*
X1066802Y285757D01*
X1076958D01*
X1079498Y288296D01*
Y293374D01*
X1076958Y295913D01*
X1079498Y308609D02*
X1064262D01*
X1071880Y300992D01*
Y311148D01*
X1066802Y316227D02*
X1064262Y318766D01*
Y323844D01*
X1066802Y326383D01*
X1069341D01*
X1071880Y323844D01*
X1074419Y326383D01*
X1076958D01*
X1079498Y323844D01*
Y318766D01*
X1076958Y316227D01*
X1074419D01*
X1071880Y318766D01*
X1069341Y316227D01*
X1066802D01*
X1071880Y318766D02*
Y323844D01*
X900432Y153673D02*
X897892Y151134D01*
Y146056D01*
X900432Y143517D01*
X910588D01*
X913128Y146056D01*
Y151134D01*
X910588Y153673D01*
X913128Y166369D02*
X897892D01*
X905510Y158752D01*
Y168908D01*
X897892Y173987D02*
Y184143D01*
X900432D01*
X910588Y173987D01*
X913128D01*
X920752Y153673D02*
X918212Y151134D01*
Y146056D01*
X920752Y143517D01*
X930908D01*
X933447Y146056D01*
Y151134D01*
X930908Y153673D01*
X933447Y166369D02*
X918212D01*
X925830Y158752D01*
Y168908D01*
X918212Y184143D02*
X920752Y179065D01*
X925830Y173987D01*
X930908D01*
X933447Y176526D01*
Y181604D01*
X930908Y184143D01*
X928369D01*
X925830Y181604D01*
Y173987D01*
X999492Y295913D02*
X996953Y293374D01*
Y288296D01*
X999492Y285757D01*
X1009648D01*
X1012188Y288296D01*
Y293374D01*
X1009648Y295913D01*
X1012188Y308609D02*
X996953D01*
X1004570Y300992D01*
Y311148D01*
X996953Y326383D02*
Y316227D01*
X1004570D01*
X1002031Y321305D01*
Y323844D01*
X1004570Y326383D01*
X1009648D01*
X1012188Y323844D01*
Y318766D01*
X1009648Y316227D01*
X1089662Y295913D02*
X1087122Y293374D01*
Y288296D01*
X1089662Y285757D01*
X1099818D01*
X1102357Y288296D01*
Y293374D01*
X1099818Y295913D01*
X1102357Y308609D02*
X1087122D01*
X1094740Y300992D01*
Y311148D01*
X1102357Y323844D02*
X1087122D01*
X1094740Y316227D01*
Y326383D01*
X205743Y852168D02*
X203204Y854707D01*
X198126D01*
X195587Y852168D01*
Y842012D01*
X198126Y839473D01*
X203204D01*
X205743Y842012D01*
X218439Y839473D02*
Y854707D01*
X210822Y847090D01*
X220978D01*
X226057Y852168D02*
X228596Y854707D01*
X233674D01*
X236213Y852168D01*
Y849629D01*
X233674Y847090D01*
X231135D01*
X233674D01*
X236213Y844551D01*
Y842012D01*
X233674Y839473D01*
X228596D01*
X226057Y842012D01*
X628656Y561338D02*
Y546102D01*
X636273D01*
X638812Y548642D01*
Y551181D01*
X636273Y553720D01*
X628656D01*
X636273D01*
X638812Y556259D01*
Y558798D01*
X636273Y561338D01*
X628656D01*
X643891D02*
X654048D01*
X648969D01*
Y546102D01*
X659126D02*
X664204D01*
X661665D01*
Y561338D01*
X659126Y558798D01*
X855983Y396238D02*
X853444Y398778D01*
X848366D01*
X845827Y396238D01*
Y386082D01*
X848366Y383543D01*
X853444D01*
X855983Y386082D01*
X868679Y383543D02*
Y398778D01*
X861062Y391160D01*
X871218D01*
X886453Y383543D02*
X876297D01*
X886453Y393699D01*
Y396238D01*
X883914Y398778D01*
X878836D01*
X876297Y396238D01*
X665482Y982982D02*
X662943Y980443D01*
Y975365D01*
X665482Y972826D01*
X675638D01*
X678178Y975365D01*
Y980443D01*
X675638Y982982D01*
X678178Y995678D02*
X662943D01*
X670560Y988061D01*
Y998218D01*
X678178Y1003296D02*
Y1008374D01*
Y1005835D01*
X662943D01*
X665482Y1003296D01*
X690882Y976633D02*
X688343Y974094D01*
Y969016D01*
X690882Y966477D01*
X701038D01*
X703578Y969016D01*
Y974094D01*
X701038Y976633D01*
X703578Y989329D02*
X688343D01*
X695960Y981712D01*
Y991868D01*
X690882Y996947D02*
X688343Y999486D01*
Y1004564D01*
X690882Y1007104D01*
X701038D01*
X703578Y1004564D01*
Y999486D01*
X701038Y996947D01*
X690882D01*
X712472Y976633D02*
X709932Y974094D01*
Y969016D01*
X712472Y966477D01*
X722628D01*
X725168Y969016D01*
Y974094D01*
X722628Y976633D01*
X712472Y981712D02*
X709932Y984251D01*
Y989329D01*
X712472Y991868D01*
X715011D01*
X717550Y989329D01*
Y986790D01*
Y989329D01*
X720089Y991868D01*
X722628D01*
X725168Y989329D01*
Y984251D01*
X722628Y981712D01*
Y996947D02*
X725168Y999486D01*
Y1004564D01*
X722628Y1007104D01*
X712472D01*
X709932Y1004564D01*
Y999486D01*
X712472Y996947D01*
X715011D01*
X717550Y999486D01*
Y1007104D01*
X24131Y636268D02*
X19052D01*
X21592D01*
Y623572D01*
X19052Y621032D01*
X16513D01*
X13974Y623572D01*
X39366Y636268D02*
X29209D01*
Y628650D01*
X34288Y631189D01*
X36827D01*
X39366Y628650D01*
Y623572D01*
X36827Y621032D01*
X31748D01*
X29209Y623572D01*
X739144Y704847D02*
Y702308D01*
X744222Y697230D01*
X749301Y702308D01*
Y704847D01*
X744222Y697230D02*
Y689613D01*
X764536D02*
X754379D01*
X764536Y699769D01*
Y702308D01*
X761997Y704847D01*
X756918D01*
X754379Y702308D01*
X593093Y654047D02*
Y651508D01*
X598172Y646430D01*
X603250Y651508D01*
Y654047D01*
X598172Y646430D02*
Y638812D01*
X608328D02*
X613407D01*
X610868D01*
Y654047D01*
X608328Y651508D01*
X1017276Y41908D02*
Y31751D01*
X1022354Y26672D01*
X1027432Y31751D01*
Y41908D01*
X1032511Y26672D02*
Y41908D01*
X1040128D01*
X1042668Y39368D01*
Y34290D01*
X1040128Y31751D01*
X1032511D01*
X1037589D02*
X1042668Y26672D01*
X1047746D02*
X1052824D01*
X1050285D01*
Y41908D01*
X1047746Y39368D01*
X892814Y530858D02*
Y518162D01*
X895353Y515622D01*
X900432D01*
X902971Y518162D01*
Y530858D01*
X908049Y528318D02*
X910588Y530858D01*
X915667D01*
X918206Y528318D01*
Y525779D01*
X915667Y523240D01*
X918206Y520701D01*
Y518162D01*
X915667Y515622D01*
X910588D01*
X908049Y518162D01*
Y520701D01*
X910588Y523240D01*
X908049Y525779D01*
Y528318D01*
X910588Y523240D02*
X915667D01*
X849634Y427988D02*
Y415292D01*
X852173Y412752D01*
X857252D01*
X859791Y415292D01*
Y427988D01*
X864869D02*
X875026D01*
Y425448D01*
X864869Y415292D01*
Y412752D01*
X746764Y189228D02*
Y176532D01*
X749303Y173993D01*
X754382D01*
X756921Y176532D01*
Y189228D01*
X772156D02*
X761999D01*
Y181610D01*
X767077Y184149D01*
X769617D01*
X772156Y181610D01*
Y176532D01*
X769617Y173993D01*
X764538D01*
X761999Y176532D01*
X444504Y198118D02*
Y185422D01*
X447043Y182882D01*
X452122D01*
X454661Y185422D01*
Y198118D01*
X467357Y182882D02*
Y198118D01*
X459739Y190500D01*
X469896D01*
X392434Y764538D02*
Y751842D01*
X394973Y749303D01*
X400052D01*
X402591Y751842D01*
Y764538D01*
X407669Y761998D02*
X410208Y764538D01*
X415287D01*
X417826Y761998D01*
Y759459D01*
X415287Y756920D01*
X412748D01*
X415287D01*
X417826Y754381D01*
Y751842D01*
X415287Y749303D01*
X410208D01*
X407669Y751842D01*
X33024Y454658D02*
Y441962D01*
X35563Y439422D01*
X40642D01*
X43181Y441962D01*
Y454658D01*
X58416Y439422D02*
X48259D01*
X58416Y449579D01*
Y452118D01*
X55877Y454658D01*
X50798D01*
X48259Y452118D01*
X245113Y458467D02*
Y445772D01*
X247652Y443232D01*
X252731D01*
X255270Y445772D01*
Y458467D01*
X260348Y443232D02*
X265427D01*
X262888D01*
Y458467D01*
X260348Y455928D01*
X426721Y581658D02*
X424182Y584198D01*
X419103D01*
X416564Y581658D01*
Y579119D01*
X419103Y576580D01*
X424182D01*
X426721Y574041D01*
Y571502D01*
X424182Y568963D01*
X419103D01*
X416564Y571502D01*
X441956Y568963D02*
X431799D01*
X441956Y579119D01*
Y581658D01*
X439417Y584198D01*
X434338D01*
X431799Y581658D01*
X1002028Y382277D02*
X986793D01*
Y389894D01*
X989332Y392433D01*
X994410D01*
X996949Y389894D01*
Y382277D01*
Y387355D02*
X1002028Y392433D01*
X986793Y407668D02*
Y397512D01*
X994410D01*
X991871Y402590D01*
Y405129D01*
X994410Y407668D01*
X999488D01*
X1002028Y405129D01*
Y400051D01*
X999488Y397512D01*
X986793Y422903D02*
X989332Y417825D01*
X994410Y412747D01*
X999488D01*
X1002028Y415286D01*
Y420364D01*
X999488Y422903D01*
X996949D01*
X994410Y420364D01*
Y412747D01*
X858518Y515627D02*
X843282D01*
Y523244D01*
X845822Y525783D01*
X850900D01*
X853439Y523244D01*
Y515627D01*
Y520705D02*
X858518Y525783D01*
X843282Y541018D02*
Y530862D01*
X850900D01*
X848361Y535940D01*
Y538479D01*
X850900Y541018D01*
X855978D01*
X858518Y538479D01*
Y533401D01*
X855978Y530862D01*
X843282Y556253D02*
Y546097D01*
X850900D01*
X848361Y551175D01*
Y553714D01*
X850900Y556253D01*
X855978D01*
X858518Y553714D01*
Y548636D01*
X855978Y546097D01*
X1098557Y386082D02*
Y401317D01*
X1106174D01*
X1108713Y398778D01*
Y393700D01*
X1106174Y391161D01*
X1098557D01*
X1103635D02*
X1108713Y386082D01*
X1123948Y401317D02*
X1113792D01*
Y393700D01*
X1118870Y396239D01*
X1121409D01*
X1123948Y393700D01*
Y388622D01*
X1121409Y386082D01*
X1116331D01*
X1113792Y388622D01*
X1136644Y386082D02*
Y401317D01*
X1129027Y393700D01*
X1139183D01*
X711207Y515622D02*
Y530858D01*
X718824D01*
X721363Y528318D01*
Y523240D01*
X718824Y520701D01*
X711207D01*
X716285D02*
X721363Y515622D01*
X736598Y530858D02*
X726442D01*
Y523240D01*
X731520Y525779D01*
X734059D01*
X736598Y523240D01*
Y518162D01*
X734059Y515622D01*
X728981D01*
X726442Y518162D01*
X741677Y528318D02*
X744216Y530858D01*
X749294D01*
X751833Y528318D01*
Y525779D01*
X749294Y523240D01*
X746755D01*
X749294D01*
X751833Y520701D01*
Y518162D01*
X749294Y515622D01*
X744216D01*
X741677Y518162D01*
X1002028Y541027D02*
X986793D01*
Y548644D01*
X989332Y551183D01*
X994410D01*
X996949Y548644D01*
Y541027D01*
Y546105D02*
X1002028Y551183D01*
X986793Y566418D02*
Y556262D01*
X994410D01*
X991871Y561340D01*
Y563879D01*
X994410Y566418D01*
X999488D01*
X1002028Y563879D01*
Y558801D01*
X999488Y556262D01*
X1002028Y581653D02*
Y571497D01*
X991871Y581653D01*
X989332D01*
X986793Y579114D01*
Y574036D01*
X989332Y571497D01*
X791216Y355602D02*
Y370838D01*
X798833D01*
X801373Y368298D01*
Y363220D01*
X798833Y360681D01*
X791216D01*
X796294D02*
X801373Y355602D01*
X816608Y370838D02*
X806451D01*
Y363220D01*
X811529Y365759D01*
X814068D01*
X816608Y363220D01*
Y358142D01*
X814068Y355602D01*
X808990D01*
X806451Y358142D01*
X821686Y355602D02*
X826764D01*
X824225D01*
Y370838D01*
X821686Y368298D01*
X819147Y560077D02*
X803913D01*
Y567694D01*
X806452Y570233D01*
X811530D01*
X814069Y567694D01*
Y560077D01*
Y565155D02*
X819147Y570233D01*
X803913Y585468D02*
Y575312D01*
X811530D01*
X808991Y580390D01*
Y582929D01*
X811530Y585468D01*
X816608D01*
X819147Y582929D01*
Y577851D01*
X816608Y575312D01*
X806452Y590547D02*
X803913Y593086D01*
Y598164D01*
X806452Y600703D01*
X816608D01*
X819147Y598164D01*
Y593086D01*
X816608Y590547D01*
X806452D01*
X1101097Y621032D02*
Y636268D01*
X1108714D01*
X1111253Y633728D01*
Y628650D01*
X1108714Y626111D01*
X1101097D01*
X1106175D02*
X1111253Y621032D01*
X1123949D02*
Y636268D01*
X1116332Y628650D01*
X1126488D01*
X1131567Y623572D02*
X1134106Y621032D01*
X1139184D01*
X1141723Y623572D01*
Y633728D01*
X1139184Y636268D01*
X1134106D01*
X1131567Y633728D01*
Y631189D01*
X1134106Y628650D01*
X1141723D01*
X695957Y762007D02*
X680723D01*
Y769624D01*
X683262Y772163D01*
X688340D01*
X690879Y769624D01*
Y762007D01*
Y767085D02*
X695957Y772163D01*
Y784859D02*
X680723D01*
X688340Y777242D01*
Y787398D01*
X683262Y792477D02*
X680723Y795016D01*
Y800094D01*
X683262Y802633D01*
X685801D01*
X688340Y800094D01*
X690879Y802633D01*
X693418D01*
X695957Y800094D01*
Y795016D01*
X693418Y792477D01*
X690879D01*
X688340Y795016D01*
X685801Y792477D01*
X683262D01*
X688340Y795016D02*
Y800094D01*
X1101097Y599442D02*
Y614678D01*
X1108714D01*
X1111253Y612138D01*
Y607060D01*
X1108714Y604521D01*
X1101097D01*
X1106175D02*
X1111253Y599442D01*
X1123949D02*
Y614678D01*
X1116332Y607060D01*
X1126488D01*
X1131567Y614678D02*
X1141723D01*
Y612138D01*
X1131567Y601982D01*
Y599442D01*
X902968Y970287D02*
X887732D01*
Y977904D01*
X890272Y980443D01*
X895350D01*
X897889Y977904D01*
Y970287D01*
Y975365D02*
X902968Y980443D01*
Y993139D02*
X887732D01*
X895350Y985522D01*
Y995678D01*
X887732Y1010913D02*
X890272Y1005835D01*
X895350Y1000757D01*
X900428D01*
X902968Y1003296D01*
Y1008374D01*
X900428Y1010913D01*
X897889D01*
X895350Y1008374D01*
Y1000757D01*
X881378Y970287D02*
X866143D01*
Y977904D01*
X868682Y980443D01*
X873760D01*
X876299Y977904D01*
Y970287D01*
Y975365D02*
X881378Y980443D01*
Y993139D02*
X866143D01*
X873760Y985522D01*
Y995678D01*
X866143Y1010913D02*
Y1000757D01*
X873760D01*
X871221Y1005835D01*
Y1008374D01*
X873760Y1010913D01*
X878838D01*
X881378Y1008374D01*
Y1003296D01*
X878838Y1000757D01*
X859788Y970287D02*
X844553D01*
Y977904D01*
X847092Y980443D01*
X852170D01*
X854709Y977904D01*
Y970287D01*
Y975365D02*
X859788Y980443D01*
Y993139D02*
X844553D01*
X852170Y985522D01*
Y995678D01*
X859788Y1008374D02*
X844553D01*
X852170Y1000757D01*
Y1010913D01*
X1014737Y855983D02*
Y871217D01*
X1022354D01*
X1024893Y868678D01*
Y863600D01*
X1022354Y861061D01*
X1014737D01*
X1019815D02*
X1024893Y855983D01*
X1037589D02*
Y871217D01*
X1029972Y863600D01*
X1040128D01*
X1045207Y868678D02*
X1047746Y871217D01*
X1052824D01*
X1055363Y868678D01*
Y866139D01*
X1052824Y863600D01*
X1050285D01*
X1052824D01*
X1055363Y861061D01*
Y858522D01*
X1052824Y855983D01*
X1047746D01*
X1045207Y858522D01*
X1014737Y830583D02*
Y845817D01*
X1022354D01*
X1024893Y843278D01*
Y838200D01*
X1022354Y835661D01*
X1014737D01*
X1019815D02*
X1024893Y830583D01*
X1037589D02*
Y845817D01*
X1029972Y838200D01*
X1040128D01*
X1055363Y830583D02*
X1045207D01*
X1055363Y840739D01*
Y843278D01*
X1052824Y845817D01*
X1047746D01*
X1045207Y843278D01*
X838197Y970286D02*
X822962D01*
Y977903D01*
X825502Y980443D01*
X830580D01*
X833119Y977903D01*
Y970286D01*
Y975364D02*
X838197Y980443D01*
Y993138D02*
X822962D01*
X830580Y985521D01*
Y995677D01*
X838197Y1000756D02*
Y1005834D01*
Y1003295D01*
X822962D01*
X825502Y1000756D01*
X816608Y969017D02*
X801373D01*
Y976634D01*
X803912Y979173D01*
X808990D01*
X811529Y976634D01*
Y969017D01*
Y974095D02*
X816608Y979173D01*
Y991869D02*
X801373D01*
X808990Y984252D01*
Y994408D01*
X803912Y999487D02*
X801373Y1002026D01*
Y1007104D01*
X803912Y1009643D01*
X814068D01*
X816608Y1007104D01*
Y1002026D01*
X814068Y999487D01*
X803912D01*
X981463Y618238D02*
Y633474D01*
X989080D01*
X991619Y630934D01*
Y625856D01*
X989080Y623317D01*
X981463D01*
X986541D02*
X991619Y618238D01*
X996698Y630934D02*
X999237Y633474D01*
X1004315D01*
X1006854Y630934D01*
Y628395D01*
X1004315Y625856D01*
X1001776D01*
X1004315D01*
X1006854Y623317D01*
Y620778D01*
X1004315Y618238D01*
X999237D01*
X996698Y620778D01*
X1011933Y630934D02*
X1014472Y633474D01*
X1019550D01*
X1022089Y630934D01*
Y628395D01*
X1019550Y625856D01*
X1022089Y623317D01*
Y620778D01*
X1019550Y618238D01*
X1014472D01*
X1011933Y620778D01*
Y623317D01*
X1014472Y625856D01*
X1011933Y628395D01*
Y630934D01*
X1014472Y625856D02*
X1019550D01*
X981717Y657862D02*
Y673098D01*
X989334D01*
X991873Y670558D01*
Y665480D01*
X989334Y662941D01*
X981717D01*
X986795D02*
X991873Y657862D01*
X996952Y670558D02*
X999491Y673098D01*
X1004569D01*
X1007108Y670558D01*
Y668019D01*
X1004569Y665480D01*
X1002030D01*
X1004569D01*
X1007108Y662941D01*
Y660402D01*
X1004569Y657862D01*
X999491D01*
X996952Y660402D01*
X1012187Y673098D02*
X1022344D01*
Y670558D01*
X1012187Y660402D01*
Y657862D01*
X981463Y638050D02*
Y653286D01*
X989080D01*
X991619Y650746D01*
Y645668D01*
X989080Y643129D01*
X981463D01*
X986541D02*
X991619Y638050D01*
X996698Y650746D02*
X999237Y653286D01*
X1004315D01*
X1006854Y650746D01*
Y648207D01*
X1004315Y645668D01*
X1001776D01*
X1004315D01*
X1006854Y643129D01*
Y640590D01*
X1004315Y638050D01*
X999237D01*
X996698Y640590D01*
X1022089Y653286D02*
X1017011Y650746D01*
X1011933Y645668D01*
Y640590D01*
X1014472Y638050D01*
X1019550D01*
X1022089Y640590D01*
Y643129D01*
X1019550Y645668D01*
X1011933D01*
X988058Y923297D02*
X972822D01*
Y930914D01*
X975362Y933453D01*
X980440D01*
X982979Y930914D01*
Y923297D01*
Y928375D02*
X988058Y933453D01*
X975362Y938532D02*
X972822Y941071D01*
Y946149D01*
X975362Y948688D01*
X977901D01*
X980440Y946149D01*
Y943610D01*
Y946149D01*
X982979Y948688D01*
X985518D01*
X988058Y946149D01*
Y941071D01*
X985518Y938532D01*
X972822Y963923D02*
Y953767D01*
X980440D01*
X977901Y958845D01*
Y961384D01*
X980440Y963923D01*
X985518D01*
X988058Y961384D01*
Y956306D01*
X985518Y953767D01*
X1010918Y923297D02*
X995683D01*
Y930914D01*
X998222Y933453D01*
X1003300D01*
X1005839Y930914D01*
Y923297D01*
Y928375D02*
X1010918Y933453D01*
X998222Y938532D02*
X995683Y941071D01*
Y946149D01*
X998222Y948688D01*
X1000761D01*
X1003300Y946149D01*
Y943610D01*
Y946149D01*
X1005839Y948688D01*
X1008378D01*
X1010918Y946149D01*
Y941071D01*
X1008378Y938532D01*
X1010918Y961384D02*
X995683D01*
X1003300Y953767D01*
Y963923D01*
X981717Y698503D02*
Y713738D01*
X989334D01*
X991873Y711198D01*
Y706120D01*
X989334Y703581D01*
X981717D01*
X986795D02*
X991873Y698503D01*
X996952Y711198D02*
X999491Y713738D01*
X1004569D01*
X1007108Y711198D01*
Y708659D01*
X1004569Y706120D01*
X1002030D01*
X1004569D01*
X1007108Y703581D01*
Y701042D01*
X1004569Y698503D01*
X999491D01*
X996952Y701042D01*
X1012187Y711198D02*
X1014726Y713738D01*
X1019804D01*
X1022344Y711198D01*
Y708659D01*
X1019804Y706120D01*
X1017265D01*
X1019804D01*
X1022344Y703581D01*
Y701042D01*
X1019804Y698503D01*
X1014726D01*
X1012187Y701042D01*
X1033778Y923297D02*
X1018542D01*
Y930914D01*
X1021082Y933453D01*
X1026160D01*
X1028699Y930914D01*
Y923297D01*
Y928375D02*
X1033778Y933453D01*
X1021082Y938532D02*
X1018542Y941071D01*
Y946149D01*
X1021082Y948688D01*
X1023621D01*
X1026160Y946149D01*
Y943610D01*
Y946149D01*
X1028699Y948688D01*
X1031238D01*
X1033778Y946149D01*
Y941071D01*
X1031238Y938532D01*
X1033778Y963923D02*
Y953767D01*
X1023621Y963923D01*
X1021082D01*
X1018542Y961384D01*
Y956306D01*
X1021082Y953767D01*
X917200Y847855D02*
Y863090D01*
X924817D01*
X927356Y860550D01*
Y855472D01*
X924817Y852933D01*
X917200D01*
X922278D02*
X927356Y847855D01*
X932435Y860550D02*
X934974Y863090D01*
X940052D01*
X942592Y860550D01*
Y858011D01*
X940052Y855472D01*
X937513D01*
X940052D01*
X942592Y852933D01*
Y850394D01*
X940052Y847855D01*
X934974D01*
X932435Y850394D01*
X947670Y847855D02*
X952748D01*
X950209D01*
Y863090D01*
X947670Y860550D01*
X1107447Y932182D02*
Y947418D01*
X1115064D01*
X1117603Y944878D01*
Y939800D01*
X1115064Y937261D01*
X1107447D01*
X1112525D02*
X1117603Y932182D01*
X1122682Y944878D02*
X1125221Y947418D01*
X1130299D01*
X1132838Y944878D01*
Y942339D01*
X1130299Y939800D01*
X1127760D01*
X1130299D01*
X1132838Y937261D01*
Y934722D01*
X1130299Y932182D01*
X1125221D01*
X1122682Y934722D01*
X1137917Y944878D02*
X1140456Y947418D01*
X1145534D01*
X1148073Y944878D01*
Y934722D01*
X1145534Y932182D01*
X1140456D01*
X1137917Y934722D01*
Y944878D01*
X981717Y678183D02*
Y693418D01*
X989334D01*
X991873Y690878D01*
Y685800D01*
X989334Y683261D01*
X981717D01*
X986795D02*
X991873Y678183D01*
X1007108D02*
X996952D01*
X1007108Y688339D01*
Y690878D01*
X1004569Y693418D01*
X999491D01*
X996952Y690878D01*
X1012187Y680722D02*
X1014726Y678183D01*
X1019804D01*
X1022344Y680722D01*
Y690878D01*
X1019804Y693418D01*
X1014726D01*
X1012187Y690878D01*
Y688339D01*
X1014726Y685800D01*
X1022344D01*
X911867Y869191D02*
Y884426D01*
X919484D01*
X922023Y881886D01*
Y876808D01*
X919484Y874269D01*
X911867D01*
X916945D02*
X922023Y869191D01*
X937258D02*
X927102D01*
X937258Y879347D01*
Y881886D01*
X934719Y884426D01*
X929641D01*
X927102Y881886D01*
X942337D02*
X944876Y884426D01*
X949954D01*
X952494Y881886D01*
Y879347D01*
X949954Y876808D01*
X952494Y874269D01*
Y871730D01*
X949954Y869191D01*
X944876D01*
X942337Y871730D01*
Y874269D01*
X944876Y876808D01*
X942337Y879347D01*
Y881886D01*
X944876Y876808D02*
X949954D01*
X1217937Y121923D02*
Y137157D01*
X1225554D01*
X1228093Y134618D01*
Y129540D01*
X1225554Y127001D01*
X1217937D01*
X1223015D02*
X1228093Y121923D01*
X1243328D02*
X1233172D01*
X1243328Y132079D01*
Y134618D01*
X1240789Y137157D01*
X1235711D01*
X1233172Y134618D01*
X1248407Y137157D02*
X1258563D01*
Y134618D01*
X1248407Y124462D01*
Y121923D01*
X789938Y967747D02*
X774703D01*
Y975364D01*
X777242Y977903D01*
X782320D01*
X784859Y975364D01*
Y967747D01*
Y972825D02*
X789938Y977903D01*
Y993138D02*
Y982982D01*
X779781Y993138D01*
X777242D01*
X774703Y990599D01*
Y985521D01*
X777242Y982982D01*
X774703Y1008373D02*
X777242Y1003295D01*
X782320Y998217D01*
X787398D01*
X789938Y1000756D01*
Y1005834D01*
X787398Y1008373D01*
X784859D01*
X782320Y1005834D01*
Y998217D01*
X769618Y969017D02*
X754382D01*
Y976634D01*
X756922Y979173D01*
X762000D01*
X764539Y976634D01*
Y969017D01*
Y974095D02*
X769618Y979173D01*
Y994408D02*
Y984252D01*
X759461Y994408D01*
X756922D01*
X754382Y991869D01*
Y986791D01*
X756922Y984252D01*
X754382Y1009643D02*
Y999487D01*
X762000D01*
X759461Y1004565D01*
Y1007104D01*
X762000Y1009643D01*
X767078D01*
X769618Y1007104D01*
Y1002026D01*
X767078Y999487D01*
X748028Y969017D02*
X732793D01*
Y976634D01*
X735332Y979173D01*
X740410D01*
X742949Y976634D01*
Y969017D01*
Y974095D02*
X748028Y979173D01*
Y994408D02*
Y984252D01*
X737871Y994408D01*
X735332D01*
X732793Y991869D01*
Y986791D01*
X735332Y984252D01*
X748028Y1007104D02*
X732793D01*
X740410Y999487D01*
Y1009643D01*
X471177Y933453D02*
Y948688D01*
X478794D01*
X481333Y946148D01*
Y941070D01*
X478794Y938531D01*
X471177D01*
X476255D02*
X481333Y933453D01*
X496568D02*
X486412D01*
X496568Y943609D01*
Y946148D01*
X494029Y948688D01*
X488951D01*
X486412Y946148D01*
X501647D02*
X504186Y948688D01*
X509264D01*
X511803Y946148D01*
Y943609D01*
X509264Y941070D01*
X506725D01*
X509264D01*
X511803Y938531D01*
Y935992D01*
X509264Y933453D01*
X504186D01*
X501647Y935992D01*
X647698Y91447D02*
X632462D01*
Y99064D01*
X635002Y101603D01*
X640080D01*
X642619Y99064D01*
Y91447D01*
Y96525D02*
X647698Y101603D01*
Y116838D02*
Y106682D01*
X637541Y116838D01*
X635002D01*
X632462Y114299D01*
Y109221D01*
X635002Y106682D01*
X647698Y132073D02*
Y121917D01*
X637541Y132073D01*
X635002D01*
X632462Y129534D01*
Y124456D01*
X635002Y121917D01*
X634997Y223526D02*
X619762D01*
Y231143D01*
X622302Y233682D01*
X627380D01*
X629919Y231143D01*
Y223526D01*
Y228604D02*
X634997Y233682D01*
Y248918D02*
Y238761D01*
X624841Y248918D01*
X622302D01*
X619762Y246378D01*
Y241300D01*
X622302Y238761D01*
X634997Y253996D02*
Y259074D01*
Y256535D01*
X619762D01*
X622302Y253996D01*
X788668Y219717D02*
X773432D01*
Y227334D01*
X775972Y229873D01*
X781050D01*
X783589Y227334D01*
Y219717D01*
Y224795D02*
X788668Y229873D01*
Y245108D02*
Y234952D01*
X778511Y245108D01*
X775972D01*
X773432Y242569D01*
Y237491D01*
X775972Y234952D01*
Y250187D02*
X773432Y252726D01*
Y257804D01*
X775972Y260343D01*
X786128D01*
X788668Y257804D01*
Y252726D01*
X786128Y250187D01*
X775972D01*
X746758Y220986D02*
X731523D01*
Y228604D01*
X734062Y231143D01*
X739140D01*
X741679Y228604D01*
Y220986D01*
Y226064D02*
X746758Y231143D01*
Y236221D02*
Y241300D01*
Y238760D01*
X731523D01*
X734062Y236221D01*
X744218Y248917D02*
X746758Y251456D01*
Y256535D01*
X744218Y259074D01*
X734062D01*
X731523Y256535D01*
Y251456D01*
X734062Y248917D01*
X736601D01*
X739140Y251456D01*
Y259074D01*
X494027Y93986D02*
X478792D01*
Y101604D01*
X481332Y104143D01*
X486410D01*
X488949Y101604D01*
Y93986D01*
Y99065D02*
X494027Y104143D01*
Y109221D02*
Y114300D01*
Y111760D01*
X478792D01*
X481332Y109221D01*
Y121917D02*
X478792Y124456D01*
Y129535D01*
X481332Y132074D01*
X483871D01*
X486410Y129535D01*
X488949Y132074D01*
X491488D01*
X494027Y129535D01*
Y124456D01*
X491488Y121917D01*
X488949D01*
X486410Y124456D01*
X483871Y121917D01*
X481332D01*
X486410Y124456D02*
Y129535D01*
X461007Y220986D02*
X445773D01*
Y228604D01*
X448312Y231143D01*
X453390D01*
X455929Y228604D01*
Y220986D01*
Y226064D02*
X461007Y231143D01*
Y236221D02*
Y241300D01*
Y238760D01*
X445773D01*
X448312Y236221D01*
X445773Y248917D02*
Y259074D01*
X448312D01*
X458468Y248917D01*
X461007D01*
X594357Y219716D02*
X579123D01*
Y227334D01*
X581662Y229873D01*
X586740D01*
X589279Y227334D01*
Y219716D01*
Y224795D02*
X594357Y229873D01*
Y234951D02*
Y240030D01*
Y237490D01*
X579123D01*
X581662Y234951D01*
X579123Y257804D02*
X581662Y252726D01*
X586740Y247647D01*
X591818D01*
X594357Y250186D01*
Y255265D01*
X591818Y257804D01*
X589279D01*
X586740Y255265D01*
Y247647D01*
X485137Y220986D02*
X469902D01*
Y228604D01*
X472442Y231143D01*
X477520D01*
X480059Y228604D01*
Y220986D01*
Y226064D02*
X485137Y231143D01*
Y236221D02*
Y241300D01*
Y238760D01*
X469902D01*
X472442Y236221D01*
X469902Y259074D02*
Y248917D01*
X477520D01*
X474981Y253995D01*
Y256535D01*
X477520Y259074D01*
X482598D01*
X485137Y256535D01*
Y251456D01*
X482598Y248917D01*
X454666Y834392D02*
Y849628D01*
X462284D01*
X464823Y847088D01*
Y842010D01*
X462284Y839471D01*
X454666D01*
X459744D02*
X464823Y834392D01*
X469901D02*
X474980D01*
X472440D01*
Y849628D01*
X469901Y847088D01*
X490215Y834392D02*
Y849628D01*
X482597Y842010D01*
X492754D01*
X205746Y521973D02*
Y537207D01*
X213364D01*
X215903Y534668D01*
Y529590D01*
X213364Y527051D01*
X205746D01*
X210825D02*
X215903Y521973D01*
X220981D02*
X226060D01*
X223520D01*
Y537207D01*
X220981Y534668D01*
X233677D02*
X236216Y537207D01*
X241295D01*
X243834Y534668D01*
Y532129D01*
X241295Y529590D01*
X238755D01*
X241295D01*
X243834Y527051D01*
Y524512D01*
X241295Y521973D01*
X236216D01*
X233677Y524512D01*
X205746Y502923D02*
Y518158D01*
X213364D01*
X215903Y515618D01*
Y510540D01*
X213364Y508001D01*
X205746D01*
X210825D02*
X215903Y502923D01*
X220981D02*
X226060D01*
X223520D01*
Y518158D01*
X220981Y515618D01*
X243834Y502923D02*
X233677D01*
X243834Y513079D01*
Y515618D01*
X241295Y518158D01*
X236216D01*
X233677Y515618D01*
X284485Y659133D02*
Y674368D01*
X292103D01*
X294642Y671828D01*
Y666750D01*
X292103Y664211D01*
X284485D01*
X289564D02*
X294642Y659133D01*
X299720D02*
X304799D01*
X302260D01*
Y674368D01*
X299720Y671828D01*
X312416Y659133D02*
X317495D01*
X314956D01*
Y674368D01*
X312416Y671828D01*
X157486Y506732D02*
Y521968D01*
X165104D01*
X167643Y519428D01*
Y514350D01*
X165104Y511811D01*
X157486D01*
X162565D02*
X167643Y506732D01*
X172721D02*
X177800D01*
X175260D01*
Y521968D01*
X172721Y519428D01*
X185417D02*
X187956Y521968D01*
X193035D01*
X195574Y519428D01*
Y509272D01*
X193035Y506732D01*
X187956D01*
X185417Y509272D01*
Y519428D01*
X205744Y542293D02*
Y557528D01*
X213362D01*
X215901Y554988D01*
Y549910D01*
X213362Y547371D01*
X205744D01*
X210823D02*
X215901Y542293D01*
X220979Y544832D02*
X223518Y542293D01*
X228597D01*
X231136Y544832D01*
Y554988D01*
X228597Y557528D01*
X223518D01*
X220979Y554988D01*
Y552449D01*
X223518Y549910D01*
X231136D01*
X289564Y821693D02*
Y836927D01*
X297182D01*
X299721Y834388D01*
Y829310D01*
X297182Y826771D01*
X289564D01*
X294643D02*
X299721Y821693D01*
X304799Y834388D02*
X307338Y836927D01*
X312417D01*
X314956Y834388D01*
Y831849D01*
X312417Y829310D01*
X314956Y826771D01*
Y824232D01*
X312417Y821693D01*
X307338D01*
X304799Y824232D01*
Y826771D01*
X307338Y829310D01*
X304799Y831849D01*
Y834388D01*
X307338Y829310D02*
X312417D01*
X566418Y839474D02*
X551183D01*
Y847092D01*
X553722Y849631D01*
X558800D01*
X561339Y847092D01*
Y839474D01*
Y844553D02*
X566418Y849631D01*
X551183Y854709D02*
Y864866D01*
X553722D01*
X563878Y854709D01*
X566418D01*
X405134Y520703D02*
Y535938D01*
X412752D01*
X415291Y533398D01*
Y528320D01*
X412752Y525781D01*
X405134D01*
X410213D02*
X415291Y520703D01*
X430526Y535938D02*
X425448Y533398D01*
X420369Y528320D01*
Y523242D01*
X422908Y520703D01*
X427987D01*
X430526Y523242D01*
Y525781D01*
X427987Y528320D01*
X420369D01*
X405134Y500382D02*
Y515617D01*
X412752D01*
X415291Y513078D01*
Y508000D01*
X412752Y505461D01*
X405134D01*
X410213D02*
X415291Y500382D01*
X430526Y515617D02*
X420369D01*
Y508000D01*
X425448Y510539D01*
X427987D01*
X430526Y508000D01*
Y502922D01*
X427987Y500382D01*
X422908D01*
X420369Y502922D01*
X331474Y659133D02*
Y674368D01*
X339092D01*
X341631Y671828D01*
Y666750D01*
X339092Y664211D01*
X331474D01*
X336553D02*
X341631Y659133D01*
X354327D02*
Y674368D01*
X346709Y666750D01*
X356866D01*
X543558Y838204D02*
X528322D01*
Y845822D01*
X530862Y848361D01*
X535940D01*
X538479Y845822D01*
Y838204D01*
Y843282D02*
X543558Y848361D01*
X530862Y853439D02*
X528322Y855978D01*
Y861057D01*
X530862Y863596D01*
X533401D01*
X535940Y861057D01*
Y858518D01*
Y861057D01*
X538479Y863596D01*
X541018D01*
X543558Y861057D01*
Y855978D01*
X541018Y853439D01*
X280674Y511813D02*
Y527048D01*
X288292D01*
X290831Y524508D01*
Y519430D01*
X288292Y516891D01*
X280674D01*
X285753D02*
X290831Y511813D01*
X306066D02*
X295909D01*
X306066Y521969D01*
Y524508D01*
X303527Y527048D01*
X298448D01*
X295909Y524508D01*
X406403Y542293D02*
Y557528D01*
X414021D01*
X416560Y554988D01*
Y549910D01*
X414021Y547371D01*
X406403D01*
X411482D02*
X416560Y542293D01*
X421638D02*
X426717D01*
X424178D01*
Y557528D01*
X421638Y554988D01*
X229871Y392432D02*
Y402588D01*
X227332Y405127D01*
X222253D01*
X219714Y402588D01*
Y392432D01*
X222253Y389893D01*
X227332D01*
X224792Y394971D02*
X229871Y389893D01*
X227332D02*
X229871Y392432D01*
X245106Y389893D02*
X234949D01*
X245106Y400049D01*
Y402588D01*
X242567Y405127D01*
X237488D01*
X234949Y402588D01*
X425450Y391162D02*
Y401318D01*
X422911Y403857D01*
X417832D01*
X415293Y401318D01*
Y391162D01*
X417832Y388623D01*
X422911D01*
X420372Y393701D02*
X425450Y388623D01*
X422911D02*
X425450Y391162D01*
X430528Y388623D02*
X435607D01*
X433068D01*
Y403857D01*
X430528Y401318D01*
X52074Y341628D02*
Y326393D01*
Y331471D01*
X62231Y341628D01*
X54613Y334010D01*
X62231Y326393D01*
X77466D02*
X67309D01*
X77466Y336549D01*
Y339088D01*
X74927Y341628D01*
X69848D01*
X67309Y339088D01*
X441963Y373377D02*
Y358143D01*
Y363221D01*
X452120Y373377D01*
X444502Y365760D01*
X452120Y358143D01*
X457198D02*
X462277D01*
X459738D01*
Y373377D01*
X457198Y370838D01*
X1247142Y575308D02*
X1242064D01*
X1244603D01*
Y562612D01*
X1242064Y560073D01*
X1239525D01*
X1236985Y562612D01*
X1252220Y560073D02*
X1257299D01*
X1254760D01*
Y575308D01*
X1252220Y572768D01*
X1264916Y560073D02*
X1269995D01*
X1267456D01*
Y575308D01*
X1264916Y572768D01*
X1259841Y895348D02*
X1254762D01*
X1257302D01*
Y882652D01*
X1254762Y880113D01*
X1252223D01*
X1249684Y882652D01*
X1264919D02*
X1267458Y880113D01*
X1272537D01*
X1275076Y882652D01*
Y892808D01*
X1272537Y895348D01*
X1267458D01*
X1264919Y892808D01*
Y890269D01*
X1267458Y887730D01*
X1275076D01*
X152401Y910587D02*
X147323D01*
X149862D01*
Y897892D01*
X147323Y895352D01*
X144783D01*
X142244Y897892D01*
X157479Y908048D02*
X160018Y910587D01*
X165097D01*
X167636Y908048D01*
Y905509D01*
X165097Y902970D01*
X167636Y900431D01*
Y897892D01*
X165097Y895352D01*
X160018D01*
X157479Y897892D01*
Y900431D01*
X160018Y902970D01*
X157479Y905509D01*
Y908048D01*
X160018Y902970D02*
X165097D01*
X443231Y949958D02*
X438153D01*
X440692D01*
Y937262D01*
X438153Y934723D01*
X435613D01*
X433074Y937262D01*
X458466Y949958D02*
X453388Y947418D01*
X448309Y942340D01*
Y937262D01*
X450848Y934723D01*
X455927D01*
X458466Y937262D01*
Y939801D01*
X455927Y942340D01*
X448309D01*
X252731Y175257D02*
X247652D01*
X250192D01*
Y162562D01*
X247652Y160023D01*
X245113D01*
X242574Y162562D01*
X257809Y172718D02*
X260348Y175257D01*
X265427D01*
X267966Y172718D01*
Y170179D01*
X265427Y167640D01*
X262887D01*
X265427D01*
X267966Y165101D01*
Y162562D01*
X265427Y160023D01*
X260348D01*
X257809Y162562D01*
X294641Y913128D02*
X289562D01*
X292102D01*
Y900432D01*
X289562Y897893D01*
X287023D01*
X284484Y900432D01*
X309876Y897893D02*
X299719D01*
X309876Y908049D01*
Y910588D01*
X307337Y913128D01*
X302258D01*
X299719Y910588D01*
X440690Y148588D02*
X435612D01*
X438151D01*
Y135892D01*
X435612Y133352D01*
X433073D01*
X430533Y135892D01*
X445768Y133352D02*
X450847D01*
X448308D01*
Y148588D01*
X445768Y146048D01*
X900433Y618488D02*
X890276D01*
Y610870D01*
X895354D01*
X890276D01*
Y603252D01*
X905511Y618488D02*
Y603252D01*
X913128D01*
X915668Y605792D01*
Y608331D01*
X913128Y610870D01*
X905511D01*
X913128D01*
X915668Y613409D01*
Y615948D01*
X913128Y618488D01*
X905511D01*
X920746Y603252D02*
X925824D01*
X923285D01*
Y618488D01*
X920746Y615948D01*
X1127761Y427988D02*
X1117604D01*
Y420370D01*
X1122682D01*
X1117604D01*
Y412752D01*
X1142996D02*
X1132839D01*
X1142996Y422909D01*
Y425448D01*
X1140457Y427988D01*
X1135378D01*
X1132839Y425448D01*
X1134110Y551177D02*
X1123953D01*
Y543560D01*
X1129032D01*
X1123953D01*
Y535942D01*
X1139188D02*
X1144267D01*
X1141728D01*
Y551177D01*
X1139188Y548638D01*
X867412Y519436D02*
X882647D01*
Y527054D01*
X880108Y529593D01*
X869952D01*
X867412Y527054D01*
Y519436D01*
X882647Y534671D02*
Y539750D01*
Y537210D01*
X867412D01*
X869952Y534671D01*
X867412Y557524D02*
X869952Y552445D01*
X875030Y547367D01*
X880108D01*
X882647Y549906D01*
Y554985D01*
X880108Y557524D01*
X877569D01*
X875030Y554985D01*
Y547367D01*
X1051566Y379728D02*
Y364492D01*
X1059184D01*
X1061723Y367032D01*
Y377188D01*
X1059184Y379728D01*
X1051566D01*
X1066801Y364492D02*
X1071880D01*
X1069340D01*
Y379728D01*
X1066801Y377188D01*
X1089654Y379728D02*
X1079497D01*
Y372110D01*
X1084576Y374649D01*
X1087115D01*
X1089654Y372110D01*
Y367032D01*
X1087115Y364492D01*
X1082036D01*
X1079497Y367032D01*
X1051566Y401317D02*
Y386082D01*
X1059184D01*
X1061723Y388622D01*
Y398778D01*
X1059184Y401317D01*
X1051566D01*
X1066801Y386082D02*
X1071880D01*
X1069340D01*
Y401317D01*
X1066801Y398778D01*
X1087115Y386082D02*
Y401317D01*
X1079497Y393700D01*
X1089654D01*
X1054106Y585467D02*
Y570233D01*
X1061724D01*
X1064263Y572772D01*
Y582928D01*
X1061724Y585467D01*
X1054106D01*
X1069341Y570233D02*
X1074420D01*
X1071880D01*
Y585467D01*
X1069341Y582928D01*
X1082037D02*
X1084576Y585467D01*
X1089655D01*
X1092194Y582928D01*
Y580389D01*
X1089655Y577850D01*
X1087115D01*
X1089655D01*
X1092194Y575311D01*
Y572772D01*
X1089655Y570233D01*
X1084576D01*
X1082037Y572772D01*
X725176Y403857D02*
Y388623D01*
X732794D01*
X735333Y391162D01*
Y401318D01*
X732794Y403857D01*
X725176D01*
X740411Y388623D02*
X745490D01*
X742950D01*
Y403857D01*
X740411Y401318D01*
X763264Y388623D02*
X753107D01*
X763264Y398779D01*
Y401318D01*
X760725Y403857D01*
X755646D01*
X753107Y401318D01*
X774703Y558805D02*
X789938D01*
Y566423D01*
X787398Y568962D01*
X777242D01*
X774703Y566423D01*
Y558805D01*
X789938Y574040D02*
Y579119D01*
Y576580D01*
X774703D01*
X777242Y574040D01*
X789938Y586736D02*
Y591815D01*
Y589276D01*
X774703D01*
X777242Y586736D01*
X529596Y984248D02*
Y969013D01*
X537214D01*
X539753Y971552D01*
Y981708D01*
X537214Y984248D01*
X529596D01*
X544831Y969013D02*
X549910D01*
X547370D01*
Y984248D01*
X544831Y981708D01*
X557527D02*
X560066Y984248D01*
X565145D01*
X567684Y981708D01*
Y971552D01*
X565145Y969013D01*
X560066D01*
X557527Y971552D01*
Y981708D01*
X753112Y219714D02*
X768347D01*
Y227332D01*
X765808Y229871D01*
X755652D01*
X753112Y227332D01*
Y219714D01*
X765808Y234949D02*
X768347Y237488D01*
Y242567D01*
X765808Y245106D01*
X755652D01*
X753112Y242567D01*
Y237488D01*
X755652Y234949D01*
X758191D01*
X760730Y237488D01*
Y245106D01*
X533404Y279398D02*
Y264163D01*
X541022D01*
X543561Y266702D01*
Y276858D01*
X541022Y279398D01*
X533404D01*
X548639Y276858D02*
X551178Y279398D01*
X556257D01*
X558796Y276858D01*
Y274319D01*
X556257Y271780D01*
X558796Y269241D01*
Y266702D01*
X556257Y264163D01*
X551178D01*
X548639Y266702D01*
Y269241D01*
X551178Y271780D01*
X548639Y274319D01*
Y276858D01*
X551178Y271780D02*
X556257D01*
X52074Y408937D02*
Y393703D01*
X59692D01*
X62231Y396242D01*
Y406398D01*
X59692Y408937D01*
X52074D01*
X67309D02*
X77466D01*
Y406398D01*
X67309Y396242D01*
Y393703D01*
X157484Y500378D02*
Y485143D01*
X165102D01*
X167641Y487682D01*
Y497838D01*
X165102Y500378D01*
X157484D01*
X182876D02*
X177798Y497838D01*
X172719Y492760D01*
Y487682D01*
X175258Y485143D01*
X180337D01*
X182876Y487682D01*
Y490221D01*
X180337Y492760D01*
X172719D01*
X1107442Y146054D02*
X1122678D01*
Y153672D01*
X1120138Y156211D01*
X1109982D01*
X1107442Y153672D01*
Y146054D01*
Y171446D02*
Y161289D01*
X1115060D01*
X1112521Y166367D01*
Y168907D01*
X1115060Y171446D01*
X1120138D01*
X1122678Y168907D01*
Y163828D01*
X1120138Y161289D01*
X1135384Y337817D02*
Y322583D01*
X1143002D01*
X1145541Y325122D01*
Y335278D01*
X1143002Y337817D01*
X1135384D01*
X1158237Y322583D02*
Y337817D01*
X1150619Y330200D01*
X1160776D01*
X254004Y424178D02*
Y408942D01*
X261622D01*
X264161Y411482D01*
Y421638D01*
X261622Y424178D01*
X254004D01*
X269239Y421638D02*
X271778Y424178D01*
X276857D01*
X279396Y421638D01*
Y419099D01*
X276857Y416560D01*
X274317D01*
X276857D01*
X279396Y414021D01*
Y411482D01*
X276857Y408942D01*
X271778D01*
X269239Y411482D01*
X279404Y504188D02*
Y488952D01*
X287022D01*
X289561Y491492D01*
Y501648D01*
X287022Y504188D01*
X279404D01*
X304796Y488952D02*
X294639D01*
X304796Y499109D01*
Y501648D01*
X302257Y504188D01*
X297178D01*
X294639Y501648D01*
X552453Y588008D02*
Y572772D01*
X560071D01*
X562610Y575312D01*
Y585468D01*
X560071Y588008D01*
X552453D01*
X567688Y572772D02*
X572767D01*
X570228D01*
Y588008D01*
X567688Y585468D01*
X661673Y896618D02*
X659134Y899157D01*
X654056D01*
X651517Y896618D01*
Y886462D01*
X654056Y883923D01*
X659134D01*
X661673Y886462D01*
X666752Y896618D02*
X669291Y899157D01*
X674369D01*
X676908Y896618D01*
Y894079D01*
X674369Y891540D01*
X671830D01*
X674369D01*
X676908Y889001D01*
Y886462D01*
X674369Y883923D01*
X669291D01*
X666752Y886462D01*
X681987Y896618D02*
X684526Y899157D01*
X689604D01*
X692143Y896618D01*
Y894079D01*
X689604Y891540D01*
X692143Y889001D01*
Y886462D01*
X689604Y883923D01*
X684526D01*
X681987Y886462D01*
Y889001D01*
X684526Y891540D01*
X681987Y894079D01*
Y896618D01*
X684526Y891540D02*
X689604D01*
X1018542Y392433D02*
X1016002Y389894D01*
Y384816D01*
X1018542Y382277D01*
X1028698D01*
X1031237Y384816D01*
Y389894D01*
X1028698Y392433D01*
X1018542Y397512D02*
X1016002Y400051D01*
Y405129D01*
X1018542Y407668D01*
X1021081D01*
X1023620Y405129D01*
Y402590D01*
Y405129D01*
X1026159Y407668D01*
X1028698D01*
X1031237Y405129D01*
Y400051D01*
X1028698Y397512D01*
X1016002Y412747D02*
Y422903D01*
X1018542D01*
X1028698Y412747D01*
X1031237D01*
X1021082Y548643D02*
X1018542Y546104D01*
Y541026D01*
X1021082Y538487D01*
X1031238D01*
X1033777Y541026D01*
Y546104D01*
X1031238Y548643D01*
X1021082Y553722D02*
X1018542Y556261D01*
Y561339D01*
X1021082Y563878D01*
X1023621D01*
X1026160Y561339D01*
Y558800D01*
Y561339D01*
X1028699Y563878D01*
X1031238D01*
X1033777Y561339D01*
Y556261D01*
X1031238Y553722D01*
X1018542Y579113D02*
X1021082Y574035D01*
X1026160Y568957D01*
X1031238D01*
X1033777Y571496D01*
Y576574D01*
X1031238Y579113D01*
X1028699D01*
X1026160Y576574D01*
Y568957D01*
X949963Y420368D02*
X947424Y422907D01*
X942346D01*
X939807Y420368D01*
Y410212D01*
X942346Y407673D01*
X947424D01*
X949963Y410212D01*
X955042Y420368D02*
X957581Y422907D01*
X962659D01*
X965198Y420368D01*
Y417829D01*
X962659Y415290D01*
X960120D01*
X962659D01*
X965198Y412751D01*
Y410212D01*
X962659Y407673D01*
X957581D01*
X955042Y410212D01*
X980433Y422907D02*
X970277D01*
Y415290D01*
X975355Y417829D01*
X977894D01*
X980433Y415290D01*
Y410212D01*
X977894Y407673D01*
X972816D01*
X970277Y410212D01*
X697233Y715008D02*
X694694Y717548D01*
X689616D01*
X687077Y715008D01*
Y704852D01*
X689616Y702312D01*
X694694D01*
X697233Y704852D01*
X702312Y715008D02*
X704851Y717548D01*
X709929D01*
X712468Y715008D01*
Y712469D01*
X709929Y709930D01*
X707390D01*
X709929D01*
X712468Y707391D01*
Y704852D01*
X709929Y702312D01*
X704851D01*
X702312Y704852D01*
X725164Y702312D02*
Y717548D01*
X717547Y709930D01*
X727703D01*
X1172213Y927098D02*
X1169674Y929638D01*
X1164596D01*
X1162057Y927098D01*
Y916942D01*
X1164596Y914402D01*
X1169674D01*
X1172213Y916942D01*
X1177292Y927098D02*
X1179831Y929638D01*
X1184909D01*
X1187448Y927098D01*
Y924559D01*
X1184909Y922020D01*
X1182370D01*
X1184909D01*
X1187448Y919481D01*
Y916942D01*
X1184909Y914402D01*
X1179831D01*
X1177292Y916942D01*
X1192527Y927098D02*
X1195066Y929638D01*
X1200144D01*
X1202683Y927098D01*
Y924559D01*
X1200144Y922020D01*
X1197605D01*
X1200144D01*
X1202683Y919481D01*
Y916942D01*
X1200144Y914402D01*
X1195066D01*
X1192527Y916942D01*
X702313Y869948D02*
X699774Y872487D01*
X694696D01*
X692157Y869948D01*
Y859792D01*
X694696Y857253D01*
X699774D01*
X702313Y859792D01*
X707392Y869948D02*
X709931Y872487D01*
X715009D01*
X717548Y869948D01*
Y867409D01*
X715009Y864870D01*
X712470D01*
X715009D01*
X717548Y862331D01*
Y859792D01*
X715009Y857253D01*
X709931D01*
X707392Y859792D01*
X732783Y857253D02*
X722627D01*
X732783Y867409D01*
Y869948D01*
X730244Y872487D01*
X725166D01*
X722627Y869948D01*
X1019812Y821688D02*
X1017273Y824228D01*
X1012195D01*
X1009656Y821688D01*
Y811532D01*
X1012195Y808992D01*
X1017273D01*
X1019812Y811532D01*
X1024891Y821688D02*
X1027430Y824228D01*
X1032508D01*
X1035048Y821688D01*
Y819149D01*
X1032508Y816610D01*
X1029969D01*
X1032508D01*
X1035048Y814071D01*
Y811532D01*
X1032508Y808992D01*
X1027430D01*
X1024891Y811532D01*
X1040126Y808992D02*
X1045204D01*
X1042665D01*
Y824228D01*
X1040126Y821688D01*
X842012Y643893D02*
X839473Y641354D01*
Y636276D01*
X842012Y633737D01*
X852168D01*
X854707Y636276D01*
Y641354D01*
X852168Y643893D01*
X842012Y648972D02*
X839473Y651511D01*
Y656589D01*
X842012Y659128D01*
X844551D01*
X847090Y656589D01*
Y654050D01*
Y656589D01*
X849629Y659128D01*
X852168D01*
X854707Y656589D01*
Y651511D01*
X852168Y648972D01*
X842012Y664207D02*
X839473Y666746D01*
Y671824D01*
X842012Y674363D01*
X852168D01*
X854707Y671824D01*
Y666746D01*
X852168Y664207D01*
X842012D01*
X820422Y643893D02*
X817883Y641354D01*
Y636276D01*
X820422Y633737D01*
X830578D01*
X833118Y636276D01*
Y641354D01*
X830578Y643893D01*
X833118Y659128D02*
Y648972D01*
X822961Y659128D01*
X820422D01*
X817883Y656589D01*
Y651511D01*
X820422Y648972D01*
X830578Y664207D02*
X833118Y666746D01*
Y671824D01*
X830578Y674363D01*
X820422D01*
X817883Y671824D01*
Y666746D01*
X820422Y664207D01*
X822961D01*
X825500Y666746D01*
Y674363D01*
X1059183Y741678D02*
X1056644Y744218D01*
X1051566D01*
X1049027Y741678D01*
Y731522D01*
X1051566Y728982D01*
X1056644D01*
X1059183Y731522D01*
X1074418Y728982D02*
X1064262D01*
X1074418Y739139D01*
Y741678D01*
X1071879Y744218D01*
X1066801D01*
X1064262Y741678D01*
X1079497D02*
X1082036Y744218D01*
X1087114D01*
X1089653Y741678D01*
Y739139D01*
X1087114Y736600D01*
X1089653Y734061D01*
Y731522D01*
X1087114Y728982D01*
X1082036D01*
X1079497Y731522D01*
Y734061D01*
X1082036Y736600D01*
X1079497Y739139D01*
Y741678D01*
X1082036Y736600D02*
X1087114D01*
X1060453Y824228D02*
X1057914Y826768D01*
X1052836D01*
X1050297Y824228D01*
Y814072D01*
X1052836Y811533D01*
X1057914D01*
X1060453Y814072D01*
X1075688Y811533D02*
X1065532D01*
X1075688Y821689D01*
Y824228D01*
X1073149Y826768D01*
X1068071D01*
X1065532Y824228D01*
X1080767Y826768D02*
X1090923D01*
Y824228D01*
X1080767Y814072D01*
Y811533D01*
X1078233Y897888D02*
X1075694Y900427D01*
X1070616D01*
X1068077Y897888D01*
Y887732D01*
X1070616Y885192D01*
X1075694D01*
X1078233Y887732D01*
X1093468Y885192D02*
X1083312D01*
X1093468Y895349D01*
Y897888D01*
X1090929Y900427D01*
X1085851D01*
X1083312Y897888D01*
X1108703Y900427D02*
X1103625Y897888D01*
X1098547Y892810D01*
Y887732D01*
X1101086Y885192D01*
X1106164D01*
X1108703Y887732D01*
Y890271D01*
X1106164Y892810D01*
X1098547D01*
X939803Y588008D02*
X937264Y590548D01*
X932186D01*
X929647Y588008D01*
Y577852D01*
X932186Y575312D01*
X937264D01*
X939803Y577852D01*
X955038Y575312D02*
X944882D01*
X955038Y585469D01*
Y588008D01*
X952499Y590548D01*
X947421D01*
X944882Y588008D01*
X970274Y590548D02*
X960117D01*
Y582930D01*
X965195Y585469D01*
X967734D01*
X970274Y582930D01*
Y577852D01*
X967734Y575312D01*
X962656D01*
X960117Y577852D01*
X939803Y567688D02*
X937264Y570228D01*
X932186D01*
X929647Y567688D01*
Y557532D01*
X932186Y554992D01*
X937264D01*
X939803Y557532D01*
X955038Y554992D02*
X944882D01*
X955038Y565149D01*
Y567688D01*
X952499Y570228D01*
X947421D01*
X944882Y567688D01*
X967734Y554992D02*
Y570228D01*
X960117Y562610D01*
X970274D01*
X939803Y548638D02*
X937264Y551178D01*
X932186D01*
X929647Y548638D01*
Y538482D01*
X932186Y535942D01*
X937264D01*
X939803Y538482D01*
X955038Y535942D02*
X944882D01*
X955038Y546099D01*
Y548638D01*
X952499Y551178D01*
X947421D01*
X944882Y548638D01*
X960117D02*
X962656Y551178D01*
X967734D01*
X970274Y548638D01*
Y546099D01*
X967734Y543560D01*
X965195D01*
X967734D01*
X970274Y541021D01*
Y538482D01*
X967734Y535942D01*
X962656D01*
X960117Y538482D01*
X939803Y528318D02*
X937264Y530858D01*
X932186D01*
X929647Y528318D01*
Y518162D01*
X932186Y515622D01*
X937264D01*
X939803Y518162D01*
X955038Y515622D02*
X944882D01*
X955038Y525779D01*
Y528318D01*
X952499Y530858D01*
X947421D01*
X944882Y528318D01*
X970274Y515622D02*
X960117D01*
X970274Y525779D01*
Y528318D01*
X967734Y530858D01*
X962656D01*
X960117Y528318D01*
X914402Y646432D02*
X911862Y643893D01*
Y638815D01*
X914402Y636276D01*
X924558D01*
X927097Y638815D01*
Y643893D01*
X924558Y646432D01*
X927097Y661667D02*
Y651511D01*
X916941Y661667D01*
X914402D01*
X911862Y659128D01*
Y654050D01*
X914402Y651511D01*
X927097Y666746D02*
Y671824D01*
Y669285D01*
X911862D01*
X914402Y666746D01*
X891542Y642623D02*
X889003Y640084D01*
Y635006D01*
X891542Y632467D01*
X901698D01*
X904238Y635006D01*
Y640084D01*
X901698Y642623D01*
X904238Y657858D02*
Y647702D01*
X894081Y657858D01*
X891542D01*
X889003Y655319D01*
Y650241D01*
X891542Y647702D01*
Y662937D02*
X889003Y665476D01*
Y670554D01*
X891542Y673093D01*
X901698D01*
X904238Y670554D01*
Y665476D01*
X901698Y662937D01*
X891542D01*
X866142Y645163D02*
X863602Y642624D01*
Y637545D01*
X866142Y635006D01*
X876298D01*
X878838Y637545D01*
Y642624D01*
X876298Y645163D01*
X878838Y650241D02*
Y655320D01*
Y652780D01*
X863602D01*
X866142Y650241D01*
X876298Y662937D02*
X878838Y665476D01*
Y670555D01*
X876298Y673094D01*
X866142D01*
X863602Y670555D01*
Y665476D01*
X866142Y662937D01*
X868681D01*
X871220Y665476D01*
Y673094D01*
X1093473Y35558D02*
X1090934Y38098D01*
X1085855D01*
X1083316Y35558D01*
Y25402D01*
X1085855Y22863D01*
X1090934D01*
X1093473Y25402D01*
X1098551Y22863D02*
X1103630D01*
X1101090D01*
Y38098D01*
X1098551Y35558D01*
X1111247D02*
X1113786Y38098D01*
X1118865D01*
X1121404Y35558D01*
Y33019D01*
X1118865Y30480D01*
X1121404Y27941D01*
Y25402D01*
X1118865Y22863D01*
X1113786D01*
X1111247Y25402D01*
Y27941D01*
X1113786Y30480D01*
X1111247Y33019D01*
Y35558D01*
X1113786Y30480D02*
X1118865D01*
X745493Y645158D02*
X742954Y647698D01*
X737875D01*
X735336Y645158D01*
Y635002D01*
X737875Y632463D01*
X742954D01*
X745493Y635002D01*
X750571Y632463D02*
X755650D01*
X753111D01*
Y647698D01*
X750571Y645158D01*
X763267Y647698D02*
X773424D01*
Y645158D01*
X763267Y635002D01*
Y632463D01*
X745493Y670558D02*
X742954Y673098D01*
X737875D01*
X735336Y670558D01*
Y660402D01*
X737875Y657862D01*
X742954D01*
X745493Y660402D01*
X750571Y657862D02*
X755650D01*
X753111D01*
Y673098D01*
X750571Y670558D01*
X773424Y673098D02*
X768345Y670558D01*
X763267Y665480D01*
Y660402D01*
X765806Y657862D01*
X770885D01*
X773424Y660402D01*
Y662941D01*
X770885Y665480D01*
X763267D01*
X641353Y666748D02*
X638814Y669287D01*
X633735D01*
X631196Y666748D01*
Y656592D01*
X633735Y654053D01*
X638814D01*
X641353Y656592D01*
X646431Y654053D02*
X651510D01*
X648970D01*
Y669287D01*
X646431Y666748D01*
X669284Y669287D02*
X659127D01*
Y661670D01*
X664205Y664209D01*
X666745D01*
X669284Y661670D01*
Y656592D01*
X666745Y654053D01*
X661666D01*
X659127Y656592D01*
X647703Y758188D02*
X645164Y760727D01*
X640085D01*
X637546Y758188D01*
Y748032D01*
X640085Y745492D01*
X645164D01*
X647703Y748032D01*
X652781Y745492D02*
X657860D01*
X655320D01*
Y760727D01*
X652781Y758188D01*
X673095Y745492D02*
Y760727D01*
X665477Y753110D01*
X675634D01*
X477522Y618493D02*
X474982Y615954D01*
Y610875D01*
X477522Y608336D01*
X487678D01*
X490218Y610875D01*
Y615954D01*
X487678Y618493D01*
X490218Y623571D02*
Y628650D01*
Y626110D01*
X474982D01*
X477522Y623571D01*
Y636267D02*
X474982Y638806D01*
Y643885D01*
X477522Y646424D01*
X480061D01*
X482600Y643885D01*
Y641346D01*
Y643885D01*
X485139Y646424D01*
X487678D01*
X490218Y643885D01*
Y638806D01*
X487678Y636267D01*
X562613Y618488D02*
X560074Y621027D01*
X554995D01*
X552456Y618488D01*
Y608332D01*
X554995Y605793D01*
X560074D01*
X562613Y608332D01*
X567691Y605793D02*
X572770D01*
X570230D01*
Y621027D01*
X567691Y618488D01*
X590544Y605793D02*
X580387D01*
X590544Y615949D01*
Y618488D01*
X588005Y621027D01*
X582926D01*
X580387Y618488D01*
X353062Y577852D02*
X350522Y575313D01*
Y570234D01*
X353062Y567695D01*
X363218D01*
X365757Y570234D01*
Y575313D01*
X363218Y577852D01*
X365757Y582930D02*
Y588009D01*
Y585470D01*
X350522D01*
X353062Y582930D01*
X365757Y595626D02*
Y600705D01*
Y598166D01*
X350522D01*
X353062Y595626D01*
X381002Y577853D02*
X378462Y575314D01*
Y570235D01*
X381002Y567696D01*
X391158D01*
X393698Y570235D01*
Y575314D01*
X391158Y577853D01*
X393698Y582931D02*
Y588010D01*
Y585470D01*
X378462D01*
X381002Y582931D01*
Y595627D02*
X378462Y598166D01*
Y603245D01*
X381002Y605784D01*
X391158D01*
X393698Y603245D01*
Y598166D01*
X391158Y595627D01*
X381002D01*
X364491Y839468D02*
X361952Y842008D01*
X356873D01*
X354334Y839468D01*
Y829312D01*
X356873Y826773D01*
X361952D01*
X364491Y829312D01*
X369569D02*
X372108Y826773D01*
X377187D01*
X379726Y829312D01*
Y839468D01*
X377187Y842008D01*
X372108D01*
X369569Y839468D01*
Y836929D01*
X372108Y834390D01*
X379726D01*
X398781Y839468D02*
X396242Y842008D01*
X391163D01*
X388624Y839468D01*
Y829312D01*
X391163Y826773D01*
X396242D01*
X398781Y829312D01*
X403859Y839468D02*
X406398Y842008D01*
X411477D01*
X414016Y839468D01*
Y836929D01*
X411477Y834390D01*
X414016Y831851D01*
Y829312D01*
X411477Y826773D01*
X406398D01*
X403859Y829312D01*
Y831851D01*
X406398Y834390D01*
X403859Y836929D01*
Y839468D01*
X406398Y834390D02*
X411477D01*
X563881Y660398D02*
X561342Y662937D01*
X556263D01*
X553724Y660398D01*
Y650242D01*
X556263Y647702D01*
X561342D01*
X563881Y650242D01*
X568959Y662937D02*
X579116D01*
Y660398D01*
X568959Y650242D01*
Y647702D01*
X563881Y640078D02*
X561342Y642617D01*
X556263D01*
X553724Y640078D01*
Y629922D01*
X556263Y627383D01*
X561342D01*
X563881Y629922D01*
X579116Y642617D02*
X574038Y640078D01*
X568959Y635000D01*
Y629922D01*
X571498Y627383D01*
X576577D01*
X579116Y629922D01*
Y632461D01*
X576577Y635000D01*
X568959D01*
X425451Y604518D02*
X422912Y607057D01*
X417833D01*
X415294Y604518D01*
Y594362D01*
X417833Y591823D01*
X422912D01*
X425451Y594362D01*
X440686Y607057D02*
X430529D01*
Y599440D01*
X435607Y601979D01*
X438147D01*
X440686Y599440D01*
Y594362D01*
X438147Y591823D01*
X433068D01*
X430529Y594362D01*
X556261Y927098D02*
X553722Y929638D01*
X548643D01*
X546104Y927098D01*
Y916942D01*
X548643Y914402D01*
X553722D01*
X556261Y916942D01*
X568957Y914402D02*
Y929638D01*
X561339Y922020D01*
X571496D01*
X665481Y819148D02*
X662942Y821688D01*
X657863D01*
X655324Y819148D01*
Y808992D01*
X657863Y806452D01*
X662942D01*
X665481Y808992D01*
X670559Y819148D02*
X673098Y821688D01*
X678177D01*
X680716Y819148D01*
Y816609D01*
X678177Y814070D01*
X675638D01*
X678177D01*
X680716Y811531D01*
Y808992D01*
X678177Y806452D01*
X673098D01*
X670559Y808992D01*
X632461Y825498D02*
X629922Y828038D01*
X624843D01*
X622304Y825498D01*
Y815342D01*
X624843Y812803D01*
X629922D01*
X632461Y815342D01*
X647696Y812803D02*
X637539D01*
X647696Y822959D01*
Y825498D01*
X645157Y828038D01*
X640078D01*
X637539Y825498D01*
X652780Y588008D02*
X650241Y590548D01*
X645163D01*
X642623Y588008D01*
Y577852D01*
X645163Y575312D01*
X650241D01*
X652780Y577852D01*
X657858Y575312D02*
X662937D01*
X660398D01*
Y590548D01*
X657858Y588008D01*
D14*
X455900Y102870D02*
G03*
X455900Y102870I-2000J0D01*
G01*
X246680D02*
G03*
X246680Y102870I-2000J0D01*
G01*
X1197070Y560580D02*
G03*
X1197070Y560580I-2000J0D01*
G01*
D15*
X801878Y421132D02*
G03*
X795782Y421132I-3048J0D01*
G01*
X625602Y683514D02*
G03*
X628142Y686054I0J2540D01*
G01*
Y795274D02*
G03*
X625602Y797814I-2540J0D01*
G01*
X579882Y686054D02*
G03*
X582422Y683514I2540J0D01*
G01*
Y797814D02*
G03*
X579882Y795274I0J-2540D01*
G01*
X732282Y847598D02*
G03*
X729742Y845058I0J-2540D01*
G01*
Y735838D02*
G03*
X732282Y733298I2540J0D01*
G01*
X778002Y845058D02*
G03*
X775462Y847598I-2540J0D01*
G01*
Y733298D02*
G03*
X778002Y735838I0J2540D01*
G01*
X180086Y782828D02*
G03*
X173990Y782828I-3048J0D01*
G01*
X782828Y508508D02*
X814832D01*
X801878Y421132D02*
X814832D01*
X795782D02*
X801878D01*
X782828D02*
X795782D01*
X912114Y456184D02*
X954786D01*
X912114Y509016D02*
X954786D01*
X628142Y686054D02*
Y795274D01*
X579882Y686054D02*
Y795274D01*
X729742Y735838D02*
Y845058D01*
X778002Y735838D02*
Y845058D01*
X163322Y782828D02*
X173990D01*
X180086D01*
X190754D01*
X163322Y832612D02*
X190754D01*
D16*
X617782Y663164D02*
G03*
X617782Y663164I-1270J0D01*
G01*
X742642Y867948D02*
G03*
X742642Y867948I-1270J0D01*
G01*
D17*
X239709Y867567D02*
Y880896D01*
X236377Y884228D01*
X229712D01*
X226380Y880896D01*
Y867567D01*
X229712Y864234D01*
X236377D01*
X233044Y870899D02*
X239709Y864234D01*
X236377D02*
X239709Y867567D01*
X246374Y864234D02*
Y884228D01*
X256370D01*
X259703Y880896D01*
Y874231D01*
X256370Y870899D01*
X246374D01*
X253038D02*
X259703Y864234D01*
X266367Y860902D02*
X279696D01*
X299690Y880896D02*
X296357Y884228D01*
X289693D01*
X286361Y880896D01*
Y877563D01*
X289693Y874231D01*
X296357D01*
X299690Y870899D01*
Y867567D01*
X296357Y864234D01*
X289693D01*
X286361Y867567D01*
X319683Y877563D02*
X309687D01*
X306354Y874231D01*
Y867567D01*
X309687Y864234D01*
X319683D01*
X329680Y877563D02*
X336345D01*
X339677Y874231D01*
Y864234D01*
X329680D01*
X326348Y867567D01*
X329680Y870899D01*
X339677D01*
X346341Y864234D02*
Y877563D01*
X356338D01*
X359670Y874231D01*
Y864234D01*
X366335D02*
Y877563D01*
X376332D01*
X379664Y874231D01*
Y864234D01*
X386329D02*
X392993D01*
X389661D01*
Y877563D01*
X386329D01*
X402990Y864234D02*
Y877563D01*
X412986D01*
X416319Y874231D01*
Y864234D01*
X429648Y857570D02*
X432980D01*
X436312Y860902D01*
Y877563D01*
X426316D01*
X422983Y874231D01*
Y867567D01*
X426316Y864234D01*
X436312D01*
X442977Y860902D02*
X456306D01*
X462970Y884228D02*
Y870899D01*
X469635Y864234D01*
X476300Y870899D01*
Y884228D01*
X482964Y864234D02*
X489628D01*
X486296D01*
Y884228D01*
X482964Y880896D01*
M02*
