G04*
G04 #@! TF.GenerationSoftware,Altium Limited,Altium Designer,25.4.2 (15)*
G04*
G04 Layer_Color=32896*
%FSLAX44Y44*%
%MOMM*%
G71*
G04*
G04 #@! TF.SameCoordinates,3ABA6FF2-A11C-483D-8B0F-7D0CBFE01766*
G04*
G04*
G04 #@! TF.FilePolarity,Positive*
G04*
G01*
G75*
G36*
X222008Y768588D02*
X221317D01*
Y768761D01*
X222008D01*
Y768588D01*
D02*
G37*
G36*
X220108D02*
X219935D01*
Y768761D01*
X220108D01*
Y768588D01*
D02*
G37*
G36*
X200074D02*
X199211D01*
Y768761D01*
X200074D01*
Y768588D01*
D02*
G37*
G36*
X192821Y763062D02*
X192648D01*
Y758053D01*
X192821D01*
Y753217D01*
X189885D01*
Y753390D01*
X189712D01*
Y759435D01*
X189885D01*
Y764098D01*
X190058D01*
Y765307D01*
X189367D01*
Y765134D01*
X189194D01*
Y764443D01*
X189021D01*
Y763752D01*
X188849D01*
Y762716D01*
X188676D01*
Y761853D01*
X188503D01*
Y760989D01*
X188330D01*
Y760126D01*
X188158D01*
Y759435D01*
X187985D01*
Y758744D01*
X187812D01*
Y758053D01*
X187640D01*
Y757190D01*
X187467D01*
Y756499D01*
X187294D01*
Y755635D01*
X187122D01*
Y754944D01*
X186949D01*
Y754081D01*
X186776D01*
Y753563D01*
X186604D01*
Y753390D01*
X186431D01*
Y753217D01*
X181940D01*
Y753390D01*
X181595D01*
Y768243D01*
X183840D01*
Y768070D01*
X184531D01*
Y764789D01*
Y764616D01*
Y761680D01*
X184358D01*
Y758053D01*
X184876D01*
Y758399D01*
X185049D01*
Y758571D01*
X185222D01*
Y759262D01*
X185394D01*
Y760126D01*
X185567D01*
Y761162D01*
X185740D01*
Y762025D01*
X185913D01*
Y763062D01*
X186085D01*
Y763925D01*
X186258D01*
Y764616D01*
X186431D01*
Y765307D01*
X186604D01*
Y765997D01*
X186776D01*
Y766688D01*
X186949D01*
Y767379D01*
X187122D01*
Y768243D01*
X192821D01*
Y763062D01*
D02*
G37*
G36*
X237551Y765997D02*
X237378D01*
Y755462D01*
X237206D01*
Y754944D01*
X237033D01*
Y754772D01*
X236860D01*
Y754599D01*
X236688D01*
Y754254D01*
X236515D01*
Y754081D01*
X236342D01*
Y753908D01*
X235997D01*
Y753736D01*
X235824D01*
Y753563D01*
X235479D01*
Y753390D01*
X235133D01*
Y753217D01*
X234442D01*
Y753045D01*
X233234D01*
Y752872D01*
X231506D01*
Y753045D01*
X230298D01*
Y753217D01*
X229779D01*
Y753390D01*
X229261D01*
Y753563D01*
X228916D01*
Y753736D01*
X228743D01*
Y753908D01*
X228570D01*
Y754081D01*
X228225D01*
Y754426D01*
X228052D01*
Y754599D01*
X227880D01*
Y754944D01*
X227707D01*
Y755290D01*
X227534D01*
Y756153D01*
X227362D01*
Y762198D01*
Y762371D01*
Y767379D01*
X227189D01*
Y768070D01*
X227362D01*
Y768243D01*
X231161D01*
Y768070D01*
X231334D01*
Y765997D01*
X231161D01*
Y762371D01*
X231334D01*
Y755808D01*
X231506D01*
Y755635D01*
X231679D01*
Y755462D01*
X232197D01*
Y755290D01*
X232715D01*
Y755462D01*
X233234D01*
Y755635D01*
X233406D01*
Y756153D01*
X233579D01*
Y768243D01*
X237551D01*
Y765997D01*
D02*
G37*
G36*
X213891Y768070D02*
X214927D01*
Y766688D01*
X214754D01*
Y766170D01*
X212336D01*
Y765997D01*
X211991D01*
Y753217D01*
X208019D01*
Y753390D01*
X207846D01*
Y754599D01*
X208019D01*
Y765479D01*
X207846D01*
Y765997D01*
X207673D01*
Y766170D01*
X206810D01*
Y765997D01*
X205601D01*
Y766170D01*
X205256D01*
Y766516D01*
X205083D01*
Y768070D01*
X205256D01*
Y768243D01*
X213891D01*
Y768070D01*
D02*
G37*
G36*
X222871Y768243D02*
X223908D01*
Y768070D01*
X224253D01*
Y767897D01*
X224598D01*
Y767725D01*
X224944D01*
Y767552D01*
X225116D01*
Y767379D01*
X225289D01*
Y767206D01*
X225462D01*
Y766861D01*
X225634D01*
Y766688D01*
X225807D01*
Y766343D01*
X225980D01*
Y763407D01*
X225807D01*
Y763062D01*
X225634D01*
Y762716D01*
X225462D01*
Y762371D01*
X225289D01*
Y762025D01*
X225116D01*
Y761853D01*
X224944D01*
Y761680D01*
X224771D01*
Y761507D01*
X224598D01*
Y761335D01*
X224426D01*
Y761162D01*
X224253D01*
Y760989D01*
X223908D01*
Y760816D01*
X223735D01*
Y760644D01*
X223562D01*
Y760471D01*
X223217D01*
Y760298D01*
X223044D01*
Y760126D01*
X222698D01*
Y759953D01*
X222526D01*
Y759780D01*
X222180D01*
Y759607D01*
X222008D01*
Y759435D01*
X221835D01*
Y759262D01*
X221490D01*
Y759089D01*
X221317D01*
Y758917D01*
X221144D01*
Y758744D01*
X220972D01*
Y758571D01*
X220799D01*
Y758399D01*
X220626D01*
Y758226D01*
X220453D01*
Y758053D01*
X220281D01*
Y757880D01*
X220108D01*
Y757535D01*
X219935D01*
Y757190D01*
X219763D01*
Y755981D01*
X219935D01*
Y755635D01*
X220281D01*
Y755462D01*
X220626D01*
Y755290D01*
X221317D01*
Y755462D01*
X221835D01*
Y755635D01*
X222008D01*
Y755981D01*
X222180D01*
Y758917D01*
X222526D01*
Y759089D01*
X225807D01*
Y758917D01*
X225980D01*
Y754944D01*
X225807D01*
Y754772D01*
X225634D01*
Y754426D01*
X225462D01*
Y754254D01*
X225289D01*
Y754081D01*
X225116D01*
Y753908D01*
X224771D01*
Y753736D01*
X224598D01*
Y753563D01*
X224253D01*
Y753390D01*
X223735D01*
Y753217D01*
X222871D01*
Y753045D01*
X221662D01*
Y752872D01*
X220281D01*
Y753045D01*
X219072D01*
Y753217D01*
X218381D01*
Y753390D01*
X217863D01*
Y753563D01*
X217517D01*
Y753736D01*
X217172D01*
Y753908D01*
X216999D01*
Y754081D01*
X216827D01*
Y754254D01*
X216654D01*
Y754426D01*
X216481D01*
Y754772D01*
X216308D01*
Y755117D01*
X216136D01*
Y755462D01*
X215963D01*
Y756499D01*
X215790D01*
Y758053D01*
X215963D01*
Y758744D01*
X216136D01*
Y759089D01*
X216308D01*
Y759435D01*
X216481D01*
Y759607D01*
X216654D01*
Y759780D01*
X216827D01*
Y760126D01*
X216999D01*
Y760298D01*
X217172D01*
Y760471D01*
X217345D01*
Y760644D01*
X217517D01*
Y760816D01*
X217690D01*
Y760989D01*
X217863D01*
Y761162D01*
X218208D01*
Y761335D01*
X218381D01*
Y761507D01*
X218554D01*
Y761680D01*
X218899D01*
Y761853D01*
X219072D01*
Y762025D01*
X219417D01*
Y762198D01*
X219590D01*
Y762371D01*
X219763D01*
Y762543D01*
X220108D01*
Y762716D01*
X220281D01*
Y762889D01*
X220626D01*
Y763062D01*
X220799D01*
Y763234D01*
X221144D01*
Y763407D01*
X221317D01*
Y763580D01*
X221490D01*
Y763925D01*
X221662D01*
Y764098D01*
X221835D01*
Y764270D01*
X222008D01*
Y764616D01*
X222180D01*
Y765479D01*
X222008D01*
Y765825D01*
X221835D01*
Y765997D01*
X221662D01*
Y766170D01*
X221317D01*
Y766343D01*
X220626D01*
Y766170D01*
X220281D01*
Y765997D01*
X220108D01*
Y765825D01*
X219935D01*
Y765652D01*
X219763D01*
Y763234D01*
X219590D01*
Y763062D01*
X219072D01*
Y762889D01*
X215963D01*
Y763062D01*
X215790D01*
Y765997D01*
X215963D01*
Y766516D01*
X216136D01*
Y766861D01*
X216308D01*
Y767034D01*
X216481D01*
Y767379D01*
X216654D01*
Y767552D01*
X216827D01*
Y767725D01*
X217172D01*
Y767897D01*
X217345D01*
Y768070D01*
X217863D01*
Y768243D01*
X219072D01*
Y768415D01*
X222871D01*
Y768243D01*
D02*
G37*
G36*
X200938D02*
X201629D01*
Y768070D01*
X202147D01*
Y767897D01*
X202492D01*
Y767725D01*
X202665D01*
Y767552D01*
X202838D01*
Y767379D01*
X203010D01*
Y767206D01*
X203183D01*
Y767034D01*
X203356D01*
Y766861D01*
X203528D01*
Y766516D01*
X203701D01*
Y766170D01*
X203874D01*
Y765825D01*
X204046D01*
Y764789D01*
X204219D01*
Y756672D01*
X204046D01*
Y755808D01*
X203874D01*
Y755290D01*
X203701D01*
Y754944D01*
X203528D01*
Y754772D01*
X203356D01*
Y754426D01*
X203183D01*
Y754254D01*
X203010D01*
Y754081D01*
X202838D01*
Y753908D01*
X202665D01*
Y753736D01*
X202320D01*
Y753563D01*
X201974D01*
Y753390D01*
X201456D01*
Y753217D01*
X200765D01*
Y753045D01*
X199902D01*
Y752872D01*
X198347D01*
Y753045D01*
X197138D01*
Y753217D01*
X196448D01*
Y753390D01*
X195930D01*
Y753563D01*
X195757D01*
Y753736D01*
X195411D01*
Y753908D01*
X195239D01*
Y754081D01*
X195066D01*
Y754254D01*
X194893D01*
Y754426D01*
X194720D01*
Y754599D01*
X194548D01*
Y754944D01*
X194375D01*
Y755290D01*
X194202D01*
Y755981D01*
X194030D01*
Y764270D01*
X194202D01*
Y766343D01*
X194375D01*
Y766688D01*
X194548D01*
Y767034D01*
X194720D01*
Y767206D01*
X194893D01*
Y767379D01*
X195066D01*
Y767552D01*
X195239D01*
Y767725D01*
X195584D01*
Y767897D01*
X195757D01*
Y768070D01*
X196275D01*
Y768243D01*
X197138D01*
Y768415D01*
X200938D01*
Y768243D01*
D02*
G37*
G36*
X197656Y750799D02*
X199556D01*
Y750627D01*
X199902D01*
Y747173D01*
X199556D01*
Y747000D01*
X199038D01*
Y747173D01*
X198693D01*
Y749591D01*
X198520D01*
Y749936D01*
X198175D01*
Y750109D01*
X197484D01*
Y749936D01*
X197311D01*
Y748727D01*
Y748554D01*
Y747173D01*
X196966D01*
Y747000D01*
X196448D01*
Y747173D01*
X196275D01*
Y749763D01*
X196102D01*
Y750109D01*
X195239D01*
Y749936D01*
X194893D01*
Y747691D01*
X195066D01*
Y747345D01*
X194893D01*
Y747173D01*
X194548D01*
Y747000D01*
X193684D01*
Y747691D01*
X193512D01*
Y748036D01*
X193684D01*
Y750109D01*
X193857D01*
Y750281D01*
X194030D01*
Y750454D01*
X194202D01*
Y750627D01*
X194375D01*
Y750799D01*
X194720D01*
Y750972D01*
X195757D01*
Y750799D01*
X196102D01*
Y750627D01*
X196793D01*
Y750799D01*
X197484D01*
Y750972D01*
X197656D01*
Y750799D01*
D02*
G37*
G36*
X234442D02*
X234788D01*
Y750627D01*
X235133D01*
Y750454D01*
X235306D01*
Y750281D01*
X235479D01*
Y750109D01*
X235651D01*
Y749936D01*
X235824D01*
Y749591D01*
X235651D01*
Y749418D01*
X235479D01*
Y749245D01*
X235306D01*
Y749072D01*
X235133D01*
Y748900D01*
X234788D01*
Y748727D01*
X234442D01*
Y748554D01*
X233752D01*
Y748382D01*
X233234D01*
Y747518D01*
X233406D01*
Y747345D01*
X233752D01*
Y747518D01*
X234097D01*
Y747691D01*
X234270D01*
Y747864D01*
X234442D01*
Y748036D01*
X234788D01*
Y748209D01*
X235479D01*
Y748382D01*
X235651D01*
Y748209D01*
X235824D01*
Y747691D01*
X235651D01*
Y747518D01*
X235479D01*
Y747345D01*
X235306D01*
Y747173D01*
X234960D01*
Y747000D01*
X234615D01*
Y746827D01*
X233061D01*
Y747000D01*
X232715D01*
Y747173D01*
X232543D01*
Y747345D01*
X232197D01*
Y747518D01*
X232025D01*
Y747691D01*
X231852D01*
Y748036D01*
X231679D01*
Y748382D01*
X231852D01*
Y748554D01*
X232197D01*
Y748727D01*
X232543D01*
Y748900D01*
X232715D01*
Y749072D01*
X233061D01*
Y749245D01*
X233579D01*
Y749418D01*
X234270D01*
Y749591D01*
X234442D01*
Y749936D01*
X234270D01*
Y750109D01*
X233406D01*
Y749936D01*
X233234D01*
Y749763D01*
X232888D01*
Y749591D01*
X232025D01*
Y750109D01*
X232197D01*
Y750281D01*
X232370D01*
Y750454D01*
X232543D01*
Y750627D01*
X232715D01*
Y750799D01*
X233234D01*
Y750972D01*
X234442D01*
Y750799D01*
D02*
G37*
G36*
X223044Y750972D02*
X223217D01*
Y750799D01*
X223389D01*
Y750627D01*
X223735D01*
Y750281D01*
X223217D01*
Y750109D01*
X223044D01*
Y747518D01*
X222871D01*
Y747345D01*
X222698D01*
Y747173D01*
X222526D01*
Y747000D01*
X222008D01*
Y746827D01*
X221490D01*
Y747000D01*
X221317D01*
Y747691D01*
X221490D01*
Y747864D01*
X221662D01*
Y748036D01*
X221835D01*
Y748209D01*
X222008D01*
Y748554D01*
X222180D01*
Y748727D01*
X221835D01*
Y749418D01*
X222008D01*
Y749763D01*
X221835D01*
Y749936D01*
X221662D01*
Y750109D01*
X221317D01*
Y750799D01*
X221490D01*
Y750972D01*
X221662D01*
Y751145D01*
X221835D01*
Y751318D01*
X222008D01*
Y751490D01*
X222180D01*
Y751663D01*
X223044D01*
Y750972D01*
D02*
G37*
G36*
X183668Y750799D02*
X184186D01*
Y750627D01*
X184358D01*
Y750454D01*
X184704D01*
Y750281D01*
X184876D01*
Y749936D01*
X185049D01*
Y749591D01*
X184876D01*
Y749418D01*
X184704D01*
Y749245D01*
X184531D01*
Y749072D01*
X184358D01*
Y748900D01*
X184013D01*
Y748727D01*
X183668D01*
Y748554D01*
X182977D01*
Y748382D01*
X182459D01*
Y747691D01*
X182286D01*
Y747518D01*
X182113D01*
Y747345D01*
X182631D01*
Y747518D01*
X183149D01*
Y747691D01*
X183495D01*
Y747864D01*
X183668D01*
Y748036D01*
X184013D01*
Y748209D01*
X184531D01*
Y748382D01*
X184876D01*
Y748209D01*
X185049D01*
Y747691D01*
X184876D01*
Y747345D01*
X184531D01*
Y747173D01*
X184358D01*
Y747000D01*
X183840D01*
Y746827D01*
X182286D01*
Y747000D01*
X181940D01*
Y747173D01*
X181595D01*
Y748900D01*
X182113D01*
Y749072D01*
X182286D01*
Y749245D01*
X182804D01*
Y749418D01*
X183495D01*
Y749591D01*
X183840D01*
Y749936D01*
X183668D01*
Y750109D01*
X182459D01*
Y749936D01*
X182286D01*
Y749763D01*
X181940D01*
Y749591D01*
X181768D01*
Y749418D01*
X181595D01*
Y750627D01*
X182113D01*
Y750799D01*
X182459D01*
Y750972D01*
X183668D01*
Y750799D01*
D02*
G37*
G36*
X211127D02*
X211646D01*
Y750627D01*
X211991D01*
Y750454D01*
X212164D01*
Y750281D01*
X212336D01*
Y750109D01*
X212509D01*
Y749936D01*
X212682D01*
Y749591D01*
X212854D01*
Y748036D01*
X212682D01*
Y747691D01*
X212509D01*
Y747518D01*
X212336D01*
Y747345D01*
X211991D01*
Y747173D01*
X211818D01*
Y747000D01*
X211473D01*
Y746827D01*
X210782D01*
Y746655D01*
X210609D01*
Y746827D01*
X209918D01*
Y747000D01*
X209573D01*
Y747173D01*
X209400D01*
Y747345D01*
X209228D01*
Y747518D01*
X209055D01*
Y747691D01*
X208882D01*
Y748036D01*
X208710D01*
Y749418D01*
Y749591D01*
Y749936D01*
X208882D01*
Y750109D01*
X209055D01*
Y750281D01*
X209228D01*
Y750454D01*
X209400D01*
Y750627D01*
X209746D01*
Y750799D01*
X210091D01*
Y750972D01*
X211127D01*
Y750799D01*
D02*
G37*
G36*
X244286Y768588D02*
X244114D01*
Y768761D01*
X244286D01*
Y768588D01*
D02*
G37*
G36*
X243250D02*
X243078D01*
Y768761D01*
X243250D01*
Y768588D01*
D02*
G37*
G36*
X282281Y768070D02*
X290053D01*
Y765997D01*
X289880D01*
Y767206D01*
X289708D01*
Y765134D01*
X289535D01*
Y763234D01*
Y763062D01*
Y762889D01*
X289708D01*
Y764098D01*
X289880D01*
Y765134D01*
X290053D01*
Y753908D01*
X289535D01*
Y753736D01*
X271574D01*
Y753908D01*
X271401D01*
Y754081D01*
X271056D01*
Y754426D01*
X270883D01*
Y754599D01*
X270710D01*
Y755635D01*
X270883D01*
Y755981D01*
X271056D01*
Y756153D01*
X271228D01*
Y756326D01*
X271401D01*
Y756499D01*
X271746D01*
Y756672D01*
X283318D01*
Y756844D01*
X283490D01*
Y757190D01*
X283663D01*
Y763234D01*
X283490D01*
Y763407D01*
X283145D01*
Y763580D01*
X278827D01*
Y768243D01*
X281936D01*
Y768070D01*
X282109D01*
Y768243D01*
X282281D01*
Y768070D01*
D02*
G37*
G36*
X290053Y765307D02*
X289880D01*
Y765825D01*
X290053D01*
Y765307D01*
D02*
G37*
G36*
X276755Y768070D02*
X277100D01*
Y767725D01*
X276928D01*
Y767552D01*
Y767379D01*
Y763407D01*
X276755D01*
Y763234D01*
X263802D01*
Y763407D01*
X263629D01*
Y768070D01*
X263802D01*
Y768243D01*
X276755D01*
Y768070D01*
D02*
G37*
G36*
X260348D02*
X260521D01*
Y753390D01*
X260348D01*
Y753217D01*
X256549D01*
Y753390D01*
X256376D01*
Y760126D01*
X256549D01*
Y760298D01*
X256376D01*
Y760471D01*
X254131D01*
Y753390D01*
X253958D01*
Y753217D01*
X250159D01*
Y755808D01*
X250331D01*
Y766688D01*
X250159D01*
Y768243D01*
X254131D01*
Y762889D01*
X254303D01*
Y762716D01*
X256376D01*
Y768243D01*
X260348D01*
Y768070D01*
D02*
G37*
G36*
X281072Y761335D02*
X281763D01*
Y761162D01*
X282109D01*
Y760989D01*
X282281D01*
Y760816D01*
X282454D01*
Y760644D01*
X282627D01*
Y760471D01*
X282799D01*
Y759607D01*
X282627D01*
Y759262D01*
X282454D01*
Y759089D01*
X282281D01*
Y758917D01*
X282109D01*
Y758744D01*
X281936D01*
Y758571D01*
X281590D01*
Y758399D01*
X269674D01*
Y758226D01*
X269501D01*
Y752009D01*
X269847D01*
Y751836D01*
X271401D01*
Y751663D01*
X271574D01*
Y751836D01*
X271746D01*
Y751663D01*
X274682D01*
Y751836D01*
X276237D01*
Y751663D01*
X276928D01*
Y747345D01*
X276755D01*
Y747173D01*
X263802D01*
Y747345D01*
X263629D01*
Y761162D01*
X263802D01*
Y761335D01*
X264320D01*
Y761507D01*
X266911D01*
Y761335D01*
X267083D01*
Y761507D01*
X267256D01*
Y761335D01*
X267429D01*
Y761507D01*
X281072D01*
Y761335D01*
D02*
G37*
G36*
X245841Y768243D02*
X246532D01*
Y768070D01*
X247050D01*
Y767897D01*
X247222D01*
Y767725D01*
X247568D01*
Y767552D01*
X247741D01*
Y767379D01*
X247913D01*
Y767206D01*
X248086D01*
Y767034D01*
X248259D01*
Y766861D01*
X248431D01*
Y766516D01*
X248604D01*
Y766170D01*
X248777D01*
Y765479D01*
X248950D01*
Y756326D01*
X248777D01*
Y755462D01*
X248604D01*
Y755117D01*
X248431D01*
Y754772D01*
X248259D01*
Y754599D01*
X248086D01*
Y754426D01*
X247913D01*
Y754081D01*
X247568D01*
Y753908D01*
X247395D01*
Y753736D01*
X247222D01*
Y753563D01*
X246877D01*
Y753390D01*
X246359D01*
Y753217D01*
X245668D01*
Y753045D01*
X244632D01*
Y752872D01*
X242905D01*
Y753045D01*
X241869D01*
Y753217D01*
X241178D01*
Y753390D01*
X240833D01*
Y753563D01*
X240487D01*
Y753736D01*
X240142D01*
Y753908D01*
X239969D01*
Y754081D01*
X239796D01*
Y754254D01*
X239624D01*
Y754426D01*
X239451D01*
Y754772D01*
X239278D01*
Y754944D01*
X239105D01*
Y755290D01*
X238933D01*
Y755808D01*
X238760D01*
Y765652D01*
X238933D01*
Y766170D01*
X239105D01*
Y766516D01*
X239278D01*
Y766861D01*
X239451D01*
Y767034D01*
X239624D01*
Y767206D01*
X239796D01*
Y767379D01*
X239969D01*
Y767552D01*
X240142D01*
Y767725D01*
X240314D01*
Y767897D01*
X240660D01*
Y768070D01*
X241005D01*
Y768243D01*
X241869D01*
Y768415D01*
X245841D01*
Y768243D01*
D02*
G37*
G36*
X289880Y751490D02*
X290053D01*
Y749763D01*
X289880D01*
Y751318D01*
X289708D01*
Y748209D01*
X289880D01*
Y748382D01*
X290053D01*
Y747345D01*
X289189D01*
Y747173D01*
X278827D01*
Y751663D01*
X289880D01*
Y751490D01*
D02*
G37*
G36*
X290053Y749418D02*
X289880D01*
Y749591D01*
X290053D01*
Y749418D01*
D02*
G37*
G36*
Y749072D02*
X289880D01*
Y749245D01*
X290053D01*
Y749072D01*
D02*
G37*
G36*
X248259Y750281D02*
X248086D01*
Y749936D01*
X247913D01*
Y749418D01*
X247741D01*
Y748900D01*
X247568D01*
Y748554D01*
X247395D01*
Y748382D01*
X247222D01*
Y747864D01*
X247050D01*
Y747691D01*
X246877D01*
Y747345D01*
X246704D01*
Y747173D01*
X246532D01*
Y747000D01*
X246877D01*
Y746827D01*
X247050D01*
Y746655D01*
X247222D01*
Y746482D01*
X247395D01*
Y746309D01*
X247568D01*
Y745964D01*
X247741D01*
Y745273D01*
X247050D01*
Y745446D01*
X246704D01*
Y745618D01*
X246532D01*
Y745791D01*
X246359D01*
Y745964D01*
X246186D01*
Y746136D01*
X246014D01*
Y746482D01*
X245841D01*
Y746827D01*
X245668D01*
Y747000D01*
X245495D01*
Y747518D01*
X245323D01*
Y748036D01*
X245150D01*
Y748209D01*
X244977D01*
Y748554D01*
X244805D01*
Y748900D01*
X244632D01*
Y749418D01*
X244459D01*
Y749763D01*
X244286D01*
Y750109D01*
X244114D01*
Y750454D01*
X243941D01*
Y750627D01*
X244114D01*
Y750799D01*
X244805D01*
Y750627D01*
X245323D01*
Y750454D01*
X245495D01*
Y749072D01*
Y748900D01*
Y748727D01*
X245668D01*
Y748900D01*
X245841D01*
Y749072D01*
X246532D01*
Y748900D01*
X246704D01*
Y749591D01*
X246877D01*
Y750454D01*
X247050D01*
Y750627D01*
X247222D01*
Y750799D01*
X248259D01*
Y750281D01*
D02*
G37*
G36*
X259139Y750799D02*
X259485D01*
Y750627D01*
X259830D01*
Y750454D01*
X260003D01*
Y750281D01*
X260175D01*
Y750109D01*
X260348D01*
Y749936D01*
X260521D01*
Y749763D01*
X260348D01*
Y749418D01*
X260175D01*
Y749245D01*
X260003D01*
Y749072D01*
X259830D01*
Y748900D01*
X259485D01*
Y748727D01*
X258966D01*
Y748554D01*
X258276D01*
Y748382D01*
X257930D01*
Y747518D01*
X258794D01*
Y747691D01*
X258966D01*
Y747864D01*
X259139D01*
Y748036D01*
X259485D01*
Y748209D01*
X260175D01*
Y748382D01*
X260348D01*
Y748209D01*
X260521D01*
Y747518D01*
X260348D01*
Y747345D01*
X260003D01*
Y747173D01*
X259657D01*
Y747000D01*
X259312D01*
Y746827D01*
X257585D01*
Y747000D01*
X257412D01*
Y747173D01*
X257239D01*
Y747345D01*
X256894D01*
Y747518D01*
X256721D01*
Y747691D01*
X256549D01*
Y748554D01*
X256894D01*
Y748727D01*
X257239D01*
Y748900D01*
X257412D01*
Y749072D01*
X257585D01*
Y749245D01*
X258103D01*
Y749418D01*
X258966D01*
Y749591D01*
X259139D01*
Y750109D01*
X258103D01*
Y749936D01*
X257757D01*
Y749763D01*
X257412D01*
Y749591D01*
X256721D01*
Y750109D01*
X256894D01*
Y750281D01*
X257067D01*
Y750454D01*
X257239D01*
Y750627D01*
X257412D01*
Y750799D01*
X257757D01*
Y750972D01*
X259139D01*
Y750799D01*
D02*
G37*
%LPC*%
G36*
X199384Y766343D02*
X198520D01*
Y766170D01*
X198347D01*
Y765997D01*
X198175D01*
Y765825D01*
X198002D01*
Y765479D01*
X197829D01*
Y762025D01*
Y761853D01*
Y756153D01*
X198002D01*
Y755635D01*
X198175D01*
Y755462D01*
X198693D01*
Y755290D01*
X199211D01*
Y755462D01*
X199902D01*
Y755808D01*
X200074D01*
Y765825D01*
X199902D01*
Y765997D01*
X199729D01*
Y766170D01*
X199384D01*
Y766343D01*
D02*
G37*
G36*
X182113Y747345D02*
X181940D01*
Y747173D01*
X182113D01*
Y747345D01*
D02*
G37*
G36*
X211473Y750109D02*
X210091D01*
Y749936D01*
X209918D01*
Y749418D01*
X211473D01*
Y750109D01*
D02*
G37*
G36*
X211127Y748727D02*
X209055D01*
Y748554D01*
X209228D01*
Y748382D01*
X209573D01*
Y748209D01*
X209746D01*
Y748036D01*
X209918D01*
Y747864D01*
X210264D01*
Y747691D01*
X210609D01*
Y747518D01*
X210955D01*
Y747691D01*
X211300D01*
Y747864D01*
X211473D01*
Y748209D01*
X211646D01*
Y748554D01*
X211127D01*
Y748727D01*
D02*
G37*
G36*
X289708Y762716D02*
X289535D01*
Y762543D01*
X289708D01*
Y762716D01*
D02*
G37*
G36*
Y758399D02*
X289535D01*
Y754426D01*
X289708D01*
Y754599D01*
X289880D01*
Y756672D01*
X289708D01*
Y758399D01*
D02*
G37*
G36*
X244114Y766343D02*
X243596D01*
Y766170D01*
X243078D01*
Y765997D01*
X242905D01*
Y765652D01*
X242732D01*
Y755808D01*
X242905D01*
Y755635D01*
X243078D01*
Y755462D01*
X243423D01*
Y755290D01*
X244114D01*
Y755462D01*
X244632D01*
Y755635D01*
X244805D01*
Y755808D01*
X244977D01*
Y762025D01*
Y762198D01*
Y765479D01*
X244805D01*
Y765825D01*
X244632D01*
Y765997D01*
X244459D01*
Y766170D01*
X244114D01*
Y766343D01*
D02*
G37*
G36*
X245495Y748727D02*
X245323D01*
Y748382D01*
X245495D01*
Y748727D01*
D02*
G37*
%LPD*%
M02*
