G04*
G04 #@! TF.GenerationSoftware,Altium Limited,Altium Designer,25.4.2 (15)*
G04*
G04 Layer_Color=255*
%FSLAX44Y44*%
%MOMM*%
G71*
G04*
G04 #@! TF.SameCoordinates,3ABA6FF2-A11C-483D-8B0F-7D0CBFE01766*
G04*
G04*
G04 #@! TF.FilePolarity,Positive*
G04*
G01*
G75*
%ADD18R,1.1500X1.1500*%
%ADD19R,0.2800X1.5600*%
%ADD20R,1.5600X0.2800*%
%ADD21R,1.1500X1.4500*%
%ADD22R,1.5000X2.1200*%
%ADD23R,1.4500X1.1500*%
%ADD24R,3.0200X1.3400*%
%ADD25R,1.1600X1.8200*%
G04:AMPARAMS|DCode=26|XSize=1.12mm|YSize=0.6mm|CornerRadius=0.075mm|HoleSize=0mm|Usage=FLASHONLY|Rotation=90.000|XOffset=0mm|YOffset=0mm|HoleType=Round|Shape=RoundedRectangle|*
%AMROUNDEDRECTD26*
21,1,1.1200,0.4500,0,0,90.0*
21,1,0.9700,0.6000,0,0,90.0*
1,1,0.1500,0.2250,0.4850*
1,1,0.1500,0.2250,-0.4850*
1,1,0.1500,-0.2250,-0.4850*
1,1,0.1500,-0.2250,0.4850*
%
%ADD26ROUNDEDRECTD26*%
G04:AMPARAMS|DCode=27|XSize=0.86mm|YSize=1.36mm|CornerRadius=0.215mm|HoleSize=0mm|Usage=FLASHONLY|Rotation=0.000|XOffset=0mm|YOffset=0mm|HoleType=Round|Shape=RoundedRectangle|*
%AMROUNDEDRECTD27*
21,1,0.8600,0.9300,0,0,0.0*
21,1,0.4300,1.3600,0,0,0.0*
1,1,0.4300,0.2150,-0.4650*
1,1,0.4300,-0.2150,-0.4650*
1,1,0.4300,-0.2150,0.4650*
1,1,0.4300,0.2150,0.4650*
%
%ADD27ROUNDEDRECTD27*%
%ADD28R,2.1200X1.5000*%
G04:AMPARAMS|DCode=29|XSize=0.86mm|YSize=1.36mm|CornerRadius=0.215mm|HoleSize=0mm|Usage=FLASHONLY|Rotation=270.000|XOffset=0mm|YOffset=0mm|HoleType=Round|Shape=RoundedRectangle|*
%AMROUNDEDRECTD29*
21,1,0.8600,0.9300,0,0,270.0*
21,1,0.4300,1.3600,0,0,270.0*
1,1,0.4300,-0.4650,-0.2150*
1,1,0.4300,-0.4650,0.2150*
1,1,0.4300,0.4650,0.2150*
1,1,0.4300,0.4650,-0.2150*
%
%ADD29ROUNDEDRECTD29*%
%ADD30R,1.7300X1.1100*%
%ADD31R,1.5000X3.2000*%
%ADD32R,1.2000X1.4700*%
G04:AMPARAMS|DCode=33|XSize=1.32mm|YSize=0.59mm|CornerRadius=0.0738mm|HoleSize=0mm|Usage=FLASHONLY|Rotation=180.000|XOffset=0mm|YOffset=0mm|HoleType=Round|Shape=RoundedRectangle|*
%AMROUNDEDRECTD33*
21,1,1.3200,0.4425,0,0,180.0*
21,1,1.1725,0.5900,0,0,180.0*
1,1,0.1475,-0.5863,0.2213*
1,1,0.1475,0.5863,0.2213*
1,1,0.1475,0.5863,-0.2213*
1,1,0.1475,-0.5863,-0.2213*
%
%ADD33ROUNDEDRECTD33*%
%ADD34R,1.1500X1.1500*%
%ADD35R,1.1000X1.0000*%
G04:AMPARAMS|DCode=36|XSize=1.41mm|YSize=1.47mm|CornerRadius=0.1763mm|HoleSize=0mm|Usage=FLASHONLY|Rotation=180.000|XOffset=0mm|YOffset=0mm|HoleType=Round|Shape=RoundedRectangle|*
%AMROUNDEDRECTD36*
21,1,1.4100,1.1175,0,0,180.0*
21,1,1.0575,1.4700,0,0,180.0*
1,1,0.3525,-0.5288,0.5587*
1,1,0.3525,0.5288,0.5587*
1,1,0.3525,0.5288,-0.5587*
1,1,0.3525,-0.5288,-0.5587*
%
%ADD36ROUNDEDRECTD36*%
%ADD37R,1.5000X0.3000*%
%ADD38R,0.3000X1.5000*%
%ADD39R,1.7018X0.5334*%
%ADD40R,1.9812X0.5334*%
G04:AMPARAMS|DCode=41|XSize=1.84mm|YSize=3.19mm|CornerRadius=0.23mm|HoleSize=0mm|Usage=FLASHONLY|Rotation=0.000|XOffset=0mm|YOffset=0mm|HoleType=Round|Shape=RoundedRectangle|*
%AMROUNDEDRECTD41*
21,1,1.8400,2.7300,0,0,0.0*
21,1,1.3800,3.1900,0,0,0.0*
1,1,0.4600,0.6900,-1.3650*
1,1,0.4600,-0.6900,-1.3650*
1,1,0.4600,-0.6900,1.3650*
1,1,0.4600,0.6900,1.3650*
%
%ADD41ROUNDEDRECTD41*%
G04:AMPARAMS|DCode=42|XSize=1.84mm|YSize=0.93mm|CornerRadius=0.1163mm|HoleSize=0mm|Usage=FLASHONLY|Rotation=0.000|XOffset=0mm|YOffset=0mm|HoleType=Round|Shape=RoundedRectangle|*
%AMROUNDEDRECTD42*
21,1,1.8400,0.6975,0,0,0.0*
21,1,1.6075,0.9300,0,0,0.0*
1,1,0.2325,0.8038,-0.3488*
1,1,0.2325,-0.8038,-0.3488*
1,1,0.2325,-0.8038,0.3488*
1,1,0.2325,0.8038,0.3488*
%
%ADD42ROUNDEDRECTD42*%
%ADD43R,2.0000X5.5000*%
%ADD44R,7.5000X2.2000*%
%ADD45R,1.9812X0.5588*%
G04:AMPARAMS|DCode=46|XSize=1.45mm|YSize=0.59mm|CornerRadius=0.0738mm|HoleSize=0mm|Usage=FLASHONLY|Rotation=270.000|XOffset=0mm|YOffset=0mm|HoleType=Round|Shape=RoundedRectangle|*
%AMROUNDEDRECTD46*
21,1,1.4500,0.4425,0,0,270.0*
21,1,1.3025,0.5900,0,0,270.0*
1,1,0.1475,-0.2213,-0.6513*
1,1,0.1475,-0.2213,0.6513*
1,1,0.1475,0.2213,0.6513*
1,1,0.1475,0.2213,-0.6513*
%
%ADD46ROUNDEDRECTD46*%
%ADD47R,1.9000X1.3000*%
%ADD116R,3.0000X3.0000*%
%ADD117C,3.0000*%
%ADD118C,2.2500*%
%ADD119C,1.7550*%
%ADD120C,1.6500*%
%ADD121R,1.6500X1.6500*%
%ADD122C,1.8000*%
%ADD123R,1.8000X1.8000*%
%ADD124R,1.6500X1.6500*%
%ADD125C,1.4000*%
%ADD126R,1.4000X1.4000*%
%ADD127C,3.7500*%
%ADD128R,3.0000X3.0000*%
%ADD129C,1.7000*%
%ADD130R,1.7000X1.7000*%
%ADD131R,1.6080X1.6080*%
%ADD132C,1.6080*%
%ADD133C,3.2500*%
%ADD134C,1.8080*%
%ADD135C,2.5000*%
%ADD136C,0.5000*%
%ADD137C,7.0000*%
D18*
X1088390Y496890D02*
D03*
Y473390D02*
D03*
X565150Y102550D02*
D03*
Y126050D02*
D03*
X538480Y102550D02*
D03*
Y126050D02*
D03*
X688340Y102550D02*
D03*
Y126050D02*
D03*
X718820Y102230D02*
D03*
Y125730D02*
D03*
X577850Y841690D02*
D03*
Y865190D02*
D03*
X334010Y621980D02*
D03*
Y645480D02*
D03*
X607060Y841690D02*
D03*
Y865190D02*
D03*
X278130Y790890D02*
D03*
Y814390D02*
D03*
X309880Y621660D02*
D03*
Y645160D02*
D03*
X506730Y852490D02*
D03*
Y828990D02*
D03*
X519430Y250830D02*
D03*
Y227330D02*
D03*
X566420Y227010D02*
D03*
Y250510D02*
D03*
X498074Y250744D02*
D03*
Y227244D02*
D03*
X509270Y125730D02*
D03*
Y102230D02*
D03*
X671830Y227010D02*
D03*
Y250510D02*
D03*
X718820Y249560D02*
D03*
Y226060D02*
D03*
X650240Y227330D02*
D03*
Y250830D02*
D03*
X662940Y102550D02*
D03*
Y126050D02*
D03*
X488950Y984570D02*
D03*
Y961070D02*
D03*
X744474Y952632D02*
D03*
Y929132D02*
D03*
X764794D02*
D03*
Y952632D02*
D03*
X785114Y929132D02*
D03*
Y952632D02*
D03*
X1193800Y125730D02*
D03*
Y102230D02*
D03*
X957834Y930082D02*
D03*
Y953582D02*
D03*
X937514Y930082D02*
D03*
Y953582D02*
D03*
X917194Y930082D02*
D03*
Y953582D02*
D03*
X807974Y930082D02*
D03*
Y953582D02*
D03*
X828294Y930082D02*
D03*
Y953582D02*
D03*
X848614Y930082D02*
D03*
Y953582D02*
D03*
X868934Y930082D02*
D03*
Y953582D02*
D03*
X889254Y930082D02*
D03*
Y953582D02*
D03*
X712470Y777682D02*
D03*
Y801182D02*
D03*
X808990Y521970D02*
D03*
Y545470D02*
D03*
X805180Y384490D02*
D03*
Y407990D02*
D03*
X994410Y526100D02*
D03*
Y502600D02*
D03*
X740410Y501020D02*
D03*
Y477520D02*
D03*
X852170Y474980D02*
D03*
Y498480D02*
D03*
X994410Y437830D02*
D03*
Y461330D02*
D03*
X254000Y790890D02*
D03*
Y814390D02*
D03*
X1007110Y199070D02*
D03*
Y222570D02*
D03*
X1076960D02*
D03*
Y199070D02*
D03*
X1054100Y222570D02*
D03*
Y199070D02*
D03*
X1029970Y222570D02*
D03*
Y199070D02*
D03*
X1140460Y221620D02*
D03*
Y198120D02*
D03*
X848360Y205420D02*
D03*
Y228920D02*
D03*
X902970Y93030D02*
D03*
Y69530D02*
D03*
X801624Y685480D02*
D03*
Y708980D02*
D03*
D19*
X899482Y832502D02*
D03*
X894482D02*
D03*
X889482D02*
D03*
X884482D02*
D03*
X879482D02*
D03*
X874482D02*
D03*
X869482D02*
D03*
X864482D02*
D03*
X859482D02*
D03*
X854482D02*
D03*
X849482D02*
D03*
X844482D02*
D03*
Y748902D02*
D03*
X849482D02*
D03*
X854482D02*
D03*
X859482D02*
D03*
X864482D02*
D03*
X869482D02*
D03*
X874482D02*
D03*
X879482D02*
D03*
X884482D02*
D03*
X889482D02*
D03*
X894482D02*
D03*
X899482D02*
D03*
D20*
X830182Y818202D02*
D03*
Y813202D02*
D03*
Y808202D02*
D03*
Y803202D02*
D03*
Y798202D02*
D03*
Y793202D02*
D03*
Y788202D02*
D03*
Y783202D02*
D03*
Y778202D02*
D03*
Y773202D02*
D03*
Y768202D02*
D03*
Y763202D02*
D03*
X913782D02*
D03*
Y768202D02*
D03*
Y773202D02*
D03*
Y778202D02*
D03*
Y783202D02*
D03*
Y788202D02*
D03*
Y793202D02*
D03*
Y798202D02*
D03*
Y803202D02*
D03*
Y808202D02*
D03*
Y813202D02*
D03*
Y818202D02*
D03*
D21*
X71010Y554990D02*
D03*
X89010D02*
D03*
X515510Y635000D02*
D03*
X533510D02*
D03*
X515510Y657860D02*
D03*
X533510D02*
D03*
Y612140D02*
D03*
X515510D02*
D03*
X787434Y663956D02*
D03*
X805434D02*
D03*
X787290Y641096D02*
D03*
X805290D02*
D03*
X962262Y635762D02*
D03*
X944262D02*
D03*
Y658622D02*
D03*
X962262D02*
D03*
X944262Y684022D02*
D03*
X962262D02*
D03*
X944262Y706882D02*
D03*
X962262D02*
D03*
X1123840Y894080D02*
D03*
X1141840D02*
D03*
X1059942Y792480D02*
D03*
X1077942D02*
D03*
X1059942Y764540D02*
D03*
X1077942D02*
D03*
X1033382Y739140D02*
D03*
X1015382D02*
D03*
X971770Y439420D02*
D03*
X953770D02*
D03*
X1011030Y133350D02*
D03*
X993030D02*
D03*
D22*
X1055370Y463990D02*
D03*
Y506290D02*
D03*
X1148080Y258250D02*
D03*
Y300550D02*
D03*
D23*
X628650Y590660D02*
D03*
Y572660D02*
D03*
X635000Y861170D02*
D03*
Y843170D02*
D03*
X553720Y899270D02*
D03*
Y881270D02*
D03*
X429260Y640300D02*
D03*
Y622300D02*
D03*
X401320Y793640D02*
D03*
Y811640D02*
D03*
X375920Y793640D02*
D03*
Y811640D02*
D03*
X384810Y640190D02*
D03*
Y622190D02*
D03*
X358140Y640190D02*
D03*
Y622190D02*
D03*
X457200D02*
D03*
Y640190D02*
D03*
X646430Y774590D02*
D03*
Y792590D02*
D03*
Y707390D02*
D03*
Y689390D02*
D03*
X874522Y709422D02*
D03*
Y691422D02*
D03*
X897382Y709422D02*
D03*
Y691422D02*
D03*
X920242Y709642D02*
D03*
Y691642D02*
D03*
X823722Y691422D02*
D03*
Y709422D02*
D03*
X846582D02*
D03*
Y691422D02*
D03*
X710946Y841358D02*
D03*
Y823358D02*
D03*
Y738522D02*
D03*
Y756522D02*
D03*
X1024890Y520920D02*
D03*
Y502920D02*
D03*
Y443120D02*
D03*
Y461120D02*
D03*
X636270Y882430D02*
D03*
Y900430D02*
D03*
X722530Y934278D02*
D03*
Y952278D02*
D03*
X699516Y934466D02*
D03*
Y952466D02*
D03*
X674370Y934610D02*
D03*
Y952610D02*
D03*
X827786Y384556D02*
D03*
Y402556D02*
D03*
X231140Y791210D02*
D03*
Y809210D02*
D03*
X1093470Y271890D02*
D03*
Y253890D02*
D03*
X1005840Y269350D02*
D03*
Y251350D02*
D03*
X976630Y177910D02*
D03*
Y159910D02*
D03*
X949960Y177910D02*
D03*
Y159910D02*
D03*
X1070610Y271780D02*
D03*
Y253780D02*
D03*
X1117600Y271890D02*
D03*
Y253890D02*
D03*
X925830Y90280D02*
D03*
Y72280D02*
D03*
D24*
X669290Y838040D02*
D03*
Y868840D02*
D03*
X960120Y90330D02*
D03*
Y59530D02*
D03*
D25*
X1198390Y896620D02*
D03*
X1168890D02*
D03*
D26*
X595630Y593680D02*
D03*
X586480Y572180D02*
D03*
X604780D02*
D03*
D27*
X329340Y497840D02*
D03*
X348840D02*
D03*
X145640Y494030D02*
D03*
X126140D02*
D03*
D28*
X298890Y401320D02*
D03*
X341190D02*
D03*
X146880D02*
D03*
X104580D02*
D03*
X1096840Y548640D02*
D03*
X1054540D02*
D03*
Y422910D02*
D03*
X1096840D02*
D03*
D29*
X1116330Y217620D02*
D03*
Y198120D02*
D03*
X543560Y226470D02*
D03*
Y245970D02*
D03*
X695960Y224790D02*
D03*
Y244290D02*
D03*
X513080Y965610D02*
D03*
Y985110D02*
D03*
X782320Y544010D02*
D03*
Y524510D02*
D03*
X779780Y402180D02*
D03*
Y382680D02*
D03*
X824230Y226920D02*
D03*
Y207420D02*
D03*
X878840Y70260D02*
D03*
Y89760D02*
D03*
D30*
X880110Y465550D02*
D03*
Y499650D02*
D03*
D31*
X1157650Y510540D02*
D03*
X1115650D02*
D03*
Y459740D02*
D03*
X1157650D02*
D03*
D32*
X944662Y610362D02*
D03*
X961862D02*
D03*
D33*
X401310Y413360D02*
D03*
Y394360D02*
D03*
X381010Y403860D02*
D03*
X185440Y403200D02*
D03*
X205740Y393700D02*
D03*
Y412700D02*
D03*
D34*
X405760Y487680D02*
D03*
X429260D02*
D03*
X348300Y519430D02*
D03*
X324800D02*
D03*
X405760Y436880D02*
D03*
X429260D02*
D03*
X405760Y462280D02*
D03*
X429260D02*
D03*
X202880Y488950D02*
D03*
X226380D02*
D03*
X145100Y515620D02*
D03*
X121600D02*
D03*
X226380Y438150D02*
D03*
X202880D02*
D03*
X226380Y462280D02*
D03*
X202880D02*
D03*
X967928Y876808D02*
D03*
X991428D02*
D03*
X967928Y808228D02*
D03*
X991428D02*
D03*
X1112520Y919480D02*
D03*
X1136020D02*
D03*
X967928Y856488D02*
D03*
X991428D02*
D03*
Y828548D02*
D03*
X967928D02*
D03*
X991428Y769366D02*
D03*
X967928D02*
D03*
X991428Y788162D02*
D03*
X967928D02*
D03*
X991428Y746252D02*
D03*
X967928D02*
D03*
X1015172Y764540D02*
D03*
X1038672D02*
D03*
X1016122Y792480D02*
D03*
X1039622D02*
D03*
X1113470Y652780D02*
D03*
X1136970D02*
D03*
Y675640D02*
D03*
X1113470D02*
D03*
D35*
X459670Y576580D02*
D03*
X534670D02*
D03*
D36*
X281700Y467360D02*
D03*
Y441960D02*
D03*
X378700D02*
D03*
Y467360D02*
D03*
X78500D02*
D03*
Y441960D02*
D03*
X175500D02*
D03*
Y467360D02*
D03*
X580630Y172720D02*
D03*
Y198120D02*
D03*
X483630D02*
D03*
Y172720D02*
D03*
X730490D02*
D03*
Y198120D02*
D03*
X633490D02*
D03*
Y172720D02*
D03*
D37*
X546412Y778164D02*
D03*
Y773164D02*
D03*
Y768164D02*
D03*
Y763164D02*
D03*
Y758164D02*
D03*
Y753164D02*
D03*
Y748164D02*
D03*
Y743164D02*
D03*
Y738164D02*
D03*
Y733164D02*
D03*
Y728164D02*
D03*
Y723164D02*
D03*
Y718164D02*
D03*
Y713164D02*
D03*
Y708164D02*
D03*
Y703164D02*
D03*
X433012D02*
D03*
Y708164D02*
D03*
Y713164D02*
D03*
Y718164D02*
D03*
Y723164D02*
D03*
Y728164D02*
D03*
Y733164D02*
D03*
Y738164D02*
D03*
Y743164D02*
D03*
Y748164D02*
D03*
Y753164D02*
D03*
Y758164D02*
D03*
Y763164D02*
D03*
Y768164D02*
D03*
Y773164D02*
D03*
Y778164D02*
D03*
D38*
X527212Y683964D02*
D03*
X522212D02*
D03*
X517212D02*
D03*
X512212D02*
D03*
X507212D02*
D03*
X502212D02*
D03*
X497212D02*
D03*
X492212D02*
D03*
X487212D02*
D03*
X482212D02*
D03*
X477212D02*
D03*
X472212D02*
D03*
X467212D02*
D03*
X462212D02*
D03*
X457212D02*
D03*
X452212D02*
D03*
Y797364D02*
D03*
X457212D02*
D03*
X462212D02*
D03*
X467212D02*
D03*
X472212D02*
D03*
X477212D02*
D03*
X482212D02*
D03*
X487212D02*
D03*
X492212D02*
D03*
X497212D02*
D03*
X502212D02*
D03*
X507212D02*
D03*
X512212D02*
D03*
X517212D02*
D03*
X522212D02*
D03*
X527212D02*
D03*
D39*
X772922Y426720D02*
D03*
Y439420D02*
D03*
Y452120D02*
D03*
Y464820D02*
D03*
Y477520D02*
D03*
Y490220D02*
D03*
Y502920D02*
D03*
X824738D02*
D03*
Y490220D02*
D03*
Y477520D02*
D03*
Y464820D02*
D03*
Y452120D02*
D03*
Y439420D02*
D03*
Y426720D02*
D03*
D40*
X958088Y463550D02*
D03*
Y476250D02*
D03*
Y488950D02*
D03*
Y501650D02*
D03*
X908812D02*
D03*
Y488950D02*
D03*
Y476250D02*
D03*
Y463550D02*
D03*
D41*
X1059550Y85090D02*
D03*
D42*
X997850Y108090D02*
D03*
Y85090D02*
D03*
Y62090D02*
D03*
D43*
X604012Y693164D02*
D03*
Y788164D02*
D03*
X753872Y837948D02*
D03*
Y742948D02*
D03*
D44*
X948690Y264950D02*
D03*
Y204950D02*
D03*
D45*
X201676Y788670D02*
D03*
Y801370D02*
D03*
Y814070D02*
D03*
Y826770D02*
D03*
X152400D02*
D03*
Y814070D02*
D03*
Y801370D02*
D03*
Y788670D02*
D03*
D46*
X1028090Y273170D02*
D03*
X1037590D02*
D03*
X1047090D02*
D03*
Y250070D02*
D03*
X1037590D02*
D03*
X1028090D02*
D03*
D47*
X610360Y891980D02*
D03*
Y946980D02*
D03*
X578360D02*
D03*
Y891980D02*
D03*
D116*
X1193800Y296380D02*
D03*
X1195070Y511480D02*
D03*
D117*
X1193800Y246380D02*
D03*
X304800Y102870D02*
D03*
X354000D02*
D03*
X95580D02*
D03*
X144780D02*
D03*
X1168420Y706970D02*
D03*
Y863270D02*
D03*
X1195070Y411480D02*
D03*
Y460680D02*
D03*
D118*
X580390Y533070D02*
D03*
D119*
Y333070D02*
D03*
D120*
X52070Y789940D02*
D03*
Y764540D02*
D03*
Y739140D02*
D03*
Y713740D02*
D03*
Y688340D02*
D03*
X690880Y44450D02*
D03*
X716280D02*
D03*
X539750D02*
D03*
X565150D02*
D03*
D121*
X52070Y662940D02*
D03*
D122*
X72790Y618210D02*
D03*
X98190D02*
D03*
X123590D02*
D03*
X1153160Y113100D02*
D03*
Y38100D02*
D03*
D123*
X148990Y618210D02*
D03*
D124*
X665480Y44450D02*
D03*
X514350D02*
D03*
D125*
X67510Y513080D02*
D03*
X178870Y678180D02*
D03*
D126*
X92510Y513080D02*
D03*
X153870Y678180D02*
D03*
D127*
X39370Y180340D02*
D03*
X39281Y979094D02*
D03*
X1257300Y982980D02*
D03*
X731520Y579120D02*
D03*
D128*
X404800Y102870D02*
D03*
X195580D02*
D03*
D129*
X321310Y975360D02*
D03*
X295910D02*
D03*
X270510D02*
D03*
X379730Y974090D02*
D03*
X405130D02*
D03*
X430530D02*
D03*
X185420Y975360D02*
D03*
X160020D02*
D03*
X134620D02*
D03*
D130*
X245110D02*
D03*
X455930Y974090D02*
D03*
X109220Y975360D02*
D03*
D131*
X1135420Y829570D02*
D03*
D132*
X1110020Y816870D02*
D03*
X1135420Y804170D02*
D03*
X1110020Y791470D02*
D03*
X1135420Y778770D02*
D03*
X1110020Y766070D02*
D03*
X1135420Y753370D02*
D03*
X1110020Y740670D02*
D03*
D133*
X1198920Y842270D02*
D03*
Y727970D02*
D03*
D134*
X1239520Y851420D02*
D03*
Y718820D02*
D03*
Y826020D02*
D03*
Y744220D02*
D03*
D135*
X295600Y212320D02*
D03*
X415600D02*
D03*
Y334320D02*
D03*
X355600Y354320D02*
D03*
X295600Y334320D02*
D03*
X102560D02*
D03*
X162560Y354320D02*
D03*
X222560Y334320D02*
D03*
Y212320D02*
D03*
X102560D02*
D03*
D136*
X1225550Y36830D02*
D03*
X1244600Y81280D02*
D03*
X1225550Y73660D02*
D03*
X1264920Y36830D02*
D03*
X1217930Y54610D02*
D03*
X1271270D02*
D03*
X1264920Y73660D02*
D03*
X1244600Y27940D02*
D03*
D137*
Y54610D02*
D03*
M02*
