G04*
G04 #@! TF.GenerationSoftware,Altium Limited,Altium Designer,25.4.2 (15)*
G04*
G04 Layer_Color=16711935*
%FSLAX44Y44*%
%MOMM*%
G71*
G04*
G04 #@! TF.SameCoordinates,3ABA6FF2-A11C-483D-8B0F-7D0CBFE01766*
G04*
G04*
G04 #@! TF.FilePolarity,Negative*
G04*
G01*
G75*
%ADD78R,3.2032X3.2032*%
%ADD79C,3.2032*%
%ADD80C,2.4532*%
%ADD81C,1.9582*%
%ADD82C,1.8532*%
%ADD83R,1.8532X1.8532*%
%ADD84C,2.0032*%
%ADD85R,2.0032X2.0032*%
%ADD86R,1.8532X1.8532*%
%ADD87C,1.6032*%
%ADD88R,1.6032X1.6032*%
%ADD89C,3.9532*%
%ADD90R,3.2032X3.2032*%
%ADD91C,1.9032*%
%ADD92R,1.9032X1.9032*%
%ADD93R,1.8112X1.8112*%
%ADD94C,1.8112*%
%ADD95C,3.4532*%
%ADD96C,2.0112*%
%ADD97C,2.7032*%
%ADD98C,0.7032*%
%ADD99C,7.2032*%
%ADD100C,0.8532*%
%ADD101C,1.0532*%
%ADD102C,0.6032*%
%ADD103C,0.9532*%
D78*
X1193800Y296380D02*
D03*
X1195070Y511480D02*
D03*
D79*
X1193800Y246380D02*
D03*
X304800Y102870D02*
D03*
X354000D02*
D03*
X95580D02*
D03*
X144780D02*
D03*
X1168420Y706970D02*
D03*
Y863270D02*
D03*
X1195070Y411480D02*
D03*
Y460680D02*
D03*
D80*
X580390Y533070D02*
D03*
D81*
Y333070D02*
D03*
D82*
X52070Y789940D02*
D03*
Y764540D02*
D03*
Y739140D02*
D03*
Y713740D02*
D03*
Y688340D02*
D03*
X690880Y44450D02*
D03*
X716280D02*
D03*
X539750D02*
D03*
X565150D02*
D03*
D83*
X52070Y662940D02*
D03*
D84*
X72790Y618210D02*
D03*
X98190D02*
D03*
X123590D02*
D03*
X1153160Y113100D02*
D03*
Y38100D02*
D03*
D85*
X148990Y618210D02*
D03*
D86*
X665480Y44450D02*
D03*
X514350D02*
D03*
D87*
X67510Y513080D02*
D03*
X178870Y678180D02*
D03*
D88*
X92510Y513080D02*
D03*
X153870Y678180D02*
D03*
D89*
X39370Y180340D02*
D03*
X39281Y979094D02*
D03*
X1257300Y982980D02*
D03*
X731520Y579120D02*
D03*
D90*
X404800Y102870D02*
D03*
X195580D02*
D03*
D91*
X321310Y975360D02*
D03*
X295910D02*
D03*
X270510D02*
D03*
X379730Y974090D02*
D03*
X405130D02*
D03*
X430530D02*
D03*
X185420Y975360D02*
D03*
X160020D02*
D03*
X134620D02*
D03*
D92*
X245110D02*
D03*
X455930Y974090D02*
D03*
X109220Y975360D02*
D03*
D93*
X1135420Y829570D02*
D03*
D94*
X1110020Y816870D02*
D03*
X1135420Y804170D02*
D03*
X1110020Y791470D02*
D03*
X1135420Y778770D02*
D03*
X1110020Y766070D02*
D03*
X1135420Y753370D02*
D03*
X1110020Y740670D02*
D03*
D95*
X1198920Y842270D02*
D03*
Y727970D02*
D03*
D96*
X1239520Y851420D02*
D03*
Y718820D02*
D03*
Y826020D02*
D03*
Y744220D02*
D03*
D97*
X295600Y212320D02*
D03*
X415600D02*
D03*
Y334320D02*
D03*
X355600Y354320D02*
D03*
X295600Y334320D02*
D03*
X102560D02*
D03*
X162560Y354320D02*
D03*
X222560Y334320D02*
D03*
Y212320D02*
D03*
X102560D02*
D03*
D98*
X1225550Y36830D02*
D03*
X1244600Y81280D02*
D03*
X1225550Y73660D02*
D03*
X1264920Y36830D02*
D03*
X1217930Y54610D02*
D03*
X1271270D02*
D03*
X1264920Y73660D02*
D03*
X1244600Y27940D02*
D03*
X825500Y868680D02*
D03*
Y840740D02*
D03*
X474980Y739140D02*
D03*
X466090Y746854D02*
D03*
X458470Y727710D02*
D03*
X452120Y734060D02*
D03*
X784860Y939800D02*
D03*
X851662Y763778D02*
D03*
X844804Y772922D02*
D03*
D99*
X1244600Y54610D02*
D03*
D100*
X659007Y736521D02*
D03*
X641350Y736600D02*
D03*
X650240D02*
D03*
X356747Y927021D02*
D03*
Y939721D02*
D03*
Y951151D02*
D03*
X454537Y173911D02*
D03*
Y205661D02*
D03*
Y293291D02*
D03*
Y318691D02*
D03*
Y341551D02*
D03*
X386080Y523240D02*
D03*
X370840D02*
D03*
X312297Y505381D02*
D03*
X314837Y383461D02*
D03*
X265430Y384810D02*
D03*
X254000D02*
D03*
X276860D02*
D03*
X461010Y820420D02*
D03*
X459617Y713661D02*
D03*
X511687Y774621D02*
D03*
X467237Y761921D02*
D03*
X559947Y669211D02*
D03*
Y684451D02*
D03*
X528197Y761921D02*
D03*
X1079500Y852170D02*
D03*
X1069340D02*
D03*
X946150Y902970D02*
D03*
X1069340Y834390D02*
D03*
X1079500D02*
D03*
X835660Y904240D02*
D03*
X816610Y915670D02*
D03*
X925830Y899160D02*
D03*
X859790Y890270D02*
D03*
X880110Y896620D02*
D03*
X901700Y897890D02*
D03*
X657860Y928370D02*
D03*
X666750Y919480D02*
D03*
X656590Y941070D02*
D03*
X599440Y934720D02*
D03*
X621030D02*
D03*
X631190D02*
D03*
X567690Y906780D02*
D03*
X581739Y934597D02*
D03*
X590550Y934720D02*
D03*
X514350D02*
D03*
X474980Y930910D02*
D03*
X497840Y934720D02*
D03*
X539829Y935867D02*
D03*
X549989D02*
D03*
X560149D02*
D03*
X537210Y916940D02*
D03*
X497840D02*
D03*
X514350D02*
D03*
X800100Y801370D02*
D03*
X792480Y810260D02*
D03*
X792559Y821567D02*
D03*
X788670Y902970D02*
D03*
X836930Y855980D02*
D03*
X754380Y911860D02*
D03*
X777240Y876300D02*
D03*
X784860Y868680D02*
D03*
X792559Y860937D02*
D03*
X793627Y850821D02*
D03*
Y840661D02*
D03*
Y830501D02*
D03*
X815217Y849551D02*
D03*
Y839391D02*
D03*
Y829231D02*
D03*
X807720Y885190D02*
D03*
X798830Y894080D02*
D03*
X817880Y875030D02*
D03*
X878761Y624963D02*
D03*
X868601D02*
D03*
X858441D02*
D03*
X845741D02*
D03*
X835581D02*
D03*
X825421D02*
D03*
X910511Y722753D02*
D03*
X900351D02*
D03*
X890191D02*
D03*
X1088311Y624963D02*
D03*
X1078151D02*
D03*
X1067991D02*
D03*
X1056561D02*
D03*
X1046401D02*
D03*
X1036241D02*
D03*
X876423Y784939D02*
D03*
Y795099D02*
D03*
Y805259D02*
D03*
X694813Y731599D02*
D03*
Y741759D02*
D03*
Y751919D02*
D03*
X619760Y872490D02*
D03*
X453390Y668020D02*
D03*
X648970Y264160D02*
D03*
X514350Y811530D02*
D03*
X584200Y906780D02*
D03*
X607060D02*
D03*
X497840Y267970D02*
D03*
X490390Y716280D02*
D03*
X482600Y723900D02*
D03*
D101*
X914400Y999490D02*
D03*
X927100D02*
D03*
X939800D02*
D03*
X716280Y908050D02*
D03*
X731520D02*
D03*
X712470Y881380D02*
D03*
X740410D02*
D03*
X754380D02*
D03*
X768350D02*
D03*
X509270Y872490D02*
D03*
X652780Y641350D02*
D03*
Y628650D02*
D03*
Y615950D02*
D03*
X407670Y614680D02*
D03*
Y601980D02*
D03*
X341630Y778510D02*
D03*
X328930D02*
D03*
X316230D02*
D03*
X133350Y797560D02*
D03*
Y810260D02*
D03*
Y822960D02*
D03*
X1070610Y525780D02*
D03*
X1083310D02*
D03*
X1096010D02*
D03*
X893221Y374609D02*
D03*
X905921D02*
D03*
X918621D02*
D03*
X750570Y438150D02*
D03*
Y425450D02*
D03*
Y412750D02*
D03*
X989330Y298450D02*
D03*
X976630D02*
D03*
X963930D02*
D03*
X825500Y20320D02*
D03*
X812800D02*
D03*
X800100D02*
D03*
X996950Y17780D02*
D03*
X984250D02*
D03*
X971550D02*
D03*
X742950Y289560D02*
D03*
X730250D02*
D03*
X717550D02*
D03*
X607060Y194310D02*
D03*
Y207010D02*
D03*
Y219710D02*
D03*
X538480Y86360D02*
D03*
X688340Y86360D02*
D03*
X450850Y421640D02*
D03*
Y396240D02*
D03*
Y408940D02*
D03*
X699770Y908050D02*
D03*
X687070D02*
D03*
X673100D02*
D03*
X726440Y881380D02*
D03*
X902377Y441367D02*
D03*
X580390Y302260D02*
D03*
X942340Y113030D02*
D03*
X311150Y603250D02*
D03*
X335280D02*
D03*
X328930Y435610D02*
D03*
X942340Y595630D02*
D03*
X306070Y453390D02*
D03*
X106680Y452120D02*
D03*
X124460Y435610D02*
D03*
X125730Y408940D02*
D03*
X152400Y466090D02*
D03*
X342900Y463550D02*
D03*
X916940Y972820D02*
D03*
X786130D02*
D03*
X328930Y412750D02*
D03*
X850900Y440690D02*
D03*
X1099820Y673862D02*
D03*
X1099940Y654812D02*
D03*
D102*
X467360Y660400D02*
D03*
X473710Y654050D02*
D03*
X534670Y702310D02*
D03*
X527050Y704850D02*
D03*
X414020Y796290D02*
D03*
X427018Y674072D02*
D03*
X405130Y674370D02*
D03*
X604520Y594360D02*
D03*
X669290Y825500D02*
D03*
X529590Y886460D02*
D03*
X387350Y736600D02*
D03*
Y744220D02*
D03*
X302260Y801370D02*
D03*
X295910Y810260D02*
D03*
X744220Y939800D02*
D03*
X483870Y927100D02*
D03*
X492760Y906780D02*
D03*
X304800Y722630D02*
D03*
X311150Y716280D02*
D03*
Y703580D02*
D03*
X304800Y709930D02*
D03*
X505460Y840740D02*
D03*
X521970Y773430D02*
D03*
X1067562Y805180D02*
D03*
X1068942Y753765D02*
D03*
D103*
X501650Y542290D02*
D03*
X511830Y542370D02*
D03*
M02*
