G04*
G04 #@! TF.GenerationSoftware,Altium Limited,Altium Designer,25.4.2 (15)*
G04*
G04 Layer_Color=8388736*
%FSLAX44Y44*%
%MOMM*%
G71*
G04*
G04 #@! TF.SameCoordinates,3ABA6FF2-A11C-483D-8B0F-7D0CBFE01766*
G04*
G04*
G04 #@! TF.FilePolarity,Negative*
G04*
G01*
G75*
%ADD48R,1.3532X1.3532*%
%ADD49R,0.4832X1.7632*%
%ADD50R,1.7632X0.4832*%
%ADD51R,1.3532X1.6532*%
%ADD52R,1.7032X2.3232*%
%ADD53R,1.6532X1.3532*%
%ADD54R,3.2232X1.5432*%
%ADD55R,1.3632X2.0232*%
G04:AMPARAMS|DCode=56|XSize=1.3232mm|YSize=0.8032mm|CornerRadius=0.1766mm|HoleSize=0mm|Usage=FLASHONLY|Rotation=90.000|XOffset=0mm|YOffset=0mm|HoleType=Round|Shape=RoundedRectangle|*
%AMROUNDEDRECTD56*
21,1,1.3232,0.4500,0,0,90.0*
21,1,0.9700,0.8032,0,0,90.0*
1,1,0.3532,0.2250,0.4850*
1,1,0.3532,0.2250,-0.4850*
1,1,0.3532,-0.2250,-0.4850*
1,1,0.3532,-0.2250,0.4850*
%
%ADD56ROUNDEDRECTD56*%
G04:AMPARAMS|DCode=57|XSize=1.0632mm|YSize=1.5632mm|CornerRadius=0.3166mm|HoleSize=0mm|Usage=FLASHONLY|Rotation=0.000|XOffset=0mm|YOffset=0mm|HoleType=Round|Shape=RoundedRectangle|*
%AMROUNDEDRECTD57*
21,1,1.0632,0.9300,0,0,0.0*
21,1,0.4300,1.5632,0,0,0.0*
1,1,0.6332,0.2150,-0.4650*
1,1,0.6332,-0.2150,-0.4650*
1,1,0.6332,-0.2150,0.4650*
1,1,0.6332,0.2150,0.4650*
%
%ADD57ROUNDEDRECTD57*%
%ADD58R,2.3232X1.7032*%
G04:AMPARAMS|DCode=59|XSize=1.0632mm|YSize=1.5632mm|CornerRadius=0.3166mm|HoleSize=0mm|Usage=FLASHONLY|Rotation=270.000|XOffset=0mm|YOffset=0mm|HoleType=Round|Shape=RoundedRectangle|*
%AMROUNDEDRECTD59*
21,1,1.0632,0.9300,0,0,270.0*
21,1,0.4300,1.5632,0,0,270.0*
1,1,0.6332,-0.4650,-0.2150*
1,1,0.6332,-0.4650,0.2150*
1,1,0.6332,0.4650,0.2150*
1,1,0.6332,0.4650,-0.2150*
%
%ADD59ROUNDEDRECTD59*%
%ADD60R,1.9332X1.3132*%
%ADD61R,1.7032X3.4032*%
%ADD62R,1.4032X1.6732*%
G04:AMPARAMS|DCode=63|XSize=1.5232mm|YSize=0.7932mm|CornerRadius=0.1754mm|HoleSize=0mm|Usage=FLASHONLY|Rotation=180.000|XOffset=0mm|YOffset=0mm|HoleType=Round|Shape=RoundedRectangle|*
%AMROUNDEDRECTD63*
21,1,1.5232,0.4425,0,0,180.0*
21,1,1.1725,0.7932,0,0,180.0*
1,1,0.3507,-0.5863,0.2213*
1,1,0.3507,0.5863,0.2213*
1,1,0.3507,0.5863,-0.2213*
1,1,0.3507,-0.5863,-0.2213*
%
%ADD63ROUNDEDRECTD63*%
%ADD64R,1.3532X1.3532*%
%ADD65R,1.3032X1.2032*%
G04:AMPARAMS|DCode=66|XSize=1.6132mm|YSize=1.6732mm|CornerRadius=0.2778mm|HoleSize=0mm|Usage=FLASHONLY|Rotation=180.000|XOffset=0mm|YOffset=0mm|HoleType=Round|Shape=RoundedRectangle|*
%AMROUNDEDRECTD66*
21,1,1.6132,1.1175,0,0,180.0*
21,1,1.0575,1.6732,0,0,180.0*
1,1,0.5557,-0.5288,0.5587*
1,1,0.5557,0.5288,0.5587*
1,1,0.5557,0.5288,-0.5587*
1,1,0.5557,-0.5288,-0.5587*
%
%ADD66ROUNDEDRECTD66*%
%ADD67R,1.7032X0.5032*%
%ADD68R,0.5032X1.7032*%
%ADD69R,1.9050X0.7366*%
%ADD70R,2.1844X0.7366*%
G04:AMPARAMS|DCode=71|XSize=2.0432mm|YSize=3.3932mm|CornerRadius=0.3316mm|HoleSize=0mm|Usage=FLASHONLY|Rotation=0.000|XOffset=0mm|YOffset=0mm|HoleType=Round|Shape=RoundedRectangle|*
%AMROUNDEDRECTD71*
21,1,2.0432,2.7300,0,0,0.0*
21,1,1.3800,3.3932,0,0,0.0*
1,1,0.6632,0.6900,-1.3650*
1,1,0.6632,-0.6900,-1.3650*
1,1,0.6632,-0.6900,1.3650*
1,1,0.6632,0.6900,1.3650*
%
%ADD71ROUNDEDRECTD71*%
G04:AMPARAMS|DCode=72|XSize=2.0432mm|YSize=1.1332mm|CornerRadius=0.2178mm|HoleSize=0mm|Usage=FLASHONLY|Rotation=0.000|XOffset=0mm|YOffset=0mm|HoleType=Round|Shape=RoundedRectangle|*
%AMROUNDEDRECTD72*
21,1,2.0432,0.6975,0,0,0.0*
21,1,1.6075,1.1332,0,0,0.0*
1,1,0.4357,0.8038,-0.3488*
1,1,0.4357,-0.8038,-0.3488*
1,1,0.4357,-0.8038,0.3488*
1,1,0.4357,0.8038,0.3488*
%
%ADD72ROUNDEDRECTD72*%
%ADD73R,2.2032X5.7032*%
%ADD74R,7.7032X2.4032*%
%ADD75R,2.1844X0.7620*%
G04:AMPARAMS|DCode=76|XSize=1.6532mm|YSize=0.7932mm|CornerRadius=0.1754mm|HoleSize=0mm|Usage=FLASHONLY|Rotation=270.000|XOffset=0mm|YOffset=0mm|HoleType=Round|Shape=RoundedRectangle|*
%AMROUNDEDRECTD76*
21,1,1.6532,0.4425,0,0,270.0*
21,1,1.3025,0.7932,0,0,270.0*
1,1,0.3507,-0.2213,-0.6513*
1,1,0.3507,-0.2213,0.6513*
1,1,0.3507,0.2213,0.6513*
1,1,0.3507,0.2213,-0.6513*
%
%ADD76ROUNDEDRECTD76*%
%ADD77R,2.1032X1.5032*%
%ADD78R,3.2032X3.2032*%
%ADD79C,3.2032*%
%ADD80C,2.4532*%
%ADD81C,1.9582*%
%ADD82C,1.8532*%
%ADD83R,1.8532X1.8532*%
%ADD84C,2.0032*%
%ADD85R,2.0032X2.0032*%
%ADD86R,1.8532X1.8532*%
%ADD87C,1.6032*%
%ADD88R,1.6032X1.6032*%
%ADD89C,3.9532*%
%ADD90R,3.2032X3.2032*%
%ADD91C,1.9032*%
%ADD92R,1.9032X1.9032*%
%ADD93R,1.8112X1.8112*%
%ADD94C,1.8112*%
%ADD95C,3.4532*%
%ADD96C,2.0112*%
%ADD97C,2.7032*%
%ADD98C,0.7032*%
%ADD99C,7.2032*%
%ADD100C,0.8532*%
%ADD101C,1.0532*%
%ADD102C,0.6032*%
%ADD103C,0.9532*%
D48*
X1088390Y496890D02*
D03*
Y473390D02*
D03*
X565150Y102550D02*
D03*
Y126050D02*
D03*
X538480Y102550D02*
D03*
Y126050D02*
D03*
X688340Y102550D02*
D03*
Y126050D02*
D03*
X718820Y102230D02*
D03*
Y125730D02*
D03*
X577850Y841690D02*
D03*
Y865190D02*
D03*
X334010Y621980D02*
D03*
Y645480D02*
D03*
X607060Y841690D02*
D03*
Y865190D02*
D03*
X278130Y790890D02*
D03*
Y814390D02*
D03*
X309880Y621660D02*
D03*
Y645160D02*
D03*
X506730Y852490D02*
D03*
Y828990D02*
D03*
X519430Y250830D02*
D03*
Y227330D02*
D03*
X566420Y227010D02*
D03*
Y250510D02*
D03*
X498074Y250744D02*
D03*
Y227244D02*
D03*
X509270Y125730D02*
D03*
Y102230D02*
D03*
X671830Y227010D02*
D03*
Y250510D02*
D03*
X718820Y249560D02*
D03*
Y226060D02*
D03*
X650240Y227330D02*
D03*
Y250830D02*
D03*
X662940Y102550D02*
D03*
Y126050D02*
D03*
X488950Y984570D02*
D03*
Y961070D02*
D03*
X744474Y952632D02*
D03*
Y929132D02*
D03*
X764794D02*
D03*
Y952632D02*
D03*
X785114Y929132D02*
D03*
Y952632D02*
D03*
X1193800Y125730D02*
D03*
Y102230D02*
D03*
X957834Y930082D02*
D03*
Y953582D02*
D03*
X937514Y930082D02*
D03*
Y953582D02*
D03*
X917194Y930082D02*
D03*
Y953582D02*
D03*
X807974Y930082D02*
D03*
Y953582D02*
D03*
X828294Y930082D02*
D03*
Y953582D02*
D03*
X848614Y930082D02*
D03*
Y953582D02*
D03*
X868934Y930082D02*
D03*
Y953582D02*
D03*
X889254Y930082D02*
D03*
Y953582D02*
D03*
X712470Y777682D02*
D03*
Y801182D02*
D03*
X808990Y521970D02*
D03*
Y545470D02*
D03*
X805180Y384490D02*
D03*
Y407990D02*
D03*
X994410Y526100D02*
D03*
Y502600D02*
D03*
X740410Y501020D02*
D03*
Y477520D02*
D03*
X852170Y474980D02*
D03*
Y498480D02*
D03*
X994410Y437830D02*
D03*
Y461330D02*
D03*
X254000Y790890D02*
D03*
Y814390D02*
D03*
X1007110Y199070D02*
D03*
Y222570D02*
D03*
X1076960D02*
D03*
Y199070D02*
D03*
X1054100Y222570D02*
D03*
Y199070D02*
D03*
X1029970Y222570D02*
D03*
Y199070D02*
D03*
X1140460Y221620D02*
D03*
Y198120D02*
D03*
X848360Y205420D02*
D03*
Y228920D02*
D03*
X902970Y93030D02*
D03*
Y69530D02*
D03*
X801624Y685480D02*
D03*
Y708980D02*
D03*
D49*
X899482Y832502D02*
D03*
X894482D02*
D03*
X889482D02*
D03*
X884482D02*
D03*
X879482D02*
D03*
X874482D02*
D03*
X869482D02*
D03*
X864482D02*
D03*
X859482D02*
D03*
X854482D02*
D03*
X849482D02*
D03*
X844482D02*
D03*
Y748902D02*
D03*
X849482D02*
D03*
X854482D02*
D03*
X859482D02*
D03*
X864482D02*
D03*
X869482D02*
D03*
X874482D02*
D03*
X879482D02*
D03*
X884482D02*
D03*
X889482D02*
D03*
X894482D02*
D03*
X899482D02*
D03*
D50*
X830182Y818202D02*
D03*
Y813202D02*
D03*
Y808202D02*
D03*
Y803202D02*
D03*
Y798202D02*
D03*
Y793202D02*
D03*
Y788202D02*
D03*
Y783202D02*
D03*
Y778202D02*
D03*
Y773202D02*
D03*
Y768202D02*
D03*
Y763202D02*
D03*
X913782D02*
D03*
Y768202D02*
D03*
Y773202D02*
D03*
Y778202D02*
D03*
Y783202D02*
D03*
Y788202D02*
D03*
Y793202D02*
D03*
Y798202D02*
D03*
Y803202D02*
D03*
Y808202D02*
D03*
Y813202D02*
D03*
Y818202D02*
D03*
D51*
X71010Y554990D02*
D03*
X89010D02*
D03*
X515510Y635000D02*
D03*
X533510D02*
D03*
X515510Y657860D02*
D03*
X533510D02*
D03*
Y612140D02*
D03*
X515510D02*
D03*
X787434Y663956D02*
D03*
X805434D02*
D03*
X787290Y641096D02*
D03*
X805290D02*
D03*
X962262Y635762D02*
D03*
X944262D02*
D03*
Y658622D02*
D03*
X962262D02*
D03*
X944262Y684022D02*
D03*
X962262D02*
D03*
X944262Y706882D02*
D03*
X962262D02*
D03*
X1123840Y894080D02*
D03*
X1141840D02*
D03*
X1059942Y792480D02*
D03*
X1077942D02*
D03*
X1059942Y764540D02*
D03*
X1077942D02*
D03*
X1033382Y739140D02*
D03*
X1015382D02*
D03*
X971770Y439420D02*
D03*
X953770D02*
D03*
X1011030Y133350D02*
D03*
X993030D02*
D03*
D52*
X1055370Y463990D02*
D03*
Y506290D02*
D03*
X1148080Y258250D02*
D03*
Y300550D02*
D03*
D53*
X628650Y590660D02*
D03*
Y572660D02*
D03*
X635000Y861170D02*
D03*
Y843170D02*
D03*
X553720Y899270D02*
D03*
Y881270D02*
D03*
X429260Y640300D02*
D03*
Y622300D02*
D03*
X401320Y793640D02*
D03*
Y811640D02*
D03*
X375920Y793640D02*
D03*
Y811640D02*
D03*
X384810Y640190D02*
D03*
Y622190D02*
D03*
X358140Y640190D02*
D03*
Y622190D02*
D03*
X457200D02*
D03*
Y640190D02*
D03*
X646430Y774590D02*
D03*
Y792590D02*
D03*
Y707390D02*
D03*
Y689390D02*
D03*
X874522Y709422D02*
D03*
Y691422D02*
D03*
X897382Y709422D02*
D03*
Y691422D02*
D03*
X920242Y709642D02*
D03*
Y691642D02*
D03*
X823722Y691422D02*
D03*
Y709422D02*
D03*
X846582D02*
D03*
Y691422D02*
D03*
X710946Y841358D02*
D03*
Y823358D02*
D03*
Y738522D02*
D03*
Y756522D02*
D03*
X1024890Y520920D02*
D03*
Y502920D02*
D03*
Y443120D02*
D03*
Y461120D02*
D03*
X636270Y882430D02*
D03*
Y900430D02*
D03*
X722530Y934278D02*
D03*
Y952278D02*
D03*
X699516Y934466D02*
D03*
Y952466D02*
D03*
X674370Y934610D02*
D03*
Y952610D02*
D03*
X827786Y384556D02*
D03*
Y402556D02*
D03*
X231140Y791210D02*
D03*
Y809210D02*
D03*
X1093470Y271890D02*
D03*
Y253890D02*
D03*
X1005840Y269350D02*
D03*
Y251350D02*
D03*
X976630Y177910D02*
D03*
Y159910D02*
D03*
X949960Y177910D02*
D03*
Y159910D02*
D03*
X1070610Y271780D02*
D03*
Y253780D02*
D03*
X1117600Y271890D02*
D03*
Y253890D02*
D03*
X925830Y90280D02*
D03*
Y72280D02*
D03*
D54*
X669290Y838040D02*
D03*
Y868840D02*
D03*
X960120Y90330D02*
D03*
Y59530D02*
D03*
D55*
X1198390Y896620D02*
D03*
X1168890D02*
D03*
D56*
X595630Y593680D02*
D03*
X586480Y572180D02*
D03*
X604780D02*
D03*
D57*
X329340Y497840D02*
D03*
X348840D02*
D03*
X145640Y494030D02*
D03*
X126140D02*
D03*
D58*
X298890Y401320D02*
D03*
X341190D02*
D03*
X146880D02*
D03*
X104580D02*
D03*
X1096840Y548640D02*
D03*
X1054540D02*
D03*
Y422910D02*
D03*
X1096840D02*
D03*
D59*
X1116330Y217620D02*
D03*
Y198120D02*
D03*
X543560Y226470D02*
D03*
Y245970D02*
D03*
X695960Y224790D02*
D03*
Y244290D02*
D03*
X513080Y965610D02*
D03*
Y985110D02*
D03*
X782320Y544010D02*
D03*
Y524510D02*
D03*
X779780Y402180D02*
D03*
Y382680D02*
D03*
X824230Y226920D02*
D03*
Y207420D02*
D03*
X878840Y70260D02*
D03*
Y89760D02*
D03*
D60*
X880110Y465550D02*
D03*
Y499650D02*
D03*
D61*
X1157650Y510540D02*
D03*
X1115650D02*
D03*
Y459740D02*
D03*
X1157650D02*
D03*
D62*
X944662Y610362D02*
D03*
X961862D02*
D03*
D63*
X401310Y413360D02*
D03*
Y394360D02*
D03*
X381010Y403860D02*
D03*
X185440Y403200D02*
D03*
X205740Y393700D02*
D03*
Y412700D02*
D03*
D64*
X405760Y487680D02*
D03*
X429260D02*
D03*
X348300Y519430D02*
D03*
X324800D02*
D03*
X405760Y436880D02*
D03*
X429260D02*
D03*
X405760Y462280D02*
D03*
X429260D02*
D03*
X202880Y488950D02*
D03*
X226380D02*
D03*
X145100Y515620D02*
D03*
X121600D02*
D03*
X226380Y438150D02*
D03*
X202880D02*
D03*
X226380Y462280D02*
D03*
X202880D02*
D03*
X967928Y876808D02*
D03*
X991428D02*
D03*
X967928Y808228D02*
D03*
X991428D02*
D03*
X1112520Y919480D02*
D03*
X1136020D02*
D03*
X967928Y856488D02*
D03*
X991428D02*
D03*
Y828548D02*
D03*
X967928D02*
D03*
X991428Y769366D02*
D03*
X967928D02*
D03*
X991428Y788162D02*
D03*
X967928D02*
D03*
X991428Y746252D02*
D03*
X967928D02*
D03*
X1015172Y764540D02*
D03*
X1038672D02*
D03*
X1016122Y792480D02*
D03*
X1039622D02*
D03*
X1113470Y652780D02*
D03*
X1136970D02*
D03*
Y675640D02*
D03*
X1113470D02*
D03*
D65*
X459670Y576580D02*
D03*
X534670D02*
D03*
D66*
X281700Y467360D02*
D03*
Y441960D02*
D03*
X378700D02*
D03*
Y467360D02*
D03*
X78500D02*
D03*
Y441960D02*
D03*
X175500D02*
D03*
Y467360D02*
D03*
X580630Y172720D02*
D03*
Y198120D02*
D03*
X483630D02*
D03*
Y172720D02*
D03*
X730490D02*
D03*
Y198120D02*
D03*
X633490D02*
D03*
Y172720D02*
D03*
D67*
X546412Y778164D02*
D03*
Y773164D02*
D03*
Y768164D02*
D03*
Y763164D02*
D03*
Y758164D02*
D03*
Y753164D02*
D03*
Y748164D02*
D03*
Y743164D02*
D03*
Y738164D02*
D03*
Y733164D02*
D03*
Y728164D02*
D03*
Y723164D02*
D03*
Y718164D02*
D03*
Y713164D02*
D03*
Y708164D02*
D03*
Y703164D02*
D03*
X433012D02*
D03*
Y708164D02*
D03*
Y713164D02*
D03*
Y718164D02*
D03*
Y723164D02*
D03*
Y728164D02*
D03*
Y733164D02*
D03*
Y738164D02*
D03*
Y743164D02*
D03*
Y748164D02*
D03*
Y753164D02*
D03*
Y758164D02*
D03*
Y763164D02*
D03*
Y768164D02*
D03*
Y773164D02*
D03*
Y778164D02*
D03*
D68*
X527212Y683964D02*
D03*
X522212D02*
D03*
X517212D02*
D03*
X512212D02*
D03*
X507212D02*
D03*
X502212D02*
D03*
X497212D02*
D03*
X492212D02*
D03*
X487212D02*
D03*
X482212D02*
D03*
X477212D02*
D03*
X472212D02*
D03*
X467212D02*
D03*
X462212D02*
D03*
X457212D02*
D03*
X452212D02*
D03*
Y797364D02*
D03*
X457212D02*
D03*
X462212D02*
D03*
X467212D02*
D03*
X472212D02*
D03*
X477212D02*
D03*
X482212D02*
D03*
X487212D02*
D03*
X492212D02*
D03*
X497212D02*
D03*
X502212D02*
D03*
X507212D02*
D03*
X512212D02*
D03*
X517212D02*
D03*
X522212D02*
D03*
X527212D02*
D03*
D69*
X772922Y426720D02*
D03*
Y439420D02*
D03*
Y452120D02*
D03*
Y464820D02*
D03*
Y477520D02*
D03*
Y490220D02*
D03*
Y502920D02*
D03*
X824738D02*
D03*
Y490220D02*
D03*
Y477520D02*
D03*
Y464820D02*
D03*
Y452120D02*
D03*
Y439420D02*
D03*
Y426720D02*
D03*
D70*
X958088Y463550D02*
D03*
Y476250D02*
D03*
Y488950D02*
D03*
Y501650D02*
D03*
X908812D02*
D03*
Y488950D02*
D03*
Y476250D02*
D03*
Y463550D02*
D03*
D71*
X1059550Y85090D02*
D03*
D72*
X997850Y108090D02*
D03*
Y85090D02*
D03*
Y62090D02*
D03*
D73*
X604012Y693164D02*
D03*
Y788164D02*
D03*
X753872Y837948D02*
D03*
Y742948D02*
D03*
D74*
X948690Y264950D02*
D03*
Y204950D02*
D03*
D75*
X201676Y788670D02*
D03*
Y801370D02*
D03*
Y814070D02*
D03*
Y826770D02*
D03*
X152400D02*
D03*
Y814070D02*
D03*
Y801370D02*
D03*
Y788670D02*
D03*
D76*
X1028090Y273170D02*
D03*
X1037590D02*
D03*
X1047090D02*
D03*
Y250070D02*
D03*
X1037590D02*
D03*
X1028090D02*
D03*
D77*
X610360Y891980D02*
D03*
Y946980D02*
D03*
X578360D02*
D03*
Y891980D02*
D03*
D78*
X1193800Y296380D02*
D03*
X1195070Y511480D02*
D03*
D79*
X1193800Y246380D02*
D03*
X304800Y102870D02*
D03*
X354000D02*
D03*
X95580D02*
D03*
X144780D02*
D03*
X1168420Y706970D02*
D03*
Y863270D02*
D03*
X1195070Y411480D02*
D03*
Y460680D02*
D03*
D80*
X580390Y533070D02*
D03*
D81*
Y333070D02*
D03*
D82*
X52070Y789940D02*
D03*
Y764540D02*
D03*
Y739140D02*
D03*
Y713740D02*
D03*
Y688340D02*
D03*
X690880Y44450D02*
D03*
X716280D02*
D03*
X539750D02*
D03*
X565150D02*
D03*
D83*
X52070Y662940D02*
D03*
D84*
X72790Y618210D02*
D03*
X98190D02*
D03*
X123590D02*
D03*
X1153160Y113100D02*
D03*
Y38100D02*
D03*
D85*
X148990Y618210D02*
D03*
D86*
X665480Y44450D02*
D03*
X514350D02*
D03*
D87*
X67510Y513080D02*
D03*
X178870Y678180D02*
D03*
D88*
X92510Y513080D02*
D03*
X153870Y678180D02*
D03*
D89*
X39370Y180340D02*
D03*
X39281Y979094D02*
D03*
X1257300Y982980D02*
D03*
X731520Y579120D02*
D03*
D90*
X404800Y102870D02*
D03*
X195580D02*
D03*
D91*
X321310Y975360D02*
D03*
X295910D02*
D03*
X270510D02*
D03*
X379730Y974090D02*
D03*
X405130D02*
D03*
X430530D02*
D03*
X185420Y975360D02*
D03*
X160020D02*
D03*
X134620D02*
D03*
D92*
X245110D02*
D03*
X455930Y974090D02*
D03*
X109220Y975360D02*
D03*
D93*
X1135420Y829570D02*
D03*
D94*
X1110020Y816870D02*
D03*
X1135420Y804170D02*
D03*
X1110020Y791470D02*
D03*
X1135420Y778770D02*
D03*
X1110020Y766070D02*
D03*
X1135420Y753370D02*
D03*
X1110020Y740670D02*
D03*
D95*
X1198920Y842270D02*
D03*
Y727970D02*
D03*
D96*
X1239520Y851420D02*
D03*
Y718820D02*
D03*
Y826020D02*
D03*
Y744220D02*
D03*
D97*
X295600Y212320D02*
D03*
X415600D02*
D03*
Y334320D02*
D03*
X355600Y354320D02*
D03*
X295600Y334320D02*
D03*
X102560D02*
D03*
X162560Y354320D02*
D03*
X222560Y334320D02*
D03*
Y212320D02*
D03*
X102560D02*
D03*
D98*
X1225550Y36830D02*
D03*
X1244600Y81280D02*
D03*
X1225550Y73660D02*
D03*
X1264920Y36830D02*
D03*
X1217930Y54610D02*
D03*
X1271270D02*
D03*
X1264920Y73660D02*
D03*
X1244600Y27940D02*
D03*
X825500Y868680D02*
D03*
Y840740D02*
D03*
X474980Y739140D02*
D03*
X466090Y746854D02*
D03*
X458470Y727710D02*
D03*
X452120Y734060D02*
D03*
X784860Y939800D02*
D03*
X851662Y763778D02*
D03*
X844804Y772922D02*
D03*
D99*
X1244600Y54610D02*
D03*
D100*
X659007Y736521D02*
D03*
X641350Y736600D02*
D03*
X650240D02*
D03*
X356747Y927021D02*
D03*
Y939721D02*
D03*
Y951151D02*
D03*
X454537Y173911D02*
D03*
Y205661D02*
D03*
Y293291D02*
D03*
Y318691D02*
D03*
Y341551D02*
D03*
X386080Y523240D02*
D03*
X370840D02*
D03*
X312297Y505381D02*
D03*
X314837Y383461D02*
D03*
X265430Y384810D02*
D03*
X254000D02*
D03*
X276860D02*
D03*
X461010Y820420D02*
D03*
X459617Y713661D02*
D03*
X511687Y774621D02*
D03*
X467237Y761921D02*
D03*
X559947Y669211D02*
D03*
Y684451D02*
D03*
X528197Y761921D02*
D03*
X1079500Y852170D02*
D03*
X1069340D02*
D03*
X946150Y902970D02*
D03*
X1069340Y834390D02*
D03*
X1079500D02*
D03*
X835660Y904240D02*
D03*
X816610Y915670D02*
D03*
X925830Y899160D02*
D03*
X859790Y890270D02*
D03*
X880110Y896620D02*
D03*
X901700Y897890D02*
D03*
X657860Y928370D02*
D03*
X666750Y919480D02*
D03*
X656590Y941070D02*
D03*
X599440Y934720D02*
D03*
X621030D02*
D03*
X631190D02*
D03*
X567690Y906780D02*
D03*
X581739Y934597D02*
D03*
X590550Y934720D02*
D03*
X514350D02*
D03*
X474980Y930910D02*
D03*
X497840Y934720D02*
D03*
X539829Y935867D02*
D03*
X549989D02*
D03*
X560149D02*
D03*
X537210Y916940D02*
D03*
X497840D02*
D03*
X514350D02*
D03*
X800100Y801370D02*
D03*
X792480Y810260D02*
D03*
X792559Y821567D02*
D03*
X788670Y902970D02*
D03*
X836930Y855980D02*
D03*
X754380Y911860D02*
D03*
X777240Y876300D02*
D03*
X784860Y868680D02*
D03*
X792559Y860937D02*
D03*
X793627Y850821D02*
D03*
Y840661D02*
D03*
Y830501D02*
D03*
X815217Y849551D02*
D03*
Y839391D02*
D03*
Y829231D02*
D03*
X807720Y885190D02*
D03*
X798830Y894080D02*
D03*
X817880Y875030D02*
D03*
X878761Y624963D02*
D03*
X868601D02*
D03*
X858441D02*
D03*
X845741D02*
D03*
X835581D02*
D03*
X825421D02*
D03*
X910511Y722753D02*
D03*
X900351D02*
D03*
X890191D02*
D03*
X1088311Y624963D02*
D03*
X1078151D02*
D03*
X1067991D02*
D03*
X1056561D02*
D03*
X1046401D02*
D03*
X1036241D02*
D03*
X876423Y784939D02*
D03*
Y795099D02*
D03*
Y805259D02*
D03*
X694813Y731599D02*
D03*
Y741759D02*
D03*
Y751919D02*
D03*
X619760Y872490D02*
D03*
X453390Y668020D02*
D03*
X648970Y264160D02*
D03*
X514350Y811530D02*
D03*
X584200Y906780D02*
D03*
X607060D02*
D03*
X497840Y267970D02*
D03*
X490390Y716280D02*
D03*
X482600Y723900D02*
D03*
D101*
X914400Y999490D02*
D03*
X927100D02*
D03*
X939800D02*
D03*
X716280Y908050D02*
D03*
X731520D02*
D03*
X712470Y881380D02*
D03*
X740410D02*
D03*
X754380D02*
D03*
X768350D02*
D03*
X509270Y872490D02*
D03*
X652780Y641350D02*
D03*
Y628650D02*
D03*
Y615950D02*
D03*
X407670Y614680D02*
D03*
Y601980D02*
D03*
X341630Y778510D02*
D03*
X328930D02*
D03*
X316230D02*
D03*
X133350Y797560D02*
D03*
Y810260D02*
D03*
Y822960D02*
D03*
X1070610Y525780D02*
D03*
X1083310D02*
D03*
X1096010D02*
D03*
X893221Y374609D02*
D03*
X905921D02*
D03*
X918621D02*
D03*
X750570Y438150D02*
D03*
Y425450D02*
D03*
Y412750D02*
D03*
X989330Y298450D02*
D03*
X976630D02*
D03*
X963930D02*
D03*
X825500Y20320D02*
D03*
X812800D02*
D03*
X800100D02*
D03*
X996950Y17780D02*
D03*
X984250D02*
D03*
X971550D02*
D03*
X742950Y289560D02*
D03*
X730250D02*
D03*
X717550D02*
D03*
X607060Y194310D02*
D03*
Y207010D02*
D03*
Y219710D02*
D03*
X538480Y86360D02*
D03*
X688340Y86360D02*
D03*
X450850Y421640D02*
D03*
Y396240D02*
D03*
Y408940D02*
D03*
X699770Y908050D02*
D03*
X687070D02*
D03*
X673100D02*
D03*
X726440Y881380D02*
D03*
X902377Y441367D02*
D03*
X580390Y302260D02*
D03*
X942340Y113030D02*
D03*
X311150Y603250D02*
D03*
X335280D02*
D03*
X328930Y435610D02*
D03*
X942340Y595630D02*
D03*
X306070Y453390D02*
D03*
X106680Y452120D02*
D03*
X124460Y435610D02*
D03*
X125730Y408940D02*
D03*
X152400Y466090D02*
D03*
X342900Y463550D02*
D03*
X916940Y972820D02*
D03*
X786130D02*
D03*
X328930Y412750D02*
D03*
X850900Y440690D02*
D03*
X1099820Y673862D02*
D03*
X1099940Y654812D02*
D03*
D102*
X467360Y660400D02*
D03*
X473710Y654050D02*
D03*
X534670Y702310D02*
D03*
X527050Y704850D02*
D03*
X414020Y796290D02*
D03*
X427018Y674072D02*
D03*
X405130Y674370D02*
D03*
X604520Y594360D02*
D03*
X669290Y825500D02*
D03*
X529590Y886460D02*
D03*
X387350Y736600D02*
D03*
Y744220D02*
D03*
X302260Y801370D02*
D03*
X295910Y810260D02*
D03*
X744220Y939800D02*
D03*
X483870Y927100D02*
D03*
X492760Y906780D02*
D03*
X304800Y722630D02*
D03*
X311150Y716280D02*
D03*
Y703580D02*
D03*
X304800Y709930D02*
D03*
X505460Y840740D02*
D03*
X521970Y773430D02*
D03*
X1067562Y805180D02*
D03*
X1068942Y753765D02*
D03*
D103*
X501650Y542290D02*
D03*
X511830Y542370D02*
D03*
M02*
