G04*
G04 #@! TF.GenerationSoftware,Altium Limited,Altium Designer,25.4.2 (15)*
G04*
G04 Layer_Color=16711935*
%FSLAX44Y44*%
%MOMM*%
G71*
G04*
G04 #@! TF.SameCoordinates,3ABA6FF2-A11C-483D-8B0F-7D0CBFE01766*
G04*
G04*
G04 #@! TF.FilePolarity,Positive*
G04*
G01*
G75*
%ADD10C,0.2000*%
%ADD11C,0.1270*%
%ADD12C,0.3000*%
%ADD13C,0.2540*%
%ADD14C,0.4000*%
%ADD15C,0.1524*%
%ADD16C,0.0000*%
%ADD143C,0.0508*%
%ADD144C,0.1000*%
G36*
X680870Y948610D02*
X667870D01*
Y953610D01*
X680870D01*
Y948610D01*
D02*
G37*
G36*
X706016Y948466D02*
X693016D01*
Y953466D01*
X706016D01*
Y948466D01*
D02*
G37*
G36*
X729030Y948278D02*
X716030D01*
Y953278D01*
X729030D01*
Y948278D01*
D02*
G37*
G36*
X680870Y933610D02*
X667870D01*
Y938610D01*
X680870D01*
Y933610D01*
D02*
G37*
G36*
X706016Y933466D02*
X693016D01*
Y938466D01*
X706016D01*
Y933466D01*
D02*
G37*
G36*
X729030Y933278D02*
X716030D01*
Y938278D01*
X729030D01*
Y933278D01*
D02*
G37*
G36*
X642770Y896430D02*
X629770D01*
Y901430D01*
X642770D01*
Y896430D01*
D02*
G37*
G36*
X560220Y895270D02*
X547220D01*
Y900270D01*
X560220D01*
Y895270D01*
D02*
G37*
G36*
X1142840Y887580D02*
X1137840D01*
Y900580D01*
X1142840D01*
Y887580D01*
D02*
G37*
G36*
X1127840D02*
X1122840D01*
Y900580D01*
X1127840D01*
Y887580D01*
D02*
G37*
G36*
X642770Y881430D02*
X629770D01*
Y886430D01*
X642770D01*
Y881430D01*
D02*
G37*
G36*
X560220Y880270D02*
X547220D01*
Y885270D01*
X560220D01*
Y880270D01*
D02*
G37*
G36*
X641500Y857170D02*
X628500D01*
Y862170D01*
X641500D01*
Y857170D01*
D02*
G37*
G36*
Y842170D02*
X628500D01*
Y847170D01*
X641500D01*
Y842170D01*
D02*
G37*
G36*
X717446Y837358D02*
X704446D01*
Y842358D01*
X717446D01*
Y837358D01*
D02*
G37*
G36*
X865380Y825306D02*
X863574D01*
Y835794D01*
X865380D01*
Y825306D01*
D02*
G37*
G36*
X860414Y825271D02*
X858529D01*
Y835750D01*
X860414D01*
Y825271D01*
D02*
G37*
G36*
X855417Y825268D02*
X853516D01*
Y835737D01*
X855417D01*
Y825268D01*
D02*
G37*
G36*
X845420Y825266D02*
X843500D01*
Y835720D01*
X845420D01*
Y825266D01*
D02*
G37*
G36*
X850422Y825264D02*
X848506D01*
Y835726D01*
X850422D01*
Y825264D01*
D02*
G37*
G36*
X870430Y825255D02*
X868543D01*
Y835763D01*
X870430D01*
Y825255D01*
D02*
G37*
G36*
X875446Y825239D02*
X873537D01*
Y835758D01*
X875446D01*
Y825239D01*
D02*
G37*
G36*
X880449Y825236D02*
X878549D01*
Y835769D01*
X880449D01*
Y825236D01*
D02*
G37*
G36*
X890458Y825228D02*
X888579D01*
Y835799D01*
X890458D01*
Y825228D01*
D02*
G37*
G36*
X885463Y825223D02*
X883536D01*
Y835756D01*
X885463D01*
Y825223D01*
D02*
G37*
G36*
X895471Y825215D02*
X893554D01*
Y835774D01*
X895471D01*
Y825215D01*
D02*
G37*
G36*
X900472Y825213D02*
X898602D01*
Y835822D01*
X900472D01*
Y825213D01*
D02*
G37*
G36*
X717446Y822358D02*
X704446D01*
Y827358D01*
X717446D01*
Y822358D01*
D02*
G37*
G36*
X837355Y817330D02*
X826948D01*
Y819168D01*
X837355D01*
Y817330D01*
D02*
G37*
G36*
X917015Y817170D02*
X906592D01*
Y819313D01*
X917015D01*
Y817170D01*
D02*
G37*
G36*
X837412Y812274D02*
X826955D01*
Y814176D01*
X837412D01*
Y812274D01*
D02*
G37*
G36*
X917014Y812171D02*
X906561D01*
Y814282D01*
X917014D01*
Y812171D01*
D02*
G37*
G36*
X407820Y807640D02*
X394820D01*
Y812640D01*
X407820D01*
Y807640D01*
D02*
G37*
G36*
X382420D02*
X369420D01*
Y812640D01*
X382420D01*
Y807640D01*
D02*
G37*
G36*
X837414Y807271D02*
X826947D01*
Y809167D01*
X837414D01*
Y807271D01*
D02*
G37*
G36*
X917033Y807153D02*
X906576D01*
Y809296D01*
X917033D01*
Y807153D01*
D02*
G37*
G36*
X237640Y805210D02*
X224640D01*
Y810210D01*
X237640D01*
Y805210D01*
D02*
G37*
G36*
X837433Y802253D02*
X826949D01*
Y804169D01*
X837433D01*
Y802253D01*
D02*
G37*
G36*
X917046Y802140D02*
X906573D01*
Y804293D01*
X917046D01*
Y802140D01*
D02*
G37*
G36*
X837430Y797255D02*
X826936D01*
Y799156D01*
X837430D01*
Y797255D01*
D02*
G37*
G36*
X917044Y797142D02*
X906551D01*
Y799271D01*
X917044D01*
Y797142D01*
D02*
G37*
G36*
X407820Y792640D02*
X394820D01*
Y797640D01*
X407820D01*
Y792640D01*
D02*
G37*
G36*
X382420D02*
X369420D01*
Y797640D01*
X382420D01*
Y792640D01*
D02*
G37*
G36*
X837431Y792254D02*
X826924D01*
Y794144D01*
X837431D01*
Y792254D01*
D02*
G37*
G36*
X917042Y792143D02*
X906535D01*
Y794255D01*
X917042D01*
Y792143D01*
D02*
G37*
G36*
X237640Y790210D02*
X224640D01*
Y795210D01*
X237640D01*
Y790210D01*
D02*
G37*
G36*
X652930Y788590D02*
X639930D01*
Y793590D01*
X652930D01*
Y788590D01*
D02*
G37*
G36*
X837440Y787245D02*
X826919D01*
Y789139D01*
X837440D01*
Y787245D01*
D02*
G37*
G36*
X917037Y787148D02*
X906520D01*
Y789240D01*
X917037D01*
Y787148D01*
D02*
G37*
G36*
X1078942Y785980D02*
X1073942D01*
Y798980D01*
X1078942D01*
Y785980D01*
D02*
G37*
G36*
X1063942D02*
X1058942D01*
Y798980D01*
X1063942D01*
Y785980D01*
D02*
G37*
G36*
X837466Y782220D02*
X826949D01*
Y784170D01*
X837466D01*
Y782220D01*
D02*
G37*
G36*
X917056Y782130D02*
X906521D01*
Y784241D01*
X917056D01*
Y782130D01*
D02*
G37*
G36*
X837452Y777234D02*
X826899D01*
Y779120D01*
X837452D01*
Y777234D01*
D02*
G37*
G36*
X917102Y777083D02*
X906530D01*
Y779250D01*
X917102D01*
Y777083D01*
D02*
G37*
G36*
X652930Y773590D02*
X639930D01*
Y778590D01*
X652930D01*
Y773590D01*
D02*
G37*
G36*
X837466Y772220D02*
X826917D01*
Y774137D01*
X837466D01*
Y772220D01*
D02*
G37*
G36*
X917124Y772061D02*
X906523D01*
Y774243D01*
X917124D01*
Y772061D01*
D02*
G37*
G36*
X244378Y768588D02*
X244206D01*
Y768761D01*
X244378D01*
Y768588D01*
D02*
G37*
G36*
X243342D02*
X243169D01*
Y768761D01*
X243342D01*
Y768588D01*
D02*
G37*
G36*
X222099D02*
X221409D01*
Y768761D01*
X222099D01*
Y768588D01*
D02*
G37*
G36*
X220200D02*
X220027D01*
Y768761D01*
X220200D01*
Y768588D01*
D02*
G37*
G36*
X200166D02*
X199303D01*
Y768761D01*
X200166D01*
Y768588D01*
D02*
G37*
G36*
X249761Y767318D02*
X249070D01*
Y767491D01*
X249761D01*
Y767318D01*
D02*
G37*
G36*
X226964D02*
X226792D01*
Y767491D01*
X226964D01*
Y767318D01*
D02*
G37*
G36*
X837467Y767218D02*
X826890D01*
Y769111D01*
X837467D01*
Y767218D01*
D02*
G37*
G36*
X917044Y767141D02*
X906494D01*
Y769214D01*
X917044D01*
Y767141D01*
D02*
G37*
G36*
X290145Y765307D02*
X289972D01*
Y765825D01*
X290145D01*
Y765307D01*
D02*
G37*
G36*
X181198Y764037D02*
X181025D01*
Y764555D01*
X181198D01*
Y764037D01*
D02*
G37*
G36*
X837475Y762210D02*
X826892D01*
Y764112D01*
X837475D01*
Y762210D01*
D02*
G37*
G36*
X917100Y762086D02*
X906495D01*
Y764216D01*
X917100D01*
Y762086D01*
D02*
G37*
G36*
X1078942Y758040D02*
X1073942D01*
Y771040D01*
X1078942D01*
Y758040D01*
D02*
G37*
G36*
X1063942D02*
X1058942D01*
Y771040D01*
X1063942D01*
Y758040D01*
D02*
G37*
G36*
X245933Y768243D02*
X246623D01*
Y768070D01*
X247142D01*
Y767897D01*
X247314D01*
Y767725D01*
X247660D01*
Y767552D01*
X247832D01*
Y767379D01*
X248005D01*
Y767206D01*
X248178D01*
Y767034D01*
X248207D01*
Y767145D01*
X250250D01*
Y768243D01*
X254222D01*
Y766454D01*
X254252D01*
Y766282D01*
X254424D01*
Y766109D01*
X254597D01*
Y765764D01*
X254770D01*
Y765591D01*
X254942D01*
Y765246D01*
X255115D01*
Y764727D01*
X255288D01*
Y762716D01*
X256468D01*
Y764900D01*
X256324D01*
Y765418D01*
X256151D01*
Y766800D01*
X256468D01*
Y768243D01*
X260440D01*
Y768070D01*
X260613D01*
Y766973D01*
X263721D01*
Y768070D01*
X263894D01*
Y768243D01*
X276847D01*
Y768070D01*
X277192D01*
Y767725D01*
X277019D01*
Y767552D01*
Y767379D01*
Y763407D01*
X276876D01*
Y763000D01*
X277048D01*
Y761507D01*
X278430D01*
Y761792D01*
X278257D01*
Y766973D01*
X278919D01*
Y768243D01*
X282028D01*
Y768070D01*
X282201D01*
Y768243D01*
X282373D01*
Y768070D01*
X290145D01*
Y765997D01*
X289972D01*
Y767206D01*
X289799D01*
Y765134D01*
X289627D01*
Y763234D01*
Y763062D01*
Y762889D01*
X289799D01*
Y764098D01*
X289972D01*
Y765134D01*
X290145D01*
Y753908D01*
X289627D01*
Y753736D01*
X289483D01*
Y752120D01*
X289138D01*
Y751947D01*
X284648D01*
Y752120D01*
X284475D01*
Y752293D01*
X284302D01*
Y752811D01*
X284129D01*
Y753674D01*
X283957D01*
Y753736D01*
X281366D01*
Y752120D01*
X281193D01*
Y751947D01*
X278257D01*
Y753736D01*
X276703D01*
Y753674D01*
X276530D01*
Y753329D01*
X276358D01*
Y753156D01*
X276185D01*
Y752984D01*
X276012D01*
Y752811D01*
X275840D01*
Y752638D01*
X275667D01*
Y752466D01*
X275321D01*
Y752293D01*
X275149D01*
Y752120D01*
X274631D01*
Y751947D01*
X273940D01*
Y751775D01*
X272731D01*
Y751663D01*
X274774D01*
Y751836D01*
X276329D01*
Y751663D01*
X277019D01*
Y749184D01*
X277048D01*
Y749011D01*
X277221D01*
Y748839D01*
X277394D01*
Y746766D01*
X277567D01*
Y746421D01*
X277394D01*
Y745730D01*
X276530D01*
Y745903D01*
X276185D01*
Y746075D01*
X276012D01*
Y746421D01*
X276185D01*
Y747173D01*
X274803D01*
Y745903D01*
X274631D01*
Y745730D01*
X274112D01*
Y745903D01*
X273767D01*
Y747173D01*
X272386D01*
Y745903D01*
X272040D01*
Y745730D01*
X271522D01*
Y745903D01*
X271177D01*
Y747173D01*
X263894D01*
Y747345D01*
X263721D01*
Y761162D01*
X263894D01*
Y761335D01*
X264412D01*
Y761507D01*
X266859D01*
Y763234D01*
X263894D01*
Y763407D01*
X263721D01*
Y764900D01*
X263405D01*
Y764727D01*
X263232D01*
Y764209D01*
X263060D01*
Y753329D01*
X263232D01*
Y752120D01*
X263060D01*
Y751947D01*
X259087D01*
Y753217D01*
X256640D01*
Y753390D01*
X256468D01*
Y760126D01*
X256640D01*
Y760298D01*
X256468D01*
Y760471D01*
X254222D01*
Y758856D01*
X254252D01*
Y758510D01*
X254424D01*
Y758337D01*
X254597D01*
Y758165D01*
X254770D01*
Y757819D01*
X254942D01*
Y757474D01*
X255115D01*
Y756783D01*
X255288D01*
Y755229D01*
X255115D01*
Y754193D01*
X254942D01*
Y753847D01*
X254770D01*
Y753502D01*
X254597D01*
Y753156D01*
X254424D01*
Y752984D01*
X254252D01*
Y752811D01*
X254079D01*
Y752638D01*
X253906D01*
Y752466D01*
X253561D01*
Y752293D01*
X253215D01*
Y752120D01*
X252697D01*
Y751947D01*
X252006D01*
Y751775D01*
X250798D01*
Y751602D01*
X249416D01*
Y751775D01*
X248207D01*
Y751947D01*
X247343D01*
Y752120D01*
X246825D01*
Y752293D01*
X246480D01*
Y752466D01*
X246307D01*
Y752638D01*
X245962D01*
Y752811D01*
X245789D01*
Y752984D01*
X245616D01*
Y753045D01*
X244724D01*
Y752872D01*
X242997D01*
Y753045D01*
X242853D01*
Y752811D01*
X242508D01*
Y752638D01*
X242335D01*
Y752466D01*
X242162D01*
Y752293D01*
X241817D01*
Y752120D01*
X241299D01*
Y751947D01*
X240781D01*
Y751775D01*
X239572D01*
Y751602D01*
X237845D01*
Y751775D01*
X236636D01*
Y751947D01*
X235945D01*
Y752120D01*
X235600D01*
Y752293D01*
X235254D01*
Y752466D01*
X235082D01*
Y752638D01*
X234736D01*
Y752811D01*
X234563D01*
Y752984D01*
X234391D01*
Y753045D01*
X233325D01*
Y752872D01*
X231598D01*
Y753045D01*
X231455D01*
Y752984D01*
X231282D01*
Y752811D01*
X231109D01*
Y752638D01*
X230937D01*
Y752466D01*
X230591D01*
Y752293D01*
X230246D01*
Y752120D01*
X229900D01*
Y751947D01*
X229209D01*
Y751775D01*
X228173D01*
Y751602D01*
X226446D01*
Y751775D01*
X225410D01*
Y751947D01*
X224719D01*
Y752120D01*
X224201D01*
Y752293D01*
X223856D01*
Y752466D01*
X223683D01*
Y752638D01*
X223510D01*
Y752811D01*
X223165D01*
Y753156D01*
X222992D01*
Y753217D01*
X222963D01*
Y753045D01*
X221754D01*
Y752872D01*
X220920D01*
Y751947D01*
X217120D01*
Y752120D01*
X216948D01*
Y754081D01*
X216918D01*
Y754254D01*
X216746D01*
Y754426D01*
X216573D01*
Y754772D01*
X216400D01*
Y755117D01*
X216228D01*
Y755462D01*
X216055D01*
Y756499D01*
X215882D01*
Y758053D01*
X216055D01*
Y758744D01*
X216228D01*
Y759089D01*
X216400D01*
Y759201D01*
X214702D01*
Y759028D01*
X214530D01*
Y758856D01*
X214702D01*
Y752120D01*
X214530D01*
Y751947D01*
X210730D01*
Y752120D01*
X210557D01*
Y753217D01*
X208111D01*
Y753390D01*
X207938D01*
Y754599D01*
X208111D01*
Y765479D01*
X207938D01*
Y765997D01*
X207765D01*
Y766170D01*
X207449D01*
Y762137D01*
X207276D01*
Y761964D01*
X204311D01*
Y760237D01*
X206758D01*
Y760064D01*
X207276D01*
Y759892D01*
X207449D01*
Y746075D01*
X207276D01*
Y745903D01*
X194323D01*
Y746075D01*
X194151D01*
Y747000D01*
X193776D01*
Y747691D01*
X193603D01*
Y748036D01*
X193776D01*
Y750109D01*
X193949D01*
Y750281D01*
X194121D01*
Y750454D01*
X194294D01*
Y750627D01*
X194467D01*
Y750799D01*
X194812D01*
Y750972D01*
X195849D01*
Y750799D01*
X196194D01*
Y750627D01*
X196885D01*
Y750799D01*
X197576D01*
Y750972D01*
X197748D01*
Y750799D01*
X199648D01*
Y750627D01*
X199993D01*
Y750566D01*
X201231D01*
Y750739D01*
X201577D01*
Y753390D01*
X201548D01*
Y753217D01*
X200857D01*
Y753045D01*
X200023D01*
Y752811D01*
X199677D01*
Y752638D01*
X199505D01*
Y752466D01*
X181543D01*
Y752638D01*
X181025D01*
Y763864D01*
X181198D01*
Y762828D01*
X181371D01*
Y761619D01*
X181543D01*
Y761792D01*
Y761964D01*
Y763864D01*
X181371D01*
Y765936D01*
X181198D01*
Y764727D01*
X181025D01*
Y766800D01*
X181687D01*
Y768243D01*
X183932D01*
Y768070D01*
X184623D01*
Y766800D01*
X187041D01*
Y767379D01*
X187213D01*
Y768243D01*
X192913D01*
Y763062D01*
X192740D01*
Y760237D01*
X194121D01*
Y764270D01*
X194151D01*
Y766109D01*
Y766282D01*
Y766454D01*
X193978D01*
Y766800D01*
X194323D01*
Y766973D01*
X194640D01*
Y767034D01*
X194812D01*
Y767206D01*
X194985D01*
Y767379D01*
X195158D01*
Y767552D01*
X195330D01*
Y767725D01*
X195676D01*
Y767897D01*
X195849D01*
Y768070D01*
X196367D01*
Y768243D01*
X197230D01*
Y768415D01*
X201030D01*
Y768243D01*
X201721D01*
Y768070D01*
X202239D01*
Y767897D01*
X202584D01*
Y767725D01*
X202757D01*
Y767552D01*
X202929D01*
Y767379D01*
X203102D01*
Y767206D01*
X203275D01*
Y767034D01*
X203447D01*
Y766973D01*
X205175D01*
Y768070D01*
X205347D01*
Y768243D01*
X213983D01*
Y768070D01*
X215019D01*
Y766688D01*
X214846D01*
Y766170D01*
X214702D01*
Y761446D01*
X216775D01*
Y761619D01*
X216948D01*
Y762889D01*
X216055D01*
Y763062D01*
X215882D01*
Y765997D01*
X216055D01*
Y766516D01*
X216228D01*
Y766861D01*
X216400D01*
Y767034D01*
X216573D01*
Y767379D01*
X216746D01*
Y767552D01*
X216918D01*
Y767725D01*
X217264D01*
Y767897D01*
X217437D01*
Y768070D01*
X217955D01*
Y768243D01*
X219164D01*
Y768415D01*
X222963D01*
Y768243D01*
X223999D01*
Y768070D01*
X224345D01*
Y767897D01*
X224690D01*
Y767725D01*
X225035D01*
Y767552D01*
X225208D01*
Y767379D01*
X225381D01*
Y767206D01*
X225554D01*
Y767145D01*
X227453D01*
Y767379D01*
X227281D01*
Y768070D01*
X227453D01*
Y768243D01*
X231253D01*
Y768070D01*
X231425D01*
Y765997D01*
X231282D01*
Y765936D01*
X231455D01*
Y765764D01*
X231627D01*
Y765591D01*
X231800D01*
Y765246D01*
X231973D01*
Y764900D01*
X232146D01*
Y764382D01*
X232318D01*
Y755290D01*
X232807D01*
Y755462D01*
X233325D01*
Y755635D01*
X233498D01*
Y756153D01*
X233671D01*
Y764727D01*
X233527D01*
Y766973D01*
X233671D01*
Y768243D01*
X237643D01*
Y765997D01*
X237499D01*
Y754883D01*
X237672D01*
Y754365D01*
X237845D01*
Y754193D01*
X238363D01*
Y754020D01*
X238881D01*
Y754193D01*
X239399D01*
Y754365D01*
X239572D01*
Y754426D01*
X239543D01*
Y754772D01*
X239370D01*
Y754944D01*
X239197D01*
Y755290D01*
X239025D01*
Y755808D01*
X238852D01*
Y765652D01*
X239025D01*
Y766170D01*
X239197D01*
Y766516D01*
X239370D01*
Y766861D01*
X239543D01*
Y767034D01*
X239715D01*
Y767206D01*
X239888D01*
Y767379D01*
X240061D01*
Y767552D01*
X240233D01*
Y767725D01*
X240406D01*
Y767897D01*
X240751D01*
Y768070D01*
X241097D01*
Y768243D01*
X241961D01*
Y768415D01*
X245933D01*
Y768243D01*
D02*
G37*
G36*
X717446Y752522D02*
X704446D01*
Y757522D01*
X717446D01*
Y752522D01*
D02*
G37*
G36*
X289972Y751490D02*
X290145D01*
Y749763D01*
X289972D01*
Y751318D01*
X289799D01*
Y748209D01*
X289972D01*
Y748382D01*
X290145D01*
Y747345D01*
X289483D01*
Y745903D01*
X289138D01*
Y746075D01*
X288965D01*
Y746248D01*
X288792D01*
Y746421D01*
X288620D01*
Y747112D01*
X288102D01*
Y747173D01*
X278919D01*
Y751663D01*
X289972D01*
Y751490D01*
D02*
G37*
G36*
X290145Y749418D02*
X289972D01*
Y749591D01*
X290145D01*
Y749418D01*
D02*
G37*
G36*
Y749072D02*
X289972D01*
Y749245D01*
X290145D01*
Y749072D01*
D02*
G37*
G36*
X248351Y750393D02*
X248898D01*
Y750220D01*
X249070D01*
Y750048D01*
X249243D01*
Y749875D01*
X249416D01*
Y749702D01*
X249589D01*
Y749529D01*
X249761D01*
Y748839D01*
X249416D01*
Y748666D01*
X249243D01*
Y748493D01*
X249070D01*
Y748148D01*
X249243D01*
Y747457D01*
X248898D01*
Y747284D01*
X249070D01*
Y746939D01*
X249243D01*
Y746766D01*
X249416D01*
Y746594D01*
X249589D01*
Y746421D01*
X249761D01*
Y745730D01*
X249589D01*
Y745557D01*
X249070D01*
Y745730D01*
X248552D01*
Y745903D01*
X248380D01*
Y746075D01*
X248207D01*
Y746248D01*
X248034D01*
Y748839D01*
X247862D01*
Y749011D01*
X247832D01*
Y748900D01*
X247660D01*
Y748554D01*
X247487D01*
Y748382D01*
X247314D01*
Y747864D01*
X247142D01*
Y747691D01*
X246969D01*
Y747345D01*
X246796D01*
Y747173D01*
X246623D01*
Y747000D01*
X246969D01*
Y746827D01*
X247142D01*
Y746655D01*
X247314D01*
Y746482D01*
X247487D01*
Y746309D01*
X247660D01*
Y745964D01*
X247832D01*
Y745273D01*
X247142D01*
Y745446D01*
X246796D01*
Y745618D01*
X246623D01*
Y745791D01*
X246451D01*
Y745964D01*
X246278D01*
Y746136D01*
X246105D01*
Y746482D01*
X245933D01*
Y746827D01*
X245760D01*
Y747000D01*
X245587D01*
Y747518D01*
X245415D01*
Y748036D01*
X245242D01*
Y748209D01*
X245069D01*
Y748554D01*
X244896D01*
Y748900D01*
X244724D01*
Y749418D01*
X244551D01*
Y749763D01*
X244378D01*
Y750109D01*
X244206D01*
Y750454D01*
X244033D01*
Y750627D01*
X244206D01*
Y750799D01*
X244896D01*
Y750627D01*
X245415D01*
Y750454D01*
X245587D01*
Y749072D01*
Y748900D01*
Y748727D01*
X245760D01*
Y748900D01*
X245933D01*
Y749072D01*
X246623D01*
Y748900D01*
X246796D01*
Y749591D01*
X246969D01*
Y750454D01*
X247142D01*
Y750627D01*
X247314D01*
Y750799D01*
X248351D01*
Y750393D01*
D02*
G37*
G36*
X234534Y750799D02*
X234880D01*
Y750627D01*
X235225D01*
Y750454D01*
X235398D01*
Y750281D01*
X235570D01*
Y750109D01*
X235743D01*
Y749936D01*
X235916D01*
Y749591D01*
X235743D01*
Y749418D01*
X235570D01*
Y749245D01*
X235398D01*
Y749072D01*
X235225D01*
Y748900D01*
X234880D01*
Y748727D01*
X234534D01*
Y748554D01*
X233843D01*
Y748382D01*
X233325D01*
Y747518D01*
X233498D01*
Y747345D01*
X233843D01*
Y747518D01*
X234189D01*
Y747691D01*
X234361D01*
Y747864D01*
X234534D01*
Y748036D01*
X234880D01*
Y748209D01*
X235427D01*
Y748321D01*
X235254D01*
Y748666D01*
X235427D01*
Y748839D01*
X235600D01*
Y749011D01*
X235772D01*
Y749184D01*
X235945D01*
Y749357D01*
X236290D01*
Y749529D01*
X236636D01*
Y749702D01*
X237845D01*
Y749529D01*
X238363D01*
Y749357D01*
X238535D01*
Y749184D01*
X238708D01*
Y749011D01*
X238881D01*
Y748839D01*
X239054D01*
Y748321D01*
X238190D01*
Y748493D01*
X237845D01*
Y748666D01*
X237672D01*
Y748839D01*
X236808D01*
Y748666D01*
X236636D01*
Y748321D01*
X236808D01*
Y748148D01*
X237499D01*
Y747975D01*
X238017D01*
Y747803D01*
X238363D01*
Y747630D01*
X238535D01*
Y747457D01*
X238881D01*
Y747284D01*
X239226D01*
Y747112D01*
X239399D01*
Y746766D01*
X239226D01*
Y746421D01*
X239054D01*
Y746248D01*
X238881D01*
Y746075D01*
X238535D01*
Y745903D01*
X238363D01*
Y745730D01*
X238017D01*
Y745557D01*
X236463D01*
Y745730D01*
X236118D01*
Y745903D01*
X235772D01*
Y746075D01*
X235600D01*
Y746248D01*
X235427D01*
Y746421D01*
X235254D01*
Y746939D01*
X235427D01*
Y747112D01*
X235600D01*
Y746939D01*
X236290D01*
Y746766D01*
X236636D01*
Y746594D01*
X236808D01*
Y746421D01*
X236981D01*
Y746248D01*
X237327D01*
Y746075D01*
X237672D01*
Y746248D01*
X237845D01*
Y747112D01*
X237327D01*
Y747284D01*
X236636D01*
Y747457D01*
X236290D01*
Y747630D01*
X235945D01*
Y747803D01*
X235916D01*
Y747691D01*
X235743D01*
Y747518D01*
X235570D01*
Y747345D01*
X235398D01*
Y747173D01*
X235052D01*
Y747000D01*
X234707D01*
Y746827D01*
X233153D01*
Y747000D01*
X232807D01*
Y747173D01*
X232635D01*
Y747345D01*
X232289D01*
Y747518D01*
X232116D01*
Y747691D01*
X231944D01*
Y748036D01*
X231771D01*
Y748382D01*
X231944D01*
Y748554D01*
X232289D01*
Y748727D01*
X232635D01*
Y748900D01*
X232807D01*
Y749072D01*
X233153D01*
Y749245D01*
X233671D01*
Y749418D01*
X234361D01*
Y749591D01*
X234534D01*
Y749936D01*
X234361D01*
Y750109D01*
X233498D01*
Y749936D01*
X233325D01*
Y749763D01*
X232980D01*
Y749591D01*
X232116D01*
Y750109D01*
X232289D01*
Y750281D01*
X232462D01*
Y750454D01*
X232635D01*
Y750627D01*
X232807D01*
Y750799D01*
X233325D01*
Y750972D01*
X234534D01*
Y750799D01*
D02*
G37*
G36*
X211219D02*
X211737D01*
Y750627D01*
X212083D01*
Y750454D01*
X212255D01*
Y750281D01*
X212428D01*
Y750109D01*
X212601D01*
Y749936D01*
X212773D01*
Y749702D01*
X213321D01*
Y749529D01*
X213666D01*
Y749357D01*
X213839D01*
Y749184D01*
X214012D01*
Y749011D01*
X214184D01*
Y748839D01*
X214357D01*
Y748321D01*
X213666D01*
Y748493D01*
X213321D01*
Y748666D01*
X212975D01*
Y748839D01*
X212946D01*
Y748148D01*
X212975D01*
Y747975D01*
X213493D01*
Y747803D01*
X213666D01*
Y747630D01*
X213839D01*
Y747457D01*
X214184D01*
Y747284D01*
X214530D01*
Y746421D01*
X214357D01*
Y746248D01*
X214184D01*
Y746075D01*
X213839D01*
Y745903D01*
X213666D01*
Y745730D01*
X213493D01*
Y745557D01*
X211766D01*
Y745730D01*
X211421D01*
Y745903D01*
X211076D01*
Y746075D01*
X210730D01*
Y746248D01*
X210557D01*
Y746827D01*
X210010D01*
Y747000D01*
X209665D01*
Y747173D01*
X209492D01*
Y747345D01*
X209319D01*
Y747518D01*
X209147D01*
Y747691D01*
X208974D01*
Y748036D01*
X208801D01*
Y749418D01*
Y749591D01*
Y749936D01*
X208974D01*
Y750109D01*
X209147D01*
Y750281D01*
X209319D01*
Y750454D01*
X209492D01*
Y750627D01*
X209838D01*
Y750799D01*
X210183D01*
Y750972D01*
X211219D01*
Y750799D01*
D02*
G37*
G36*
X181198Y748148D02*
X181025D01*
Y748321D01*
X181198D01*
Y748148D01*
D02*
G37*
G36*
Y747803D02*
X181025D01*
Y747975D01*
X181198D01*
Y747803D01*
D02*
G37*
G36*
X183759Y750799D02*
X184277D01*
Y750627D01*
X184450D01*
Y750454D01*
X184795D01*
Y750393D01*
X192251D01*
Y745903D01*
X181889D01*
Y746075D01*
X181025D01*
Y747112D01*
X181198D01*
Y746939D01*
X181371D01*
Y750048D01*
X181198D01*
Y748493D01*
X181025D01*
Y750220D01*
X181198D01*
Y750393D01*
X181687D01*
Y750627D01*
X182205D01*
Y750799D01*
X182550D01*
Y750972D01*
X183759D01*
Y750799D01*
D02*
G37*
G36*
X850502Y745683D02*
X848434D01*
Y756154D01*
X850502D01*
Y745683D01*
D02*
G37*
G36*
X860508Y745677D02*
X858446D01*
Y756166D01*
X860508D01*
Y745677D01*
D02*
G37*
G36*
X900516Y745669D02*
X898479D01*
Y756199D01*
X900516D01*
Y745669D01*
D02*
G37*
G36*
X865518Y745667D02*
X863443D01*
Y756163D01*
X865518D01*
Y745667D01*
D02*
G37*
G36*
X845526Y745659D02*
X843334D01*
Y756054D01*
X845526D01*
Y745659D01*
D02*
G37*
G36*
X855529Y745657D02*
X853397D01*
Y756117D01*
X855529D01*
Y745657D01*
D02*
G37*
G36*
X870540Y745646D02*
X868433D01*
Y756153D01*
X870540D01*
Y745646D01*
D02*
G37*
G36*
X890552Y745633D02*
X888463D01*
Y756183D01*
X890552D01*
Y745633D01*
D02*
G37*
G36*
X875562Y745623D02*
X873428D01*
Y756149D01*
X875562D01*
Y745623D01*
D02*
G37*
G36*
X895576Y745610D02*
X893465D01*
Y756185D01*
X895576D01*
Y745610D01*
D02*
G37*
G36*
X880590Y745596D02*
X878427D01*
Y756147D01*
X880590D01*
Y745596D01*
D02*
G37*
G36*
X885601Y745584D02*
X883436D01*
Y756156D01*
X885601D01*
Y745584D01*
D02*
G37*
G36*
X286547Y746939D02*
X287065D01*
Y746766D01*
X287411D01*
Y746594D01*
X287583D01*
Y746421D01*
X287929D01*
Y746248D01*
X288447D01*
Y746075D01*
X288965D01*
Y745903D01*
X289138D01*
Y745730D01*
X288792D01*
Y745557D01*
X287238D01*
Y745730D01*
X286720D01*
Y745903D01*
X286547D01*
Y746075D01*
X286202D01*
Y746421D01*
X286029D01*
Y746939D01*
X286202D01*
Y747112D01*
X286547D01*
Y746939D01*
D02*
G37*
G36*
X259231Y750799D02*
X259576D01*
Y750627D01*
X259922D01*
Y750454D01*
X260094D01*
Y750281D01*
X260267D01*
Y750109D01*
X260440D01*
Y749936D01*
X260613D01*
Y749763D01*
X260440D01*
Y749702D01*
X260987D01*
Y749529D01*
X261332D01*
Y749357D01*
X261678D01*
Y749184D01*
X261851D01*
Y749011D01*
X262023D01*
Y748839D01*
X262196D01*
Y748666D01*
X262369D01*
Y748321D01*
Y748148D01*
Y746766D01*
X262196D01*
Y746421D01*
X262023D01*
Y746248D01*
X261851D01*
Y746075D01*
X261678D01*
Y745903D01*
X261505D01*
Y745730D01*
X261160D01*
Y745557D01*
X260469D01*
Y745385D01*
X260296D01*
Y745557D01*
X259605D01*
Y745730D01*
X259260D01*
Y745903D01*
X259087D01*
Y746075D01*
X258742D01*
Y746248D01*
X258569D01*
Y746421D01*
X258396D01*
Y746766D01*
X258224D01*
Y746827D01*
X257677D01*
Y747000D01*
X257504D01*
Y747173D01*
X257331D01*
Y747345D01*
X256986D01*
Y747518D01*
X256813D01*
Y747691D01*
X256640D01*
Y748554D01*
X256986D01*
Y748727D01*
X257331D01*
Y748900D01*
X257504D01*
Y749072D01*
X257677D01*
Y749245D01*
X258195D01*
Y749418D01*
X259058D01*
Y749591D01*
X259231D01*
Y750109D01*
X258195D01*
Y749936D01*
X257849D01*
Y749763D01*
X257504D01*
Y749591D01*
X256813D01*
Y750109D01*
X256986D01*
Y750281D01*
X257158D01*
Y750454D01*
X257331D01*
Y750627D01*
X257504D01*
Y750799D01*
X257849D01*
Y750972D01*
X259231D01*
Y750799D01*
D02*
G37*
G36*
X223136Y750972D02*
X223308D01*
Y750799D01*
X223481D01*
Y750627D01*
X223827D01*
Y750281D01*
X223308D01*
Y750109D01*
X223136D01*
Y749529D01*
X223856D01*
Y749357D01*
X224028D01*
Y749184D01*
X224201D01*
Y748321D01*
X224374D01*
Y747630D01*
X224547D01*
Y747803D01*
X225237D01*
Y747630D01*
X225410D01*
Y747457D01*
X225583D01*
Y747112D01*
X225756D01*
Y747457D01*
X225583D01*
Y747630D01*
Y747803D01*
Y749184D01*
X225756D01*
Y749357D01*
X226274D01*
Y749529D01*
X226964D01*
Y749357D01*
X227137D01*
Y749184D01*
X226964D01*
Y748839D01*
X226792D01*
Y748493D01*
X226619D01*
Y748148D01*
X226446D01*
Y747630D01*
X226274D01*
Y747284D01*
X226101D01*
Y746939D01*
X225928D01*
Y746766D01*
X225756D01*
Y746248D01*
X225583D01*
Y745730D01*
X225410D01*
Y745557D01*
X225237D01*
Y745212D01*
X225065D01*
Y744866D01*
X224892D01*
Y744694D01*
X224719D01*
Y744521D01*
X224547D01*
Y744348D01*
X224374D01*
Y744176D01*
X224028D01*
Y744003D01*
X223338D01*
Y744694D01*
X223510D01*
Y745039D01*
X223683D01*
Y745212D01*
X223856D01*
Y745385D01*
X224028D01*
Y745557D01*
X224201D01*
Y745730D01*
X224547D01*
Y745903D01*
X224374D01*
Y746075D01*
X224201D01*
Y746421D01*
X224028D01*
Y746594D01*
X223856D01*
Y747112D01*
X223683D01*
Y747284D01*
X223510D01*
Y747630D01*
X223338D01*
Y748148D01*
X223165D01*
Y748666D01*
X223136D01*
Y747518D01*
X222963D01*
Y747345D01*
X222790D01*
Y747173D01*
X222618D01*
Y747000D01*
X222099D01*
Y746827D01*
X221581D01*
Y747000D01*
X221409D01*
Y747691D01*
X221581D01*
Y747864D01*
X221754D01*
Y748036D01*
X221927D01*
Y748209D01*
X222099D01*
Y748554D01*
X222272D01*
Y748727D01*
X221927D01*
Y749418D01*
X222099D01*
Y749763D01*
X221927D01*
Y749936D01*
X221754D01*
Y750109D01*
X221409D01*
Y750799D01*
X221581D01*
Y750972D01*
X221754D01*
Y751145D01*
X221927D01*
Y751318D01*
X222099D01*
Y751490D01*
X222272D01*
Y751663D01*
X223136D01*
Y750972D01*
D02*
G37*
G36*
X717446Y737522D02*
X704446D01*
Y742522D01*
X717446D01*
Y737522D01*
D02*
G37*
G36*
X1034382Y732640D02*
X1029382D01*
Y745640D01*
X1034382D01*
Y732640D01*
D02*
G37*
G36*
X1019382D02*
X1014382D01*
Y745640D01*
X1019382D01*
Y732640D01*
D02*
G37*
G36*
X926742Y705642D02*
X913742D01*
Y710642D01*
X926742D01*
Y705642D01*
D02*
G37*
G36*
X903882Y705422D02*
X890882D01*
Y710422D01*
X903882D01*
Y705422D01*
D02*
G37*
G36*
X881022D02*
X868022D01*
Y710422D01*
X881022D01*
Y705422D01*
D02*
G37*
G36*
X853082D02*
X840082D01*
Y710422D01*
X853082D01*
Y705422D01*
D02*
G37*
G36*
X830222D02*
X817222D01*
Y710422D01*
X830222D01*
Y705422D01*
D02*
G37*
G36*
X652930Y703390D02*
X639930D01*
Y708390D01*
X652930D01*
Y703390D01*
D02*
G37*
G36*
X963262Y700382D02*
X958262D01*
Y713382D01*
X963262D01*
Y700382D01*
D02*
G37*
G36*
X948262D02*
X943262D01*
Y713382D01*
X948262D01*
Y700382D01*
D02*
G37*
G36*
X926742Y690642D02*
X913742D01*
Y695642D01*
X926742D01*
Y690642D01*
D02*
G37*
G36*
X903882Y690422D02*
X890882D01*
Y695422D01*
X903882D01*
Y690422D01*
D02*
G37*
G36*
X881022D02*
X868022D01*
Y695422D01*
X881022D01*
Y690422D01*
D02*
G37*
G36*
X853082D02*
X840082D01*
Y695422D01*
X853082D01*
Y690422D01*
D02*
G37*
G36*
X830222D02*
X817222D01*
Y695422D01*
X830222D01*
Y690422D01*
D02*
G37*
G36*
X652930Y688390D02*
X639930D01*
Y693390D01*
X652930D01*
Y688390D01*
D02*
G37*
G36*
X963262Y677522D02*
X958262D01*
Y690522D01*
X963262D01*
Y677522D01*
D02*
G37*
G36*
X948262D02*
X943262D01*
Y690522D01*
X948262D01*
Y677522D01*
D02*
G37*
G36*
X806434Y657456D02*
X801434D01*
Y670456D01*
X806434D01*
Y657456D01*
D02*
G37*
G36*
X791434D02*
X786434D01*
Y670456D01*
X791434D01*
Y657456D01*
D02*
G37*
G36*
X963262Y652122D02*
X958262D01*
Y665122D01*
X963262D01*
Y652122D01*
D02*
G37*
G36*
X948262D02*
X943262D01*
Y665122D01*
X948262D01*
Y652122D01*
D02*
G37*
G36*
X534510Y651360D02*
X529510D01*
Y664360D01*
X534510D01*
Y651360D01*
D02*
G37*
G36*
X519510D02*
X514510D01*
Y664360D01*
X519510D01*
Y651360D01*
D02*
G37*
G36*
X435760Y636300D02*
X422760D01*
Y641300D01*
X435760D01*
Y636300D01*
D02*
G37*
G36*
X463700Y636190D02*
X450700D01*
Y641190D01*
X463700D01*
Y636190D01*
D02*
G37*
G36*
X391310D02*
X378310D01*
Y641190D01*
X391310D01*
Y636190D01*
D02*
G37*
G36*
X364640D02*
X351640D01*
Y641190D01*
X364640D01*
Y636190D01*
D02*
G37*
G36*
X806290Y634596D02*
X801290D01*
Y647596D01*
X806290D01*
Y634596D01*
D02*
G37*
G36*
X791290D02*
X786290D01*
Y647596D01*
X791290D01*
Y634596D01*
D02*
G37*
G36*
X963262Y629262D02*
X958262D01*
Y642262D01*
X963262D01*
Y629262D01*
D02*
G37*
G36*
X948262D02*
X943262D01*
Y642262D01*
X948262D01*
Y629262D01*
D02*
G37*
G36*
X534510Y628500D02*
X529510D01*
Y641500D01*
X534510D01*
Y628500D01*
D02*
G37*
G36*
X519510D02*
X514510D01*
Y641500D01*
X519510D01*
Y628500D01*
D02*
G37*
G36*
X435760Y621300D02*
X422760D01*
Y626300D01*
X435760D01*
Y621300D01*
D02*
G37*
G36*
X463700Y621190D02*
X450700D01*
Y626190D01*
X463700D01*
Y621190D01*
D02*
G37*
G36*
X391310D02*
X378310D01*
Y626190D01*
X391310D01*
Y621190D01*
D02*
G37*
G36*
X364640D02*
X351640D01*
Y626190D01*
X364640D01*
Y621190D01*
D02*
G37*
G36*
X534510Y605640D02*
X529510D01*
Y618640D01*
X534510D01*
Y605640D01*
D02*
G37*
G36*
X519510D02*
X514510D01*
Y618640D01*
X519510D01*
Y605640D01*
D02*
G37*
G36*
X635150Y586660D02*
X622150D01*
Y591660D01*
X635150D01*
Y586660D01*
D02*
G37*
G36*
Y571660D02*
X622150D01*
Y576660D01*
X635150D01*
Y571660D01*
D02*
G37*
G36*
X90010Y548490D02*
X85010D01*
Y561490D01*
X90010D01*
Y548490D01*
D02*
G37*
G36*
X75010D02*
X70010D01*
Y561490D01*
X75010D01*
Y548490D01*
D02*
G37*
G36*
X1031390Y516920D02*
X1018390D01*
Y521920D01*
X1031390D01*
Y516920D01*
D02*
G37*
G36*
Y501920D02*
X1018390D01*
Y506920D01*
X1031390D01*
Y501920D01*
D02*
G37*
G36*
Y457120D02*
X1018390D01*
Y462120D01*
X1031390D01*
Y457120D01*
D02*
G37*
G36*
Y442120D02*
X1018390D01*
Y447120D01*
X1031390D01*
Y442120D01*
D02*
G37*
G36*
X972770Y432920D02*
X967770D01*
Y445920D01*
X972770D01*
Y432920D01*
D02*
G37*
G36*
X957770D02*
X952770D01*
Y445920D01*
X957770D01*
Y432920D01*
D02*
G37*
G36*
X834286Y398556D02*
X821286D01*
Y403556D01*
X834286D01*
Y398556D01*
D02*
G37*
G36*
Y383556D02*
X821286D01*
Y388556D01*
X834286D01*
Y383556D01*
D02*
G37*
G36*
X1124100Y267890D02*
X1111100D01*
Y272890D01*
X1124100D01*
Y267890D01*
D02*
G37*
G36*
X1099970D02*
X1086970D01*
Y272890D01*
X1099970D01*
Y267890D01*
D02*
G37*
G36*
X1077110Y267780D02*
X1064110D01*
Y272780D01*
X1077110D01*
Y267780D01*
D02*
G37*
G36*
X1012340Y265350D02*
X999340D01*
Y270350D01*
X1012340D01*
Y265350D01*
D02*
G37*
G36*
X1124100Y252890D02*
X1111100D01*
Y257890D01*
X1124100D01*
Y252890D01*
D02*
G37*
G36*
X1099970D02*
X1086970D01*
Y257890D01*
X1099970D01*
Y252890D01*
D02*
G37*
G36*
X1077110Y252780D02*
X1064110D01*
Y257780D01*
X1077110D01*
Y252780D01*
D02*
G37*
G36*
X1012340Y250350D02*
X999340D01*
Y255350D01*
X1012340D01*
Y250350D01*
D02*
G37*
G36*
X983130Y173910D02*
X970130D01*
Y178910D01*
X983130D01*
Y173910D01*
D02*
G37*
G36*
X956460D02*
X943460D01*
Y178910D01*
X956460D01*
Y173910D01*
D02*
G37*
G36*
X983130Y158910D02*
X970130D01*
Y163910D01*
X983130D01*
Y158910D01*
D02*
G37*
G36*
X956460D02*
X943460D01*
Y163910D01*
X956460D01*
Y158910D01*
D02*
G37*
G36*
X1012030Y126850D02*
X1007030D01*
Y139850D01*
X1012030D01*
Y126850D01*
D02*
G37*
G36*
X997030D02*
X992030D01*
Y139850D01*
X997030D01*
Y126850D01*
D02*
G37*
G36*
X932330Y86280D02*
X919330D01*
Y91280D01*
X932330D01*
Y86280D01*
D02*
G37*
G36*
Y71280D02*
X919330D01*
Y76280D01*
X932330D01*
Y71280D01*
D02*
G37*
%LPC*%
G36*
X221409Y766343D02*
X220920D01*
Y765418D01*
X220747D01*
Y763062D01*
X220891D01*
Y763234D01*
X221236D01*
Y763407D01*
X221409D01*
Y763580D01*
X221581D01*
Y763925D01*
X221754D01*
Y764098D01*
X221927D01*
Y764270D01*
X222099D01*
Y764616D01*
X222272D01*
Y765479D01*
X222099D01*
Y765825D01*
X221927D01*
Y765997D01*
X221754D01*
Y766170D01*
X221409D01*
Y766343D01*
D02*
G37*
G36*
X289799Y762716D02*
X289627D01*
Y762543D01*
X289799D01*
Y762716D01*
D02*
G37*
G36*
X250423Y765073D02*
X249761D01*
Y764900D01*
X249416D01*
Y764727D01*
X249243D01*
Y764555D01*
X249070D01*
Y764209D01*
X249041D01*
Y763346D01*
X249070D01*
Y763000D01*
X249243D01*
Y762828D01*
X249416D01*
Y762655D01*
X249589D01*
Y762310D01*
X249761D01*
Y762137D01*
X249934D01*
Y761964D01*
X250279D01*
Y761792D01*
X250423D01*
Y765073D01*
D02*
G37*
G36*
X273249Y763234D02*
X271004D01*
Y761507D01*
X273249D01*
Y763234D01*
D02*
G37*
G36*
X181543Y761446D02*
X181371D01*
Y761273D01*
X181543D01*
Y761446D01*
D02*
G37*
G36*
X281884Y763580D02*
X281021D01*
Y762828D01*
X281193D01*
Y761335D01*
X281855D01*
Y761162D01*
X282201D01*
Y760989D01*
X282373D01*
Y760816D01*
X282402D01*
Y761446D01*
X282230D01*
Y762482D01*
X282057D01*
Y763173D01*
X281884D01*
Y763580D01*
D02*
G37*
G36*
X200166Y761964D02*
X197921D01*
Y761853D01*
Y760237D01*
X200166D01*
Y761964D01*
D02*
G37*
G36*
X282748Y759607D02*
X282719D01*
Y759262D01*
X282546D01*
Y759089D01*
X282373D01*
Y758917D01*
X282201D01*
Y758744D01*
X282028D01*
Y758571D01*
X281682D01*
Y758399D01*
X281193D01*
Y758165D01*
X281366D01*
Y756672D01*
X283409D01*
Y756783D01*
X283266D01*
Y757474D01*
X283093D01*
Y758165D01*
X282920D01*
Y758856D01*
X282748D01*
Y759607D01*
D02*
G37*
G36*
X278430Y758399D02*
X277048D01*
Y756672D01*
X278257D01*
Y756783D01*
X278430D01*
Y758399D01*
D02*
G37*
G36*
X273249D02*
X271004D01*
Y755981D01*
X271147D01*
Y756153D01*
X271320D01*
Y756326D01*
X271493D01*
Y756499D01*
X271838D01*
Y756672D01*
X273249D01*
Y758399D01*
D02*
G37*
G36*
X200166Y757129D02*
X197921D01*
Y756153D01*
X198094D01*
Y755635D01*
X198266D01*
Y755462D01*
X198785D01*
Y755402D01*
X199303D01*
Y755462D01*
X199993D01*
Y755808D01*
X200166D01*
Y757129D01*
D02*
G37*
G36*
X194121D02*
X192913D01*
Y755402D01*
X194294D01*
Y755981D01*
X194121D01*
Y757129D01*
D02*
G37*
G36*
X189977Y762310D02*
X188768D01*
Y761853D01*
X188595D01*
Y760989D01*
X188422D01*
Y760126D01*
X188250D01*
Y759435D01*
X188077D01*
Y758744D01*
X187904D01*
Y758053D01*
X187731D01*
Y757190D01*
X187559D01*
Y756499D01*
X187415D01*
Y755920D01*
X187588D01*
Y755574D01*
X187761D01*
Y755402D01*
X189804D01*
Y757129D01*
X189488D01*
Y757301D01*
X189142D01*
Y757474D01*
X188969D01*
Y757647D01*
X188797D01*
Y757819D01*
X188624D01*
Y757992D01*
X188451D01*
Y758337D01*
X188279D01*
Y759201D01*
X188451D01*
Y759374D01*
X188624D01*
Y759546D01*
X188797D01*
Y759719D01*
X188969D01*
Y759892D01*
X189315D01*
Y760064D01*
X189977D01*
Y762310D01*
D02*
G37*
G36*
X244206Y766343D02*
X243889D01*
Y766109D01*
X243717D01*
Y761101D01*
Y760928D01*
Y755290D01*
X244206D01*
Y755462D01*
X244724D01*
Y755635D01*
X244896D01*
Y755808D01*
X245069D01*
Y762025D01*
Y762198D01*
Y765479D01*
X244896D01*
Y765825D01*
X244724D01*
Y765997D01*
X244551D01*
Y766170D01*
X244206D01*
Y766343D01*
D02*
G37*
G36*
X222129Y759607D02*
X222099D01*
Y759435D01*
X221927D01*
Y759262D01*
X221581D01*
Y759089D01*
X221409D01*
Y758917D01*
X221236D01*
Y758744D01*
X221063D01*
Y758571D01*
X220891D01*
Y758399D01*
X220747D01*
Y755290D01*
X221409D01*
Y755462D01*
X221927D01*
Y755635D01*
X222099D01*
Y755981D01*
X222129D01*
Y759607D01*
D02*
G37*
G36*
X289799Y758399D02*
X289627D01*
Y754426D01*
X289799D01*
Y754599D01*
X289972D01*
Y756672D01*
X289799D01*
Y758399D01*
D02*
G37*
G36*
X227453Y765073D02*
X226964D01*
Y764900D01*
X226619D01*
Y764727D01*
X226446D01*
Y764555D01*
X226274D01*
Y764209D01*
X226101D01*
Y760928D01*
Y760755D01*
Y754538D01*
X226274D01*
Y754365D01*
X226446D01*
Y754193D01*
X226964D01*
Y754020D01*
X227655D01*
Y754193D01*
X228001D01*
Y754365D01*
X228173D01*
Y754426D01*
X228144D01*
Y754599D01*
X227971D01*
Y754944D01*
X227799D01*
Y755290D01*
X227626D01*
Y756153D01*
X227453D01*
Y762198D01*
Y762371D01*
Y765073D01*
D02*
G37*
G36*
X249070Y758337D02*
X249041D01*
Y756326D01*
X248898D01*
Y754711D01*
X249070D01*
Y754365D01*
X249243D01*
Y754193D01*
X249761D01*
Y754020D01*
X250250D01*
Y755808D01*
X250423D01*
Y757129D01*
X250279D01*
Y757301D01*
X250107D01*
Y757474D01*
X249934D01*
Y757647D01*
X249761D01*
Y757819D01*
X249589D01*
Y757992D01*
X249243D01*
Y758165D01*
X249070D01*
Y758337D01*
D02*
G37*
G36*
X181543Y757129D02*
X181371D01*
Y755402D01*
X181198D01*
Y753329D01*
X181371D01*
Y753156D01*
X181543D01*
Y757129D01*
D02*
G37*
G36*
X269622Y752120D02*
X269593D01*
Y752009D01*
X269622D01*
Y752120D01*
D02*
G37*
G36*
X270313Y751947D02*
X269939D01*
Y751836D01*
X270313D01*
Y751947D01*
D02*
G37*
G36*
X248034Y749936D02*
X248005D01*
Y749702D01*
X248034D01*
Y749936D01*
D02*
G37*
G36*
X245587Y748727D02*
X245415D01*
Y748382D01*
X245587D01*
Y748727D01*
D02*
G37*
G36*
X211565Y750109D02*
X210183D01*
Y749936D01*
X210010D01*
Y749418D01*
X211565D01*
Y750109D01*
D02*
G37*
G36*
X210730Y748727D02*
X209147D01*
Y748554D01*
X209319D01*
Y748382D01*
X209665D01*
Y748209D01*
X209838D01*
Y748036D01*
X210010D01*
Y747864D01*
X210356D01*
Y747691D01*
X210701D01*
Y747518D01*
X211047D01*
Y747691D01*
X211248D01*
Y747803D01*
X211076D01*
Y747975D01*
X210903D01*
Y748148D01*
X210730D01*
Y748493D01*
X210557D01*
Y748666D01*
X210730D01*
Y748727D01*
D02*
G37*
G36*
X212112Y747345D02*
X212083D01*
Y747173D01*
X211910D01*
Y747000D01*
X211565D01*
Y746939D01*
X211594D01*
Y746766D01*
X211939D01*
Y746594D01*
X212112D01*
Y746421D01*
X212285D01*
Y746248D01*
X213148D01*
Y747112D01*
X212803D01*
Y747284D01*
X212112D01*
Y747345D01*
D02*
G37*
G36*
X260987Y748839D02*
X259605D01*
Y748209D01*
X260267D01*
Y748382D01*
X260440D01*
Y748209D01*
X260613D01*
Y748148D01*
X261160D01*
Y748666D01*
X260987D01*
Y748839D01*
D02*
G37*
G36*
X258396Y748554D02*
X258367D01*
Y748382D01*
X258022D01*
Y747518D01*
X258224D01*
Y748321D01*
X258396D01*
Y748554D01*
D02*
G37*
G36*
X262023Y747457D02*
X260440D01*
Y747345D01*
X260094D01*
Y747173D01*
X259749D01*
Y747000D01*
X259433D01*
Y746939D01*
X259605D01*
Y746594D01*
X259778D01*
Y746421D01*
X260124D01*
Y746248D01*
X260469D01*
Y746421D01*
X260814D01*
Y746594D01*
X261160D01*
Y746766D01*
X261332D01*
Y746939D01*
X261505D01*
Y747112D01*
X261851D01*
Y747284D01*
X262023D01*
Y747457D01*
D02*
G37*
%LPD*%
D10*
X1194800Y338880D02*
G03*
X1194800Y338880I-1000J0D01*
G01*
X53070Y641440D02*
G03*
X53070Y641440I-1000J0D01*
G01*
X182490Y620610D02*
G03*
X182490Y620610I-1000J0D01*
G01*
X648380Y44450D02*
G03*
X648380Y44450I-1000J0D01*
G01*
X497250D02*
G03*
X497250Y44450I-1000J0D01*
G01*
X113510Y513080D02*
G03*
X113510Y513080I-1000J0D01*
G01*
X134870Y678180D02*
G03*
X134870Y678180I-1000J0D01*
G01*
X605780Y560430D02*
G03*
X605780Y560430I-1000J0D01*
G01*
X281040Y401320D02*
G03*
X281040Y401320I-1000J0D01*
G01*
X1149080Y319400D02*
G03*
X1149080Y319400I-1000J0D01*
G01*
X86730Y401320D02*
G03*
X86730Y401320I-1000J0D01*
G01*
X881110Y512600D02*
G03*
X881110Y512600I-1000J0D01*
G01*
X226710Y975360D02*
G03*
X226710Y975360I-1000J0D01*
G01*
X476330Y974090D02*
G03*
X476330Y974090I-1000J0D01*
G01*
X90820Y975360D02*
G03*
X90820Y975360I-1000J0D01*
G01*
X1136420Y870370D02*
G03*
X1136420Y870370I-1000J0D01*
G01*
X417160Y413360D02*
G03*
X417160Y413360I-1000J0D01*
G01*
X221590Y412700D02*
G03*
X221590Y412700I-1000J0D01*
G01*
X450970Y564480D02*
G03*
X450970Y564480I-1000J0D01*
G01*
X393700Y467160D02*
G03*
X393700Y467160I-1000J0D01*
G01*
X190500D02*
G03*
X190500Y467160I-1000J0D01*
G01*
X470630Y172920D02*
G03*
X470630Y172920I-1000J0D01*
G01*
X620490D02*
G03*
X620490Y172920I-1000J0D01*
G01*
X982200Y62590D02*
G03*
X982200Y62590I-1000J0D01*
G01*
X1028430Y288290D02*
G03*
X1028430Y288290I-1000J0D01*
G01*
X564360Y891480D02*
G03*
X564360Y891480I-1000J0D01*
G01*
D11*
X542137Y513039D02*
G03*
X618643Y513039I38253J-105099D01*
G01*
X105010Y513080D02*
G03*
X105010Y513080I-25000J0D01*
G01*
X191370Y678180D02*
G03*
X191370Y678180I-25000J0D01*
G01*
X1082140Y475140D02*
Y495140D01*
X1094640Y475140D02*
Y495140D01*
X1082140D02*
X1094640D01*
X1082140Y475140D02*
X1094640D01*
X1173800Y211380D02*
Y331380D01*
Y211380D02*
X1293800D01*
Y331380D01*
X1173800D02*
X1293800D01*
X617890Y513310D02*
Y540060D01*
X542890Y513310D02*
Y540060D01*
X617890D01*
X40020Y650240D02*
X64120D01*
X40020D02*
Y802640D01*
X64120D01*
Y650240D02*
Y802640D01*
X167990Y570710D02*
Y630710D01*
X52990D02*
X167990D01*
X52990Y570710D02*
Y630710D01*
Y570710D02*
X167990D01*
X836482Y826202D02*
X907482D01*
Y755202D02*
Y826202D01*
X836482Y755202D02*
X907482D01*
X836482D02*
Y826202D01*
X558900Y104300D02*
X571400D01*
X558900Y124300D02*
X571400D01*
X558900Y104300D02*
Y124300D01*
X571400Y104300D02*
Y124300D01*
X652780Y32400D02*
Y56500D01*
X728980D01*
Y32400D02*
Y56500D01*
X652780Y32400D02*
X728980D01*
X501650D02*
Y56500D01*
X577850D01*
Y32400D02*
Y56500D01*
X501650Y32400D02*
X577850D01*
X532230Y104300D02*
X544730D01*
X532230Y124300D02*
X544730D01*
X532230Y104300D02*
Y124300D01*
X544730Y104300D02*
Y124300D01*
X682090Y104300D02*
X694590D01*
X682090Y124300D02*
X694590D01*
X682090Y104300D02*
Y124300D01*
X694590Y104300D02*
Y124300D01*
X712570Y103980D02*
X725070D01*
X712570Y123980D02*
X725070D01*
X712570Y103980D02*
Y123980D01*
X725070Y103980D02*
Y123980D01*
X70010Y561490D02*
X90010D01*
Y548490D02*
Y561490D01*
X70010Y548490D02*
X90010D01*
X70010D02*
Y561490D01*
X1042570Y463490D02*
X1068170D01*
Y506790D01*
X1042570D02*
X1068170D01*
X1042570Y463490D02*
Y506790D01*
X622150Y571660D02*
Y591660D01*
Y571660D02*
X635150D01*
Y591660D01*
X622150D02*
X635150D01*
X628500Y842170D02*
Y862170D01*
Y842170D02*
X641500D01*
Y862170D01*
X628500D02*
X641500D01*
X654290Y834940D02*
Y871940D01*
X684290Y834940D02*
Y871940D01*
X654290D02*
X684290D01*
X654290Y834940D02*
X684290D01*
X547220Y880270D02*
X560220D01*
X547220D02*
Y900270D01*
X560220D01*
Y880270D02*
Y900270D01*
X422760Y621300D02*
X435760D01*
X422760D02*
Y641300D01*
X435760D01*
Y621300D02*
Y641300D01*
X534510Y628500D02*
Y641500D01*
X514510Y628500D02*
X534510D01*
X514510D02*
Y641500D01*
X534510D01*
Y651360D02*
Y664360D01*
X514510Y651360D02*
X534510D01*
X514510D02*
Y664360D01*
X534510D01*
X394820Y812640D02*
X407820D01*
Y792640D02*
Y812640D01*
X394820Y792640D02*
X407820D01*
X394820D02*
Y812640D01*
X369420D02*
X382420D01*
Y792640D02*
Y812640D01*
X369420Y792640D02*
X382420D01*
X369420D02*
Y812640D01*
X378310Y621190D02*
X391310D01*
X378310D02*
Y641190D01*
X391310D01*
Y621190D02*
Y641190D01*
X351640Y621190D02*
X364640D01*
X351640D02*
Y641190D01*
X364640D01*
Y621190D02*
Y641190D01*
X514510Y605640D02*
Y618640D01*
X534510D01*
Y605640D02*
Y618640D01*
X514510Y605640D02*
X534510D01*
X463700Y621190D02*
Y641190D01*
X450700D02*
X463700D01*
X450700Y621190D02*
Y641190D01*
Y621190D02*
X463700D01*
X639930Y793590D02*
X652930D01*
Y773590D02*
Y793590D01*
X639930Y773590D02*
X652930D01*
X639930D02*
Y793590D01*
Y688390D02*
X652930D01*
X639930D02*
Y708390D01*
X652930D01*
Y688390D02*
Y708390D01*
X806434Y657456D02*
Y670456D01*
X786434Y657456D02*
X806434D01*
X786434D02*
Y670456D01*
X806434D01*
X806290Y634596D02*
Y647596D01*
X786290Y634596D02*
X806290D01*
X786290D02*
Y647596D01*
X806290D01*
X1128160Y135600D02*
X1178160D01*
Y15600D02*
Y135600D01*
X1128160Y15600D02*
X1178160D01*
X1128160D02*
Y135600D01*
X868022Y690422D02*
X881022D01*
X868022D02*
Y710422D01*
X881022D01*
Y690422D02*
Y710422D01*
X890882Y690422D02*
X903882D01*
X890882D02*
Y710422D01*
X903882D01*
Y690422D02*
Y710422D01*
X913742Y690642D02*
X926742D01*
X913742D02*
Y710642D01*
X926742D01*
Y690642D02*
Y710642D01*
X943262Y642262D02*
X963262D01*
X943262Y629262D02*
Y642262D01*
Y629262D02*
X963262D01*
Y642262D01*
Y652122D02*
Y665122D01*
X943262Y652122D02*
X963262D01*
X943262D02*
Y665122D01*
X963262D01*
Y677522D02*
Y690522D01*
X943262Y677522D02*
X963262D01*
X943262D02*
Y690522D01*
X963262D01*
Y700382D02*
Y713382D01*
X943262Y700382D02*
X963262D01*
X943262D02*
Y713382D01*
X963262D01*
X1142840Y887580D02*
Y900580D01*
X1122840Y887580D02*
X1142840D01*
X1122840D02*
Y900580D01*
X1142840D01*
X1078942Y785980D02*
Y798980D01*
X1058942Y785980D02*
X1078942D01*
X1058942D02*
Y798980D01*
X1078942D01*
Y758040D02*
Y771040D01*
X1058942Y758040D02*
X1078942D01*
X1058942D02*
Y771040D01*
X1078942D01*
X830222Y690422D02*
Y710422D01*
X817222D02*
X830222D01*
X817222Y690422D02*
Y710422D01*
Y690422D02*
X830222D01*
X840082D02*
X853082D01*
X840082D02*
Y710422D01*
X853082D01*
Y690422D02*
Y710422D01*
X1014382Y745640D02*
X1034382D01*
X1014382Y732640D02*
Y745640D01*
Y732640D02*
X1034382D01*
Y745640D01*
X704446Y822358D02*
X717446D01*
X704446D02*
Y842358D01*
X717446D01*
Y822358D02*
Y842358D01*
X1166640Y887620D02*
X1200640D01*
X1166640Y905620D02*
X1200640D01*
X1166640Y887620D02*
Y905620D01*
X1200640Y887620D02*
Y905620D01*
X704446Y757522D02*
X717446D01*
Y737522D02*
Y757522D01*
X704446Y737522D02*
X717446D01*
X704446D02*
Y757522D01*
X952770Y432920D02*
Y445920D01*
X972770D01*
Y432920D02*
Y445920D01*
X952770Y432920D02*
X972770D01*
X1018390Y501920D02*
X1031390D01*
X1018390D02*
Y521920D01*
X1031390D01*
Y501920D02*
Y521920D01*
X1018390Y462120D02*
X1031390D01*
Y442120D02*
Y462120D01*
X1018390Y442120D02*
X1031390D01*
X1018390D02*
Y462120D01*
X642770Y881430D02*
Y901430D01*
X629770D02*
X642770D01*
X629770Y881430D02*
Y901430D01*
Y881430D02*
X642770D01*
X581130Y589430D02*
X610130D01*
Y576430D02*
Y589430D01*
X581130Y576430D02*
X610130D01*
X581130D02*
Y589430D01*
X329090Y491540D02*
X349090D01*
Y504140D01*
X329090D02*
X349090D01*
X329090Y491540D02*
Y504140D01*
X298390Y388520D02*
Y414120D01*
X341690D01*
Y388520D02*
Y414120D01*
X298390Y388520D02*
X341690D01*
X1135280Y257750D02*
Y301050D01*
Y257750D02*
X1160880D01*
Y301050D01*
X1135280D02*
X1160880D01*
X1110030Y197870D02*
Y217870D01*
Y197870D02*
X1122630D01*
Y217870D01*
X1110030D02*
X1122630D01*
X125890Y487730D02*
Y500330D01*
X145890D01*
Y487730D02*
Y500330D01*
X125890Y487730D02*
X145890D01*
X104080Y388520D02*
X147380D01*
Y414120D01*
X104080D02*
X147380D01*
X104080Y388520D02*
Y414120D01*
X537260Y246220D02*
X549860D01*
Y226220D02*
Y246220D01*
X537260Y226220D02*
X549860D01*
X537260D02*
Y246220D01*
X689660Y244540D02*
X702260D01*
Y224540D02*
Y244540D01*
X689660Y224540D02*
X702260D01*
X689660D02*
Y244540D01*
X519380Y965360D02*
Y985360D01*
X506780D02*
X519380D01*
X506780Y965360D02*
Y985360D01*
Y965360D02*
X519380D01*
X776020Y524260D02*
X788620D01*
X776020D02*
Y544260D01*
X788620D01*
Y524260D02*
Y544260D01*
X773480Y382430D02*
Y402430D01*
Y382430D02*
X786080D01*
Y402430D01*
X773480D02*
X786080D01*
X1054040Y535840D02*
X1097340D01*
Y561440D01*
X1054040D02*
X1097340D01*
X1054040Y535840D02*
Y561440D01*
Y435710D02*
X1097340D01*
X1054040Y410110D02*
Y435710D01*
Y410110D02*
X1097340D01*
Y435710D01*
X872610Y465100D02*
Y500100D01*
Y465100D02*
X887610D01*
Y500100D01*
X872610D02*
X887610D01*
X1113900Y494340D02*
X1159400D01*
Y526740D01*
X1113900D02*
X1159400D01*
X1113900Y494340D02*
Y526740D01*
Y443540D02*
Y475940D01*
X1159400D01*
Y443540D02*
Y475940D01*
X1113900Y443540D02*
X1159400D01*
X943262Y616612D02*
X963262D01*
X943262Y604112D02*
X963262D01*
Y616612D01*
X943262Y604112D02*
Y616612D01*
X263800Y122870D02*
X445800D01*
X263800Y2870D02*
Y122870D01*
Y2870D02*
X445800D01*
Y122870D01*
X54580D02*
X236580D01*
X54580Y2870D02*
Y122870D01*
Y2870D02*
X236580D01*
Y122870D01*
X1095120Y705720D02*
Y864520D01*
Y705720D02*
X1307820D01*
Y864520D01*
X1095120D02*
X1307820D01*
X1175070Y370480D02*
Y552480D01*
Y370480D02*
X1295070D01*
Y552480D01*
X1175070D02*
X1295070D01*
X433600Y178320D02*
Y370320D01*
X277600Y178320D02*
X433600D01*
X277600D02*
Y370320D01*
X433600D01*
X84560D02*
X240560D01*
X84560Y178320D02*
Y370320D01*
Y178320D02*
X240560D01*
Y370320D01*
X397660Y389260D02*
Y418460D01*
X384660Y389260D02*
X397660D01*
X384660D02*
Y418460D01*
X397660D01*
X189090Y417800D02*
X202090D01*
X189090Y388600D02*
Y417800D01*
Y388600D02*
X202090D01*
Y417800D01*
X407510Y481430D02*
Y493930D01*
X427510Y481430D02*
Y493930D01*
X407510Y481430D02*
X427510D01*
X407510Y493930D02*
X427510D01*
X346550Y513180D02*
Y525680D01*
X326550Y513180D02*
Y525680D01*
X346550D01*
X326550Y513180D02*
X346550D01*
X571600Y843440D02*
X584100D01*
X571600Y863440D02*
X584100D01*
Y843440D02*
Y863440D01*
X571600Y843440D02*
Y863440D01*
X327760Y623730D02*
X340260D01*
X327760Y643730D02*
X340260D01*
Y623730D02*
Y643730D01*
X327760Y623730D02*
Y643730D01*
X407510Y430630D02*
Y443130D01*
X427510Y430630D02*
Y443130D01*
X407510Y430630D02*
X427510D01*
X407510Y443130D02*
X427510D01*
X407510Y456030D02*
Y468530D01*
X427510Y456030D02*
Y468530D01*
X407510Y456030D02*
X427510D01*
X407510Y468530D02*
X427510D01*
X600810Y843440D02*
X613310D01*
X600810Y863440D02*
X613310D01*
Y843440D02*
Y863440D01*
X600810Y843440D02*
Y863440D01*
X284380Y792640D02*
Y812640D01*
X271880Y792640D02*
Y812640D01*
Y792640D02*
X284380D01*
X271880Y812640D02*
X284380D01*
X204630Y482700D02*
Y495200D01*
X224630Y482700D02*
Y495200D01*
X204630Y482700D02*
X224630D01*
X204630Y495200D02*
X224630D01*
X143350Y509370D02*
Y521870D01*
X123350Y509370D02*
Y521870D01*
X143350D01*
X123350Y509370D02*
X143350D01*
X303630Y623410D02*
X316130D01*
X303630Y643410D02*
X316130D01*
Y623410D02*
Y643410D01*
X303630Y623410D02*
Y643410D01*
X204630Y444400D02*
X224630D01*
X204630Y431900D02*
X224630D01*
Y444400D01*
X204630Y431900D02*
Y444400D01*
Y468530D02*
X224630D01*
X204630Y456030D02*
X224630D01*
Y468530D01*
X204630Y456030D02*
Y468530D01*
X500480Y850740D02*
X512980D01*
X500480Y830740D02*
X512980D01*
X500480D02*
Y850740D01*
X512980Y830740D02*
Y850740D01*
X513180Y229080D02*
Y249080D01*
X525680Y229080D02*
Y249080D01*
X513180D02*
X525680D01*
X513180Y229080D02*
X525680D01*
X572670Y228760D02*
Y248760D01*
X560170Y228760D02*
Y248760D01*
Y228760D02*
X572670D01*
X560170Y248760D02*
X572670D01*
X491824Y228994D02*
Y248994D01*
X504324Y228994D02*
Y248994D01*
X491824D02*
X504324D01*
X491824Y228994D02*
X504324D01*
X503020Y103980D02*
Y123980D01*
X515520Y103980D02*
Y123980D01*
X503020D02*
X515520D01*
X503020Y103980D02*
X515520D01*
X665580Y228760D02*
X678080D01*
X665580Y248760D02*
X678080D01*
Y228760D02*
Y248760D01*
X665580Y228760D02*
Y248760D01*
X712570Y247810D02*
X725070D01*
X712570Y227810D02*
X725070D01*
X712570D02*
Y247810D01*
X725070Y227810D02*
Y247810D01*
X643990Y229080D02*
X656490D01*
X643990Y249080D02*
X656490D01*
Y229080D02*
Y249080D01*
X643990Y229080D02*
Y249080D01*
X656690Y104300D02*
X669190D01*
X656690Y124300D02*
X669190D01*
Y104300D02*
Y124300D01*
X656690Y104300D02*
Y124300D01*
X482700Y982820D02*
X495200D01*
X482700Y962820D02*
X495200D01*
X482700D02*
Y982820D01*
X495200Y962820D02*
Y982820D01*
X738224Y930882D02*
Y950882D01*
X750724Y930882D02*
Y950882D01*
X738224D02*
X750724D01*
X738224Y930882D02*
X750724D01*
X758544D02*
X771044D01*
X758544Y950882D02*
X771044D01*
Y930882D02*
Y950882D01*
X758544Y930882D02*
Y950882D01*
X778864Y930882D02*
X791364D01*
X778864Y950882D02*
X791364D01*
Y930882D02*
Y950882D01*
X778864Y930882D02*
Y950882D01*
X1187550Y123980D02*
X1200050D01*
X1187550Y103980D02*
X1200050D01*
X1187550D02*
Y123980D01*
X1200050Y103980D02*
Y123980D01*
X969678Y870558D02*
X989678D01*
X969678Y883058D02*
X989678D01*
X969678Y870558D02*
Y883058D01*
X989678Y870558D02*
Y883058D01*
X969678Y801978D02*
X989678D01*
X969678Y814478D02*
X989678D01*
X969678Y801978D02*
Y814478D01*
X989678Y801978D02*
Y814478D01*
X1114270Y913230D02*
Y925730D01*
X1134270Y913230D02*
Y925730D01*
X1114270Y913230D02*
X1134270D01*
X1114270Y925730D02*
X1134270D01*
X969678Y850238D02*
X989678D01*
X969678Y862738D02*
X989678D01*
X969678Y850238D02*
Y862738D01*
X989678Y850238D02*
Y862738D01*
X951584Y931832D02*
X964084D01*
X951584Y951832D02*
X964084D01*
Y931832D02*
Y951832D01*
X951584Y931832D02*
Y951832D01*
X989678Y822298D02*
Y834798D01*
X969678Y822298D02*
Y834798D01*
X989678D01*
X969678Y822298D02*
X989678D01*
X931264Y931832D02*
X943764D01*
X931264Y951832D02*
X943764D01*
Y931832D02*
Y951832D01*
X931264Y931832D02*
Y951832D01*
X910944Y931832D02*
X923444D01*
X910944Y951832D02*
X923444D01*
Y931832D02*
Y951832D01*
X910944Y931832D02*
Y951832D01*
X989678Y763116D02*
Y775616D01*
X969678Y763116D02*
Y775616D01*
X989678D01*
X969678Y763116D02*
X989678D01*
Y781912D02*
Y794412D01*
X969678Y781912D02*
Y794412D01*
X989678D01*
X969678Y781912D02*
X989678D01*
Y740002D02*
Y752502D01*
X969678Y740002D02*
Y752502D01*
X989678D01*
X969678Y740002D02*
X989678D01*
X801724Y931832D02*
X814224D01*
X801724Y951832D02*
X814224D01*
Y931832D02*
Y951832D01*
X801724Y931832D02*
Y951832D01*
X822044Y931832D02*
X834544D01*
X822044Y951832D02*
X834544D01*
Y931832D02*
Y951832D01*
X822044Y931832D02*
Y951832D01*
X1016922Y758290D02*
Y770790D01*
X1036922Y758290D02*
Y770790D01*
X1016922Y758290D02*
X1036922D01*
X1016922Y770790D02*
X1036922D01*
X1017872Y786230D02*
Y798730D01*
X1037872Y786230D02*
Y798730D01*
X1017872Y786230D02*
X1037872D01*
X1017872Y798730D02*
X1037872D01*
X842364Y931832D02*
X854864D01*
X842364Y951832D02*
X854864D01*
Y931832D02*
Y951832D01*
X842364Y931832D02*
Y951832D01*
X862684Y931832D02*
X875184D01*
X862684Y951832D02*
X875184D01*
Y931832D02*
Y951832D01*
X862684Y931832D02*
Y951832D01*
X883004Y931832D02*
X895504D01*
X883004Y951832D02*
X895504D01*
Y931832D02*
Y951832D01*
X883004Y931832D02*
Y951832D01*
X1115220Y646530D02*
Y659030D01*
X1135220Y646530D02*
Y659030D01*
X1115220Y646530D02*
X1135220D01*
X1115220Y659030D02*
X1135220D01*
X706220Y779432D02*
X718720D01*
X706220Y799432D02*
X718720D01*
Y779432D02*
Y799432D01*
X706220Y779432D02*
Y799432D01*
X1115220Y681890D02*
X1135220D01*
X1115220Y669390D02*
X1135220D01*
Y681890D01*
X1115220Y669390D02*
Y681890D01*
X815240Y523720D02*
Y543720D01*
X802740Y523720D02*
Y543720D01*
Y523720D02*
X815240D01*
X802740Y543720D02*
X815240D01*
X798930Y386240D02*
X811430D01*
X798930Y406240D02*
X811430D01*
Y386240D02*
Y406240D01*
X798930Y386240D02*
Y406240D01*
X988160Y524350D02*
X1000660D01*
X988160Y504350D02*
X1000660D01*
X988160D02*
Y524350D01*
X1000660Y504350D02*
Y524350D01*
X734160Y479270D02*
Y499270D01*
X746660Y479270D02*
Y499270D01*
X734160D02*
X746660D01*
X734160Y479270D02*
X746660D01*
X845920Y476730D02*
X858420D01*
X845920Y496730D02*
X858420D01*
Y476730D02*
Y496730D01*
X845920Y476730D02*
Y496730D01*
X988160Y439580D02*
X1000660D01*
X988160Y459580D02*
X1000660D01*
Y439580D02*
Y459580D01*
X988160Y439580D02*
Y459580D01*
X466670Y558080D02*
Y595080D01*
X527670D01*
Y558080D02*
Y595080D01*
X466670Y558080D02*
X527670D01*
X296200Y479060D02*
X364200D01*
X296200Y430260D02*
Y479060D01*
Y430260D02*
X364200D01*
Y479060D01*
X93000D02*
X161000D01*
X93000Y430260D02*
Y479060D01*
Y430260D02*
X161000D01*
Y479060D01*
X439712Y790664D02*
X539712D01*
X439712Y690664D02*
Y790664D01*
Y690664D02*
X539712D01*
Y790664D01*
X498130Y161020D02*
X566130D01*
Y209820D01*
X498130D02*
X566130D01*
X498130Y161020D02*
Y209820D01*
X647990Y161020D02*
X715990D01*
Y209820D01*
X647990D02*
X715990D01*
X647990Y161020D02*
Y209820D01*
X1011200Y52590D02*
Y117590D01*
X1046200D01*
Y52590D02*
Y117590D01*
X1011200Y52590D02*
X1046200D01*
X729030Y933278D02*
Y953278D01*
X716030D02*
X729030D01*
X716030Y933278D02*
Y953278D01*
Y933278D02*
X729030D01*
X706016Y933466D02*
Y953466D01*
X693016D02*
X706016D01*
X693016Y933466D02*
Y953466D01*
Y933466D02*
X706016D01*
X680870Y933610D02*
Y953610D01*
X667870D02*
X680870D01*
X667870Y933610D02*
Y953610D01*
Y933610D02*
X680870D01*
X834286Y383556D02*
Y403556D01*
X821286D02*
X834286D01*
X821286Y383556D02*
Y403556D01*
Y383556D02*
X834286D01*
X224640Y810210D02*
X237640D01*
Y790210D02*
Y810210D01*
X224640Y790210D02*
X237640D01*
X224640D02*
Y810210D01*
X1086970Y252890D02*
X1099970D01*
X1086970D02*
Y272890D01*
X1099970D01*
Y252890D02*
Y272890D01*
X999340Y250350D02*
X1012340D01*
X999340D02*
Y270350D01*
X1012340D01*
Y250350D02*
Y270350D01*
X970130Y158910D02*
X983130D01*
X970130D02*
Y178910D01*
X983130D01*
Y158910D02*
Y178910D01*
X943460Y158910D02*
X956460D01*
X943460D02*
Y178910D01*
X956460D01*
Y158910D02*
Y178910D01*
X1064110Y252780D02*
X1077110D01*
X1064110D02*
Y272780D01*
X1077110D01*
Y252780D02*
Y272780D01*
X1111100Y252890D02*
X1124100D01*
X1111100D02*
Y272890D01*
X1124100D01*
Y252890D02*
Y272890D01*
X992030Y126850D02*
Y139850D01*
X1012030D01*
Y126850D02*
Y139850D01*
X992030Y126850D02*
X1012030D01*
X975120Y56430D02*
Y93430D01*
X945120Y56430D02*
Y93430D01*
Y56430D02*
X975120D01*
X945120Y93430D02*
X975120D01*
X919330Y71280D02*
X932330D01*
X919330D02*
Y91280D01*
X932330D01*
Y71280D02*
Y91280D01*
X817930Y207170D02*
X830530D01*
X817930D02*
Y227170D01*
X830530D01*
Y207170D02*
Y227170D01*
X872540Y90010D02*
X885140D01*
Y70010D02*
Y90010D01*
X872540Y70010D02*
X885140D01*
X872540D02*
Y90010D01*
X908690Y274950D02*
X988690D01*
X908690Y194950D02*
X988690D01*
X908690D02*
Y274950D01*
X988690Y194950D02*
Y274950D01*
X260250Y792640D02*
Y812640D01*
X247750Y792640D02*
Y812640D01*
Y792640D02*
X260250D01*
X247750Y812640D02*
X260250D01*
X1013360Y200820D02*
Y220820D01*
X1000860Y200820D02*
Y220820D01*
Y200820D02*
X1013360D01*
X1000860Y220820D02*
X1013360D01*
X1070710Y200820D02*
Y220820D01*
X1083210Y200820D02*
Y220820D01*
X1070710D02*
X1083210D01*
X1070710Y200820D02*
X1083210D01*
X1047850D02*
Y220820D01*
X1060350Y200820D02*
Y220820D01*
X1047850D02*
X1060350D01*
X1047850Y200820D02*
X1060350D01*
X1023720D02*
Y220820D01*
X1036220Y200820D02*
Y220820D01*
X1023720D02*
X1036220D01*
X1023720Y200820D02*
X1036220D01*
X1134210Y199870D02*
Y219870D01*
X1146710Y199870D02*
Y219870D01*
X1134210D02*
X1146710D01*
X1134210Y199870D02*
X1146710D01*
X854610Y207170D02*
Y227170D01*
X842110Y207170D02*
Y227170D01*
Y207170D02*
X854610D01*
X842110Y227170D02*
X854610D01*
X896720Y71280D02*
Y91280D01*
X909220Y71280D02*
Y91280D01*
X896720D02*
X909220D01*
X896720Y71280D02*
X909220D01*
X1052090Y253620D02*
Y269620D01*
X1023090Y253620D02*
X1052090D01*
X1023090D02*
Y269620D01*
X1052090D01*
X575360Y879480D02*
Y959480D01*
X613360D01*
Y879480D02*
Y959480D01*
X575360Y879480D02*
X613360D01*
X807874Y687230D02*
Y707230D01*
X795374Y687230D02*
Y707230D01*
Y687230D02*
X807874D01*
X795374Y707230D02*
X807874D01*
D12*
X318090Y497840D02*
G03*
X318090Y497840I-1000J0D01*
G01*
X1117330Y229870D02*
G03*
X1117330Y229870I-1000J0D01*
G01*
X114890Y494030D02*
G03*
X114890Y494030I-1000J0D01*
G01*
X544560Y258220D02*
G03*
X544560Y258220I-1000J0D01*
G01*
X696960Y256540D02*
G03*
X696960Y256540I-1000J0D01*
G01*
X514080Y953360D02*
G03*
X514080Y953360I-1000J0D01*
G01*
X783320Y512260D02*
G03*
X783320Y512260I-1000J0D01*
G01*
X780780Y414430D02*
G03*
X780780Y414430I-1000J0D01*
G01*
X825230Y195170D02*
G03*
X825230Y195170I-1000J0D01*
G01*
X879840Y102010D02*
G03*
X879840Y102010I-1000J0D01*
G01*
D13*
X580390Y284920D02*
X589870D01*
X580390Y554920D02*
X589870D01*
X585130Y559660D02*
Y550180D01*
D14*
X455860Y102870D02*
G03*
X455860Y102870I-2000J0D01*
G01*
X246640D02*
G03*
X246640Y102870I-2000J0D01*
G01*
X1197070Y560540D02*
G03*
X1197070Y560540I-2000J0D01*
G01*
D15*
X936499Y457475D02*
G03*
X930401Y457687I-3049J106D01*
G01*
X913638Y457708D02*
Y507492D01*
Y457708D02*
X930402D01*
X953262D01*
Y507492D01*
X913638D02*
X953262D01*
Y461264D02*
X964438Y461010D01*
Y465836D01*
X953262D02*
X964438D01*
X953262Y461264D02*
Y465836D01*
Y473964D02*
X964438Y473710D01*
Y478536D01*
X953262D02*
X964438D01*
X953262Y473964D02*
Y478536D01*
Y486664D02*
X964438Y486410D01*
Y491236D01*
X953262D02*
X964438D01*
X953262Y486664D02*
Y491236D01*
Y499364D02*
X964438Y499110D01*
Y503936D01*
X953262D02*
X964438D01*
X953262Y499364D02*
Y503936D01*
X902462Y504190D02*
X913638Y503936D01*
X902462Y499364D02*
Y504190D01*
Y499364D02*
X913638D01*
Y503936D01*
X902462Y491490D02*
X913638Y491236D01*
X902462Y486664D02*
Y491490D01*
Y486664D02*
X913638D01*
Y491236D01*
X902462Y478790D02*
X913638Y478536D01*
X902462Y473964D02*
Y478790D01*
Y473964D02*
X913638D01*
Y478536D01*
X902462Y466090D02*
X913638Y465836D01*
X902462Y461264D02*
Y466090D01*
Y461264D02*
X913638D01*
Y465836D01*
X607822Y675894D02*
Y683514D01*
X600202Y675894D02*
Y683514D01*
Y675894D02*
X607822D01*
X592582Y683514D02*
X615442D01*
X600202Y805434D02*
X607822D01*
Y797814D02*
X615442D01*
X600202D02*
X607822D01*
X592582D02*
X600202D01*
X607822D02*
Y805434D01*
X600202Y797814D02*
Y805434D01*
X597662Y738124D02*
X610362D01*
X597662D02*
Y743204D01*
X610362D01*
Y738124D02*
Y743204D01*
X604012Y734314D02*
X610362D01*
X597662D02*
X604012D01*
Y747014D02*
X610362D01*
X597662D02*
X604012D01*
X750062Y847598D02*
Y855218D01*
X757682Y847598D02*
Y855218D01*
X750062D02*
X757682D01*
X742442Y847598D02*
X765302D01*
X750062Y725678D02*
X757682D01*
X742442Y733298D02*
X750062D01*
X757682D01*
X765302D01*
X750062Y725678D02*
Y733298D01*
X757682Y725678D02*
Y733298D01*
X747522Y792988D02*
X760222D01*
Y787908D02*
Y792988D01*
X747522Y787908D02*
X760222D01*
X747522D02*
Y792988D01*
Y796798D02*
X753872D01*
X760222D01*
X747522Y784098D02*
X753872D01*
X760222D01*
D16*
X801878Y421132D02*
G03*
X795782Y421132I-3048J0D01*
G01*
X180086Y782828D02*
G03*
X173990Y782828I-3048J0D01*
G01*
X778764Y424180D02*
Y429260D01*
X767842Y424180D02*
X778764D01*
X767842D02*
Y429260D01*
X778764D01*
Y436880D02*
Y441960D01*
X767842Y436880D02*
X778764D01*
X767842D02*
Y441960D01*
X778764D01*
Y449580D02*
Y454660D01*
X767842Y449580D02*
X778764D01*
X767842D02*
Y454660D01*
X778764D01*
Y462280D02*
Y467360D01*
X767842Y462280D02*
X778764D01*
X767842D02*
Y467360D01*
X778764D01*
Y474980D02*
Y480060D01*
X767842Y474980D02*
X778764D01*
X767842D02*
Y480060D01*
X778764D01*
Y487680D02*
Y492760D01*
X767842Y487680D02*
X778764D01*
X767842D02*
Y492760D01*
X778764D01*
Y500380D02*
Y505460D01*
X767842Y500380D02*
X778764D01*
X767842D02*
Y505460D01*
X778764D01*
X818896Y500380D02*
Y505460D01*
X829818D01*
Y500380D02*
Y505460D01*
X818896Y500380D02*
X829818D01*
X818896Y487680D02*
Y492760D01*
X829818D01*
Y487680D02*
Y492760D01*
X818896Y487680D02*
X829818D01*
X818896Y474980D02*
Y480060D01*
X829818D01*
Y474980D02*
Y480060D01*
X818896Y474980D02*
X829818D01*
X818896Y462280D02*
Y467360D01*
X829818D01*
Y462280D02*
Y467360D01*
X818896Y462280D02*
X829818D01*
X818896Y449580D02*
Y454660D01*
X829818D01*
Y449580D02*
Y454660D01*
X818896Y449580D02*
X829818D01*
X818896Y436880D02*
Y441960D01*
X829818D01*
Y436880D02*
Y441960D01*
X818896Y436880D02*
X829818D01*
X818896Y424180D02*
Y429260D01*
X829818D01*
Y424180D02*
Y429260D01*
X818896Y424180D02*
X829818D01*
X778764Y508508D02*
X818896D01*
Y421132D02*
Y508508D01*
X801878Y421132D02*
X818896D01*
X795782D02*
X801878D01*
X778764D02*
X795782D01*
X778764D02*
Y508508D01*
X156972Y782828D02*
Y832612D01*
Y782828D02*
X173990D01*
X180086D01*
X197104D01*
Y832612D01*
X156972D02*
X197104D01*
Y786130D02*
X208026D01*
Y791210D01*
X197104D02*
X208026D01*
X197104Y786130D02*
Y791210D01*
Y798830D02*
X208026D01*
Y803910D01*
X197104D02*
X208026D01*
X197104Y798830D02*
Y803910D01*
Y811530D02*
X208026D01*
Y816610D01*
X197104D02*
X208026D01*
X197104Y811530D02*
Y816610D01*
Y824230D02*
X208026D01*
Y829310D01*
X197104D02*
X208026D01*
X197104Y824230D02*
Y829310D01*
X146050D02*
X156972D01*
X146050Y824230D02*
Y829310D01*
Y824230D02*
X156972D01*
Y829310D01*
X146050Y816610D02*
X156972D01*
X146050Y811530D02*
Y816610D01*
Y811530D02*
X156972D01*
Y816610D01*
X146050Y803910D02*
X156972D01*
X146050Y798830D02*
Y803910D01*
Y798830D02*
X156972D01*
Y803910D01*
X146050Y791210D02*
X156972D01*
X146050Y786130D02*
Y791210D01*
Y786130D02*
X156972D01*
Y791210D01*
D143*
X592649Y791799D02*
G03*
X583692Y774953I11363J-16846D01*
G01*
Y706374D02*
G03*
X592649Y689528I20320J0D01*
G01*
X615427Y700807D02*
G03*
X616712Y706374I-11415J5567D01*
G01*
X591312D02*
G03*
X592597Y700807I12700J0D01*
G01*
X615375Y689528D02*
G03*
X624333Y706375I-11363J16847D01*
G01*
X592597Y700807D02*
G03*
X615427Y700807I11415J5567D01*
G01*
X592649Y689528D02*
G03*
X615375Y689528I11363J16846D01*
G01*
X624332Y774955D02*
G03*
X615375Y791801I-20320J0D01*
G01*
X615427Y780521D02*
G03*
X592597Y780521I-11415J-5567D01*
G01*
X616712Y774954D02*
G03*
X615427Y780522I-12700J0D01*
G01*
X592597D02*
G03*
X591312Y774954I11415J-5567D01*
G01*
X615375Y791800D02*
G03*
X592649Y791800I-11363J-16846D01*
G01*
X765235Y739313D02*
G03*
X774192Y756159I-11363J16846D01*
G01*
Y824738D02*
G03*
X765235Y841585I-20320J0D01*
G01*
X742457Y830306D02*
G03*
X741172Y824738I11415J-5567D01*
G01*
X766572D02*
G03*
X765287Y830306I-12700J0D01*
G01*
X742509Y841584D02*
G03*
X733551Y824737I11363J-16847D01*
G01*
X765287Y830305D02*
G03*
X742457Y830305I-11415J-5567D01*
G01*
X765235Y841584D02*
G03*
X742509Y841584I-11363J-16846D01*
G01*
X733552Y756158D02*
G03*
X742509Y739312I20320J0D01*
G01*
X742457Y750591D02*
G03*
X765287Y750591I11415J5567D01*
G01*
X741172Y756158D02*
G03*
X742457Y750591I12700J0D01*
G01*
X765287D02*
G03*
X766572Y756158I-11415J5567D01*
G01*
X742509Y739312D02*
G03*
X765235Y739312I11363J16846D01*
G01*
X616712Y706374D02*
Y774954D01*
X624332Y706374D02*
Y774954D01*
X591312Y706374D02*
Y774954D01*
X583692Y706374D02*
Y774954D01*
X604012Y729234D02*
Y734314D01*
Y747014D02*
Y752094D01*
X741172Y756158D02*
Y824738D01*
X733552Y756158D02*
Y824738D01*
X766572Y756158D02*
Y824738D01*
X774192Y756158D02*
Y824738D01*
X753872Y796798D02*
Y801878D01*
Y779018D02*
Y784098D01*
D144*
X232410Y988060D02*
X334010D01*
X232410Y962660D02*
X334010D01*
Y988060D01*
X232410Y962660D02*
Y988060D01*
X367030Y961390D02*
X468630D01*
X367030Y986790D02*
X468630D01*
X367030Y961390D02*
Y986790D01*
X468630Y961390D02*
Y986790D01*
X96520Y988060D02*
X198120D01*
X96520Y962660D02*
X198120D01*
Y988060D01*
X96520Y962660D02*
Y988060D01*
M02*
