M48
;Layer_Color=9474304
;FILE_FORMAT=4:4
METRIC,LZ
;TYPE=PLATED
T01F00S00C0.2400
T02F00S00C0.2540
T03F00S00C0.3110
T04F00S00C0.4110
T05F00S00C0.4500
T06F00S00C0.5110
T07F00S00C0.7500
T08F00S00C0.8500
T09F00S00C0.9000
T10F00S00C1.0000
T11F00S00C1.0200
T12F00S00C1.1000
T13F00S00C1.1700
T14F00S00C1.3000
T15F00S00C1.5000
T16F00S00C1.6000
T17F00S00C3.6500
;TYPE=NON_PLATED
T18F00S00C3.2500
T19F00S00C3.7500
%
T01
X0031115Y0070358
Y0071628
X003048Y0072263
Y0070993
X0038735Y007366
Y0074422
X0040513Y0067437
X00427018Y00674072
X0046736Y006604
X0047371Y0065405
X0052705Y0070485
X0053467Y0070231
X0060452Y0059436
X0066929Y008255
X0074422Y009398
X0052959Y0088646
X0049276Y0090678
X0048387Y009271
X0050546Y0084074
X0052197Y0077343
X0041402Y0079629
X0030226Y0080137
X0029591Y0081026
T02
X01068942Y00753765
X01067562Y0080518
X00844804Y00772922
X00851662Y00763778
X008255Y0084074
Y0086868
X0078486Y009398
T03
X0049784Y0026797
X0064897Y0026416
X0049039Y0071628
X004826Y007239
X0047498Y0073914
X0045847Y0072771
X0045212Y0073406
X0046609Y00746854
T04
X00454537Y00173911
Y00205661
Y00293291
Y00318691
Y00341551
X00254Y0038481
X0026543
X0027686
X00314837Y00383461
X00312297Y00505381
X0037084Y0052324
X0038608
X0050165Y0054229
X0051183Y0054237
X00559947Y00669211
Y00684451
X0045339Y0066802
X00459617Y00713661
X0064135Y007366
X0065024
X00659007Y00736521
X00694813Y00731599
Y00741759
X00890191Y00722753
X00900351
X00910511
X00878761Y00624963
X00868601
X00858441
X00845741
X00835581
X00825421
X01036241
X01046401
X01056561
X01067991
X01078151
X01088311
X010795Y0083439
X0106934
Y0085217
X010795
X0094615Y0090297
X0092583Y0089916
X009017Y0089789
X0088011Y0089662
X0085979Y0089027
X0083566Y0090424
X0081661Y0091567
X0080772Y0088519
X0079883Y0089408
X0078867Y0090297
X0077724Y008763
X0078486Y0086868
X00792559Y00860937
X00793627Y00850821
Y00840661
Y00830501
X00792559Y00821567
X0079248Y0081026
X008001Y0080137
X00815217Y00829231
Y00839391
Y00849551
X0083693Y0085598
X0081788Y0087503
X0075438Y0091186
X0066675Y0091948
X0065786Y0092837
X0065659Y0094107
X00694813Y00751919
X00876423Y00784939
Y00795099
Y00805259
X0061976Y0087249
X0060706Y0090678
X005842
X0056769
X00560149Y00935867
X00549989
X00539829
X0053721Y0091694
X0051435
X0049784
Y0093472
X0051435
X0047498Y0093091
X00581739Y00934597
X0059055Y0093472
X0059944
X0062103
X0063119
X0051435Y0081153
X00511687Y00774621
X00528197Y00761921
X00467237
X0046101Y0082042
X00356747Y00927021
Y00939721
Y00951151
T05
X0122555Y0003683
X0121793Y0005461
X0122555Y0007366
X012446Y0008128
X0126492Y0007366
X0127127Y0005461
X0126492Y0003683
X012446Y0002794
T06
X0068834Y0008636
X008001Y0002032
X008128
X008255
X0097155Y0001778
X0098425
X0099695
X0094234Y0011303
X0096393Y0029845
X0097663
X0098933
X0074295Y0028956
X0073025
X0071755
X0058039Y0030226
X0060706Y0021971
Y0020701
Y0019431
X0053848Y0008636
X0012573Y0040894
X0012446Y0043561
X0010668Y0045212
X001524Y0046609
X0030607Y0045339
X0032893Y0043561
Y0041275
X003429Y0046355
X0033528Y0060325
X0031115
X0040767Y0060198
Y0061468
X0045085Y0042164
Y0040894
Y0039624
X0065278Y0061595
Y0062865
Y0064135
X0075057Y0043815
Y0042545
Y0041275
X008509Y0044069
X00902377Y00441367
X00905921Y00374609
X00918621
X00893221
X0094234Y0059563
X0107061Y0052578
X0108331
X0109601
X0109994Y00654812
X0109982Y00673862
X0091694Y0097282
X009144Y0099949
X009271
X009398
X0078613Y0097282
X0076835Y0088138
X0075438
X0074041
X0072644
X0071247
X0071628Y0090805
X0073152
X0069977
X0068707
X006731
X0050927Y0087249
X0034163Y0077851
X0032893
X0031623
X0013335Y0079756
Y0081026
Y0082296
T07
X0006751Y0051308
X0009251
X0015387Y0067818
X0017887
T08
X0115316Y000381
Y001131
T09
X0111002Y0074067
Y0076607
Y0079147
Y0081687
X0113542Y0082957
Y0080417
Y0077877
Y0075337
T10
X0007279Y0061821
X0009819
X0012359
X0014899
X0123952Y0071882
Y0074422
Y0082602
Y0085142
T11
X0027051Y0097536
X0029591
X0032131
X0037973Y0097409
X0040513
X0043053
X0045593
X0024511Y0097536
X0018542
X0016002
X0013462
X0010922
T12
X0066548Y0004445
X0069088
X0071628
X0056515
X0053975
X0051435
X0005207Y0066294
Y0068834
Y0071374
Y0073914
Y0076454
Y0078994
T13
X0058039Y0033307
T14
X002956Y0021232
X004156
Y0033432
X002956
X0022256
X0010256
Y0021232
X0022256
X0016256Y0035432
X003556
T15
X0058039Y0053307
T16
X011938Y0024638
Y0029638
X004048Y0010287
X00354
X003048
X0019558
X0014478
X0009558
X0119507Y0041148
Y0046068
Y0051148
X0116842Y0070697
Y0086327
T17
X012446Y0005461
T18
X0119892Y0072797
Y0084227
T19
X0003937Y0018034
X0073152Y0057912
X012573Y0098298
X00039281Y00979094
M30
