G04*
G04 #@! TF.GenerationSoftware,Altium Limited,Altium Designer,25.4.2 (15)*
G04*
G04 Layer_Color=2752767*
%FSLAX44Y44*%
%MOMM*%
G71*
G04*
G04 #@! TF.SameCoordinates,3ABA6FF2-A11C-483D-8B0F-7D0CBFE01766*
G04*
G04*
G04 #@! TF.FilePolarity,Positive*
G04*
G01*
G75*
%ADD11C,0.1270*%
%ADD146C,0.1693*%
%ADD147C,0.1016*%
D11*
X1191260Y293840D02*
Y291300D01*
X1196340D01*
Y293840D01*
X1198880D01*
Y298920D01*
X1196340D01*
Y301460D01*
X1191260D01*
Y298920D01*
X1188720D01*
Y293840D01*
X1191260D01*
Y243840D02*
Y241300D01*
X1196340D01*
Y243840D01*
X1198880D01*
Y248920D01*
X1196340D01*
Y251460D01*
X1191260D01*
Y248920D01*
X1188720D01*
Y243840D01*
X1191260D01*
X580390Y533070D02*
Y541534D01*
X584622Y545766D01*
X588854Y541534D01*
Y533070D01*
Y539418D01*
X580390D01*
Y345766D02*
Y333070D01*
X586738D01*
X588854Y335186D01*
Y337302D01*
X586738Y339418D01*
X580390D01*
X586738D01*
X588854Y341534D01*
Y343650D01*
X586738Y345766D01*
X580390D01*
X52070Y784860D02*
X46990Y795020D01*
X57150D01*
X52070Y784860D01*
Y786892D02*
X49022Y792988D01*
X55118D01*
X52070Y786892D01*
Y759460D02*
X46990Y769620D01*
X57150D01*
X52070Y759460D01*
Y761492D02*
X49022Y767588D01*
X55118D01*
X52070Y761492D01*
Y734060D02*
X46990Y744220D01*
X57150D01*
X52070Y734060D01*
Y736092D02*
X49022Y742188D01*
X55118D01*
X52070Y736092D01*
Y708660D02*
X46990Y718820D01*
X57150D01*
X52070Y708660D01*
Y710692D02*
X49022Y716788D01*
X55118D01*
X52070Y710692D01*
Y683260D02*
X46990Y693420D01*
X57150D01*
X52070Y683260D01*
Y685292D02*
X49022Y691388D01*
X55118D01*
X52070Y685292D01*
Y657860D02*
X46990Y668020D01*
X57150D01*
X52070Y657860D01*
Y659892D02*
X49022Y665988D01*
X55118D01*
X52070Y659892D01*
X67710Y613130D02*
X70250D01*
X72790Y615670D01*
X75330Y613130D01*
X77870D01*
Y615670D01*
X75330Y618210D01*
X77870Y620750D01*
Y623290D01*
X75330D01*
X72790Y620750D01*
X70250Y623290D01*
X67710D01*
Y620750D01*
X70250Y618210D01*
X67710Y615670D01*
Y613130D01*
X93110D02*
X95650D01*
X98190Y615670D01*
X100730Y613130D01*
X103270D01*
Y615670D01*
X100730Y618210D01*
X103270Y620750D01*
Y623290D01*
X100730D01*
X98190Y620750D01*
X95650Y623290D01*
X93110D01*
Y620750D01*
X95650Y618210D01*
X93110Y615670D01*
Y613130D01*
X118510D02*
X121050D01*
X123590Y615670D01*
X126130Y613130D01*
X128670D01*
Y615670D01*
X126130Y618210D01*
X128670Y620750D01*
Y623290D01*
X126130D01*
X123590Y620750D01*
X121050Y623290D01*
X118510D01*
Y620750D01*
X121050Y618210D01*
X118510Y615670D01*
Y613130D01*
X143910D02*
X146450D01*
X148990Y615670D01*
X151530Y613130D01*
X154070D01*
Y615670D01*
X151530Y618210D01*
X154070Y620750D01*
Y623290D01*
X151530D01*
X148990Y620750D01*
X146450Y623290D01*
X143910D01*
Y620750D01*
X146450Y618210D01*
X143910Y615670D01*
Y613130D01*
X665480Y39370D02*
X660400Y49530D01*
X670560D01*
X665480Y39370D01*
Y41402D02*
X662432Y47498D01*
X668528D01*
X665480Y41402D01*
X690880Y39370D02*
X685800Y49530D01*
X695960D01*
X690880Y39370D01*
Y41402D02*
X687832Y47498D01*
X693928D01*
X690880Y41402D01*
X716280Y39370D02*
X711200Y49530D01*
X721360D01*
X716280Y39370D01*
Y41402D02*
X713232Y47498D01*
X719328D01*
X716280Y41402D01*
X514350Y39370D02*
X509270Y49530D01*
X519430D01*
X514350Y39370D01*
Y41402D02*
X511302Y47498D01*
X517398D01*
X514350Y41402D01*
X539750Y39370D02*
X534670Y49530D01*
X544830D01*
X539750Y39370D01*
Y41402D02*
X536702Y47498D01*
X542798D01*
X539750Y41402D01*
X565150Y39370D02*
X560070Y49530D01*
X570230D01*
X565150Y39370D01*
Y41402D02*
X562102Y47498D01*
X568198D01*
X565150Y41402D01*
X67510Y525776D02*
Y513080D01*
X73858D01*
X75974Y515196D01*
Y523660D01*
X73858Y525776D01*
X67510D01*
X92510D02*
Y513080D01*
X98858D01*
X100974Y515196D01*
Y523660D01*
X98858Y525776D01*
X92510D01*
X178870Y690876D02*
Y678180D01*
X185218D01*
X187334Y680296D01*
Y688760D01*
X185218Y690876D01*
X178870D01*
X153870D02*
Y678180D01*
X160218D01*
X162334Y680296D01*
Y688760D01*
X160218Y690876D01*
X153870D01*
X1148080Y108020D02*
Y118180D01*
X1158240D01*
Y108020D01*
X1148080D01*
Y33020D02*
Y43180D01*
X1158240D01*
Y33020D01*
X1148080D01*
X34290Y180340D02*
X39370Y185420D01*
X44450Y180340D01*
X39370Y175260D01*
X34290Y180340D01*
X34201Y979094D02*
X39281Y984174D01*
X44361Y979094D01*
X39281Y974015D01*
X34201Y979094D01*
X1252220Y982980D02*
X1257300Y988060D01*
X1262380Y982980D01*
X1257300Y977900D01*
X1252220Y982980D01*
X726440Y579120D02*
X731520Y584200D01*
X736600Y579120D01*
X731520Y574040D01*
X726440Y579120D01*
X302260Y100330D02*
Y97790D01*
X307340D01*
Y100330D01*
X309880D01*
Y105410D01*
X307340D01*
Y107950D01*
X302260D01*
Y105410D01*
X299720D01*
Y100330D01*
X302260D01*
X351460D02*
Y97790D01*
X356540D01*
Y100330D01*
X359080D01*
Y105410D01*
X356540D01*
Y107950D01*
X351460D01*
Y105410D01*
X348920D01*
Y100330D01*
X351460D01*
X402260D02*
Y97790D01*
X407340D01*
Y100330D01*
X409880D01*
Y105410D01*
X407340D01*
Y107950D01*
X402260D01*
Y105410D01*
X399720D01*
Y100330D01*
X402260D01*
X316230Y970280D02*
Y980440D01*
X326390D01*
Y970280D01*
X316230D01*
X318262Y972312D02*
Y978408D01*
X324358D01*
Y972312D01*
X318262D01*
X290830Y970280D02*
Y980440D01*
X300990D01*
Y970280D01*
X290830D01*
X292862Y972312D02*
Y978408D01*
X298958D01*
Y972312D01*
X292862D01*
X265430Y970280D02*
Y980440D01*
X275590D01*
Y970280D01*
X265430D01*
X267462Y972312D02*
Y978408D01*
X273558D01*
Y972312D01*
X267462D01*
X240030Y970280D02*
Y980440D01*
X250190D01*
Y970280D01*
X240030D01*
X242062Y972312D02*
Y978408D01*
X248158D01*
Y972312D01*
X242062D01*
X93040Y100330D02*
Y97790D01*
X98120D01*
Y100330D01*
X100660D01*
Y105410D01*
X98120D01*
Y107950D01*
X93040D01*
Y105410D01*
X90500D01*
Y100330D01*
X93040D01*
X142240D02*
Y97790D01*
X147320D01*
Y100330D01*
X149860D01*
Y105410D01*
X147320D01*
Y107950D01*
X142240D01*
Y105410D01*
X139700D01*
Y100330D01*
X142240D01*
X193040D02*
Y97790D01*
X198120D01*
Y100330D01*
X200660D01*
Y105410D01*
X198120D01*
Y107950D01*
X193040D01*
Y105410D01*
X190500D01*
Y100330D01*
X193040D01*
X374650Y969010D02*
Y979170D01*
X384810D01*
Y969010D01*
X374650D01*
X376682Y971042D02*
Y977138D01*
X382778D01*
Y971042D01*
X376682D01*
X400050Y969010D02*
Y979170D01*
X410210D01*
Y969010D01*
X400050D01*
X402082Y971042D02*
Y977138D01*
X408178D01*
Y971042D01*
X402082D01*
X425450Y969010D02*
Y979170D01*
X435610D01*
Y969010D01*
X425450D01*
X427482Y971042D02*
Y977138D01*
X433578D01*
Y971042D01*
X427482D01*
X450850Y969010D02*
Y979170D01*
X461010D01*
Y969010D01*
X450850D01*
X452882Y971042D02*
Y977138D01*
X458978D01*
Y971042D01*
X452882D01*
X180340Y970280D02*
Y980440D01*
X190500D01*
Y970280D01*
X180340D01*
X182372Y972312D02*
Y978408D01*
X188468D01*
Y972312D01*
X182372D01*
X154940Y970280D02*
Y980440D01*
X165100D01*
Y970280D01*
X154940D01*
X156972Y972312D02*
Y978408D01*
X163068D01*
Y972312D01*
X156972D01*
X129540Y970280D02*
Y980440D01*
X139700D01*
Y970280D01*
X129540D01*
X131572Y972312D02*
Y978408D01*
X137668D01*
Y972312D01*
X131572D01*
X104140Y970280D02*
Y980440D01*
X114300D01*
Y970280D01*
X104140D01*
X106172Y972312D02*
Y978408D01*
X112268D01*
Y972312D01*
X106172D01*
X1135420Y824490D02*
X1137960Y827030D01*
X1140500D01*
X1137960Y829570D01*
X1140500Y832110D01*
X1137960D01*
X1135420Y834650D01*
X1132880Y832110D01*
X1130340D01*
X1132880Y829570D01*
X1130340Y827030D01*
X1132880D01*
X1135420Y824490D01*
X1110020Y811790D02*
X1112560Y814330D01*
X1115100D01*
X1112560Y816870D01*
X1115100Y819410D01*
X1112560D01*
X1110020Y821950D01*
X1107480Y819410D01*
X1104940D01*
X1107480Y816870D01*
X1104940Y814330D01*
X1107480D01*
X1110020Y811790D01*
X1135420Y799090D02*
X1137960Y801630D01*
X1140500D01*
X1137960Y804170D01*
X1140500Y806710D01*
X1137960D01*
X1135420Y809250D01*
X1132880Y806710D01*
X1130340D01*
X1132880Y804170D01*
X1130340Y801630D01*
X1132880D01*
X1135420Y799090D01*
X1110020Y786390D02*
X1112560Y788930D01*
X1115100D01*
X1112560Y791470D01*
X1115100Y794010D01*
X1112560D01*
X1110020Y796550D01*
X1107480Y794010D01*
X1104940D01*
X1107480Y791470D01*
X1104940Y788930D01*
X1107480D01*
X1110020Y786390D01*
X1135420Y773690D02*
X1137960Y776230D01*
X1140500D01*
X1137960Y778770D01*
X1140500Y781310D01*
X1137960D01*
X1135420Y783850D01*
X1132880Y781310D01*
X1130340D01*
X1132880Y778770D01*
X1130340Y776230D01*
X1132880D01*
X1135420Y773690D01*
X1110020Y760990D02*
X1112560Y763530D01*
X1115100D01*
X1112560Y766070D01*
X1115100Y768610D01*
X1112560D01*
X1110020Y771150D01*
X1107480Y768610D01*
X1104940D01*
X1107480Y766070D01*
X1104940Y763530D01*
X1107480D01*
X1110020Y760990D01*
X1135420Y748290D02*
X1137960Y750830D01*
X1140500D01*
X1137960Y753370D01*
X1140500Y755910D01*
X1137960D01*
X1135420Y758450D01*
X1132880Y755910D01*
X1130340D01*
X1132880Y753370D01*
X1130340Y750830D01*
X1132880D01*
X1135420Y748290D01*
X1193840Y837190D02*
X1196380Y842270D01*
X1193840Y847350D01*
X1198920Y844810D01*
X1204000Y847350D01*
X1201460Y842270D01*
X1204000Y837190D01*
X1198920Y839730D01*
X1193840Y837190D01*
Y722890D02*
X1196380Y727970D01*
X1193840Y733050D01*
X1198920Y730510D01*
X1204000Y733050D01*
X1201460Y727970D01*
X1204000Y722890D01*
X1198920Y725430D01*
X1193840Y722890D01*
X1165880Y704430D02*
Y701890D01*
X1170960D01*
Y704430D01*
X1173500D01*
Y709510D01*
X1170960D01*
Y712050D01*
X1165880D01*
Y709510D01*
X1163340D01*
Y704430D01*
X1165880D01*
Y860730D02*
Y858190D01*
X1170960D01*
Y860730D01*
X1173500D01*
Y865810D01*
X1170960D01*
Y868350D01*
X1165880D01*
Y865810D01*
X1163340D01*
Y860730D01*
X1165880D01*
X1234440Y846340D02*
X1236980D01*
X1239520Y848880D01*
X1242060Y846340D01*
X1244600D01*
Y848880D01*
X1242060Y851420D01*
X1244600Y853960D01*
Y856500D01*
X1242060D01*
X1239520Y853960D01*
X1236980Y856500D01*
X1234440D01*
Y853960D01*
X1236980Y851420D01*
X1234440Y848880D01*
Y846340D01*
Y713740D02*
X1236980D01*
X1239520Y716280D01*
X1242060Y713740D01*
X1244600D01*
Y716280D01*
X1242060Y718820D01*
X1244600Y721360D01*
Y723900D01*
X1242060D01*
X1239520Y721360D01*
X1236980Y723900D01*
X1234440D01*
Y721360D01*
X1236980Y718820D01*
X1234440Y716280D01*
Y713740D01*
X1110020Y735590D02*
X1112560Y738130D01*
X1115100D01*
X1112560Y740670D01*
X1115100Y743210D01*
X1112560D01*
X1110020Y745750D01*
X1107480Y743210D01*
X1104940D01*
X1107480Y740670D01*
X1104940Y738130D01*
X1107480D01*
X1110020Y735590D01*
X1234440Y820940D02*
X1236980D01*
X1239520Y823480D01*
X1242060Y820940D01*
X1244600D01*
Y823480D01*
X1242060Y826020D01*
X1244600Y828560D01*
Y831100D01*
X1242060D01*
X1239520Y828560D01*
X1236980Y831100D01*
X1234440D01*
Y828560D01*
X1236980Y826020D01*
X1234440Y823480D01*
Y820940D01*
Y739140D02*
X1236980D01*
X1239520Y741680D01*
X1242060Y739140D01*
X1244600D01*
Y741680D01*
X1242060Y744220D01*
X1244600Y746760D01*
Y749300D01*
X1242060D01*
X1239520Y746760D01*
X1236980Y749300D01*
X1234440D01*
Y746760D01*
X1236980Y744220D01*
X1234440Y741680D01*
Y739140D01*
X1192530Y408940D02*
Y406400D01*
X1197610D01*
Y408940D01*
X1200150D01*
Y414020D01*
X1197610D01*
Y416560D01*
X1192530D01*
Y414020D01*
X1189990D01*
Y408940D01*
X1192530D01*
Y458140D02*
Y455600D01*
X1197610D01*
Y458140D01*
X1200150D01*
Y463220D01*
X1197610D01*
Y465760D01*
X1192530D01*
Y463220D01*
X1189990D01*
Y458140D01*
X1192530D01*
Y508940D02*
Y506400D01*
X1197610D01*
Y508940D01*
X1200150D01*
Y514020D01*
X1197610D01*
Y516560D01*
X1192530D01*
Y514020D01*
X1189990D01*
Y508940D01*
X1192530D01*
X1244600Y49530D02*
X1239520Y59690D01*
X1249680D01*
X1244600Y49530D01*
X667471Y747101D02*
X665355Y749217D01*
X661123D01*
X659007Y747101D01*
Y738637D01*
X661123Y736521D01*
X665355D01*
X667471Y738637D01*
X649814Y747180D02*
X647698Y749296D01*
X643466D01*
X641350Y747180D01*
Y738716D01*
X643466Y736600D01*
X647698D01*
X649814Y738716D01*
X658704Y747180D02*
X656588Y749296D01*
X652356D01*
X650240Y747180D01*
Y738716D01*
X652356Y736600D01*
X656588D01*
X658704Y738716D01*
X365211Y937601D02*
X363095Y939717D01*
X358863D01*
X356747Y937601D01*
Y929137D01*
X358863Y927021D01*
X363095D01*
X365211Y929137D01*
Y950301D02*
X363095Y952417D01*
X358863D01*
X356747Y950301D01*
Y941837D01*
X358863Y939721D01*
X363095D01*
X365211Y941837D01*
Y961731D02*
X363095Y963847D01*
X358863D01*
X356747Y961731D01*
Y953267D01*
X358863Y951151D01*
X363095D01*
X365211Y953267D01*
X463001Y184491D02*
X460885Y186607D01*
X456653D01*
X454537Y184491D01*
Y176027D01*
X456653Y173911D01*
X460885D01*
X463001Y176027D01*
Y216241D02*
X460885Y218357D01*
X456653D01*
X454537Y216241D01*
Y207777D01*
X456653Y205661D01*
X460885D01*
X463001Y207777D01*
Y303871D02*
X460885Y305987D01*
X456653D01*
X454537Y303871D01*
Y295407D01*
X456653Y293291D01*
X460885D01*
X463001Y295407D01*
Y329271D02*
X460885Y331387D01*
X456653D01*
X454537Y329271D01*
Y320807D01*
X456653Y318691D01*
X460885D01*
X463001Y320807D01*
Y352131D02*
X460885Y354247D01*
X456653D01*
X454537Y352131D01*
Y343667D01*
X456653Y341551D01*
X460885D01*
X463001Y343667D01*
X394544Y533820D02*
X392428Y535936D01*
X388196D01*
X386080Y533820D01*
Y525356D01*
X388196Y523240D01*
X392428D01*
X394544Y525356D01*
X379304Y533820D02*
X377188Y535936D01*
X372956D01*
X370840Y533820D01*
Y525356D01*
X372956Y523240D01*
X377188D01*
X379304Y525356D01*
X320761Y515961D02*
X318645Y518077D01*
X314413D01*
X312297Y515961D01*
Y507497D01*
X314413Y505381D01*
X318645D01*
X320761Y507497D01*
X323301Y394041D02*
X321185Y396157D01*
X316953D01*
X314837Y394041D01*
Y385577D01*
X316953Y383461D01*
X321185D01*
X323301Y385577D01*
X273894Y395390D02*
X271778Y397506D01*
X267546D01*
X265430Y395390D01*
Y386926D01*
X267546Y384810D01*
X271778D01*
X273894Y386926D01*
X262464Y395390D02*
X260348Y397506D01*
X256116D01*
X254000Y395390D01*
Y386926D01*
X256116Y384810D01*
X260348D01*
X262464Y386926D01*
X285324Y395390D02*
X283208Y397506D01*
X278976D01*
X276860Y395390D01*
Y386926D01*
X278976Y384810D01*
X283208D01*
X285324Y386926D01*
X469474Y831000D02*
X467358Y833116D01*
X463126D01*
X461010Y831000D01*
Y822536D01*
X463126Y820420D01*
X467358D01*
X469474Y822536D01*
X468081Y724241D02*
X465965Y726357D01*
X461733D01*
X459617Y724241D01*
Y715777D01*
X461733Y713661D01*
X465965D01*
X468081Y715777D01*
X520151Y785201D02*
X518035Y787317D01*
X513803D01*
X511687Y785201D01*
Y776737D01*
X513803Y774621D01*
X518035D01*
X520151Y776737D01*
X475701Y772501D02*
X473585Y774617D01*
X469353D01*
X467237Y772501D01*
Y764037D01*
X469353Y761921D01*
X473585D01*
X475701Y764037D01*
X568411Y679791D02*
X566295Y681907D01*
X562063D01*
X559947Y679791D01*
Y671327D01*
X562063Y669211D01*
X566295D01*
X568411Y671327D01*
Y695031D02*
X566295Y697147D01*
X562063D01*
X559947Y695031D01*
Y686567D01*
X562063Y684451D01*
X566295D01*
X568411Y686567D01*
X536661Y772501D02*
X534545Y774617D01*
X530313D01*
X528197Y772501D01*
Y764037D01*
X530313Y761921D01*
X534545D01*
X536661Y764037D01*
X1087964Y862750D02*
X1085848Y864866D01*
X1081616D01*
X1079500Y862750D01*
Y854286D01*
X1081616Y852170D01*
X1085848D01*
X1087964Y854286D01*
X1077804Y862750D02*
X1075688Y864866D01*
X1071456D01*
X1069340Y862750D01*
Y854286D01*
X1071456Y852170D01*
X1075688D01*
X1077804Y854286D01*
X954614Y913550D02*
X952498Y915666D01*
X948266D01*
X946150Y913550D01*
Y905086D01*
X948266Y902970D01*
X952498D01*
X954614Y905086D01*
X1077804Y844970D02*
X1075688Y847086D01*
X1071456D01*
X1069340Y844970D01*
Y836506D01*
X1071456Y834390D01*
X1075688D01*
X1077804Y836506D01*
X1087964Y844970D02*
X1085848Y847086D01*
X1081616D01*
X1079500Y844970D01*
Y836506D01*
X1081616Y834390D01*
X1085848D01*
X1087964Y836506D01*
X844124Y914820D02*
X842008Y916936D01*
X837776D01*
X835660Y914820D01*
Y906356D01*
X837776Y904240D01*
X842008D01*
X844124Y906356D01*
X825074Y926250D02*
X822958Y928366D01*
X818726D01*
X816610Y926250D01*
Y917786D01*
X818726Y915670D01*
X822958D01*
X825074Y917786D01*
X934294Y909740D02*
X932178Y911856D01*
X927946D01*
X925830Y909740D01*
Y901276D01*
X927946Y899160D01*
X932178D01*
X934294Y901276D01*
X868254Y900850D02*
X866138Y902966D01*
X861906D01*
X859790Y900850D01*
Y892386D01*
X861906Y890270D01*
X866138D01*
X868254Y892386D01*
X888574Y907200D02*
X886458Y909316D01*
X882226D01*
X880110Y907200D01*
Y898736D01*
X882226Y896620D01*
X886458D01*
X888574Y898736D01*
X910164Y908470D02*
X908048Y910586D01*
X903816D01*
X901700Y908470D01*
Y900006D01*
X903816Y897890D01*
X908048D01*
X910164Y900006D01*
X666324Y938950D02*
X664208Y941066D01*
X659976D01*
X657860Y938950D01*
Y930486D01*
X659976Y928370D01*
X664208D01*
X666324Y930486D01*
X675214Y930060D02*
X673098Y932176D01*
X668866D01*
X666750Y930060D01*
Y921596D01*
X668866Y919480D01*
X673098D01*
X675214Y921596D01*
X665054Y951650D02*
X662938Y953766D01*
X658706D01*
X656590Y951650D01*
Y943186D01*
X658706Y941070D01*
X662938D01*
X665054Y943186D01*
X607904Y945300D02*
X605788Y947416D01*
X601556D01*
X599440Y945300D01*
Y936836D01*
X601556Y934720D01*
X605788D01*
X607904Y936836D01*
X629494Y945300D02*
X627378Y947416D01*
X623146D01*
X621030Y945300D01*
Y936836D01*
X623146Y934720D01*
X627378D01*
X629494Y936836D01*
X639654Y945300D02*
X637538Y947416D01*
X633306D01*
X631190Y945300D01*
Y936836D01*
X633306Y934720D01*
X637538D01*
X639654Y936836D01*
X576154Y917360D02*
X574038Y919476D01*
X569806D01*
X567690Y917360D01*
Y908896D01*
X569806Y906780D01*
X574038D01*
X576154Y908896D01*
X590203Y945177D02*
X588087Y947293D01*
X583855D01*
X581739Y945177D01*
Y936713D01*
X583855Y934597D01*
X588087D01*
X590203Y936713D01*
X599014Y945300D02*
X596898Y947416D01*
X592666D01*
X590550Y945300D01*
Y936836D01*
X592666Y934720D01*
X596898D01*
X599014Y936836D01*
X522814Y945300D02*
X520698Y947416D01*
X516466D01*
X514350Y945300D01*
Y936836D01*
X516466Y934720D01*
X520698D01*
X522814Y936836D01*
X483444Y941490D02*
X481328Y943606D01*
X477096D01*
X474980Y941490D01*
Y933026D01*
X477096Y930910D01*
X481328D01*
X483444Y933026D01*
X506304Y945300D02*
X504188Y947416D01*
X499956D01*
X497840Y945300D01*
Y936836D01*
X499956Y934720D01*
X504188D01*
X506304Y936836D01*
X548293Y946447D02*
X546177Y948563D01*
X541945D01*
X539829Y946447D01*
Y937983D01*
X541945Y935867D01*
X546177D01*
X548293Y937983D01*
X558453Y946447D02*
X556337Y948563D01*
X552105D01*
X549989Y946447D01*
Y937983D01*
X552105Y935867D01*
X556337D01*
X558453Y937983D01*
X568613Y946447D02*
X566497Y948563D01*
X562265D01*
X560149Y946447D01*
Y937983D01*
X562265Y935867D01*
X566497D01*
X568613Y937983D01*
X545674Y927520D02*
X543558Y929636D01*
X539326D01*
X537210Y927520D01*
Y919056D01*
X539326Y916940D01*
X543558D01*
X545674Y919056D01*
X506304Y927520D02*
X504188Y929636D01*
X499956D01*
X497840Y927520D01*
Y919056D01*
X499956Y916940D01*
X504188D01*
X506304Y919056D01*
X522814Y927520D02*
X520698Y929636D01*
X516466D01*
X514350Y927520D01*
Y919056D01*
X516466Y916940D01*
X520698D01*
X522814Y919056D01*
X808564Y811950D02*
X806448Y814066D01*
X802216D01*
X800100Y811950D01*
Y803486D01*
X802216Y801370D01*
X806448D01*
X808564Y803486D01*
X800944Y820840D02*
X798828Y822956D01*
X794596D01*
X792480Y820840D01*
Y812376D01*
X794596Y810260D01*
X798828D01*
X800944Y812376D01*
X801023Y832147D02*
X798907Y834263D01*
X794675D01*
X792559Y832147D01*
Y823683D01*
X794675Y821567D01*
X798907D01*
X801023Y823683D01*
X797134Y913550D02*
X795018Y915666D01*
X790786D01*
X788670Y913550D01*
Y905086D01*
X790786Y902970D01*
X795018D01*
X797134Y905086D01*
X845394Y866560D02*
X843278Y868676D01*
X839046D01*
X836930Y866560D01*
Y858096D01*
X839046Y855980D01*
X843278D01*
X845394Y858096D01*
X762844Y922440D02*
X760728Y924556D01*
X756496D01*
X754380Y922440D01*
Y913976D01*
X756496Y911860D01*
X760728D01*
X762844Y913976D01*
X785704Y886880D02*
X783588Y888996D01*
X779356D01*
X777240Y886880D01*
Y878416D01*
X779356Y876300D01*
X783588D01*
X785704Y878416D01*
X793324Y879260D02*
X791208Y881376D01*
X786976D01*
X784860Y879260D01*
Y870796D01*
X786976Y868680D01*
X791208D01*
X793324Y870796D01*
X801023Y871517D02*
X798907Y873633D01*
X794675D01*
X792559Y871517D01*
Y863053D01*
X794675Y860937D01*
X798907D01*
X801023Y863053D01*
X802091Y861401D02*
X799975Y863517D01*
X795743D01*
X793627Y861401D01*
Y852937D01*
X795743Y850821D01*
X799975D01*
X802091Y852937D01*
Y851241D02*
X799975Y853357D01*
X795743D01*
X793627Y851241D01*
Y842777D01*
X795743Y840661D01*
X799975D01*
X802091Y842777D01*
Y841081D02*
X799975Y843197D01*
X795743D01*
X793627Y841081D01*
Y832617D01*
X795743Y830501D01*
X799975D01*
X802091Y832617D01*
X823681Y860131D02*
X821565Y862247D01*
X817333D01*
X815217Y860131D01*
Y851667D01*
X817333Y849551D01*
X821565D01*
X823681Y851667D01*
Y849971D02*
X821565Y852087D01*
X817333D01*
X815217Y849971D01*
Y841507D01*
X817333Y839391D01*
X821565D01*
X823681Y841507D01*
Y839811D02*
X821565Y841927D01*
X817333D01*
X815217Y839811D01*
Y831347D01*
X817333Y829231D01*
X821565D01*
X823681Y831347D01*
X816184Y895770D02*
X814068Y897886D01*
X809836D01*
X807720Y895770D01*
Y887306D01*
X809836Y885190D01*
X814068D01*
X816184Y887306D01*
X807294Y904660D02*
X805178Y906776D01*
X800946D01*
X798830Y904660D01*
Y896196D01*
X800946Y894080D01*
X805178D01*
X807294Y896196D01*
X826344Y885610D02*
X824228Y887726D01*
X819996D01*
X817880Y885610D01*
Y877146D01*
X819996Y875030D01*
X824228D01*
X826344Y877146D01*
X887225Y635543D02*
X885109Y637659D01*
X880877D01*
X878761Y635543D01*
Y627079D01*
X880877Y624963D01*
X885109D01*
X887225Y627079D01*
X877065Y635543D02*
X874949Y637659D01*
X870717D01*
X868601Y635543D01*
Y627079D01*
X870717Y624963D01*
X874949D01*
X877065Y627079D01*
X866905Y635543D02*
X864789Y637659D01*
X860557D01*
X858441Y635543D01*
Y627079D01*
X860557Y624963D01*
X864789D01*
X866905Y627079D01*
X854205Y635543D02*
X852089Y637659D01*
X847857D01*
X845741Y635543D01*
Y627079D01*
X847857Y624963D01*
X852089D01*
X854205Y627079D01*
X844045Y635543D02*
X841929Y637659D01*
X837697D01*
X835581Y635543D01*
Y627079D01*
X837697Y624963D01*
X841929D01*
X844045Y627079D01*
X833885Y635543D02*
X831769Y637659D01*
X827537D01*
X825421Y635543D01*
Y627079D01*
X827537Y624963D01*
X831769D01*
X833885Y627079D01*
X918975Y733333D02*
X916859Y735449D01*
X912627D01*
X910511Y733333D01*
Y724869D01*
X912627Y722753D01*
X916859D01*
X918975Y724869D01*
X908815Y733333D02*
X906699Y735449D01*
X902467D01*
X900351Y733333D01*
Y724869D01*
X902467Y722753D01*
X906699D01*
X908815Y724869D01*
X898655Y733333D02*
X896539Y735449D01*
X892307D01*
X890191Y733333D01*
Y724869D01*
X892307Y722753D01*
X896539D01*
X898655Y724869D01*
X1096775Y635543D02*
X1094659Y637659D01*
X1090427D01*
X1088311Y635543D01*
Y627079D01*
X1090427Y624963D01*
X1094659D01*
X1096775Y627079D01*
X1086615Y635543D02*
X1084499Y637659D01*
X1080267D01*
X1078151Y635543D01*
Y627079D01*
X1080267Y624963D01*
X1084499D01*
X1086615Y627079D01*
X1076455Y635543D02*
X1074339Y637659D01*
X1070107D01*
X1067991Y635543D01*
Y627079D01*
X1070107Y624963D01*
X1074339D01*
X1076455Y627079D01*
X1065025Y635543D02*
X1062909Y637659D01*
X1058677D01*
X1056561Y635543D01*
Y627079D01*
X1058677Y624963D01*
X1062909D01*
X1065025Y627079D01*
X1054865Y635543D02*
X1052749Y637659D01*
X1048517D01*
X1046401Y635543D01*
Y627079D01*
X1048517Y624963D01*
X1052749D01*
X1054865Y627079D01*
X1044705Y635543D02*
X1042589Y637659D01*
X1038357D01*
X1036241Y635543D01*
Y627079D01*
X1038357Y624963D01*
X1042589D01*
X1044705Y627079D01*
X884887Y795519D02*
X882771Y797635D01*
X878539D01*
X876423Y795519D01*
Y787055D01*
X878539Y784939D01*
X882771D01*
X884887Y787055D01*
Y805679D02*
X882771Y807795D01*
X878539D01*
X876423Y805679D01*
Y797215D01*
X878539Y795099D01*
X882771D01*
X884887Y797215D01*
Y815839D02*
X882771Y817955D01*
X878539D01*
X876423Y815839D01*
Y807375D01*
X878539Y805259D01*
X882771D01*
X884887Y807375D01*
X703277Y742179D02*
X701161Y744295D01*
X696929D01*
X694813Y742179D01*
Y733715D01*
X696929Y731599D01*
X701161D01*
X703277Y733715D01*
Y752339D02*
X701161Y754455D01*
X696929D01*
X694813Y752339D01*
Y743875D01*
X696929Y741759D01*
X701161D01*
X703277Y743875D01*
Y762499D02*
X701161Y764615D01*
X696929D01*
X694813Y762499D01*
Y754035D01*
X696929Y751919D01*
X701161D01*
X703277Y754035D01*
X909320Y994410D02*
X911860Y999490D01*
X909320Y1004570D01*
X914400Y1002030D01*
X919480Y1004570D01*
X916940Y999490D01*
X919480Y994410D01*
X914400Y996950D01*
X909320Y994410D01*
X911352Y996442D02*
X912876Y999490D01*
X911352Y1002538D01*
X914400Y1001014D01*
X917448Y1002538D01*
X915924Y999490D01*
X917448Y996442D01*
X914400Y997966D01*
X911352Y996442D01*
X922020Y994410D02*
X924560Y999490D01*
X922020Y1004570D01*
X927100Y1002030D01*
X932180Y1004570D01*
X929640Y999490D01*
X932180Y994410D01*
X927100Y996950D01*
X922020Y994410D01*
X924052Y996442D02*
X925576Y999490D01*
X924052Y1002538D01*
X927100Y1001014D01*
X930148Y1002538D01*
X928624Y999490D01*
X930148Y996442D01*
X927100Y997966D01*
X924052Y996442D01*
X934720Y994410D02*
X937260Y999490D01*
X934720Y1004570D01*
X939800Y1002030D01*
X944880Y1004570D01*
X942340Y999490D01*
X944880Y994410D01*
X939800Y996950D01*
X934720Y994410D01*
X936752Y996442D02*
X938276Y999490D01*
X936752Y1002538D01*
X939800Y1001014D01*
X942848Y1002538D01*
X941324Y999490D01*
X942848Y996442D01*
X939800Y997966D01*
X936752Y996442D01*
X711200Y902970D02*
X713740Y908050D01*
X711200Y913130D01*
X716280Y910590D01*
X721360Y913130D01*
X718820Y908050D01*
X721360Y902970D01*
X716280Y905510D01*
X711200Y902970D01*
X713232Y905002D02*
X714756Y908050D01*
X713232Y911098D01*
X716280Y909574D01*
X719328Y911098D01*
X717804Y908050D01*
X719328Y905002D01*
X716280Y906526D01*
X713232Y905002D01*
X726440Y902970D02*
X728980Y908050D01*
X726440Y913130D01*
X731520Y910590D01*
X736600Y913130D01*
X734060Y908050D01*
X736600Y902970D01*
X731520Y905510D01*
X726440Y902970D01*
X728472Y905002D02*
X729996Y908050D01*
X728472Y911098D01*
X731520Y909574D01*
X734568Y911098D01*
X733044Y908050D01*
X734568Y905002D01*
X731520Y906526D01*
X728472Y905002D01*
X707390Y876300D02*
X709930Y881380D01*
X707390Y886460D01*
X712470Y883920D01*
X717550Y886460D01*
X715010Y881380D01*
X717550Y876300D01*
X712470Y878840D01*
X707390Y876300D01*
X709422Y878332D02*
X710946Y881380D01*
X709422Y884428D01*
X712470Y882904D01*
X715518Y884428D01*
X713994Y881380D01*
X715518Y878332D01*
X712470Y879856D01*
X709422Y878332D01*
X735330Y876300D02*
X737870Y881380D01*
X735330Y886460D01*
X740410Y883920D01*
X745490Y886460D01*
X742950Y881380D01*
X745490Y876300D01*
X740410Y878840D01*
X735330Y876300D01*
X737362Y878332D02*
X738886Y881380D01*
X737362Y884428D01*
X740410Y882904D01*
X743458Y884428D01*
X741934Y881380D01*
X743458Y878332D01*
X740410Y879856D01*
X737362Y878332D01*
X749300Y876300D02*
X751840Y881380D01*
X749300Y886460D01*
X754380Y883920D01*
X759460Y886460D01*
X756920Y881380D01*
X759460Y876300D01*
X754380Y878840D01*
X749300Y876300D01*
X751332Y878332D02*
X752856Y881380D01*
X751332Y884428D01*
X754380Y882904D01*
X757428Y884428D01*
X755904Y881380D01*
X757428Y878332D01*
X754380Y879856D01*
X751332Y878332D01*
X763270Y876300D02*
X765810Y881380D01*
X763270Y886460D01*
X768350Y883920D01*
X773430Y886460D01*
X770890Y881380D01*
X773430Y876300D01*
X768350Y878840D01*
X763270Y876300D01*
X765302Y878332D02*
X766826Y881380D01*
X765302Y884428D01*
X768350Y882904D01*
X771398Y884428D01*
X769874Y881380D01*
X771398Y878332D01*
X768350Y879856D01*
X765302Y878332D01*
X628224Y883070D02*
X626108Y885186D01*
X621876D01*
X619760Y883070D01*
Y874606D01*
X621876Y872490D01*
X626108D01*
X628224Y874606D01*
X504190Y867410D02*
X506730Y872490D01*
X504190Y877570D01*
X509270Y875030D01*
X514350Y877570D01*
X511810Y872490D01*
X514350Y867410D01*
X509270Y869950D01*
X504190Y867410D01*
X506222Y869442D02*
X507746Y872490D01*
X506222Y875538D01*
X509270Y874014D01*
X512318Y875538D01*
X510794Y872490D01*
X512318Y869442D01*
X509270Y870966D01*
X506222Y869442D01*
X647700Y636270D02*
X650240Y641350D01*
X647700Y646430D01*
X652780Y643890D01*
X657860Y646430D01*
X655320Y641350D01*
X657860Y636270D01*
X652780Y638810D01*
X647700Y636270D01*
X649732Y638302D02*
X651256Y641350D01*
X649732Y644398D01*
X652780Y642874D01*
X655828Y644398D01*
X654304Y641350D01*
X655828Y638302D01*
X652780Y639826D01*
X649732Y638302D01*
X647700Y623570D02*
X650240Y628650D01*
X647700Y633730D01*
X652780Y631190D01*
X657860Y633730D01*
X655320Y628650D01*
X657860Y623570D01*
X652780Y626110D01*
X647700Y623570D01*
X649732Y625602D02*
X651256Y628650D01*
X649732Y631698D01*
X652780Y630174D01*
X655828Y631698D01*
X654304Y628650D01*
X655828Y625602D01*
X652780Y627126D01*
X649732Y625602D01*
X647700Y610870D02*
X650240Y615950D01*
X647700Y621030D01*
X652780Y618490D01*
X657860Y621030D01*
X655320Y615950D01*
X657860Y610870D01*
X652780Y613410D01*
X647700Y610870D01*
X649732Y612902D02*
X651256Y615950D01*
X649732Y618998D01*
X652780Y617474D01*
X655828Y618998D01*
X654304Y615950D01*
X655828Y612902D01*
X652780Y614426D01*
X649732Y612902D01*
X461854Y678600D02*
X459738Y680716D01*
X455506D01*
X453390Y678600D01*
Y670136D01*
X455506Y668020D01*
X459738D01*
X461854Y670136D01*
X402590Y609600D02*
X405130Y614680D01*
X402590Y619760D01*
X407670Y617220D01*
X412750Y619760D01*
X410210Y614680D01*
X412750Y609600D01*
X407670Y612140D01*
X402590Y609600D01*
X404622Y611632D02*
X406146Y614680D01*
X404622Y617728D01*
X407670Y616204D01*
X410718Y617728D01*
X409194Y614680D01*
X410718Y611632D01*
X407670Y613156D01*
X404622Y611632D01*
X402590Y596900D02*
X405130Y601980D01*
X402590Y607060D01*
X407670Y604520D01*
X412750Y607060D01*
X410210Y601980D01*
X412750Y596900D01*
X407670Y599440D01*
X402590Y596900D01*
X404622Y598932D02*
X406146Y601980D01*
X404622Y605028D01*
X407670Y603504D01*
X410718Y605028D01*
X409194Y601980D01*
X410718Y598932D01*
X407670Y600456D01*
X404622Y598932D01*
X336550Y773430D02*
X339090Y778510D01*
X336550Y783590D01*
X341630Y781050D01*
X346710Y783590D01*
X344170Y778510D01*
X346710Y773430D01*
X341630Y775970D01*
X336550Y773430D01*
X338582Y775462D02*
X340106Y778510D01*
X338582Y781558D01*
X341630Y780034D01*
X344678Y781558D01*
X343154Y778510D01*
X344678Y775462D01*
X341630Y776986D01*
X338582Y775462D01*
X323850Y773430D02*
X326390Y778510D01*
X323850Y783590D01*
X328930Y781050D01*
X334010Y783590D01*
X331470Y778510D01*
X334010Y773430D01*
X328930Y775970D01*
X323850Y773430D01*
X325882Y775462D02*
X327406Y778510D01*
X325882Y781558D01*
X328930Y780034D01*
X331978Y781558D01*
X330454Y778510D01*
X331978Y775462D01*
X328930Y776986D01*
X325882Y775462D01*
X311150Y773430D02*
X313690Y778510D01*
X311150Y783590D01*
X316230Y781050D01*
X321310Y783590D01*
X318770Y778510D01*
X321310Y773430D01*
X316230Y775970D01*
X311150Y773430D01*
X313182Y775462D02*
X314706Y778510D01*
X313182Y781558D01*
X316230Y780034D01*
X319278Y781558D01*
X317754Y778510D01*
X319278Y775462D01*
X316230Y776986D01*
X313182Y775462D01*
X128270Y792480D02*
X130810Y797560D01*
X128270Y802640D01*
X133350Y800100D01*
X138430Y802640D01*
X135890Y797560D01*
X138430Y792480D01*
X133350Y795020D01*
X128270Y792480D01*
X130302Y794512D02*
X131826Y797560D01*
X130302Y800608D01*
X133350Y799084D01*
X136398Y800608D01*
X134874Y797560D01*
X136398Y794512D01*
X133350Y796036D01*
X130302Y794512D01*
X128270Y805180D02*
X130810Y810260D01*
X128270Y815340D01*
X133350Y812800D01*
X138430Y815340D01*
X135890Y810260D01*
X138430Y805180D01*
X133350Y807720D01*
X128270Y805180D01*
X130302Y807212D02*
X131826Y810260D01*
X130302Y813308D01*
X133350Y811784D01*
X136398Y813308D01*
X134874Y810260D01*
X136398Y807212D01*
X133350Y808736D01*
X130302Y807212D01*
X128270Y817880D02*
X130810Y822960D01*
X128270Y828040D01*
X133350Y825500D01*
X138430Y828040D01*
X135890Y822960D01*
X138430Y817880D01*
X133350Y820420D01*
X128270Y817880D01*
X130302Y819912D02*
X131826Y822960D01*
X130302Y826008D01*
X133350Y824484D01*
X136398Y826008D01*
X134874Y822960D01*
X136398Y819912D01*
X133350Y821436D01*
X130302Y819912D01*
X1065530Y520700D02*
X1068070Y525780D01*
X1065530Y530860D01*
X1070610Y528320D01*
X1075690Y530860D01*
X1073150Y525780D01*
X1075690Y520700D01*
X1070610Y523240D01*
X1065530Y520700D01*
X1067562Y522732D02*
X1069086Y525780D01*
X1067562Y528828D01*
X1070610Y527304D01*
X1073658Y528828D01*
X1072134Y525780D01*
X1073658Y522732D01*
X1070610Y524256D01*
X1067562Y522732D01*
X1078230Y520700D02*
X1080770Y525780D01*
X1078230Y530860D01*
X1083310Y528320D01*
X1088390Y530860D01*
X1085850Y525780D01*
X1088390Y520700D01*
X1083310Y523240D01*
X1078230Y520700D01*
X1080262Y522732D02*
X1081786Y525780D01*
X1080262Y528828D01*
X1083310Y527304D01*
X1086358Y528828D01*
X1084834Y525780D01*
X1086358Y522732D01*
X1083310Y524256D01*
X1080262Y522732D01*
X1090930Y520700D02*
X1093470Y525780D01*
X1090930Y530860D01*
X1096010Y528320D01*
X1101090Y530860D01*
X1098550Y525780D01*
X1101090Y520700D01*
X1096010Y523240D01*
X1090930Y520700D01*
X1092962Y522732D02*
X1094486Y525780D01*
X1092962Y528828D01*
X1096010Y527304D01*
X1099058Y528828D01*
X1097534Y525780D01*
X1099058Y522732D01*
X1096010Y524256D01*
X1092962Y522732D01*
X888141Y369529D02*
X890681Y374609D01*
X888141Y379689D01*
X893221Y377149D01*
X898301Y379689D01*
X895761Y374609D01*
X898301Y369529D01*
X893221Y372069D01*
X888141Y369529D01*
X890173Y371561D02*
X891697Y374609D01*
X890173Y377657D01*
X893221Y376133D01*
X896269Y377657D01*
X894745Y374609D01*
X896269Y371561D01*
X893221Y373085D01*
X890173Y371561D01*
X900841Y369529D02*
X903381Y374609D01*
X900841Y379689D01*
X905921Y377149D01*
X911001Y379689D01*
X908461Y374609D01*
X911001Y369529D01*
X905921Y372069D01*
X900841Y369529D01*
X902873Y371561D02*
X904397Y374609D01*
X902873Y377657D01*
X905921Y376133D01*
X908969Y377657D01*
X907445Y374609D01*
X908969Y371561D01*
X905921Y373085D01*
X902873Y371561D01*
X913541Y369529D02*
X916081Y374609D01*
X913541Y379689D01*
X918621Y377149D01*
X923701Y379689D01*
X921161Y374609D01*
X923701Y369529D01*
X918621Y372069D01*
X913541Y369529D01*
X915573Y371561D02*
X917097Y374609D01*
X915573Y377657D01*
X918621Y376133D01*
X921669Y377657D01*
X920145Y374609D01*
X921669Y371561D01*
X918621Y373085D01*
X915573Y371561D01*
X745490Y433070D02*
X748030Y438150D01*
X745490Y443230D01*
X750570Y440690D01*
X755650Y443230D01*
X753110Y438150D01*
X755650Y433070D01*
X750570Y435610D01*
X745490Y433070D01*
X747522Y435102D02*
X749046Y438150D01*
X747522Y441198D01*
X750570Y439674D01*
X753618Y441198D01*
X752094Y438150D01*
X753618Y435102D01*
X750570Y436626D01*
X747522Y435102D01*
X745490Y420370D02*
X748030Y425450D01*
X745490Y430530D01*
X750570Y427990D01*
X755650Y430530D01*
X753110Y425450D01*
X755650Y420370D01*
X750570Y422910D01*
X745490Y420370D01*
X747522Y422402D02*
X749046Y425450D01*
X747522Y428498D01*
X750570Y426974D01*
X753618Y428498D01*
X752094Y425450D01*
X753618Y422402D01*
X750570Y423926D01*
X747522Y422402D01*
X745490Y407670D02*
X748030Y412750D01*
X745490Y417830D01*
X750570Y415290D01*
X755650Y417830D01*
X753110Y412750D01*
X755650Y407670D01*
X750570Y410210D01*
X745490Y407670D01*
X747522Y409702D02*
X749046Y412750D01*
X747522Y415798D01*
X750570Y414274D01*
X753618Y415798D01*
X752094Y412750D01*
X753618Y409702D01*
X750570Y411226D01*
X747522Y409702D01*
X984250Y293370D02*
X986790Y298450D01*
X984250Y303530D01*
X989330Y300990D01*
X994410Y303530D01*
X991870Y298450D01*
X994410Y293370D01*
X989330Y295910D01*
X984250Y293370D01*
X986282Y295402D02*
X987806Y298450D01*
X986282Y301498D01*
X989330Y299974D01*
X992378Y301498D01*
X990854Y298450D01*
X992378Y295402D01*
X989330Y296926D01*
X986282Y295402D01*
X971550Y293370D02*
X974090Y298450D01*
X971550Y303530D01*
X976630Y300990D01*
X981710Y303530D01*
X979170Y298450D01*
X981710Y293370D01*
X976630Y295910D01*
X971550Y293370D01*
X973582Y295402D02*
X975106Y298450D01*
X973582Y301498D01*
X976630Y299974D01*
X979678Y301498D01*
X978154Y298450D01*
X979678Y295402D01*
X976630Y296926D01*
X973582Y295402D01*
X958850Y293370D02*
X961390Y298450D01*
X958850Y303530D01*
X963930Y300990D01*
X969010Y303530D01*
X966470Y298450D01*
X969010Y293370D01*
X963930Y295910D01*
X958850Y293370D01*
X960882Y295402D02*
X962406Y298450D01*
X960882Y301498D01*
X963930Y299974D01*
X966978Y301498D01*
X965454Y298450D01*
X966978Y295402D01*
X963930Y296926D01*
X960882Y295402D01*
X820420Y15240D02*
X822960Y20320D01*
X820420Y25400D01*
X825500Y22860D01*
X830580Y25400D01*
X828040Y20320D01*
X830580Y15240D01*
X825500Y17780D01*
X820420Y15240D01*
X822452Y17272D02*
X823976Y20320D01*
X822452Y23368D01*
X825500Y21844D01*
X828548Y23368D01*
X827024Y20320D01*
X828548Y17272D01*
X825500Y18796D01*
X822452Y17272D01*
X807720Y15240D02*
X810260Y20320D01*
X807720Y25400D01*
X812800Y22860D01*
X817880Y25400D01*
X815340Y20320D01*
X817880Y15240D01*
X812800Y17780D01*
X807720Y15240D01*
X809752Y17272D02*
X811276Y20320D01*
X809752Y23368D01*
X812800Y21844D01*
X815848Y23368D01*
X814324Y20320D01*
X815848Y17272D01*
X812800Y18796D01*
X809752Y17272D01*
X795020Y15240D02*
X797560Y20320D01*
X795020Y25400D01*
X800100Y22860D01*
X805180Y25400D01*
X802640Y20320D01*
X805180Y15240D01*
X800100Y17780D01*
X795020Y15240D01*
X797052Y17272D02*
X798576Y20320D01*
X797052Y23368D01*
X800100Y21844D01*
X803148Y23368D01*
X801624Y20320D01*
X803148Y17272D01*
X800100Y18796D01*
X797052Y17272D01*
X991870Y12700D02*
X994410Y17780D01*
X991870Y22860D01*
X996950Y20320D01*
X1002030Y22860D01*
X999490Y17780D01*
X1002030Y12700D01*
X996950Y15240D01*
X991870Y12700D01*
X993902Y14732D02*
X995426Y17780D01*
X993902Y20828D01*
X996950Y19304D01*
X999998Y20828D01*
X998474Y17780D01*
X999998Y14732D01*
X996950Y16256D01*
X993902Y14732D01*
X979170Y12700D02*
X981710Y17780D01*
X979170Y22860D01*
X984250Y20320D01*
X989330Y22860D01*
X986790Y17780D01*
X989330Y12700D01*
X984250Y15240D01*
X979170Y12700D01*
X981202Y14732D02*
X982726Y17780D01*
X981202Y20828D01*
X984250Y19304D01*
X987298Y20828D01*
X985774Y17780D01*
X987298Y14732D01*
X984250Y16256D01*
X981202Y14732D01*
X966470Y12700D02*
X969010Y17780D01*
X966470Y22860D01*
X971550Y20320D01*
X976630Y22860D01*
X974090Y17780D01*
X976630Y12700D01*
X971550Y15240D01*
X966470Y12700D01*
X968502Y14732D02*
X970026Y17780D01*
X968502Y20828D01*
X971550Y19304D01*
X974598Y20828D01*
X973074Y17780D01*
X974598Y14732D01*
X971550Y16256D01*
X968502Y14732D01*
X737870Y284480D02*
X740410Y289560D01*
X737870Y294640D01*
X742950Y292100D01*
X748030Y294640D01*
X745490Y289560D01*
X748030Y284480D01*
X742950Y287020D01*
X737870Y284480D01*
X739902Y286512D02*
X741426Y289560D01*
X739902Y292608D01*
X742950Y291084D01*
X745998Y292608D01*
X744474Y289560D01*
X745998Y286512D01*
X742950Y288036D01*
X739902Y286512D01*
X725170Y284480D02*
X727710Y289560D01*
X725170Y294640D01*
X730250Y292100D01*
X735330Y294640D01*
X732790Y289560D01*
X735330Y284480D01*
X730250Y287020D01*
X725170Y284480D01*
X727202Y286512D02*
X728726Y289560D01*
X727202Y292608D01*
X730250Y291084D01*
X733298Y292608D01*
X731774Y289560D01*
X733298Y286512D01*
X730250Y288036D01*
X727202Y286512D01*
X712470Y284480D02*
X715010Y289560D01*
X712470Y294640D01*
X717550Y292100D01*
X722630Y294640D01*
X720090Y289560D01*
X722630Y284480D01*
X717550Y287020D01*
X712470Y284480D01*
X714502Y286512D02*
X716026Y289560D01*
X714502Y292608D01*
X717550Y291084D01*
X720598Y292608D01*
X719074Y289560D01*
X720598Y286512D01*
X717550Y288036D01*
X714502Y286512D01*
X601980Y189230D02*
X604520Y194310D01*
X601980Y199390D01*
X607060Y196850D01*
X612140Y199390D01*
X609600Y194310D01*
X612140Y189230D01*
X607060Y191770D01*
X601980Y189230D01*
X604012Y191262D02*
X605536Y194310D01*
X604012Y197358D01*
X607060Y195834D01*
X610108Y197358D01*
X608584Y194310D01*
X610108Y191262D01*
X607060Y192786D01*
X604012Y191262D01*
X601980Y201930D02*
X604520Y207010D01*
X601980Y212090D01*
X607060Y209550D01*
X612140Y212090D01*
X609600Y207010D01*
X612140Y201930D01*
X607060Y204470D01*
X601980Y201930D01*
X604012Y203962D02*
X605536Y207010D01*
X604012Y210058D01*
X607060Y208534D01*
X610108Y210058D01*
X608584Y207010D01*
X610108Y203962D01*
X607060Y205486D01*
X604012Y203962D01*
X601980Y214630D02*
X604520Y219710D01*
X601980Y224790D01*
X607060Y222250D01*
X612140Y224790D01*
X609600Y219710D01*
X612140Y214630D01*
X607060Y217170D01*
X601980Y214630D01*
X604012Y216662D02*
X605536Y219710D01*
X604012Y222758D01*
X607060Y221234D01*
X610108Y222758D01*
X608584Y219710D01*
X610108Y216662D01*
X607060Y218186D01*
X604012Y216662D01*
X464820Y657860D02*
Y655320D01*
X469900D01*
Y657860D01*
X472440D01*
Y662940D01*
X469900D01*
Y665480D01*
X464820D01*
Y662940D01*
X462280D01*
Y657860D01*
X464820D01*
X465836Y658876D02*
Y657352D01*
X468884D01*
Y658876D01*
X470408D01*
Y661924D01*
X468884D01*
Y663448D01*
X465836D01*
Y661924D01*
X464312D01*
Y658876D01*
X465836D01*
X471170Y651510D02*
Y648970D01*
X476250D01*
Y651510D01*
X478790D01*
Y656590D01*
X476250D01*
Y659130D01*
X471170D01*
Y656590D01*
X468630D01*
Y651510D01*
X471170D01*
X472186Y652526D02*
Y651002D01*
X475234D01*
Y652526D01*
X476758D01*
Y655574D01*
X475234D01*
Y657098D01*
X472186D01*
Y655574D01*
X470662D01*
Y652526D01*
X472186D01*
X643890Y259080D02*
X646430D01*
X648970Y261620D01*
X651510Y259080D01*
X654050D01*
Y261620D01*
X651510Y264160D01*
X654050Y266700D01*
Y269240D01*
X651510D01*
X648970Y266700D01*
X646430Y269240D01*
X643890D01*
Y266700D01*
X646430Y264160D01*
X643890Y261620D01*
Y259080D01*
X645922Y261112D02*
X647446D01*
X648970Y262636D01*
X650494Y261112D01*
X652018D01*
Y262636D01*
X650494Y264160D01*
X652018Y265684D01*
Y267208D01*
X650494D01*
X648970Y265684D01*
X647446Y267208D01*
X645922D01*
Y265684D01*
X647446Y264160D01*
X645922Y262636D01*
Y261112D01*
X533400Y81280D02*
X535940Y86360D01*
X533400Y91440D01*
X538480Y88900D01*
X543560Y91440D01*
X541020Y86360D01*
X543560Y81280D01*
X538480Y83820D01*
X533400Y81280D01*
X535432Y83312D02*
X536956Y86360D01*
X535432Y89408D01*
X538480Y87884D01*
X541528Y89408D01*
X540004Y86360D01*
X541528Y83312D01*
X538480Y84836D01*
X535432Y83312D01*
X683260Y81280D02*
X685800Y86360D01*
X683260Y91440D01*
X688340Y88900D01*
X693420Y91440D01*
X690880Y86360D01*
X693420Y81280D01*
X688340Y83820D01*
X683260Y81280D01*
X685292Y83312D02*
X686816Y86360D01*
X685292Y89408D01*
X688340Y87884D01*
X691388Y89408D01*
X689864Y86360D01*
X691388Y83312D01*
X688340Y84836D01*
X685292Y83312D01*
X522814Y822110D02*
X520698Y824226D01*
X516466D01*
X514350Y822110D01*
Y813646D01*
X516466Y811530D01*
X520698D01*
X522814Y813646D01*
X445770Y416560D02*
X448310Y421640D01*
X445770Y426720D01*
X450850Y424180D01*
X455930Y426720D01*
X453390Y421640D01*
X455930Y416560D01*
X450850Y419100D01*
X445770Y416560D01*
X447802Y418592D02*
X449326Y421640D01*
X447802Y424688D01*
X450850Y423164D01*
X453898Y424688D01*
X452374Y421640D01*
X453898Y418592D01*
X450850Y420116D01*
X447802Y418592D01*
X445770Y391160D02*
X448310Y396240D01*
X445770Y401320D01*
X450850Y398780D01*
X455930Y401320D01*
X453390Y396240D01*
X455930Y391160D01*
X450850Y393700D01*
X445770Y391160D01*
X447802Y393192D02*
X449326Y396240D01*
X447802Y399288D01*
X450850Y397764D01*
X453898Y399288D01*
X452374Y396240D01*
X453898Y393192D01*
X450850Y394716D01*
X447802Y393192D01*
X445770Y403860D02*
X448310Y408940D01*
X445770Y414020D01*
X450850Y411480D01*
X455930Y414020D01*
X453390Y408940D01*
X455930Y403860D01*
X450850Y406400D01*
X445770Y403860D01*
X447802Y405892D02*
X449326Y408940D01*
X447802Y411988D01*
X450850Y410464D01*
X453898Y411988D01*
X452374Y408940D01*
X453898Y405892D01*
X450850Y407416D01*
X447802Y405892D01*
X592664Y917360D02*
X590548Y919476D01*
X586316D01*
X584200Y917360D01*
Y908896D01*
X586316Y906780D01*
X590548D01*
X592664Y908896D01*
X615524Y917360D02*
X613408Y919476D01*
X609176D01*
X607060Y917360D01*
Y908896D01*
X609176Y906780D01*
X613408D01*
X615524Y908896D01*
X694690Y902970D02*
X697230Y908050D01*
X694690Y913130D01*
X699770Y910590D01*
X704850Y913130D01*
X702310Y908050D01*
X704850Y902970D01*
X699770Y905510D01*
X694690Y902970D01*
X696722Y905002D02*
X698246Y908050D01*
X696722Y911098D01*
X699770Y909574D01*
X702818Y911098D01*
X701294Y908050D01*
X702818Y905002D01*
X699770Y906526D01*
X696722Y905002D01*
X681990Y902970D02*
X684530Y908050D01*
X681990Y913130D01*
X687070Y910590D01*
X692150Y913130D01*
X689610Y908050D01*
X692150Y902970D01*
X687070Y905510D01*
X681990Y902970D01*
X684022Y905002D02*
X685546Y908050D01*
X684022Y911098D01*
X687070Y909574D01*
X690118Y911098D01*
X688594Y908050D01*
X690118Y905002D01*
X687070Y906526D01*
X684022Y905002D01*
X668020Y902970D02*
X670560Y908050D01*
X668020Y913130D01*
X673100Y910590D01*
X678180Y913130D01*
X675640Y908050D01*
X678180Y902970D01*
X673100Y905510D01*
X668020Y902970D01*
X670052Y905002D02*
X671576Y908050D01*
X670052Y911098D01*
X673100Y909574D01*
X676148Y911098D01*
X674624Y908050D01*
X676148Y905002D01*
X673100Y906526D01*
X670052Y905002D01*
X721360Y876300D02*
X723900Y881380D01*
X721360Y886460D01*
X726440Y883920D01*
X731520Y886460D01*
X728980Y881380D01*
X731520Y876300D01*
X726440Y878840D01*
X721360Y876300D01*
X723392Y878332D02*
X724916Y881380D01*
X723392Y884428D01*
X726440Y882904D01*
X729488Y884428D01*
X727964Y881380D01*
X729488Y878332D01*
X726440Y879856D01*
X723392Y878332D01*
X825500Y863600D02*
X828040Y866140D01*
X830580D01*
X828040Y868680D01*
X830580Y871220D01*
X828040D01*
X825500Y873760D01*
X822960Y871220D01*
X820420D01*
X822960Y868680D01*
X820420Y866140D01*
X822960D01*
X825500Y863600D01*
Y865632D02*
X827024Y867156D01*
X828548D01*
X827024Y868680D01*
X828548Y870204D01*
X827024D01*
X825500Y871728D01*
X823976Y870204D01*
X822452D01*
X823976Y868680D01*
X822452Y867156D01*
X823976D01*
X825500Y865632D01*
Y835660D02*
X828040Y838200D01*
X830580D01*
X828040Y840740D01*
X830580Y843280D01*
X828040D01*
X825500Y845820D01*
X822960Y843280D01*
X820420D01*
X822960Y840740D01*
X820420Y838200D01*
X822960D01*
X825500Y835660D01*
Y837692D02*
X827024Y839216D01*
X828548D01*
X827024Y840740D01*
X828548Y842264D01*
X827024D01*
X825500Y843788D01*
X823976Y842264D01*
X822452D01*
X823976Y840740D01*
X822452Y839216D01*
X823976D01*
X825500Y837692D01*
X532130Y699770D02*
Y697230D01*
X537210D01*
Y699770D01*
X539750D01*
Y704850D01*
X537210D01*
Y707390D01*
X532130D01*
Y704850D01*
X529590D01*
Y699770D01*
X532130D01*
X533146Y700786D02*
Y699262D01*
X536194D01*
Y700786D01*
X537718D01*
Y703834D01*
X536194D01*
Y705358D01*
X533146D01*
Y703834D01*
X531622D01*
Y700786D01*
X533146D01*
X524510Y702310D02*
Y699770D01*
X529590D01*
Y702310D01*
X532130D01*
Y707390D01*
X529590D01*
Y709930D01*
X524510D01*
Y707390D01*
X521970D01*
Y702310D01*
X524510D01*
X525526Y703326D02*
Y701802D01*
X528574D01*
Y703326D01*
X530098D01*
Y706374D01*
X528574D01*
Y707898D01*
X525526D01*
Y706374D01*
X524002D01*
Y703326D01*
X525526D01*
X411480Y793750D02*
Y791210D01*
X416560D01*
Y793750D01*
X419100D01*
Y798830D01*
X416560D01*
Y801370D01*
X411480D01*
Y798830D01*
X408940D01*
Y793750D01*
X411480D01*
X412496Y794766D02*
Y793242D01*
X415544D01*
Y794766D01*
X417068D01*
Y797814D01*
X415544D01*
Y799338D01*
X412496D01*
Y797814D01*
X410972D01*
Y794766D01*
X412496D01*
X492760Y262890D02*
X495300D01*
X497840Y265430D01*
X500380Y262890D01*
X502920D01*
Y265430D01*
X500380Y267970D01*
X502920Y270510D01*
Y273050D01*
X500380D01*
X497840Y270510D01*
X495300Y273050D01*
X492760D01*
Y270510D01*
X495300Y267970D01*
X492760Y265430D01*
Y262890D01*
X494792Y264922D02*
X496316D01*
X497840Y266446D01*
X499364Y264922D01*
X500888D01*
Y266446D01*
X499364Y267970D01*
X500888Y269494D01*
Y271018D01*
X499364D01*
X497840Y269494D01*
X496316Y271018D01*
X494792D01*
Y269494D01*
X496316Y267970D01*
X494792Y266446D01*
Y264922D01*
X424478Y671532D02*
Y668992D01*
X429558D01*
Y671532D01*
X432098D01*
Y676612D01*
X429558D01*
Y679152D01*
X424478D01*
Y676612D01*
X421938D01*
Y671532D01*
X424478D01*
X425494Y672548D02*
Y671024D01*
X428542D01*
Y672548D01*
X430066D01*
Y675596D01*
X428542D01*
Y677120D01*
X425494D01*
Y675596D01*
X423970D01*
Y672548D01*
X425494D01*
X402590Y671830D02*
Y669290D01*
X407670D01*
Y671830D01*
X410210D01*
Y676910D01*
X407670D01*
Y679450D01*
X402590D01*
Y676910D01*
X400050D01*
Y671830D01*
X402590D01*
X403606Y672846D02*
Y671322D01*
X406654D01*
Y672846D01*
X408178D01*
Y675894D01*
X406654D01*
Y677418D01*
X403606D01*
Y675894D01*
X402082D01*
Y672846D01*
X403606D01*
X485310Y711200D02*
X487850D01*
X490390Y713740D01*
X492930Y711200D01*
X495470D01*
Y713740D01*
X492930Y716280D01*
X495470Y718820D01*
Y721360D01*
X492930D01*
X490390Y718820D01*
X487850Y721360D01*
X485310D01*
Y718820D01*
X487850Y716280D01*
X485310Y713740D01*
Y711200D01*
X487342Y713232D02*
X488866D01*
X490390Y714756D01*
X491914Y713232D01*
X493438D01*
Y714756D01*
X491914Y716280D01*
X493438Y717804D01*
Y719328D01*
X491914D01*
X490390Y717804D01*
X488866Y719328D01*
X487342D01*
Y717804D01*
X488866Y716280D01*
X487342Y714756D01*
Y713232D01*
X477520Y718820D02*
X480060D01*
X482600Y721360D01*
X485140Y718820D01*
X487680D01*
Y721360D01*
X485140Y723900D01*
X487680Y726440D01*
Y728980D01*
X485140D01*
X482600Y726440D01*
X480060Y728980D01*
X477520D01*
Y726440D01*
X480060Y723900D01*
X477520Y721360D01*
Y718820D01*
X479552Y720852D02*
X481076D01*
X482600Y722376D01*
X484124Y720852D01*
X485648D01*
Y722376D01*
X484124Y723900D01*
X485648Y725424D01*
Y726948D01*
X484124D01*
X482600Y725424D01*
X481076Y726948D01*
X479552D01*
Y725424D01*
X481076Y723900D01*
X479552Y722376D01*
Y720852D01*
X601980Y591820D02*
Y589280D01*
X607060D01*
Y591820D01*
X609600D01*
Y596900D01*
X607060D01*
Y599440D01*
X601980D01*
Y596900D01*
X599440D01*
Y591820D01*
X601980D01*
X602996Y592836D02*
Y591312D01*
X606044D01*
Y592836D01*
X607568D01*
Y595884D01*
X606044D01*
Y597408D01*
X602996D01*
Y595884D01*
X601472D01*
Y592836D01*
X602996D01*
X666750Y822960D02*
Y820420D01*
X671830D01*
Y822960D01*
X674370D01*
Y828040D01*
X671830D01*
Y830580D01*
X666750D01*
Y828040D01*
X664210D01*
Y822960D01*
X666750D01*
X667766Y823976D02*
Y822452D01*
X670814D01*
Y823976D01*
X672338D01*
Y827024D01*
X670814D01*
Y828548D01*
X667766D01*
Y827024D01*
X666242D01*
Y823976D01*
X667766D01*
X897297Y436287D02*
X899837Y441367D01*
X897297Y446447D01*
X902377Y443907D01*
X907457Y446447D01*
X904917Y441367D01*
X907457Y436287D01*
X902377Y438827D01*
X897297Y436287D01*
X899329Y438319D02*
X900853Y441367D01*
X899329Y444415D01*
X902377Y442891D01*
X905425Y444415D01*
X903901Y441367D01*
X905425Y438319D01*
X902377Y439843D01*
X899329Y438319D01*
X575310Y297180D02*
X577850Y302260D01*
X575310Y307340D01*
X580390Y304800D01*
X585470Y307340D01*
X582930Y302260D01*
X585470Y297180D01*
X580390Y299720D01*
X575310Y297180D01*
X577342Y299212D02*
X578866Y302260D01*
X577342Y305308D01*
X580390Y303784D01*
X583438Y305308D01*
X581914Y302260D01*
X583438Y299212D01*
X580390Y300736D01*
X577342Y299212D01*
X469900Y734060D02*
X472440D01*
X474980Y736600D01*
X477520Y734060D01*
X480060D01*
Y736600D01*
X477520Y739140D01*
X480060Y741680D01*
Y744220D01*
X477520D01*
X474980Y741680D01*
X472440Y744220D01*
X469900D01*
Y741680D01*
X472440Y739140D01*
X469900Y736600D01*
Y734060D01*
X471932Y736092D02*
X473456D01*
X474980Y737616D01*
X476504Y736092D01*
X478028D01*
Y737616D01*
X476504Y739140D01*
X478028Y740664D01*
Y742188D01*
X476504D01*
X474980Y740664D01*
X473456Y742188D01*
X471932D01*
Y740664D01*
X473456Y739140D01*
X471932Y737616D01*
Y736092D01*
X461010Y741774D02*
X463550D01*
X466090Y744314D01*
X468630Y741774D01*
X471170D01*
Y744314D01*
X468630Y746854D01*
X471170Y749394D01*
Y751934D01*
X468630D01*
X466090Y749394D01*
X463550Y751934D01*
X461010D01*
Y749394D01*
X463550Y746854D01*
X461010Y744314D01*
Y741774D01*
X463042Y743806D02*
X464566D01*
X466090Y745330D01*
X467614Y743806D01*
X469138D01*
Y745330D01*
X467614Y746854D01*
X469138Y748378D01*
Y749902D01*
X467614D01*
X466090Y748378D01*
X464566Y749902D01*
X463042D01*
Y748378D01*
X464566Y746854D01*
X463042Y745330D01*
Y743806D01*
X453390Y722630D02*
X455930D01*
X458470Y725170D01*
X461010Y722630D01*
X463550D01*
Y725170D01*
X461010Y727710D01*
X463550Y730250D01*
Y732790D01*
X461010D01*
X458470Y730250D01*
X455930Y732790D01*
X453390D01*
Y730250D01*
X455930Y727710D01*
X453390Y725170D01*
Y722630D01*
X455422Y724662D02*
X456946D01*
X458470Y726186D01*
X459994Y724662D01*
X461518D01*
Y726186D01*
X459994Y727710D01*
X461518Y729234D01*
Y730758D01*
X459994D01*
X458470Y729234D01*
X456946Y730758D01*
X455422D01*
Y729234D01*
X456946Y727710D01*
X455422Y726186D01*
Y724662D01*
X447040Y728980D02*
X449580D01*
X452120Y731520D01*
X454660Y728980D01*
X457200D01*
Y731520D01*
X454660Y734060D01*
X457200Y736600D01*
Y739140D01*
X454660D01*
X452120Y736600D01*
X449580Y739140D01*
X447040D01*
Y736600D01*
X449580Y734060D01*
X447040Y731520D01*
Y728980D01*
X449072Y731012D02*
X450596D01*
X452120Y732536D01*
X453644Y731012D01*
X455168D01*
Y732536D01*
X453644Y734060D01*
X455168Y735584D01*
Y737108D01*
X453644D01*
X452120Y735584D01*
X450596Y737108D01*
X449072D01*
Y735584D01*
X450596Y734060D01*
X449072Y732536D01*
Y731012D01*
X510114Y552870D02*
X507998Y554986D01*
X503766D01*
X501650Y552870D01*
Y544406D01*
X503766Y542290D01*
X507998D01*
X510114Y544406D01*
X520294Y552950D02*
X518178Y555066D01*
X513946D01*
X511830Y552950D01*
Y544486D01*
X513946Y542370D01*
X518178D01*
X520294Y544486D01*
X527050Y883920D02*
Y881380D01*
X532130D01*
Y883920D01*
X534670D01*
Y889000D01*
X532130D01*
Y891540D01*
X527050D01*
Y889000D01*
X524510D01*
Y883920D01*
X527050D01*
X528066Y884936D02*
Y883412D01*
X531114D01*
Y884936D01*
X532638D01*
Y887984D01*
X531114D01*
Y889508D01*
X528066D01*
Y887984D01*
X526542D01*
Y884936D01*
X528066D01*
X384810Y734060D02*
Y731520D01*
X389890D01*
Y734060D01*
X392430D01*
Y739140D01*
X389890D01*
Y741680D01*
X384810D01*
Y739140D01*
X382270D01*
Y734060D01*
X384810D01*
X385826Y735076D02*
Y733552D01*
X388874D01*
Y735076D01*
X390398D01*
Y738124D01*
X388874D01*
Y739648D01*
X385826D01*
Y738124D01*
X384302D01*
Y735076D01*
X385826D01*
X384810Y741680D02*
Y739140D01*
X389890D01*
Y741680D01*
X392430D01*
Y746760D01*
X389890D01*
Y749300D01*
X384810D01*
Y746760D01*
X382270D01*
Y741680D01*
X384810D01*
X385826Y742696D02*
Y741172D01*
X388874D01*
Y742696D01*
X390398D01*
Y745744D01*
X388874D01*
Y747268D01*
X385826D01*
Y745744D01*
X384302D01*
Y742696D01*
X385826D01*
X299720Y798830D02*
Y796290D01*
X304800D01*
Y798830D01*
X307340D01*
Y803910D01*
X304800D01*
Y806450D01*
X299720D01*
Y803910D01*
X297180D01*
Y798830D01*
X299720D01*
X300736Y799846D02*
Y798322D01*
X303784D01*
Y799846D01*
X305308D01*
Y802894D01*
X303784D01*
Y804418D01*
X300736D01*
Y802894D01*
X299212D01*
Y799846D01*
X300736D01*
X293370Y807720D02*
Y805180D01*
X298450D01*
Y807720D01*
X300990D01*
Y812800D01*
X298450D01*
Y815340D01*
X293370D01*
Y812800D01*
X290830D01*
Y807720D01*
X293370D01*
X294386Y808736D02*
Y807212D01*
X297434D01*
Y808736D01*
X298958D01*
Y811784D01*
X297434D01*
Y813308D01*
X294386D01*
Y811784D01*
X292862D01*
Y808736D01*
X294386D01*
X937260Y107950D02*
X939800Y113030D01*
X937260Y118110D01*
X942340Y115570D01*
X947420Y118110D01*
X944880Y113030D01*
X947420Y107950D01*
X942340Y110490D01*
X937260Y107950D01*
X939292Y109982D02*
X940816Y113030D01*
X939292Y116078D01*
X942340Y114554D01*
X945388Y116078D01*
X943864Y113030D01*
X945388Y109982D01*
X942340Y111506D01*
X939292Y109982D01*
X741680Y937260D02*
Y934720D01*
X746760D01*
Y937260D01*
X749300D01*
Y942340D01*
X746760D01*
Y944880D01*
X741680D01*
Y942340D01*
X739140D01*
Y937260D01*
X741680D01*
X742696Y938276D02*
Y936752D01*
X745744D01*
Y938276D01*
X747268D01*
Y941324D01*
X745744D01*
Y942848D01*
X742696D01*
Y941324D01*
X741172D01*
Y938276D01*
X742696D01*
X481330Y924560D02*
Y922020D01*
X486410D01*
Y924560D01*
X488950D01*
Y929640D01*
X486410D01*
Y932180D01*
X481330D01*
Y929640D01*
X478790D01*
Y924560D01*
X481330D01*
X482346Y925576D02*
Y924052D01*
X485394D01*
Y925576D01*
X486918D01*
Y928624D01*
X485394D01*
Y930148D01*
X482346D01*
Y928624D01*
X480822D01*
Y925576D01*
X482346D01*
X490220Y904240D02*
Y901700D01*
X495300D01*
Y904240D01*
X497840D01*
Y909320D01*
X495300D01*
Y911860D01*
X490220D01*
Y909320D01*
X487680D01*
Y904240D01*
X490220D01*
X491236Y905256D02*
Y903732D01*
X494284D01*
Y905256D01*
X495808D01*
Y908304D01*
X494284D01*
Y909828D01*
X491236D01*
Y908304D01*
X489712D01*
Y905256D01*
X491236D01*
X302260Y720090D02*
Y717550D01*
X307340D01*
Y720090D01*
X309880D01*
Y725170D01*
X307340D01*
Y727710D01*
X302260D01*
Y725170D01*
X299720D01*
Y720090D01*
X302260D01*
X303276Y721106D02*
Y719582D01*
X306324D01*
Y721106D01*
X307848D01*
Y724154D01*
X306324D01*
Y725678D01*
X303276D01*
Y724154D01*
X301752D01*
Y721106D01*
X303276D01*
X308610Y713740D02*
Y711200D01*
X313690D01*
Y713740D01*
X316230D01*
Y718820D01*
X313690D01*
Y721360D01*
X308610D01*
Y718820D01*
X306070D01*
Y713740D01*
X308610D01*
X309626Y714756D02*
Y713232D01*
X312674D01*
Y714756D01*
X314198D01*
Y717804D01*
X312674D01*
Y719328D01*
X309626D01*
Y717804D01*
X308102D01*
Y714756D01*
X309626D01*
X308610Y701040D02*
Y698500D01*
X313690D01*
Y701040D01*
X316230D01*
Y706120D01*
X313690D01*
Y708660D01*
X308610D01*
Y706120D01*
X306070D01*
Y701040D01*
X308610D01*
X309626Y702056D02*
Y700532D01*
X312674D01*
Y702056D01*
X314198D01*
Y705104D01*
X312674D01*
Y706628D01*
X309626D01*
Y705104D01*
X308102D01*
Y702056D01*
X309626D01*
X302260Y707390D02*
Y704850D01*
X307340D01*
Y707390D01*
X309880D01*
Y712470D01*
X307340D01*
Y715010D01*
X302260D01*
Y712470D01*
X299720D01*
Y707390D01*
X302260D01*
X303276Y708406D02*
Y706882D01*
X306324D01*
Y708406D01*
X307848D01*
Y711454D01*
X306324D01*
Y712978D01*
X303276D01*
Y711454D01*
X301752D01*
Y708406D01*
X303276D01*
X306070Y598170D02*
X308610Y603250D01*
X306070Y608330D01*
X311150Y605790D01*
X316230Y608330D01*
X313690Y603250D01*
X316230Y598170D01*
X311150Y600710D01*
X306070Y598170D01*
X308102Y600202D02*
X309626Y603250D01*
X308102Y606298D01*
X311150Y604774D01*
X314198Y606298D01*
X312674Y603250D01*
X314198Y600202D01*
X311150Y601726D01*
X308102Y600202D01*
X330200Y598170D02*
X332740Y603250D01*
X330200Y608330D01*
X335280Y605790D01*
X340360Y608330D01*
X337820Y603250D01*
X340360Y598170D01*
X335280Y600710D01*
X330200Y598170D01*
X332232Y600202D02*
X333756Y603250D01*
X332232Y606298D01*
X335280Y604774D01*
X338328Y606298D01*
X336804Y603250D01*
X338328Y600202D01*
X335280Y601726D01*
X332232Y600202D01*
X784860Y934720D02*
X787400Y937260D01*
X789940D01*
X787400Y939800D01*
X789940Y942340D01*
X787400D01*
X784860Y944880D01*
X782320Y942340D01*
X779780D01*
X782320Y939800D01*
X779780Y937260D01*
X782320D01*
X784860Y934720D01*
Y936752D02*
X786384Y938276D01*
X787908D01*
X786384Y939800D01*
X787908Y941324D01*
X786384D01*
X784860Y942848D01*
X783336Y941324D01*
X781812D01*
X783336Y939800D01*
X781812Y938276D01*
X783336D01*
X784860Y936752D01*
X323850Y430530D02*
X326390Y435610D01*
X323850Y440690D01*
X328930Y438150D01*
X334010Y440690D01*
X331470Y435610D01*
X334010Y430530D01*
X328930Y433070D01*
X323850Y430530D01*
X325882Y432562D02*
X327406Y435610D01*
X325882Y438658D01*
X328930Y437134D01*
X331978Y438658D01*
X330454Y435610D01*
X331978Y432562D01*
X328930Y434086D01*
X325882Y432562D01*
X937260Y590550D02*
X939800Y595630D01*
X937260Y600710D01*
X942340Y598170D01*
X947420Y600710D01*
X944880Y595630D01*
X947420Y590550D01*
X942340Y593090D01*
X937260Y590550D01*
X939292Y592582D02*
X940816Y595630D01*
X939292Y598678D01*
X942340Y597154D01*
X945388Y598678D01*
X943864Y595630D01*
X945388Y592582D01*
X942340Y594106D01*
X939292Y592582D01*
X300990Y448310D02*
X303530Y453390D01*
X300990Y458470D01*
X306070Y455930D01*
X311150Y458470D01*
X308610Y453390D01*
X311150Y448310D01*
X306070Y450850D01*
X300990Y448310D01*
X303022Y450342D02*
X304546Y453390D01*
X303022Y456438D01*
X306070Y454914D01*
X309118Y456438D01*
X307594Y453390D01*
X309118Y450342D01*
X306070Y451866D01*
X303022Y450342D01*
X101600Y447040D02*
X104140Y452120D01*
X101600Y457200D01*
X106680Y454660D01*
X111760Y457200D01*
X109220Y452120D01*
X111760Y447040D01*
X106680Y449580D01*
X101600Y447040D01*
X103632Y449072D02*
X105156Y452120D01*
X103632Y455168D01*
X106680Y453644D01*
X109728Y455168D01*
X108204Y452120D01*
X109728Y449072D01*
X106680Y450596D01*
X103632Y449072D01*
X119380Y430530D02*
X121920Y435610D01*
X119380Y440690D01*
X124460Y438150D01*
X129540Y440690D01*
X127000Y435610D01*
X129540Y430530D01*
X124460Y433070D01*
X119380Y430530D01*
X121412Y432562D02*
X122936Y435610D01*
X121412Y438658D01*
X124460Y437134D01*
X127508Y438658D01*
X125984Y435610D01*
X127508Y432562D01*
X124460Y434086D01*
X121412Y432562D01*
X120650Y403860D02*
X123190Y408940D01*
X120650Y414020D01*
X125730Y411480D01*
X130810Y414020D01*
X128270Y408940D01*
X130810Y403860D01*
X125730Y406400D01*
X120650Y403860D01*
X122682Y405892D02*
X124206Y408940D01*
X122682Y411988D01*
X125730Y410464D01*
X128778Y411988D01*
X127254Y408940D01*
X128778Y405892D01*
X125730Y407416D01*
X122682Y405892D01*
X147320Y461010D02*
X149860Y466090D01*
X147320Y471170D01*
X152400Y468630D01*
X157480Y471170D01*
X154940Y466090D01*
X157480Y461010D01*
X152400Y463550D01*
X147320Y461010D01*
X149352Y463042D02*
X150876Y466090D01*
X149352Y469138D01*
X152400Y467614D01*
X155448Y469138D01*
X153924Y466090D01*
X155448Y463042D01*
X152400Y464566D01*
X149352Y463042D01*
X337820Y458470D02*
X340360Y463550D01*
X337820Y468630D01*
X342900Y466090D01*
X347980Y468630D01*
X345440Y463550D01*
X347980Y458470D01*
X342900Y461010D01*
X337820Y458470D01*
X339852Y460502D02*
X341376Y463550D01*
X339852Y466598D01*
X342900Y465074D01*
X345948Y466598D01*
X344424Y463550D01*
X345948Y460502D01*
X342900Y462026D01*
X339852Y460502D01*
X502920Y838200D02*
Y835660D01*
X508000D01*
Y838200D01*
X510540D01*
Y843280D01*
X508000D01*
Y845820D01*
X502920D01*
Y843280D01*
X500380D01*
Y838200D01*
X502920D01*
X503936Y839216D02*
Y837692D01*
X506984D01*
Y839216D01*
X508508D01*
Y842264D01*
X506984D01*
Y843788D01*
X503936D01*
Y842264D01*
X502412D01*
Y839216D01*
X503936D01*
X519430Y770890D02*
Y768350D01*
X524510D01*
Y770890D01*
X527050D01*
Y775970D01*
X524510D01*
Y778510D01*
X519430D01*
Y775970D01*
X516890D01*
Y770890D01*
X519430D01*
X520446Y771906D02*
Y770382D01*
X523494D01*
Y771906D01*
X525018D01*
Y774954D01*
X523494D01*
Y776478D01*
X520446D01*
Y774954D01*
X518922D01*
Y771906D01*
X520446D01*
X911860Y967740D02*
X914400Y972820D01*
X911860Y977900D01*
X916940Y975360D01*
X922020Y977900D01*
X919480Y972820D01*
X922020Y967740D01*
X916940Y970280D01*
X911860Y967740D01*
X913892Y969772D02*
X915416Y972820D01*
X913892Y975868D01*
X916940Y974344D01*
X919988Y975868D01*
X918464Y972820D01*
X919988Y969772D01*
X916940Y971296D01*
X913892Y969772D01*
X781050Y967740D02*
X783590Y972820D01*
X781050Y977900D01*
X786130Y975360D01*
X791210Y977900D01*
X788670Y972820D01*
X791210Y967740D01*
X786130Y970280D01*
X781050Y967740D01*
X783082Y969772D02*
X784606Y972820D01*
X783082Y975868D01*
X786130Y974344D01*
X789178Y975868D01*
X787654Y972820D01*
X789178Y969772D01*
X786130Y971296D01*
X783082Y969772D01*
X323850Y407670D02*
X326390Y412750D01*
X323850Y417830D01*
X328930Y415290D01*
X334010Y417830D01*
X331470Y412750D01*
X334010Y407670D01*
X328930Y410210D01*
X323850Y407670D01*
X325882Y409702D02*
X327406Y412750D01*
X325882Y415798D01*
X328930Y414274D01*
X331978Y415798D01*
X330454Y412750D01*
X331978Y409702D01*
X328930Y411226D01*
X325882Y409702D01*
X845820Y435610D02*
X848360Y440690D01*
X845820Y445770D01*
X850900Y443230D01*
X855980Y445770D01*
X853440Y440690D01*
X855980Y435610D01*
X850900Y438150D01*
X845820Y435610D01*
X847852Y437642D02*
X849376Y440690D01*
X847852Y443738D01*
X850900Y442214D01*
X853948Y443738D01*
X852424Y440690D01*
X853948Y437642D01*
X850900Y439166D01*
X847852Y437642D01*
X1094740Y668782D02*
X1097280Y673862D01*
X1094740Y678942D01*
X1099820Y676402D01*
X1104900Y678942D01*
X1102360Y673862D01*
X1104900Y668782D01*
X1099820Y671322D01*
X1094740Y668782D01*
X1096772Y670814D02*
X1098296Y673862D01*
X1096772Y676910D01*
X1099820Y675386D01*
X1102868Y676910D01*
X1101344Y673862D01*
X1102868Y670814D01*
X1099820Y672338D01*
X1096772Y670814D01*
X1094860Y649732D02*
X1097400Y654812D01*
X1094860Y659892D01*
X1099940Y657352D01*
X1105020Y659892D01*
X1102480Y654812D01*
X1105020Y649732D01*
X1099940Y652272D01*
X1094860Y649732D01*
X1096892Y651764D02*
X1098416Y654812D01*
X1096892Y657860D01*
X1099940Y656336D01*
X1102988Y657860D01*
X1101464Y654812D01*
X1102988Y651764D01*
X1099940Y653288D01*
X1096892Y651764D01*
X851662Y758698D02*
X854202Y761238D01*
X856742D01*
X854202Y763778D01*
X856742Y766318D01*
X854202D01*
X851662Y768858D01*
X849122Y766318D01*
X846582D01*
X849122Y763778D01*
X846582Y761238D01*
X849122D01*
X851662Y758698D01*
Y760730D02*
X853186Y762254D01*
X854710D01*
X853186Y763778D01*
X854710Y765302D01*
X853186D01*
X851662Y766826D01*
X850138Y765302D01*
X848614D01*
X850138Y763778D01*
X848614Y762254D01*
X850138D01*
X851662Y760730D01*
X844804Y767842D02*
X847344Y770382D01*
X849884D01*
X847344Y772922D01*
X849884Y775462D01*
X847344D01*
X844804Y778002D01*
X842264Y775462D01*
X839724D01*
X842264Y772922D01*
X839724Y770382D01*
X842264D01*
X844804Y767842D01*
Y769874D02*
X846328Y771398D01*
X847852D01*
X846328Y772922D01*
X847852Y774446D01*
X846328D01*
X844804Y775970D01*
X843280Y774446D01*
X841756D01*
X843280Y772922D01*
X841756Y771398D01*
X843280D01*
X844804Y769874D01*
X1067562Y800100D02*
X1070102Y802640D01*
X1072642D01*
X1070102Y805180D01*
X1072642Y807720D01*
X1070102D01*
X1067562Y810260D01*
X1065022Y807720D01*
X1062482D01*
X1065022Y805180D01*
X1062482Y802640D01*
X1065022D01*
X1067562Y800100D01*
Y802132D02*
X1069086Y803656D01*
X1070610D01*
X1069086Y805180D01*
X1070610Y806704D01*
X1069086D01*
X1067562Y808228D01*
X1066038Y806704D01*
X1064514D01*
X1066038Y805180D01*
X1064514Y803656D01*
X1066038D01*
X1067562Y802132D01*
X1068942Y748686D02*
X1071482Y751226D01*
X1074022D01*
X1071482Y753765D01*
X1074022Y756305D01*
X1071482D01*
X1068942Y758846D01*
X1066402Y756305D01*
X1063862D01*
X1066402Y753765D01*
X1063862Y751226D01*
X1066402D01*
X1068942Y748686D01*
Y750717D02*
X1070466Y752242D01*
X1071990D01*
X1070466Y753765D01*
X1071990Y755290D01*
X1070466D01*
X1068942Y756814D01*
X1067418Y755290D01*
X1065894D01*
X1067418Y753765D01*
X1065894Y752242D01*
X1067418D01*
X1068942Y750717D01*
D146*
X300680Y212320D02*
G03*
X300680Y212320I-5080J0D01*
G01*
X420680D02*
G03*
X420680Y212320I-5080J0D01*
G01*
Y334320D02*
G03*
X420680Y334320I-5080J0D01*
G01*
X360680Y354320D02*
G03*
X360680Y354320I-5080J0D01*
G01*
X300680Y334320D02*
G03*
X300680Y334320I-5080J0D01*
G01*
X107640D02*
G03*
X107640Y334320I-5080J0D01*
G01*
X167640Y354320D02*
G03*
X167640Y354320I-5080J0D01*
G01*
X227640Y334320D02*
G03*
X227640Y334320I-5080J0D01*
G01*
Y212320D02*
G03*
X227640Y212320I-5080J0D01*
G01*
X107640D02*
G03*
X107640Y212320I-5080J0D01*
G01*
X1230630Y36830D02*
G03*
X1230630Y36830I-5080J0D01*
G01*
X1249680Y81280D02*
G03*
X1249680Y81280I-5080J0D01*
G01*
X1230630Y73660D02*
G03*
X1230630Y73660I-5080J0D01*
G01*
X1270000Y36830D02*
G03*
X1270000Y36830I-5080J0D01*
G01*
X1223010Y54610D02*
G03*
X1223010Y54610I-5080J0D01*
G01*
X1276350D02*
G03*
X1276350Y54610I-5080J0D01*
G01*
X1270000Y73660D02*
G03*
X1270000Y73660I-5080J0D01*
G01*
X1249680Y27940D02*
G03*
X1249680Y27940I-5080J0D01*
G01*
D147*
X298648Y212320D02*
G03*
X298648Y212320I-3048J0D01*
G01*
X418648D02*
G03*
X418648Y212320I-3048J0D01*
G01*
Y334320D02*
G03*
X418648Y334320I-3048J0D01*
G01*
X358648Y354320D02*
G03*
X358648Y354320I-3048J0D01*
G01*
X298648Y334320D02*
G03*
X298648Y334320I-3048J0D01*
G01*
X105608D02*
G03*
X105608Y334320I-3048J0D01*
G01*
X165608Y354320D02*
G03*
X165608Y354320I-3048J0D01*
G01*
X225608Y334320D02*
G03*
X225608Y334320I-3048J0D01*
G01*
Y212320D02*
G03*
X225608Y212320I-3048J0D01*
G01*
X105608D02*
G03*
X105608Y212320I-3048J0D01*
G01*
M02*
