G04*
G04 #@! TF.GenerationSoftware,Altium Limited,Altium Designer,25.4.2 (15)*
G04*
G04 Layer_Physical_Order=1*
G04 Layer_Color=255*
%FSLAX44Y44*%
%MOMM*%
G71*
G04*
G04 #@! TF.SameCoordinates,3ABA6FF2-A11C-483D-8B0F-7D0CBFE01766*
G04*
G04*
G04 #@! TF.FilePolarity,Positive*
G04*
G01*
G75*
%ADD13C,0.2540*%
%ADD14C,0.4000*%
%ADD17C,0.5400*%
%ADD18R,1.1500X1.1500*%
%ADD19R,0.2800X1.5600*%
%ADD20R,1.5600X0.2800*%
%ADD21R,1.1500X1.4500*%
%ADD22R,1.5000X2.1200*%
%ADD23R,1.4500X1.1500*%
%ADD24R,3.0200X1.3400*%
%ADD25R,1.1600X1.8200*%
G04:AMPARAMS|DCode=26|XSize=1.12mm|YSize=0.6mm|CornerRadius=0.075mm|HoleSize=0mm|Usage=FLASHONLY|Rotation=90.000|XOffset=0mm|YOffset=0mm|HoleType=Round|Shape=RoundedRectangle|*
%AMROUNDEDRECTD26*
21,1,1.1200,0.4500,0,0,90.0*
21,1,0.9700,0.6000,0,0,90.0*
1,1,0.1500,0.2250,0.4850*
1,1,0.1500,0.2250,-0.4850*
1,1,0.1500,-0.2250,-0.4850*
1,1,0.1500,-0.2250,0.4850*
%
%ADD26ROUNDEDRECTD26*%
G04:AMPARAMS|DCode=27|XSize=0.86mm|YSize=1.36mm|CornerRadius=0.215mm|HoleSize=0mm|Usage=FLASHONLY|Rotation=0.000|XOffset=0mm|YOffset=0mm|HoleType=Round|Shape=RoundedRectangle|*
%AMROUNDEDRECTD27*
21,1,0.8600,0.9300,0,0,0.0*
21,1,0.4300,1.3600,0,0,0.0*
1,1,0.4300,0.2150,-0.4650*
1,1,0.4300,-0.2150,-0.4650*
1,1,0.4300,-0.2150,0.4650*
1,1,0.4300,0.2150,0.4650*
%
%ADD27ROUNDEDRECTD27*%
%ADD28R,2.1200X1.5000*%
G04:AMPARAMS|DCode=29|XSize=0.86mm|YSize=1.36mm|CornerRadius=0.215mm|HoleSize=0mm|Usage=FLASHONLY|Rotation=270.000|XOffset=0mm|YOffset=0mm|HoleType=Round|Shape=RoundedRectangle|*
%AMROUNDEDRECTD29*
21,1,0.8600,0.9300,0,0,270.0*
21,1,0.4300,1.3600,0,0,270.0*
1,1,0.4300,-0.4650,-0.2150*
1,1,0.4300,-0.4650,0.2150*
1,1,0.4300,0.4650,0.2150*
1,1,0.4300,0.4650,-0.2150*
%
%ADD29ROUNDEDRECTD29*%
%ADD30R,1.7300X1.1100*%
%ADD31R,1.5000X3.2000*%
%ADD32R,1.2000X1.4700*%
G04:AMPARAMS|DCode=33|XSize=1.32mm|YSize=0.59mm|CornerRadius=0.0738mm|HoleSize=0mm|Usage=FLASHONLY|Rotation=180.000|XOffset=0mm|YOffset=0mm|HoleType=Round|Shape=RoundedRectangle|*
%AMROUNDEDRECTD33*
21,1,1.3200,0.4425,0,0,180.0*
21,1,1.1725,0.5900,0,0,180.0*
1,1,0.1475,-0.5863,0.2213*
1,1,0.1475,0.5863,0.2213*
1,1,0.1475,0.5863,-0.2213*
1,1,0.1475,-0.5863,-0.2213*
%
%ADD33ROUNDEDRECTD33*%
%ADD34R,1.1500X1.1500*%
%ADD35R,1.1000X1.0000*%
G04:AMPARAMS|DCode=36|XSize=1.41mm|YSize=1.47mm|CornerRadius=0.1763mm|HoleSize=0mm|Usage=FLASHONLY|Rotation=180.000|XOffset=0mm|YOffset=0mm|HoleType=Round|Shape=RoundedRectangle|*
%AMROUNDEDRECTD36*
21,1,1.4100,1.1175,0,0,180.0*
21,1,1.0575,1.4700,0,0,180.0*
1,1,0.3525,-0.5288,0.5587*
1,1,0.3525,0.5288,0.5587*
1,1,0.3525,0.5288,-0.5587*
1,1,0.3525,-0.5288,-0.5587*
%
%ADD36ROUNDEDRECTD36*%
%ADD37R,1.5000X0.3000*%
%ADD38R,0.3000X1.5000*%
%ADD39R,1.7018X0.5334*%
%ADD40R,1.9812X0.5334*%
G04:AMPARAMS|DCode=41|XSize=1.84mm|YSize=3.19mm|CornerRadius=0.23mm|HoleSize=0mm|Usage=FLASHONLY|Rotation=0.000|XOffset=0mm|YOffset=0mm|HoleType=Round|Shape=RoundedRectangle|*
%AMROUNDEDRECTD41*
21,1,1.8400,2.7300,0,0,0.0*
21,1,1.3800,3.1900,0,0,0.0*
1,1,0.4600,0.6900,-1.3650*
1,1,0.4600,-0.6900,-1.3650*
1,1,0.4600,-0.6900,1.3650*
1,1,0.4600,0.6900,1.3650*
%
%ADD41ROUNDEDRECTD41*%
G04:AMPARAMS|DCode=42|XSize=1.84mm|YSize=0.93mm|CornerRadius=0.1163mm|HoleSize=0mm|Usage=FLASHONLY|Rotation=0.000|XOffset=0mm|YOffset=0mm|HoleType=Round|Shape=RoundedRectangle|*
%AMROUNDEDRECTD42*
21,1,1.8400,0.6975,0,0,0.0*
21,1,1.6075,0.9300,0,0,0.0*
1,1,0.2325,0.8038,-0.3488*
1,1,0.2325,-0.8038,-0.3488*
1,1,0.2325,-0.8038,0.3488*
1,1,0.2325,0.8038,0.3488*
%
%ADD42ROUNDEDRECTD42*%
%ADD43R,2.0000X5.5000*%
%ADD44R,7.5000X2.2000*%
%ADD45R,1.9812X0.5588*%
G04:AMPARAMS|DCode=46|XSize=1.45mm|YSize=0.59mm|CornerRadius=0.0738mm|HoleSize=0mm|Usage=FLASHONLY|Rotation=270.000|XOffset=0mm|YOffset=0mm|HoleType=Round|Shape=RoundedRectangle|*
%AMROUNDEDRECTD46*
21,1,1.4500,0.4425,0,0,270.0*
21,1,1.3025,0.5900,0,0,270.0*
1,1,0.1475,-0.2213,-0.6513*
1,1,0.1475,-0.2213,0.6513*
1,1,0.1475,0.2213,0.6513*
1,1,0.1475,0.2213,-0.6513*
%
%ADD46ROUNDEDRECTD46*%
%ADD47R,1.9000X1.3000*%
%ADD104C,0.1540*%
%ADD105C,0.2400*%
%ADD106C,0.1969*%
%ADD107C,2.2500*%
%ADD108C,0.3400*%
%ADD109C,0.2500*%
%ADD110C,0.3500*%
%ADD111C,0.3540*%
%ADD112C,0.1970*%
%ADD113C,0.8000*%
%ADD114C,0.6000*%
%ADD115C,1.0000*%
%ADD116R,3.0000X3.0000*%
%ADD117C,3.0000*%
%ADD118C,2.2500*%
%ADD119C,1.7550*%
%ADD120C,1.6500*%
%ADD121R,1.6500X1.6500*%
%ADD122C,1.8000*%
%ADD123R,1.8000X1.8000*%
%ADD124R,1.6500X1.6500*%
%ADD125C,1.4000*%
%ADD126R,1.4000X1.4000*%
%ADD127C,3.7500*%
%ADD128R,3.0000X3.0000*%
%ADD129C,1.7000*%
%ADD130R,1.7000X1.7000*%
%ADD131R,1.6080X1.6080*%
%ADD132C,1.6080*%
%ADD133C,3.2500*%
%ADD134C,1.8080*%
%ADD135C,2.5000*%
%ADD136C,0.5000*%
%ADD137C,7.0000*%
%ADD138C,0.6500*%
%ADD139C,0.8500*%
%ADD140C,0.4000*%
%ADD141C,0.7500*%
G36*
X1264523Y1012897D02*
X1269092Y1011800D01*
X1273432Y1010002D01*
X1273499Y1009961D01*
X1286475Y996985D01*
X1286516Y996918D01*
X1288314Y992578D01*
X1289410Y988010D01*
X1289760Y983571D01*
X1289711Y983326D01*
Y689001D01*
X1245572Y644862D01*
X1244149Y645451D01*
Y708121D01*
X1246630Y709554D01*
X1248786Y711710D01*
X1250311Y714350D01*
X1251100Y717296D01*
Y720345D01*
X1250311Y723290D01*
X1248786Y725930D01*
X1246630Y728086D01*
X1243990Y729611D01*
X1241045Y730400D01*
X1237996D01*
X1235050Y729611D01*
X1232410Y728086D01*
X1230809Y726485D01*
X1229154Y726994D01*
X1229042Y727628D01*
X1234919Y733505D01*
X1235050Y733429D01*
X1237996Y732640D01*
X1241045D01*
X1243990Y733429D01*
X1246630Y734954D01*
X1248786Y737110D01*
X1250311Y739750D01*
X1251100Y742695D01*
Y745745D01*
X1250311Y748690D01*
X1248786Y751330D01*
X1246630Y753486D01*
X1243990Y755011D01*
X1241045Y755800D01*
X1237996D01*
X1235050Y755011D01*
X1232410Y753486D01*
X1230254Y751330D01*
X1228729Y748690D01*
X1227940Y745745D01*
Y742695D01*
X1228729Y739750D01*
X1228805Y739619D01*
X1225376Y736190D01*
X1223953Y736779D01*
Y804339D01*
X1234919Y815305D01*
X1235050Y815229D01*
X1237996Y814440D01*
X1241045D01*
X1243990Y815229D01*
X1246630Y816754D01*
X1248786Y818910D01*
X1250311Y821550D01*
X1251100Y824495D01*
Y827545D01*
X1250311Y830490D01*
X1248786Y833130D01*
X1246630Y835286D01*
X1243990Y836811D01*
X1241045Y837600D01*
X1237996D01*
X1235050Y836811D01*
X1232410Y835286D01*
X1230254Y833130D01*
X1228729Y830490D01*
X1227940Y827545D01*
Y824495D01*
X1228729Y821550D01*
X1228805Y821419D01*
X1216573Y809187D01*
X1215636Y807784D01*
X1215307Y806130D01*
Y739919D01*
X1213833Y739472D01*
X1213515Y739948D01*
X1210898Y742565D01*
X1207820Y744622D01*
X1204401Y746038D01*
X1200771Y746760D01*
X1197069D01*
X1193439Y746038D01*
X1190020Y744622D01*
X1186942Y742565D01*
X1184325Y739948D01*
X1182269Y736870D01*
X1180852Y733451D01*
X1180130Y729821D01*
Y726119D01*
X1180852Y722489D01*
X1181537Y720837D01*
X1180231Y719964D01*
X1179601Y720594D01*
X1176728Y722514D01*
X1173536Y723836D01*
X1170148Y724510D01*
X1166693D01*
X1163304Y723836D01*
X1160112Y722514D01*
X1157239Y720594D01*
X1154796Y718151D01*
X1152876Y715278D01*
X1151554Y712086D01*
X1150880Y708698D01*
Y705242D01*
X1151554Y701854D01*
X1152876Y698662D01*
X1154796Y695789D01*
X1157239Y693346D01*
X1160112Y691426D01*
X1163304Y690104D01*
X1166693Y689430D01*
X1170148D01*
X1173536Y690104D01*
X1176728Y691426D01*
X1179601Y693346D01*
X1182044Y695789D01*
X1183964Y698662D01*
X1185286Y701854D01*
X1185960Y705242D01*
Y708698D01*
X1185286Y712086D01*
X1184744Y713395D01*
X1186049Y714268D01*
X1186942Y713375D01*
X1190020Y711319D01*
X1193439Y709902D01*
X1197069Y709180D01*
X1200771D01*
X1204401Y709902D01*
X1207820Y711319D01*
X1210898Y713375D01*
X1213515Y715992D01*
X1213833Y716468D01*
X1215307Y716021D01*
Y685481D01*
X1209789Y679963D01*
X1145260D01*
Y683930D01*
X1128680D01*
Y667350D01*
X1143248D01*
X1143886Y665810D01*
X1139146Y661070D01*
X1128680D01*
Y644490D01*
X1145260D01*
Y654956D01*
X1156541Y666237D01*
X1213076D01*
X1214731Y666566D01*
X1216133Y667503D01*
X1227337Y678707D01*
X1228274Y680110D01*
X1228603Y681764D01*
Y711489D01*
X1230143Y711901D01*
X1230254Y711710D01*
X1232410Y709554D01*
X1234891Y708121D01*
Y634181D01*
X1216117Y615407D01*
X970402Y616159D01*
Y620252D01*
X962389D01*
X962139Y621510D01*
X961135Y623012D01*
X961135Y623012D01*
X959715Y624432D01*
X960353Y625972D01*
X970552D01*
Y633062D01*
X962262D01*
Y635762D01*
X959562D01*
Y645552D01*
X953972D01*
X953972Y645552D01*
X952552D01*
Y645552D01*
X952432Y645552D01*
X948891D01*
Y648832D01*
X952432D01*
X952552Y648832D01*
X953972D01*
X954092Y648832D01*
X959562D01*
Y658622D01*
Y668412D01*
X954092D01*
X953972Y668412D01*
X952552D01*
X952432Y668412D01*
X948891D01*
Y674232D01*
X952432D01*
X952552Y674232D01*
X953972D01*
X954092Y674232D01*
X959562D01*
Y684022D01*
Y693812D01*
X954092D01*
X953972Y693812D01*
X952552D01*
X952432Y693812D01*
X948891D01*
Y697092D01*
X952432D01*
X952552Y697092D01*
X953972D01*
X954092Y697092D01*
X959562D01*
Y706882D01*
Y716672D01*
X954092D01*
X953972Y716672D01*
X952552D01*
X952432Y716672D01*
X945535D01*
Y746465D01*
X947075Y747103D01*
X950467Y743711D01*
X951633Y742932D01*
X953008Y742658D01*
X959638D01*
Y737962D01*
X976218D01*
Y754542D01*
X959638D01*
Y749846D01*
X954497D01*
X952284Y752059D01*
Y765810D01*
X952010Y767185D01*
X951231Y768351D01*
X943839Y775743D01*
X942673Y776522D01*
X941298Y776796D01*
X924122D01*
Y789608D01*
X926046D01*
Y784744D01*
X926320Y783369D01*
X927099Y782203D01*
X928253Y781049D01*
X929419Y780270D01*
X930794Y779996D01*
X936106D01*
X937481Y780270D01*
X938647Y781049D01*
X939801Y782203D01*
X940214Y782821D01*
X940224Y782825D01*
X941916D01*
X941926Y782821D01*
X942339Y782203D01*
X943493Y781049D01*
X944659Y780270D01*
X946034Y779996D01*
X951346D01*
X952721Y780270D01*
X953887Y781049D01*
X955041Y782203D01*
X955820Y783369D01*
X956094Y784744D01*
Y790156D01*
X959638D01*
Y779872D01*
X970221D01*
X970987Y778332D01*
X970476Y777656D01*
X959638D01*
Y761076D01*
X976218D01*
Y772574D01*
X978458Y774814D01*
X979237Y775979D01*
X979510Y777355D01*
Y794839D01*
X979237Y796215D01*
X978458Y797380D01*
X977053Y798785D01*
X976218Y799938D01*
X976218D01*
X976218Y799938D01*
Y811024D01*
X981598Y816404D01*
X983138Y815766D01*
Y799938D01*
X999718D01*
Y816518D01*
X995022D01*
Y820258D01*
X999718D01*
Y831756D01*
X1005679Y837717D01*
X1065555D01*
X1065555Y837717D01*
X1122191D01*
X1124840Y835068D01*
Y820204D01*
X1120080D01*
X1119879Y820954D01*
X1118486Y823366D01*
X1116516Y825336D01*
X1114104Y826729D01*
X1111413Y827450D01*
X1108627D01*
X1105936Y826729D01*
X1103524Y825336D01*
X1101554Y823366D01*
X1100161Y820954D01*
X1099440Y818263D01*
Y815477D01*
X1100161Y812786D01*
X1101554Y810374D01*
X1102624Y809304D01*
X1101986Y807764D01*
X1088132D01*
X1088132Y807764D01*
X1086757Y807490D01*
X1085591Y806711D01*
X1085591Y806711D01*
X1081150Y802270D01*
X1072938D01*
X1071909Y803810D01*
X1072102Y804277D01*
Y806083D01*
X1071411Y807752D01*
X1070134Y809029D01*
X1068465Y809720D01*
X1066659D01*
X1064990Y809029D01*
X1064735Y808774D01*
X1028822D01*
X1027447Y808500D01*
X1026281Y807721D01*
X1019330Y800770D01*
X1007832D01*
Y784190D01*
X1006380Y783977D01*
X999718D01*
Y796452D01*
X983138D01*
Y779872D01*
X992507D01*
X993168Y778764D01*
X992507Y777656D01*
X983138D01*
Y761076D01*
X999718D01*
Y773551D01*
X1005641D01*
X1006882Y772830D01*
Y756250D01*
X1011579D01*
Y748930D01*
X1007092D01*
Y729350D01*
X1023552D01*
X1023672Y729350D01*
Y729350D01*
X1025092D01*
Y729350D01*
X1030682D01*
Y739140D01*
X1033382D01*
Y741840D01*
X1041672D01*
Y748930D01*
X1042392Y750172D01*
X1066115D01*
X1066370Y749917D01*
X1068039Y749225D01*
X1069845D01*
X1071514Y749917D01*
X1071769Y750172D01*
X1102382D01*
X1103020Y748632D01*
X1101554Y747166D01*
X1100161Y744754D01*
X1099440Y742063D01*
Y739277D01*
X1100161Y736586D01*
X1101554Y734174D01*
X1103524Y732204D01*
X1105936Y730811D01*
X1108627Y730090D01*
X1111413D01*
X1114104Y730811D01*
X1116516Y732204D01*
X1118486Y734174D01*
X1119879Y736586D01*
X1120600Y739277D01*
Y742063D01*
X1119879Y744754D01*
X1118486Y747166D01*
X1116516Y749136D01*
X1116378Y749216D01*
X1116318Y751029D01*
X1116611Y751225D01*
X1125070Y759683D01*
X1126302Y758737D01*
X1125561Y757454D01*
X1124840Y754763D01*
Y751977D01*
X1125561Y749286D01*
X1126954Y746874D01*
X1128924Y744904D01*
X1131336Y743511D01*
X1134027Y742790D01*
X1136813D01*
X1139504Y743511D01*
X1141916Y744904D01*
X1143886Y746874D01*
X1145279Y749286D01*
X1146000Y751977D01*
Y754763D01*
X1145279Y757454D01*
X1143886Y759866D01*
X1141916Y761836D01*
X1139504Y763229D01*
X1136813Y763950D01*
X1134027D01*
X1131336Y763229D01*
X1130053Y762488D01*
X1129107Y763720D01*
X1133672Y768285D01*
X1134027Y768190D01*
X1136813D01*
X1139504Y768911D01*
X1141916Y770304D01*
X1143886Y772274D01*
X1145279Y774686D01*
X1146000Y777377D01*
Y780163D01*
X1145279Y782854D01*
X1143886Y785266D01*
X1142947Y786206D01*
X1143454Y787877D01*
X1143477Y787881D01*
X1144737Y788723D01*
X1160987Y804973D01*
X1161829Y806234D01*
X1162125Y807720D01*
Y839470D01*
X1161829Y840957D01*
X1160987Y842217D01*
X1127725Y875479D01*
Y884290D01*
X1132010D01*
X1132130Y884290D01*
X1133550D01*
X1133670Y884290D01*
X1139140D01*
Y894080D01*
Y903870D01*
X1133670D01*
X1133550Y903870D01*
X1132130D01*
X1132010Y903870D01*
X1127725D01*
Y908160D01*
X1127429Y909647D01*
X1127311Y909824D01*
X1128250Y911190D01*
X1128990Y911190D01*
X1144310D01*
Y914137D01*
X1224607D01*
X1234177Y904567D01*
Y861707D01*
X1232410Y860686D01*
X1230254Y858530D01*
X1228729Y855890D01*
X1227940Y852945D01*
Y849895D01*
X1228729Y846950D01*
X1230254Y844310D01*
X1232410Y842154D01*
X1235050Y840629D01*
X1237996Y839840D01*
X1241045D01*
X1243990Y840629D01*
X1246630Y842154D01*
X1248786Y844310D01*
X1250311Y846950D01*
X1251100Y849895D01*
Y852945D01*
X1250311Y855890D01*
X1248786Y858530D01*
X1246630Y860686D01*
X1244863Y861707D01*
Y906780D01*
X1244863Y906780D01*
X1244456Y908825D01*
X1243298Y910558D01*
X1243298Y910558D01*
X1230598Y923258D01*
X1228865Y924416D01*
X1226820Y924823D01*
X1226820Y924823D01*
X1144310D01*
Y927770D01*
X1127730D01*
Y912549D01*
X1127730Y911865D01*
X1126190Y911304D01*
X1120810Y916684D01*
Y927770D01*
X1104230D01*
Y911190D01*
X1115316D01*
X1119955Y906551D01*
Y903870D01*
X1115550D01*
Y884290D01*
X1119955D01*
Y873870D01*
X1120251Y872383D01*
X1121093Y871123D01*
X1142650Y849566D01*
X1142061Y848144D01*
X1125021D01*
X1125021Y848144D01*
X1064213D01*
X1064213Y848144D01*
X1004855D01*
X999718Y853280D01*
Y864778D01*
X995022D01*
Y868518D01*
X999718D01*
Y885098D01*
X983138D01*
Y869270D01*
X981598Y868632D01*
X976218Y874012D01*
Y885098D01*
X959638D01*
Y868518D01*
X970724D01*
X973042Y866201D01*
X972452Y864778D01*
X959638D01*
Y860590D01*
X955228D01*
X953853Y860316D01*
X952687Y859537D01*
X918056Y824906D01*
X917278Y823741D01*
X917004Y822365D01*
Y822142D01*
X904954D01*
X903442Y822162D01*
X903422Y823674D01*
Y829802D01*
X902182D01*
Y822159D01*
X903422Y822142D01*
X903442Y820630D01*
Y814262D01*
Y807015D01*
X902262D01*
X900803Y806725D01*
X899566Y805898D01*
X896464Y802796D01*
X895637Y801559D01*
X895347Y800100D01*
Y780274D01*
Y772296D01*
X895637Y770837D01*
X896464Y769600D01*
X900558Y765506D01*
X901795Y764679D01*
X903254Y764389D01*
X903442D01*
Y760774D01*
X903422Y759262D01*
X901910Y759242D01*
X895541D01*
Y748902D01*
Y738562D01*
X903422D01*
Y757730D01*
X903442Y759242D01*
X904954Y759262D01*
X924122D01*
Y764389D01*
X934559D01*
X937909Y761039D01*
Y716672D01*
X935972D01*
Y714051D01*
X930032D01*
Y717932D01*
X910452D01*
Y714051D01*
X907172D01*
Y717712D01*
X887592D01*
Y714051D01*
X884312D01*
Y717712D01*
X883295D01*
Y727401D01*
X891978Y736084D01*
X892805Y737321D01*
X893052Y738562D01*
X893422D01*
Y748734D01*
X893456Y748902D01*
X893496Y749102D01*
X893422Y749470D01*
Y759242D01*
X883295D01*
Y761358D01*
X883005Y762817D01*
X882178Y764054D01*
X877726Y768506D01*
X876489Y769333D01*
X875030Y769623D01*
X864870D01*
X863411Y769333D01*
X862174Y768506D01*
X858242Y764575D01*
X857636Y764656D01*
X856575Y765086D01*
X855935Y766633D01*
X855416Y767151D01*
X868680Y780415D01*
Y822162D01*
X898422D01*
Y832502D01*
Y842842D01*
X888367D01*
Y862553D01*
X898991Y873177D01*
X933958D01*
X935445Y873473D01*
X936705Y874315D01*
X958549Y896159D01*
X959391Y897420D01*
X959687Y898906D01*
Y921792D01*
X966124D01*
Y938372D01*
X949544D01*
Y921792D01*
X951917D01*
Y900515D01*
X932349Y880947D01*
X930871D01*
X930281Y882370D01*
X940769Y892857D01*
X941611Y894118D01*
X941907Y895604D01*
Y921792D01*
X945804D01*
Y938372D01*
X929224D01*
Y921792D01*
X934137D01*
Y897213D01*
X922951Y886027D01*
X918932D01*
X918343Y887449D01*
X920449Y889555D01*
X921291Y890816D01*
X921587Y892302D01*
Y921792D01*
X925484D01*
Y938372D01*
X908904D01*
Y921792D01*
X913817D01*
Y893911D01*
X911013Y891107D01*
X893647D01*
Y921792D01*
X897544D01*
Y938372D01*
X880964D01*
Y921792D01*
X885877D01*
Y892641D01*
X877290Y884053D01*
X875867Y884643D01*
Y921792D01*
X877224D01*
Y938372D01*
X860644D01*
Y921792D01*
X868097D01*
Y883166D01*
X862115Y877183D01*
X848943Y890355D01*
Y921792D01*
X856904D01*
Y938372D01*
X840324D01*
Y921792D01*
X841173D01*
Y894295D01*
X839751Y893705D01*
X829385Y904071D01*
Y921792D01*
X836584D01*
Y938372D01*
X820004D01*
Y921792D01*
X821615D01*
Y907337D01*
X820193Y906748D01*
X808303Y918638D01*
Y921792D01*
X816264D01*
Y938372D01*
X801370D01*
Y945292D01*
X805274D01*
Y953582D01*
Y961872D01*
X801370D01*
Y979805D01*
X834762Y1013197D01*
X1259840Y1013197D01*
X1260085Y1013246D01*
X1264523Y1012897D01*
D02*
G37*
G36*
X637540Y930694D02*
X486697D01*
X486442Y930949D01*
X484773Y931640D01*
X482967D01*
X481298Y930949D01*
X480021Y929672D01*
X479330Y928003D01*
Y926197D01*
X480021Y924528D01*
X481298Y923251D01*
X482446Y922776D01*
X482985Y921137D01*
X479258Y917411D01*
X478479Y916245D01*
X478206Y914870D01*
Y900900D01*
X478479Y899524D01*
X479258Y898359D01*
X484556Y893061D01*
Y889688D01*
X479258Y884390D01*
X478479Y883225D01*
X478206Y881850D01*
Y878039D01*
X478479Y876664D01*
X479258Y875499D01*
X484056Y870701D01*
Y868868D01*
X479258Y864071D01*
X478479Y862905D01*
X478206Y861529D01*
Y855180D01*
X478479Y853804D01*
X479258Y852638D01*
X483618Y848279D01*
Y807404D01*
X480806D01*
Y815648D01*
X480806Y815648D01*
X480532Y817023D01*
X479753Y818189D01*
X463334Y834609D01*
Y934501D01*
X467579Y938746D01*
X485140D01*
X486515Y939020D01*
X487681Y939799D01*
X491491Y943609D01*
X492270Y944775D01*
X492544Y946150D01*
Y952780D01*
X497240D01*
Y969360D01*
X480660D01*
Y952780D01*
X485356D01*
Y947639D01*
X483652Y945934D01*
X466090D01*
X464715Y945660D01*
X463549Y944881D01*
X463549Y944881D01*
X457199Y938531D01*
X457043Y938298D01*
X455191Y938298D01*
X454959Y938645D01*
X448517Y945087D01*
X447257Y945929D01*
X445770Y946225D01*
X413089D01*
X409015Y950299D01*
Y963701D01*
X409391Y963802D01*
X411909Y965256D01*
X413964Y967311D01*
X415418Y969829D01*
X416170Y972637D01*
Y975544D01*
X415418Y978351D01*
X413964Y980869D01*
X411909Y982924D01*
X409391Y984378D01*
X406584Y985130D01*
X403677D01*
X400869Y984378D01*
X398351Y982924D01*
X396296Y980869D01*
X394842Y978351D01*
X394090Y975544D01*
Y972637D01*
X394842Y969829D01*
X396296Y967311D01*
X398351Y965256D01*
X400869Y963802D01*
X401245Y963701D01*
Y948690D01*
X401541Y947204D01*
X402383Y945943D01*
X407029Y941298D01*
X406440Y939875D01*
X388959D01*
X383615Y945219D01*
Y963701D01*
X383991Y963802D01*
X386509Y965256D01*
X388564Y967311D01*
X390018Y969829D01*
X390770Y972637D01*
Y975544D01*
X390018Y978351D01*
X388564Y980869D01*
X386509Y982924D01*
X383991Y984378D01*
X381184Y985130D01*
X378277D01*
X375469Y984378D01*
X372951Y982924D01*
X370896Y980869D01*
X369442Y978351D01*
X368690Y975544D01*
Y972637D01*
X369442Y969829D01*
X370896Y967311D01*
X372951Y965256D01*
X375469Y963802D01*
X375845Y963701D01*
Y943610D01*
X376141Y942123D01*
X376983Y940863D01*
X384603Y933243D01*
X385863Y932401D01*
X387350Y932105D01*
X440351D01*
X441885Y930571D01*
Y782204D01*
X431343D01*
Y792502D01*
X431086Y793793D01*
X430355Y794888D01*
X427037Y798206D01*
X425942Y798937D01*
X424651Y799194D01*
X417536D01*
X416592Y800139D01*
X414923Y800830D01*
X413117D01*
X412650Y800637D01*
X411110Y801666D01*
X411110Y801930D01*
Y803350D01*
X411110Y803470D01*
Y808940D01*
X401320D01*
X391530D01*
Y803470D01*
X391530Y803350D01*
Y801930D01*
X391530Y801810D01*
Y796553D01*
X385710D01*
Y801810D01*
X385710Y801930D01*
Y803350D01*
X385710Y803470D01*
Y808940D01*
X375920D01*
X366130D01*
Y803470D01*
X366130Y803350D01*
Y801930D01*
X366130Y801810D01*
Y796553D01*
X356460D01*
X349513Y803500D01*
Y983307D01*
X360353Y994147D01*
X420219D01*
X426645Y987721D01*
Y984479D01*
X426269Y984378D01*
X423751Y982924D01*
X421696Y980869D01*
X420242Y978351D01*
X419490Y975544D01*
Y972637D01*
X420242Y969829D01*
X421696Y967311D01*
X423751Y965256D01*
X426269Y963802D01*
X429077Y963050D01*
X431983D01*
X434791Y963802D01*
X437309Y965256D01*
X439364Y967311D01*
X440818Y969829D01*
X441570Y972637D01*
Y975544D01*
X440818Y978351D01*
X439364Y980869D01*
X437309Y982924D01*
X434791Y984378D01*
X434415Y984479D01*
Y989330D01*
X434119Y990817D01*
X433277Y992077D01*
X432629Y992725D01*
X433219Y994147D01*
X480050D01*
X480660Y992860D01*
X480660Y992607D01*
Y976280D01*
X497240D01*
Y981516D01*
X503935D01*
X504012Y981130D01*
X505049Y979579D01*
X506600Y978542D01*
X508430Y978178D01*
X517730D01*
X519560Y978542D01*
X521111Y979579D01*
X522148Y981130D01*
X522512Y982960D01*
Y987260D01*
X522148Y989090D01*
X521111Y990641D01*
X519560Y991678D01*
X517730Y992042D01*
X508430D01*
X506600Y991678D01*
X505049Y990641D01*
X504012Y989090D01*
X503935Y988704D01*
X497240D01*
Y992607D01*
X497240Y992860D01*
X497850Y994147D01*
X637540D01*
Y930694D01*
D02*
G37*
G36*
Y1013197D02*
Y1004833D01*
X358140D01*
X356096Y1004426D01*
X354362Y1003268D01*
X354362Y1003268D01*
X340392Y989298D01*
X339234Y987565D01*
X338827Y985520D01*
X338827Y985520D01*
Y803500D01*
X331880Y796553D01*
X306041D01*
X305403Y798093D01*
X306109Y798798D01*
X306800Y800467D01*
Y802273D01*
X306109Y803942D01*
X304832Y805219D01*
X303163Y805910D01*
X301357D01*
X300857Y805703D01*
X300214Y805966D01*
X299771Y807642D01*
X299804Y807798D01*
X300450Y809357D01*
Y811163D01*
X299759Y812832D01*
X298482Y814109D01*
X296813Y814800D01*
X295007D01*
X293425Y814145D01*
X286420D01*
Y822680D01*
X275334D01*
X268497Y829517D01*
X267237Y830359D01*
X265750Y830655D01*
X214122D01*
Y832104D01*
X189230D01*
Y821436D01*
X208057D01*
X208851Y819896D01*
X208554Y819479D01*
X203200D01*
X202825Y819404D01*
X189230D01*
Y808736D01*
X214122D01*
Y813148D01*
X218779Y817805D01*
X219937D01*
X221350Y817500D01*
X221350Y816265D01*
Y811910D01*
X231140D01*
X240930D01*
Y817500D01*
X242344Y817805D01*
X245091D01*
X245710Y817186D01*
Y806100D01*
X256796D01*
X262176Y800720D01*
X261538Y799180D01*
X245710D01*
Y792555D01*
X240930D01*
Y799380D01*
X240930Y799500D01*
Y800920D01*
X240930Y801040D01*
Y806510D01*
X231140D01*
X221350D01*
Y801040D01*
X221350Y800920D01*
Y799500D01*
X221350Y799380D01*
Y792555D01*
X214122D01*
Y794004D01*
X189230D01*
Y783336D01*
X214122D01*
Y784785D01*
X221350D01*
Y782920D01*
X240930D01*
Y784785D01*
X245710D01*
Y782600D01*
X262290D01*
Y784785D01*
X269840D01*
Y782600D01*
X272787D01*
Y618490D01*
X272787Y618490D01*
X272787Y618490D01*
Y600710D01*
X138430D01*
Y606670D01*
X146290D01*
Y618210D01*
Y629750D01*
X138430D01*
Y636270D01*
X163830Y661670D01*
Y732790D01*
X129540Y767080D01*
Y946150D01*
X124723Y950967D01*
Y951557D01*
X136178Y963013D01*
X136178Y963013D01*
X137265Y964639D01*
X138881Y965072D01*
X141399Y966526D01*
X143454Y968581D01*
X144908Y971099D01*
X145660Y973907D01*
Y976814D01*
X144908Y979621D01*
X143454Y982139D01*
X141399Y984194D01*
X141221Y984297D01*
Y988375D01*
X146993Y994147D01*
X258137D01*
X265167Y987117D01*
Y985023D01*
X263731Y984194D01*
X261676Y982139D01*
X260222Y979621D01*
X259470Y976814D01*
Y973907D01*
X260222Y971099D01*
X261676Y968581D01*
X263731Y966526D01*
X266249Y965072D01*
X269057Y964320D01*
X271964D01*
X274771Y965072D01*
X277289Y966526D01*
X279344Y968581D01*
X280798Y971099D01*
X281550Y973907D01*
Y976814D01*
X280798Y979621D01*
X279344Y982139D01*
X277289Y984194D01*
X275853Y985023D01*
Y989330D01*
X275446Y991375D01*
X274288Y993108D01*
X274288Y993108D01*
X264128Y1003268D01*
X262395Y1004426D01*
X260350Y1004833D01*
X260350Y1004833D01*
X144780D01*
X144780Y1004833D01*
X142736Y1004426D01*
X141002Y1003268D01*
X141002Y1003268D01*
X132100Y994366D01*
X130942Y992633D01*
X130535Y990588D01*
X130535Y990588D01*
Y985695D01*
X130359Y985648D01*
X127841Y984194D01*
X125786Y982139D01*
X124332Y979621D01*
X123580Y976814D01*
Y973907D01*
X124332Y971099D01*
X125786Y968581D01*
X126211Y968156D01*
X121394Y963340D01*
X120260Y964384D01*
X120260Y965834D01*
Y972660D01*
X111920D01*
Y964320D01*
X118721D01*
X120197Y964320D01*
X121241Y963186D01*
X115602Y957548D01*
X114444Y955815D01*
X114037Y953770D01*
X113175Y952500D01*
X102870D01*
X92710Y962660D01*
Y1013197D01*
X637540Y1013197D01*
D02*
G37*
G36*
X776824Y944342D02*
X780097D01*
X780734Y942802D01*
X780587Y942655D01*
X779820Y940803D01*
Y938798D01*
X779859Y938702D01*
X779004Y937422D01*
X776824D01*
Y920842D01*
X787910D01*
X792480Y916272D01*
Y914475D01*
X769959D01*
X768425Y916009D01*
Y920842D01*
X773084D01*
Y937422D01*
X756504D01*
Y920842D01*
X760655D01*
Y914400D01*
X760951Y912914D01*
X761793Y911653D01*
X765269Y908177D01*
X764864Y906859D01*
X764698Y906637D01*
X749856D01*
X748359Y908135D01*
Y920842D01*
X752764D01*
Y937422D01*
X749535D01*
X748680Y938702D01*
X748760Y938897D01*
Y940703D01*
X748069Y942372D01*
X747639Y942802D01*
X748277Y944342D01*
X752764D01*
Y947289D01*
X756504D01*
Y944342D01*
X773084D01*
Y947289D01*
X776824D01*
Y944342D01*
D02*
G37*
G36*
X637540Y908720D02*
X626480D01*
Y903130D01*
X636270D01*
Y897730D01*
X626480D01*
Y892140D01*
X626480D01*
Y890720D01*
X626480D01*
Y887412D01*
X624940Y886774D01*
X622400Y889314D01*
Y901020D01*
X598320D01*
Y882940D01*
X606475D01*
Y873480D01*
X598770D01*
Y857834D01*
X586140D01*
Y873480D01*
X582245D01*
Y882940D01*
X590400D01*
Y901020D01*
X566320D01*
Y888434D01*
X564933Y887047D01*
X563510Y887636D01*
Y889440D01*
X563510Y889560D01*
Y890980D01*
X563510Y891100D01*
Y896570D01*
X553720D01*
X543930D01*
Y891100D01*
X543930Y890980D01*
Y889560D01*
X543930Y889440D01*
Y872980D01*
X563510D01*
Y877385D01*
X564650D01*
X566137Y877681D01*
X567397Y878523D01*
X571814Y882940D01*
X574475D01*
Y873480D01*
X569560D01*
Y857834D01*
X561340D01*
X559658Y857500D01*
X558233Y856547D01*
X543910Y842225D01*
X542370Y842863D01*
Y905219D01*
X542390Y905233D01*
X543930Y904409D01*
Y901970D01*
X551020D01*
Y907560D01*
X545250D01*
X544612Y909100D01*
X546319Y910807D01*
X637540D01*
Y908720D01*
D02*
G37*
G36*
X664580Y944440D02*
X664580Y944320D01*
Y942900D01*
X664580Y942780D01*
Y937310D01*
X674370D01*
Y934610D01*
D01*
Y937310D01*
X684160D01*
Y942780D01*
X684160Y942900D01*
Y944320D01*
X684160Y944440D01*
Y949697D01*
X689726D01*
Y944296D01*
X689726Y944176D01*
Y942756D01*
X689726Y942636D01*
Y937166D01*
X699516D01*
X709306D01*
Y942636D01*
X709306Y942756D01*
Y944176D01*
X709306Y944296D01*
Y949697D01*
X712740D01*
Y944108D01*
X712740Y943988D01*
Y942568D01*
X712740Y942448D01*
Y936978D01*
X722530D01*
X732320D01*
Y942448D01*
X732320Y942568D01*
Y943988D01*
X732320Y944108D01*
Y949697D01*
X736184D01*
Y944342D01*
X740164D01*
X740801Y942802D01*
X740371Y942372D01*
X739680Y940703D01*
Y938897D01*
X739761Y938702D01*
X738905Y937422D01*
X736184D01*
Y920842D01*
X740589D01*
Y906526D01*
X740885Y905040D01*
X741727Y903779D01*
X743870Y901636D01*
X743281Y900214D01*
X666969D01*
X665480Y901702D01*
Y915670D01*
X662945Y918204D01*
X662941Y918211D01*
X654050Y927102D01*
Y953770D01*
X664580D01*
Y944440D01*
D02*
G37*
G36*
X637540Y917994D02*
X544830D01*
X543455Y917720D01*
X542289Y916941D01*
X542289Y916941D01*
X536236Y910888D01*
X535457Y909722D01*
X535183Y908347D01*
Y888845D01*
X533643Y888539D01*
X533439Y889032D01*
X532162Y890309D01*
X530493Y891000D01*
X528687D01*
X527018Y890309D01*
X526764Y890054D01*
X501650D01*
X500275Y889781D01*
X499109Y889001D01*
X497228Y887121D01*
X495806Y887710D01*
Y903405D01*
X496609Y904208D01*
X497300Y905877D01*
Y907683D01*
X496609Y909352D01*
X495332Y910629D01*
X493663Y911320D01*
X491857D01*
X490188Y910629D01*
X488911Y909352D01*
X488220Y907683D01*
Y905877D01*
X488619Y904915D01*
Y901175D01*
X487196Y900585D01*
X485393Y902388D01*
Y913381D01*
X492299Y920287D01*
X637540D01*
Y917994D01*
D02*
G37*
G36*
X535183Y884075D02*
Y789864D01*
X532792Y787473D01*
X531252Y788111D01*
Y807404D01*
X530935D01*
Y833120D01*
X530639Y834607D01*
X529797Y835867D01*
X522177Y843487D01*
X520917Y844329D01*
X519430Y844625D01*
X515020D01*
Y849790D01*
X506730D01*
Y852490D01*
X504030D01*
Y860780D01*
X501120D01*
Y880847D01*
X503139Y882866D01*
X526764D01*
X527018Y882611D01*
X528687Y881920D01*
X530493D01*
X532162Y882611D01*
X533439Y883888D01*
X533643Y884381D01*
X535183Y884075D01*
D02*
G37*
G36*
X651510Y890270D02*
X656588D01*
X659217Y887641D01*
X660383Y886862D01*
X661758Y886588D01*
X693420D01*
Y862330D01*
X678370Y847280D01*
X651650D01*
Y846294D01*
X644790D01*
Y851340D01*
X644790Y851460D01*
X644790D01*
Y852880D01*
X644790D01*
Y858470D01*
X635000D01*
Y861170D01*
D01*
Y858470D01*
X625210D01*
Y854947D01*
X623787Y854358D01*
X621597Y856547D01*
X620172Y857500D01*
X618490Y857834D01*
X615350D01*
Y873480D01*
X614245D01*
Y881877D01*
X615590Y882865D01*
X617861D01*
X621043Y879683D01*
X622304Y878841D01*
X623790Y878545D01*
X626480D01*
Y874140D01*
X646060D01*
Y890720D01*
X646060D01*
Y892140D01*
X646060D01*
Y893708D01*
X647483Y894297D01*
X651510Y890270D01*
D02*
G37*
G36*
X792480Y901700D02*
X798416D01*
X821615Y878501D01*
Y871923D01*
X821227Y871535D01*
X820460Y869683D01*
Y868692D01*
X818920Y868054D01*
X781808Y905165D01*
X782213Y906484D01*
X782380Y906705D01*
X792480D01*
Y901700D01*
D02*
G37*
G36*
X829638Y846348D02*
X829565Y845980D01*
X829270Y845744D01*
X827845Y845224D01*
X826503Y845780D01*
X824498D01*
X822645Y845013D01*
X821227Y843595D01*
X820460Y841743D01*
Y839737D01*
X821227Y837885D01*
X821615Y837497D01*
Y822142D01*
X819842D01*
Y816796D01*
X815157D01*
X811314Y820639D01*
Y862661D01*
X812736Y863250D01*
X829638Y846348D01*
D02*
G37*
G36*
X959638Y848198D02*
X976218D01*
X976301Y846693D01*
Y838344D01*
X976218Y836838D01*
X964720D01*
X958277Y843281D01*
X957111Y844060D01*
X955736Y844334D01*
X949660D01*
X949071Y845756D01*
X956717Y853402D01*
X959638D01*
Y848198D01*
D02*
G37*
G36*
X840597Y868155D02*
Y842842D01*
X840542D01*
Y830348D01*
X839002Y829653D01*
X838275Y830226D01*
Y847090D01*
X837979Y848577D01*
X837137Y849837D01*
X824874Y862100D01*
X825512Y863640D01*
X826503D01*
X828355Y864407D01*
X829773Y865825D01*
X830540Y867678D01*
Y869683D01*
X829773Y871535D01*
X829385Y871923D01*
Y877355D01*
X830807Y877945D01*
X840597Y868155D01*
D02*
G37*
G36*
X959638Y831756D02*
Y820258D01*
X972452D01*
X973042Y818835D01*
X970724Y816518D01*
X959638D01*
Y812113D01*
X930571D01*
X930318Y812285D01*
X929432Y813653D01*
X929572Y814355D01*
Y821366D01*
X945353Y837147D01*
X954248D01*
X959638Y831756D01*
D02*
G37*
G36*
X523165Y831511D02*
Y807404D01*
X510806D01*
Y820700D01*
X515020D01*
Y836855D01*
X517821D01*
X523165Y831511D01*
D02*
G37*
G36*
X473619Y814160D02*
Y807404D01*
X456097D01*
Y829522D01*
X457637Y830141D01*
X473619Y814160D01*
D02*
G37*
G36*
X797688Y862109D02*
Y812146D01*
X797962Y810771D01*
X798741Y809605D01*
X807684Y800661D01*
X808850Y799882D01*
X810226Y799609D01*
X819842D01*
Y797087D01*
X767713D01*
X764615Y800185D01*
Y807908D01*
X766412D01*
Y867988D01*
X741332D01*
Y831273D01*
X722170D01*
X720736Y831648D01*
Y833068D01*
X720736Y833188D01*
Y838658D01*
X710946D01*
X701156D01*
Y833188D01*
X701156Y833068D01*
Y831648D01*
X701156Y831528D01*
Y815068D01*
X708331D01*
Y809472D01*
X704180D01*
Y792892D01*
X720760D01*
Y809472D01*
X716101D01*
Y815068D01*
X720736D01*
Y823503D01*
X741332D01*
Y807908D01*
X756845D01*
Y798576D01*
X757141Y797089D01*
X757983Y795829D01*
X762402Y791410D01*
X762458Y789288D01*
X759741Y786571D01*
X758899Y785311D01*
X758604Y783824D01*
Y772988D01*
X741332D01*
Y757393D01*
X720736D01*
Y764812D01*
X716101D01*
Y769392D01*
X720760D01*
Y785972D01*
X704180D01*
Y769392D01*
X708331D01*
Y764812D01*
X701156D01*
Y748352D01*
X701156Y748232D01*
Y746812D01*
X701156Y746692D01*
Y741222D01*
X710946D01*
Y738522D01*
D01*
Y741222D01*
X720736D01*
Y746692D01*
X720736Y746812D01*
Y748232D01*
X721385Y749623D01*
X741332D01*
Y712908D01*
X766412D01*
Y772988D01*
X766373D01*
Y782215D01*
X768475Y784317D01*
X819842D01*
Y782087D01*
X811222D01*
X809735Y781791D01*
X808475Y780949D01*
X797146Y769620D01*
X782320D01*
Y720090D01*
X762000Y699770D01*
X690880D01*
Y844550D01*
X706120Y859790D01*
Y883920D01*
X704874Y885165D01*
X705464Y886588D01*
X773209D01*
X797688Y862109D01*
D02*
G37*
G36*
X356235Y793115D02*
X332105Y793115D01*
X343535Y804545D01*
X344805D01*
X356235Y793115D01*
D02*
G37*
G36*
X424593Y791104D02*
Y782204D01*
X422972D01*
Y774124D01*
Y774123D01*
X433012D01*
Y772204D01*
X422972D01*
Y769124D01*
Y759124D01*
Y747049D01*
X390942D01*
X389922Y748069D01*
X388253Y748760D01*
X386447D01*
X384778Y748069D01*
X383501Y746792D01*
X382810Y745123D01*
Y743317D01*
X383501Y741648D01*
X384739Y740410D01*
X383501Y739172D01*
X382810Y737503D01*
Y735697D01*
X383501Y734028D01*
X384778Y732751D01*
X386447Y732060D01*
X388253D01*
X389922Y732751D01*
X391199Y734028D01*
X391303Y734279D01*
X422972D01*
Y722049D01*
X335558D01*
X332229Y725377D01*
X330969Y726219D01*
X329483Y726515D01*
X307285D01*
X305703Y727170D01*
X303897D01*
X302228Y726479D01*
X300951Y725202D01*
X300260Y723533D01*
Y721727D01*
X300951Y720058D01*
X302228Y718781D01*
X303897Y718090D01*
X305319D01*
X306077Y717557D01*
X306610Y716799D01*
Y715761D01*
X306077Y715003D01*
X305319Y714470D01*
X303897D01*
X302228Y713779D01*
X300951Y712502D01*
X300260Y710833D01*
Y709027D01*
X300951Y707358D01*
X302228Y706081D01*
X303897Y705390D01*
X305319D01*
X306077Y704857D01*
X306610Y704099D01*
Y702677D01*
X307301Y701008D01*
X308578Y699731D01*
X310247Y699040D01*
X312053D01*
X313133Y699487D01*
X422972D01*
Y699124D01*
X436348D01*
X436938Y697701D01*
X410886Y671650D01*
X410614Y671722D01*
X409670Y673467D01*
Y675273D01*
X408979Y676942D01*
X407702Y678219D01*
X406033Y678910D01*
X404227D01*
X402645Y678255D01*
X320040D01*
X318553Y677959D01*
X317293Y677117D01*
X307133Y666957D01*
X306291Y665697D01*
X305995Y664210D01*
Y653450D01*
X301590D01*
Y638753D01*
X293050D01*
X293050Y638753D01*
X291005Y638346D01*
X289272Y637188D01*
X289272Y637188D01*
X284895Y632811D01*
X283473Y633400D01*
Y782600D01*
X286420D01*
Y785867D01*
X366130D01*
Y785350D01*
X385710D01*
Y785867D01*
X391530D01*
Y785350D01*
X411110D01*
Y790914D01*
X412650Y791944D01*
X413117Y791750D01*
X414923D01*
X416592Y792441D01*
X416595Y792445D01*
X423253D01*
X424593Y791104D01*
D02*
G37*
G36*
X1102624Y799036D02*
X1101554Y797966D01*
X1100161Y795554D01*
X1099440Y792863D01*
Y790077D01*
X1100161Y787386D01*
X1101554Y784974D01*
X1103524Y783004D01*
X1105936Y781611D01*
X1108627Y780890D01*
X1111413D01*
X1114104Y781611D01*
X1116516Y783004D01*
X1118486Y784974D01*
X1119879Y787386D01*
X1119932Y787585D01*
X1127095D01*
X1127733Y786045D01*
X1126954Y785266D01*
X1125561Y782854D01*
X1124840Y780163D01*
Y777377D01*
X1125561Y774686D01*
X1126954Y772274D01*
X1127225Y772002D01*
X1122023Y766800D01*
X1121300Y767099D01*
X1120581Y767536D01*
X1119879Y770154D01*
X1118486Y772566D01*
X1116516Y774536D01*
X1114104Y775929D01*
X1111413Y776650D01*
X1108627D01*
X1105936Y775929D01*
X1103524Y774536D01*
X1101554Y772566D01*
X1100161Y770154D01*
X1100030Y769664D01*
X1086232D01*
Y774330D01*
X1069652D01*
Y774330D01*
X1068232D01*
Y774330D01*
X1058770D01*
Y775991D01*
X1058497Y777366D01*
X1057718Y778532D01*
X1057486Y778764D01*
X1057718Y778996D01*
X1058497Y780162D01*
X1058770Y781537D01*
Y782690D01*
X1068112D01*
X1068232Y782690D01*
Y782690D01*
X1069652D01*
Y782690D01*
X1086232D01*
Y797188D01*
X1089621Y800576D01*
X1101986D01*
X1102624Y799036D01*
D02*
G37*
G36*
X622058Y843657D02*
X623484Y842705D01*
X625165Y842370D01*
X625210D01*
Y834880D01*
X644790D01*
Y837506D01*
X651650D01*
Y828800D01*
X664896D01*
Y826755D01*
X664750Y826403D01*
Y824597D01*
X665441Y822928D01*
X666718Y821651D01*
X668387Y820960D01*
X670193D01*
X671862Y821651D01*
X673139Y822928D01*
X673830Y824597D01*
Y826403D01*
X673684Y826755D01*
Y828800D01*
X675640D01*
Y603250D01*
X650393Y578003D01*
X638440D01*
Y580830D01*
X638440Y580950D01*
Y582370D01*
X638440Y582490D01*
Y587960D01*
X628650D01*
X618860D01*
Y582490D01*
X618860Y582370D01*
Y580950D01*
X618860Y580830D01*
Y576580D01*
X610384D01*
Y577030D01*
X610129Y578314D01*
X609402Y579402D01*
X608314Y580129D01*
X607030Y580384D01*
X602530D01*
X601246Y580129D01*
X600158Y579402D01*
X599431Y578314D01*
X599176Y577030D01*
Y576580D01*
X592085D01*
Y577030D01*
X591829Y578314D01*
X591102Y579402D01*
X590014Y580129D01*
X588730Y580384D01*
X584230D01*
X582946Y580129D01*
X581858Y579402D01*
X581131Y578314D01*
X580876Y577030D01*
Y576580D01*
X575310D01*
X554990Y556260D01*
X430530D01*
X386080Y600710D01*
X342894D01*
X341956Y601932D01*
X342070Y602356D01*
Y604144D01*
X341607Y605871D01*
X340713Y607419D01*
X340030Y608103D01*
Y613690D01*
X342300D01*
Y629292D01*
X342810Y629632D01*
X346810Y633633D01*
X348350Y632995D01*
Y632020D01*
X348350Y631900D01*
Y630480D01*
X348350Y630360D01*
Y624890D01*
X358140D01*
X367930D01*
Y630360D01*
X367930Y630480D01*
Y631900D01*
X367930Y632020D01*
Y636415D01*
X375020D01*
Y632020D01*
X375020Y631900D01*
Y630480D01*
X375020Y630360D01*
Y624890D01*
X384810D01*
X394600D01*
Y630360D01*
X394600Y630480D01*
Y631900D01*
X394600Y632020D01*
Y636415D01*
X419470D01*
Y632130D01*
X419470Y632010D01*
X419470D01*
Y630590D01*
X419470D01*
Y625000D01*
X429260D01*
Y622300D01*
X431960D01*
Y614010D01*
X439050D01*
X439855Y612803D01*
Y607060D01*
X440112Y605769D01*
X440844Y604674D01*
X443384Y602134D01*
X444479Y601402D01*
X445770Y601145D01*
X467360D01*
X468652Y601402D01*
X469746Y602134D01*
X473556Y605944D01*
X474288Y607038D01*
X474545Y608330D01*
Y624712D01*
X477648Y627815D01*
X507220D01*
Y625210D01*
X523680D01*
X523800Y625210D01*
X525220D01*
X525340Y625210D01*
X530810D01*
Y635000D01*
Y644790D01*
X525340D01*
X525220Y644790D01*
X523800D01*
X523680Y644790D01*
X518775D01*
Y648070D01*
X523680D01*
X523800Y648070D01*
X525220D01*
X525340Y648070D01*
X530810D01*
Y657860D01*
Y667650D01*
X525340D01*
X525220Y667650D01*
X523800D01*
X523680Y667650D01*
X520587D01*
Y673924D01*
X531252D01*
Y694004D01*
X531016D01*
Y697532D01*
X532556Y698272D01*
X533767Y697770D01*
X535573D01*
X537242Y698461D01*
X537830Y699049D01*
X546182D01*
X546557Y699124D01*
X556452D01*
Y709124D01*
Y719124D01*
Y722204D01*
X546412D01*
Y724123D01*
X556452D01*
Y729124D01*
Y742014D01*
X557875Y742603D01*
X564096Y736382D01*
Y617439D01*
X561121Y614464D01*
X541800D01*
Y621930D01*
X525340D01*
X525220Y621930D01*
X523800D01*
X523680Y621930D01*
X518210D01*
Y612140D01*
Y602350D01*
X523680D01*
X523800Y602350D01*
X525220D01*
X525340Y602350D01*
X531077D01*
Y584120D01*
X526630D01*
Y569040D01*
X542710D01*
Y584120D01*
X538264D01*
Y602350D01*
X541800D01*
Y607276D01*
X562610D01*
X563985Y607550D01*
X565151Y608329D01*
X570231Y613409D01*
X571010Y614575D01*
X571284Y615950D01*
X571284Y615950D01*
Y736765D01*
X572824Y737403D01*
X591397Y718829D01*
Y717898D01*
X591472Y717523D01*
Y663124D01*
X616552D01*
Y689279D01*
X636640D01*
Y681100D01*
X656220D01*
Y697560D01*
X656220Y697680D01*
Y699100D01*
X656220Y699220D01*
Y704690D01*
X646430D01*
X636640D01*
Y699220D01*
X636640Y699100D01*
Y697680D01*
X635312Y697049D01*
X616552D01*
Y723204D01*
X598010D01*
X568357Y752857D01*
X568947Y754279D01*
X575284D01*
X576771Y754575D01*
X578031Y755417D01*
X581867Y759253D01*
X582709Y760514D01*
X583005Y762000D01*
Y775631D01*
X583269Y775895D01*
X591472D01*
Y758124D01*
X616552D01*
Y784279D01*
X636301D01*
X636640Y782880D01*
X636640Y782739D01*
Y777290D01*
X646430D01*
X656220D01*
Y782760D01*
X656220Y782880D01*
Y784300D01*
X656220Y784420D01*
Y800880D01*
X636640D01*
Y792049D01*
X616552D01*
Y818204D01*
X591472D01*
Y783665D01*
X581660D01*
X580173Y783369D01*
X578913Y782527D01*
X576373Y779987D01*
X575531Y778727D01*
X575235Y777240D01*
Y763609D01*
X573675Y762049D01*
X568895D01*
X568305Y763472D01*
X571707Y766873D01*
X572549Y768133D01*
X572845Y769620D01*
Y806111D01*
X594699Y827965D01*
X597220D01*
X598707Y828261D01*
X599967Y829103D01*
X604264Y833400D01*
X615350D01*
Y848514D01*
X616890Y848825D01*
X622058Y843657D01*
D02*
G37*
G36*
X859790Y782320D02*
X851267Y773797D01*
X849660Y774368D01*
X849077Y775777D01*
X847659Y777195D01*
X845807Y777962D01*
X843801D01*
X841949Y777195D01*
X840522Y777804D01*
Y782143D01*
X830182D01*
Y784262D01*
X840522D01*
Y784262D01*
Y794321D01*
X841386D01*
X842872Y794617D01*
X844133Y795459D01*
X848567Y799893D01*
X849409Y801153D01*
X849705Y802640D01*
Y816864D01*
X849409Y818351D01*
X848567Y819611D01*
X847439Y820739D01*
X848028Y822162D01*
X859790D01*
Y782320D01*
D02*
G37*
G36*
X569560Y833400D02*
X579514D01*
X580103Y831977D01*
X561133Y813007D01*
X560291Y811747D01*
X559995Y810260D01*
Y775039D01*
X557992Y773036D01*
X556452Y773674D01*
Y782204D01*
X550807D01*
Y836692D01*
X563160Y849046D01*
X569560D01*
Y833400D01*
D02*
G37*
G36*
X458327Y782388D02*
X458623Y780901D01*
X459465Y779641D01*
X478715Y760391D01*
Y751966D01*
X477175Y751328D01*
X472593Y755911D01*
X471333Y756753D01*
X469846Y757049D01*
X443052D01*
Y764825D01*
X443149Y764844D01*
X444315Y765623D01*
X447276Y768584D01*
X448517Y769413D01*
X449359Y770674D01*
X449655Y772160D01*
Y787324D01*
X458327D01*
Y782388D01*
D02*
G37*
G36*
X478619Y787280D02*
X478892Y785905D01*
X479671Y784739D01*
X484631Y779779D01*
X485797Y779000D01*
X487172Y778727D01*
X518869D01*
X519268Y777636D01*
X519306Y777187D01*
X518121Y776002D01*
X517430Y774333D01*
Y773972D01*
X513126Y769668D01*
X513126Y769668D01*
X513126Y769668D01*
X504671Y761213D01*
X503892Y760047D01*
X503619Y758672D01*
Y694004D01*
X496097D01*
Y699048D01*
X495801Y700535D01*
X494959Y701795D01*
X489157Y707597D01*
X487897Y708439D01*
X486410Y708735D01*
X449580D01*
X448093Y708439D01*
X446833Y707597D01*
X444592Y705356D01*
X443052Y705994D01*
Y719279D01*
X453924D01*
X455411Y719575D01*
X456671Y720417D01*
X458924Y722670D01*
X459473D01*
X461325Y723437D01*
X462743Y724855D01*
X463510Y726708D01*
Y728713D01*
X462743Y730565D01*
X461325Y731983D01*
X459473Y732750D01*
X458583D01*
X457413Y733003D01*
X457160Y734173D01*
Y735063D01*
X456393Y736915D01*
X454975Y738333D01*
X453123Y739100D01*
X451118D01*
X449265Y738333D01*
X447847Y736915D01*
X447080Y735063D01*
Y734514D01*
X444615Y732049D01*
X443052D01*
Y744145D01*
X461757D01*
X461817Y743999D01*
X463235Y742581D01*
X465088Y741814D01*
X467093D01*
X468407Y742358D01*
X469931Y741886D01*
X470222Y741681D01*
X470372Y741186D01*
X469940Y740143D01*
Y738138D01*
X470707Y736285D01*
X472125Y734867D01*
X473978Y734100D01*
X475983D01*
X477175Y734594D01*
X478715Y733736D01*
Y728204D01*
X477691Y727180D01*
X476810Y725052D01*
Y722748D01*
X477691Y720620D01*
X479320Y718991D01*
X481448Y718110D01*
X483214D01*
X484000Y717726D01*
X484600Y716795D01*
Y715128D01*
X485481Y713000D01*
X487110Y711372D01*
X489238Y710490D01*
X491542D01*
X493670Y711372D01*
X495299Y713000D01*
X496180Y715128D01*
Y717432D01*
X495299Y719560D01*
X494275Y720584D01*
Y760560D01*
X493979Y762047D01*
X493137Y763307D01*
X471097Y785347D01*
Y787324D01*
X478619D01*
Y787280D01*
D02*
G37*
G36*
X875669Y728980D02*
Y717712D01*
X864732D01*
Y701252D01*
X864732Y701132D01*
Y699712D01*
X864732Y699592D01*
Y694122D01*
X874522D01*
X884312D01*
Y699592D01*
X884312Y699712D01*
Y701132D01*
X884312Y701252D01*
Y704793D01*
X887592D01*
Y701252D01*
X887592Y701132D01*
Y699712D01*
X887592Y699592D01*
Y694122D01*
X897382D01*
X907172D01*
Y699592D01*
X907172Y699712D01*
Y701132D01*
X907172Y701252D01*
Y704793D01*
X910452D01*
Y701472D01*
X910452Y701352D01*
Y699932D01*
X910452Y699812D01*
Y694342D01*
X920242D01*
X930032D01*
Y699812D01*
X930032Y699932D01*
Y701352D01*
X930032Y701472D01*
Y704793D01*
X935972D01*
Y697092D01*
X939633D01*
Y693812D01*
X935972D01*
Y674232D01*
X939633D01*
Y668412D01*
X935972D01*
Y648832D01*
X939633D01*
Y645552D01*
X935972D01*
Y625972D01*
X941577D01*
X943077Y625721D01*
X943430Y623950D01*
X944433Y622448D01*
X945206Y621675D01*
X944617Y620252D01*
X936122D01*
Y618753D01*
X804917D01*
X797560Y626110D01*
X797560Y631306D01*
X802590D01*
Y641096D01*
Y650886D01*
X798649D01*
X797560Y651975D01*
Y654166D01*
X802734D01*
Y663956D01*
X805434D01*
D01*
X802734D01*
Y673746D01*
X798649D01*
X797560Y674835D01*
X797560Y677190D01*
X798924D01*
Y685480D01*
Y693770D01*
X798649D01*
X797560Y694859D01*
X797560Y698500D01*
X799750Y700690D01*
X809914D01*
Y710854D01*
X812509Y713449D01*
X813932Y712860D01*
Y701252D01*
X813932Y701132D01*
Y699712D01*
X813932Y699592D01*
Y694122D01*
X823722D01*
X833512D01*
Y699592D01*
X833512Y699712D01*
Y701132D01*
X833512Y701252D01*
Y713527D01*
X833587Y713902D01*
Y715063D01*
X835237Y716713D01*
X836792D01*
Y701252D01*
X836792Y701132D01*
Y699712D01*
X836792Y699592D01*
Y694122D01*
X846582D01*
X856372D01*
Y699592D01*
X856372Y699712D01*
Y701132D01*
X856372Y701252D01*
Y713527D01*
X856447Y713902D01*
Y718873D01*
X867229Y729655D01*
X868071Y730916D01*
X868367Y732402D01*
Y738562D01*
X875669D01*
Y728980D01*
D02*
G37*
G36*
X536372Y778879D02*
Y774124D01*
Y764124D01*
Y754124D01*
Y744124D01*
Y734124D01*
Y722049D01*
X528934D01*
X527448Y721753D01*
X526187Y720911D01*
X514465Y709189D01*
X513623Y707929D01*
X513327Y706442D01*
Y694004D01*
X510806D01*
Y757184D01*
X518208Y764586D01*
X518208Y764586D01*
X522512Y768890D01*
X522873D01*
X524542Y769581D01*
X525819Y770858D01*
X526510Y772527D01*
Y774333D01*
X525819Y776002D01*
X524634Y777187D01*
X524672Y777636D01*
X525071Y778727D01*
X532721D01*
X534096Y779000D01*
X534832Y779492D01*
X536372Y778879D01*
D02*
G37*
G36*
X448172Y687720D02*
Y683983D01*
X446903Y683731D01*
X445643Y682889D01*
X430323Y667569D01*
X429481Y666309D01*
X429185Y664822D01*
Y648590D01*
X419470D01*
Y644185D01*
X394600D01*
Y648480D01*
X375020D01*
Y644185D01*
X367930D01*
Y648480D01*
X348350D01*
Y645533D01*
X345812D01*
X345812Y645533D01*
X343840Y645141D01*
X343568Y645123D01*
X342300Y645917D01*
Y653770D01*
X338689D01*
X338224Y655310D01*
X345779Y662865D01*
X411480D01*
X412967Y663161D01*
X414227Y664003D01*
X421657Y671433D01*
X423335Y671334D01*
X424447Y670223D01*
X426115Y669532D01*
X427921D01*
X429590Y670223D01*
X430867Y671500D01*
X431522Y673082D01*
X446749Y688309D01*
X448172Y687720D01*
D02*
G37*
G36*
X513837Y667650D02*
X507220D01*
Y648070D01*
X512025D01*
Y644790D01*
X507220D01*
Y634565D01*
X476250D01*
X474959Y634308D01*
X473864Y633576D01*
X468784Y628496D01*
X468530Y628117D01*
X466990Y628584D01*
Y630360D01*
X466990Y630480D01*
Y631900D01*
X466990Y632020D01*
Y648480D01*
X461085D01*
Y657161D01*
X461931Y657878D01*
X463511Y657828D01*
X464788Y656551D01*
X466457Y655860D01*
X467879D01*
X468637Y655327D01*
X469170Y654569D01*
Y653147D01*
X469861Y651478D01*
X471138Y650201D01*
X472807Y649510D01*
X474613D01*
X476282Y650201D01*
X477559Y651478D01*
X478250Y653147D01*
Y654953D01*
X478180Y655124D01*
X478183Y655143D01*
Y668893D01*
X477893Y670352D01*
X477066Y671590D01*
X476272Y672384D01*
X476620Y673924D01*
X513837D01*
Y667650D01*
D02*
G37*
G36*
X340872Y668945D02*
X331263Y659337D01*
X330421Y658077D01*
X330125Y656590D01*
Y653770D01*
X325720D01*
Y638753D01*
X318170D01*
Y653450D01*
X313765D01*
Y662601D01*
X321649Y670485D01*
X340234D01*
X340872Y668945D01*
D02*
G37*
G36*
X458327Y666348D02*
X454453Y662474D01*
X453611Y661213D01*
X453315Y659727D01*
Y648480D01*
X447410D01*
Y632020D01*
X447410Y631900D01*
Y630480D01*
X447410Y630304D01*
X445870Y629837D01*
X445616Y630216D01*
X439050Y636783D01*
Y648590D01*
X436955D01*
Y663213D01*
X446943Y673201D01*
X448172Y673924D01*
Y673924D01*
X448172Y673924D01*
X458327D01*
Y666348D01*
D02*
G37*
G36*
X325720Y613690D02*
X329344D01*
Y606549D01*
X328953Y605871D01*
X328490Y604144D01*
Y602356D01*
X328604Y601932D01*
X327666Y600710D01*
X318764D01*
X317826Y601932D01*
X317940Y602356D01*
Y604144D01*
X317477Y605871D01*
X316583Y607419D01*
X315900Y608103D01*
Y613370D01*
X318170D01*
Y628067D01*
X325720D01*
Y613690D01*
D02*
G37*
G36*
X301590Y613370D02*
X305214D01*
Y606549D01*
X304823Y605871D01*
X304360Y604144D01*
Y602356D01*
X304474Y601932D01*
X303536Y600710D01*
X283473D01*
Y616277D01*
X295263Y628067D01*
X301590D01*
Y613370D01*
D02*
G37*
G36*
X1130300Y535940D02*
Y529590D01*
Y393700D01*
X1103630Y367030D01*
X871483D01*
Y388947D01*
X879783Y397247D01*
X949960D01*
X949960Y397247D01*
X952005Y397654D01*
X953738Y398812D01*
X960088Y405162D01*
X960088Y405162D01*
X961246Y406895D01*
X961653Y408940D01*
Y428209D01*
X962060Y429630D01*
X963480D01*
X963600Y429630D01*
X969070D01*
Y439420D01*
Y449210D01*
X963600D01*
X963480Y449210D01*
X962060D01*
X961653Y450631D01*
Y458343D01*
X970534D01*
Y468757D01*
X958770D01*
X958088Y468893D01*
X958088Y468893D01*
X939473D01*
X937523Y470843D01*
Y513407D01*
X944873Y520757D01*
X986120D01*
Y517810D01*
X1002700D01*
Y517897D01*
X1015100D01*
Y512630D01*
X1015100D01*
Y511210D01*
X1015100D01*
Y509197D01*
X1002700D01*
Y510890D01*
X986120D01*
Y502298D01*
X978420Y494599D01*
X958088D01*
X955927Y494169D01*
X955909Y494157D01*
X945642D01*
Y483743D01*
X955909D01*
X955927Y483731D01*
X957668Y483385D01*
Y481815D01*
X955927Y481469D01*
X955909Y481457D01*
X945642D01*
Y471043D01*
X955909D01*
X955927Y471031D01*
X958088Y470602D01*
X977150D01*
X986120Y461632D01*
Y453040D01*
X1002700D01*
Y454629D01*
X1015100D01*
Y452950D01*
X1015100Y452830D01*
Y451410D01*
X1015100Y451290D01*
Y445820D01*
X1024890D01*
X1034680D01*
Y451290D01*
X1034680Y451410D01*
Y452830D01*
X1034680Y452950D01*
Y455959D01*
X1045330D01*
Y450850D01*
X1050027D01*
Y432950D01*
X1041400D01*
Y412870D01*
X1067680D01*
Y432950D01*
X1060713D01*
Y450850D01*
X1065410D01*
Y466794D01*
X1080100D01*
Y465100D01*
X1085538D01*
X1090162Y460476D01*
X1091528Y459427D01*
X1093119Y458768D01*
X1094826Y458544D01*
X1105610D01*
Y441200D01*
X1125690D01*
Y478280D01*
X1105610D01*
Y471736D01*
X1097559D01*
X1096680Y472615D01*
Y481680D01*
X1080100D01*
Y479986D01*
X1061670D01*
X1059963Y479762D01*
X1058372Y479103D01*
X1057006Y478054D01*
X1056081Y477130D01*
X1045330D01*
Y469151D01*
X1034680D01*
Y469410D01*
X1015100D01*
Y467822D01*
X1002700D01*
Y469620D01*
X994108D01*
X983484Y480244D01*
X981652Y481469D01*
X980727Y483223D01*
X980760Y483302D01*
X982922Y483731D01*
X984754Y484956D01*
X994108Y494310D01*
X1002700D01*
Y496004D01*
X1015100D01*
Y494630D01*
X1034680D01*
Y496324D01*
X1045330D01*
Y493150D01*
X1056081D01*
X1057006Y492226D01*
X1058372Y491177D01*
X1059963Y490518D01*
X1061670Y490294D01*
X1080100D01*
Y488600D01*
X1096680D01*
Y495851D01*
X1098422Y497594D01*
X1105610D01*
Y492000D01*
X1125690D01*
Y529080D01*
X1105610D01*
Y510787D01*
X1095690D01*
X1093983Y510562D01*
X1092392Y509903D01*
X1091026Y508854D01*
X1087351Y505180D01*
X1080100D01*
Y503487D01*
X1065410D01*
Y519430D01*
X1060713D01*
Y538600D01*
X1067680D01*
Y554990D01*
X1083700D01*
Y551340D01*
X1109980D01*
Y554990D01*
X1116013D01*
X1130300Y535940D01*
D02*
G37*
G36*
X926837Y513407D02*
Y468630D01*
X926837Y468630D01*
X927244Y466586D01*
X928402Y464852D01*
X933482Y459772D01*
X933482Y459772D01*
X935216Y458614D01*
X937260Y458207D01*
X937260Y458207D01*
X950967D01*
Y449210D01*
X945480D01*
Y429630D01*
X950967D01*
Y411153D01*
X947747Y407933D01*
X877570D01*
X877570Y407933D01*
X875526Y407526D01*
X873792Y406368D01*
X873792Y406368D01*
X866140Y398716D01*
X858378Y406478D01*
X856645Y407636D01*
X854600Y408043D01*
X854600Y408043D01*
X837576D01*
Y410846D01*
X830081D01*
Y421513D01*
X835787D01*
Y431927D01*
X825420D01*
X824738Y432063D01*
X824056Y431927D01*
X813689D01*
Y421513D01*
X819395D01*
Y410846D01*
X817996D01*
Y394386D01*
X817996Y394266D01*
Y392846D01*
X817996Y392726D01*
Y387256D01*
X827786D01*
X837576D01*
Y392726D01*
X837576Y392846D01*
Y394266D01*
X837576Y394386D01*
Y397357D01*
X852387D01*
X860797Y388947D01*
Y367030D01*
X758190D01*
X748030Y377190D01*
Y460191D01*
X761873D01*
Y459613D01*
X783971D01*
Y470027D01*
X761873D01*
Y469449D01*
X748700D01*
Y472891D01*
X761873D01*
Y472313D01*
X783971D01*
Y482727D01*
X761873D01*
Y482149D01*
X748700D01*
Y485810D01*
X748030D01*
Y492730D01*
X748700D01*
Y509310D01*
X748030D01*
Y528384D01*
X774373Y554727D01*
X799561D01*
X800700Y553760D01*
X800700Y553187D01*
Y550813D01*
X787620D01*
X786970Y550942D01*
X777670D01*
X775840Y550578D01*
X774289Y549541D01*
X773252Y547990D01*
X772888Y546160D01*
Y541860D01*
X773252Y540030D01*
X774289Y538479D01*
X775840Y537442D01*
X777670Y537078D01*
X786970D01*
X788800Y537442D01*
X790351Y538479D01*
X791388Y540030D01*
X791407Y540127D01*
X800700D01*
Y537180D01*
X817280D01*
Y553187D01*
X817280Y553760D01*
X818419Y554727D01*
X885517D01*
X926837Y513407D01*
D02*
G37*
G36*
X111760Y628650D02*
Y530860D01*
X241892D01*
X242481Y529437D01*
X223552Y510508D01*
X222394Y508775D01*
X221987Y506730D01*
X221987Y506730D01*
Y497240D01*
X218090D01*
Y480660D01*
X234670D01*
Y497240D01*
X232673D01*
Y504517D01*
X256213Y528057D01*
X289560D01*
X289560Y528057D01*
X289560Y528057D01*
X315110D01*
X316510Y527720D01*
Y524773D01*
X289560D01*
X289560Y524773D01*
X287516Y524366D01*
X285782Y523208D01*
X277922Y515348D01*
X276764Y513615D01*
X276357Y511570D01*
X276357Y511570D01*
Y477323D01*
X274734Y477000D01*
X273311Y476049D01*
X272360Y474626D01*
X272026Y472948D01*
Y470651D01*
X269729D01*
X267684Y470245D01*
X265951Y469087D01*
X265951Y469086D01*
X259112Y462248D01*
X257954Y460515D01*
X257547Y458470D01*
X257547Y458470D01*
Y410210D01*
X257547Y410210D01*
X257954Y408166D01*
X259112Y406432D01*
X268002Y397542D01*
X268002Y397542D01*
X269736Y396384D01*
X271780Y395977D01*
X271780Y395977D01*
X285750D01*
Y391280D01*
X288027D01*
Y379730D01*
X209486D01*
X202493Y386723D01*
X203040Y388044D01*
Y393700D01*
Y399254D01*
X199878D01*
X198599Y399000D01*
X197515Y398275D01*
X196790Y397191D01*
X196536Y395913D01*
Y394692D01*
X195113Y394103D01*
X192835Y396381D01*
X192783Y396695D01*
X193128Y398266D01*
X193666Y398625D01*
X194390Y399709D01*
X194644Y400988D01*
Y405412D01*
X194390Y406691D01*
X193666Y407775D01*
X192581Y408500D01*
X191303Y408754D01*
X179578D01*
X178299Y408500D01*
X177989Y408293D01*
X160020D01*
Y411360D01*
X142596D01*
X142080Y411463D01*
X142080Y411463D01*
X132084D01*
X132057Y411561D01*
X131163Y413109D01*
X129899Y414373D01*
X129234Y414757D01*
X129647Y416297D01*
X186370D01*
X186370Y416297D01*
X188415Y416704D01*
X190148Y417862D01*
X202146Y429860D01*
X211170D01*
Y446440D01*
X194590D01*
Y437416D01*
X184157Y426983D01*
X101033D01*
X88174Y439841D01*
Y447547D01*
X87840Y449226D01*
X86889Y450649D01*
X85466Y451600D01*
X83787Y451934D01*
X73213D01*
X71534Y451600D01*
X70111Y450649D01*
X69160Y449226D01*
X68826Y447547D01*
Y436373D01*
X69160Y434694D01*
X70111Y433271D01*
X71534Y432320D01*
X73213Y431986D01*
X80919D01*
X95042Y417862D01*
X95042Y417862D01*
X96776Y416704D01*
X98820Y416297D01*
X121813D01*
X122226Y414757D01*
X121561Y414373D01*
X120297Y413109D01*
X119403Y411561D01*
X119260Y411028D01*
X117720Y411231D01*
Y411360D01*
X91440D01*
Y406663D01*
X68253D01*
X58683Y416233D01*
Y453717D01*
X66983Y462017D01*
X68826D01*
Y461773D01*
X69160Y460094D01*
X70111Y458671D01*
X71534Y457720D01*
X73213Y457386D01*
X83787D01*
X85466Y457720D01*
X86889Y458671D01*
X87840Y460094D01*
X88049Y461143D01*
X89663Y461581D01*
X99890Y451354D01*
Y451226D01*
X100353Y449499D01*
X101247Y447951D01*
X102511Y446687D01*
X104059Y445793D01*
X105786Y445330D01*
X107574D01*
X109301Y445793D01*
X110849Y446687D01*
X112113Y447951D01*
X113007Y449499D01*
X113470Y451226D01*
Y453014D01*
X113007Y454741D01*
X112113Y456289D01*
X110849Y457553D01*
X109301Y458447D01*
X107574Y458910D01*
X107446D01*
X95218Y471138D01*
X93485Y472296D01*
X91440Y472703D01*
X91440Y472703D01*
X88174D01*
Y472948D01*
X87840Y474626D01*
X86889Y476049D01*
X86623Y476228D01*
Y502177D01*
X87986Y503540D01*
X102050D01*
Y511547D01*
X113310D01*
Y507330D01*
X129890D01*
Y523910D01*
X113310D01*
Y522233D01*
X102050D01*
Y522620D01*
X96103D01*
Y545200D01*
X97300D01*
Y564780D01*
X91303D01*
Y565550D01*
X90896Y567594D01*
X89738Y569328D01*
X89738Y569328D01*
X78133Y580933D01*
Y607969D01*
X79876Y608976D01*
X82024Y611124D01*
X83544Y613756D01*
X84330Y616691D01*
Y619729D01*
X83544Y622664D01*
X82024Y625296D01*
X79876Y627444D01*
X77244Y628964D01*
X74309Y629750D01*
X71271D01*
X68336Y628964D01*
X65704Y627444D01*
X63556Y625296D01*
X62036Y622664D01*
X61250Y619729D01*
Y616691D01*
X62036Y613756D01*
X63556Y611124D01*
X65704Y608976D01*
X67447Y607969D01*
Y578720D01*
X67447Y578720D01*
X67854Y576675D01*
X69012Y574942D01*
X77751Y566203D01*
X77162Y564780D01*
X73710D01*
Y554990D01*
Y545200D01*
X79300D01*
X79300Y545200D01*
X80720D01*
Y545200D01*
X80840Y545200D01*
X85417D01*
Y522620D01*
X82970D01*
Y513636D01*
X77502Y508168D01*
X77251Y507792D01*
X75943Y508606D01*
X76400Y509398D01*
X76663Y510380D01*
X70210D01*
Y503927D01*
X71192Y504190D01*
X73368Y505446D01*
X75027Y507105D01*
X76344Y506435D01*
X75937Y504390D01*
X75937Y504390D01*
Y477334D01*
X73213D01*
X71534Y477000D01*
X70111Y476049D01*
X69160Y474626D01*
X68826Y472948D01*
Y472703D01*
X64770D01*
X64770Y472703D01*
X62726Y472296D01*
X60992Y471138D01*
X60992Y471138D01*
X49562Y459708D01*
X48404Y457975D01*
X47997Y455930D01*
X47997Y455930D01*
Y414020D01*
X47997Y414020D01*
X48404Y411976D01*
X49562Y410242D01*
X62262Y397542D01*
X62262Y397542D01*
X63995Y396384D01*
X66040Y395977D01*
X66040Y395977D01*
X91440D01*
Y391280D01*
X94987D01*
Y378460D01*
X7449Y378460D01*
X6839Y633910D01*
X7927Y635000D01*
X105410D01*
X111760Y628650D01*
D02*
G37*
G36*
X1041400Y538600D02*
X1050027D01*
Y519430D01*
X1045330D01*
Y509516D01*
X1034680D01*
Y511210D01*
X1034680D01*
Y512630D01*
X1034680D01*
Y529210D01*
X1015100D01*
Y528583D01*
X1002700D01*
Y534390D01*
X986120D01*
Y531443D01*
X942660D01*
X942660Y531443D01*
X940615Y531036D01*
X938882Y529878D01*
X938882Y529878D01*
X932180Y523176D01*
X901789Y553567D01*
X902378Y554990D01*
X1041400D01*
Y538600D01*
D02*
G37*
G36*
X423917Y504517D02*
Y495970D01*
X420970D01*
Y479390D01*
X437550D01*
Y479390D01*
X439030Y479244D01*
X460747Y457527D01*
Y292100D01*
X460747Y292100D01*
X461154Y290055D01*
X462280Y288370D01*
Y158750D01*
X483870Y137160D01*
X490284D01*
X500980Y126464D01*
Y117440D01*
X517560D01*
Y120707D01*
X530190D01*
Y117760D01*
X546770D01*
Y134340D01*
X530190D01*
Y131393D01*
X517560D01*
Y134020D01*
X508536D01*
X506818Y135737D01*
X507408Y137160D01*
X548441D01*
X548784Y135435D01*
X549942Y133702D01*
X556810Y126835D01*
Y125265D01*
X548209Y116665D01*
X547051Y114931D01*
X546644Y112887D01*
X546644Y112887D01*
Y110840D01*
X530190D01*
Y94260D01*
X533137D01*
Y90620D01*
X533047Y90529D01*
X532153Y88981D01*
X531690Y87254D01*
Y85466D01*
X532153Y83739D01*
X533047Y82191D01*
X534311Y80927D01*
X535859Y80033D01*
X537586Y79570D01*
X539374D01*
X541101Y80033D01*
X542649Y80927D01*
X543913Y82191D01*
X544807Y83739D01*
X545104Y84847D01*
X546644Y84645D01*
Y58900D01*
X542601Y54857D01*
X541171Y55240D01*
X538330D01*
X535585Y54505D01*
X533125Y53084D01*
X531116Y51075D01*
X529695Y48615D01*
X528960Y45870D01*
Y43029D01*
X529695Y40285D01*
X531116Y37825D01*
X533125Y35816D01*
X535585Y34395D01*
X538330Y33660D01*
X541171D01*
X543915Y34395D01*
X546375Y35816D01*
X548384Y37825D01*
X549805Y40285D01*
X550540Y43029D01*
Y45870D01*
X550157Y47301D01*
X555765Y52909D01*
X555765Y52909D01*
X556923Y54642D01*
X557330Y56687D01*
Y94260D01*
X559807D01*
Y53825D01*
X558525Y53084D01*
X556516Y51075D01*
X555095Y48615D01*
X554703Y47150D01*
X575597D01*
X575205Y48615D01*
X573784Y51075D01*
X571775Y53084D01*
X570493Y53825D01*
Y94260D01*
X573440D01*
Y99850D01*
X565150D01*
Y102550D01*
X562450D01*
Y110840D01*
X559508D01*
X558918Y112263D01*
X564416Y117760D01*
X573440D01*
Y134340D01*
X564416D01*
X563018Y135737D01*
X563608Y137160D01*
X644274D01*
X654650Y126784D01*
Y117760D01*
X671230D01*
Y120707D01*
X680050D01*
Y117760D01*
X696630D01*
Y134340D01*
X680050D01*
Y131393D01*
X671230D01*
Y134340D01*
X662206D01*
X660808Y135737D01*
X661398Y137160D01*
X701030D01*
X701184Y136385D01*
X702342Y134652D01*
X710480Y126515D01*
Y124945D01*
X700609Y115075D01*
X699451Y113342D01*
X699044Y111297D01*
X699044Y111297D01*
Y60170D01*
X693731Y54857D01*
X692300Y55240D01*
X689460D01*
X686715Y54505D01*
X684255Y53084D01*
X682246Y51075D01*
X680825Y48615D01*
X680090Y45870D01*
Y43029D01*
X680825Y40285D01*
X682246Y37825D01*
X684255Y35816D01*
X686715Y34395D01*
X689460Y33660D01*
X692300D01*
X695045Y34395D01*
X697505Y35816D01*
X699514Y37825D01*
X700935Y40285D01*
X701670Y43029D01*
Y45870D01*
X701287Y47301D01*
X708165Y54179D01*
X708165Y54179D01*
X709323Y55912D01*
X709730Y57957D01*
X709730Y57957D01*
Y92732D01*
X710530Y93940D01*
X712207D01*
Y54529D01*
X712115Y54505D01*
X709655Y53084D01*
X707646Y51075D01*
X706225Y48615D01*
X705833Y47150D01*
X726727D01*
X726335Y48615D01*
X724914Y51075D01*
X722905Y53084D01*
X722893Y53091D01*
Y93940D01*
X727110D01*
Y99530D01*
X718820D01*
Y102230D01*
X716120D01*
Y110520D01*
X713178D01*
X712589Y111943D01*
X718086Y117440D01*
X727110D01*
Y134020D01*
X718086D01*
X716368Y135737D01*
X716958Y137160D01*
X726440D01*
X741680Y121920D01*
Y7885D01*
X463285D01*
X449580Y21590D01*
Y364490D01*
X431800Y382270D01*
X398716D01*
X392990Y387995D01*
X393972Y389192D01*
X394169Y389060D01*
X395448Y388806D01*
X398610D01*
Y391660D01*
X392203D01*
X392360Y390869D01*
X392492Y390672D01*
X391296Y389690D01*
X386353Y394633D01*
Y398306D01*
X386873D01*
X388151Y398560D01*
X389235Y399285D01*
X389960Y400369D01*
X390214Y401648D01*
Y406073D01*
X389960Y407351D01*
X389235Y408436D01*
X388151Y409160D01*
X386873Y409414D01*
X375148D01*
X373869Y409160D01*
X373559Y408953D01*
X354330D01*
Y411360D01*
X337182D01*
X335720Y411856D01*
Y413644D01*
X335257Y415371D01*
X334363Y416919D01*
X333985Y417297D01*
X334623Y418837D01*
X391874D01*
X392658Y417297D01*
X392360Y416851D01*
X392106Y415573D01*
Y411148D01*
X392360Y409869D01*
X393085Y408785D01*
X394169Y408060D01*
X395448Y407806D01*
X407173D01*
X408236Y408017D01*
X422250D01*
X422250Y408017D01*
X424295Y408424D01*
X426028Y409582D01*
X433038Y416592D01*
X433038Y416592D01*
X434196Y418326D01*
X434603Y420370D01*
Y428590D01*
X437550D01*
Y445170D01*
X434603D01*
Y453990D01*
X437550D01*
Y470570D01*
X420970D01*
Y453990D01*
X423917D01*
Y445170D01*
X420970D01*
Y428590D01*
X423917D01*
Y422583D01*
X420037Y418703D01*
X408236D01*
X407173Y418914D01*
X397383D01*
X396901Y420231D01*
X396890Y420454D01*
X405026Y428590D01*
X414050D01*
Y445170D01*
X397470D01*
Y436146D01*
X390847Y429523D01*
X334623D01*
X333985Y431063D01*
X334363Y431441D01*
X335257Y432989D01*
X335720Y434716D01*
Y436504D01*
X335257Y438231D01*
X334478Y439581D01*
Y489546D01*
X334871Y489809D01*
X335908Y491360D01*
X336272Y493190D01*
Y502490D01*
X335908Y504320D01*
X334871Y505871D01*
X333320Y506908D01*
X331490Y507272D01*
X327190D01*
X325360Y506908D01*
X323809Y505871D01*
X322772Y504320D01*
X322408Y502490D01*
Y493190D01*
X322772Y491360D01*
X323792Y489833D01*
Y440075D01*
X323497Y439779D01*
X322603Y438231D01*
X322140Y436504D01*
Y434716D01*
X322603Y432989D01*
X323497Y431441D01*
X323875Y431063D01*
X323237Y429523D01*
X301693D01*
X291374Y439841D01*
Y447547D01*
X291040Y449226D01*
X290089Y450649D01*
X288666Y451600D01*
X286987Y451934D01*
X276413D01*
X274734Y451600D01*
X273311Y450649D01*
X272360Y449226D01*
X272026Y447547D01*
Y436373D01*
X272360Y434694D01*
X273311Y433271D01*
X274734Y432320D01*
X276413Y431986D01*
X284119D01*
X295702Y420402D01*
X297435Y419244D01*
X299480Y418837D01*
X299480Y418837D01*
X323237D01*
X323875Y417297D01*
X323497Y416919D01*
X322603Y415371D01*
X322140Y413644D01*
Y411856D01*
X322603Y410129D01*
X323497Y408581D01*
X324761Y407317D01*
X325050Y407150D01*
X325745Y406109D01*
X328050Y403804D01*
Y391280D01*
X328050D01*
X328343Y390573D01*
X317500Y379730D01*
X298713D01*
Y391280D01*
X312030D01*
Y411360D01*
X285750D01*
Y406663D01*
X273993D01*
X268233Y412423D01*
Y456257D01*
X271152Y459176D01*
X273085Y459008D01*
X273311Y458671D01*
X274734Y457720D01*
X276413Y457386D01*
X286987D01*
X288666Y457720D01*
X290089Y458671D01*
X290477Y459250D01*
X292378Y459526D01*
X299280Y452624D01*
Y452496D01*
X299743Y450769D01*
X300637Y449221D01*
X301901Y447957D01*
X303449Y447063D01*
X305176Y446600D01*
X306964D01*
X308691Y447063D01*
X310239Y447957D01*
X311503Y449221D01*
X312397Y450769D01*
X312860Y452496D01*
Y454284D01*
X312397Y456011D01*
X311503Y457559D01*
X310239Y458823D01*
X308691Y459717D01*
X306964Y460180D01*
X306836D01*
X297465Y469551D01*
X295731Y470709D01*
X293687Y471116D01*
X293687Y471116D01*
X291374D01*
Y472948D01*
X291040Y474626D01*
X290089Y476049D01*
X288666Y477000D01*
X287043Y477323D01*
Y509357D01*
X291773Y514087D01*
X316510D01*
Y511140D01*
X333090D01*
Y527720D01*
X334490Y528057D01*
X338610D01*
X340010Y527720D01*
X340010Y526517D01*
Y511140D01*
X343227D01*
Y505750D01*
X342272Y504320D01*
X341908Y502490D01*
Y493190D01*
X342272Y491360D01*
X343309Y489809D01*
X344860Y488772D01*
X346690Y488408D01*
X350990D01*
X352820Y488772D01*
X354371Y489809D01*
X355408Y491360D01*
X355772Y493190D01*
Y502490D01*
X355408Y504320D01*
X354371Y505871D01*
X353913Y506178D01*
Y511140D01*
X356590D01*
Y526517D01*
X356590Y527720D01*
X357990Y528057D01*
X400377D01*
X423917Y504517D01*
D02*
G37*
G36*
X589280Y353060D02*
X633315Y309025D01*
X632725Y307603D01*
X584650D01*
X584559Y307693D01*
X583011Y308587D01*
X581284Y309050D01*
X579496D01*
X577769Y308587D01*
X576221Y307693D01*
X574957Y306429D01*
X574063Y304881D01*
X573600Y303154D01*
Y301366D01*
X574063Y299639D01*
X574957Y298091D01*
X576221Y296827D01*
X577769Y295933D01*
X579496Y295470D01*
X581284D01*
X583011Y295933D01*
X584559Y296827D01*
X584650Y296917D01*
X849957D01*
X860797Y286077D01*
Y216843D01*
X857367Y213413D01*
X856650Y213710D01*
Y213710D01*
X840070D01*
Y197130D01*
X843017D01*
Y158750D01*
X843017Y158750D01*
X843424Y156706D01*
X844582Y154972D01*
X858552Y141002D01*
X858552Y141002D01*
X860285Y139844D01*
X862330Y139437D01*
X862330Y139437D01*
X984740D01*
Y136050D01*
X993030D01*
Y133350D01*
X995730D01*
Y123560D01*
X1001320D01*
X1001320Y123560D01*
X1002740D01*
Y123560D01*
X1002860Y123560D01*
X1005687D01*
Y118933D01*
X1002107Y115353D01*
X989813D01*
X988368Y115065D01*
X987143Y114247D01*
X986325Y113022D01*
X986038Y111578D01*
Y104603D01*
X986325Y103158D01*
X987143Y101933D01*
X988368Y101115D01*
X989813Y100828D01*
X1005888D01*
X1007332Y101115D01*
X1008557Y101933D01*
X1009375Y103158D01*
X1009663Y104603D01*
Y107797D01*
X1014808Y112942D01*
X1014808Y112942D01*
X1015966Y114676D01*
X1016373Y116720D01*
X1016373Y116720D01*
Y123560D01*
X1019320D01*
Y143140D01*
X1015503D01*
Y196020D01*
X1015400Y196536D01*
Y207360D01*
X998820D01*
Y198336D01*
X987551Y187067D01*
X986420Y186200D01*
Y186200D01*
X986420Y186200D01*
X966840D01*
Y183253D01*
X959750D01*
Y186200D01*
X955303D01*
Y191410D01*
X988730D01*
Y218490D01*
X908650D01*
Y191410D01*
X944617D01*
Y186200D01*
X940170D01*
Y169740D01*
X940170Y169620D01*
Y168200D01*
X940170Y168080D01*
Y162610D01*
X949960D01*
Y157210D01*
X940170D01*
Y151663D01*
X940170Y151620D01*
X940067Y150123D01*
X864543D01*
X853703Y160963D01*
Y197130D01*
X856650D01*
Y198571D01*
X856930Y200077D01*
X858975Y200484D01*
X860708Y201642D01*
X869918Y210852D01*
X871076Y212586D01*
X871483Y214630D01*
X871483Y214630D01*
Y288290D01*
Y304800D01*
X1121836Y304800D01*
X1122474Y303260D01*
X1113822Y294608D01*
X1112664Y292875D01*
X1112257Y290830D01*
X1112257Y290830D01*
Y280180D01*
X1107810D01*
Y277178D01*
X1103260D01*
Y280180D01*
X1083680D01*
Y277178D01*
X1080400D01*
Y280070D01*
X1060820D01*
Y277123D01*
X1052644D01*
Y279683D01*
X1052390Y280961D01*
X1051665Y282045D01*
X1050581Y282770D01*
X1049303Y283024D01*
X1044878D01*
X1043599Y282770D01*
X1043554Y282740D01*
X1042340Y282133D01*
X1041126Y282740D01*
X1041081Y282770D01*
X1039802Y283024D01*
X1035378D01*
X1034099Y282770D01*
X1034054Y282740D01*
X1032840Y282133D01*
X1031626Y282740D01*
X1031581Y282770D01*
X1030790Y282927D01*
Y273170D01*
X1028090D01*
Y270470D01*
X1022536D01*
Y266658D01*
X1021573Y265484D01*
X1016671D01*
X1015630Y266525D01*
Y277640D01*
X996050D01*
Y273724D01*
X988730D01*
Y278490D01*
X908650D01*
Y251410D01*
X988730D01*
Y264976D01*
X996050D01*
Y261180D01*
X996050Y261060D01*
X996050D01*
Y259640D01*
X996050D01*
Y243060D01*
X1015630D01*
Y246976D01*
X1022536D01*
Y243558D01*
X1022790Y242279D01*
X1023515Y241195D01*
X1024599Y240470D01*
X1025878Y240216D01*
X1030303D01*
X1031581Y240470D01*
X1031626Y240500D01*
X1032840Y241107D01*
X1034054Y240500D01*
X1034099Y240470D01*
X1035378Y240216D01*
X1038892D01*
X1039529Y238676D01*
X1031714Y230860D01*
X1021680D01*
Y227913D01*
X1015400D01*
Y230860D01*
X998820D01*
Y214280D01*
X1015400D01*
Y217227D01*
X1021680D01*
Y214280D01*
X1038260D01*
Y224314D01*
X1044270Y230324D01*
X1045810Y229686D01*
Y214280D01*
X1062390D01*
Y217227D01*
X1068670D01*
Y214280D01*
X1085250D01*
Y230860D01*
X1068670D01*
Y227913D01*
X1062390D01*
Y230860D01*
X1060453D01*
Y244102D01*
X1060820Y245490D01*
X1061993Y245490D01*
X1067910D01*
Y253780D01*
X1070610D01*
Y256480D01*
X1080400D01*
Y261950D01*
X1080400Y262070D01*
Y263490D01*
X1080400Y263610D01*
Y266492D01*
X1083680D01*
Y263720D01*
X1083680Y263600D01*
X1083680D01*
Y262180D01*
X1083680D01*
Y256590D01*
X1093470D01*
Y253890D01*
X1096170D01*
Y245600D01*
X1100577D01*
Y238011D01*
X1090413Y227847D01*
X1089476Y226444D01*
X1089147Y224790D01*
Y207531D01*
X1086790Y205174D01*
X1085250Y205812D01*
Y207360D01*
X1068670D01*
Y190780D01*
X1085250D01*
Y195035D01*
X1087088D01*
X1088743Y195364D01*
X1090145Y196301D01*
X1096527Y202683D01*
X1097464Y204086D01*
X1097793Y205740D01*
Y222999D01*
X1107957Y233163D01*
X1108894Y234566D01*
X1109223Y236220D01*
Y245600D01*
X1114900D01*
Y253890D01*
X1117600D01*
Y256590D01*
X1127390D01*
Y262060D01*
X1127390Y262180D01*
X1127390D01*
Y263600D01*
X1127390D01*
Y280180D01*
X1122943D01*
Y288617D01*
X1129533Y295207D01*
X1138040D01*
Y287410D01*
X1158120D01*
Y304800D01*
X1176260D01*
Y299080D01*
X1193800D01*
X1211340D01*
Y304800D01*
X1219200D01*
Y129540D01*
X1207770Y118110D01*
X1202090D01*
Y123030D01*
X1193800D01*
X1185510D01*
Y118110D01*
X1178560D01*
X1164590Y104140D01*
Y90170D01*
X1131570D01*
X1117600Y76200D01*
Y7885D01*
X773430D01*
Y153670D01*
X746760Y180340D01*
Y181610D01*
X738579D01*
X737456Y182360D01*
X735778Y182694D01*
X726233D01*
X726140Y182713D01*
X726140Y182713D01*
X722733D01*
X719718Y185728D01*
Y189598D01*
X719995Y189810D01*
X722076Y189467D01*
X722101Y189431D01*
X723524Y188480D01*
X725203Y188146D01*
X727790D01*
Y198120D01*
Y208094D01*
X725203D01*
X723524Y207760D01*
X722101Y206810D01*
X722076Y206773D01*
X719995Y206430D01*
X719718Y206642D01*
Y217770D01*
X727110D01*
Y234350D01*
X718086D01*
X712589Y239847D01*
X713178Y241270D01*
X727110D01*
Y246117D01*
X785187D01*
X801107Y230197D01*
Y146050D01*
X801107Y146050D01*
X801514Y144005D01*
X802672Y142272D01*
X824262Y120682D01*
X825995Y119524D01*
X828040Y119117D01*
X828040Y119117D01*
X882977D01*
X897627Y104467D01*
Y101320D01*
X894680D01*
Y84740D01*
X911260D01*
Y84937D01*
X916040D01*
Y82110D01*
X916040Y81990D01*
Y80570D01*
X916040Y80450D01*
Y74980D01*
X925830D01*
Y72280D01*
D01*
Y74980D01*
X935620D01*
Y80450D01*
X935620Y80570D01*
Y81990D01*
X935620Y82110D01*
Y84987D01*
X942480D01*
Y81090D01*
X963725D01*
X964090Y81017D01*
X964090Y81017D01*
X986154D01*
X986325Y80158D01*
X987143Y78933D01*
X988368Y78115D01*
X989813Y77828D01*
X1005888D01*
X1007332Y78115D01*
X1008557Y78933D01*
X1009375Y80158D01*
X1009584Y81205D01*
X1047715D01*
Y71440D01*
X1048091Y69552D01*
X1049161Y67951D01*
X1050762Y66881D01*
X1052650Y66505D01*
X1066450D01*
X1068338Y66881D01*
X1069939Y67951D01*
X1071009Y69552D01*
X1071385Y71440D01*
Y98740D01*
X1071009Y100628D01*
X1069939Y102229D01*
X1068338Y103299D01*
X1066450Y103675D01*
X1052650D01*
X1050762Y103299D01*
X1049161Y102229D01*
X1048091Y100628D01*
X1047715Y98740D01*
Y88975D01*
X1009584D01*
X1009375Y90022D01*
X1008557Y91247D01*
X1007332Y92065D01*
X1005888Y92353D01*
X989813D01*
X988368Y92065D01*
X987825Y91703D01*
X977760D01*
Y99570D01*
X942480D01*
Y95673D01*
X935620D01*
Y98570D01*
X935620Y98570D01*
X935620D01*
X936540Y99675D01*
X943106Y106240D01*
X943234D01*
X944961Y106703D01*
X946509Y107597D01*
X947773Y108861D01*
X948667Y110409D01*
X949130Y112136D01*
Y113924D01*
X948667Y115651D01*
X947773Y117199D01*
X946509Y118463D01*
X944961Y119357D01*
X943234Y119820D01*
X941446D01*
X939719Y119357D01*
X938171Y118463D01*
X936907Y117199D01*
X936013Y115651D01*
X935550Y113924D01*
Y113796D01*
X925760Y104005D01*
X924602Y102272D01*
X924195Y100228D01*
X924195Y100227D01*
Y98570D01*
X916040D01*
Y95623D01*
X911260D01*
Y101320D01*
X908313D01*
Y106680D01*
X907906Y108725D01*
X906748Y110458D01*
X906748Y110458D01*
X888968Y128238D01*
X887235Y129396D01*
X885190Y129803D01*
X885190Y129803D01*
X830253D01*
X811793Y148263D01*
Y232410D01*
X811793Y232410D01*
X811386Y234455D01*
X810228Y236188D01*
X810228Y236188D01*
X791178Y255238D01*
X789445Y256396D01*
X787400Y256803D01*
X787400Y256803D01*
X727110D01*
Y257850D01*
X716286D01*
X716017Y257904D01*
X714651Y258816D01*
X712607Y259223D01*
X712607Y259223D01*
X675200D01*
X673156Y258816D01*
X673132Y258800D01*
X663540D01*
Y249776D01*
X660070Y246306D01*
X658530Y246944D01*
Y259120D01*
X655163D01*
Y263012D01*
X655163Y263012D01*
X654760Y265039D01*
Y265312D01*
X653878Y267440D01*
X652250Y269069D01*
X650122Y269950D01*
X647818D01*
X645690Y269069D01*
X644062Y267440D01*
X643180Y265312D01*
Y263008D01*
X644062Y260880D01*
X644282Y260660D01*
X644004Y259120D01*
X641950D01*
Y245373D01*
X579113D01*
X574710Y249776D01*
Y258800D01*
X569823D01*
X567035Y261588D01*
X565301Y262746D01*
X563880Y263029D01*
Y353060D01*
X589280D01*
D02*
G37*
G36*
X686639Y246997D02*
X686528Y246440D01*
Y242140D01*
X686892Y240310D01*
X687929Y238759D01*
X689480Y237722D01*
X691310Y237358D01*
X697505D01*
X697560Y237347D01*
X697560Y237347D01*
X699977D01*
X710530Y226794D01*
Y225292D01*
X709439Y223660D01*
X709032Y221615D01*
X709032Y221615D01*
Y208585D01*
X707610Y207996D01*
X704818Y210788D01*
X703085Y211946D01*
X701040Y212353D01*
X701040Y212353D01*
X658803D01*
X655583Y215573D01*
Y219040D01*
X658530D01*
Y234687D01*
X661350D01*
X661350Y234687D01*
X662000Y234817D01*
X663540Y233553D01*
Y218720D01*
X680120D01*
Y220557D01*
X687061D01*
X687929Y219259D01*
X689480Y218222D01*
X691310Y217858D01*
X700610D01*
X702440Y218222D01*
X703991Y219259D01*
X705028Y220810D01*
X705392Y222640D01*
Y226940D01*
X705028Y228770D01*
X703991Y230321D01*
X702440Y231358D01*
X700610Y231722D01*
X691310D01*
X689480Y231358D01*
X689308Y231243D01*
X680120D01*
Y235300D01*
X666354D01*
X665716Y236840D01*
X671096Y242220D01*
X680120D01*
Y248537D01*
X685375D01*
X686639Y246997D01*
D02*
G37*
G36*
X576900Y234687D02*
X576900Y234687D01*
X641950D01*
Y219040D01*
X644897D01*
Y213360D01*
X644897Y213360D01*
X645304Y211315D01*
X646462Y209582D01*
X652812Y203232D01*
X652812Y203232D01*
X654546Y202074D01*
X656590Y201667D01*
X698827D01*
X708318Y192176D01*
X708238Y191765D01*
X706570Y191255D01*
X699738Y198088D01*
X698005Y199246D01*
X695960Y199653D01*
X695960Y199653D01*
X643164D01*
Y203708D01*
X642830Y205386D01*
X641880Y206810D01*
X640456Y207760D01*
X638778Y208094D01*
X628203D01*
X626524Y207760D01*
X625101Y206810D01*
X624150Y205386D01*
X623816Y203708D01*
Y192533D01*
X624150Y190854D01*
X625101Y189431D01*
X626524Y188480D01*
X628203Y188146D01*
X638778D01*
X640456Y188480D01*
X641186Y188967D01*
X693747D01*
X699564Y183150D01*
X698926Y181610D01*
X641579D01*
X640456Y182360D01*
X638778Y182694D01*
X628203D01*
X626524Y182360D01*
X625401Y181610D01*
X588719D01*
X587596Y182360D01*
X585918Y182694D01*
X578036D01*
X573859Y186871D01*
X574618Y188290D01*
X575343Y188146D01*
X577930D01*
Y195420D01*
X570956D01*
Y193308D01*
X569469Y192403D01*
X569223Y192551D01*
Y194310D01*
X569223Y194310D01*
X569223Y194310D01*
Y218720D01*
X574710D01*
Y233553D01*
X576250Y234817D01*
X576900Y234687D01*
D02*
G37*
G36*
X1004817Y187210D02*
Y150232D01*
X1003459Y149506D01*
X1003145Y149716D01*
X1001100Y150123D01*
X1001100Y150123D01*
X986523D01*
X986420Y151620D01*
X986420Y151663D01*
Y157210D01*
X976630D01*
Y162610D01*
X986420D01*
Y168080D01*
X986420Y168200D01*
Y169620D01*
X986420Y169740D01*
Y174735D01*
X988118D01*
X988118Y174735D01*
X990162Y175142D01*
X991896Y176300D01*
X1003395Y187799D01*
X1004817Y187210D01*
D02*
G37*
G36*
X1289711Y37754D02*
X1289760Y37509D01*
X1289410Y33070D01*
X1288314Y28502D01*
X1286516Y24162D01*
X1284465Y20815D01*
X1276779Y13129D01*
X1273432Y11078D01*
X1269092Y9280D01*
X1264523Y8183D01*
X1260917Y7900D01*
X1259840Y8346D01*
Y7887D01*
X1259838Y7885D01*
X1125220D01*
Y57150D01*
X1140460Y72390D01*
X1172210D01*
Y96520D01*
X1184087Y108397D01*
X1185510Y107808D01*
Y104930D01*
X1193800D01*
X1202090D01*
Y110490D01*
X1289711D01*
Y37754D01*
D02*
G37*
%LPC*%
G36*
X1259397Y1004270D02*
X1255203D01*
X1251090Y1003452D01*
X1247215Y1001847D01*
X1243728Y999517D01*
X1240763Y996552D01*
X1238433Y993065D01*
X1236828Y989190D01*
X1236010Y985077D01*
Y980883D01*
X1236828Y976770D01*
X1238433Y972895D01*
X1240763Y969408D01*
X1243728Y966443D01*
X1247215Y964113D01*
X1251090Y962508D01*
X1255203Y961690D01*
X1259397D01*
X1263510Y962508D01*
X1267385Y964113D01*
X1270872Y966443D01*
X1273837Y969408D01*
X1276167Y972895D01*
X1277772Y976770D01*
X1278590Y980883D01*
Y985077D01*
X1277772Y989190D01*
X1276167Y993065D01*
X1273837Y996552D01*
X1270872Y999517D01*
X1267385Y1001847D01*
X1263510Y1003452D01*
X1259397Y1004270D01*
D02*
G37*
G36*
X897544Y961872D02*
X891954D01*
Y956282D01*
X897544D01*
Y961872D01*
D02*
G37*
G36*
X877224D02*
X871634D01*
Y956282D01*
X877224D01*
Y961872D01*
D02*
G37*
G36*
X856904D02*
X851314D01*
Y956282D01*
X856904D01*
Y961872D01*
D02*
G37*
G36*
X836584D02*
X830994D01*
Y956282D01*
X836584D01*
Y961872D01*
D02*
G37*
G36*
X816264D02*
X810674D01*
Y956282D01*
X816264D01*
Y961872D01*
D02*
G37*
G36*
X886554D02*
X880964D01*
Y956282D01*
X886554D01*
Y961872D01*
D02*
G37*
G36*
X866234D02*
X860644D01*
Y956282D01*
X866234D01*
Y961872D01*
D02*
G37*
G36*
X845914D02*
X840324D01*
Y956282D01*
X845914D01*
Y961872D01*
D02*
G37*
G36*
X825594D02*
X820004D01*
Y956282D01*
X825594D01*
Y961872D01*
D02*
G37*
G36*
X917834Y979610D02*
X916046D01*
X914319Y979147D01*
X912771Y978253D01*
X911507Y976989D01*
X910613Y975441D01*
X910150Y973714D01*
Y971926D01*
X910613Y970199D01*
X911507Y968651D01*
X911724Y968433D01*
Y961872D01*
X908904D01*
Y945292D01*
X925484D01*
Y948239D01*
X929224D01*
Y945292D01*
X945804D01*
Y948239D01*
X949544D01*
Y945292D01*
X966124D01*
Y961872D01*
X949544D01*
Y958925D01*
X945804D01*
Y961872D01*
X929224D01*
Y958925D01*
X925484D01*
Y961872D01*
X922410D01*
Y968714D01*
X923267Y970199D01*
X923730Y971926D01*
Y973714D01*
X923267Y975441D01*
X922373Y976989D01*
X921109Y978253D01*
X919561Y979147D01*
X917834Y979610D01*
D02*
G37*
G36*
X897544Y950882D02*
X891954D01*
Y945292D01*
X897544D01*
Y950882D01*
D02*
G37*
G36*
X886554D02*
X880964D01*
Y945292D01*
X886554D01*
Y950882D01*
D02*
G37*
G36*
X877224D02*
X871634D01*
Y945292D01*
X877224D01*
Y950882D01*
D02*
G37*
G36*
X866234D02*
X860644D01*
Y945292D01*
X866234D01*
Y950882D01*
D02*
G37*
G36*
X856904D02*
X851314D01*
Y945292D01*
X856904D01*
Y950882D01*
D02*
G37*
G36*
X845914D02*
X840324D01*
Y945292D01*
X845914D01*
Y950882D01*
D02*
G37*
G36*
X836584D02*
X830994D01*
Y945292D01*
X836584D01*
Y950882D01*
D02*
G37*
G36*
X825594D02*
X820004D01*
Y945292D01*
X825594D01*
Y950882D01*
D02*
G37*
G36*
X816264D02*
X810674D01*
Y945292D01*
X816264D01*
Y950882D01*
D02*
G37*
G36*
X1206730Y908260D02*
X1201090D01*
Y899320D01*
X1206730D01*
Y908260D01*
D02*
G37*
G36*
X1195690D02*
X1190050D01*
Y899320D01*
X1195690D01*
Y908260D01*
D02*
G37*
G36*
X1144540Y903870D02*
Y896780D01*
X1150130D01*
Y903870D01*
X1144540D01*
D02*
G37*
G36*
X1206730Y893920D02*
X1201090D01*
Y884980D01*
X1206730D01*
Y893920D01*
D02*
G37*
G36*
X1195690D02*
X1190050D01*
Y884980D01*
X1195690D01*
Y893920D01*
D02*
G37*
G36*
X1150130Y891380D02*
X1144540D01*
Y884290D01*
X1150130D01*
Y891380D01*
D02*
G37*
G36*
X903422Y842842D02*
X902182D01*
Y835202D01*
X903422D01*
Y842842D01*
D02*
G37*
G36*
X1177230Y908260D02*
X1160550D01*
Y884980D01*
X1163312D01*
Y880138D01*
X1163304Y880136D01*
X1160112Y878814D01*
X1157239Y876894D01*
X1154796Y874451D01*
X1152876Y871578D01*
X1151554Y868386D01*
X1150880Y864998D01*
Y861543D01*
X1151554Y858154D01*
X1152876Y854962D01*
X1154796Y852089D01*
X1157239Y849646D01*
X1160112Y847726D01*
X1163304Y846404D01*
X1166693Y845730D01*
X1170148D01*
X1173536Y846404D01*
X1176728Y847726D01*
X1179601Y849646D01*
X1180231Y850276D01*
X1181537Y849404D01*
X1180852Y847751D01*
X1180130Y844121D01*
Y840419D01*
X1180852Y836789D01*
X1182269Y833370D01*
X1184325Y830292D01*
X1186942Y827675D01*
X1190020Y825619D01*
X1193439Y824202D01*
X1197069Y823480D01*
X1200771D01*
X1204401Y824202D01*
X1207820Y825619D01*
X1210898Y827675D01*
X1213515Y830292D01*
X1215572Y833370D01*
X1216988Y836789D01*
X1217710Y840419D01*
Y844121D01*
X1216988Y847751D01*
X1215572Y851170D01*
X1213515Y854248D01*
X1210898Y856865D01*
X1207820Y858922D01*
X1204401Y860338D01*
X1200771Y861060D01*
X1197069D01*
X1193439Y860338D01*
X1190020Y858922D01*
X1186942Y856865D01*
X1186049Y855972D01*
X1184744Y856845D01*
X1185286Y858154D01*
X1185960Y861543D01*
Y864998D01*
X1185286Y868386D01*
X1183964Y871578D01*
X1182044Y874451D01*
X1179601Y876894D01*
X1176728Y878814D01*
X1173998Y879945D01*
Y884980D01*
X1177230D01*
Y908260D01*
D02*
G37*
G36*
X999718Y754542D02*
X994128D01*
Y748952D01*
X999718D01*
Y754542D01*
D02*
G37*
G36*
X988728D02*
X983138D01*
Y748952D01*
X988728D01*
Y754542D01*
D02*
G37*
G36*
X999718Y743552D02*
X994128D01*
Y737962D01*
X999718D01*
Y743552D01*
D02*
G37*
G36*
X988728D02*
X983138D01*
Y737962D01*
X988728D01*
Y743552D01*
D02*
G37*
G36*
X1041672Y736440D02*
X1036082D01*
Y729350D01*
X1041672D01*
Y736440D01*
D02*
G37*
G36*
X964962Y716672D02*
Y709582D01*
X970552D01*
Y716672D01*
X964962D01*
D02*
G37*
G36*
X970552Y704182D02*
X964962D01*
Y697092D01*
X970552D01*
Y704182D01*
D02*
G37*
G36*
X964962Y693812D02*
Y686722D01*
X970552D01*
Y693812D01*
X964962D01*
D02*
G37*
G36*
X1121760Y683930D02*
X1105180D01*
Y680081D01*
X1103640Y679497D01*
X1102441Y680189D01*
X1100714Y680652D01*
X1098926D01*
X1097199Y680189D01*
X1095651Y679295D01*
X1094387Y678031D01*
X1093493Y676483D01*
X1093030Y674756D01*
Y672968D01*
X1093493Y671241D01*
X1094387Y669693D01*
X1095651Y668429D01*
X1097199Y667535D01*
X1098926Y667072D01*
X1100714D01*
X1102441Y667535D01*
X1103640Y668227D01*
X1105180Y667643D01*
Y667350D01*
X1121760D01*
Y683930D01*
D02*
G37*
G36*
X970552Y681322D02*
X964962D01*
Y674232D01*
X970552D01*
Y681322D01*
D02*
G37*
G36*
X964962Y668412D02*
Y661322D01*
X970552D01*
Y668412D01*
X964962D01*
D02*
G37*
G36*
X970552Y655922D02*
X964962D01*
Y648832D01*
X970552D01*
Y655922D01*
D02*
G37*
G36*
X1100834Y661602D02*
X1099046D01*
X1097319Y661139D01*
X1095771Y660245D01*
X1094506Y658981D01*
X1093613Y657433D01*
X1093150Y655706D01*
Y653918D01*
X1093613Y652191D01*
X1094506Y650643D01*
X1095771Y649379D01*
X1097319Y648485D01*
X1099046Y648022D01*
X1100834D01*
X1102561Y648485D01*
X1103352Y648942D01*
X1103585Y648895D01*
X1105180D01*
Y644490D01*
X1121760D01*
Y661070D01*
X1105180D01*
Y661070D01*
X1103640Y660516D01*
X1102561Y661139D01*
X1100834Y661602D01*
D02*
G37*
G36*
X970552Y645552D02*
X964962D01*
Y638462D01*
X970552D01*
Y645552D01*
D02*
G37*
G36*
X466970Y985130D02*
X458630D01*
Y976790D01*
X466970D01*
Y985130D01*
D02*
G37*
G36*
X453230D02*
X444890D01*
Y976790D01*
X453230D01*
Y985130D01*
D02*
G37*
G36*
X517730Y972542D02*
X515780D01*
Y968310D01*
X522402D01*
X522148Y969590D01*
X521111Y971141D01*
X519560Y972178D01*
X517730Y972542D01*
D02*
G37*
G36*
X510380D02*
X508430D01*
X506600Y972178D01*
X505049Y971141D01*
X504012Y969590D01*
X503758Y968310D01*
X510380D01*
Y972542D01*
D02*
G37*
G36*
X466970Y971390D02*
X458630D01*
Y963050D01*
X466970D01*
Y971390D01*
D02*
G37*
G36*
X453230D02*
X444890D01*
Y963050D01*
X453230D01*
Y971390D01*
D02*
G37*
G36*
X522402Y962910D02*
X515780D01*
Y958678D01*
X517730D01*
X519560Y959042D01*
X521111Y960079D01*
X522148Y961630D01*
X522402Y962910D01*
D02*
G37*
G36*
X510380D02*
X503758D01*
X504012Y961630D01*
X505049Y960079D01*
X506600Y959042D01*
X508430Y958678D01*
X510380D01*
Y962910D01*
D02*
G37*
G36*
X622400Y956020D02*
X598320D01*
Y937940D01*
X622400D01*
Y956020D01*
D02*
G37*
G36*
X590400D02*
X566320D01*
Y937940D01*
X590400D01*
Y956020D01*
D02*
G37*
G36*
X411110Y819930D02*
X404020D01*
Y814340D01*
X411110D01*
Y819930D01*
D02*
G37*
G36*
X385710D02*
X378620D01*
Y814340D01*
X385710D01*
Y819930D01*
D02*
G37*
G36*
X398620D02*
X391530D01*
Y814340D01*
X398620D01*
Y819930D01*
D02*
G37*
G36*
X373220D02*
X366130D01*
Y814340D01*
X373220D01*
Y819930D01*
D02*
G37*
G36*
X256150Y986400D02*
X247810D01*
Y978060D01*
X256150D01*
Y986400D01*
D02*
G37*
G36*
X242410D02*
X234070D01*
Y978060D01*
X242410D01*
Y986400D01*
D02*
G37*
G36*
X120260D02*
X111920D01*
Y978060D01*
X120260D01*
Y986400D01*
D02*
G37*
G36*
X106520D02*
X98180D01*
Y978060D01*
X106520D01*
Y986400D01*
D02*
G37*
G36*
X322763D02*
X319857D01*
X317049Y985648D01*
X314531Y984194D01*
X312476Y982139D01*
X311022Y979621D01*
X310270Y976814D01*
Y973907D01*
X311022Y971099D01*
X312476Y968581D01*
X314531Y966526D01*
X317049Y965072D01*
X319857Y964320D01*
X322763D01*
X325571Y965072D01*
X328089Y966526D01*
X330144Y968581D01*
X331598Y971099D01*
X332350Y973907D01*
Y976814D01*
X331598Y979621D01*
X330144Y982139D01*
X328089Y984194D01*
X325571Y985648D01*
X322763Y986400D01*
D02*
G37*
G36*
X297363D02*
X294457D01*
X291649Y985648D01*
X289131Y984194D01*
X287076Y982139D01*
X285622Y979621D01*
X284870Y976814D01*
Y973907D01*
X285622Y971099D01*
X287076Y968581D01*
X289131Y966526D01*
X291649Y965072D01*
X294457Y964320D01*
X297363D01*
X300171Y965072D01*
X302689Y966526D01*
X304744Y968581D01*
X306198Y971099D01*
X306950Y973907D01*
Y976814D01*
X306198Y979621D01*
X304744Y982139D01*
X302689Y984194D01*
X300171Y985648D01*
X297363Y986400D01*
D02*
G37*
G36*
X256150Y972660D02*
X247810D01*
Y964320D01*
X256150D01*
Y972660D01*
D02*
G37*
G36*
X242410D02*
X234070D01*
Y964320D01*
X242410D01*
Y972660D01*
D02*
G37*
G36*
X186873Y986400D02*
X183967D01*
X181159Y985648D01*
X178641Y984194D01*
X176586Y982139D01*
X175132Y979621D01*
X174380Y976814D01*
Y973907D01*
X175132Y971099D01*
X176586Y968581D01*
X178641Y966526D01*
X181159Y965072D01*
X183967Y964320D01*
X186873D01*
X189681Y965072D01*
X192199Y966526D01*
X194254Y968581D01*
X195708Y971099D01*
X196460Y973907D01*
Y976814D01*
X195708Y979621D01*
X194254Y982139D01*
X192199Y984194D01*
X189681Y985648D01*
X186873Y986400D01*
D02*
G37*
G36*
X161474D02*
X158567D01*
X155759Y985648D01*
X153241Y984194D01*
X151186Y982139D01*
X149732Y979621D01*
X148980Y976814D01*
Y973907D01*
X149732Y971099D01*
X151186Y968581D01*
X153241Y966526D01*
X155759Y965072D01*
X158567Y964320D01*
X161474D01*
X164281Y965072D01*
X166799Y966526D01*
X168854Y968581D01*
X170308Y971099D01*
X171060Y973907D01*
Y976814D01*
X170308Y979621D01*
X168854Y982139D01*
X166799Y984194D01*
X164281Y985648D01*
X161474Y986400D01*
D02*
G37*
G36*
X106520Y972660D02*
X98180D01*
Y964320D01*
X106520D01*
Y972660D01*
D02*
G37*
G36*
X164846Y832104D02*
X155100D01*
Y829470D01*
X164846D01*
Y832104D01*
D02*
G37*
G36*
X149700D02*
X139954D01*
Y829470D01*
X149700D01*
Y832104D01*
D02*
G37*
G36*
X164846Y824070D02*
X155100D01*
Y821436D01*
X164846D01*
Y824070D01*
D02*
G37*
G36*
X149700D02*
X139954D01*
Y821436D01*
X149700D01*
Y824070D01*
D02*
G37*
G36*
X164846Y819404D02*
X155100D01*
Y816770D01*
X164846D01*
Y819404D01*
D02*
G37*
G36*
X149700D02*
X139954D01*
Y816770D01*
X149700D01*
Y819404D01*
D02*
G37*
G36*
X164846Y811370D02*
X155100D01*
Y808736D01*
X164846D01*
Y811370D01*
D02*
G37*
G36*
X149700D02*
X139954D01*
Y808736D01*
X149700D01*
Y811370D01*
D02*
G37*
G36*
X214122Y806704D02*
X204376D01*
Y804070D01*
X214122D01*
Y806704D01*
D02*
G37*
G36*
X198976D02*
X189230D01*
Y804070D01*
X198976D01*
Y806704D01*
D02*
G37*
G36*
X164846D02*
X155100D01*
Y804070D01*
X164846D01*
Y806704D01*
D02*
G37*
G36*
X149700D02*
X139954D01*
Y804070D01*
X149700D01*
Y806704D01*
D02*
G37*
G36*
X214122Y798670D02*
X204376D01*
Y796036D01*
X214122D01*
Y798670D01*
D02*
G37*
G36*
X198976D02*
X189230D01*
Y796036D01*
X198976D01*
Y798670D01*
D02*
G37*
G36*
X164846D02*
X155100D01*
Y796036D01*
X164846D01*
Y798670D01*
D02*
G37*
G36*
X149700D02*
X139954D01*
Y796036D01*
X149700D01*
Y798670D01*
D02*
G37*
G36*
X164846Y794004D02*
X155100D01*
Y791370D01*
X164846D01*
Y794004D01*
D02*
G37*
G36*
X149700D02*
X139954D01*
Y791370D01*
X149700D01*
Y794004D01*
D02*
G37*
G36*
X164846Y785970D02*
X155100D01*
Y783336D01*
X164846D01*
Y785970D01*
D02*
G37*
G36*
X149700D02*
X139954D01*
Y783336D01*
X149700D01*
Y785970D01*
D02*
G37*
G36*
X181570Y687333D02*
Y680880D01*
X188023D01*
X187760Y681862D01*
X186504Y684038D01*
X184728Y685814D01*
X182552Y687070D01*
X181570Y687333D01*
D02*
G37*
G36*
X176170D02*
X175188Y687070D01*
X173012Y685814D01*
X171236Y684038D01*
X169980Y681862D01*
X169717Y680880D01*
X176170D01*
Y687333D01*
D02*
G37*
G36*
X188023Y675480D02*
X181570D01*
Y669027D01*
X182552Y669290D01*
X184728Y670546D01*
X186504Y672322D01*
X187760Y674498D01*
X188023Y675480D01*
D02*
G37*
G36*
X176170D02*
X169717D01*
X169980Y674498D01*
X171236Y672322D01*
X173012Y670546D01*
X175188Y669290D01*
X176170Y669027D01*
Y675480D01*
D02*
G37*
G36*
X160530Y629750D02*
X151690D01*
Y620910D01*
X160530D01*
Y629750D01*
D02*
G37*
G36*
Y615510D02*
X151690D01*
Y606670D01*
X160530D01*
Y615510D01*
D02*
G37*
G36*
X563510Y907560D02*
X556420D01*
Y901970D01*
X563510D01*
Y907560D01*
D02*
G37*
G36*
X684160Y931910D02*
X677070D01*
Y926320D01*
X684160D01*
Y931910D01*
D02*
G37*
G36*
X671670D02*
X664580D01*
Y926320D01*
X671670D01*
Y931910D01*
D02*
G37*
G36*
X709306Y931766D02*
X702216D01*
Y926176D01*
X709306D01*
Y931766D01*
D02*
G37*
G36*
X696816D02*
X689726D01*
Y926176D01*
X696816D01*
Y931766D01*
D02*
G37*
G36*
X732320Y931578D02*
X725230D01*
Y925988D01*
X732320D01*
Y931578D01*
D02*
G37*
G36*
X719830D02*
X712740D01*
Y925988D01*
X719830D01*
Y931578D01*
D02*
G37*
G36*
X515020Y860780D02*
X509430D01*
Y855190D01*
X515020D01*
Y860780D01*
D02*
G37*
G36*
X686930Y878080D02*
X671990D01*
Y871540D01*
X686930D01*
Y878080D01*
D02*
G37*
G36*
X666590D02*
X651650D01*
Y871540D01*
X666590D01*
Y878080D01*
D02*
G37*
G36*
X644790Y869460D02*
X637700D01*
Y863870D01*
X644790D01*
Y869460D01*
D02*
G37*
G36*
X632300D02*
X625210D01*
Y863870D01*
X632300D01*
Y869460D01*
D02*
G37*
G36*
X686930Y866140D02*
X671990D01*
Y859600D01*
X686930D01*
Y866140D01*
D02*
G37*
G36*
X666590D02*
X651650D01*
Y859600D01*
X666590D01*
Y866140D01*
D02*
G37*
G36*
X720736Y849648D02*
X713646D01*
Y844058D01*
X720736D01*
Y849648D01*
D02*
G37*
G36*
X708246D02*
X701156D01*
Y844058D01*
X708246D01*
Y849648D01*
D02*
G37*
G36*
X720736Y735822D02*
X713646D01*
Y730232D01*
X720736D01*
Y735822D01*
D02*
G37*
G36*
X708246D02*
X701156D01*
Y730232D01*
X708246D01*
Y735822D01*
D02*
G37*
G36*
X656220Y771890D02*
X649130D01*
Y766300D01*
X656220D01*
Y771890D01*
D02*
G37*
G36*
X643730D02*
X636640D01*
Y766300D01*
X643730D01*
Y771890D01*
D02*
G37*
G36*
X656220Y715680D02*
X649130D01*
Y710090D01*
X656220D01*
Y715680D01*
D02*
G37*
G36*
X643730D02*
X636640D01*
Y710090D01*
X643730D01*
Y715680D01*
D02*
G37*
G36*
X536210Y667650D02*
Y660560D01*
X541800D01*
Y667650D01*
X536210D01*
D02*
G37*
G36*
X541800Y655160D02*
X536210D01*
Y648070D01*
X541800D01*
Y655160D01*
D02*
G37*
G36*
X536210Y644790D02*
Y637700D01*
X541800D01*
Y644790D01*
X536210D01*
D02*
G37*
G36*
X541800Y632300D02*
X536210D01*
Y625210D01*
X541800D01*
Y632300D01*
D02*
G37*
G36*
X512810Y621930D02*
X507220D01*
Y614840D01*
X512810D01*
Y621930D01*
D02*
G37*
G36*
X426560Y619600D02*
X419470D01*
Y614010D01*
X426560D01*
Y619600D01*
D02*
G37*
G36*
X394600Y619490D02*
X387510D01*
Y613900D01*
X394600D01*
Y619490D01*
D02*
G37*
G36*
X382110D02*
X375020D01*
Y613900D01*
X382110D01*
Y619490D01*
D02*
G37*
G36*
X367930D02*
X360840D01*
Y613900D01*
X367930D01*
Y619490D01*
D02*
G37*
G36*
X355440D02*
X348350D01*
Y613900D01*
X355440D01*
Y619490D01*
D02*
G37*
G36*
X512810Y609440D02*
X507220D01*
Y602350D01*
X512810D01*
Y609440D01*
D02*
G37*
G36*
X638440Y598950D02*
X631350D01*
Y593360D01*
X638440D01*
Y598950D01*
D02*
G37*
G36*
X625950D02*
X618860D01*
Y593360D01*
X625950D01*
Y598950D01*
D02*
G37*
G36*
X597880Y601884D02*
X593380D01*
X592096Y601629D01*
X591008Y600902D01*
X590281Y599814D01*
X590026Y598530D01*
Y588830D01*
X590281Y587546D01*
X591008Y586458D01*
X592096Y585731D01*
X593380Y585476D01*
X597880D01*
X599164Y585731D01*
X600252Y586458D01*
X600979Y587546D01*
X601235Y588830D01*
Y589286D01*
X603716D01*
X605397Y589620D01*
X606142Y590118D01*
X607092Y590511D01*
X608369Y591788D01*
X609060Y593457D01*
Y595263D01*
X608369Y596932D01*
X607092Y598209D01*
X605423Y598900D01*
X603617D01*
X602767Y598548D01*
X602617Y598546D01*
X601107Y599327D01*
X601065Y599383D01*
X600979Y599814D01*
X600252Y600902D01*
X599164Y601629D01*
X597880Y601884D01*
D02*
G37*
G36*
X467710Y584120D02*
X462370D01*
Y579280D01*
X467710D01*
Y584120D01*
D02*
G37*
G36*
X456970D02*
X451630D01*
Y579280D01*
X456970D01*
Y584120D01*
D02*
G37*
G36*
X467710Y573880D02*
X462370D01*
Y569040D01*
X467710D01*
Y573880D01*
D02*
G37*
G36*
X456970D02*
X451630D01*
Y569040D01*
X456970D01*
Y573880D01*
D02*
G37*
G36*
X809914Y693770D02*
X804324D01*
Y688180D01*
X809914D01*
Y693770D01*
D02*
G37*
G36*
X930032Y688942D02*
X922942D01*
Y683352D01*
X930032D01*
Y688942D01*
D02*
G37*
G36*
X917542D02*
X910452D01*
Y683352D01*
X917542D01*
Y688942D01*
D02*
G37*
G36*
X907172Y688722D02*
X900082D01*
Y683132D01*
X907172D01*
Y688722D01*
D02*
G37*
G36*
X894682D02*
X887592D01*
Y683132D01*
X894682D01*
Y688722D01*
D02*
G37*
G36*
X884312D02*
X877222D01*
Y683132D01*
X884312D01*
Y688722D01*
D02*
G37*
G36*
X871822D02*
X864732D01*
Y683132D01*
X871822D01*
Y688722D01*
D02*
G37*
G36*
X856372D02*
X849282D01*
Y683132D01*
X856372D01*
Y688722D01*
D02*
G37*
G36*
X843882D02*
X836792D01*
Y683132D01*
X843882D01*
Y688722D01*
D02*
G37*
G36*
X833512D02*
X826422D01*
Y683132D01*
X833512D01*
Y688722D01*
D02*
G37*
G36*
X821022D02*
X813932D01*
Y683132D01*
X821022D01*
Y688722D01*
D02*
G37*
G36*
X809914Y682780D02*
X804324D01*
Y677190D01*
X809914D01*
Y682780D01*
D02*
G37*
G36*
X813724Y673746D02*
X808134D01*
Y666656D01*
X813724D01*
Y673746D01*
D02*
G37*
G36*
Y661256D02*
X808134D01*
Y654166D01*
X813724D01*
Y661256D01*
D02*
G37*
G36*
X813580Y650886D02*
X807990D01*
Y643796D01*
X813580D01*
Y650886D01*
D02*
G37*
G36*
Y638396D02*
X807990D01*
Y631306D01*
X813580D01*
Y638396D01*
D02*
G37*
G36*
X1109980Y545940D02*
X1099540D01*
Y538600D01*
X1109980D01*
Y545940D01*
D02*
G37*
G36*
X1094140D02*
X1083700D01*
Y538600D01*
X1094140D01*
Y545940D01*
D02*
G37*
G36*
X970534Y506857D02*
X960788D01*
Y504350D01*
X970534D01*
Y506857D01*
D02*
G37*
G36*
X955388D02*
X945642D01*
Y504350D01*
X955388D01*
Y506857D01*
D02*
G37*
G36*
X970534Y498950D02*
X960788D01*
Y496443D01*
X970534D01*
Y498950D01*
D02*
G37*
G36*
X955388D02*
X945642D01*
Y496443D01*
X955388D01*
Y498950D01*
D02*
G37*
G36*
X974470Y449210D02*
Y442120D01*
X980060D01*
Y449210D01*
X974470D01*
D02*
G37*
G36*
X1002700Y446120D02*
X997110D01*
Y440530D01*
X1002700D01*
Y446120D01*
D02*
G37*
G36*
X991710D02*
X986120D01*
Y440530D01*
X991710D01*
Y446120D01*
D02*
G37*
G36*
X1034680Y440420D02*
X1027590D01*
Y434830D01*
X1034680D01*
Y440420D01*
D02*
G37*
G36*
X1022190D02*
X1015100D01*
Y434830D01*
X1022190D01*
Y440420D01*
D02*
G37*
G36*
X980060Y436720D02*
X974470D01*
Y429630D01*
X980060D01*
Y436720D01*
D02*
G37*
G36*
X1002700Y435130D02*
X997110D01*
Y429540D01*
X1002700D01*
Y435130D01*
D02*
G37*
G36*
X991710D02*
X986120D01*
Y429540D01*
X991710D01*
Y435130D01*
D02*
G37*
G36*
X1109980Y432950D02*
X1099540D01*
Y425610D01*
X1109980D01*
Y432950D01*
D02*
G37*
G36*
X1094140D02*
X1083700D01*
Y425610D01*
X1094140D01*
Y432950D01*
D02*
G37*
G36*
X1109980Y420210D02*
X1099540D01*
Y412870D01*
X1109980D01*
Y420210D01*
D02*
G37*
G36*
X1094140D02*
X1083700D01*
Y412870D01*
X1094140D01*
Y420210D01*
D02*
G37*
G36*
X786970Y531442D02*
X785020D01*
Y527210D01*
X791643D01*
X791388Y528490D01*
X790351Y530041D01*
X788800Y531078D01*
X786970Y531442D01*
D02*
G37*
G36*
X779620D02*
X777670D01*
X775840Y531078D01*
X774289Y530041D01*
X773252Y528490D01*
X772998Y527210D01*
X779620D01*
Y531442D01*
D02*
G37*
G36*
X791643Y521810D02*
X785020D01*
Y517578D01*
X786970D01*
X788800Y517942D01*
X790351Y518979D01*
X791388Y520530D01*
X791643Y521810D01*
D02*
G37*
G36*
X779620D02*
X772998D01*
X773252Y520530D01*
X774289Y518979D01*
X775840Y517942D01*
X777670Y517578D01*
X779620D01*
Y521810D01*
D02*
G37*
G36*
X783971Y508127D02*
X775622D01*
Y505620D01*
X783971D01*
Y508127D01*
D02*
G37*
G36*
X770222D02*
X761873D01*
Y505620D01*
X770222D01*
Y508127D01*
D02*
G37*
G36*
X783971Y500220D02*
X775622D01*
Y497713D01*
X783971D01*
Y500220D01*
D02*
G37*
G36*
X770222D02*
X761873D01*
Y497713D01*
X770222D01*
Y500220D01*
D02*
G37*
G36*
X817280Y530260D02*
X800700D01*
Y513680D01*
X803647D01*
Y500192D01*
X803647Y500192D01*
X804054Y498148D01*
X804752Y497103D01*
X803929Y495563D01*
X772922D01*
X772240Y495427D01*
X761873D01*
Y485013D01*
X772240D01*
X772922Y484877D01*
X824738D01*
X825420Y485013D01*
X828817D01*
X829495Y483493D01*
X828889Y482727D01*
X813689D01*
Y472313D01*
X835787D01*
Y476247D01*
X841321Y481781D01*
X843880D01*
Y474246D01*
X839797Y470163D01*
X824738D01*
X824056Y470027D01*
X813689D01*
Y459613D01*
X824056D01*
X824738Y459477D01*
X842010D01*
X842010Y459477D01*
X844055Y459884D01*
X845788Y461042D01*
X851436Y466690D01*
X860460D01*
Y469637D01*
X865367D01*
X868920Y466084D01*
Y457460D01*
X891300D01*
Y473640D01*
X876476D01*
X871358Y478758D01*
X869625Y479916D01*
X867990Y480241D01*
X868142Y481781D01*
X894960D01*
X896366Y481457D01*
Y471043D01*
X921258D01*
Y481457D01*
X913441D01*
Y483743D01*
X921258D01*
Y494157D01*
X896366D01*
Y491039D01*
X892624D01*
X891300Y491560D01*
Y496274D01*
X908779D01*
X908779Y496274D01*
X909627Y496443D01*
X921258D01*
Y506857D01*
X909494D01*
X908812Y506993D01*
X908646Y506960D01*
X891300D01*
Y507740D01*
X868920D01*
Y504408D01*
X860460D01*
Y506770D01*
X851400D01*
X849775Y507856D01*
X847730Y508263D01*
X847730Y508263D01*
X824738D01*
X824056Y508127D01*
X814333D01*
Y513680D01*
X817280D01*
Y530260D01*
D02*
G37*
G36*
X902410Y468893D02*
X901728Y468757D01*
X896366D01*
Y458343D01*
X897034D01*
Y445627D01*
X896944Y445536D01*
X896050Y443988D01*
X895587Y442261D01*
Y440473D01*
X896050Y438746D01*
X896944Y437198D01*
X898208Y435933D01*
X899756Y435040D01*
X901483Y434577D01*
X903271D01*
X904998Y435040D01*
X906546Y435933D01*
X907810Y437198D01*
X908704Y438746D01*
X909167Y440473D01*
Y442261D01*
X908704Y443988D01*
X907810Y445536D01*
X907720Y445627D01*
Y458207D01*
X908812D01*
X909494Y458343D01*
X921258D01*
Y468757D01*
X909494D01*
X908812Y468893D01*
X902410D01*
X902410Y468893D01*
D02*
G37*
G36*
X783971Y444627D02*
X761873D01*
Y434213D01*
X783971D01*
Y444627D01*
D02*
G37*
G36*
X824738Y457463D02*
X772922D01*
X772240Y457327D01*
X761873D01*
Y446913D01*
X772240D01*
X772922Y446777D01*
X800397D01*
X801068Y445237D01*
X800244Y444005D01*
X799837Y441960D01*
X799837Y441960D01*
Y416280D01*
X796890D01*
Y399700D01*
X813470D01*
Y416280D01*
X810523D01*
Y439747D01*
X812266Y441491D01*
X813689Y440901D01*
Y434213D01*
X824056D01*
X824738Y434077D01*
X848791D01*
X848791Y434077D01*
X849109Y434141D01*
X850006Y433900D01*
X851794D01*
X853521Y434363D01*
X855069Y435257D01*
X856333Y436521D01*
X857227Y438069D01*
X857690Y439796D01*
Y441584D01*
X857227Y443311D01*
X856333Y444859D01*
X855069Y446123D01*
X853521Y447017D01*
X851794Y447480D01*
X850006D01*
X848279Y447017D01*
X846731Y446123D01*
X845467Y444859D01*
X845411Y444763D01*
X824738D01*
X824056Y444627D01*
X818404D01*
X817643Y446167D01*
X818110Y446777D01*
X824738D01*
X825420Y446913D01*
X835787D01*
Y457327D01*
X825420D01*
X824738Y457463D01*
D02*
G37*
G36*
X783971Y431927D02*
X761873D01*
Y421513D01*
X783971D01*
Y431927D01*
D02*
G37*
G36*
X784430Y409112D02*
X782480D01*
Y404880D01*
X789102D01*
X788848Y406160D01*
X787811Y407711D01*
X786260Y408748D01*
X784430Y409112D01*
D02*
G37*
G36*
X777080D02*
X775130D01*
X773300Y408748D01*
X771749Y407711D01*
X770712Y406160D01*
X770458Y404880D01*
X777080D01*
Y409112D01*
D02*
G37*
G36*
X789102Y399480D02*
X782480D01*
Y395248D01*
X784430D01*
X786260Y395612D01*
X787811Y396649D01*
X788848Y398200D01*
X789102Y399480D01*
D02*
G37*
G36*
X777080D02*
X770458D01*
X770712Y398200D01*
X771749Y396649D01*
X773300Y395612D01*
X775130Y395248D01*
X777080D01*
Y399480D01*
D02*
G37*
G36*
X813470Y392780D02*
X796890D01*
Y388883D01*
X786806D01*
X786260Y389248D01*
X784430Y389612D01*
X775130D01*
X773300Y389248D01*
X771749Y388211D01*
X770712Y386660D01*
X770348Y384830D01*
Y380530D01*
X770712Y378700D01*
X771749Y377149D01*
X773300Y376112D01*
X775130Y375748D01*
X784430D01*
X786260Y376112D01*
X787811Y377149D01*
X788512Y378197D01*
X796890D01*
Y376200D01*
X813470D01*
Y392780D01*
D02*
G37*
G36*
X837576Y381856D02*
X830486D01*
Y376266D01*
X837576D01*
Y381856D01*
D02*
G37*
G36*
X825086D02*
X817996D01*
Y376266D01*
X825086D01*
Y381856D01*
D02*
G37*
G36*
X100890Y629434D02*
Y620910D01*
X109414D01*
X108944Y622664D01*
X107424Y625296D01*
X105276Y627444D01*
X102644Y628964D01*
X100890Y629434D01*
D02*
G37*
G36*
X95490Y629434D02*
X93736Y628964D01*
X91104Y627444D01*
X88956Y625296D01*
X87437Y622664D01*
X86966Y620910D01*
X95490D01*
Y629434D01*
D02*
G37*
G36*
Y615510D02*
X86966D01*
X87437Y613756D01*
X88956Y611124D01*
X91104Y608976D01*
X93736Y607456D01*
X95490Y606986D01*
Y615510D01*
D02*
G37*
G36*
X109414D02*
X100890D01*
Y606986D01*
X102644Y607456D01*
X105276Y608976D01*
X107424Y611124D01*
X108944Y613756D01*
X109414Y615510D01*
D02*
G37*
G36*
X68310Y564780D02*
X62720D01*
Y557690D01*
X68310D01*
Y564780D01*
D02*
G37*
G36*
Y552290D02*
X62720D01*
Y545200D01*
X68310D01*
Y552290D01*
D02*
G37*
G36*
X70210Y522233D02*
Y515780D01*
X76663D01*
X76400Y516762D01*
X75144Y518938D01*
X73368Y520714D01*
X71192Y521970D01*
X70210Y522233D01*
D02*
G37*
G36*
X64810Y522233D02*
X63828Y521970D01*
X61652Y520714D01*
X59876Y518938D01*
X58620Y516762D01*
X58357Y515780D01*
X64810D01*
Y522233D01*
D02*
G37*
G36*
Y510380D02*
X58357D01*
X58620Y509398D01*
X59876Y507222D01*
X61652Y505446D01*
X63828Y504190D01*
X64810Y503927D01*
Y510380D01*
D02*
G37*
G36*
X153390Y523910D02*
X136810D01*
Y507330D01*
X140297D01*
Y502187D01*
X140109Y502061D01*
X139072Y500510D01*
X138708Y498680D01*
Y489380D01*
X139072Y487550D01*
X140109Y485999D01*
X141660Y484962D01*
X143490Y484598D01*
X147790D01*
X149620Y484962D01*
X151171Y485999D01*
X152208Y487550D01*
X152572Y489380D01*
Y498680D01*
X152208Y500510D01*
X151171Y502061D01*
X150983Y502187D01*
Y507330D01*
X153390D01*
Y523910D01*
D02*
G37*
G36*
X211170Y497240D02*
X194590D01*
Y492386D01*
X193740Y491243D01*
X191695Y490836D01*
X189962Y489678D01*
X189962Y489678D01*
X177619Y477334D01*
X170213D01*
X168534Y477000D01*
X167111Y476049D01*
X166160Y474626D01*
X165826Y472948D01*
Y461773D01*
X165852Y461642D01*
X164433Y460883D01*
X159190Y466126D01*
Y466984D01*
X158727Y468711D01*
X157833Y470259D01*
X156569Y471523D01*
X155021Y472417D01*
X153294Y472880D01*
X151506D01*
X149779Y472417D01*
X148231Y471523D01*
X146967Y470259D01*
X146073Y468711D01*
X145610Y466984D01*
Y465196D01*
X146073Y463469D01*
X146967Y461921D01*
X148231Y460657D01*
X149779Y459763D01*
X150684Y459520D01*
X165826Y444379D01*
Y436373D01*
X166160Y434694D01*
X167111Y433271D01*
X168534Y432320D01*
X170213Y431986D01*
X180788D01*
X182466Y432320D01*
X183890Y433271D01*
X184840Y434694D01*
X185174Y436373D01*
Y447547D01*
X184840Y449226D01*
X183890Y450649D01*
X182466Y451600D01*
X180788Y451934D01*
X173381D01*
X169323Y455993D01*
X170082Y457412D01*
X170213Y457386D01*
X180788D01*
X182466Y457720D01*
X183890Y458671D01*
X184840Y460094D01*
X185174Y461773D01*
Y469779D01*
X195953Y480557D01*
X199830D01*
X199830Y480557D01*
X200346Y480660D01*
X211170D01*
Y497240D01*
D02*
G37*
G36*
Y470570D02*
X205580D01*
Y464980D01*
X211170D01*
Y470570D01*
D02*
G37*
G36*
X200180D02*
X194590D01*
Y464980D01*
X200180D01*
Y470570D01*
D02*
G37*
G36*
X211170Y459580D02*
X205580D01*
Y453990D01*
X211170D01*
Y459580D01*
D02*
G37*
G36*
X200180D02*
X194590D01*
Y453990D01*
X200180D01*
Y459580D01*
D02*
G37*
G36*
X128290Y503462D02*
X123990D01*
X122160Y503098D01*
X120609Y502061D01*
X119572Y500510D01*
X119208Y498680D01*
Y489380D01*
X119527Y487775D01*
Y440280D01*
X119027Y439779D01*
X118133Y438231D01*
X117670Y436504D01*
Y434716D01*
X118133Y432989D01*
X119027Y431441D01*
X120291Y430177D01*
X121839Y429283D01*
X123566Y428820D01*
X125354D01*
X127081Y429283D01*
X128629Y430177D01*
X129893Y431441D01*
X130787Y432989D01*
X131250Y434716D01*
Y436504D01*
X130787Y438231D01*
X130213Y439226D01*
Y485024D01*
X131671Y485999D01*
X132708Y487550D01*
X133072Y489380D01*
Y498680D01*
X132708Y500510D01*
X131671Y502061D01*
X130120Y503098D01*
X128290Y503462D01*
D02*
G37*
G36*
X234670Y470570D02*
X218090D01*
Y453990D01*
X221037D01*
Y446440D01*
X218090D01*
Y435616D01*
X217987Y435100D01*
X217987Y435100D01*
Y428853D01*
X207389Y418254D01*
X199878D01*
X198599Y418000D01*
X197515Y417276D01*
X196790Y416191D01*
X196536Y414913D01*
Y410488D01*
X196790Y409209D01*
X197515Y408125D01*
X198599Y407400D01*
X199878Y407146D01*
X211602D01*
X212881Y407400D01*
X213965Y408125D01*
X214690Y409209D01*
X214944Y410488D01*
Y410699D01*
X227108Y422862D01*
X227108Y422862D01*
X228266Y424595D01*
X228673Y426640D01*
X228673Y426640D01*
Y429860D01*
X234670D01*
Y446440D01*
X231723D01*
Y453990D01*
X234670D01*
Y470570D01*
D02*
G37*
G36*
X211602Y399254D02*
X208440D01*
Y396400D01*
X214847D01*
X214690Y397191D01*
X213965Y398275D01*
X212881Y399000D01*
X211602Y399254D01*
D02*
G37*
G36*
X214847Y391000D02*
X208440D01*
Y388146D01*
X211602D01*
X212881Y388400D01*
X213965Y389125D01*
X214690Y390209D01*
X214847Y391000D01*
D02*
G37*
G36*
X414050Y470570D02*
X408460D01*
Y464980D01*
X414050D01*
Y470570D01*
D02*
G37*
G36*
X403060D02*
X397470D01*
Y464980D01*
X403060D01*
Y470570D01*
D02*
G37*
G36*
X414050Y495970D02*
X397470D01*
Y491185D01*
X396162Y490465D01*
X394118Y490059D01*
X392385Y488900D01*
X380819Y477334D01*
X373413D01*
X371734Y477000D01*
X370311Y476049D01*
X369360Y474626D01*
X369026Y472948D01*
Y461773D01*
X369360Y460094D01*
X370311Y458671D01*
X371734Y457720D01*
X373413Y457386D01*
X383988D01*
X385666Y457720D01*
X387090Y458671D01*
X388040Y460094D01*
X388374Y461773D01*
Y469779D01*
X397986Y479390D01*
X414050D01*
Y495970D01*
D02*
G37*
G36*
Y459580D02*
X408460D01*
Y453990D01*
X414050D01*
Y459580D01*
D02*
G37*
G36*
X403060D02*
X397470D01*
Y453990D01*
X403060D01*
Y459580D01*
D02*
G37*
G36*
X343794Y470340D02*
X342006D01*
X340279Y469877D01*
X338731Y468983D01*
X337467Y467719D01*
X336573Y466171D01*
X336110Y464444D01*
Y462656D01*
X336573Y460929D01*
X337467Y459381D01*
X338731Y458117D01*
X340279Y457223D01*
X342006Y456760D01*
X342134D01*
X360712Y438182D01*
X360712Y438182D01*
X362445Y437024D01*
X364490Y436617D01*
X364490Y436617D01*
X369026D01*
Y436373D01*
X369360Y434694D01*
X370311Y433271D01*
X371734Y432320D01*
X373413Y431986D01*
X383988D01*
X385666Y432320D01*
X387090Y433271D01*
X388040Y434694D01*
X388374Y436373D01*
Y447547D01*
X388040Y449226D01*
X387090Y450649D01*
X385666Y451600D01*
X383988Y451934D01*
X373413D01*
X371734Y451600D01*
X370311Y450649D01*
X369360Y449226D01*
X369026Y447547D01*
Y447303D01*
X366703D01*
X349690Y464316D01*
Y464444D01*
X349227Y466171D01*
X348333Y467719D01*
X347069Y468983D01*
X345521Y469877D01*
X343794Y470340D01*
D02*
G37*
G36*
X407173Y399914D02*
X404010D01*
Y397060D01*
X410417D01*
X410260Y397851D01*
X409535Y398936D01*
X408451Y399660D01*
X407173Y399914D01*
D02*
G37*
G36*
X398610D02*
X395448D01*
X394169Y399660D01*
X393085Y398936D01*
X392360Y397851D01*
X392203Y397060D01*
X398610D01*
Y399914D01*
D02*
G37*
G36*
X410417Y391660D02*
X404010D01*
Y388806D01*
X407173D01*
X408451Y389060D01*
X409535Y389785D01*
X410260Y390869D01*
X410417Y391660D01*
D02*
G37*
G36*
X573440Y110840D02*
X567850D01*
Y105250D01*
X573440D01*
Y110840D01*
D02*
G37*
G36*
X727110Y110520D02*
X721520D01*
Y104930D01*
X727110D01*
Y110520D01*
D02*
G37*
G36*
X696630Y110840D02*
X680050D01*
Y94260D01*
X682997D01*
Y90620D01*
X682907Y90529D01*
X682013Y88981D01*
X681550Y87254D01*
Y85466D01*
X682013Y83739D01*
X682907Y82191D01*
X684171Y80927D01*
X685719Y80033D01*
X687446Y79570D01*
X689234D01*
X690961Y80033D01*
X692509Y80927D01*
X693773Y82191D01*
X694667Y83739D01*
X695130Y85466D01*
Y87254D01*
X694667Y88981D01*
X693773Y90529D01*
X693683Y90620D01*
Y94260D01*
X696630D01*
Y110840D01*
D02*
G37*
G36*
X726727Y41750D02*
X718980D01*
Y34003D01*
X720445Y34395D01*
X722905Y35816D01*
X724914Y37825D01*
X726335Y40285D01*
X726727Y41750D01*
D02*
G37*
G36*
X713580D02*
X705833D01*
X706225Y40285D01*
X707646Y37825D01*
X709655Y35816D01*
X712115Y34395D01*
X713580Y34003D01*
Y41750D01*
D02*
G37*
G36*
X575597D02*
X567850D01*
Y34003D01*
X569315Y34395D01*
X571775Y35816D01*
X573784Y37825D01*
X575205Y40285D01*
X575597Y41750D01*
D02*
G37*
G36*
X562450D02*
X554703D01*
X555095Y40285D01*
X556516Y37825D01*
X558525Y35816D01*
X560985Y34395D01*
X562450Y34003D01*
Y41750D01*
D02*
G37*
G36*
X671230Y110840D02*
X654650D01*
Y94260D01*
X657597D01*
Y55240D01*
X654690D01*
Y33660D01*
X676270D01*
Y55240D01*
X668283D01*
Y94260D01*
X671230D01*
Y110840D01*
D02*
G37*
G36*
X517560Y110520D02*
X500980D01*
Y93940D01*
X506467D01*
Y55240D01*
X503560D01*
Y33660D01*
X525140D01*
Y55240D01*
X517153D01*
Y93940D01*
X517560D01*
Y110520D01*
D02*
G37*
G36*
X583090Y344061D02*
Y335770D01*
X591381D01*
X590934Y337438D01*
X589444Y340018D01*
X587338Y342124D01*
X584757Y343614D01*
X583090Y344061D01*
D02*
G37*
G36*
X577690Y344061D02*
X576023Y343614D01*
X573442Y342124D01*
X571336Y340018D01*
X569846Y337438D01*
X569399Y335770D01*
X577690D01*
Y344061D01*
D02*
G37*
G36*
Y330370D02*
X569399D01*
X569846Y328703D01*
X571336Y326123D01*
X573442Y324016D01*
X576023Y322526D01*
X577690Y322079D01*
Y330370D01*
D02*
G37*
G36*
X591381D02*
X583090D01*
Y322079D01*
X584757Y322526D01*
X587338Y324016D01*
X589444Y326123D01*
X590934Y328703D01*
X591381Y330370D01*
D02*
G37*
G36*
X1211340Y293680D02*
X1196500D01*
Y278840D01*
X1211340D01*
Y293680D01*
D02*
G37*
G36*
X1191100D02*
X1176260D01*
Y278840D01*
X1191100D01*
Y293680D01*
D02*
G37*
G36*
X1025390Y282927D02*
X1024599Y282770D01*
X1023515Y282045D01*
X1022790Y280961D01*
X1022536Y279683D01*
Y275870D01*
X1025390D01*
Y282927D01*
D02*
G37*
G36*
X1127390Y251190D02*
X1120300D01*
Y245600D01*
X1127390D01*
Y251190D01*
D02*
G37*
G36*
X1090770D02*
X1083680D01*
Y245600D01*
X1090770D01*
Y251190D01*
D02*
G37*
G36*
X1080400Y251080D02*
X1073310D01*
Y245490D01*
X1080400D01*
Y251080D01*
D02*
G37*
G36*
X856650Y237210D02*
X840070D01*
Y232263D01*
X832387D01*
X832261Y232451D01*
X830710Y233488D01*
X828880Y233852D01*
X819580D01*
X817750Y233488D01*
X816199Y232451D01*
X815162Y230900D01*
X814798Y229070D01*
Y224770D01*
X815162Y222940D01*
X816199Y221389D01*
X817750Y220352D01*
X819580Y219988D01*
X828880D01*
X830710Y220352D01*
X832261Y221389D01*
X832387Y221577D01*
X840070D01*
Y220630D01*
X856650D01*
Y237210D01*
D02*
G37*
G36*
X1158120Y271390D02*
X1138040D01*
Y245110D01*
X1142737D01*
Y231453D01*
X1141194Y229910D01*
X1132170D01*
Y213330D01*
X1148750D01*
Y222354D01*
X1151858Y225462D01*
X1151858Y225462D01*
X1153016Y227195D01*
X1153423Y229240D01*
X1153423Y229240D01*
Y245007D01*
X1176260D01*
Y244653D01*
X1176934Y241264D01*
X1178256Y238072D01*
X1180176Y235199D01*
X1182619Y232756D01*
X1185492Y230836D01*
X1188684Y229514D01*
X1192073Y228840D01*
X1195528D01*
X1198916Y229514D01*
X1202108Y230836D01*
X1204981Y232756D01*
X1207424Y235199D01*
X1209344Y238072D01*
X1210666Y241264D01*
X1211340Y244653D01*
Y248108D01*
X1210666Y251496D01*
X1209344Y254688D01*
X1207424Y257561D01*
X1204981Y260004D01*
X1202108Y261924D01*
X1198916Y263246D01*
X1195528Y263920D01*
X1192073D01*
X1188684Y263246D01*
X1185492Y261924D01*
X1182619Y260004D01*
X1180176Y257561D01*
X1178927Y255693D01*
X1158120D01*
Y271390D01*
D02*
G37*
G36*
X1120980Y224552D02*
X1119030D01*
Y220320D01*
X1125652D01*
X1125398Y221600D01*
X1124361Y223151D01*
X1122810Y224188D01*
X1120980Y224552D01*
D02*
G37*
G36*
X1113630D02*
X1111680D01*
X1109850Y224188D01*
X1108299Y223151D01*
X1107262Y221600D01*
X1107008Y220320D01*
X1113630D01*
Y224552D01*
D02*
G37*
G36*
X1125652Y214920D02*
X1119030D01*
Y210688D01*
X1120980D01*
X1122810Y211052D01*
X1124361Y212089D01*
X1125398Y213640D01*
X1125652Y214920D01*
D02*
G37*
G36*
X1113630D02*
X1107008D01*
X1107262Y213640D01*
X1108299Y212089D01*
X1109850Y211052D01*
X1111680Y210688D01*
X1113630D01*
Y214920D01*
D02*
G37*
G36*
X828880Y214352D02*
X826930D01*
Y210120D01*
X833552D01*
X833298Y211400D01*
X832261Y212951D01*
X830710Y213988D01*
X828880Y214352D01*
D02*
G37*
G36*
X821530D02*
X819580D01*
X817750Y213988D01*
X816199Y212951D01*
X815162Y211400D01*
X814908Y210120D01*
X821530D01*
Y214352D01*
D02*
G37*
G36*
X1148750Y206410D02*
X1132170D01*
Y203463D01*
X1124487D01*
X1124361Y203651D01*
X1122810Y204688D01*
X1120980Y205052D01*
X1111680D01*
X1109850Y204688D01*
X1108299Y203651D01*
X1107262Y202100D01*
X1106898Y200270D01*
Y195970D01*
X1107262Y194140D01*
X1108299Y192589D01*
X1109850Y191552D01*
X1111680Y191188D01*
X1120980D01*
X1122810Y191552D01*
X1124361Y192589D01*
X1124487Y192777D01*
X1132170D01*
Y189830D01*
X1148750D01*
Y206410D01*
D02*
G37*
G36*
X1062390Y207360D02*
X1056800D01*
Y201770D01*
X1062390D01*
Y207360D01*
D02*
G37*
G36*
X1038260D02*
X1032670D01*
Y201770D01*
X1038260D01*
Y207360D01*
D02*
G37*
G36*
X1051400D02*
X1045810D01*
Y201770D01*
X1051400D01*
Y207360D01*
D02*
G37*
G36*
X1027270D02*
X1021680D01*
Y201770D01*
X1027270D01*
Y207360D01*
D02*
G37*
G36*
X735778Y208094D02*
X733190D01*
Y200820D01*
X740164D01*
Y203708D01*
X739830Y205386D01*
X738879Y206810D01*
X737456Y207760D01*
X735778Y208094D01*
D02*
G37*
G36*
X833552Y204720D02*
X826930D01*
Y200488D01*
X828880D01*
X830710Y200852D01*
X832261Y201889D01*
X833298Y203440D01*
X833552Y204720D01*
D02*
G37*
G36*
X821530D02*
X814908D01*
X815162Y203440D01*
X816199Y201889D01*
X817750Y200852D01*
X819580Y200488D01*
X821530D01*
Y204720D01*
D02*
G37*
G36*
X1062390Y196370D02*
X1056800D01*
Y190780D01*
X1062390D01*
Y196370D01*
D02*
G37*
G36*
X1051400D02*
X1045810D01*
Y190780D01*
X1051400D01*
Y196370D01*
D02*
G37*
G36*
X1038260D02*
X1032670D01*
Y190780D01*
X1038260D01*
Y196370D01*
D02*
G37*
G36*
X1027270D02*
X1021680D01*
Y190780D01*
X1027270D01*
Y196370D01*
D02*
G37*
G36*
X740164Y195420D02*
X733190D01*
Y188146D01*
X735778D01*
X737456Y188480D01*
X738879Y189431D01*
X739830Y190854D01*
X740164Y192533D01*
Y195420D01*
D02*
G37*
G36*
X1202090Y134020D02*
X1196500D01*
Y128430D01*
X1202090D01*
Y134020D01*
D02*
G37*
G36*
X1191100D02*
X1185510D01*
Y128430D01*
X1191100D01*
Y134020D01*
D02*
G37*
G36*
X990330Y130650D02*
X984740D01*
Y123560D01*
X990330D01*
Y130650D01*
D02*
G37*
G36*
X1155860Y124324D02*
Y115800D01*
X1164384D01*
X1163914Y117554D01*
X1162394Y120186D01*
X1160246Y122334D01*
X1157614Y123854D01*
X1155860Y124324D01*
D02*
G37*
G36*
X1150460Y124324D02*
X1148706Y123854D01*
X1146074Y122334D01*
X1143926Y120186D01*
X1142406Y117554D01*
X1141936Y115800D01*
X1150460D01*
Y124324D01*
D02*
G37*
G36*
Y110400D02*
X1141936D01*
X1142406Y108646D01*
X1143926Y106014D01*
X1146074Y103866D01*
X1148706Y102346D01*
X1150460Y101876D01*
Y110400D01*
D02*
G37*
G36*
X1164384D02*
X1155860D01*
Y101876D01*
X1157614Y102346D01*
X1160246Y103866D01*
X1162394Y106014D01*
X1163914Y108646D01*
X1164384Y110400D01*
D02*
G37*
G36*
X883490Y96692D02*
X881540D01*
Y92460D01*
X888163D01*
X887908Y93740D01*
X886871Y95291D01*
X885320Y96328D01*
X883490Y96692D01*
D02*
G37*
G36*
X876140D02*
X874190D01*
X872360Y96328D01*
X870809Y95291D01*
X869772Y93740D01*
X869518Y92460D01*
X876140D01*
Y96692D01*
D02*
G37*
G36*
X888163Y87060D02*
X881540D01*
Y82828D01*
X883490D01*
X885320Y83192D01*
X886871Y84229D01*
X887908Y85780D01*
X888163Y87060D01*
D02*
G37*
G36*
X876140D02*
X869518D01*
X869772Y85780D01*
X870809Y84229D01*
X872360Y83192D01*
X874190Y82828D01*
X876140D01*
Y87060D01*
D02*
G37*
G36*
X911260Y77820D02*
X894680D01*
Y73415D01*
X888072D01*
X887908Y74240D01*
X886871Y75791D01*
X885320Y76828D01*
X883490Y77192D01*
X874190D01*
X872360Y76828D01*
X870809Y75791D01*
X869772Y74240D01*
X869408Y72410D01*
Y68110D01*
X869772Y66280D01*
X870809Y64729D01*
X872360Y63692D01*
X874190Y63328D01*
X883490D01*
X885320Y63692D01*
X886871Y64729D01*
X887484Y65645D01*
X894680D01*
Y61240D01*
X911260D01*
Y77820D01*
D02*
G37*
G36*
X1005888Y69353D02*
X1000550D01*
Y64790D01*
X1009663D01*
Y65578D01*
X1009375Y67022D01*
X1008557Y68247D01*
X1007332Y69065D01*
X1005888Y69353D01*
D02*
G37*
G36*
X995150D02*
X989813D01*
X988368Y69065D01*
X987143Y68247D01*
X986325Y67022D01*
X986038Y65578D01*
Y64790D01*
X995150D01*
Y69353D01*
D02*
G37*
G36*
X935620Y69580D02*
X928530D01*
Y63990D01*
X935620D01*
Y69580D01*
D02*
G37*
G36*
X923130D02*
X916040D01*
Y63990D01*
X923130D01*
Y69580D01*
D02*
G37*
G36*
X977760Y68770D02*
X962820D01*
Y62230D01*
X977760D01*
Y68770D01*
D02*
G37*
G36*
X957420D02*
X942480D01*
Y62230D01*
X957420D01*
Y68770D01*
D02*
G37*
G36*
X1009663Y59390D02*
X1000550D01*
Y54827D01*
X1005888D01*
X1007332Y55115D01*
X1008557Y55933D01*
X1009375Y57158D01*
X1009663Y58602D01*
Y59390D01*
D02*
G37*
G36*
X995150D02*
X986038D01*
Y58602D01*
X986325Y57158D01*
X987143Y55933D01*
X988368Y55115D01*
X989813Y54827D01*
X995150D01*
Y59390D01*
D02*
G37*
G36*
X977760Y56830D02*
X962820D01*
Y50290D01*
X977760D01*
Y56830D01*
D02*
G37*
G36*
X957420D02*
X942480D01*
Y50290D01*
X957420D01*
Y56830D01*
D02*
G37*
G36*
X585918Y208094D02*
X583330D01*
Y200820D01*
X590304D01*
Y203708D01*
X589970Y205386D01*
X589020Y206810D01*
X587596Y207760D01*
X585918Y208094D01*
D02*
G37*
G36*
X577930D02*
X575343D01*
X573664Y207760D01*
X572241Y206810D01*
X571290Y205386D01*
X570956Y203708D01*
Y200820D01*
X577930D01*
Y208094D01*
D02*
G37*
G36*
X590304Y195420D02*
X583330D01*
Y188146D01*
X585918D01*
X587596Y188480D01*
X589020Y189431D01*
X589970Y190854D01*
X590304Y192533D01*
Y195420D01*
D02*
G37*
G36*
X1202090Y99530D02*
X1196500D01*
Y93940D01*
X1202090D01*
Y99530D01*
D02*
G37*
G36*
X1191100D02*
X1185510D01*
Y93940D01*
X1191100D01*
Y99530D01*
D02*
G37*
G36*
X1155860Y49324D02*
Y40800D01*
X1164384D01*
X1163914Y42554D01*
X1162394Y45186D01*
X1160246Y47334D01*
X1157614Y48854D01*
X1155860Y49324D01*
D02*
G37*
G36*
X1150460Y49324D02*
X1148706Y48854D01*
X1146074Y47334D01*
X1143926Y45186D01*
X1142406Y42554D01*
X1141936Y40800D01*
X1150460D01*
Y49324D01*
D02*
G37*
G36*
Y35400D02*
X1141936D01*
X1142406Y33646D01*
X1143926Y31014D01*
X1146074Y28866D01*
X1148706Y27346D01*
X1150460Y26876D01*
Y35400D01*
D02*
G37*
G36*
X1164384D02*
X1155860D01*
Y26876D01*
X1157614Y27346D01*
X1160246Y28866D01*
X1162394Y31014D01*
X1163914Y33646D01*
X1164384Y35400D01*
D02*
G37*
%LPD*%
D13*
X845058Y888746D02*
Y926526D01*
X864482Y874057D02*
X871982Y881557D01*
X859482Y832502D02*
Y874322D01*
X845058Y888746D02*
X859482Y874322D01*
X845058Y926526D02*
X848614Y930082D01*
X871982Y881557D02*
Y930082D01*
X462212Y664739D02*
Y683964D01*
X457200Y659727D02*
X462212Y664739D01*
X457200Y640190D02*
Y659727D01*
X1123840Y873870D02*
X1158240Y839470D01*
X1123840Y873870D02*
Y894080D01*
X1158240Y807720D02*
Y839470D01*
X1141990Y791470D02*
X1158240Y807720D01*
X1112520Y919480D02*
X1123840Y908160D01*
Y894080D02*
Y908160D01*
X1110020Y791470D02*
X1141990D01*
X869482Y832502D02*
Y870752D01*
X889762Y891032D02*
Y928878D01*
X869482Y870752D02*
X889762Y891032D01*
X778727Y902753D02*
X834390Y847090D01*
Y828294D02*
X845820Y816864D01*
X834390Y828294D02*
Y847090D01*
X825500Y927288D02*
X828294Y930082D01*
X825500Y902462D02*
Y927288D01*
Y902462D02*
X854482Y873480D01*
X795020Y910590D02*
X825500Y880110D01*
X768350Y910590D02*
X795020D01*
X764540Y914400D02*
X768350Y910590D01*
X764540Y914400D02*
Y929386D01*
X825500Y868680D02*
Y880110D01*
Y818332D02*
Y840740D01*
Y818332D02*
X825630Y818202D01*
X830182D01*
X451982Y680142D02*
X452212Y680372D01*
X448390Y680142D02*
X451982D01*
X433070Y664822D02*
X448390Y680142D01*
X452212Y680372D02*
Y683964D01*
X433070Y642610D02*
Y664822D01*
X358140Y640300D02*
X429260D01*
X430760D02*
X433070Y642610D01*
X430530Y974090D02*
Y989330D01*
Y969010D02*
Y974090D01*
X429260Y640300D02*
X430760D01*
X535065Y702310D02*
X535689Y702934D01*
X534670Y702310D02*
X535065D01*
X546182Y702934D02*
X546412Y703164D01*
X535689Y702934D02*
X546182D01*
X517212Y683964D02*
Y706442D01*
X528934Y718164D02*
X546412D01*
X517212Y706442D02*
X528934Y718164D01*
X527131Y684045D02*
X527212Y683964D01*
X527131Y684045D02*
Y704769D01*
X527050Y704850D02*
X527131Y704769D01*
X405720Y796290D02*
X414020D01*
X403970Y794540D02*
X405720Y796290D01*
X387350Y935990D02*
X441960D01*
X445770Y772160D02*
Y932180D01*
X441960Y935990D02*
X445770Y932180D01*
X420370Y999490D02*
X430530Y989330D01*
X379730Y943610D02*
Y974090D01*
Y943610D02*
X387350Y935990D01*
X405130Y948690D02*
Y974090D01*
Y948690D02*
X411480Y942340D01*
X445770D01*
X452212Y935898D01*
Y797364D02*
Y935898D01*
X427018Y674072D02*
X452717Y699770D01*
X482600D02*
X487212Y695158D01*
X452717Y699770D02*
X482600D01*
X449580Y704850D02*
X486410D01*
X411480Y666750D02*
X449580Y704850D01*
X486410D02*
X492212Y699048D01*
X487212Y683964D02*
Y695158D01*
X344170Y666750D02*
X411480D01*
X320040Y674370D02*
X405130D01*
X309880Y664210D02*
X320040Y674370D01*
X334010Y656590D02*
X344170Y666750D01*
X309880Y645160D02*
Y664210D01*
X492212Y683964D02*
Y699048D01*
X334010Y645480D02*
Y656590D01*
X490390Y716280D02*
Y760560D01*
X467212Y783738D02*
X490390Y760560D01*
X482600Y723900D02*
Y762000D01*
X462212Y782388D02*
X482600Y762000D01*
X564650Y881270D02*
X575360Y891980D01*
X553720Y881270D02*
X564650D01*
X575360Y891980D02*
X578360D01*
X610360D02*
X615590Y886750D01*
X619470D02*
X623790Y882430D01*
X615590Y886750D02*
X619470D01*
X623790Y882430D02*
X636270D01*
X607060Y865190D02*
X610360Y868490D01*
Y891980D01*
X577850Y865190D02*
X578360Y865700D01*
Y891980D01*
X593090Y831850D02*
X597220D01*
X568960Y807720D02*
X593090Y831850D01*
X597220D02*
X607060Y841690D01*
X568960Y769620D02*
Y807720D01*
X585922Y845368D02*
X589280Y842010D01*
X563880Y810260D02*
X589280Y835660D01*
Y842010D01*
X577850Y841690D02*
X581528Y845368D01*
X585922D01*
X563880Y773430D02*
Y810260D01*
X562504Y763164D02*
X568960Y769620D01*
X558614Y768164D02*
X563880Y773430D01*
X546412Y763164D02*
X562504D01*
X546412Y768164D02*
X558614D01*
X546412Y758164D02*
X575284D01*
X579120Y762000D02*
Y777240D01*
X575284Y758164D02*
X579120Y762000D01*
Y777240D02*
X581660Y779780D01*
X595630D01*
X604780Y572180D02*
X628170D01*
X628650Y572660D01*
X474980Y739140D02*
Y748030D01*
X469846Y753164D02*
X474980Y748030D01*
X433012Y753164D02*
X469846D01*
X433012Y748030D02*
X464248D01*
X465424Y746854D01*
X466090D01*
X433012Y728164D02*
X446224D01*
X452120Y734060D01*
X453924Y723164D02*
X458470Y727710D01*
X433012Y723164D02*
X453924D01*
X387745Y744220D02*
X388801Y743164D01*
X433012D01*
X387745Y736600D02*
X389309Y738164D01*
X387350Y744220D02*
X387745D01*
X387350Y736600D02*
X387745D01*
X389309Y738164D02*
X433012D01*
X267020Y801370D02*
X302260D01*
X282260Y810260D02*
X295910D01*
X265750Y826770D02*
X282260Y810260D01*
X246700Y821690D02*
X254000Y814390D01*
X267020Y801370D01*
X217170Y821690D02*
X246700D01*
X211074Y815594D02*
X217170Y821690D01*
X201676Y814070D02*
X203200Y815594D01*
X211074D01*
X201676Y826770D02*
X265750D01*
X878766Y69530D02*
X902970D01*
X995310Y87630D02*
X997850Y85090D01*
X1059550D01*
X744474Y906526D02*
X748247Y902753D01*
X778727D01*
X744220Y929132D02*
Y939800D01*
X744474Y906526D02*
Y929132D01*
X826936Y798206D02*
X841386D01*
X784860Y929386D02*
Y939800D01*
X329483Y722630D02*
X333949Y718164D01*
X304800Y722630D02*
X329483D01*
X311150Y716280D02*
X325625D01*
X304800Y709930D02*
X323185D01*
X324950Y708164D01*
X333949Y718164D02*
X433012D01*
X325625Y716280D02*
X328741Y713164D01*
X311150Y703580D02*
X311358Y703372D01*
X432804D01*
X328741Y713164D02*
X433012D01*
X324950Y708164D02*
X433012D01*
X432804Y703372D02*
X433012Y703164D01*
X403970Y794540D02*
Y795020D01*
X275910Y788670D02*
X278130Y790890D01*
X256220Y788670D02*
X275910D01*
X254000Y790890D02*
X256220Y788670D01*
X233680D02*
X251780D01*
X231140Y791210D02*
X233680Y788670D01*
X251780D02*
X254000Y790890D01*
X228600Y788670D02*
X231140Y791210D01*
X201676Y788670D02*
X228600D01*
X641640Y788164D02*
X645160Y791684D01*
X604012Y788164D02*
X641640D01*
X841386Y798206D02*
X845820Y802640D01*
Y816864D01*
X787400Y926846D02*
X844482Y869764D01*
Y832502D02*
Y869764D01*
X787400Y926846D02*
Y930962D01*
X804418Y917029D02*
Y926526D01*
X849482Y832502D02*
Y871965D01*
X804418Y917029D02*
X849482Y871965D01*
X854482Y832502D02*
Y873480D01*
X462212Y782388D02*
Y797364D01*
X467212Y783738D02*
Y797364D01*
X527050Y797526D02*
Y833120D01*
X519430Y840740D02*
X527050Y833120D01*
X505460Y840740D02*
X519430D01*
X527050Y797526D02*
X527212Y797364D01*
X787290Y641096D02*
Y663812D01*
X789940Y756920D02*
X811222Y778202D01*
X830182D01*
X789940Y666462D02*
Y756920D01*
X787434Y663956D02*
X789940Y666462D01*
X642258Y693164D02*
X645668Y689754D01*
X604012Y693164D02*
X642258D01*
X562556Y753164D02*
X595282Y720438D01*
X546412Y753164D02*
X562556D01*
X595282Y717898D02*
Y720438D01*
Y717898D02*
X595630Y717550D01*
X804418Y926526D02*
X807974Y930082D01*
X712216Y800166D02*
Y822088D01*
X710946Y823358D02*
X712216Y822088D01*
Y758046D02*
Y776666D01*
X710438Y756268D02*
X712216Y758046D01*
X760730Y798576D02*
X766104Y793202D01*
X830182D01*
X955802Y898906D02*
Y932688D01*
X938022Y895604D02*
Y930082D01*
X928878Y808228D02*
X967928D01*
X913782Y803202D02*
X923852D01*
X928878Y808228D01*
X980186Y820486D02*
Y864550D01*
X967928Y808228D02*
X980186Y820486D01*
X967928Y876808D02*
X980186Y864550D01*
X897382Y877062D02*
X933958D01*
X955802Y898906D01*
X894842Y882142D02*
X924560D01*
X938022Y895604D01*
X710692Y753508D02*
X745142D01*
X710692Y827388D02*
X745142D01*
X753872Y837948D02*
X760730Y831090D01*
Y798576D02*
Y831090D01*
X753872Y836118D02*
Y837948D01*
X762488Y783824D02*
X766866Y788202D01*
X830182D01*
X762488Y753394D02*
Y783824D01*
X753872Y744778D02*
X762488Y753394D01*
X803656Y707390D02*
Y718820D01*
X809498Y724662D01*
X842010D02*
X849482Y732134D01*
X809498Y724662D02*
X842010D01*
X829702Y716672D02*
X833628Y720598D01*
X844804D01*
X854482Y730276D01*
X825222Y709422D02*
X829702Y713902D01*
Y716672D01*
X823722Y709422D02*
X825222D01*
X753872Y742948D02*
Y744778D01*
X854482Y730276D02*
Y748902D01*
X1099820Y673862D02*
X1111692D01*
X1113470Y675640D01*
X1099940Y654812D02*
X1101553D01*
X1103585Y652780D02*
X1113470D01*
X1101553Y654812D02*
X1103585Y652780D01*
X847999Y763202D02*
X848009Y763212D01*
X830182Y763202D02*
X847999D01*
X851096Y763212D02*
X851662Y763778D01*
X848009Y763212D02*
X851096D01*
X830182Y773202D02*
X830312Y773072D01*
X844654D02*
X844804Y772922D01*
X830312Y773072D02*
X844654D01*
X864482Y832502D02*
Y874057D01*
X884482Y864162D02*
X897382Y877062D01*
X884482Y832502D02*
Y864162D01*
X879482Y866782D02*
X894842Y882142D01*
X879482Y832502D02*
Y866782D01*
X917702Y892302D02*
Y928878D01*
X892582Y887222D02*
X912622D01*
X917702Y892302D01*
X874482Y869122D02*
X892582Y887222D01*
X874482Y832502D02*
Y869122D01*
X745142Y753508D02*
X753872Y744778D01*
X745142Y827388D02*
X753872Y836118D01*
X849482Y732134D02*
Y748902D01*
X846582Y709422D02*
X848082D01*
X852562Y713902D01*
Y720482D01*
X864482Y732402D01*
Y748902D01*
D14*
X501650Y533400D02*
Y542290D01*
Y533400D02*
X570230Y464820D01*
X767113D01*
X511830Y533380D02*
Y542370D01*
X567690Y477520D02*
X740410D01*
X511830Y533380D02*
X567690Y477520D01*
X897382Y709422D02*
X920242D01*
X941722D01*
X740410Y477520D02*
X767113D01*
X1029970Y222570D02*
X1046140Y238740D01*
Y249120D01*
X1047090Y250070D01*
X962624Y609600D02*
X1217930D01*
X908812Y476250D02*
Y486410D01*
Y488950D01*
X830514Y477520D02*
X839404Y486410D01*
X901639Y488950D02*
X908812D01*
X899099Y486410D02*
X901639Y488950D01*
X839404Y486410D02*
X899099D01*
X824738Y477520D02*
X830514D01*
X1217930Y609600D02*
X1239520Y631190D01*
X957862Y614362D02*
X962624Y609600D01*
X1239520Y631190D02*
Y718820D01*
X874932Y709422D02*
X897382D01*
X944262Y684022D02*
Y706882D01*
Y658622D02*
Y684022D01*
Y635762D02*
Y658622D01*
Y635762D02*
X947706Y632318D01*
X955349Y622252D02*
X957862Y619739D01*
Y614362D02*
Y619739D01*
X947706Y625721D02*
Y632318D01*
X951175Y622252D02*
X955349D01*
X947706Y625721D02*
X951175Y622252D01*
D17*
X153870Y678180D02*
Y730050D01*
X119380Y764540D02*
Y953770D01*
Y764540D02*
X153870Y730050D01*
X134620Y678180D02*
X153870D01*
X135878Y976618D02*
Y990588D01*
X144780Y999490D02*
X260350D01*
X135878Y990588D02*
X144780Y999490D01*
X132401Y973140D02*
X134620Y975360D01*
X132401Y966790D02*
Y973140D01*
X119380Y953770D02*
X132401Y966790D01*
X1148080Y229240D02*
Y258250D01*
X466090Y292100D02*
Y459740D01*
X430893Y486047D02*
X439783D01*
X429260Y487680D02*
X430893Y486047D01*
X439783D02*
X466090Y459740D01*
X649820Y251250D02*
Y263012D01*
X648970Y263862D02*
Y264160D01*
Y263862D02*
X649820Y263012D01*
Y251250D02*
X650240Y250830D01*
X85960Y558040D02*
Y565550D01*
X72790Y578720D02*
X85960Y565550D01*
X72790Y578720D02*
Y618210D01*
X85960Y558040D02*
X90760Y553240D01*
X477520Y280670D02*
X511810D01*
X466090Y292100D02*
X477520Y280670D01*
X688340Y86360D02*
Y102550D01*
X538480Y86360D02*
Y102550D01*
X342900Y463550D02*
X342900D01*
X364490Y441960D02*
X378700D01*
X342900Y463550D02*
X364490Y441960D01*
X90760Y514830D02*
X92510Y513080D01*
X90760Y514830D02*
Y553240D01*
X975950Y177910D02*
X978118Y180078D01*
X123590Y667150D02*
X134620Y678180D01*
X123590Y618210D02*
Y667150D01*
X281700Y467360D02*
X283287Y465773D01*
X293687D02*
X306070Y453390D01*
X283287Y465773D02*
X293687D01*
X262890Y458470D02*
X269729Y465309D01*
X279649D01*
X281700Y467360D01*
X553720Y137480D02*
Y182880D01*
X542290Y194310D02*
X553720Y182880D01*
X487440Y194310D02*
X542290D01*
X483630Y198120D02*
X487440Y194310D01*
X539750Y44450D02*
X551987Y56687D01*
Y112887D01*
X565150Y126050D01*
X690880Y44450D02*
X704387Y57957D01*
Y111297D01*
X718820Y125730D01*
X637300Y194310D02*
X695960D01*
X706120Y138430D02*
Y184150D01*
X695960Y194310D02*
X706120Y184150D01*
X656590Y207010D02*
X701040D01*
X713835Y194215D01*
X650240Y213360D02*
X656590Y207010D01*
X706120Y138430D02*
X718820Y125730D01*
X553720Y137480D02*
X565150Y126050D01*
X496001Y225171D02*
X498074Y227244D01*
X563880Y180533D02*
X567043Y177370D01*
X543560Y246380D02*
X546060D01*
X576280Y177370D02*
X580630Y173020D01*
X567043Y177370D02*
X576280D01*
X563880Y180533D02*
Y194310D01*
X633490Y198120D02*
X637300Y194310D01*
X716280Y44450D02*
X717550Y45720D01*
Y100960D01*
X718820Y102230D01*
X662940Y46990D02*
X665480Y44450D01*
X662940Y46990D02*
Y102550D01*
X483630Y151370D02*
X509270Y125730D01*
X483630Y151370D02*
Y172720D01*
X509270Y126050D02*
X541418D01*
X662940D02*
X689217D01*
X635000Y153990D02*
Y171210D01*
Y153990D02*
X662940Y126050D01*
X565150Y44450D02*
Y102550D01*
X509270Y102230D02*
X511810Y99690D01*
Y46990D02*
Y99690D01*
Y46990D02*
X514350Y44450D01*
X81280Y470140D02*
Y504390D01*
X78500Y467360D02*
X81280Y470140D01*
Y504390D02*
X91240Y514350D01*
X145640Y494030D02*
Y515080D01*
X145100Y515620D02*
X145640Y515080D01*
X91440Y516890D02*
X121607D01*
X806450Y146050D02*
X828040Y124460D01*
X885190D01*
X806450Y146050D02*
Y232410D01*
X885190Y124460D02*
X902970Y106680D01*
X787400Y251460D02*
X806450Y232410D01*
X902970Y97530D02*
X905220Y95280D01*
X925880Y90330D02*
X960120D01*
X926488Y90280D02*
X929538Y93330D01*
X991870Y83820D02*
Y85840D01*
X718820Y249560D02*
X720720Y251460D01*
X787400D01*
X1093470Y271835D02*
X1117545D01*
X1070665D02*
X1093470D01*
X866140Y214630D02*
Y288290D01*
X856930Y205420D02*
X866140Y214630D01*
X848360Y205420D02*
X856930D01*
X824230Y226920D02*
X846360D01*
X848360Y228920D01*
X929538Y93330D02*
Y100228D01*
X905720Y90280D02*
X926488D01*
X929538Y100228D02*
X942340Y113030D01*
X1054100Y222570D02*
X1056640D01*
X1076960D01*
X741680Y529590D02*
X772160Y560070D01*
X741680Y502290D02*
Y529590D01*
X772160Y560070D02*
X887730D01*
X709930Y613410D02*
X802640D01*
X669180Y572660D02*
X709930Y613410D01*
X941614D02*
X944662Y610362D01*
X787290Y628760D02*
X802640Y613410D01*
X941614D01*
X674370Y955040D02*
X742066D01*
X278130Y791210D02*
X401320D01*
X227330Y487962D02*
Y506730D01*
X260350Y999490D02*
X270510Y989330D01*
Y975360D02*
Y989330D01*
X344170Y985520D02*
X358140Y999490D01*
X420370D01*
X669290D02*
X674370Y994410D01*
X420370Y999490D02*
X669290D01*
X344170Y802640D02*
Y985520D01*
X497957Y250861D02*
X498074Y250744D01*
X497840Y267970D02*
X497957Y267853D01*
Y250861D02*
Y267853D01*
X278130Y790890D02*
Y791210D01*
X511810Y280670D02*
X519430Y273050D01*
X278130Y618490D02*
Y790890D01*
X628650Y572660D02*
X669180D01*
X877570Y402590D02*
X949960D01*
X956310Y408940D01*
Y436880D01*
Y461772D02*
X958088Y463550D01*
X953770Y439420D02*
X956310Y441960D01*
Y461772D01*
X953770Y439420D02*
X956310Y436880D01*
X866140Y391160D02*
X877570Y402590D01*
X854600Y402700D02*
X866140Y391160D01*
X828040Y402700D02*
X854600D01*
X866140Y288290D02*
Y391160D01*
X902410Y463550D02*
X908812D01*
X902377Y463517D02*
X902410Y463550D01*
X902377Y441367D02*
Y463517D01*
X1010160Y135720D02*
X1011030Y134850D01*
Y133350D02*
Y134850D01*
X975840Y177800D02*
X975950Y177910D01*
X852170Y302260D02*
X866140Y288290D01*
X580390Y302260D02*
X852170D01*
X848360Y158750D02*
X862330Y144780D01*
X1001100D01*
X848360Y158750D02*
Y205420D01*
X1010160Y135720D02*
Y196020D01*
Y134220D02*
Y135720D01*
X1001100Y144780D02*
X1010160Y135720D01*
X975950Y177910D02*
X976630D01*
X949960D02*
X975950D01*
X519430Y250830D02*
Y273050D01*
Y250830D02*
X522480Y253880D01*
Y254647D01*
X978118Y180078D02*
X988118D01*
X1007110Y199070D01*
X1010160Y134220D02*
X1011030Y133350D01*
Y116720D02*
Y133350D01*
X942340Y608040D02*
X944662Y610362D01*
X942340Y595630D02*
Y608040D01*
X991350Y86360D02*
X991870Y85840D01*
X960120Y90330D02*
X964090Y86360D01*
X991350D01*
X902970Y93030D02*
X905720Y90280D01*
X902970Y93030D02*
Y95280D01*
Y97530D02*
Y106680D01*
X674370Y955040D02*
Y994410D01*
Y952610D02*
Y955040D01*
X1007110Y199070D02*
X1010160Y196020D01*
X949960Y177910D02*
Y203680D01*
X997850Y108090D02*
X1002400D01*
X1011030Y116720D01*
X948690Y204950D02*
X949960Y203680D01*
X1007110Y222570D02*
X1029970D01*
X1127320Y300550D02*
X1148080D01*
X1117600Y271890D02*
Y290830D01*
X1127320Y300550D01*
X1117545Y271835D02*
X1117600Y271890D01*
X1047090Y272030D02*
Y273170D01*
Y272030D02*
X1047340Y271780D01*
X1070610D01*
X1070665Y271835D01*
X1116330Y198120D02*
X1140460D01*
Y221620D02*
X1148080Y229240D01*
Y255150D02*
Y258250D01*
Y255150D02*
X1152880Y250350D01*
X1189830D01*
X1193800Y246380D01*
X309880Y621660D02*
X310557Y620983D01*
Y603843D02*
X311150Y603250D01*
X310557Y603843D02*
Y620983D01*
X293050Y633410D02*
X339032D01*
X345812Y640190D01*
X278130Y618490D02*
X293050Y633410D01*
X345812Y640190D02*
X358140D01*
X278130Y544830D02*
Y618490D01*
X334687Y603843D02*
X335280Y603250D01*
X289560Y533400D02*
X402590D01*
X254000D02*
X289560D01*
X278130Y544830D02*
X289560Y533400D01*
X334687Y603843D02*
Y621303D01*
X227330Y506730D02*
X254000Y533400D01*
X402590D02*
X429260Y506730D01*
X787290Y628760D02*
Y641096D01*
X1022570Y523240D02*
X1024890Y520920D01*
X997270Y523240D02*
X1022570D01*
X994410Y526100D02*
X997270Y523240D01*
X429260Y487680D02*
Y506730D01*
X887730Y560070D02*
X932180Y515620D01*
X714375Y183515D02*
Y194215D01*
Y183515D02*
X720520Y177370D01*
X714375Y194215D02*
Y221615D01*
X718820Y226060D01*
X650240Y213360D02*
Y227330D01*
X271780Y401320D02*
X298170D01*
X298890D01*
X329135Y435815D02*
Y497635D01*
X328930Y435610D02*
X329135Y435815D01*
X661350Y240030D02*
X671830Y250510D01*
X673930Y252610D01*
X566420Y250510D02*
X576900Y240030D01*
X661350D01*
X671830Y227010D02*
X672940Y225900D01*
X694850D01*
X695960Y224790D01*
X697560Y242690D02*
X702190D01*
X695960Y244290D02*
X697560Y242690D01*
X702190D02*
X718820Y226060D01*
X715770Y252610D02*
X718820Y249560D01*
X712607Y253880D02*
X713877Y252610D01*
X675200Y253880D02*
X712607D01*
X713877Y252610D02*
X715770D01*
X720520Y177370D02*
X726140D01*
X730490Y172720D02*
Y173020D01*
X726140Y177370D02*
X730490Y173020D01*
X633490Y172720D02*
X635000Y171210D01*
X525643Y257810D02*
X563257D01*
X522480Y254647D02*
X525643Y257810D01*
X566420Y254000D02*
Y254647D01*
X563257Y257810D02*
X566420Y254647D01*
X519430Y227330D02*
X522480Y224914D01*
X539460Y225140D02*
X543560Y225200D01*
X524146Y224914D02*
X539460Y225140D01*
X522480Y224914D02*
X524146D01*
X498074Y211856D02*
X502920Y207010D01*
X498074Y211856D02*
Y225171D01*
X551180Y207010D02*
X563880Y194310D01*
X502920Y207010D02*
X551180D01*
X563880Y194310D02*
Y223200D01*
X546060Y246380D02*
X547660Y244780D01*
Y244370D02*
X549060D01*
X566420Y227010D01*
X563880Y223200D02*
X567055Y226375D01*
X334010Y621980D02*
X334687Y621303D01*
X293370Y336550D02*
X295600Y334320D01*
X293370Y396520D02*
X298170Y401320D01*
X293370Y336550D02*
Y396520D01*
X100330Y336550D02*
X102560Y334320D01*
X100330Y336550D02*
Y397070D01*
X66040Y401320D02*
X104580D01*
X100330Y397070D02*
X104580Y401320D01*
X186097Y403200D02*
X186347Y402950D01*
Y395313D02*
X222560Y359100D01*
Y334320D02*
Y359100D01*
X185440Y403200D02*
X186097D01*
X186347Y395313D02*
Y402950D01*
X415600Y334320D02*
Y357830D01*
X381010Y392420D02*
X415600Y357830D01*
X381010Y392420D02*
Y403860D01*
X262890Y410210D02*
Y458470D01*
X64770Y467360D02*
X78500D01*
X91440D01*
X53340Y455930D02*
X64770Y467360D01*
X91440D02*
X106680Y452120D01*
X942660Y526100D02*
X994410D01*
X124870Y436020D02*
Y496160D01*
X124460Y435610D02*
X124870Y436020D01*
Y496160D02*
X125280Y496570D01*
X98820Y421640D02*
X186370D01*
X202880Y438150D01*
X83150Y437310D02*
X98820Y421640D01*
X129389Y406120D02*
X142080D01*
X126569Y408940D02*
X129389Y406120D01*
X125730Y408940D02*
X126569D01*
X152400Y465360D02*
Y466090D01*
X175500Y441960D02*
Y442260D01*
X152400Y465360D02*
X175500Y442260D01*
X286350Y437310D02*
X299480Y424180D01*
X393060D02*
X405760Y436880D01*
X299480Y424180D02*
X393060D01*
X917067Y953709D02*
Y972693D01*
Y953709D02*
X917194Y953582D01*
X916940Y972820D02*
X917067Y972693D01*
X785114Y970965D02*
X786130Y971981D01*
Y972820D01*
X785114Y952632D02*
Y970965D01*
X917194Y953582D02*
X937514D01*
X742066Y955040D02*
X744474Y952632D01*
X764794D02*
X785114D01*
X744474D02*
X764794D01*
X937514Y953582D02*
X957834D01*
X142080Y406120D02*
X146880Y401320D01*
X78500Y441660D02*
Y441960D01*
Y441660D02*
X82850Y437310D01*
X83150D01*
X53340Y414020D02*
Y455930D01*
Y414020D02*
X66040Y401320D01*
X199830Y485900D02*
X202880Y488950D01*
X193740Y485900D02*
X199830D01*
X175500Y467660D02*
X193740Y485900D01*
X175500Y467360D02*
Y467660D01*
X226380Y438150D02*
Y462280D01*
X223330Y435100D02*
X226380Y438150D01*
X223330Y426640D02*
Y435100D01*
X209390Y412700D02*
X223330Y426640D01*
X205740Y412700D02*
X209390D01*
X153230Y401320D02*
X154860Y402950D01*
X185190D01*
X185440Y403200D01*
X782320Y544420D02*
X783370Y545470D01*
X808990D01*
Y500192D02*
Y521970D01*
X740410Y501020D02*
X741680Y502290D01*
X932180Y468630D02*
Y515620D01*
X942660Y526100D01*
X937260Y463550D02*
X958088D01*
X932180Y468630D02*
X937260Y463550D01*
X824738Y405750D02*
Y426720D01*
Y405750D02*
X827788Y402700D01*
X281700Y467360D02*
Y511570D01*
X262890Y410210D02*
X271780Y401320D01*
X281700Y511570D02*
X289560Y519430D01*
X324800D01*
X329523Y409887D02*
Y412157D01*
Y409887D02*
X338090Y401320D01*
X328930Y412750D02*
X329523Y412157D01*
X338090Y401320D02*
X341190D01*
X329135Y497635D02*
X329340Y497840D01*
X348300Y519430D02*
X348570Y519160D01*
Y498110D02*
Y519160D01*
Y498110D02*
X348840Y497840D01*
X341190Y401320D02*
X343480Y403610D01*
X380760D01*
X381010Y403860D01*
X281700Y441660D02*
Y441960D01*
Y441660D02*
X286050Y437310D01*
X286350D01*
X422250Y413360D02*
X429260Y420370D01*
X401310Y413360D02*
X422250D01*
X429260Y420370D02*
Y436880D01*
X403203Y485122D02*
X405760Y487680D01*
X378700Y467660D02*
X396162Y485122D01*
X403203D01*
X378700Y467360D02*
Y467660D01*
X429260Y436880D02*
Y462280D01*
X580630Y172720D02*
Y173020D01*
X778713Y383540D02*
X805383D01*
X805180Y409260D02*
Y441960D01*
Y406240D02*
Y407990D01*
X824738Y439420D02*
X848791D01*
X850061Y440690D01*
X850900D01*
X805180Y441960D02*
X815340Y452120D01*
X772922D02*
X815340D01*
X824738D01*
Y464820D02*
X842010D01*
X852170Y474980D01*
X877010Y465550D02*
X880110D01*
X867580Y474980D02*
X877010Y465550D01*
X852170Y474980D02*
X867580D01*
X808990Y500192D02*
X818962Y490220D01*
X824738D01*
X772922D02*
X818962D01*
X824738Y502920D02*
X847730D01*
X852170Y498480D01*
X852755Y499065D01*
X879525D01*
X880110Y499650D01*
X882077Y501617D01*
X908779D01*
X908812Y501650D01*
X1054540Y548640D02*
X1055370Y547810D01*
Y506290D02*
Y547810D01*
X1055370Y461120D02*
X1056805Y462555D01*
X1055370Y419930D02*
Y461120D01*
X1054540Y419100D02*
X1055370Y419930D01*
X1136020Y919480D02*
X1226820D01*
X1239520Y906780D01*
Y851420D02*
Y906780D01*
X1168655Y896385D02*
X1168890Y896620D01*
X1168655Y863505D02*
Y896385D01*
X1168420Y863270D02*
X1168655Y863505D01*
D18*
X1088390Y496890D02*
D03*
Y473390D02*
D03*
X565150Y102550D02*
D03*
Y126050D02*
D03*
X538480Y102550D02*
D03*
Y126050D02*
D03*
X688340Y102550D02*
D03*
Y126050D02*
D03*
X718820Y102230D02*
D03*
Y125730D02*
D03*
X577850Y841690D02*
D03*
Y865190D02*
D03*
X334010Y621980D02*
D03*
Y645480D02*
D03*
X607060Y841690D02*
D03*
Y865190D02*
D03*
X278130Y790890D02*
D03*
Y814390D02*
D03*
X309880Y621660D02*
D03*
Y645160D02*
D03*
X506730Y852490D02*
D03*
Y828990D02*
D03*
X519430Y250830D02*
D03*
Y227330D02*
D03*
X566420Y227010D02*
D03*
Y250510D02*
D03*
X498074Y250744D02*
D03*
Y227244D02*
D03*
X509270Y125730D02*
D03*
Y102230D02*
D03*
X671830Y227010D02*
D03*
Y250510D02*
D03*
X718820Y249560D02*
D03*
Y226060D02*
D03*
X650240Y227330D02*
D03*
Y250830D02*
D03*
X662940Y102550D02*
D03*
Y126050D02*
D03*
X488950Y984570D02*
D03*
Y961070D02*
D03*
X744474Y952632D02*
D03*
Y929132D02*
D03*
X764794D02*
D03*
Y952632D02*
D03*
X785114Y929132D02*
D03*
Y952632D02*
D03*
X1193800Y125730D02*
D03*
Y102230D02*
D03*
X957834Y930082D02*
D03*
Y953582D02*
D03*
X937514Y930082D02*
D03*
Y953582D02*
D03*
X917194Y930082D02*
D03*
Y953582D02*
D03*
X807974Y930082D02*
D03*
Y953582D02*
D03*
X828294Y930082D02*
D03*
Y953582D02*
D03*
X848614Y930082D02*
D03*
Y953582D02*
D03*
X868934Y930082D02*
D03*
Y953582D02*
D03*
X889254Y930082D02*
D03*
Y953582D02*
D03*
X712470Y777682D02*
D03*
Y801182D02*
D03*
X808990Y521970D02*
D03*
Y545470D02*
D03*
X805180Y384490D02*
D03*
Y407990D02*
D03*
X994410Y526100D02*
D03*
Y502600D02*
D03*
X740410Y501020D02*
D03*
Y477520D02*
D03*
X852170Y474980D02*
D03*
Y498480D02*
D03*
X994410Y437830D02*
D03*
Y461330D02*
D03*
X254000Y790890D02*
D03*
Y814390D02*
D03*
X1007110Y199070D02*
D03*
Y222570D02*
D03*
X1076960D02*
D03*
Y199070D02*
D03*
X1054100Y222570D02*
D03*
Y199070D02*
D03*
X1029970Y222570D02*
D03*
Y199070D02*
D03*
X1140460Y221620D02*
D03*
Y198120D02*
D03*
X848360Y205420D02*
D03*
Y228920D02*
D03*
X902970Y93030D02*
D03*
Y69530D02*
D03*
X801624Y685480D02*
D03*
Y708980D02*
D03*
D19*
X899482Y832502D02*
D03*
X894482D02*
D03*
X889482D02*
D03*
X884482D02*
D03*
X879482D02*
D03*
X874482D02*
D03*
X869482D02*
D03*
X864482D02*
D03*
X859482D02*
D03*
X854482D02*
D03*
X849482D02*
D03*
X844482D02*
D03*
Y748902D02*
D03*
X849482D02*
D03*
X854482D02*
D03*
X859482D02*
D03*
X864482D02*
D03*
X869482D02*
D03*
X874482D02*
D03*
X879482D02*
D03*
X884482D02*
D03*
X889482D02*
D03*
X894482D02*
D03*
X899482D02*
D03*
D20*
X830182Y818202D02*
D03*
Y813202D02*
D03*
Y808202D02*
D03*
Y803202D02*
D03*
Y798202D02*
D03*
Y793202D02*
D03*
Y788202D02*
D03*
Y783202D02*
D03*
Y778202D02*
D03*
Y773202D02*
D03*
Y768202D02*
D03*
Y763202D02*
D03*
X913782D02*
D03*
Y768202D02*
D03*
Y773202D02*
D03*
Y778202D02*
D03*
Y783202D02*
D03*
Y788202D02*
D03*
Y793202D02*
D03*
Y798202D02*
D03*
Y803202D02*
D03*
Y808202D02*
D03*
Y813202D02*
D03*
Y818202D02*
D03*
D21*
X71010Y554990D02*
D03*
X89010D02*
D03*
X515510Y635000D02*
D03*
X533510D02*
D03*
X515510Y657860D02*
D03*
X533510D02*
D03*
Y612140D02*
D03*
X515510D02*
D03*
X787434Y663956D02*
D03*
X805434D02*
D03*
X787290Y641096D02*
D03*
X805290D02*
D03*
X962262Y635762D02*
D03*
X944262D02*
D03*
Y658622D02*
D03*
X962262D02*
D03*
X944262Y684022D02*
D03*
X962262D02*
D03*
X944262Y706882D02*
D03*
X962262D02*
D03*
X1123840Y894080D02*
D03*
X1141840D02*
D03*
X1059942Y792480D02*
D03*
X1077942D02*
D03*
X1059942Y764540D02*
D03*
X1077942D02*
D03*
X1033382Y739140D02*
D03*
X1015382D02*
D03*
X971770Y439420D02*
D03*
X953770D02*
D03*
X1011030Y133350D02*
D03*
X993030D02*
D03*
D22*
X1055370Y463990D02*
D03*
Y506290D02*
D03*
X1148080Y258250D02*
D03*
Y300550D02*
D03*
D23*
X628650Y590660D02*
D03*
Y572660D02*
D03*
X635000Y861170D02*
D03*
Y843170D02*
D03*
X553720Y899270D02*
D03*
Y881270D02*
D03*
X429260Y640300D02*
D03*
Y622300D02*
D03*
X401320Y793640D02*
D03*
Y811640D02*
D03*
X375920Y793640D02*
D03*
Y811640D02*
D03*
X384810Y640190D02*
D03*
Y622190D02*
D03*
X358140Y640190D02*
D03*
Y622190D02*
D03*
X457200D02*
D03*
Y640190D02*
D03*
X646430Y774590D02*
D03*
Y792590D02*
D03*
Y707390D02*
D03*
Y689390D02*
D03*
X874522Y709422D02*
D03*
Y691422D02*
D03*
X897382Y709422D02*
D03*
Y691422D02*
D03*
X920242Y709642D02*
D03*
Y691642D02*
D03*
X823722Y691422D02*
D03*
Y709422D02*
D03*
X846582D02*
D03*
Y691422D02*
D03*
X710946Y841358D02*
D03*
Y823358D02*
D03*
Y738522D02*
D03*
Y756522D02*
D03*
X1024890Y520920D02*
D03*
Y502920D02*
D03*
Y443120D02*
D03*
Y461120D02*
D03*
X636270Y882430D02*
D03*
Y900430D02*
D03*
X722530Y934278D02*
D03*
Y952278D02*
D03*
X699516Y934466D02*
D03*
Y952466D02*
D03*
X674370Y934610D02*
D03*
Y952610D02*
D03*
X827786Y384556D02*
D03*
Y402556D02*
D03*
X231140Y791210D02*
D03*
Y809210D02*
D03*
X1093470Y271890D02*
D03*
Y253890D02*
D03*
X1005840Y269350D02*
D03*
Y251350D02*
D03*
X976630Y177910D02*
D03*
Y159910D02*
D03*
X949960Y177910D02*
D03*
Y159910D02*
D03*
X1070610Y271780D02*
D03*
Y253780D02*
D03*
X1117600Y271890D02*
D03*
Y253890D02*
D03*
X925830Y90280D02*
D03*
Y72280D02*
D03*
D24*
X669290Y838040D02*
D03*
Y868840D02*
D03*
X960120Y90330D02*
D03*
Y59530D02*
D03*
D25*
X1198390Y896620D02*
D03*
X1168890D02*
D03*
D26*
X595630Y593680D02*
D03*
X586480Y572180D02*
D03*
X604780D02*
D03*
D27*
X329340Y497840D02*
D03*
X348840D02*
D03*
X145640Y494030D02*
D03*
X126140D02*
D03*
D28*
X298890Y401320D02*
D03*
X341190D02*
D03*
X146880D02*
D03*
X104580D02*
D03*
X1096840Y548640D02*
D03*
X1054540D02*
D03*
Y422910D02*
D03*
X1096840D02*
D03*
D29*
X1116330Y217620D02*
D03*
Y198120D02*
D03*
X543560Y226470D02*
D03*
Y245970D02*
D03*
X695960Y224790D02*
D03*
Y244290D02*
D03*
X513080Y965610D02*
D03*
Y985110D02*
D03*
X782320Y544010D02*
D03*
Y524510D02*
D03*
X779780Y402180D02*
D03*
Y382680D02*
D03*
X824230Y226920D02*
D03*
Y207420D02*
D03*
X878840Y70260D02*
D03*
Y89760D02*
D03*
D30*
X880110Y465550D02*
D03*
Y499650D02*
D03*
D31*
X1157650Y510540D02*
D03*
X1115650D02*
D03*
Y459740D02*
D03*
X1157650D02*
D03*
D32*
X944662Y610362D02*
D03*
X961862D02*
D03*
D33*
X401310Y413360D02*
D03*
Y394360D02*
D03*
X381010Y403860D02*
D03*
X185440Y403200D02*
D03*
X205740Y393700D02*
D03*
Y412700D02*
D03*
D34*
X405760Y487680D02*
D03*
X429260D02*
D03*
X348300Y519430D02*
D03*
X324800D02*
D03*
X405760Y436880D02*
D03*
X429260D02*
D03*
X405760Y462280D02*
D03*
X429260D02*
D03*
X202880Y488950D02*
D03*
X226380D02*
D03*
X145100Y515620D02*
D03*
X121600D02*
D03*
X226380Y438150D02*
D03*
X202880D02*
D03*
X226380Y462280D02*
D03*
X202880D02*
D03*
X967928Y876808D02*
D03*
X991428D02*
D03*
X967928Y808228D02*
D03*
X991428D02*
D03*
X1112520Y919480D02*
D03*
X1136020D02*
D03*
X967928Y856488D02*
D03*
X991428D02*
D03*
Y828548D02*
D03*
X967928D02*
D03*
X991428Y769366D02*
D03*
X967928D02*
D03*
X991428Y788162D02*
D03*
X967928D02*
D03*
X991428Y746252D02*
D03*
X967928D02*
D03*
X1015172Y764540D02*
D03*
X1038672D02*
D03*
X1016122Y792480D02*
D03*
X1039622D02*
D03*
X1113470Y652780D02*
D03*
X1136970D02*
D03*
Y675640D02*
D03*
X1113470D02*
D03*
D35*
X459670Y576580D02*
D03*
X534670D02*
D03*
D36*
X281700Y467360D02*
D03*
Y441960D02*
D03*
X378700D02*
D03*
Y467360D02*
D03*
X78500D02*
D03*
Y441960D02*
D03*
X175500D02*
D03*
Y467360D02*
D03*
X580630Y172720D02*
D03*
Y198120D02*
D03*
X483630D02*
D03*
Y172720D02*
D03*
X730490D02*
D03*
Y198120D02*
D03*
X633490D02*
D03*
Y172720D02*
D03*
D37*
X546412Y778164D02*
D03*
Y773164D02*
D03*
Y768164D02*
D03*
Y763164D02*
D03*
Y758164D02*
D03*
Y753164D02*
D03*
Y748164D02*
D03*
Y743164D02*
D03*
Y738164D02*
D03*
Y733164D02*
D03*
Y728164D02*
D03*
Y723164D02*
D03*
Y718164D02*
D03*
Y713164D02*
D03*
Y708164D02*
D03*
Y703164D02*
D03*
X433012D02*
D03*
Y708164D02*
D03*
Y713164D02*
D03*
Y718164D02*
D03*
Y723164D02*
D03*
Y728164D02*
D03*
Y733164D02*
D03*
Y738164D02*
D03*
Y743164D02*
D03*
Y748164D02*
D03*
Y753164D02*
D03*
Y758164D02*
D03*
Y763164D02*
D03*
Y768164D02*
D03*
Y773164D02*
D03*
Y778164D02*
D03*
D38*
X527212Y683964D02*
D03*
X522212D02*
D03*
X517212D02*
D03*
X512212D02*
D03*
X507212D02*
D03*
X502212D02*
D03*
X497212D02*
D03*
X492212D02*
D03*
X487212D02*
D03*
X482212D02*
D03*
X477212D02*
D03*
X472212D02*
D03*
X467212D02*
D03*
X462212D02*
D03*
X457212D02*
D03*
X452212D02*
D03*
Y797364D02*
D03*
X457212D02*
D03*
X462212D02*
D03*
X467212D02*
D03*
X472212D02*
D03*
X477212D02*
D03*
X482212D02*
D03*
X487212D02*
D03*
X492212D02*
D03*
X497212D02*
D03*
X502212D02*
D03*
X507212D02*
D03*
X512212D02*
D03*
X517212D02*
D03*
X522212D02*
D03*
X527212D02*
D03*
D39*
X772922Y426720D02*
D03*
Y439420D02*
D03*
Y452120D02*
D03*
Y464820D02*
D03*
Y477520D02*
D03*
Y490220D02*
D03*
Y502920D02*
D03*
X824738D02*
D03*
Y490220D02*
D03*
Y477520D02*
D03*
Y464820D02*
D03*
Y452120D02*
D03*
Y439420D02*
D03*
Y426720D02*
D03*
D40*
X958088Y463550D02*
D03*
Y476250D02*
D03*
Y488950D02*
D03*
Y501650D02*
D03*
X908812D02*
D03*
Y488950D02*
D03*
Y476250D02*
D03*
Y463550D02*
D03*
D41*
X1059550Y85090D02*
D03*
D42*
X997850Y108090D02*
D03*
Y85090D02*
D03*
Y62090D02*
D03*
D43*
X604012Y693164D02*
D03*
Y788164D02*
D03*
X753872Y837948D02*
D03*
Y742948D02*
D03*
D44*
X948690Y264950D02*
D03*
Y204950D02*
D03*
D45*
X201676Y788670D02*
D03*
Y801370D02*
D03*
Y814070D02*
D03*
Y826770D02*
D03*
X152400D02*
D03*
Y814070D02*
D03*
Y801370D02*
D03*
Y788670D02*
D03*
D46*
X1028090Y273170D02*
D03*
X1037590D02*
D03*
X1047090D02*
D03*
Y250070D02*
D03*
X1037590D02*
D03*
X1028090D02*
D03*
D47*
X610360Y891980D02*
D03*
Y946980D02*
D03*
X578360D02*
D03*
Y891980D02*
D03*
D104*
X884482Y761292D02*
X885190Y762000D01*
X884482Y748902D02*
Y761292D01*
X869950Y735330D02*
Y748434D01*
X869482Y748902D02*
X869950Y748434D01*
X900430Y808990D02*
X901218Y808202D01*
X913782D01*
X928062Y778202D02*
X928370Y778510D01*
X913782Y778202D02*
X928062D01*
X816610Y783590D02*
X816998Y783202D01*
X830182D01*
X521970Y814070D02*
X522212Y813828D01*
Y797364D02*
Y813828D01*
Y672858D02*
X524510Y670560D01*
X522212Y672858D02*
Y683964D01*
X445770Y632120D02*
Y635000D01*
Y632120D02*
X455700Y622190D01*
X457200D01*
X453390Y668020D02*
Y668239D01*
X457212Y672061D01*
Y683964D01*
X949960Y159910D02*
X976630D01*
X445770Y604520D02*
X467360D01*
X471170Y608330D02*
Y626110D01*
X467360Y604520D02*
X471170Y608330D01*
Y626110D02*
X476250Y631190D01*
X511700D01*
X515510Y635000D01*
X443230Y607060D02*
Y627830D01*
Y607060D02*
X445770Y604520D01*
X430760Y640300D02*
X443230Y627830D01*
X401320Y792370D02*
X403970Y795020D01*
X515400Y656480D02*
X517212Y658292D01*
X515400Y635000D02*
Y656480D01*
X427968Y778894D02*
Y792502D01*
X424651Y795819D02*
X427968Y792502D01*
X414491Y795819D02*
X424651D01*
X414020Y796290D02*
X414491Y795819D01*
X401320Y793640D02*
X403095Y795415D01*
X428698Y778164D02*
X433012D01*
X427968Y778894D02*
X428698Y778164D01*
X517212Y658292D02*
Y683964D01*
D105*
X467286Y660474D02*
Y683890D01*
Y660474D02*
X467360Y660400D01*
X472212Y671051D02*
Y683964D01*
X474370Y655143D02*
Y668893D01*
X472212Y671051D02*
X474370Y668893D01*
X473710Y654483D02*
X474370Y655143D01*
X473710Y654050D02*
Y654483D01*
X467212Y683964D02*
X467286Y683890D01*
X864870Y765810D02*
X875030D01*
X859682Y749102D02*
Y760622D01*
X864870Y765810D01*
X879482Y748902D02*
Y761358D01*
X875030Y765810D02*
X879482Y761358D01*
Y728980D02*
Y748902D01*
X859482D02*
X859682Y749102D01*
X899160Y772296D02*
X903254Y768202D01*
X936138D01*
X899160Y772296D02*
Y780274D01*
X941722Y709422D02*
Y762618D01*
X936138Y768202D02*
X941722Y762618D01*
X1038750Y251230D02*
Y258970D01*
X1041400Y261620D01*
X1054590D01*
X1037590Y250070D02*
X1038750Y251230D01*
X1054590Y261620D02*
X1056640Y259570D01*
Y225110D02*
Y259570D01*
X1054100Y222570D02*
X1056640Y225110D01*
X889282Y748702D02*
X889682Y749102D01*
X899160Y780274D02*
Y800100D01*
Y780274D02*
X902088Y783202D01*
X899160Y800100D02*
X902262Y803202D01*
X902088Y783202D02*
X913782D01*
X879482Y728980D02*
X889282Y738780D01*
Y748702D01*
X879482Y713972D02*
Y728980D01*
X902262Y803202D02*
X913782D01*
X874522Y709422D02*
X874932D01*
X879482Y713972D01*
D106*
X1064213Y844550D02*
X1125021D01*
X1065555Y841311D02*
X1123679D01*
X991428Y828548D02*
X1004191Y841311D01*
X1064213Y844550D02*
X1064213Y844550D01*
X1123679Y841311D02*
X1135420Y829570D01*
X1004191Y841311D02*
X1065555D01*
X1065555Y841311D01*
X1125021Y844550D02*
X1125021Y844550D01*
X991428Y856488D02*
X1003366Y844550D01*
X1125021D02*
X1144387D01*
X1003366D02*
X1064213D01*
X1144387D02*
X1153160Y835777D01*
Y821690D02*
Y835777D01*
X1113790Y816610D02*
X1148080D01*
X1153160Y821690D01*
X1088132Y804170D02*
X1135420D01*
X1077942Y792480D02*
Y793980D01*
X1088132Y804170D01*
X1077942Y764540D02*
X1079472Y766070D01*
X1110020D01*
X991428Y856488D02*
Y876808D01*
Y808228D02*
Y828548D01*
X953008Y746252D02*
X967928D01*
X948690Y750570D02*
X953008Y746252D01*
X948690Y750570D02*
Y765810D01*
X941298Y773202D02*
X948690Y765810D01*
X913782Y773202D02*
X941298D01*
X943864Y840740D02*
X955736D01*
X925978Y822854D02*
X943864Y840740D01*
X955736D02*
X963676Y832800D01*
X459740Y833120D02*
Y935990D01*
Y833120D02*
X477212Y815648D01*
X459740Y935990D02*
X466090Y942340D01*
X485140D01*
X488950Y946150D02*
Y956340D01*
X485140Y942340D02*
X488950Y946150D01*
Y956340D02*
X488965Y956325D01*
X488950Y961070D02*
Y962820D01*
Y956340D02*
Y961070D01*
Y984570D02*
X489490Y985110D01*
X513080D01*
X477212Y797364D02*
Y815648D01*
X481800Y861529D02*
X488149Y867879D01*
X481800Y855180D02*
X486293Y850686D01*
X481800Y855180D02*
Y861529D01*
X441774Y768164D02*
X445770Y772160D01*
X653962Y897978D02*
Y911206D01*
X661758Y890182D02*
X774697D01*
X653962Y897978D02*
X661758Y890182D01*
X663619Y893401D02*
X776031D01*
X657181Y899839D02*
Y913809D01*
Y899839D02*
X663619Y893401D01*
X665480Y896620D02*
X777364D01*
X660400Y901700D02*
X665480Y896620D01*
X660400Y901700D02*
Y915670D01*
X774697Y890182D02*
X801282Y863597D01*
X777364Y896620D02*
X807720Y866264D01*
X776031Y893401D02*
X804501Y864930D01*
X481800Y914870D02*
X490811Y923881D01*
X647109D01*
X481800Y900900D02*
Y914870D01*
X647109Y923881D02*
X657181Y913809D01*
X648970Y927100D02*
X660400Y915670D01*
X483870Y927100D02*
X648970D01*
X538777Y908347D02*
X544830Y914400D01*
X650768D01*
X653962Y911206D01*
X492212Y797364D02*
Y905683D01*
X492760Y906230D02*
Y906780D01*
X492212Y905683D02*
X492760Y906230D01*
X481800Y900900D02*
X488149Y894549D01*
Y867879D02*
Y871690D01*
X481800Y878039D02*
X488149Y871690D01*
X481800Y878039D02*
Y881850D01*
X488149Y888199D02*
Y894549D01*
X481800Y881850D02*
X488149Y888199D01*
X807720Y819150D02*
Y866264D01*
Y819150D02*
X813668Y813202D01*
X830182D01*
X804501Y816019D02*
X812318Y808202D01*
X830182D01*
X804501Y816019D02*
Y864930D01*
X810226Y803202D02*
X830182D01*
X801282Y812146D02*
X810226Y803202D01*
X538777Y788376D02*
Y908347D01*
X534670Y579790D02*
Y610870D01*
X562610D01*
X534510D02*
X534670D01*
X535270Y579790D02*
X538480Y576580D01*
X534670Y610870D02*
Y612140D01*
Y576580D02*
Y579790D01*
X567690Y615950D02*
Y737870D01*
X562610Y610870D02*
X567690Y615950D01*
X557530Y748030D02*
X567690Y737870D01*
X546345Y748097D02*
X546412Y748164D01*
X546546Y748030D01*
X557530D01*
X482212Y787280D02*
X487172Y782320D01*
X532721D01*
X538777Y788376D01*
X801282Y812146D02*
Y863597D01*
X784860Y929386D02*
X785114Y929132D01*
X482212Y787280D02*
Y797364D01*
X433012Y768164D02*
X441774D01*
X507212Y683964D02*
Y758672D01*
X515667Y767127D01*
X515667D01*
X521970Y773430D01*
X913782Y798202D02*
X972554D01*
X975917Y794839D01*
X507212Y797364D02*
Y828508D01*
X506730Y828990D02*
X507212Y828508D01*
X997347Y777144D02*
X1040408D01*
X1054023Y777144D02*
X1055177Y775991D01*
X1040408Y777144D02*
X1040408Y777144D01*
X997347Y780384D02*
X1041750D01*
X1054023Y780384D02*
X1055177Y781537D01*
X1040408Y777144D02*
X1054023D01*
X1055177Y781537D02*
Y787715D01*
Y769305D02*
Y775991D01*
X1041750Y780384D02*
X1041750Y780384D01*
X1054023D01*
X996193Y774131D02*
Y775991D01*
X991428Y769366D02*
X996193Y774131D01*
Y775991D02*
X997347Y777144D01*
X991428Y788162D02*
X996193Y783397D01*
Y781537D02*
Y783397D01*
Y781537D02*
X997347Y780384D01*
X975917Y777355D02*
Y794839D01*
X967928Y769366D02*
X975917Y777355D01*
X955228Y856996D02*
X965708D01*
X925978Y814355D02*
Y822854D01*
X920182Y818202D02*
X920598Y818617D01*
Y822365D02*
X955228Y856996D01*
X920598Y818617D02*
Y822365D01*
X913782Y813202D02*
X924825D01*
X925978Y814355D01*
X913782Y818202D02*
X920182D01*
X1028822Y805180D02*
X1067562D01*
X1015382Y740640D02*
X1028508Y753765D01*
X1068942D01*
X1114070D02*
X1135420Y775115D01*
X1060560Y753765D02*
X1114070D01*
X1015382Y739140D02*
Y740640D01*
X1015172Y743180D02*
Y764540D01*
X1016122Y792480D02*
X1028822Y805180D01*
X1135420Y775115D02*
Y778770D01*
X1038672Y764540D02*
X1059942D01*
X1039622Y792480D02*
X1059942D01*
X1055177Y787715D02*
X1059942Y792480D01*
X1055177Y769305D02*
X1059942Y764540D01*
D107*
X414020Y112090D02*
Y210740D01*
X404800Y102870D02*
X414020Y112090D01*
X355600Y106500D02*
Y354320D01*
X304800Y102870D02*
Y104900D01*
X295600Y114100D02*
X304800Y104900D01*
X295600Y114100D02*
Y212320D01*
X144780Y102870D02*
X162560Y120650D01*
Y354320D01*
X195580Y102870D02*
X222560Y129850D01*
Y212320D01*
X354000Y102870D02*
Y104900D01*
X355600Y106500D01*
X102560Y208261D02*
Y212320D01*
X95580Y201281D02*
X102560Y208261D01*
X95580Y102870D02*
Y201281D01*
Y102870D02*
X96520Y101930D01*
D108*
X1093470Y205740D02*
Y224790D01*
X1077248Y199358D02*
X1087088D01*
X1093470Y205740D01*
X1076960Y199070D02*
X1077248Y199358D01*
X1094970Y271890D02*
X1104900Y261960D01*
Y236220D02*
Y261960D01*
X1093470Y224790D02*
X1104900Y236220D01*
X1093470Y271890D02*
X1094970D01*
X1213076Y670560D02*
X1224280Y681764D01*
X1211580Y675640D02*
X1219630Y683690D01*
X1224280Y728980D02*
X1239520Y744220D01*
X1224280Y681764D02*
Y728980D01*
X1219630Y806130D02*
X1239520Y826020D01*
X1219630Y683690D02*
Y806130D01*
X1136970Y652780D02*
X1154750Y670560D01*
X1213076D01*
X1136970Y675640D02*
X1211580D01*
D109*
X1035890Y271470D02*
X1037590Y273170D01*
X1032510Y261620D02*
X1035890Y265000D01*
Y271470D01*
X1015070Y261620D02*
X1032510D01*
X1007340Y269350D02*
X1015070Y261620D01*
D110*
X1005840Y269350D02*
X1007340D01*
X953090D02*
X1005840D01*
X948690Y264950D02*
X953090Y269350D01*
X1005840Y251350D02*
X1026890D01*
X1028090Y250150D01*
Y250070D02*
Y250150D01*
D111*
X635000Y841900D02*
X665430D01*
X630135Y846765D02*
X635000Y841900D01*
X546412Y779780D02*
Y838512D01*
X561340Y853440D01*
X580390Y538201D02*
X586480Y544291D01*
Y572180D01*
X580390Y533070D02*
Y538201D01*
X604396Y594360D02*
X604520D01*
X595630Y593680D02*
X603716D01*
X604396Y594360D01*
X669290Y825500D02*
Y838040D01*
X618490Y853440D02*
X625165Y846765D01*
X630135D01*
X561340Y853440D02*
X618490D01*
X665430Y841900D02*
X669290Y838040D01*
D112*
X501650Y886460D02*
X529590D01*
X497526Y882336D02*
X501650Y886460D01*
X497526Y797812D02*
Y882336D01*
X497078Y797364D02*
X497526Y797812D01*
X486293Y850686D02*
X487212Y849767D01*
Y797364D02*
Y849767D01*
X482212Y797364D02*
X482600Y797752D01*
X943726Y793750D02*
X944880Y792596D01*
X952500Y784744D02*
Y792596D01*
X953654Y793750D01*
X962340D02*
X967928Y788162D01*
X937260Y792596D02*
X938414Y793750D01*
X937260Y784744D02*
Y792596D01*
X953654Y793750D02*
X962340D01*
X938414D02*
X943726D01*
X944880Y784744D02*
Y792596D01*
X930794Y783590D02*
X936106D01*
X937260Y784744D01*
X946034Y783590D02*
X951346D01*
X944880Y784744D02*
X946034Y783590D01*
X951346D02*
X952500Y784744D01*
X929640D02*
Y791210D01*
Y784744D02*
X930794Y783590D01*
X927648Y793202D02*
X929640Y791210D01*
X913782Y793202D02*
X927648D01*
D113*
X1052000Y502920D02*
X1055370Y506290D01*
X1024890Y502920D02*
X1052000D01*
X994410Y461330D02*
X994515Y461225D01*
X994410Y502600D02*
X1024570D01*
X994515Y461225D02*
X1024785D01*
X1024890Y461120D01*
X1026325Y462555D01*
X1053935D01*
X1055370Y463990D02*
Y467090D01*
X1061670Y473390D01*
X1088390D01*
X1055370Y503190D02*
Y506290D01*
Y503190D02*
X1061670Y496890D01*
X1088390D01*
X1095690Y504190D01*
X1112150D02*
X1115650Y507690D01*
X1095690Y504190D02*
X1112150D01*
X1115650Y507690D02*
Y510540D01*
X1112150Y465140D02*
X1115650Y461640D01*
X1090140Y469826D02*
X1094826Y465140D01*
X1088390Y473390D02*
X1090140Y471640D01*
X1115650Y459740D02*
Y461640D01*
X1094826Y465140D02*
X1112150D01*
X1090140Y469826D02*
Y471640D01*
D114*
X958088Y488950D02*
X980760D01*
X994410Y502600D01*
X979490Y476250D02*
X994410Y461330D01*
X958088Y476250D02*
X979490D01*
D115*
X1157650Y459740D02*
X1158590Y460680D01*
X1195070D01*
X1157650Y510540D02*
X1158590Y511480D01*
X1195070D01*
D116*
X1193800Y296380D02*
D03*
X1195070Y511480D02*
D03*
D117*
X1193800Y246380D02*
D03*
X304800Y102870D02*
D03*
X354000D02*
D03*
X95580D02*
D03*
X144780D02*
D03*
X1168420Y706970D02*
D03*
Y863270D02*
D03*
X1195070Y411480D02*
D03*
Y460680D02*
D03*
D118*
X580390Y533070D02*
D03*
D119*
Y333070D02*
D03*
D120*
X52070Y789940D02*
D03*
Y764540D02*
D03*
Y739140D02*
D03*
Y713740D02*
D03*
Y688340D02*
D03*
X690880Y44450D02*
D03*
X716280D02*
D03*
X539750D02*
D03*
X565150D02*
D03*
D121*
X52070Y662940D02*
D03*
D122*
X72790Y618210D02*
D03*
X98190D02*
D03*
X123590D02*
D03*
X1153160Y113100D02*
D03*
Y38100D02*
D03*
D123*
X148990Y618210D02*
D03*
D124*
X665480Y44450D02*
D03*
X514350D02*
D03*
D125*
X67510Y513080D02*
D03*
X178870Y678180D02*
D03*
D126*
X92510Y513080D02*
D03*
X153870Y678180D02*
D03*
D127*
X39370Y180340D02*
D03*
X39281Y979094D02*
D03*
X1257300Y982980D02*
D03*
X731520Y579120D02*
D03*
D128*
X404800Y102870D02*
D03*
X195580D02*
D03*
D129*
X321310Y975360D02*
D03*
X295910D02*
D03*
X270510D02*
D03*
X379730Y974090D02*
D03*
X405130D02*
D03*
X430530D02*
D03*
X185420Y975360D02*
D03*
X160020D02*
D03*
X134620D02*
D03*
D130*
X245110D02*
D03*
X455930Y974090D02*
D03*
X109220Y975360D02*
D03*
D131*
X1135420Y829570D02*
D03*
D132*
X1110020Y816870D02*
D03*
X1135420Y804170D02*
D03*
X1110020Y791470D02*
D03*
X1135420Y778770D02*
D03*
X1110020Y766070D02*
D03*
X1135420Y753370D02*
D03*
X1110020Y740670D02*
D03*
D133*
X1198920Y842270D02*
D03*
Y727970D02*
D03*
D134*
X1239520Y851420D02*
D03*
Y718820D02*
D03*
Y826020D02*
D03*
Y744220D02*
D03*
D135*
X295600Y212320D02*
D03*
X415600D02*
D03*
Y334320D02*
D03*
X355600Y354320D02*
D03*
X295600Y334320D02*
D03*
X102560D02*
D03*
X162560Y354320D02*
D03*
X222560Y334320D02*
D03*
Y212320D02*
D03*
X102560D02*
D03*
D136*
X1225550Y36830D02*
D03*
X1244600Y81280D02*
D03*
X1225550Y73660D02*
D03*
X1264920Y36830D02*
D03*
X1217930Y54610D02*
D03*
X1271270D02*
D03*
X1264920Y73660D02*
D03*
X1244600Y27940D02*
D03*
X825500Y868680D02*
D03*
Y840740D02*
D03*
X474980Y739140D02*
D03*
X466090Y746854D02*
D03*
X458470Y727710D02*
D03*
X452120Y734060D02*
D03*
X784860Y939800D02*
D03*
X851662Y763778D02*
D03*
X844804Y772922D02*
D03*
D137*
X1244600Y54610D02*
D03*
D138*
X659007Y736521D02*
D03*
X641350Y736600D02*
D03*
X650240D02*
D03*
X356747Y927021D02*
D03*
Y939721D02*
D03*
Y951151D02*
D03*
X454537Y173911D02*
D03*
Y205661D02*
D03*
Y293291D02*
D03*
Y318691D02*
D03*
Y341551D02*
D03*
X386080Y523240D02*
D03*
X370840D02*
D03*
X312297Y505381D02*
D03*
X314837Y383461D02*
D03*
X265430Y384810D02*
D03*
X254000D02*
D03*
X276860D02*
D03*
X461010Y820420D02*
D03*
X459617Y713661D02*
D03*
X511687Y774621D02*
D03*
X467237Y761921D02*
D03*
X559947Y669211D02*
D03*
Y684451D02*
D03*
X528197Y761921D02*
D03*
X1079500Y852170D02*
D03*
X1069340D02*
D03*
X946150Y902970D02*
D03*
X1069340Y834390D02*
D03*
X1079500D02*
D03*
X835660Y904240D02*
D03*
X816610Y915670D02*
D03*
X925830Y899160D02*
D03*
X859790Y890270D02*
D03*
X880110Y896620D02*
D03*
X901700Y897890D02*
D03*
X657860Y928370D02*
D03*
X666750Y919480D02*
D03*
X656590Y941070D02*
D03*
X599440Y934720D02*
D03*
X621030D02*
D03*
X631190D02*
D03*
X567690Y906780D02*
D03*
X581739Y934597D02*
D03*
X590550Y934720D02*
D03*
X514350D02*
D03*
X474980Y930910D02*
D03*
X497840Y934720D02*
D03*
X539829Y935867D02*
D03*
X549989D02*
D03*
X560149D02*
D03*
X537210Y916940D02*
D03*
X497840D02*
D03*
X514350D02*
D03*
X800100Y801370D02*
D03*
X792480Y810260D02*
D03*
X792559Y821567D02*
D03*
X788670Y902970D02*
D03*
X836930Y855980D02*
D03*
X754380Y911860D02*
D03*
X777240Y876300D02*
D03*
X784860Y868680D02*
D03*
X792559Y860937D02*
D03*
X793627Y850821D02*
D03*
Y840661D02*
D03*
Y830501D02*
D03*
X815217Y849551D02*
D03*
Y839391D02*
D03*
Y829231D02*
D03*
X807720Y885190D02*
D03*
X798830Y894080D02*
D03*
X817880Y875030D02*
D03*
X878761Y624963D02*
D03*
X868601D02*
D03*
X858441D02*
D03*
X845741D02*
D03*
X835581D02*
D03*
X825421D02*
D03*
X910511Y722753D02*
D03*
X900351D02*
D03*
X890191D02*
D03*
X1088311Y624963D02*
D03*
X1078151D02*
D03*
X1067991D02*
D03*
X1056561D02*
D03*
X1046401D02*
D03*
X1036241D02*
D03*
X876423Y784939D02*
D03*
Y795099D02*
D03*
Y805259D02*
D03*
X694813Y731599D02*
D03*
Y741759D02*
D03*
Y751919D02*
D03*
X619760Y872490D02*
D03*
X453390Y668020D02*
D03*
X648970Y264160D02*
D03*
X514350Y811530D02*
D03*
X584200Y906780D02*
D03*
X607060D02*
D03*
X497840Y267970D02*
D03*
X490390Y716280D02*
D03*
X482600Y723900D02*
D03*
D139*
X914400Y999490D02*
D03*
X927100D02*
D03*
X939800D02*
D03*
X716280Y908050D02*
D03*
X731520D02*
D03*
X712470Y881380D02*
D03*
X740410D02*
D03*
X754380D02*
D03*
X768350D02*
D03*
X509270Y872490D02*
D03*
X652780Y641350D02*
D03*
Y628650D02*
D03*
Y615950D02*
D03*
X407670Y614680D02*
D03*
Y601980D02*
D03*
X341630Y778510D02*
D03*
X328930D02*
D03*
X316230D02*
D03*
X133350Y797560D02*
D03*
Y810260D02*
D03*
Y822960D02*
D03*
X1070610Y525780D02*
D03*
X1083310D02*
D03*
X1096010D02*
D03*
X893221Y374609D02*
D03*
X905921D02*
D03*
X918621D02*
D03*
X750570Y438150D02*
D03*
Y425450D02*
D03*
Y412750D02*
D03*
X989330Y298450D02*
D03*
X976630D02*
D03*
X963930D02*
D03*
X825500Y20320D02*
D03*
X812800D02*
D03*
X800100D02*
D03*
X996950Y17780D02*
D03*
X984250D02*
D03*
X971550D02*
D03*
X742950Y289560D02*
D03*
X730250D02*
D03*
X717550D02*
D03*
X607060Y194310D02*
D03*
Y207010D02*
D03*
Y219710D02*
D03*
X538480Y86360D02*
D03*
X688340Y86360D02*
D03*
X450850Y421640D02*
D03*
Y396240D02*
D03*
Y408940D02*
D03*
X699770Y908050D02*
D03*
X687070D02*
D03*
X673100D02*
D03*
X726440Y881380D02*
D03*
X902377Y441367D02*
D03*
X580390Y302260D02*
D03*
X942340Y113030D02*
D03*
X311150Y603250D02*
D03*
X335280D02*
D03*
X328930Y435610D02*
D03*
X942340Y595630D02*
D03*
X306070Y453390D02*
D03*
X106680Y452120D02*
D03*
X124460Y435610D02*
D03*
X125730Y408940D02*
D03*
X152400Y466090D02*
D03*
X342900Y463550D02*
D03*
X916940Y972820D02*
D03*
X786130D02*
D03*
X328930Y412750D02*
D03*
X850900Y440690D02*
D03*
X1099820Y673862D02*
D03*
X1099940Y654812D02*
D03*
D140*
X467360Y660400D02*
D03*
X473710Y654050D02*
D03*
X534670Y702310D02*
D03*
X527050Y704850D02*
D03*
X414020Y796290D02*
D03*
X427018Y674072D02*
D03*
X405130Y674370D02*
D03*
X604520Y594360D02*
D03*
X669290Y825500D02*
D03*
X529590Y886460D02*
D03*
X387350Y736600D02*
D03*
Y744220D02*
D03*
X302260Y801370D02*
D03*
X295910Y810260D02*
D03*
X744220Y939800D02*
D03*
X483870Y927100D02*
D03*
X492760Y906780D02*
D03*
X304800Y722630D02*
D03*
X311150Y716280D02*
D03*
Y703580D02*
D03*
X304800Y709930D02*
D03*
X505460Y840740D02*
D03*
X521970Y773430D02*
D03*
X1067562Y805180D02*
D03*
X1068942Y753765D02*
D03*
D141*
X501650Y542290D02*
D03*
X511830Y542370D02*
D03*
M02*
